<svg id="img-fondo-login-blanco" xmlns="http://www.w3.org/2000/svg" xmlns:xlink="http://www.w3.org/1999/xlink" width="1366" height="768" viewBox="0 0 1366 768">
  <defs>
    <clipPath id="clip-path">
      <rect id="Rectángulo_20781" data-name="Rectángulo 20781" width="1366" height="768" transform="translate(0 4.76)" fill="none"/>
    </clipPath>
  </defs>
  <path id="Trazado_41031" data-name="Trazado 41031" d="M0,0H1366V768H0Z" fill="#fff"/>
  <g id="Grupo_18805" data-name="Grupo 18805" transform="translate(0 -4.76)" clip-path="url(#clip-path)">
    <path id="Trazado_40814" data-name="Trazado 40814" d="M506.317,1137.007c36.5-28.572,36.335-83.087,56.813-124.663,61.99-125.86,283.773-96.82,340.814-225,25.358-56.981,6-122.536-6.721-183.593s-14.248-134.662,33.722-174.52c51.167-42.514,133-24.258,186.938-63.2,38.924-28.1,53.287-78.472,65.127-125L1244.348,0H1128.7c5.931,99.346-.123,210.885-79.537,267.426-87.4,62.227-227.746,26.432-296.9,108.46-76.018,90.168,1.2,244.949-70.194,338.824-77.149,101.451-225.2,64.193-323.7,132.98v281.455c50.268,24.3,112.831,35.338,147.944,7.858" transform="translate(-463.164 -338.316)" fill="#f2f2f2"/>
    <path id="Trazado_40815" data-name="Trazado 40815" d="M626.681,968.9c49.312-69.117,69.228-154.329,88.083-237.113-60.554,6.108-106.6,54.678-149.634,97.72-33.9,33.905-74.85,67.975-120.157,76.694v164.025c64.731.047,137.724-39.676,181.708-101.326" transform="translate(-506.023 -700.477)" fill="#f2f2f2"/>
    <path id="Trazado_40816" data-name="Trazado 40816" d="M636.035,385.107C704,334.6,785.335,298.13,870.011,297.724c44.822-.216,90.119,9.556,134.116,1s88.067-44.313,84.539-89l-236.49,6.108c-109.917,2.84-228.786,8.85-313.816,78.561-33.444,27.419-61.23,64.3-93.387,92.752V575.991c3.581-4.262,7.225-8.448,10.842-12.57,55.851-63.646,112.255-127.807,180.219-178.315" transform="translate(-506.023 -442.108)" fill="#f2f2f2"/>
    <path id="Trazado_40817" data-name="Trazado 40817" d="M2535.539,1804.451c-54.354-28.429,7.048-138.359-48.089-165.24-33.645-16.4-68.771,23.161-76.69,59.744a182.063,182.063,0,0,0,19.506,127.233c9.8,17.216,22.519,38.881,10.745,54.811-16.077,21.753-49.172,1.315-69.882-16.084-103.9-87.291-221.174-87.431-349.7-43.893-37.5,12.7-76.2,28.8-100.321,60.189s-26.962,82.358,3.968,107.074c25.275,20.2,61.724,16.176,93.227,8.809,82.962-19.4,125.789-40.146,210.934-37.068s177.7,64.235,174.795,149.385c-75.674-37.195-159.056-75.41-241.229-56.5-12.863,2.96-26.034,7.708-34.682,17.679-19.1,22.025-5.957,58.595,17.725,75.6s53.944,20.88,82.132,28.327c82.93,21.909,150.846,81.963,191.492,156.377,19.109,34.984,27.7,86.09,49.6,123.882h124.256V1827.27a80.325,80.325,0,0,0-28.3-14.424c-9.869-2.777-20.414-3.644-29.5-8.4" transform="translate(-1227.333 -1147.677)" fill="#f2f2f2"/>
    <path id="Trazado_40858" data-name="Trazado 40858" d="M681.491,1885.512c-20.753-33.866-53.318-62.609-92.465-69.327-24.328-4.176-50.19.178-73.272-8.57-46.861-17.762-63.678-81.427-110.762-98.592-21.775-7.939-46.619-4.313-68.043-13.159-36.532-15.086-49.874-59.405-55.675-98.5s-10.666-82.8-40.837-108.335c-64.372,26.72-61.5,119.951-103.741,175.386-25.84,33.91-67.321,51.514-100.1,78.778A298.019,298.019,0,0,0,0,1787.7v194.033H719.3c-9.294-33.418-19.738-66.729-37.808-96.217" transform="translate(-285.804 -1075.239)" fill="#ff8300"/>
    <path id="Trazado_40859" data-name="Trazado 40859" d="M2535.373,1390.89c-2.011,0-3.063-1.58-4.282-3.41-1.366-2.052-2.915-4.378-6.088-4.378s-4.724,2.326-6.09,4.378c-1.2,1.8-2.24,3.349-4.187,3.4-1.947-.051-2.99-1.6-4.187-3.4-1.367-2.052-2.915-4.378-6.09-4.378-.033,0-.06.008-.093.009s-.061-.009-.094-.009c-3.175,0-4.723,2.326-6.09,4.378-1.2,1.8-2.238,3.346-4.181,3.4-1.944-.053-2.986-1.6-4.183-3.4-1.366-2.052-2.915-4.378-6.09-4.378h-.01c-.033,0-.06.008-.093.009s-.06-.009-.093-.009a1.023,1.023,0,0,0-.16.032c-2.932.169-4.429,2.373-5.742,4.345-1.2,1.8-2.239,3.346-4.183,3.4-1.944-.053-2.985-1.6-4.183-3.4-1.367-2.052-2.915-4.378-6.089-4.378-.034,0-.061.008-.094.009s-.061-.009-.094-.009h-.017c-3.162.009-4.709,2.328-6.072,4.377-1.2,1.8-2.241,3.349-4.188,3.4-1.947-.051-2.99-1.6-4.188-3.4-1.367-2.052-2.915-4.378-6.088-4.378-.034,0-.061.008-.094.009s-.061-.009-.094-.009a.991.991,0,0,0-.159.032c-2.932.169-4.43,2.373-5.743,4.345-1.218,1.83-2.27,3.41-4.281,3.41s-3.064-1.58-4.281-3.41c-1.366-2.052-2.915-4.378-6.089-4.378a1.085,1.085,0,1,0,0,2.171c2.011,0,3.063,1.58,4.282,3.41,1.365,2.052,2.914,4.378,6.088,4.378s4.722-2.325,6.088-4.377c1.2-1.8,2.241-3.35,4.188-3.4,1.947.051,2.989,1.6,4.188,3.4,1.366,2.052,2.915,4.377,6.087,4.377.033,0,.061-.008.094-.009s.059.009.093.009c3.174,0,4.722-2.325,6.09-4.377,1.2-1.8,2.239-3.347,4.183-3.4,1.944.053,2.985,1.6,4.183,3.4,1.367,2.052,2.915,4.378,6.089,4.378h.009c.034,0,.062-.008.095-.009s.061.009.094.009a1.038,1.038,0,0,0,.162-.032c2.929-.172,4.426-2.374,5.738-4.345,1.2-1.8,2.24-3.347,4.184-3.4,1.943.053,2.985,1.6,4.183,3.4,1.366,2.052,2.915,4.377,6.088,4.377.033,0,.06-.008.092-.009s.061.009.094.009h.012l.01,0c3.159-.011,4.7-2.329,6.067-4.375,1.2-1.8,2.241-3.35,4.189-3.4,1.947.051,2.989,1.6,4.187,3.4,1.366,2.052,2.915,4.378,6.089,4.378.033,0,.061-.008.095-.009s.06.009.094.009a.994.994,0,0,0,.161-.032c2.93-.172,4.426-2.374,5.74-4.345,1.218-1.83,2.27-3.411,4.282-3.411s3.063,1.58,4.281,3.411c1.366,2.052,2.915,4.377,6.089,4.377a1.085,1.085,0,0,0,0-2.171" transform="translate(-1483.767 -1022.817)" fill="#fff"/>
    <path id="Trazado_40860" data-name="Trazado 40860" d="M2574.728,1365.136c-2.011,0-3.063-1.58-4.282-3.41-1.366-2.051-2.915-4.377-6.089-4.377s-4.723,2.326-6.09,4.377c-1.2,1.8-2.24,3.35-4.187,3.4-1.947-.051-2.99-1.6-4.187-3.4-1.366-2.051-2.916-4.377-6.09-4.377-.033,0-.061.008-.093.009s-.061-.009-.094-.009c-3.174,0-4.723,2.326-6.088,4.377-1.2,1.8-2.239,3.347-4.183,3.4-1.944-.053-2.986-1.6-4.183-3.4-1.366-2.051-2.915-4.377-6.089-4.377h-.011c-.033,0-.06.008-.093.009s-.06-.009-.093-.009a1.08,1.08,0,0,0-.159.032c-2.933.17-4.43,2.373-5.743,4.345-1.2,1.8-2.239,3.347-4.182,3.4-1.944-.053-2.986-1.6-4.183-3.4-1.366-2.051-2.915-4.377-6.089-4.377-.034,0-.061.008-.094.009s-.06-.009-.094-.009h-.01l-.007,0c-3.161.009-4.708,2.328-6.072,4.376-1.2,1.8-2.241,3.35-4.188,3.4-1.948-.051-2.99-1.6-4.188-3.4-1.366-2.051-2.915-4.377-6.088-4.377-.033,0-.061.008-.093.009s-.06-.009-.093-.009a1.065,1.065,0,0,0-.16.032c-2.932.17-4.43,2.373-5.743,4.345-1.218,1.83-2.271,3.41-4.281,3.41s-3.063-1.58-4.282-3.41c-1.366-2.052-2.915-4.378-6.089-4.378a1.085,1.085,0,0,0,0,2.171c2.011,0,3.063,1.58,4.281,3.41,1.366,2.052,2.915,4.378,6.089,4.378s4.722-2.326,6.088-4.378c1.2-1.8,2.241-3.35,4.188-3.4,1.948.05,2.99,1.6,4.188,3.4,1.366,2.052,2.914,4.378,6.088,4.378.033,0,.061-.008.094-.009s.06.009.093.009c3.175,0,4.723-2.326,6.09-4.378,1.2-1.8,2.239-3.347,4.183-3.4,1.944.053,2.986,1.6,4.183,3.4,1.366,2.052,2.915,4.378,6.088,4.378h.009c.034,0,.062-.008.094-.009s.061.009.094.009a1.024,1.024,0,0,0,.162-.032c2.929-.172,4.426-2.373,5.739-4.345,1.2-1.8,2.239-3.347,4.184-3.4,1.943.053,2.986,1.6,4.183,3.4,1.366,2.052,2.914,4.378,6.088,4.378.033,0,.06-.008.094-.009s.06.009.093.009h.012l.01,0c3.158-.011,4.7-2.329,6.067-4.376,1.2-1.8,2.241-3.35,4.188-3.4,1.947.05,2.989,1.6,4.187,3.4,1.366,2.052,2.915,4.378,6.088,4.378.034,0,.062-.008.095-.009s.061.009.094.009a1.013,1.013,0,0,0,.162-.032c2.93-.172,4.426-2.373,5.739-4.345,1.218-1.829,2.27-3.41,4.282-3.41s3.063,1.58,4.282,3.41c1.365,2.052,2.915,4.378,6.089,4.378a1.085,1.085,0,0,0,0-2.171" transform="translate(-1503.244 -1010.071)" fill="#fff"/>
    <path id="Trazado_40861" data-name="Trazado 40861" d="M3105.221,2055.393c-5.382,0-8.2-4.229-11.458-9.124-3.656-5.49-7.8-11.713-16.292-11.713s-12.636,6.224-16.292,11.713c-3.206,4.815-5.994,8.962-11.2,9.1-5.21-.137-8-4.284-11.2-9.1-3.656-5.49-7.8-11.713-16.293-11.713-.088,0-.162.022-.25.023s-.162-.023-.251-.023c-8.492,0-12.636,6.224-16.292,11.714-3.2,4.809-5.99,8.952-11.19,9.1-5.2-.144-7.989-4.287-11.192-9.1-3.655-5.49-7.8-11.713-16.293-11.713h-.028c-.088,0-.162.022-.25.023s-.16-.023-.249-.023a2.759,2.759,0,0,0-.427.086c-7.846.453-11.853,6.35-15.367,11.627-3.2,4.81-5.99,8.953-11.19,9.1-5.2-.144-7.988-4.287-11.192-9.1-3.656-5.49-7.8-11.713-16.292-11.713-.089,0-.162.022-.251.023s-.162-.023-.251-.023h-.025c-.008,0-.013,0-.021,0-8.459.024-12.6,6.23-16.245,11.71-3.207,4.815-6,8.963-11.207,9.1-5.211-.135-8-4.283-11.206-9.1-3.655-5.49-7.8-11.714-16.29-11.714-.088,0-.162.022-.249.023s-.161-.023-.25-.023a2.771,2.771,0,0,0-.426.086c-7.846.453-11.852,6.349-15.366,11.627-3.26,4.9-6.075,9.124-11.456,9.124s-8.2-4.229-11.455-9.123c-3.656-5.49-7.8-11.714-16.29-11.714a2.9,2.9,0,1,0,0,5.809c5.379,0,8.2,4.228,11.455,9.124,3.655,5.49,7.8,11.714,16.29,11.714s12.636-6.223,16.292-11.713c3.206-4.816,6-8.964,11.206-9.1,5.211.135,8,4.283,11.207,9.1,3.655,5.489,7.8,11.713,16.29,11.713.088,0,.162-.022.25-.023s.161.023.248.023c8.495,0,12.638-6.223,16.294-11.713,3.2-4.812,5.992-8.955,11.194-9.1,5.2.142,7.988,4.286,11.191,9.1,3.656,5.49,7.8,11.714,16.291,11.714h.025c.09,0,.164-.022.253-.023s.163.023.252.023a2.7,2.7,0,0,0,.432-.087c7.838-.458,11.843-6.351,15.355-11.625,3.2-4.812,5.991-8.955,11.194-9.1,5.2.142,7.989,4.286,11.192,9.1,3.656,5.489,7.8,11.713,16.29,11.713.089,0,.162-.022.25-.023s.16.023.249.023h.032c.01,0,.018-.006.028-.006,8.45-.031,12.587-6.231,16.233-11.707,3.207-4.816,6-8.963,11.207-9.1,5.209.135,8,4.283,11.2,9.1,3.656,5.49,7.8,11.714,16.291,11.714.09,0,.164-.022.253-.023s.163.023.253.023a2.708,2.708,0,0,0,.432-.087c7.837-.458,11.842-6.351,15.354-11.625,3.26-4.9,6.075-9.125,11.457-9.125s8.2,4.228,11.457,9.125c3.657,5.49,7.8,11.713,16.293,11.713a2.9,2.9,0,1,0,0-5.809" transform="translate(-1670.605 -1345.224)" fill="#05a451"/>
    <path id="Trazado_40862" data-name="Trazado 40862" d="M3210.519,1986.486c-5.382,0-8.2-4.228-11.457-9.125-3.656-5.489-7.8-11.713-16.292-11.713s-12.637,6.223-16.293,11.713c-3.206,4.815-6,8.962-11.2,9.1-5.21-.137-8-4.284-11.205-9.1-3.656-5.489-7.8-11.713-16.292-11.713-.089,0-.163.022-.251.023s-.162-.023-.251-.023c-8.492,0-12.636,6.223-16.291,11.713-3.2,4.811-5.99,8.954-11.19,9.1-5.2-.144-7.988-4.287-11.191-9.1-3.656-5.489-7.8-11.713-16.292-11.713h-.029c-.088,0-.162.022-.249.023s-.161-.023-.25-.023a2.686,2.686,0,0,0-.426.086c-7.846.453-11.853,6.349-15.366,11.626-3.2,4.811-5.99,8.954-11.19,9.1-5.2-.144-7.989-4.287-11.193-9.1-3.655-5.489-7.8-11.713-16.292-11.713-.089,0-.163.022-.25.023s-.161-.023-.25-.023h-.025c-.008,0-.014,0-.022,0-8.458.025-12.6,6.23-16.244,11.708-3.206,4.816-6,8.964-11.207,9.1-5.211-.135-8-4.284-11.206-9.1-3.656-5.489-7.8-11.713-16.291-11.713-.088,0-.161.022-.249.023s-.161-.023-.249-.023a2.67,2.67,0,0,0-.426.086c-7.846.453-11.853,6.349-15.367,11.626-3.26,4.9-6.075,9.125-11.456,9.125s-8.2-4.228-11.456-9.124c-3.655-5.49-7.8-11.714-16.29-11.714a2.9,2.9,0,0,0,0,5.81c5.381,0,8.2,4.228,11.455,9.123,3.655,5.49,7.8,11.714,16.291,11.714s12.635-6.223,16.291-11.713c3.206-4.816,6-8.964,11.207-9.1,5.212.135,8,4.283,11.206,9.1,3.655,5.489,7.8,11.713,16.291,11.713.089,0,.162-.022.25-.023s.16.023.25.023c8.493,0,12.637-6.223,16.292-11.713,3.2-4.811,5.992-8.955,11.194-9.1,5.2.143,7.988,4.287,11.192,9.1,3.655,5.49,7.8,11.714,16.291,11.714h.025c.09,0,.164-.022.253-.024s.163.024.252.024a2.766,2.766,0,0,0,.433-.087c7.837-.459,11.842-6.35,15.354-11.625,3.2-4.811,5.991-8.955,11.194-9.1,5.2.143,7.989,4.287,11.192,9.1,3.655,5.489,7.8,11.713,16.29,11.713.089,0,.162-.022.25-.024s.161.024.25.024l.016,0,.016,0c.009,0,.018-.006.027-.006,8.451-.03,12.587-6.231,16.233-11.707,3.207-4.816,6-8.964,11.207-9.1,5.21.136,8,4.284,11.2,9.1,3.656,5.49,7.8,11.714,16.291,11.714.09,0,.164-.022.253-.024s.163.024.252.024a2.76,2.76,0,0,0,.432-.087c7.838-.459,11.843-6.35,15.355-11.625,3.26-4.9,6.075-9.124,11.458-9.124s8.2,4.228,11.457,9.124c3.656,5.489,7.8,11.713,16.292,11.713a2.9,2.9,0,1,0,0-5.809" transform="translate(-1722.717 -1311.121)" fill="#05a451"/>
    <path id="Trazado_40863" data-name="Trazado 40863" d="M2587.953,1668.976l-15.506-15.506,15.506-15.506,15.505,15.506Zm-58.92-15.506-15.505-15.506-15.506,15.506,15.506,15.506Zm-74.425,0-15.506-15.506-15.505,15.506,15.505,15.506Z" transform="translate(-1485.252 -1148.949)" fill="#ff8300"/>
    <path id="Trazado_40864" data-name="Trazado 40864" d="M3100.761,1558.343c22.51-.19,46.82,2.881,63.314,18.2,8.983-18.838,30.414-47,30.414-47s-20.951-11.454-29.033-14.174c-48.088-16.187-110.85-14.359-158.945,1.316-17.948,5.849-80.825,40.412-80.825,40.412s9.184,23.268,17.746,45.778c49.519-26.123,100.581-44.048,157.33-44.528" transform="translate(-1733.737 -1082.672)" fill="#f40000"/>
    <path id="Trazado_40865" data-name="Trazado 40865" d="M3209.162,1670.809c-29.2,1.091-56.4,59.421-39.945,82.909,8.1,11.557,23.526,14.767,37.448,17.069,3.656.6,7.538,1.171,11.132.6v-99.918a35.726,35.726,0,0,0-8.636-.659" transform="translate(-1851.798 -1165.189)" fill="#05a451"/>
    <path id="Trazado_40866" data-name="Trazado 40866" d="M736.61,1037.384a13.188,13.188,0,1,1-26.368,0c0-11.771-9.305-21.314-20.784-21.314s-20.784,9.543-20.784,21.314a13.188,13.188,0,1,1-26.368,0c0-11.771-9.305-21.314-20.784-21.314s-20.784,9.543-20.784,21.314a13.188,13.188,0,1,1-26.369,0c0-11.771-9.3-21.314-20.783-21.314s-20.784,9.543-20.784,21.314a13.188,13.188,0,1,1-26.368,0c0-11.771-9.305-21.314-20.784-21.314s-20.784,9.543-20.784,21.314h7.6a13.188,13.188,0,1,1,26.368,0c0,11.771,9.3,21.314,20.784,21.314s20.784-9.542,20.784-21.314a13.188,13.188,0,1,1,26.368,0c0,11.771,9.305,21.314,20.784,21.314s20.783-9.542,20.783-21.314a13.189,13.189,0,1,1,26.369,0c0,11.771,9.3,21.314,20.783,21.314s20.784-9.542,20.784-21.314a13.188,13.188,0,1,1,26.368,0c0,11.771,9.305,21.314,20.784,21.314s20.784-9.542,20.784-21.314Z" transform="translate(-515.869 -841.171)" fill="#f40000"/>
    <path id="Trazado_40867" data-name="Trazado 40867" d="M1368.552,1804.73a5.564,5.564,0,1,1-11.125,0,8.772,8.772,0,1,0-17.538,0,5.564,5.564,0,1,1-11.125,0,8.772,8.772,0,1,0-17.538,0,5.564,5.564,0,1,1-11.125,0,8.772,8.772,0,1,0-17.538,0,5.564,5.564,0,1,1-11.125,0,8.772,8.772,0,1,0-17.538,0h3.206a5.564,5.564,0,1,1,11.125,0,8.772,8.772,0,1,0,17.538,0,5.564,5.564,0,1,1,11.125,0,8.772,8.772,0,1,0,17.538,0,5.564,5.564,0,1,1,11.125,0,8.771,8.771,0,1,0,17.537,0,5.565,5.565,0,1,1,11.125,0,8.772,8.772,0,1,0,17.538,0Z" transform="translate(-906.364 -1227.031)" fill="#fd0"/>
    <path id="Trazado_40868" data-name="Trazado 40868" d="M869.955,1819.521a75.064,75.064,0,1,1-75.064-75.064,75.064,75.064,0,0,1,75.064,75.064" transform="translate(-642.049 -1201.652)" fill="#0086cc"/>
    <path id="Trazado_40869" data-name="Trazado 40869" d="M927.558,2124.426h45.494l-22.747-40.4Z" transform="translate(-744.856 -1386.024)" fill="#fd0"/>
    <path id="Trazado_40870" data-name="Trazado 40870" d="M927.558,1903.147h45.494l-22.747-40.4Z" transform="translate(-744.856 -1276.512)" fill="#fd0"/>
    <path id="Trazado_40871" data-name="Trazado 40871" d="M950.305,1641.465l-22.746,40.4h45.493Z" transform="translate(-744.857 -1167.001)" fill="#fd0"/>
    <path id="Trazado_40872" data-name="Trazado 40872" d="M1232.921,296.587a176.78,176.78,0,1,1-176.78-176.78,176.78,176.78,0,0,1,176.78,176.78" transform="translate(-721.003 -397.607)" fill="#ff8300"/>
    <path id="Trazado_40873" data-name="Trazado 40873" d="M3007.234,723.229c11.829,43.582,47.592,79.354,90.574,93.206,21.875,7.05,47.159,8.225,67.106-2.423V616.169H3026.032c-21.494,29.919-28.276,72.14-18.8,107.06" transform="translate(-1772.026 -643.259)" fill="#fd0"/>
  </g>
  <g id="Grupo_18855" data-name="Grupo 18855">
    <path id="Trazado_41032" data-name="Trazado 41032" d="M2463.176,882.526a2.6,2.6,0,1,0-2.549-2.6,2.573,2.573,0,0,0,2.549,2.6" transform="translate(-1469.578 -776.27)" fill="#ff8300"/>
    <path id="Trazado_41033" data-name="Trazado 41033" d="M2510.347,882.526a2.6,2.6,0,1,0-2.549-2.6,2.574,2.574,0,0,0,2.549,2.6" transform="translate(-1492.922 -776.27)" fill="#ff8300"/>
    <path id="Trazado_41034" data-name="Trazado 41034" d="M2462.662,1031.04a2.54,2.54,0,0,0,1.027,0,2.586,2.586,0,0,0,2.035-2.544,2.635,2.635,0,0,0-.2-1.011,2.532,2.532,0,0,0-4.7,0,2.631,2.631,0,0,0-.2,1.011,2.586,2.586,0,0,0,2.035,2.544" transform="translate(-1469.578 -849.795)" fill="#ff8300"/>
    <path id="Trazado_41035" data-name="Trazado 41035" d="M2462.662,981.518a2.54,2.54,0,0,0,1.027,0,2.586,2.586,0,0,0,2.035-2.544,2.615,2.615,0,0,0-.435-1.452,2.523,2.523,0,0,0-4.227,0,2.617,2.617,0,0,0-.436,1.452,2.586,2.586,0,0,0,2.035,2.544" transform="translate(-1469.578 -825.287)" fill="#ff8300"/>
    <path id="Trazado_41036" data-name="Trazado 41036" d="M2509.832,1031.04a2.541,2.541,0,0,0,1.028,0,2.586,2.586,0,0,0,2.035-2.544,2.635,2.635,0,0,0-.2-1.011,2.532,2.532,0,0,0-4.7,0,2.626,2.626,0,0,0-.2,1.011,2.587,2.587,0,0,0,2.035,2.544" transform="translate(-1492.922 -849.795)" fill="#ff8300"/>
    <path id="Trazado_41037" data-name="Trazado 41037" d="M2509.832,981.518a2.541,2.541,0,0,0,1.028,0,2.586,2.586,0,0,0,2.035-2.544,2.621,2.621,0,0,0-.435-1.452,2.524,2.524,0,0,0-4.228,0,2.617,2.617,0,0,0-.436,1.452,2.587,2.587,0,0,0,2.035,2.544" transform="translate(-1492.922 -825.287)" fill="#ff8300"/>
    <path id="Trazado_41038" data-name="Trazado 41038" d="M2557.516,882.526a2.6,2.6,0,1,0-2.549-2.6,2.573,2.573,0,0,0,2.549,2.6" transform="translate(-1516.268 -776.27)" fill="#ff8300"/>
    <path id="Trazado_41039" data-name="Trazado 41039" d="M2604.687,882.526a2.6,2.6,0,1,0-2.549-2.6,2.573,2.573,0,0,0,2.549,2.6" transform="translate(-1539.613 -776.27)" fill="#ff8300"/>
    <path id="Trazado_41040" data-name="Trazado 41040" d="M2557,1031.04a2.54,2.54,0,0,0,1.027,0,2.586,2.586,0,0,0,2.035-2.544,2.635,2.635,0,0,0-.2-1.011,2.532,2.532,0,0,0-4.7,0,2.631,2.631,0,0,0-.2,1.011,2.587,2.587,0,0,0,2.036,2.544" transform="translate(-1516.268 -849.795)" fill="#ff8300"/>
    <path id="Trazado_41041" data-name="Trazado 41041" d="M2557,981.518a2.54,2.54,0,0,0,1.027,0,2.586,2.586,0,0,0,2.035-2.544,2.617,2.617,0,0,0-.435-1.452,2.523,2.523,0,0,0-4.227,0,2.614,2.614,0,0,0-.436,1.452,2.586,2.586,0,0,0,2.036,2.544" transform="translate(-1516.268 -825.287)" fill="#ff8300"/>
    <path id="Trazado_41042" data-name="Trazado 41042" d="M2604.174,1031.04a2.54,2.54,0,0,0,1.027,0,2.586,2.586,0,0,0,2.035-2.544,2.631,2.631,0,0,0-.2-1.011,2.532,2.532,0,0,0-4.7,0,2.635,2.635,0,0,0-.2,1.011,2.586,2.586,0,0,0,2.035,2.544" transform="translate(-1539.613 -849.795)" fill="#ff8300"/>
    <path id="Trazado_41043" data-name="Trazado 41043" d="M2604.174,981.518a2.54,2.54,0,0,0,1.027,0,2.586,2.586,0,0,0,2.035-2.544,2.619,2.619,0,0,0-.435-1.452,2.523,2.523,0,0,0-4.227,0,2.615,2.615,0,0,0-.435,1.452,2.586,2.586,0,0,0,2.035,2.544" transform="translate(-1539.613 -825.287)" fill="#ff8300"/>
    <path id="Trazado_41044" data-name="Trazado 41044" d="M2651.344,1031.04a2.54,2.54,0,0,0,1.027,0,2.586,2.586,0,0,0,2.035-2.544,2.631,2.631,0,0,0-.2-1.011,2.532,2.532,0,0,0-4.7,0,2.631,2.631,0,0,0-.2,1.011,2.587,2.587,0,0,0,2.035,2.544" transform="translate(-1562.957 -849.795)" fill="#ff8300"/>
    <path id="Trazado_41045" data-name="Trazado 41045" d="M2651.344,981.518a2.54,2.54,0,0,0,1.027,0,2.586,2.586,0,0,0,2.035-2.544,2.617,2.617,0,0,0-.435-1.452,2.523,2.523,0,0,0-4.227,0,2.613,2.613,0,0,0-.435,1.452,2.586,2.586,0,0,0,2.035,2.544" transform="translate(-1562.957 -825.287)" fill="#ff8300"/>
    <path id="Trazado_41046" data-name="Trazado 41046" d="M2698.515,1031.04a2.541,2.541,0,0,0,1.028,0,2.586,2.586,0,0,0,2.035-2.544,2.635,2.635,0,0,0-.2-1.011,2.532,2.532,0,0,0-4.7,0,2.631,2.631,0,0,0-.2,1.011,2.586,2.586,0,0,0,2.035,2.544" transform="translate(-1586.303 -849.795)" fill="#ff8300"/>
    <path id="Trazado_41047" data-name="Trazado 41047" d="M2698.515,981.518a2.541,2.541,0,0,0,1.028,0,2.586,2.586,0,0,0,2.035-2.544,2.613,2.613,0,0,0-.436-1.452,2.523,2.523,0,0,0-4.227,0,2.615,2.615,0,0,0-.435,1.452,2.586,2.586,0,0,0,2.035,2.544" transform="translate(-1586.303 -825.287)" fill="#ff8300"/>
    <path id="Trazado_41048" data-name="Trazado 41048" d="M2840.541,882.526a2.6,2.6,0,1,0-2.549-2.6,2.574,2.574,0,0,0,2.549,2.6" transform="translate(-1656.338 -776.27)" fill="#ff8300"/>
    <path id="Trazado_41049" data-name="Trazado 41049" d="M2745.686,1031.04a2.54,2.54,0,0,0,1.027,0,2.586,2.586,0,0,0,2.035-2.544,2.631,2.631,0,0,0-.2-1.011,2.532,2.532,0,0,0-4.7,0,2.631,2.631,0,0,0-.2,1.011,2.587,2.587,0,0,0,2.035,2.544" transform="translate(-1609.646 -849.795)" fill="#ff8300"/>
    <path id="Trazado_41050" data-name="Trazado 41050" d="M2745.686,981.518a2.54,2.54,0,0,0,1.027,0,2.586,2.586,0,0,0,2.035-2.544,2.617,2.617,0,0,0-.435-1.452,2.524,2.524,0,0,0-4.228,0,2.617,2.617,0,0,0-.435,1.452,2.586,2.586,0,0,0,2.035,2.544" transform="translate(-1609.646 -825.287)" fill="#ff8300"/>
    <path id="Trazado_41051" data-name="Trazado 41051" d="M2792.856,1031.04a2.54,2.54,0,0,0,1.027,0,2.586,2.586,0,0,0,2.035-2.544,2.635,2.635,0,0,0-.2-1.011,2.532,2.532,0,0,0-4.7,0,2.631,2.631,0,0,0-.2,1.011,2.586,2.586,0,0,0,2.035,2.544" transform="translate(-1632.992 -849.795)" fill="#ff8300"/>
    <path id="Trazado_41052" data-name="Trazado 41052" d="M2792.856,981.518a2.54,2.54,0,0,0,1.027,0,2.586,2.586,0,0,0,2.035-2.544,2.617,2.617,0,0,0-.435-1.452,2.523,2.523,0,0,0-4.227,0,2.613,2.613,0,0,0-.435,1.452,2.586,2.586,0,0,0,2.035,2.544" transform="translate(-1632.992 -825.287)" fill="#ff8300"/>
    <path id="Trazado_41053" data-name="Trazado 41053" d="M2840.027,1031.04a2.54,2.54,0,0,0,1.027,0,2.586,2.586,0,0,0,2.035-2.544,2.631,2.631,0,0,0-.2-1.011,2.532,2.532,0,0,0-4.7,0,2.635,2.635,0,0,0-.2,1.011,2.586,2.586,0,0,0,2.035,2.544" transform="translate(-1656.338 -849.795)" fill="#ff8300"/>
    <path id="Trazado_41054" data-name="Trazado 41054" d="M2840.027,981.518a2.54,2.54,0,0,0,1.027,0,2.586,2.586,0,0,0,2.035-2.544,2.617,2.617,0,0,0-.435-1.452,2.523,2.523,0,0,0-4.227,0,2.613,2.613,0,0,0-.435,1.452,2.586,2.586,0,0,0,2.035,2.544" transform="translate(-1656.338 -825.287)" fill="#ff8300"/>
    <path id="Trazado_41055" data-name="Trazado 41055" d="M2463.176,932.049a2.6,2.6,0,1,0-2.549-2.6,2.573,2.573,0,0,0,2.549,2.6" transform="translate(-1469.578 -800.778)" fill="#ff8300"/>
    <path id="Trazado_41056" data-name="Trazado 41056" d="M2510.347,932.049a2.6,2.6,0,1,0-2.549-2.6,2.574,2.574,0,0,0,2.549,2.6" transform="translate(-1492.922 -800.778)" fill="#ff8300"/>
    <path id="Trazado_41057" data-name="Trazado 41057" d="M2463.176,1124.943a2.6,2.6,0,1,0,2.549,2.6,2.573,2.573,0,0,0-2.549-2.6" transform="translate(-1469.578 -898.813)" fill="#ff8300"/>
    <path id="Trazado_41058" data-name="Trazado 41058" d="M2463.176,1080.614a2.6,2.6,0,1,0-2.549-2.6,2.573,2.573,0,0,0,2.549,2.6" transform="translate(-1469.578 -874.304)" fill="#ff8300"/>
    <path id="Trazado_41059" data-name="Trazado 41059" d="M2510.347,1130.137a2.6,2.6,0,1,0-2.549-2.6,2.574,2.574,0,0,0,2.549,2.6" transform="translate(-1492.922 -898.813)" fill="#ff8300"/>
    <path id="Trazado_41060" data-name="Trazado 41060" d="M2510.347,1080.614a2.6,2.6,0,1,0-2.549-2.6,2.574,2.574,0,0,0,2.549,2.6" transform="translate(-1492.922 -874.304)" fill="#ff8300"/>
    <path id="Trazado_41061" data-name="Trazado 41061" d="M2557.516,932.049a2.6,2.6,0,1,0-2.549-2.6,2.573,2.573,0,0,0,2.549,2.6" transform="translate(-1516.268 -800.778)" fill="#ff8300"/>
    <path id="Trazado_41062" data-name="Trazado 41062" d="M2604.687,932.049a2.6,2.6,0,1,0-2.549-2.6,2.573,2.573,0,0,0,2.549,2.6" transform="translate(-1539.613 -800.778)" fill="#ff8300"/>
    <path id="Trazado_41063" data-name="Trazado 41063" d="M2651.858,932.049a2.6,2.6,0,1,0-2.549-2.6,2.573,2.573,0,0,0,2.549,2.6" transform="translate(-1562.957 -800.778)" fill="#ff8300"/>
    <path id="Trazado_41064" data-name="Trazado 41064" d="M2699.028,932.049a2.6,2.6,0,1,0-2.549-2.6,2.573,2.573,0,0,0,2.549,2.6" transform="translate(-1586.303 -800.778)" fill="#ff8300"/>
    <path id="Trazado_41065" data-name="Trazado 41065" d="M2746.2,932.049a2.6,2.6,0,1,0-2.549-2.6,2.573,2.573,0,0,0,2.549,2.6" transform="translate(-1609.646 -800.778)" fill="#ff8300"/>
    <path id="Trazado_41066" data-name="Trazado 41066" d="M2793.37,932.049a2.6,2.6,0,1,0-2.549-2.6,2.573,2.573,0,0,0,2.549,2.6" transform="translate(-1632.992 -800.778)" fill="#ff8300"/>
    <path id="Trazado_41067" data-name="Trazado 41067" d="M2840.541,932.049a2.6,2.6,0,1,0-2.549-2.6,2.574,2.574,0,0,0,2.549,2.6" transform="translate(-1656.338 -800.778)" fill="#ff8300"/>
    <path id="Trazado_41068" data-name="Trazado 41068" d="M2793.37,1130.137a2.6,2.6,0,1,0-2.549-2.6,2.573,2.573,0,0,0,2.549,2.6" transform="translate(-1632.992 -898.813)" fill="#ff8300"/>
    <path id="Trazado_41069" data-name="Trazado 41069" d="M2793.37,1080.614a2.6,2.6,0,1,0-2.549-2.6,2.573,2.573,0,0,0,2.549,2.6" transform="translate(-1632.992 -874.304)" fill="#ff8300"/>
    <path id="Trazado_41070" data-name="Trazado 41070" d="M2840.541,1130.137a2.6,2.6,0,1,0-2.549-2.6,2.574,2.574,0,0,0,2.549,2.6" transform="translate(-1656.338 -898.813)" fill="#ff8300"/>
    <path id="Trazado_41071" data-name="Trazado 41071" d="M2840.541,1080.614a2.6,2.6,0,1,0-2.549-2.6,2.574,2.574,0,0,0,2.549,2.6" transform="translate(-1656.338 -874.304)" fill="#ff8300"/>
  </g>
</svg>
