<?xml version="1.0" encoding="UTF-8"?>
<svg id="Capa_2" xmlns="http://www.w3.org/2000/svg" viewBox="0 0 64 64">
  <defs>
    <style>
      .cls-1 {
        fill: none;
      }
    </style>
  </defs>
  <g id="Capa_1-2" data-name="Capa_1">
    <g>
      <rect class="cls-1" width="64" height="64"/>
      <path d="M14.41,45.27v.83c0,1.96.76,3.8,2.15,5.18,1.81,1.81,3.95,2.11,4.98,2.14,4.05,2.13,7.92,2.58,10.46,2.58,4.56,0,8.18-1.38,10.46-2.58,3.95-.11,7.13-3.35,7.13-7.33v-.83c0-7.04-5.47-11.79-13.63-11.9,2.36-.94,4.32-2.68,5.52-4.9.5.93,1.47,1.57,2.59,1.57h.67c2.67,0,4.84-2.17,4.84-4.84v-4.25c0-2.81-2.28-5.09-5.09-5.09h-.42c-.05,0-.1.01-.16.02-1.63-5.01-5.93-7.88-11.92-7.88s-10.29,2.86-11.92,7.88c-.05,0-.1-.02-.16-.02h-.42c-2.81,0-5.09,2.28-5.09,5.09v4.25c0,2.67,2.17,4.84,4.84,4.84h.67c1.12,0,2.09-.64,2.59-1.57,1.2,2.22,3.16,3.96,5.52,4.9-8.16.1-13.63,4.85-13.63,11.9ZM39.85,35.44c-1.66,4.21-4.63,6.81-7.85,6.81s-6.19-2.6-7.85-6.81c1.27-.31,2.66-.48,4.16-.48h7.39c1.5,0,2.89.17,4.16.48ZM47.99,20.95v4.25c0,1.79-1.45,3.24-3.24,3.24h-.67c-.75,0-1.36-.61-1.36-1.36v-2.59c.04-.37.06-.75.06-1.13s-.02-.76-.06-1.13v-3.4c0-.75.61-1.36,1.36-1.36h.42c1.92,0,3.49,1.56,3.49,3.49ZM32,9.6c5.32,0,8.99,2.41,10.41,6.78-.53.36-.92.89-1.12,1.51-1.88-3.18-5.33-5.33-9.28-5.33s-7.41,2.15-9.28,5.33c-.21-.62-.6-1.15-1.12-1.51,1.42-4.38,5.08-6.78,10.41-6.78ZM21.28,27.08c0,.75-.61,1.36-1.36,1.36h-.67c-1.79,0-3.24-1.45-3.24-3.24v-4.25c0-1.92,1.56-3.49,3.49-3.49h.42c.75,0,1.36.61,1.36,1.36v3.4c-.04.37-.06.75-.06,1.13s.02.76.06,1.13v2.59ZM22.88,24.38v-2.05c.51-4.58,4.4-8.16,9.12-8.16s8.54,3.52,9.1,8.04c-.68,1.3-1.56,2.18-2.66,2.67-.36-.91-1.24-1.55-2.27-1.55h-4.03c-1.35,0-2.45,1.1-2.45,2.45v.91c0,1.35,1.1,2.45,2.45,2.45h4.03c1.35,0,2.45-1.1,2.45-2.45v-.16c.91-.32,1.71-.82,2.4-1.51-.79,4.26-4.53,7.5-9.02,7.5-4.72,0-8.61-3.57-9.12-8.16ZM37.02,25.79v.91c0,.47-.38.85-.85.85h-4.03c-.47,0-.85-.38-.85-.85v-.91c0-.47.38-.85.85-.85h4.03c.47,0,.85.38.85.85ZM22.62,35.92c1.9,4.9,5.45,7.93,9.38,7.93s7.48-3.03,9.38-7.93c4.13,1.54,6.61,4.88,6.61,9.35v.83c0,3.16-2.56,5.72-5.72,5.73l-1.39-5.19c-.11-.43-.55-.68-.98-.56-.43.11-.68.55-.56.98l1.45,5.4c-2.12.98-5.12,1.94-8.78,1.94-2.17,0-5.39-.37-8.82-1.96l1.45-5.38c.11-.43-.14-.87-.56-.98-.43-.11-.87.14-.98.56l-1.39,5.18c-.61,0-2.48-.16-3.99-1.68-1.08-1.08-1.68-2.52-1.68-4.05v-.83c0-4.47,2.47-7.81,6.61-9.35Z"/>
    </g>
  </g>
</svg>