<?xml version="1.0" encoding="UTF-8"?>
<svg id="Capa_2" xmlns="http://www.w3.org/2000/svg" viewBox="0 0 64 64">
  <defs>
    <style>
      .cls-1, .cls-2, .cls-3 {
        fill: none;
      }

      .cls-2, .cls-3, .cls-4 {
        stroke: #000;
        stroke-miterlimit: 10;
        stroke-width: 1.5px;
      }

      .cls-3 {
        stroke-linecap: round;
      }

      .cls-4 {
        fill: #fff;
      }
    </style>
  </defs>
  <g id="Capa_1-2" data-name="Capa_1">
    <g>
      <rect class="cls-1" width="64" height="64"/>
      <g>
        <path class="cls-2" d="M52.25,7h-30.28c-2.09,0-3.79,2-3.79,4.46v41.07c0,2.46,1.7,4.46,3.79,4.46h30.28c2.09,0,3.79-2,3.79-4.46V11.46c0-2.46-1.7-4.46-3.79-4.46Z"/>
        <path class="cls-3" d="M32.79,41.45h17.89"/>
        <path class="cls-3" d="M27.47,48.96h23.21"/>
        <path class="cls-3" d="M27.47,33.94h23.21"/>
        <g>
          <path class="cls-4" d="M18.18,32.15s-.09,0-.13,0c-.14,0-.28,0-.42-.01-.02,0-.03,0-.05,0-4.99-.29-9.04-4.19-9.57-9.12,0,0,0,0,0-.01-.02-.14-.03-.29-.03-.44,0-.03,0-.06,0-.09,0-.13,0-.27-.01-.4,0-.05,0-.1,0-.15,0-5.64,4.59-10.22,10.22-10.22s10.22,4.59,10.22,10.22-4.59,10.22-10.22,10.22Z"/>
          <path d="M17.49,26.11l6.19-7.32c.29-.34.25-.85-.09-1.14-.34-.29-.85-.24-1.14.09l-5.66,6.69-2.95-2.59c-.33-.29-.84-.26-1.14.07-.29.33-.26.84.07,1.14l3.57,3.13c.15.13.34.2.53.2.02,0,.04,0,.06,0,.22-.02.42-.12.56-.28Z"/>
        </g>
      </g>
    </g>
  </g>
</svg>