<?xml version="1.0" encoding="UTF-8"?>
<svg id="Capa_2" xmlns="http://www.w3.org/2000/svg" viewBox="0 0 64 64">
  <defs>
    <style>
      .cls-1 {
        fill: none;
      }
    </style>
  </defs>
  <g id="Capa_1-2" data-name="Capa_1">
    <g>
      <rect class="cls-1" width="64" height="64"/>
      <g>
        <path d="M32,57c-6.68,0-12.96-2.6-17.68-7.32s-7.32-11-7.32-17.68,2.6-12.96,7.32-17.68c4.72-4.72,11-7.32,17.68-7.32s12.96,2.6,17.68,7.32c4.72,4.72,7.32,11,7.32,17.68s-2.6,12.96-7.32,17.68c-4.72,4.72-11,7.32-17.68,7.32ZM32,8.54c-6.27,0-12.16,2.44-16.59,6.87s-6.87,10.32-6.87,16.59,2.44,12.16,6.87,16.59,10.32,6.87,16.59,6.87,12.16-2.44,16.59-6.87c4.43-4.43,6.87-10.32,6.87-16.59s-2.44-12.16-6.87-16.59c-4.43-4.43-10.32-6.87-16.59-6.87Z"/>
        <path d="M20.12,38.67c-2.45,0-4.45-2-4.45-4.45,0-.5.08-.99.24-1.45H7.77c-.42,0-.77-.34-.77-.77s.34-.77.77-.77h9.42c.29,0,.56.17.69.43.13.26.1.57-.08.81-.39.51-.59,1.12-.59,1.76,0,1.61,1.31,2.91,2.91,2.91s2.91-1.31,2.91-2.91c0-.64-.2-1.25-.59-1.76-.18-.23-.21-.54-.08-.81.13-.26.4-.43.69-.43h16.88c-.17-.47-.25-.97-.25-1.49,0-2.45,2-4.45,4.45-4.45s4.45,2,4.45,4.45c0,.52-.09,1.02-.25,1.49h7.9c.42,0,.77.34.77.77,0,.42-.34.77-.77.77h-9.19c-.29,0-.56-.17-.69-.43-.13-.26-.1-.58.08-.81.4-.51.61-1.13.61-1.79,0-1.61-1.31-2.91-2.91-2.91s-2.91,1.31-2.91,2.91c0,.65.21,1.27.61,1.79.18.23.21.55.08.81-.13.26-.4.43-.69.43h-16.9c.16.46.24.95.24,1.45,0,2.45-2,4.45-4.45,4.45Z"/>
        <path d="M32,57c-.42,0-.77-.34-.77-.77v-9.98c0-.3.17-.57.44-.7.27-.13.59-.08.82.11.52.44,1.19.69,1.88.69,1.61,0,2.91-1.31,2.91-2.91s-1.31-2.91-2.91-2.91c-.69,0-1.35.24-1.88.69-.23.19-.55.24-.82.11-.27-.13-.44-.4-.44-.7v-16.15c-.53.21-1.09.33-1.67.33-2.45,0-4.45-2-4.45-4.45s2-4.45,4.45-4.45c.58,0,1.15.11,1.67.33V7.77c0-.42.34-.77.77-.77s.77.34.77.77v9.83c0,.3-.18.58-.45.7-.28.12-.6.07-.82-.13-.53-.47-1.22-.73-1.93-.73-1.61,0-2.91,1.31-2.91,2.91s1.31,2.91,2.91,2.91c.71,0,1.4-.26,1.93-.73.23-.2.55-.25.82-.13.28.12.45.4.45.7v16.19c.51-.2,1.05-.3,1.61-.3,2.45,0,4.45,2,4.45,4.45s-2,4.45-4.45,4.45c-.55,0-1.1-.1-1.61-.3v8.64c0,.42-.34.77-.77.77Z"/>
      </g>
    </g>
  </g>
</svg>