<?xml version="1.0" encoding="UTF-8"?>
<svg id="Capa_2" xmlns="http://www.w3.org/2000/svg" viewBox="0 0 64 64">
  <defs>
    <style>
      .cls-1 {
        fill: none;
      }

      .cls-2 {
        fill: #fff;
        stroke: #000;
        stroke-linecap: round;
        stroke-miterlimit: 10;
        stroke-width: 1.5px;
      }
    </style>
  </defs>
  <g id="Capa_1-2" data-name="Capa_1">
    <g>
      <rect class="cls-1" width="64" height="64"/>
      <g>
        <path class="cls-2" d="M59.64,13.84c-.35-.64-.88-.97-1.43-.88l-3.32.51c-.08.02-.16-.1-.18-.24l-.47-6.12c-.09-1.11-.68-1.98-1.44-2.11-.74-.12-1.41.49-1.66,1.51l-3.25,13.42c-.22.89-.06,1.85.42,2.51.46.64,1.11.83,1.7.49l2.63-1.53s.07-.01.11.02c.02.02.08.08.09.2l.72,7.47c.11,1.11.69,1.93,1.45,2.04.05,0,.11.01.16.01.67,0,1.25-.59,1.47-1.53l3.25-13.53c.18-.77.08-1.61-.27-2.26Z"/>
        <path class="cls-2" d="M39.51,12.89c-.35-.86-1.07-1.52-1.91-1.76-.74-.21-1.52-.08-2.13.35l-19.96,14.34-6.88,2.75c-1.85.74-3.29,2.15-4.06,3.97-.76,1.8-.78,3.8-.04,5.61l.76,1.85c1.17,2.85,3.95,4.59,6.88,4.59.32,0,.64-.03.97-.07l5.11,12.51c.5,1.22,1.69,1.97,2.95,1.97.39,0,.79-.07,1.18-.23l3.81-1.52c.79-.32,1.41-.92,1.74-1.7.33-.78.33-1.63.02-2.41l-4.91-12,23.19-3.26c.75-.1,1.4-.55,1.79-1.22.44-.76.48-1.72.13-2.59l-8.66-21.18ZM13.15,44.53l9.9-3.39M23.05,41.13l-6.41-15.68M41.86,38.21l-9.89-24.2"/>
        <path class="cls-2" d="M10.15,35.61l6.28-2.52"/>
        <path class="cls-2" d="M11.66,39.12l6.28-2.52"/>
      </g>
    </g>
  </g>
</svg>