<?xml version="1.0" encoding="UTF-8"?>
<svg id="Capa_2" xmlns="http://www.w3.org/2000/svg" viewBox="0 0 64 64">
  <defs>
    <style>
      .cls-1, .cls-2 {
        fill: none;
      }

      .cls-2 {
        stroke: #000;
        stroke-linecap: round;
        stroke-miterlimit: 10;
        stroke-width: 1.5px;
      }
    </style>
  </defs>
  <g id="Capa_1-2" data-name="Capa_1">
    <g>
      <rect class="cls-1" width="64" height="64"/>
      <g>
        <path d="M45.98,22.99c-.55,0-1,.45-1,1,0,.27.11.53.3.72l6.29,6.29h-21.59c-.55,0-1.01.43-1.01.99s.43,1.01.99,1.01c0,0,.02,0,.03,0h21.59l-6.29,6.29c-.4.38-.41,1.02-.03,1.41.38.4,1.02.41,1.41.03,0,0,.02-.02.03-.03l7.91-7.91c.44-.33.52-.96.19-1.4-.05-.07-.12-.14-.19-.19l-7.91-7.91c-.19-.19-.45-.3-.72-.3Z"/>
        <path class="cls-2" d="M50.58,18.46s-.02-.03-.04-.05c-4.18-5.7-10.94-9.41-18.55-9.41-12.69,0-23,10.31-23,23s10.31,23,23,23c7.61,0,14.37-3.71,18.55-9.41"/>
      </g>
    </g>
  </g>
</svg>