<?xml version="1.0" encoding="UTF-8"?>
<svg id="Capa_2" xmlns="http://www.w3.org/2000/svg" viewBox="0 0 64 64">
  <defs>
    <style>
      .cls-1 {
        fill: none;
      }

      .cls-2 {
        fill: #fff;
        stroke: #000;
        stroke-linecap: round;
        stroke-miterlimit: 10;
        stroke-width: 1.5px;
      }
    </style>
  </defs>
  <g id="Capa_1-2" data-name="Capa_1">
    <g>
      <rect class="cls-1" width="64" height="64"/>
      <g>
        <path class="cls-2" d="M36.37,17.08c-3,.04-5.84,1.17-8.22,3.3-.51.46-.94.93-1.33,1.41-.38-.47-.81-.95-1.33-1.41-2.42-2.16-5.32-3.3-8.37-3.3-2.42,0-4.83.69-7.17,2.06-1.58.92-2.55,2.08-3.57,3.39-1.39,1.79-2.27,4.37-2.35,6.91-.07,2.17.12,4.09.59,5.89.59,2.24,1.67,4.41,3.23,6.46,1.63,2.15,3.61,3.78,5.52,5.37.71.59,1.44,1.19,2.13,1.8,1.23,1.1,3.49,2.93,5.76,4.67,1.3,1,2.27,1.72,2.97,2.21,1.58,1.15,1.99,1.33,2.24,1.41.11.03.24.05.35.05h0s.02,0,.02,0c.12,0,.23-.02.35-.05.25-.08.66-.26,2.24-1.4.7-.49,1.67-1.21,2.98-2.21,2.27-1.74,4.53-3.58,5.76-4.67.68-.61,1.41-1.21,2.12-1.8h.01c1.91-1.59,3.89-3.23,5.52-5.38,1.55-2.05,2.64-4.22,3.23-6.46.41-1.54.6-3.18.6-4.99M48.43,29.84s-.1,0-.15,0c-.16,0-.31,0-.47-.01-.02,0-.04,0-.06,0-5.64-.33-10.23-4.74-10.82-10.31,0,0,0,0,0-.01-.02-.16-.03-.33-.04-.49,0-.03,0-.06,0-.1,0-.15-.01-.3-.01-.46,0-.06,0-.12,0-.17,0-6.38,5.19-11.57,11.57-11.57s11.57,5.19,11.57,11.57-5.19,11.57-11.57,11.57Z"/>
        <path d="M52.51,17.3h-3.11v-3.11c0-.54-.43-.97-.97-.97s-.97.43-.97.97v3.11h-3.11c-.54,0-.97.43-.97.97s.43.97.97.97h3.11v3.11c0,.54.43.97.97.97s.97-.43.97-.97v-3.11h3.11c.54,0,.97-.43.97-.97s-.43-.97-.97-.97Z"/>
      </g>
    </g>
  </g>
</svg>