<svg xmlns="http://www.w3.org/2000/svg" width="41.021" height="143.88" viewBox="0 0 41.021 143.88">
  <path id="Conture_Gris" data-name="Conture Gris" d="M240.624,352.877c-6.282,0-14.453-.948-17.252-2.534-4.955-2.81-2.991-12.721-2.2-15.221.077-.242.164-.5.257-.782a37.654,37.654,0,0,0,2.04-13.263c-.008-7.443-2.1-20.878-2.792-25.294-.115-.737-.187-1.215-.208-1.371-.032-.258-.068-.517-.1-.772-.172-1.215-.374-2.647.2-3.6a31.549,31.549,0,0,1-.293-6.242,109.729,109.729,0,0,1,.753-11.285,20.986,20.986,0,0,1,1.162-5.347c-.446-.95-.308-2.374-.067-4.2l.029-.221a72.9,72.9,0,0,1,2.828-9.929c.828-2.552,1.766-5.444,2.638-8.384l.267-.9a87.055,87.055,0,0,0,2.886-11.592,70.472,70.472,0,0,0,.38-9.177v-.422a3.256,3.256,0,0,1-.927-2.624,11.288,11.288,0,0,1,1.107-3.489c.129-.3.3-.7.366-.895-.006-.187-.029-.206-.117-.286a3.179,3.179,0,0,1-.63-3.459c.515-1.546,2.2-1.951,2.914-2.124a49.6,49.6,0,0,1,13.53,0c.716.172,2.4.578,2.914,2.123a3.187,3.187,0,0,1-.632,3.459c-.093.081-.112.1-.118.28.067.187.238.593.367.9a11.314,11.314,0,0,1,1.108,3.489,3.255,3.255,0,0,1-.927,2.623v.423a70.745,70.745,0,0,0,.381,9.175,87.458,87.458,0,0,0,2.89,11.61l.263.885c.872,2.937,1.81,5.829,2.638,8.379a72.842,72.842,0,0,1,2.83,9.935l.028.218c.241,1.825.374,3.25-.067,4.2a20.864,20.864,0,0,1,1.159,5.329,109.563,109.563,0,0,1,.757,11.289,31.484,31.484,0,0,1-.293,6.25c.572.958.374,2.391.2,3.606-.036.254-.073.513-.1.773-.019.151-.094.634-.208,1.374-.689,4.415-2.785,17.848-2.792,25.289a37.658,37.658,0,0,0,2.038,13.26c.094.28.18.541.258.784.8,2.5,2.762,12.41-2.195,15.221C255.076,351.929,246.905,352.877,240.624,352.877Zm16.318-84.721-32.641,0" transform="translate(-220.117 -208.996)" fill="#d3d3d3"/>
</svg>
