<svg xmlns="http://www.w3.org/2000/svg" xmlns:xlink="http://www.w3.org/1999/xlink" width="574" height="291" viewBox="0 0 574 291">
  <defs>
    <clipPath id="clip-path">
      <rect id="Rectángulo_21148" data-name="Rectángulo 21148" width="574" height="291" rx="16" transform="translate(715 398)" fill="#fff"/>
    </clipPath>
  </defs>
  <g id="img-actividadesespaciales" transform="translate(-78 -398)">
    <rect id="Rectángulo_21109" data-name="Rectángulo 21109" width="574" height="291" rx="16" transform="translate(78 398)" fill="#fff"/>
    <path id="Trazado_41375" data-name="Trazado 41375" d="M140.451,70.225A70.225,70.225,0,1,1,70.225,0a70.225,70.225,0,0,1,70.225,70.225" transform="translate(294.774 497.773)" fill="#2fc57a"/>
    <g id="Grupo_18993" data-name="Grupo 18993" transform="translate(324.531 528.223)">
      <path id="Trazado_41136" data-name="Trazado 41136" d="M73.993,112.813,66.3,116.848a6.647,6.647,0,0,1-9.639-7.008l2.985-17.385A5.16,5.16,0,0,0,58.166,87.9L45.517,75.558A6.645,6.645,0,0,1,49.2,64.232l17.477-2.539a5.167,5.167,0,0,0,3.877-2.824L78.37,43.032a6.645,6.645,0,0,1,11.912,0L98.1,58.869a5.157,5.157,0,0,0,3.879,2.824l17.477,2.539a6.644,6.644,0,0,1,3.682,11.325L122,76.669" transform="translate(-43.518 -39.331)" fill="none" stroke="#fff" stroke-linecap="round" stroke-linejoin="round" stroke-width="6.05"/>
      <path id="Trazado_41137" data-name="Trazado 41137" d="M118.018,87.493l4.63,9.4a3.046,3.046,0,0,0,2.3,1.662l10.377,1.508a3.945,3.945,0,0,1,2.194,6.728l-7.512,7.31a3.049,3.049,0,0,0-.875,2.709l1.769,10.334a3.943,3.943,0,0,1-5.731,4.169l-9.283-4.873a3.05,3.05,0,0,0-2.848,0l-9.281,4.873a3.945,3.945,0,0,1-5.724-4.157L99.8,116.822a3.065,3.065,0,0,0-.875-2.707l-7.512-7.31a3.945,3.945,0,0,1,2.193-6.73l10.375-1.506a3.049,3.049,0,0,0,2.3-1.657l4.644-9.42a3.945,3.945,0,0,1,7.085,0Z" transform="translate(-57.903 -53.483)" fill="none" stroke="#fff" stroke-linecap="round" stroke-linejoin="round" stroke-width="6.05"/>
    </g>
    <rect id="Rectángulo_20957" data-name="Rectángulo 20957" width="390" height="40" rx="20" transform="translate(170 414)" fill="#f40000"/>
    <text id="_No_pierdas_la_oportunidad_de_ganar_más_" data-name="¡No pierdas la oportunidad de ganar más!" transform="translate(365 439)" fill="#fff" font-size="15" font-family="TCCC-UnityText-Bold, TCCC-UnityText" font-weight="700"><tspan x="-174" y="0">¡No pierdas la oportunidad de ganar más!</tspan></text>
    <g id="img-mecanica-actividadesespeciales" transform="translate(-637)" clip-path="url(#clip-path)">
      <g id="Grupo_18994" data-name="Grupo 18994">
        <path id="Trazado_41373" data-name="Trazado 41373" d="M760.749,245.2c13.561-.116,28.2,1.756,38.141,11.087,5.411-11.476,18.322-28.633,18.322-28.633s-12.621-6.977-17.489-8.634c-28.97-9.861-66.778-8.748-95.752.8-10.812,3.563-48.69,24.618-48.69,24.618s5.533,14.174,10.691,27.887c29.831-15.914,60.591-26.833,94.777-27.125" transform="translate(510.754 271.879)" fill="#ff8300"/>
        <path id="Trazado_41377" data-name="Trazado 41377" d="M274.017,398.507,259.13,383.454,274.017,368.4,288.9,383.454Zm-56.565-15.053L202.566,368.4,187.68,383.454l14.886,15.053Zm-71.45,0L131.116,368.4,116.23,383.454l14.886,15.053Z" transform="translate(618.097 263.494)" fill="#0086cc"/>
        <path id="Trazado_41376" data-name="Trazado 41376" d="M265.2,219.255a12.875,12.875,0,1,1-25.734,0c0-11.617-9.081-21.034-20.284-21.034a19.611,19.611,0,0,0-7.9,1.653A21.066,21.066,0,0,0,198.9,219.255a12.875,12.875,0,1,1-25.734,0c0-11.617-9.081-21.034-20.284-21.034S132.6,207.639,132.6,219.255a12.875,12.875,0,1,1-25.734,0c0-11.617-9.081-21.034-20.284-21.034S66.3,207.639,66.3,219.255a12.875,12.875,0,1,1-25.734,0c0-11.617-9.081-21.034-20.284-21.034S0,207.639,0,219.255H7.417a13.111,13.111,0,0,1,12.867-13.343A13.111,13.111,0,0,1,33.15,219.255c0,11.618,9.082,21.034,20.284,21.034s20.284-9.417,20.284-21.034a12.875,12.875,0,1,1,25.734,0c0,11.618,9.081,21.034,20.284,21.034s20.283-9.417,20.283-21.034a12.876,12.876,0,1,1,25.735,0c0,11.618,9.081,21.034,20.283,21.034s20.284-9.417,20.284-21.034a12.875,12.875,0,1,1,25.734,0c0,11.618,9.081,21.034,20.284,21.034s20.284-9.417,20.284-21.034Z" transform="translate(615.379 289.779)" fill="#f40000"/>
        <path id="Trazado_41374" data-name="Trazado 41374" d="M833.7,396.722c0,46.466-37.25,84.133-83.2,84.133s-83.2-37.667-83.2-84.133,37.25-84.133,83.2-84.133,83.2,37.667,83.2,84.133" transform="translate(435.697 294.344)" fill="#fd0"/>
      </g>
    </g>
  </g>
</svg>
