<svg xmlns="http://www.w3.org/2000/svg" xmlns:xlink="http://www.w3.org/1999/xlink" width="1366" height="64" viewBox="0 0 1366 64">
  <defs>
    <clipPath id="clip-path">
      <rect id="Rectángulo_5434" data-name="Rectángulo 5434" width="1366" height="64" fill="#fff"/>
    </clipPath>
    <clipPath id="clip-path-2">
      <rect id="Rectángulo_5403" data-name="Rectángulo 5403" width="1366" height="777.52" fill="none"/>
    </clipPath>
  </defs>
  <g id="img-hedaer" clip-path="url(#clip-path)">
    <g id="Grupo_8769" data-name="Grupo 8769" transform="translate(-402.2 -1188.113)">
      <rect id="Rectángulo_5402" data-name="Rectángulo 5402" width="1366" height="777.52" transform="translate(402.2 474.594)"/>
      <g id="Grupo_8768" data-name="Grupo 8768" transform="translate(402.2 474.594)">
        <g id="Grupo_8767" data-name="Grupo 8767" clip-path="url(#clip-path-2)">
          <path id="Trazado_8890" data-name="Trazado 8890" d="M402.676,1137c36.5-28.572,36.335-83.087,56.813-124.663,61.99-125.86,283.773-96.82,340.814-225,25.358-56.982,6-122.536-6.722-183.594S779.333,469.082,827.3,429.224c51.166-42.515,133-24.259,186.937-63.2,38.924-28.1,53.287-78.472,65.127-125L1140.707,0H1025.061c5.93,99.346-.123,210.885-79.538,267.425-87.4,62.227-227.746,26.433-296.9,108.461-76.018,90.168,1.2,244.949-70.193,338.824-77.15,101.451-225.2,64.194-323.7,132.98v281.455c50.268,24.3,112.831,35.338,147.944,7.858" transform="translate(-359.523 -338.309)" fill="#161616"/>
          <path id="Trazado_8891" data-name="Trazado 8891" d="M498,757.26c49.312-69.117,69.228-154.328,88.083-237.114-60.555,6.108-106.6,54.679-149.634,97.72-33.9,33.9-74.85,67.976-120.158,76.695V858.586C381.018,858.633,454.011,818.91,498,757.26" transform="translate(-377.337 -488.84)" fill="#161616"/>
          <path id="Trazado_8892" data-name="Trazado 8892" d="M507.349,324.449c67.964-50.507,149.3-86.977,233.977-87.383,44.821-.216,90.118,9.557,134.116,1s88.067-44.312,84.539-89l-236.49,6.108c-109.917,2.839-228.787,8.85-313.817,78.561-33.444,27.419-61.23,64.3-93.387,92.753V515.334c3.581-4.263,7.225-8.448,10.842-12.57,55.851-63.646,112.255-127.807,180.219-178.316" transform="translate(-377.337 -381.45)" fill="#161616"/>
          <path id="Trazado_8893" data-name="Trazado 8893" d="M1985.353,1331.491c-54.354-28.43,7.047-138.359-48.089-165.24-33.645-16.4-68.771,23.161-76.69,59.744a182.064,182.064,0,0,0,19.505,127.233c9.8,17.216,22.519,38.88,10.746,54.812-16.077,21.753-49.172,1.315-69.881-16.084-103.9-87.291-221.174-87.43-349.7-43.893-37.5,12.7-76.2,28.8-100.321,60.19s-26.961,82.358,3.968,107.074c25.275,20.2,61.724,16.176,93.227,8.808,82.961-19.4,125.79-40.145,210.934-37.068s177.7,64.235,174.8,149.386c-75.675-37.2-159.056-75.41-241.229-56.5-12.863,2.96-26.034,7.707-34.682,17.679-19.1,22.025-5.956,58.6,17.724,75.6s53.945,20.88,82.132,28.327c82.929,21.909,150.846,81.964,191.492,156.377,19.109,34.984,27.7,86.089,49.6,123.881h124.256V1354.31a80.322,80.322,0,0,0-28.3-14.424c-9.868-2.776-20.413-3.644-29.5-8.4" transform="translate(-677.146 -658.247)" fill="#222"/>
          <path id="Trazado_8894" data-name="Trazado 8894" d="M1751.565,628.8a2.6,2.6,0,1,0-2.549-2.6,2.573,2.573,0,0,0,2.549,2.6" transform="translate(-791.966 -518.78)" fill="#ff6a00"/>
          <path id="Trazado_8895" data-name="Trazado 8895" d="M1785.093,628.8a2.6,2.6,0,1,0-2.549-2.6,2.574,2.574,0,0,0,2.549,2.6" transform="translate(-801.669 -518.78)" fill="#ff6a00"/>
          <path id="Trazado_8896" data-name="Trazado 8896" d="M1751.051,734.344a2.529,2.529,0,0,0,1.028,0,2.585,2.585,0,0,0,2.035-2.543,2.648,2.648,0,0,0-.2-1.012,2.532,2.532,0,0,0-4.7,0,2.632,2.632,0,0,0-.2,1.012,2.584,2.584,0,0,0,2.035,2.543" transform="translate(-791.966 -549.341)" fill="#ff6a00"/>
          <path id="Trazado_8897" data-name="Trazado 8897" d="M1751.051,699.144a2.535,2.535,0,0,0,1.028,0,2.587,2.587,0,0,0,2.035-2.544,2.617,2.617,0,0,0-.436-1.452,2.523,2.523,0,0,0-4.227,0,2.617,2.617,0,0,0-.436,1.452,2.586,2.586,0,0,0,2.035,2.544" transform="translate(-791.966 -539.154)" fill="#ff6a00"/>
          <path id="Trazado_8898" data-name="Trazado 8898" d="M1784.58,734.344a2.529,2.529,0,0,0,1.027,0,2.585,2.585,0,0,0,2.035-2.543,2.632,2.632,0,0,0-.2-1.012,2.532,2.532,0,0,0-4.7,0,2.632,2.632,0,0,0-.2,1.012,2.585,2.585,0,0,0,2.035,2.543" transform="translate(-801.67 -549.341)" fill="#ff6a00"/>
          <path id="Trazado_8899" data-name="Trazado 8899" d="M1784.58,699.144a2.534,2.534,0,0,0,1.027,0,2.587,2.587,0,0,0,2.035-2.544,2.616,2.616,0,0,0-.436-1.452,2.523,2.523,0,0,0-4.227,0,2.618,2.618,0,0,0-.435,1.452,2.587,2.587,0,0,0,2.035,2.544" transform="translate(-801.67 -539.154)" fill="#ff6a00"/>
          <path id="Trazado_8900" data-name="Trazado 8900" d="M1818.622,628.8a2.6,2.6,0,1,0-2.549-2.6,2.573,2.573,0,0,0,2.549,2.6" transform="translate(-811.373 -518.78)" fill="#ff6a00"/>
          <path id="Trazado_8901" data-name="Trazado 8901" d="M1852.151,628.8a2.6,2.6,0,1,0-2.549-2.6,2.573,2.573,0,0,0,2.549,2.6" transform="translate(-821.076 -518.78)" fill="#ff6a00"/>
          <path id="Trazado_8902" data-name="Trazado 8902" d="M1818.109,734.344a2.529,2.529,0,0,0,1.027,0,2.586,2.586,0,0,0,2.035-2.543,2.644,2.644,0,0,0-.2-1.012,2.532,2.532,0,0,0-4.7,0,2.632,2.632,0,0,0-.2,1.012,2.584,2.584,0,0,0,2.036,2.543" transform="translate(-811.373 -549.341)" fill="#ff6a00"/>
          <path id="Trazado_8903" data-name="Trazado 8903" d="M1818.109,699.144a2.534,2.534,0,0,0,1.027,0,2.587,2.587,0,0,0,2.035-2.544,2.623,2.623,0,0,0-.436-1.452,2.524,2.524,0,0,0-4.227,0,2.623,2.623,0,0,0-.436,1.452,2.586,2.586,0,0,0,2.036,2.544" transform="translate(-811.373 -539.154)" fill="#ff6a00"/>
          <path id="Trazado_8904" data-name="Trazado 8904" d="M1851.637,734.344a2.529,2.529,0,0,0,1.027,0,2.585,2.585,0,0,0,2.035-2.543,2.632,2.632,0,0,0-.2-1.012,2.532,2.532,0,0,0-4.7,0,2.634,2.634,0,0,0-.2,1.012,2.584,2.584,0,0,0,2.035,2.543" transform="translate(-821.076 -549.341)" fill="#ff6a00"/>
          <path id="Trazado_8905" data-name="Trazado 8905" d="M1851.637,699.144a2.534,2.534,0,0,0,1.027,0,2.587,2.587,0,0,0,2.035-2.544,2.616,2.616,0,0,0-.436-1.452,2.523,2.523,0,0,0-4.227,0,2.617,2.617,0,0,0-.436,1.452,2.586,2.586,0,0,0,2.035,2.544" transform="translate(-821.076 -539.154)" fill="#ff6a00"/>
          <path id="Trazado_8906" data-name="Trazado 8906" d="M1885.166,734.344a2.529,2.529,0,0,0,1.027,0,2.585,2.585,0,0,0,2.035-2.543,2.634,2.634,0,0,0-.2-1.012,2.532,2.532,0,0,0-4.7,0,2.63,2.63,0,0,0-.2,1.012,2.584,2.584,0,0,0,2.035,2.543" transform="translate(-830.779 -549.341)" fill="#ff6a00"/>
          <path id="Trazado_8907" data-name="Trazado 8907" d="M1885.166,699.144a2.534,2.534,0,0,0,1.027,0,2.587,2.587,0,0,0,2.035-2.544,2.618,2.618,0,0,0-.436-1.452,2.524,2.524,0,0,0-4.227,0,2.622,2.622,0,0,0-.435,1.452,2.586,2.586,0,0,0,2.035,2.544" transform="translate(-830.779 -539.154)" fill="#ff6a00"/>
          <path id="Trazado_8908" data-name="Trazado 8908" d="M1918.7,734.344a2.529,2.529,0,0,0,1.028,0,2.585,2.585,0,0,0,2.035-2.543,2.645,2.645,0,0,0-.2-1.012,2.532,2.532,0,0,0-4.7,0,2.632,2.632,0,0,0-.2,1.012,2.584,2.584,0,0,0,2.035,2.543" transform="translate(-840.482 -549.341)" fill="#ff6a00"/>
          <path id="Trazado_8909" data-name="Trazado 8909" d="M1918.7,699.144a2.535,2.535,0,0,0,1.028,0,2.587,2.587,0,0,0,2.035-2.544,2.616,2.616,0,0,0-.436-1.452,2.524,2.524,0,0,0-4.227,0,2.62,2.62,0,0,0-.435,1.452,2.586,2.586,0,0,0,2.035,2.544" transform="translate(-840.482 -539.154)" fill="#ff6a00"/>
          <path id="Trazado_8910" data-name="Trazado 8910" d="M2019.795,628.8a2.6,2.6,0,1,0-2.549-2.6,2.574,2.574,0,0,0,2.549,2.6" transform="translate(-869.592 -518.78)" fill="#ff6a00"/>
          <path id="Trazado_8911" data-name="Trazado 8911" d="M1952.224,734.344a2.531,2.531,0,0,0,1.028,0,2.585,2.585,0,0,0,2.035-2.543,2.643,2.643,0,0,0-.2-1.012,2.532,2.532,0,0,0-4.7,0,2.632,2.632,0,0,0-.2,1.012,2.584,2.584,0,0,0,2.035,2.543" transform="translate(-850.186 -549.341)" fill="#ff6a00"/>
          <path id="Trazado_8912" data-name="Trazado 8912" d="M1952.224,699.144a2.536,2.536,0,0,0,1.028,0,2.587,2.587,0,0,0,2.035-2.544,2.616,2.616,0,0,0-.436-1.452,2.524,2.524,0,0,0-4.227,0,2.622,2.622,0,0,0-.435,1.452,2.586,2.586,0,0,0,2.035,2.544" transform="translate(-850.186 -539.154)" fill="#ff6a00"/>
          <path id="Trazado_8913" data-name="Trazado 8913" d="M1985.753,734.344a2.529,2.529,0,0,0,1.027,0,2.585,2.585,0,0,0,2.035-2.543,2.632,2.632,0,0,0-.2-1.012,2.532,2.532,0,0,0-4.7,0,2.634,2.634,0,0,0-.2,1.012,2.585,2.585,0,0,0,2.035,2.543" transform="translate(-859.889 -549.341)" fill="#ff6a00"/>
          <path id="Trazado_8914" data-name="Trazado 8914" d="M1985.753,699.144a2.534,2.534,0,0,0,1.027,0,2.587,2.587,0,0,0,2.035-2.544,2.62,2.62,0,0,0-.435-1.452,2.523,2.523,0,0,0-4.227,0,2.616,2.616,0,0,0-.436,1.452,2.587,2.587,0,0,0,2.035,2.544" transform="translate(-859.889 -539.154)" fill="#ff6a00"/>
          <path id="Trazado_8915" data-name="Trazado 8915" d="M2019.282,734.344a2.529,2.529,0,0,0,1.027,0,2.585,2.585,0,0,0,2.035-2.543,2.643,2.643,0,0,0-.2-1.012,2.532,2.532,0,0,0-4.7,0,2.632,2.632,0,0,0-.2,1.012,2.585,2.585,0,0,0,2.035,2.543" transform="translate(-869.592 -549.341)" fill="#ff6a00"/>
          <path id="Trazado_8916" data-name="Trazado 8916" d="M2019.282,699.144a2.534,2.534,0,0,0,1.027,0,2.587,2.587,0,0,0,2.035-2.544,2.622,2.622,0,0,0-.435-1.452,2.524,2.524,0,0,0-4.227,0,2.618,2.618,0,0,0-.436,1.452,2.587,2.587,0,0,0,2.035,2.544" transform="translate(-869.592 -539.154)" fill="#ff6a00"/>
          <path id="Trazado_8917" data-name="Trazado 8917" d="M1751.565,664a2.6,2.6,0,1,0-2.549-2.6,2.573,2.573,0,0,0,2.549,2.6" transform="translate(-791.966 -528.967)" fill="#ff6a00"/>
          <path id="Trazado_8918" data-name="Trazado 8918" d="M1785.093,664a2.6,2.6,0,1,0-2.549-2.6,2.574,2.574,0,0,0,2.549,2.6" transform="translate(-801.669 -528.967)" fill="#ff6a00"/>
          <path id="Trazado_8919" data-name="Trazado 8919" d="M1751.565,799.6a2.6,2.6,0,1,0,2.549,2.6,2.573,2.573,0,0,0-2.549-2.6" transform="translate(-791.966 -569.715)" fill="#ff6a00"/>
          <path id="Trazado_8920" data-name="Trazado 8920" d="M1751.565,769.6a2.6,2.6,0,1,0-2.549-2.6,2.573,2.573,0,0,0,2.549,2.6" transform="translate(-791.966 -559.528)" fill="#ff6a00"/>
          <path id="Trazado_8921" data-name="Trazado 8921" d="M1785.093,804.8a2.6,2.6,0,1,0-2.549-2.6,2.574,2.574,0,0,0,2.549,2.6" transform="translate(-801.669 -569.715)" fill="#ff6a00"/>
          <path id="Trazado_8922" data-name="Trazado 8922" d="M1785.093,769.6a2.6,2.6,0,1,0-2.549-2.6,2.574,2.574,0,0,0,2.549,2.6" transform="translate(-801.669 -559.528)" fill="#ff6a00"/>
          <path id="Trazado_8923" data-name="Trazado 8923" d="M1818.622,664a2.6,2.6,0,1,0-2.549-2.6,2.573,2.573,0,0,0,2.549,2.6" transform="translate(-811.373 -528.967)" fill="#ff6a00"/>
          <path id="Trazado_8924" data-name="Trazado 8924" d="M1852.151,664a2.6,2.6,0,1,0-2.549-2.6,2.573,2.573,0,0,0,2.549,2.6" transform="translate(-821.076 -528.967)" fill="#ff6a00"/>
          <path id="Trazado_8925" data-name="Trazado 8925" d="M1885.68,664a2.6,2.6,0,1,0-2.549-2.6,2.573,2.573,0,0,0,2.549,2.6" transform="translate(-830.779 -528.967)" fill="#ff6a00"/>
          <path id="Trazado_8926" data-name="Trazado 8926" d="M1919.209,664a2.6,2.6,0,1,0-2.549-2.6,2.573,2.573,0,0,0,2.549,2.6" transform="translate(-840.482 -528.967)" fill="#ff6a00"/>
          <path id="Trazado_8927" data-name="Trazado 8927" d="M1952.738,664a2.6,2.6,0,1,0-2.549-2.6,2.573,2.573,0,0,0,2.549,2.6" transform="translate(-850.186 -528.967)" fill="#ff6a00"/>
          <path id="Trazado_8928" data-name="Trazado 8928" d="M1986.267,664a2.6,2.6,0,1,0-2.549-2.6,2.573,2.573,0,0,0,2.549,2.6" transform="translate(-859.889 -528.967)" fill="#ff6a00"/>
          <path id="Trazado_8929" data-name="Trazado 8929" d="M2019.795,664a2.6,2.6,0,1,0-2.549-2.6,2.574,2.574,0,0,0,2.549,2.6" transform="translate(-869.592 -528.967)" fill="#ff6a00"/>
          <path id="Trazado_8930" data-name="Trazado 8930" d="M1986.267,804.8a2.6,2.6,0,1,0-2.549-2.6,2.573,2.573,0,0,0,2.549,2.6" transform="translate(-859.889 -569.715)" fill="#ff6a00"/>
          <path id="Trazado_8931" data-name="Trazado 8931" d="M1986.267,769.6a2.6,2.6,0,1,0-2.549-2.6,2.573,2.573,0,0,0,2.549,2.6" transform="translate(-859.889 -559.528)" fill="#ff6a00"/>
          <path id="Trazado_8932" data-name="Trazado 8932" d="M2019.795,804.8a2.6,2.6,0,1,0-2.549-2.6,2.574,2.574,0,0,0,2.549,2.6" transform="translate(-869.592 -569.715)" fill="#ff6a00"/>
          <path id="Trazado_8933" data-name="Trazado 8933" d="M2019.795,769.6a2.6,2.6,0,1,0-2.549-2.6,2.574,2.574,0,0,0,2.549,2.6" transform="translate(-869.592 -559.528)" fill="#ff6a00"/>
          <path id="Trazado_8934" data-name="Trazado 8934" d="M681.491,1454.881c-20.754-33.866-53.319-62.609-92.465-69.328-24.327-4.175-50.191.178-73.272-8.57-46.861-17.762-63.678-81.427-110.762-98.593-21.774-7.939-46.62-4.313-68.042-13.159-36.531-15.086-49.874-59.406-55.675-98.5s-10.667-82.8-40.837-108.335c-64.371,26.719-61.5,119.951-103.741,175.387-25.84,33.91-67.322,51.513-100.1,78.777A298.037,298.037,0,0,0,0,1357.065V1551.1H719.3c-9.294-33.418-19.738-66.729-37.808-96.217" transform="translate(-36.3 -618.318)" fill="#ff8300"/>
          <path id="Trazado_8935" data-name="Trazado 8935" d="M1835.339,990.891c-2.012,0-3.063-1.58-4.282-3.41-1.366-2.052-2.915-4.377-6.089-4.377s-4.723,2.326-6.089,4.377c-1.2,1.8-2.24,3.35-4.188,3.4-1.947-.051-2.989-1.6-4.187-3.4-1.367-2.052-2.915-4.377-6.089-4.377-.033,0-.061.008-.094.008s-.06-.008-.094-.008c-3.174,0-4.723,2.326-6.089,4.378-1.2,1.8-2.239,3.346-4.182,3.4-1.943-.054-2.986-1.6-4.182-3.4-1.367-2.052-2.916-4.377-6.09-4.377h-.01c-.033,0-.06.008-.093.008s-.06-.008-.093-.008a1.007,1.007,0,0,0-.16.032c-2.932.169-4.429,2.373-5.743,4.345-1.2,1.8-2.238,3.346-4.182,3.4-1.944-.054-2.986-1.6-4.183-3.4-1.366-2.052-2.915-4.377-6.089-4.377-.033,0-.06.008-.094.008s-.06-.008-.093-.008h-.018c-3.161.009-4.708,2.328-6.071,4.377-1.2,1.8-2.24,3.35-4.188,3.4-1.948-.05-2.989-1.6-4.188-3.4-1.366-2.052-2.914-4.378-6.089-4.378-.033,0-.06.008-.093.008s-.06-.008-.093-.008a1.008,1.008,0,0,0-.159.032c-2.933.169-4.43,2.373-5.743,4.345-1.218,1.83-2.27,3.41-4.281,3.41s-3.063-1.58-4.281-3.409c-1.367-2.052-2.915-4.378-6.089-4.378a1.085,1.085,0,1,0,0,2.171c2.011,0,3.063,1.58,4.281,3.409,1.366,2.052,2.914,4.378,6.088,4.378s4.723-2.326,6.089-4.377c1.2-1.8,2.241-3.35,4.188-3.4,1.948.05,2.99,1.6,4.188,3.4,1.367,2.052,2.915,4.377,6.089,4.377.033,0,.06-.008.093-.008s.061.008.093.008c3.174,0,4.723-2.326,6.09-4.377,1.2-1.8,2.239-3.347,4.183-3.4,1.944.053,2.985,1.6,4.183,3.4,1.366,2.052,2.915,4.378,6.088,4.378h.01c.033,0,.061-.008.094-.008s.061.008.095.008a1.039,1.039,0,0,0,.162-.033c2.929-.171,4.426-2.373,5.738-4.345,1.2-1.8,2.24-3.347,4.184-3.4,1.944.053,2.986,1.6,4.183,3.4,1.366,2.052,2.914,4.377,6.088,4.377.033,0,.06-.008.093-.008s.06.008.094.008h.012l.01,0c3.158-.011,4.7-2.329,6.067-4.375,1.2-1.8,2.241-3.35,4.188-3.4,1.947.051,2.99,1.6,4.188,3.4,1.366,2.052,2.915,4.378,6.088,4.378.033,0,.061-.008.094-.008s.06.008.094.008a1.02,1.02,0,0,0,.161-.033c2.929-.171,4.426-2.373,5.739-4.345,1.219-1.83,2.27-3.41,4.282-3.41s3.063,1.58,4.282,3.41c1.366,2.052,2.915,4.377,6.089,4.377a1.085,1.085,0,1,0,0-2.171" transform="translate(-783.732 -622.819)" fill="#8116ff"/>
          <path id="Trazado_8936" data-name="Trazado 8936" d="M1863.312,972.587c-2.012,0-3.063-1.58-4.282-3.41-1.367-2.052-2.915-4.377-6.089-4.377s-4.723,2.326-6.089,4.377c-1.2,1.8-2.241,3.349-4.188,3.4-1.947-.052-2.99-1.6-4.188-3.4-1.366-2.052-2.915-4.377-6.089-4.377-.033,0-.061.008-.094.009s-.06-.009-.094-.009c-3.173,0-4.723,2.326-6.088,4.377-1.2,1.8-2.239,3.346-4.182,3.4-1.944-.054-2.985-1.6-4.183-3.4-1.366-2.052-2.915-4.377-6.089-4.377h-.011c-.033,0-.061.008-.093.009s-.06-.009-.093-.009a1,1,0,0,0-.16.032c-2.932.169-4.429,2.373-5.743,4.345-1.2,1.8-2.238,3.346-4.182,3.4-1.944-.054-2.986-1.6-4.183-3.4-1.366-2.052-2.915-4.377-6.089-4.377-.033,0-.06.008-.094.009s-.06-.009-.093-.009h-.01l-.008,0c-3.162.009-4.708,2.328-6.072,4.376-1.2,1.8-2.24,3.35-4.188,3.4-1.947-.05-2.99-1.6-4.188-3.4-1.366-2.052-2.914-4.377-6.089-4.377-.033,0-.06.008-.093.009s-.06-.009-.093-.009a.992.992,0,0,0-.159.032c-2.933.169-4.43,2.373-5.743,4.345-1.219,1.83-2.271,3.41-4.281,3.41s-3.063-1.58-4.281-3.41c-1.366-2.052-2.915-4.378-6.088-4.378a1.085,1.085,0,1,0,0,2.171c2.011,0,3.063,1.58,4.281,3.409,1.366,2.052,2.914,4.378,6.088,4.378s4.723-2.326,6.089-4.377c1.2-1.8,2.241-3.35,4.188-3.4,1.948.05,2.99,1.6,4.188,3.4,1.366,2.051,2.915,4.377,6.088,4.377.033,0,.06-.008.093-.009s.06.009.093.009c3.174,0,4.723-2.326,6.09-4.377,1.2-1.8,2.239-3.347,4.183-3.4,1.944.053,2.986,1.6,4.183,3.4,1.366,2.052,2.915,4.378,6.089,4.378h.01c.033,0,.061-.008.094-.009s.061.009.094.009a1.036,1.036,0,0,0,.162-.033c2.929-.171,4.426-2.373,5.738-4.345,1.2-1.8,2.24-3.347,4.184-3.4,1.944.053,2.986,1.6,4.183,3.4,1.366,2.051,2.914,4.377,6.088,4.377.033,0,.06-.008.094-.009s.06.009.093.009h.012l.01,0c3.159-.011,4.7-2.329,6.067-4.375,1.2-1.8,2.24-3.35,4.188-3.4,1.947.051,2.989,1.6,4.188,3.4,1.366,2.052,2.915,4.378,6.089,4.378.033,0,.061-.008.094-.009s.061.009.095.009a1.033,1.033,0,0,0,.161-.033c2.929-.171,4.426-2.373,5.739-4.345,1.219-1.83,2.27-3.41,4.282-3.41s3.063,1.58,4.282,3.41c1.367,2.051,2.915,4.377,6.089,4.377a1.085,1.085,0,1,0,0-2.171" transform="translate(-791.828 -617.522)" fill="#8116ff"/>
          <g id="Grupo_18649" data-name="Grupo 18649" transform="translate(88.23)">
            <g id="Grupo_18648" data-name="Grupo 18648" transform="translate(27.821 0.707)">
              <path id="Trazado_8937" data-name="Trazado 8937" d="M2090.48,1453.051c-1.78,0-2.711-1.4-3.79-3.018-1.209-1.816-2.58-3.874-5.389-3.874s-4.179,2.059-5.388,3.874c-1.061,1.593-1.983,2.964-3.706,3.01-1.723-.045-2.646-1.417-3.706-3.01-1.209-1.816-2.579-3.874-5.389-3.874-.029,0-.054.007-.083.008s-.053-.008-.083-.008c-2.809,0-4.179,2.059-5.388,3.874-1.059,1.591-1.981,2.961-3.7,3.009-1.72-.047-2.642-1.418-3.7-3.009-1.209-1.816-2.58-3.874-5.389-3.874h-.009c-.029,0-.053.007-.083.008s-.053-.008-.082-.008a.9.9,0,0,0-.141.029c-2.595.15-3.92,2.1-5.082,3.846-1.06,1.591-1.981,2.962-3.7,3.009-1.72-.047-2.642-1.418-3.7-3.009-1.209-1.816-2.58-3.874-5.389-3.874-.029,0-.054.007-.083.008s-.054-.008-.083-.008h-.016c-2.8.008-4.167,2.061-5.373,3.873-1.061,1.593-1.983,2.965-3.706,3.01-1.724-.045-2.646-1.417-3.706-3.01-1.209-1.816-2.579-3.874-5.388-3.874-.029,0-.053.007-.082.008s-.053-.008-.083-.008a.9.9,0,0,0-.141.029c-2.595.15-3.92,2.1-5.082,3.846-1.078,1.619-2.009,3.018-3.789,3.018s-2.711-1.4-3.789-3.018c-1.209-1.816-2.58-3.874-5.388-3.874a.961.961,0,0,0,0,1.922c1.78,0,2.711,1.4,3.789,3.018,1.209,1.816,2.579,3.875,5.388,3.875s4.179-2.058,5.388-3.874c1.061-1.593,1.983-2.965,3.707-3.01,1.724.045,2.646,1.417,3.707,3.01,1.209,1.816,2.579,3.874,5.388,3.874.029,0,.054-.007.083-.008s.053.008.082.008c2.809,0,4.18-2.058,5.389-3.874,1.06-1.591,1.981-2.962,3.7-3.009,1.72.047,2.642,1.418,3.7,3.009,1.209,1.816,2.579,3.875,5.388,3.875h.008c.03,0,.054-.007.084-.008s.054.008.083.008a.879.879,0,0,0,.143-.029c2.592-.152,3.917-2.1,5.079-3.845,1.059-1.591,1.982-2.962,3.7-3.009,1.72.047,2.642,1.418,3.7,3.009,1.209,1.816,2.579,3.874,5.388,3.874.029,0,.054-.007.083-.008s.053.008.083.008h.011l.009,0c2.795-.01,4.163-2.061,5.369-3.872,1.06-1.593,1.983-2.965,3.706-3.009,1.723.045,2.646,1.417,3.706,3.009,1.209,1.816,2.579,3.875,5.388,3.875.03,0,.054-.007.084-.008s.054.008.083.008a.89.89,0,0,0,.143-.029c2.592-.152,3.917-2.1,5.078-3.845,1.079-1.619,2.01-3.018,3.79-3.018s2.712,1.4,3.79,3.018c1.209,1.816,2.58,3.874,5.389,3.874a.961.961,0,0,0,0-1.922" transform="translate(-1495.959 -700.446)" fill="#f40000"/>
              <path id="Trazado_8938" data-name="Trazado 8938" d="M2165.327,1404.07c-1.78,0-2.711-1.4-3.79-3.018-1.209-1.816-2.579-3.875-5.388-3.875s-4.18,2.059-5.389,3.875c-1.061,1.592-1.983,2.964-3.706,3.01-1.723-.045-2.645-1.417-3.706-3.01-1.209-1.816-2.58-3.875-5.389-3.875-.03,0-.054.007-.083.008s-.053-.008-.083-.008c-2.809,0-4.18,2.059-5.388,3.875-1.06,1.591-1.981,2.961-3.7,3.009-1.72-.048-2.642-1.418-3.7-3.009-1.209-1.816-2.58-3.875-5.389-3.875h-.009c-.03,0-.053.007-.083.008s-.053-.008-.082-.008a.909.909,0,0,0-.141.029c-2.595.15-3.92,2.1-5.082,3.846-1.06,1.591-1.981,2.961-3.7,3.009-1.72-.048-2.642-1.418-3.7-3.009-1.209-1.816-2.579-3.875-5.389-3.875-.029,0-.053.007-.083.008s-.053-.008-.083-.008h-.008l-.007,0c-2.8.008-4.166,2.06-5.373,3.873-1.06,1.593-1.983,2.965-3.707,3.01-1.723-.045-2.646-1.417-3.706-3.01-1.209-1.816-2.58-3.875-5.388-3.875-.029,0-.053.007-.083.008s-.053-.008-.083-.008a.881.881,0,0,0-.141.029c-2.595.15-3.921,2.1-5.083,3.846-1.078,1.619-2.009,3.018-3.789,3.018s-2.711-1.4-3.789-3.018c-1.209-1.816-2.579-3.875-5.388-3.875a.961.961,0,0,0,0,1.922c1.78,0,2.711,1.4,3.789,3.018,1.209,1.816,2.579,3.875,5.388,3.875s4.179-2.058,5.388-3.874c1.061-1.593,1.983-2.965,3.707-3.01,1.724.045,2.646,1.417,3.707,3.01,1.209,1.816,2.579,3.874,5.388,3.874.029,0,.054-.007.083-.008s.053.008.082.008c2.809,0,4.18-2.058,5.389-3.874,1.06-1.591,1.981-2.962,3.7-3.009,1.72.047,2.642,1.418,3.7,3.009,1.209,1.816,2.58,3.875,5.388,3.875h.008c.03,0,.054-.007.084-.008s.054.008.083.008a.887.887,0,0,0,.143-.029c2.592-.151,3.917-2.1,5.079-3.845,1.06-1.591,1.982-2.962,3.7-3.009,1.72.047,2.642,1.418,3.7,3.009,1.209,1.816,2.579,3.874,5.388,3.874.03,0,.054-.007.083-.008s.053.008.082.008h.011l.009,0c2.8-.01,4.164-2.061,5.37-3.872,1.06-1.593,1.983-2.965,3.706-3.01,1.723.045,2.646,1.417,3.706,3.009,1.209,1.816,2.58,3.875,5.388,3.875.03,0,.054-.007.083-.008s.054.008.084.008a.9.9,0,0,0,.143-.029c2.592-.152,3.917-2.1,5.079-3.845,1.078-1.619,2.009-3.018,3.789-3.018s2.711,1.4,3.79,3.018c1.209,1.816,2.579,3.874,5.388,3.874a.961.961,0,1,0,0-1.922" transform="translate(-1553.215 -662.978)" fill="#f40000"/>
            </g>
          </g>
          <path id="Trazado_8939" data-name="Trazado 8939" d="M1887.051,1195.272l-15.505-15.505,15.505-15.506,15.506,15.506Zm-58.919-15.505-15.506-15.506-15.505,15.506,15.505,15.505Zm-74.425,0-15.506-15.506-15.505,15.506,15.505,15.505Z" transform="translate(-807.349 -658.671)" fill="#f66f16"/>
          <path id="Trazado_8940" data-name="Trazado 8940" d="M2254.655,1123.368c22.511-.19,46.82,2.881,63.314,18.2,8.983-18.837,30.414-47,30.414-47s-20.951-11.454-29.033-14.174c-48.089-16.188-110.85-14.359-158.946,1.316-17.948,5.85-80.824,40.413-80.824,40.413s9.184,23.267,17.747,45.778c49.519-26.123,100.581-44.048,157.329-44.528" transform="translate(-1586.631 -482.38)" fill="#f40000"/>
          <path id="Trazado_8941" data-name="Trazado 8941" d="M2294.067,1187.615c-29.2,1.091-56.4,59.421-39.945,82.909,8.1,11.557,23.526,14.767,37.448,17.069,3.656.6,7.538,1.171,11.133.6v-99.918a35.738,35.738,0,0,0-8.636-.659" transform="translate(-936.703 -524.487)" fill="#05a451"/>
          <path id="Trazado_8942" data-name="Trazado 8942" d="M602.17,743.532a13.188,13.188,0,1,1-26.368,0c0-11.771-9.305-21.314-20.784-21.314s-20.783,9.543-20.783,21.314a13.188,13.188,0,1,1-26.368,0c0-11.771-9.305-21.314-20.784-21.314S466.3,731.761,466.3,743.532a13.189,13.189,0,1,1-26.369,0c0-11.771-9.3-21.314-20.783-21.314s-20.784,9.543-20.784,21.314a13.188,13.188,0,1,1-26.368,0c0-11.771-9.305-21.314-20.784-21.314s-20.784,9.543-20.784,21.314h7.6a13.188,13.188,0,1,1,26.368,0c0,11.771,9.305,21.314,20.784,21.314s20.784-9.543,20.784-21.314a13.188,13.188,0,1,1,26.368,0c0,11.771,9.305,21.314,20.784,21.314S473.9,755.3,473.9,743.532a13.188,13.188,0,1,1,26.368,0c0,11.771,9.305,21.314,20.784,21.314s20.784-9.543,20.784-21.314a13.188,13.188,0,1,1,26.368,0c0,11.771,9.3,21.314,20.784,21.314s20.784-9.543,20.784-21.314Z" transform="translate(-381.429 -547.319)" fill="#f40000"/>
          <path id="Trazado_8943" data-name="Trazado 8943" d="M1005.926,1285.4a5.564,5.564,0,1,1-11.125,0,8.772,8.772,0,1,0-17.538,0,5.564,5.564,0,1,1-11.125,0,8.772,8.772,0,1,0-17.538,0,5.564,5.564,0,1,1-11.125,0,8.772,8.772,0,1,0-17.538,0,5.564,5.564,0,1,1-11.125,0,8.772,8.772,0,1,0-17.538,0h3.206a5.564,5.564,0,1,1,11.125,0,8.772,8.772,0,1,0,17.538,0,5.564,5.564,0,1,1,11.125,0,8.772,8.772,0,1,0,17.538,0,5.565,5.565,0,1,1,11.126,0,8.772,8.772,0,1,0,17.538,0,5.564,5.564,0,1,1,11.125,0,8.772,8.772,0,1,0,17.538,0Z" transform="translate(-543.737 -707.7)" fill="#ffdd04"/>
          <path id="Trazado_8944" data-name="Trazado 8944" d="M602.643,1285.451a45.495,45.495,0,1,1-45.495-45.495,45.495,45.495,0,0,1,45.495,45.495" transform="translate(-150.72 -500.716)" fill="#fd0"/>
          <path id="Trazado_8945" data-name="Trazado 8945" d="M659.309,1500.432H680.83l-10.76-19.114Z" transform="translate(-356.947 -733.822)" fill="#fd0"/>
          <path id="Trazado_40380" data-name="Trazado 40380" d="M659.309,1500.432H680.83l-10.76-19.114Z" transform="translate(-356.947 -756.199)" fill="#fd0"/>
          <path id="Trazado_8946" data-name="Trazado 8946" d="M659.309,1356.671h36.749l-18.374-32.637Z" transform="translate(-472.235 -717.601)" fill="#ffdd04"/>
          <path id="Trazado_8947" data-name="Trazado 8947" d="M682.056,1166.749l-22.747,40.4H704.8Z" transform="translate(-476.607 -675.966)" fill="#ffdd04"/>
          <path id="Trazado_8948" data-name="Trazado 8948" d="M978.61,261.933A176.78,176.78,0,1,1,801.831,85.154,176.78,176.78,0,0,1,978.61,261.933" transform="translate(-466.692 -362.954)" fill="#f66f16"/>
          <path id="Trazado_8949" data-name="Trazado 8949" d="M2138.755,545.027c11.829,43.582,47.593,79.354,90.573,93.207,21.875,7.05,47.159,8.225,67.106-2.424V437.967H2157.552c-21.493,29.919-28.275,72.14-18.8,107.06" transform="translate(-903.546 -465.057)" fill="#ffdd04"/>
        </g>
      </g>
    </g>
  </g>
</svg>
