<svg xmlns="http://www.w3.org/2000/svg" xmlns:xlink="http://www.w3.org/1999/xlink" width="768" height="60" viewBox="0 0 768 60">
  <defs>
    <clipPath id="clip-path">
      <rect id="Rectángulo_21309" data-name="Rectángulo 21309" width="768" height="60" fill="#fff" stroke="#707070" stroke-width="1"/>
    </clipPath>
    <clipPath id="clip-path-2">
      <rect id="Rectángulo_21278" data-name="Rectángulo 21278" width="1166.523" height="663.979" fill="none"/>
    </clipPath>
  </defs>
  <g id="pleca-header" clip-path="url(#clip-path)">
    <g id="Grupo_19088" data-name="Grupo 19088" transform="translate(-786.189 -1073.697)">
      <rect id="Rectángulo_21277" data-name="Rectángulo 21277" width="1166.523" height="663.979" transform="translate(402.2 474.594)"/>
      <g id="Grupo_19087" data-name="Grupo 19087" transform="translate(402.2 474.594)">
        <g id="Grupo_19086" data-name="Grupo 19086" clip-path="url(#clip-path-2)">
          <path id="Trazado_41556" data-name="Trazado 41556" d="M381.072,970.963c31.171-24.4,31.029-70.954,48.516-106.458,52.938-107.481,242.334-82.682,291.045-192.142,21.655-48.661,5.126-104.642-5.74-156.784s-12.168-115,28.8-149.035c43.694-36.306,113.58-20.716,159.639-53.971,33.24-24,45.505-67.013,55.616-106.744L1011.328,0H912.57c5.064,84.838-.105,180.09-67.923,228.373-74.638,53.14-194.488,22.573-253.546,92.622-64.917,77,1.021,209.179-59.943,289.346C465.275,696.974,338.843,665.157,254.732,723.9V964.253c42.927,20.752,96.355,30.178,126.34,6.71" transform="translate(-344.22 -288.906)" fill="#161616"/>
          <path id="Trazado_41557" data-name="Trazado 41557" d="M471.461,722.634c42.111-59.024,59.119-131.792,75.22-202.488C494.97,525.362,455.644,566.84,418.9,603.6c-28.947,28.954-63.92,58.05-102.611,65.495V809.163c55.278.04,117.612-33.882,155.174-86.529" transform="translate(-368.422 -493.411)" fill="#161616"/>
          <path id="Trazado_41558" data-name="Trazado 41558" d="M479.448,298.838c58.039-43.132,127.5-74.276,199.809-74.622,38.276-.184,76.958,8.161,114.531.851s75.207-37.841,72.194-76l-201.956,5.216c-93.866,2.424-195.377,7.557-267.99,67.089-28.561,23.415-52.288,54.91-79.749,79.208V461.848c3.059-3.64,6.17-7.215,9.259-10.734,47.7-54.352,95.863-109.144,153.9-152.276" transform="translate(-368.422 -347.515)" fill="#161616"/>
          <path id="Trazado_41559" data-name="Trazado 41559" d="M1892.9,1306.8c-46.417-24.278,6.018-118.155-41.067-141.11-28.731-14.008-58.729,19.779-65.491,51.02A155.477,155.477,0,0,0,1803,1325.367c8.368,14.7,19.231,33.2,9.177,46.807-13.729,18.576-41.992,1.123-59.677-13.735-88.724-74.544-188.876-74.663-298.632-37.484-32.023,10.847-65.069,24.591-85.671,51.4s-23.024,70.331,3.389,91.438c21.584,17.247,52.71,13.813,79.613,7.522,70.846-16.568,107.421-34.283,180.132-31.655s151.748,54.855,149.27,127.571c-64.624-31.763-135.829-64.4-206-48.249-10.985,2.528-22.232,6.582-29.617,15.1-16.313,18.809-5.086,50.039,15.136,64.561s46.067,17.831,70.138,24.191c70.819,18.709,128.818,69.995,163.529,133.542,16.319,29.875,23.652,73.517,42.36,105.791h106.111V1326.29a68.591,68.591,0,0,0-24.164-12.318c-8.427-2.371-17.432-3.112-25.19-7.169" transform="translate(-775.733 -731.873)" fill="#222"/>
          <path id="Trazado_41560" data-name="Trazado 41560" d="M1751.193,628.038a2.218,2.218,0,1,0-2.177-2.217,2.2,2.2,0,0,0,2.177,2.217" transform="translate(-931.724 -534.087)" fill="#ff6a00"/>
          <path id="Trazado_41561" data-name="Trazado 41561" d="M1784.721,628.038a2.218,2.218,0,1,0-2.177-2.217,2.2,2.2,0,0,0,2.177,2.217" transform="translate(-944.906 -534.087)" fill="#ff6a00"/>
          <path id="Trazado_41562" data-name="Trazado 41562" d="M1750.754,733.594a2.16,2.16,0,0,0,.878,0,2.207,2.207,0,0,0,1.738-2.172,2.261,2.261,0,0,0-.171-.864,2.162,2.162,0,0,0-4.011,0,2.245,2.245,0,0,0-.171.864,2.207,2.207,0,0,0,1.738,2.172" transform="translate(-931.724 -575.606)" fill="#ff6a00"/>
          <path id="Trazado_41563" data-name="Trazado 41563" d="M1750.754,698.394a2.165,2.165,0,0,0,.878,0,2.209,2.209,0,0,0,1.738-2.172,2.234,2.234,0,0,0-.372-1.24,2.155,2.155,0,0,0-3.609,0,2.235,2.235,0,0,0-.372,1.24,2.208,2.208,0,0,0,1.738,2.172" transform="translate(-931.724 -561.767)" fill="#ff6a00"/>
          <path id="Trazado_41564" data-name="Trazado 41564" d="M1784.283,733.594a2.159,2.159,0,0,0,.877,0,2.207,2.207,0,0,0,1.738-2.172,2.247,2.247,0,0,0-.171-.864,2.162,2.162,0,0,0-4.011,0,2.245,2.245,0,0,0-.171.864,2.207,2.207,0,0,0,1.738,2.172" transform="translate(-944.907 -575.606)" fill="#ff6a00"/>
          <path id="Trazado_41565" data-name="Trazado 41565" d="M1784.283,698.394a2.165,2.165,0,0,0,.877,0,2.209,2.209,0,0,0,1.738-2.172,2.234,2.234,0,0,0-.372-1.24,2.155,2.155,0,0,0-3.609,0,2.235,2.235,0,0,0-.372,1.24,2.209,2.209,0,0,0,1.738,2.172" transform="translate(-944.907 -561.767)" fill="#ff6a00"/>
          <path id="Trazado_41566" data-name="Trazado 41566" d="M1818.25,628.038a2.218,2.218,0,1,0-2.177-2.217,2.2,2.2,0,0,0,2.177,2.217" transform="translate(-958.089 -534.087)" fill="#ff6a00"/>
          <path id="Trazado_41567" data-name="Trazado 41567" d="M1851.779,628.038a2.218,2.218,0,1,0-2.177-2.217,2.2,2.2,0,0,0,2.177,2.217" transform="translate(-971.271 -534.087)" fill="#ff6a00"/>
          <path id="Trazado_41568" data-name="Trazado 41568" d="M1817.812,733.594a2.159,2.159,0,0,0,.877,0,2.208,2.208,0,0,0,1.738-2.172,2.255,2.255,0,0,0-.172-.864,2.162,2.162,0,0,0-4.011,0,2.25,2.25,0,0,0-.171.864,2.207,2.207,0,0,0,1.739,2.172" transform="translate(-958.089 -575.606)" fill="#ff6a00"/>
          <path id="Trazado_41569" data-name="Trazado 41569" d="M1817.812,698.394a2.165,2.165,0,0,0,.877,0,2.21,2.21,0,0,0,1.738-2.172,2.24,2.24,0,0,0-.372-1.24,2.155,2.155,0,0,0-3.61,0,2.24,2.24,0,0,0-.372,1.24,2.208,2.208,0,0,0,1.739,2.172" transform="translate(-958.089 -561.767)" fill="#ff6a00"/>
          <path id="Trazado_41570" data-name="Trazado 41570" d="M1851.34,733.594a2.158,2.158,0,0,0,.877,0,2.207,2.207,0,0,0,1.738-2.172,2.25,2.25,0,0,0-.171-.864,2.163,2.163,0,0,0-4.011,0,2.25,2.25,0,0,0-.171.864,2.207,2.207,0,0,0,1.738,2.172" transform="translate(-971.271 -575.606)" fill="#ff6a00"/>
          <path id="Trazado_41571" data-name="Trazado 41571" d="M1851.34,698.394a2.164,2.164,0,0,0,.877,0,2.209,2.209,0,0,0,1.738-2.172,2.234,2.234,0,0,0-.372-1.24,2.155,2.155,0,0,0-3.609,0,2.236,2.236,0,0,0-.372,1.24,2.208,2.208,0,0,0,1.738,2.172" transform="translate(-971.271 -561.767)" fill="#ff6a00"/>
          <path id="Trazado_41572" data-name="Trazado 41572" d="M1884.869,733.594a2.159,2.159,0,0,0,.877,0,2.208,2.208,0,0,0,1.738-2.172,2.25,2.25,0,0,0-.171-.864,2.162,2.162,0,0,0-4.011,0,2.243,2.243,0,0,0-.171.864,2.207,2.207,0,0,0,1.738,2.172" transform="translate(-984.454 -575.606)" fill="#ff6a00"/>
          <path id="Trazado_41573" data-name="Trazado 41573" d="M1884.869,698.394a2.165,2.165,0,0,0,.877,0,2.209,2.209,0,0,0,1.738-2.172,2.235,2.235,0,0,0-.372-1.24,2.155,2.155,0,0,0-3.61,0,2.239,2.239,0,0,0-.372,1.24,2.208,2.208,0,0,0,1.738,2.172" transform="translate(-984.454 -561.767)" fill="#ff6a00"/>
          <path id="Trazado_41574" data-name="Trazado 41574" d="M1918.4,733.594a2.159,2.159,0,0,0,.877,0,2.207,2.207,0,0,0,1.738-2.172,2.259,2.259,0,0,0-.171-.864,2.162,2.162,0,0,0-4.011,0,2.245,2.245,0,0,0-.171.864,2.207,2.207,0,0,0,1.738,2.172" transform="translate(-997.636 -575.606)" fill="#ff6a00"/>
          <path id="Trazado_41575" data-name="Trazado 41575" d="M1918.4,698.394a2.165,2.165,0,0,0,.877,0,2.209,2.209,0,0,0,1.738-2.172,2.233,2.233,0,0,0-.372-1.24,2.155,2.155,0,0,0-3.61,0,2.237,2.237,0,0,0-.371,1.24,2.208,2.208,0,0,0,1.738,2.172" transform="translate(-997.636 -561.767)" fill="#ff6a00"/>
          <path id="Trazado_41576" data-name="Trazado 41576" d="M2019.423,628.038a2.218,2.218,0,1,0-2.177-2.217,2.2,2.2,0,0,0,2.177,2.217" transform="translate(-1037.183 -534.087)" fill="#ff6a00"/>
          <path id="Trazado_41577" data-name="Trazado 41577" d="M1951.927,733.594a2.16,2.16,0,0,0,.878,0,2.207,2.207,0,0,0,1.738-2.172,2.254,2.254,0,0,0-.171-.864,2.162,2.162,0,0,0-4.011,0,2.25,2.25,0,0,0-.171.864,2.207,2.207,0,0,0,1.738,2.172" transform="translate(-1010.819 -575.606)" fill="#ff6a00"/>
          <path id="Trazado_41578" data-name="Trazado 41578" d="M1951.927,698.394a2.166,2.166,0,0,0,.878,0,2.209,2.209,0,0,0,1.738-2.172,2.233,2.233,0,0,0-.372-1.24,2.155,2.155,0,0,0-3.61,0,2.238,2.238,0,0,0-.371,1.24,2.208,2.208,0,0,0,1.738,2.172" transform="translate(-1010.819 -561.767)" fill="#ff6a00"/>
          <path id="Trazado_41579" data-name="Trazado 41579" d="M1985.456,733.594a2.159,2.159,0,0,0,.877,0,2.207,2.207,0,0,0,1.738-2.172,2.25,2.25,0,0,0-.171-.864,2.162,2.162,0,0,0-4.011,0,2.245,2.245,0,0,0-.171.864,2.208,2.208,0,0,0,1.738,2.172" transform="translate(-1024.001 -575.606)" fill="#ff6a00"/>
          <path id="Trazado_41580" data-name="Trazado 41580" d="M1985.456,698.394a2.165,2.165,0,0,0,.877,0,2.209,2.209,0,0,0,1.738-2.172,2.236,2.236,0,0,0-.372-1.24,2.155,2.155,0,0,0-3.61,0,2.235,2.235,0,0,0-.372,1.24,2.209,2.209,0,0,0,1.738,2.172" transform="translate(-1024.001 -561.767)" fill="#ff6a00"/>
          <path id="Trazado_41581" data-name="Trazado 41581" d="M2018.985,733.594a2.159,2.159,0,0,0,.877,0,2.208,2.208,0,0,0,1.738-2.172,2.259,2.259,0,0,0-.171-.864,2.162,2.162,0,0,0-4.011,0,2.245,2.245,0,0,0-.171.864,2.208,2.208,0,0,0,1.738,2.172" transform="translate(-1037.184 -575.606)" fill="#ff6a00"/>
          <path id="Trazado_41582" data-name="Trazado 41582" d="M2018.985,698.394a2.165,2.165,0,0,0,.877,0,2.209,2.209,0,0,0,1.738-2.172,2.24,2.24,0,0,0-.372-1.24,2.155,2.155,0,0,0-3.61,0,2.237,2.237,0,0,0-.372,1.24,2.209,2.209,0,0,0,1.738,2.172" transform="translate(-1037.184 -561.767)" fill="#ff6a00"/>
          <path id="Trazado_41583" data-name="Trazado 41583" d="M1751.193,663.238a2.218,2.218,0,1,0-2.177-2.218,2.2,2.2,0,0,0,2.177,2.218" transform="translate(-931.724 -547.927)" fill="#ff6a00"/>
          <path id="Trazado_41584" data-name="Trazado 41584" d="M1784.721,663.238a2.218,2.218,0,1,0-2.177-2.218,2.2,2.2,0,0,0,2.177,2.218" transform="translate(-944.906 -547.927)" fill="#ff6a00"/>
          <path id="Trazado_41585" data-name="Trazado 41585" d="M1751.193,799.6a2.218,2.218,0,1,0,2.177,2.217,2.2,2.2,0,0,0-2.177-2.217" transform="translate(-931.724 -603.286)" fill="#ff6a00"/>
          <path id="Trazado_41586" data-name="Trazado 41586" d="M1751.193,768.839a2.218,2.218,0,1,0-2.177-2.217,2.2,2.2,0,0,0,2.177,2.217" transform="translate(-931.724 -589.446)" fill="#ff6a00"/>
          <path id="Trazado_41587" data-name="Trazado 41587" d="M1784.721,804.039a2.218,2.218,0,1,0-2.177-2.218,2.2,2.2,0,0,0,2.177,2.218" transform="translate(-944.906 -603.285)" fill="#ff6a00"/>
          <path id="Trazado_41588" data-name="Trazado 41588" d="M1784.721,768.839a2.218,2.218,0,1,0-2.177-2.217,2.2,2.2,0,0,0,2.177,2.217" transform="translate(-944.906 -589.446)" fill="#ff6a00"/>
          <path id="Trazado_41589" data-name="Trazado 41589" d="M1818.25,663.238a2.218,2.218,0,1,0-2.177-2.218,2.2,2.2,0,0,0,2.177,2.218" transform="translate(-958.089 -547.927)" fill="#ff6a00"/>
          <path id="Trazado_41590" data-name="Trazado 41590" d="M1851.779,663.238a2.218,2.218,0,1,0-2.177-2.218,2.2,2.2,0,0,0,2.177,2.218" transform="translate(-971.271 -547.927)" fill="#ff6a00"/>
          <path id="Trazado_41591" data-name="Trazado 41591" d="M1885.308,663.238a2.218,2.218,0,1,0-2.177-2.218,2.2,2.2,0,0,0,2.177,2.218" transform="translate(-984.454 -547.927)" fill="#ff6a00"/>
          <path id="Trazado_41592" data-name="Trazado 41592" d="M1918.837,663.238a2.218,2.218,0,1,0-2.177-2.218,2.2,2.2,0,0,0,2.177,2.218" transform="translate(-997.636 -547.927)" fill="#ff6a00"/>
          <path id="Trazado_41593" data-name="Trazado 41593" d="M1952.366,663.238a2.218,2.218,0,1,0-2.177-2.218,2.2,2.2,0,0,0,2.177,2.218" transform="translate(-1010.819 -547.927)" fill="#ff6a00"/>
          <path id="Trazado_41594" data-name="Trazado 41594" d="M1985.895,663.238a2.218,2.218,0,1,0-2.177-2.218,2.2,2.2,0,0,0,2.177,2.218" transform="translate(-1024.001 -547.927)" fill="#ff6a00"/>
          <path id="Trazado_41595" data-name="Trazado 41595" d="M2019.423,663.238a2.218,2.218,0,1,0-2.177-2.218,2.2,2.2,0,0,0,2.177,2.218" transform="translate(-1037.183 -547.927)" fill="#ff6a00"/>
          <path id="Trazado_41596" data-name="Trazado 41596" d="M1985.895,804.039a2.218,2.218,0,1,0-2.177-2.218,2.2,2.2,0,0,0,2.177,2.218" transform="translate(-1024.001 -603.285)" fill="#ff6a00"/>
          <path id="Trazado_41597" data-name="Trazado 41597" d="M1985.895,768.839a2.218,2.218,0,1,0-2.177-2.217,2.2,2.2,0,0,0,2.177,2.217" transform="translate(-1024.001 -589.446)" fill="#ff6a00"/>
          <path id="Trazado_41598" data-name="Trazado 41598" d="M2019.423,804.039a2.218,2.218,0,1,0-2.177-2.218,2.2,2.2,0,0,0,2.177,2.218" transform="translate(-1037.183 -603.285)" fill="#ff6a00"/>
          <path id="Trazado_41599" data-name="Trazado 41599" d="M2019.423,768.839a2.218,2.218,0,1,0-2.177-2.217,2.2,2.2,0,0,0,2.177,2.217" transform="translate(-1037.183 -589.446)" fill="#ff6a00"/>
          <path id="Trazado_41600" data-name="Trazado 41600" d="M581.973,1396.983c-17.723-28.92-45.532-53.466-78.962-59.2-20.775-3.566-42.861.152-62.572-7.318-40.018-15.169-54.379-69.536-94.588-84.2-18.595-6.78-39.812-3.683-58.106-11.237-31.2-12.883-42.591-50.731-47.545-84.118s-9.109-70.71-34.873-92.515c-54.971,22.817-52.517,102.434-88.591,149.775-22.067,28.958-57.491,43.99-85.48,67.273A254.518,254.518,0,0,0,0,1313.45v165.7H614.26c-7.937-28.538-16.855-56.985-32.287-82.166" transform="translate(-30.999 -682.583)" fill="#ff8300"/>
          <path id="Trazado_41601" data-name="Trazado 41601" d="M1818.578,989.754c-1.718,0-2.616-1.349-3.657-2.912-1.167-1.752-2.489-3.738-5.2-3.738s-4.033,1.986-5.2,3.738c-1.023,1.536-1.914,2.861-3.576,2.9-1.662-.044-2.553-1.368-3.576-2.9-1.167-1.752-2.489-3.738-5.2-3.738-.029,0-.052.007-.08.007s-.052-.007-.08-.007c-2.711,0-4.033,1.986-5.2,3.739-1.022,1.535-1.911,2.857-3.571,2.9-1.66-.046-2.55-1.369-3.572-2.9-1.167-1.752-2.49-3.738-5.2-3.738h-.009c-.029,0-.051.007-.079.007s-.052-.007-.079-.007a.847.847,0,0,0-.136.027c-2.5.144-3.782,2.027-4.9,3.711-1.022,1.535-1.912,2.858-3.571,2.9-1.66-.046-2.55-1.369-3.573-2.9-1.166-1.752-2.489-3.738-5.2-3.738-.028,0-.052.007-.08.007s-.051-.007-.079-.007h-.015c-2.7.008-4.02,1.988-5.185,3.738-1.023,1.536-1.913,2.86-3.577,2.9-1.663-.043-2.553-1.367-3.576-2.9-1.166-1.753-2.489-3.739-5.2-3.739-.028,0-.052.007-.079.007s-.051-.007-.079-.007a.855.855,0,0,0-.136.027c-2.5.144-3.783,2.027-4.9,3.711-1.04,1.563-1.939,2.912-3.656,2.912s-2.616-1.349-3.656-2.911c-1.167-1.753-2.489-3.739-5.2-3.739a.927.927,0,1,0,0,1.854c1.717,0,2.615,1.35,3.656,2.911,1.166,1.753,2.489,3.739,5.2,3.739s4.033-1.986,5.2-3.738c1.023-1.537,1.914-2.861,3.577-2.9,1.663.043,2.554,1.367,3.577,2.9,1.167,1.752,2.489,3.738,5.2,3.738.028,0,.052-.007.079-.007s.052.007.08.007c2.711,0,4.034-1.986,5.2-3.738,1.022-1.536,1.912-2.858,3.572-2.9,1.66.046,2.549,1.368,3.572,2.9,1.167,1.753,2.489,3.739,5.2,3.739h.009c.029,0,.052-.007.08-.007s.052.007.081.007a.877.877,0,0,0,.138-.028c2.5-.146,3.779-2.027,4.9-3.71,1.023-1.536,1.913-2.858,3.573-2.9,1.66.046,2.55,1.368,3.572,2.9,1.167,1.752,2.489,3.738,5.2,3.738.029,0,.052-.007.08-.007s.052.007.08.007h.01l.009,0c2.7-.01,4.017-1.989,5.181-3.736,1.023-1.537,1.914-2.861,3.577-2.9,1.663.044,2.553,1.367,3.576,2.9,1.166,1.753,2.489,3.739,5.2,3.739.028,0,.052-.007.08-.007s.052.007.081.007a.868.868,0,0,0,.138-.028c2.5-.146,3.779-2.027,4.9-3.71,1.041-1.563,1.939-2.912,3.657-2.912s2.616,1.35,3.657,2.912c1.167,1.752,2.489,3.738,5.2,3.738a.927.927,0,1,0,0-1.854" transform="translate(-920.537 -675.431)" fill="#8116ff"/>
          <path id="Trazado_41602" data-name="Trazado 41602" d="M1846.551,971.449c-1.718,0-2.616-1.35-3.657-2.912-1.167-1.752-2.489-3.738-5.2-3.738s-4.033,1.986-5.2,3.738c-1.023,1.536-1.914,2.86-3.576,2.9-1.663-.044-2.553-1.368-3.576-2.9-1.167-1.752-2.489-3.738-5.2-3.738-.029,0-.052.007-.08.007s-.052-.007-.08-.007c-2.71,0-4.033,1.986-5.2,3.738-1.023,1.535-1.912,2.858-3.572,2.9-1.66-.046-2.549-1.368-3.572-2.9-1.167-1.752-2.489-3.738-5.2-3.738h-.009c-.029,0-.052.007-.08.007s-.052-.007-.079-.007a.867.867,0,0,0-.136.027c-2.5.144-3.782,2.026-4.9,3.711-1.022,1.535-1.911,2.858-3.571,2.9-1.66-.046-2.55-1.368-3.572-2.9-1.166-1.752-2.489-3.738-5.2-3.738-.028,0-.052.007-.08.007s-.052-.007-.079-.007h-.015c-2.7.008-4.02,1.988-5.185,3.737-1.023,1.537-1.913,2.861-3.577,2.9-1.663-.043-2.553-1.367-3.577-2.9-1.166-1.752-2.489-3.738-5.2-3.738-.028,0-.052.007-.079.007s-.051-.007-.08-.007a.861.861,0,0,0-.136.027c-2.5.144-3.783,2.026-4.9,3.711-1.041,1.563-1.939,2.912-3.656,2.912s-2.616-1.35-3.656-2.912c-1.167-1.753-2.489-3.739-5.2-3.739a.927.927,0,1,0,0,1.854c1.717,0,2.615,1.35,3.656,2.912,1.166,1.753,2.489,3.739,5.2,3.739s4.033-1.986,5.2-3.738c1.024-1.537,1.914-2.861,3.577-2.9,1.663.043,2.554,1.367,3.577,2.9,1.167,1.752,2.489,3.738,5.2,3.738.029,0,.052-.007.079-.007s.052.007.079.007c2.711,0,4.034-1.986,5.2-3.738,1.022-1.535,1.912-2.858,3.572-2.9,1.66.046,2.55,1.369,3.572,2.9,1.167,1.753,2.489,3.739,5.2,3.739h.008c.029,0,.052-.007.08-.007s.052.007.081.007a.887.887,0,0,0,.139-.028c2.5-.146,3.779-2.027,4.9-3.71,1.023-1.535,1.912-2.858,3.573-2.9,1.66.046,2.55,1.369,3.572,2.9,1.166,1.752,2.489,3.738,5.2,3.738.028,0,.052-.007.08-.007s.051.007.08.007h.01l.009,0c2.7-.01,4.017-1.989,5.181-3.736,1.023-1.537,1.913-2.861,3.577-2.9,1.663.044,2.553,1.367,3.576,2.9,1.167,1.753,2.489,3.739,5.2,3.739.028,0,.052-.007.081-.007s.052.007.081.007a.874.874,0,0,0,.138-.028c2.5-.146,3.78-2.027,4.9-3.71,1.041-1.563,1.939-2.912,3.657-2.912s2.616,1.35,3.657,2.912c1.167,1.752,2.489,3.738,5.2,3.738a.927.927,0,1,0,0-1.854" transform="translate(-931.535 -668.234)" fill="#8116ff"/>
          <g id="Grupo_19085" data-name="Grupo 19085" transform="translate(663.697 618.713)">
            <g id="Grupo_19084" data-name="Grupo 19084" transform="translate(0)">
              <path id="Trazado_41603" data-name="Trazado 41603" d="M2075.647,1452.045c-1.52,0-2.315-1.194-3.236-2.577-1.032-1.551-2.2-3.308-4.6-3.308s-3.569,1.758-4.6,3.308c-.906,1.36-1.693,2.531-3.165,2.57-1.472-.039-2.26-1.21-3.165-2.57-1.032-1.551-2.2-3.308-4.6-3.308-.025,0-.046.006-.071.007s-.046-.007-.071-.007c-2.4,0-3.569,1.758-4.6,3.309-.9,1.359-1.692,2.529-3.161,2.569-1.469-.041-2.257-1.211-3.161-2.57-1.033-1.551-2.2-3.308-4.6-3.308h-.008c-.025,0-.046.006-.071.007s-.045-.007-.07-.007a.773.773,0,0,0-.12.024c-2.216.128-3.348,1.794-4.34,3.284-.9,1.359-1.692,2.529-3.161,2.57-1.469-.041-2.256-1.211-3.161-2.57-1.032-1.551-2.2-3.308-4.6-3.308-.025,0-.046.006-.071.007s-.046-.007-.071-.007h-.013c-2.389.007-3.558,1.76-4.588,3.307-.906,1.36-1.694,2.532-3.165,2.57-1.472-.038-2.26-1.21-3.165-2.57-1.033-1.551-2.2-3.309-4.6-3.309-.025,0-.046.006-.07.007s-.045-.007-.07-.007a.762.762,0,0,0-.12.024c-2.216.128-3.348,1.794-4.34,3.284-.921,1.383-1.716,2.577-3.236,2.577s-2.315-1.194-3.236-2.577c-1.032-1.551-2.2-3.309-4.6-3.309a.82.82,0,0,0,0,1.641c1.52,0,2.315,1.195,3.236,2.577,1.032,1.551,2.2,3.309,4.6,3.309s3.569-1.758,4.6-3.308c.906-1.36,1.693-2.532,3.165-2.57,1.472.038,2.26,1.21,3.165,2.57,1.032,1.551,2.2,3.308,4.6,3.308.025,0,.046-.006.071-.006s.045.006.07.006c2.4,0,3.569-1.758,4.6-3.308.905-1.359,1.692-2.529,3.162-2.57,1.469.04,2.256,1.211,3.161,2.57,1.032,1.551,2.2,3.309,4.6,3.309h.007c.025,0,.046-.006.072-.007s.046.007.071.007a.749.749,0,0,0,.122-.025c2.214-.13,3.345-1.794,4.337-3.284.9-1.359,1.692-2.529,3.162-2.57,1.469.04,2.257,1.211,3.161,2.57,1.033,1.551,2.2,3.308,4.6,3.308.025,0,.046-.006.07-.006s.045.006.071.006h.009l.008,0c2.386-.009,3.555-1.76,4.585-3.307.905-1.36,1.693-2.532,3.165-2.57,1.471.038,2.259,1.21,3.164,2.57,1.032,1.551,2.2,3.309,4.6,3.309.026,0,.046-.006.072-.007s.046.007.071.007a.768.768,0,0,0,.122-.025c2.213-.13,3.344-1.794,4.336-3.284.921-1.383,1.716-2.577,3.236-2.577s2.316,1.195,3.236,2.577c1.033,1.551,2.2,3.308,4.6,3.308a.821.821,0,1,0,0-1.641" transform="translate(-1988.907 -1436.328)" fill="#f40000"/>
              <path id="Trazado_41604" data-name="Trazado 41604" d="M2150.494,1403.064c-1.52,0-2.315-1.194-3.236-2.577-1.032-1.551-2.2-3.309-4.6-3.309s-3.57,1.758-4.6,3.309c-.906,1.36-1.693,2.531-3.165,2.57-1.471-.039-2.259-1.21-3.165-2.57-1.033-1.551-2.2-3.309-4.6-3.309-.025,0-.046.006-.071.007s-.046-.007-.071-.007c-2.4,0-3.569,1.758-4.6,3.309-.9,1.359-1.692,2.529-3.161,2.57-1.469-.041-2.256-1.211-3.161-2.57-1.032-1.551-2.2-3.309-4.6-3.309h-.008c-.025,0-.046.006-.07.007s-.045-.007-.07-.007a.777.777,0,0,0-.121.025c-2.216.128-3.347,1.794-4.34,3.284-.9,1.359-1.692,2.529-3.161,2.57-1.469-.041-2.257-1.211-3.162-2.57-1.032-1.551-2.2-3.309-4.6-3.309-.025,0-.045.006-.071.007s-.046-.007-.071-.007h-.007l-.006,0c-2.389.007-3.558,1.759-4.588,3.307-.905,1.36-1.693,2.532-3.165,2.57-1.471-.038-2.26-1.21-3.165-2.57-1.033-1.551-2.2-3.309-4.6-3.309-.025,0-.046.006-.071.007s-.045-.007-.07-.007a.754.754,0,0,0-.121.025c-2.216.128-3.348,1.794-4.34,3.284-.921,1.383-1.716,2.577-3.236,2.577s-2.315-1.194-3.236-2.577c-1.032-1.551-2.2-3.309-4.6-3.309a.821.821,0,0,0,0,1.641c1.52,0,2.315,1.194,3.236,2.577,1.032,1.551,2.2,3.309,4.6,3.309s3.569-1.758,4.6-3.308c.906-1.36,1.693-2.532,3.165-2.57,1.472.038,2.26,1.21,3.165,2.57,1.032,1.55,2.2,3.308,4.6,3.308.025,0,.046-.006.071-.007s.045.007.071.007c2.4,0,3.569-1.758,4.6-3.308.905-1.359,1.692-2.53,3.162-2.57,1.469.04,2.256,1.211,3.161,2.569,1.032,1.551,2.2,3.309,4.6,3.309h.007c.025,0,.046-.006.071-.007s.046.007.071.007a.759.759,0,0,0,.122-.025c2.214-.129,3.345-1.794,4.337-3.284.905-1.359,1.693-2.53,3.162-2.57,1.469.04,2.257,1.211,3.161,2.57,1.032,1.55,2.2,3.308,4.6,3.308.025,0,.046-.006.071-.007s.045.007.07.007h.009l.007,0c2.387-.009,3.555-1.76,4.586-3.307.905-1.36,1.693-2.532,3.165-2.57,1.471.038,2.259,1.21,3.164,2.57,1.033,1.551,2.2,3.309,4.6,3.309.025,0,.046-.006.071-.007s.046.007.072.007a.773.773,0,0,0,.122-.025c2.213-.13,3.344-1.794,4.337-3.284.92-1.383,1.716-2.577,3.236-2.577s2.315,1.194,3.236,2.577c1.032,1.55,2.2,3.308,4.6,3.308a.82.82,0,1,0,0-1.641" transform="translate(-2048.732 -1397.178)" fill="#f40000"/>
            </g>
          </g>
          <path id="Trazado_41605" data-name="Trazado 41605" d="M1863.05,1190.744l-13.241-13.241,13.241-13.242,13.242,13.242Zm-50.315-13.241-13.241-13.242-13.241,13.242,13.241,13.241Zm-63.557,0-13.242-13.242L1722.7,1177.5l13.241,13.241Z" transform="translate(-941.017 -732.502)" fill="#f66f16"/>
          <path id="Trazado_41606" data-name="Trazado 41606" d="M149.509,46.368c19.223-.163,39.983,2.461,54.068,15.542,7.671-16.087,25.972-40.14,25.972-40.14s-17.892-9.781-24.793-12.1C163.69-4.157,110.094-2.6,69.022,10.79,53.695,15.786,0,45.3,0,45.3S7.843,65.171,15.155,84.394c42.288-22.308,85.893-37.616,134.354-38.026" transform="translate(420.963 501.017)" fill="#f40000"/>
          <path id="Trazado_41607" data-name="Trazado 41607" d="M2287.507,1187.61c-24.938.931-48.164,50.743-34.112,70.8,6.914,9.87,20.091,12.611,31.979,14.576a30.4,30.4,0,0,0,9.508.511v-85.327a30.531,30.531,0,0,0-7.375-.562" transform="translate(-1128.358 -621.319)" fill="#05a451"/>
          <path id="Trazado_41608" data-name="Trazado 41608" d="M562.487,740.419a11.262,11.262,0,1,1-22.518,0,17.754,17.754,0,1,0-35.5,0,11.262,11.262,0,1,1-22.518,0,17.754,17.754,0,1,0-35.5,0,11.263,11.263,0,1,1-22.518,0,17.754,17.754,0,1,0-35.5,0,11.262,11.262,0,1,1-22.518,0,17.754,17.754,0,1,0-35.5,0h6.49a11.262,11.262,0,1,1,22.517,0,17.755,17.755,0,1,0,35.5,0,11.262,11.262,0,1,1,22.517,0,17.754,17.754,0,1,0,35.5,0,11.262,11.262,0,1,1,22.518,0,17.754,17.754,0,1,0,35.5,0,11.262,11.262,0,1,1,22.518,0,17.754,17.754,0,1,0,35.5,0Z" transform="translate(-373.982 -572.86)" fill="#f40000"/>
          <path id="Trazado_41609" data-name="Trazado 41609" d="M989.183,1284.084a4.752,4.752,0,1,1-9.5,0,7.491,7.491,0,1,0-14.977,0,4.752,4.752,0,1,1-9.5,0,7.491,7.491,0,1,0-14.977,0,4.752,4.752,0,1,1-9.5,0,7.491,7.491,0,1,0-14.977,0,4.752,4.752,0,1,1-9.5,0,7.491,7.491,0,1,0-14.977,0h2.738a4.752,4.752,0,1,1,9.5,0,7.491,7.491,0,1,0,14.977,0,4.752,4.752,0,1,1,9.5,0,7.491,7.491,0,1,0,14.977,0,4.752,4.752,0,1,1,9.5,0,7.491,7.491,0,1,0,14.977,0,4.752,4.752,0,1,1,9.5,0,7.491,7.491,0,1,0,14.977,0Z" transform="translate(-594.488 -790.748)" fill="#ffdd04"/>
          <path id="Trazado_41610" data-name="Trazado 41610" d="M589.356,1278.807a38.851,38.851,0,1,1-38.851-38.851,38.851,38.851,0,0,1,38.851,38.851" transform="translate(-203.427 -608.667)" fill="#fd0"/>
          <path id="Trazado_41611" data-name="Trazado 41611" d="M659.309,1497.641h18.378l-9.189-16.322Z" transform="translate(-401.101 -842.979)" fill="#fd0"/>
          <path id="Trazado_41612" data-name="Trazado 41612" d="M659.309,1497.641h18.378l-9.189-16.322Z" transform="translate(-401.101 -862.088)" fill="#fd0"/>
          <path id="Trazado_41613" data-name="Trazado 41613" d="M659.309,1351.905h31.383L675,1324.034Z" transform="translate(-499.553 -806.158)" fill="#ffdd04"/>
          <path id="Trazado_41614" data-name="Trazado 41614" d="M678.734,1166.749l-19.425,34.5h38.851Z" transform="translate(-503.287 -747.635)" fill="#ffdd04"/>
          <path id="Trazado_41615" data-name="Trazado 41615" d="M926.98,236.118A150.965,150.965,0,1,1,776.015,85.154,150.965,150.965,0,0,1,926.98,236.118" transform="translate(-489.817 -322.387)" fill="#f66f16"/>
          <path id="Trazado_41616" data-name="Trazado 41616" d="M2138.144,529.393c10.1,37.218,40.643,67.766,77.347,79.6,18.681,6.021,40.273,7.024,57.306-2.07V437.967H2154.2c-18.355,25.55-24.146,61.606-16.053,91.426" transform="translate(-1083.312 -461.101)" fill="#ffdd04"/>
        </g>
      </g>
    </g>
  </g>
</svg>
