<svg id="Home615x450px" xmlns="http://www.w3.org/2000/svg" xmlns:xlink="http://www.w3.org/1999/xlink" width="615" height="450" viewBox="0 0 615 450">
  <defs>
    <filter id="Trazado_42905" x="-15" y="-15" width="645" height="480" filterUnits="userSpaceOnUse">
      <feOffset input="SourceAlpha"/>
      <feGaussianBlur stdDeviation="5" result="blur"/>
      <feFlood flood-color="#787cb1" flood-opacity="0.102"/>
      <feComposite operator="in" in2="blur"/>
      <feComposite in="SourceGraphic"/>
    </filter>
    <clipPath id="clip-path">
      <g transform="matrix(1, 0, 0, 1, 0, 0)" filter="url(#Trazado_42905)">
        <path id="Trazado_42905-2" data-name="Trazado 42905" d="M20,0H595a20,20,0,0,1,20,20V430a20,20,0,0,1-20,20H20A20,20,0,0,1,0,430V20A20,20,0,0,1,20,0Z" fill="#ff7702"/>
      </g>
    </clipPath>
    <filter id="Trazado_57312" x="50" y="387.56" width="574" height="118.65" filterUnits="userSpaceOnUse">
      <feOffset dy="3" input="SourceAlpha"/>
      <feGaussianBlur stdDeviation="3" result="blur-2"/>
      <feFlood flood-opacity="0.161"/>
      <feComposite operator="in" in2="blur-2"/>
      <feComposite in="SourceGraphic"/>
    </filter>
  </defs>
  <g id="Enmascarar_grupo_19147" data-name="Enmascarar grupo 19147" clip-path="url(#clip-path)">
    <g id="Grupo_20591" data-name="Grupo 20591">
      <path id="Trazado_56898" data-name="Trazado 56898" d="M109.992,0H0V109.991" transform="translate(219.999 554.759) rotate(180)" fill="#f40000"/>
      <rect id="Rectángulo_25700" data-name="Rectángulo 25700" width="613.901" height="450" transform="translate(1.099)" fill="#ffb600"/>
      <path id="Trazado_57311" data-name="Trazado 57311" d="M0,0H498.622V384.8H0Z" transform="translate(1.099 105.695)" fill="#fff"/>
      <g id="Grupo_20578" data-name="Grupo 20578" transform="translate(1.099 -17.238)">
        <g id="Grupo_20553" data-name="Grupo 20553" transform="translate(0 507.733) rotate(-90)">
          <rect id="Rectángulo_25578" data-name="Rectángulo 25578" width="57.365" height="57.365" transform="translate(127.946 57.897) rotate(-90)" fill="#ffb600"/>
          <rect id="Rectángulo_25579" data-name="Rectángulo 25579" width="40.404" height="12.272" transform="translate(127.946 49.415) rotate(-90)" fill="#b50000"/>
          <path id="Trazado_56892" data-name="Trazado 56892" d="M15.844,0H0L4.168,32.124h7.509Z" transform="translate(140.218 37.136) rotate(-90)" fill="#f40000"/>
          <path id="Trazado_56893" data-name="Trazado 56893" d="M12.75,33.189H4.306L0,0H17.055ZM5.242,32.124h6.573L15.844,1.065H1.211Z" transform="translate(139.686 37.742) rotate(-90)" fill="#222"/>
          <rect id="Rectángulo_25580" data-name="Rectángulo 25580" width="3.442" height="12.272" transform="translate(127.946 35.64) rotate(-90)" fill="#f40000"/>
          <rect id="Rectángulo_25581" data-name="Rectángulo 25581" width="3.442" height="12.272" transform="translate(127.946 26.232) rotate(-90)" fill="#f40000"/>
          <rect id="Rectángulo_25582" data-name="Rectángulo 25582" width="3.442" height="12.272" transform="translate(127.946 16.823) rotate(-90)" fill="#f40000"/>
          <rect id="Rectángulo_25583" data-name="Rectángulo 25583" width="57.365" height="57.365" transform="translate(185.311 57.897) rotate(-90)" fill="#ff8749"/>
          <rect id="Rectángulo_25584" data-name="Rectángulo 25584" width="57.365" height="57.365" transform="translate(242.675 57.897) rotate(-90)" fill="#b50000"/>
          <path id="Trazado_56894" data-name="Trazado 56894" d="M0,123.619S23.636,95.137,15.722,47.38C11.9,21.751,7.215,14.053,7.861,0h7.214S9.422,13.352,17.068,48.133c4.514,20.537,9.853,50.4-1.346,75.486Z" transform="translate(176.422 40.82) rotate(-90)" fill="#f40000"/>
          <path id="Trazado_56895" data-name="Trazado 56895" d="M0,0V127.945H57.365V0Z" transform="translate(0 57.897) rotate(-90)" fill="#f40000"/>
          <path id="Trazado_56896" data-name="Trazado 56896" d="M58.43,128.479H0V0H58.43ZM1.065,127.3h56.3V1.182H1.065Z" transform="translate(0 58.43) rotate(-90)" fill="#222"/>
        </g>
        <g id="Grupo_20552" data-name="Grupo 20552" transform="translate(58.43 0) rotate(90)">
          <rect id="Rectángulo_25590" data-name="Rectángulo 25590" width="29.145" height="29.145" transform="translate(180.696 29.686) rotate(-90)" fill="#f40000"/>
          <path id="Trazado_56910" data-name="Trazado 56910" d="M29.145,0V29.144H0Z" transform="translate(151.552 29.686) rotate(-90)" fill="#f40000"/>
          <path id="Trazado_56911" data-name="Trazado 56911" d="M29.145,29.145V0H0Z" transform="translate(209.842 29.686) rotate(-90)" fill="#f40000"/>
          <rect id="Rectángulo_25591" data-name="Rectángulo 25591" width="29.145" height="29.145" transform="translate(180.696 58.43) rotate(-90)" fill="#f40000"/>
          <path id="Trazado_56912" data-name="Trazado 56912" d="M0,29.145V0H29.145Z" transform="translate(209.841 58.43) rotate(-90)" fill="#f40000"/>
          <path id="Trazado_56913" data-name="Trazado 56913" d="M0,0V29.144H29.145Z" transform="translate(151.552 58.43) rotate(-90)" fill="#f40000"/>
          <path id="Trazado_56914" data-name="Trazado 56914" d="M0,0V111.37a29.215,29.215,0,1,0,58.43,0V0Z" transform="translate(0 58.43) rotate(-90)" fill="#ffb600"/>
          <path id="Trazado_56915" data-name="Trazado 56915" d="M18.893,50.536a5.223,5.223,0,0,1,.9-2.8c4.506-6.582,11.276-12.329,11.749-22.3C31.828,14.84,30.115,3.216,19.874.452.752-3.674-3.867,21.427,3.009,35.375c.068.137.142.272.221.4,12.3,20.453,10.16-.831,6.856,73.464-.054,1.421-.088,4.064-.107,6.979-.019,2.247-.029,19.866-.032,29.018a5.3,5.3,0,1,0,10.608-.131c-.592-23.84-1.984-83.872-1.662-94.572" transform="translate(166.693 14.06) rotate(90)" fill="#b50000"/>
          <path id="Trazado_56916" data-name="Trazado 56916" d="M15.655,151.364a5.712,5.712,0,0,1-5.714-5.715c0-6.192.012-26.586.033-29.02.015-2.3.046-5.376.107-6.992.656-14.742,1.274-25.878,1.726-34.009,1.41-25.39,1.41-25.39-2.952-31.1A81.391,81.391,0,0,1,3.284,36.4c-.089-.147-.168-.293-.237-.433C-1.632,26.478-.832,12.855,4.829,5.6,7.416,2.286,12.21-1.3,20.364.464l.021,0c8.455,2.282,12.37,10.589,11.969,25.394-.37,7.788-4.467,12.988-8.429,18.016-1.209,1.534-2.35,2.982-3.392,4.5a4.8,4.8,0,0,0-.827,2.577c-.365,12.114,1.453,86.148,1.662,94.549a5.712,5.712,0,0,1-5.712,5.855M16.269.824A13.176,13.176,0,0,0,5.473,6.1C-.013,13.135-.773,26.37,3.78,35.605c.059.12.128.245.2.373a80.527,80.527,0,0,0,5.52,8.051c4.546,5.953,4.546,5.953,3.119,31.645-.451,8.129-1.07,19.262-1.725,34-.048,1.269-.085,3.678-.107,6.964-.02,2.433-.03,22.823-.033,29.015a4.9,4.9,0,1,0,9.79-.12c-.208-8.4-2.027-82.459-1.661-94.594a5.619,5.619,0,0,1,.97-3.015c1.057-1.544,2.261-3.071,3.425-4.548,3.882-4.927,7.9-10.022,8.254-17.54.389-14.358-3.325-22.4-11.355-24.571A18.594,18.594,0,0,0,16.269.824" transform="translate(167.104 13.656) rotate(90)" fill="#222"/>
        </g>
      </g>
      <text id="Gana_premios_increíbles" data-name="Gana premios increíbles" transform="translate(78 61)" fill="#333" font-size="37" font-family="TCCC-UnityHeadline-Black, TCCC-UnityHeadline" font-weight="800"><tspan x="0" y="0">Gana premios increíbles</tspan></text>
      <g id="Rectángulo_25701" data-name="Rectángulo 25701" transform="translate(59 93.209)" fill="#fff" stroke="#707070" stroke-width="1">
        <path d="M12,0H573.03a14,14,0,0,1,14,14V435.49a14,14,0,0,1-14,14H14a14,14,0,0,1-14-14V12A12,12,0,0,1,12,0Z" stroke="none"/>
        <path d="M12,.5H573.03A13.5,13.5,0,0,1,586.53,14V435.49a13.5,13.5,0,0,1-13.5,13.5H14A13.5,13.5,0,0,1,.5,435.49V12A11.5,11.5,0,0,1,12,.5Z" fill="none"/>
      </g>
      <g id="Grupo_20574" data-name="Grupo 20574" transform="translate(103.692 213.929)">
        <path id="Trazado_56879" data-name="Trazado 56879" d="M0,0V14.838a14.838,14.838,0,0,0,29.677,0V0Z" transform="translate(0 29.677) rotate(-90)" fill="#f40000"/>
        <path id="Trazado_56880" data-name="Trazado 56880" d="M15.481,7.74A7.741,7.741,0,1,0,7.74,15.481,7.741,7.741,0,0,0,15.481,7.74" transform="translate(7.098 22.579) rotate(-90)" fill="#ffb600"/>
      </g>
      <g id="Grupo_20575" data-name="Grupo 20575" transform="translate(103.692 288.3)">
        <path id="Trazado_56879-2" data-name="Trazado 56879" d="M0,0V14.838a14.838,14.838,0,0,0,29.677,0V0Z" transform="translate(0 29.677) rotate(-90)" fill="#f40000"/>
        <path id="Trazado_56880-2" data-name="Trazado 56880" d="M15.481,7.74A7.741,7.741,0,1,0,7.74,15.481,7.741,7.741,0,0,0,15.481,7.74" transform="translate(7.098 22.579) rotate(-90)" fill="#ffb600"/>
      </g>
      <g id="Grupo_20576" data-name="Grupo 20576" transform="translate(103.692 363.884)">
        <path id="Trazado_56879-3" data-name="Trazado 56879" d="M0,0V14.838a14.838,14.838,0,0,0,29.677,0V0Z" transform="translate(0 29.677) rotate(-90)" fill="#f40000"/>
        <path id="Trazado_56880-3" data-name="Trazado 56880" d="M15.481,7.74A7.741,7.741,0,1,0,7.74,15.481,7.741,7.741,0,0,0,15.481,7.74" transform="translate(7.098 22.579) rotate(-90)" fill="#ffb600"/>
      </g>
      <text id="metas_mensuales" data-name="metas mensuales" transform="translate(142.866 249.111)" fill="#333" font-size="25" font-family="TCCC-UnityHeadline-Bold, TCCC-UnityHeadline" font-weight="700" letter-spacing="0.01em"><tspan x="0" y="0">metas mensuales</tspan></text>
      <text id="enfriador" transform="translate(259.364 310.168)" fill="#333" font-size="27" font-family="TCCC-UnityHeadline-Bold, TCCC-UnityHeadline" font-weight="700" letter-spacing="0.01em"><tspan x="0" y="0">enfriador</tspan></text>
      <text id="Cumple_con_tus" data-name="Cumple con tus" transform="translate(143.173 220.993)" fill="#333" font-size="19" font-family="TCCC-UnityHeadline-Regular, TCCC-UnityHeadline"><tspan x="0" y="0">Cumple con tus</tspan></text>
      <text id="Respeta_al" data-name="Respeta al" transform="translate(142.866 310.038)" fill="#333" font-size="19" font-family="TCCC-UnityHeadline-Regular, TCCC-UnityHeadline"><tspan x="0" y="0">Respeta al</tspan></text>
      <text id="Acumula_puntos" data-name="Acumula puntos" transform="translate(291 166)" fill="#ffb600" font-size="41" font-family="TCCC-UnityHeadline-Black, TCCC-UnityHeadline" font-weight="800"><tspan x="-186" y="0">Acumula puntos</tspan></text>
      <g transform="matrix(1, 0, 0, 1, 0, 0)" filter="url(#Trazado_57312)">
        <path id="Trazado_57312-2" data-name="Trazado 57312" d="M0,556S106.308,427.9,70.711,213.1C53.517,97.833,32.449,63.205,35.356,0H67.8s-25.427,60.057,8.96,216.492C97.069,308.864,121.08,443.155,70.711,556Z" transform="translate(615 393.56) rotate(90)" fill="#f40000"/>
      </g>
      <g id="Grupo_20584" data-name="Grupo 20584" transform="translate(3259.438 3665.015)">
        <path id="Trazado_57314" data-name="Trazado 57314" d="M1507.252,315.459a19,19,0,1,0,23.677,12.693,19,19,0,0,0-23.677-12.693" transform="translate(-4255.456 -3837.658)" fill="#f40000"/>
        <path id="Trazado_57315" data-name="Trazado 57315" d="M1587.909,431.384a11.555,11.555,0,1,0,14.4,7.721,11.556,11.556,0,0,0-14.4-7.721" transform="translate(-4301.089 -3899.375)" fill="#f40000"/>
        <path id="Trazado_57316" data-name="Trazado 57316" d="M1612.2,537.155a6.434,6.434,0,1,0,8.019,4.3,6.434,6.434,0,0,0-8.019-4.3" transform="translate(-4315.919 -3955.649)" fill="#f40000"/>
        <path id="Trazado_57318" data-name="Trazado 57318" d="M1613.9,877.562l-.028-.081a64.915,64.915,0,0,1-3.937-24v-.05c.012-12.753,3.606-35.811,4.786-43.388.23-1.473.333-2.136.366-2.415.054-.446.119-.891.18-1.329.3-2.082.645-4.538-.341-6.168.364-1.684.6-4.791.5-10.8a188.135,188.135,0,0,0-1.312-19.43c-.621-4.809-1.293-7.5-1.983-9.06.774-1.62.536-4.073.119-7.22l-.047-.358c-.448-3.455-2.381-9.413-4.827-16.958-1.429-4.406-3.048-9.4-4.552-14.481l-1.429-3.385-1.44.068c-5.481.258-28.733.079-37.486.01l-3.208-.025-.639,2.147c-.122.406-.241.8-.351,1.184-1.495,5.041-3.1,10-4.524,14.377-2.463,7.6-4.409,13.595-4.855,17.062l-.051.391c-.413,3.132-.646,5.573.123,7.187-.693,1.564-1.369,4.276-1.992,9.133a188.365,188.365,0,0,0-1.3,19.395c-.093,5.987.141,9.084.5,10.765-.983,1.628-.636,4.082-.342,6.163.062.439.125.885.179,1.331.034.277.134.917.355,2.337,1.184,7.584,4.784,30.665,4.8,43.47v.05a65,65,0,0,1-3.921,24l-.027.08a43.937,43.937,0,0,0-1.806,13.224c.15,6.43,2.069,10.87,5.548,12.843,4.3,2.436,17.3,4.344,29.6,4.344,13.737,0,25.836-2.209,29.6-4.344,8.479-4.807,5.108-21.783,3.742-26.066" transform="translate(-4282.884 -4052.042)" fill="#f40000"/>
        <path id="Trazado_57317" data-name="Trazado 57317" d="M1577.5,842.849c-10.894,0-25.1-1.668-30.019-4.461-10.332-5.861-4.2-26.862-4.136-27.071.131-.418.282-.871.446-1.356a63.653,63.653,0,0,0,3.462-22.5c-.015-12.7-3.6-35.694-4.772-43.252l-.013-.083c-.206-1.256-.321-2.087-.36-2.359-.054-.445-.113-.867-.175-1.285a10.82,10.82,0,0,1,.3-6.436,55.114,55.114,0,0,1-.48-10.673,189.752,189.752,0,0,1,1.3-19.431A36.77,36.77,0,0,1,1545,694.82a15.139,15.139,0,0,1-.067-7.323l.054-.4a126.465,126.465,0,0,1,4.888-17.159c1.333-4.108,3-9.252,4.516-14.352l.459-1.548a149.322,149.322,0,0,0,4.931-19.8,120.564,120.564,0,0,0,.646-15.635v-.428a6.375,6.375,0,0,1-1.589-4.9,20.166,20.166,0,0,1,1.97-6.247l.015-.036c.157-.37.359-.845.485-1.173a6.242,6.242,0,0,1-1.177-6.738,7.11,7.11,0,0,1,5.638-4.122,85.947,85.947,0,0,1,23.439,0,7.106,7.106,0,0,1,5.617,4.1,6.266,6.266,0,0,1-1.164,6.75c.064.161.144.353.225.551.093.225.189.458.272.667a20.168,20.168,0,0,1,1.964,6.2,6.377,6.377,0,0,1-1.585,4.933v.413a121.193,121.193,0,0,0,.646,15.644,149.85,149.85,0,0,0,4.931,19.806l.456,1.54c1.446,4.868,3.007,9.685,4.384,13.936l.14.433a126.321,126.321,0,0,1,4.88,17.143l.01.062.042.331a15.231,15.231,0,0,1-.068,7.322,36.656,36.656,0,0,1,1.952,9.119,189.322,189.322,0,0,1,1.3,19.44,54.852,54.852,0,0,1-.481,10.658,10.751,10.751,0,0,1,.3,6.438c-.06.417-.119.843-.172,1.269-.032.261-.147,1.009-.362,2.385-1.181,7.568-4.773,30.589-4.785,43.306a63.7,63.7,0,0,0,3.457,22.513l.053.16c.141.426.274.825.4,1.2,1.412,4.426,4.845,21.983-4.134,27.075-4.884,2.809-19.089,4.49-30,4.49M1546.554,687.4l-.062.434a13.548,13.548,0,0,0,.11,6.81l.067.243-.085.238a35.234,35.234,0,0,0-1.952,8.979,188.445,188.445,0,0,0-1.292,19.324,53.657,53.657,0,0,0,.493,10.591l.031.206-.075.194a9.244,9.244,0,0,0-.312,5.7l.018.087c.065.445.128.895.184,1.346.036.263.15,1.079.354,2.322l.014.089c1.182,7.587,4.776,30.676,4.79,43.474a65.193,65.193,0,0,1-3.547,23.035c-.159.469-.307.912-.436,1.322-1.324,4.167-4.627,20.651,3.406,25.208,4.69,2.662,18.547,4.253,29.234,4.253s24.551-1.6,29.209-4.279c4.218-2.392,5.151-8.166,5.192-12.588a45.321,45.321,0,0,0-1.783-12.62q-.179-.552-.391-1.184l-.051-.152a65.229,65.229,0,0,1-3.54-23.044c.012-12.819,3.618-35.932,4.8-43.527.169-1.082.324-2.072.356-2.336.057-.456.12-.905.182-1.345l.019-.092a9.178,9.178,0,0,0-.311-5.7l-.076-.2.031-.207a53.379,53.379,0,0,0,.494-10.576,188.15,188.15,0,0,0-1.3-19.335,35.145,35.145,0,0,0-1.95-8.975l-.086-.237.067-.244a13.626,13.626,0,0,0,.109-6.815l-.016-.086-.043-.342a124.72,124.72,0,0,0-4.822-16.922l-.15-.46c-1.38-4.259-2.944-9.087-4.4-13.974l-.45-1.522a151.446,151.446,0,0,1-4.983-20.025l-.008-.055a122.731,122.731,0,0,1-.658-15.859v-1.037l.23-.233a4.776,4.776,0,0,0,1.367-3.863,18.566,18.566,0,0,0-1.82-5.712l-.03-.066c-.083-.211-.183-.451-.278-.682-.145-.352-.282-.686-.353-.883l-.054-.15.007-.158a1.233,1.233,0,0,1,.449-1.017,4.671,4.671,0,0,0,.906-5.055,5.522,5.522,0,0,0-4.368-3.168,84.434,84.434,0,0,0-23.03,0,5.528,5.528,0,0,0-4.391,3.192,4.648,4.648,0,0,0,.914,5.034,1.228,1.228,0,0,1,.45,1.064v.128l-.04.121c-.114.347-.383.98-.62,1.539l-.049.11a18.546,18.546,0,0,0-1.822,5.746,4.78,4.78,0,0,0,1.371,3.832l.231.233v1.05a122.143,122.143,0,0,1-.658,15.851l-.008.054a150.74,150.74,0,0,1-4.983,20.021l-.452,1.53c-1.519,5.119-3.192,10.274-4.537,14.417a124.866,124.866,0,0,0-4.828,16.939" transform="translate(-4280.798 -3986.061)" fill="#222"/>
      </g>
      <g id="Grupo_20588" data-name="Grupo 20588" transform="translate(106.843 186.85)" opacity="0.204">
        <g id="Grupo_20586" data-name="Grupo 20586" transform="translate(283.093 137.674)">
          <path id="Trazado_56009" data-name="Trazado 56009" d="M1095.729,3430.481h0a69.391,69.391,0,0,0-7.139-15.916,13.779,13.779,0,0,1-11.969,7.654,51.852,51.852,0,0,1,.589,7.814v2.978a9.423,9.423,0,0,0,16.987,5.586,9.1,9.1,0,0,0,1.532-8.116" transform="translate(-970.953 -3314.572)" fill="#e5e5e5"/>
          <path id="Trazado_56010" data-name="Trazado 56010" d="M1085.632,3441.373a10.2,10.2,0,0,1-10.2-10.161v-2.98a51.238,51.238,0,0,0-.58-7.7l-.131-.86.87-.024a12.979,12.979,0,0,0,11.3-7.227l.619-1.251.727,1.192a70.189,70.189,0,0,1,7.218,16.093l0,.008a9.9,9.9,0,0,1-1.662,8.8,10.168,10.168,0,0,1-8.164,4.107m-9.14-20.235a52.838,52.838,0,0,1,.477,7.094v2.978a8.654,8.654,0,0,0,15.6,5.128,8.361,8.361,0,0,0,1.412-7.438,68.6,68.6,0,0,0-6.378-14.595,14.505,14.505,0,0,1-11.113,6.833" transform="translate(-969.944 -3312.771)" fill="#e5e5e5"/>
          <path id="Trazado_56011" data-name="Trazado 56011" d="M1065.168,3387.151h0a52.588,52.588,0,0,1,4.784,13.147,10.222,10.222,0,0,0,2.161-20.265,18.434,18.434,0,0,1-6.945,7.118" transform="translate(-964.872 -3296.237)" fill="#e5e5e5"/>
          <path id="Trazado_56012" data-name="Trazado 56012" d="M1069.074,3400.1c-.1,0-.2,0-.3,0l-.6-.017-.128-.586a51.829,51.829,0,0,0-4.714-12.955l-.342-.654.638-.369a17.674,17.674,0,0,0,6.655-6.821l.267-.49.548.1a10.99,10.99,0,0,1-2.022,21.793m-4.051-13.633a53.351,53.351,0,0,1,4.385,12.09,9.454,9.454,0,0,0,1.938-18.624,19.2,19.2,0,0,1-6.323,6.534" transform="translate(-963.714 -3295.267)" fill="#e5e5e5"/>
          <path id="Trazado_56015" data-name="Trazado 56015" d="M893.292,3326.7a52.8,52.8,0,0,1,30.9-9.916h2.623a53.127,53.127,0,0,1,45.335,25.456c2.7-1.606,8.223-5.887,6.229-13.134a10.153,10.153,0,0,0-9.775-7.72,5.763,5.763,0,0,1-5.352-4.549c-1.124-5.353-4.744-7.848-10.7-7.366v-.006a5.863,5.863,0,0,1-5.352-2.441c-2.5-3.567-8.243-8.6-18.573-3.567a6.078,6.078,0,0,1-4.014.5,23.006,23.006,0,0,0-10.585-.227c-4.87,1.231-8.029,4.656-9.346,10.17a5.782,5.782,0,0,1-3.834,4.175c-3.693,1.2-7.687,3.566-7.547,8.637Z" transform="translate(-873.616 -3254.456)" fill="#e5e5e5"/>
          <path id="Trazado_56016" data-name="Trazado 56016" d="M971.016,3342.424l-.4-.649a52.359,52.359,0,0,0-44.679-25.088h-2.72a51.718,51.718,0,0,0-30.351,9.771l-.436-.607-.78.011c-.123-4.453,2.594-7.612,8.078-9.39a4.981,4.981,0,0,0,3.322-3.62c1.39-5.817,4.724-9.428,9.906-10.74a23.934,23.934,0,0,1,10.966.229,5.308,5.308,0,0,0,3.481-.439c4.745-2.311,9.057-2.808,12.822-1.477a14.083,14.083,0,0,1,6.722,5.291,5.1,5.1,0,0,0,4.647,2.118l.844-.084v.04c5.851-.205,9.539,2.549,10.689,8.023a4.99,4.99,0,0,0,4.637,3.94,10.9,10.9,0,0,1,10.484,8.305c2.146,7.8-3.887,12.373-6.581,13.978Zm-47.8-27.275h2.722a53.9,53.9,0,0,1,45.583,25.167c6.262-4.062,5.989-9.148,5.24-11.871a9.377,9.377,0,0,0-9.039-7.156,6.538,6.538,0,0,1-6.1-5.158c-1.051-5-4.287-7.213-9.891-6.761l-.831.067v-.045a6.652,6.652,0,0,1-5.21-2.791c-2.321-3.316-7.69-8.15-17.61-3.321a6.856,6.856,0,0,1-4.518.555,22.382,22.382,0,0,0-10.256-.225c-4.557,1.151-7.513,4.383-8.76,9.6a6.507,6.507,0,0,1-4.342,4.727c-4.14,1.342-6.417,3.43-6.916,6.358a53.227,53.227,0,0,1,29.927-9.141" transform="translate(-872.746 -3253.585)" fill="#e5e5e5"/>
          <path id="Trazado_56013" data-name="Trazado 56013" d="M955.19,3391.441a49.614,49.614,0,0,0-49.563-49.563H903a49.613,49.613,0,0,0-49.617,49.563v10.1a2.284,2.284,0,0,0,2.288,2.287h31.652c.171.042.343.084.516.119h15.161c-.047-.036-.089-.079-.135-.119h7.609c.144.041.287.082.434.119H926.2c-.048-.038-.093-.079-.14-.119h7.521c.168.042.336.084.506.119h25.137a12.971,12.971,0,0,1-4.034-9.4Z" transform="translate(-852.432 -3275.98)" fill="#e5e5e5"/>
          <path id="Trazado_56014" data-name="Trazado 56014" d="M901.923,3403.819H886.666l-.094-.019c-.148-.03-.295-.064-.441-.1H854.593a3.242,3.242,0,0,1-3.245-3.244v-10.1a50.937,50.937,0,0,1,14.832-35.727,50.253,50.253,0,0,1,35.741-14.792h2.623a50.569,50.569,0,0,1,50.519,50.518v3.1a12.064,12.064,0,0,0,3.737,8.707l1.735,1.65H932.909l-.1-.021c-.144-.029-.287-.063-.431-.1h-4.715l.147.119h-18.1l-.115-.029c-.112-.029-.223-.06-.333-.091h-4.846l.139.115Zm-15.061-1.913h12.43l-.143-.12h10.379l.248.07c.06.017.119.034.179.05H922.47l-.144-.12h10.29l.114.029c.127.031.251.062.376.09h22.9a14,14,0,0,1-2.855-8.444v-3.1a48.658,48.658,0,0,0-48.607-48.608h-2.621a48.355,48.355,0,0,0-34.389,14.233,49.011,49.011,0,0,0-14.271,34.375v10.1a1.328,1.328,0,0,0,1.332,1.331h31.768l.112.028c.139.034.264.065.388.092" transform="translate(-851.349 -3274.898)" fill="#e5e5e5"/>
          <path id="Trazado_56020" data-name="Trazado 56020" d="M915.388,3229.674h0a13.091,13.091,0,0,0,3.907,8.37,1.785,1.785,0,0,0,2.516-.107,1.8,1.8,0,0,0,.448-1.3,1.769,1.769,0,0,0-.609-1.232,9.52,9.52,0,0,1-2.75-5.867,9.208,9.208,0,0,1,2.857-6.637,13.721,13.721,0,0,0,0-18.879,1.788,1.788,0,1,0-2.656,2.395c.268.3,6.316,7.227,0,14.077a12.608,12.608,0,0,0-3.713,9.186" transform="translate(-885.348 -3202.473)" fill="#e5e5e5"/>
          <path id="Trazado_56017" data-name="Trazado 56017" d="M919.407,3238.38a2.706,2.706,0,0,1-1.839-.714,14.121,14.121,0,0,1-3.3-4.977l-.616-1.91-.3-2.168a13.633,13.633,0,0,1,3.979-9.868c5.6-6.093.568-12.112-.025-12.778a2.745,2.745,0,0,1,4.079-3.674,14.669,14.669,0,0,1-.014,20.18l-.034.034a8.282,8.282,0,0,0-2.56,5.9,8.573,8.573,0,0,0,2.449,5.214,2.7,2.7,0,0,1,.907,1.874,2.7,2.7,0,0,1-2.725,2.884m-4.145-9.836a12.123,12.123,0,0,0,3.62,7.734.826.826,0,0,0,1.147-.073.835.835,0,0,0,.2-.587.813.813,0,0,0-.283-.577l-.048-.045a10.493,10.493,0,0,1-3.026-6.458l0-.044v-.045a10.2,10.2,0,0,1,3.135-7.309,12.762,12.762,0,0,0-.016-17.547.842.842,0,0,0-1.19-.081.834.834,0,0,0-.062,1.179c.287.324,6.87,7.9-.008,15.365l-.029.03a11.7,11.7,0,0,0-3.432,8.458" transform="translate(-884.266 -3201.391)" fill="#e5e5e5"/>
          <path id="Trazado_56021" data-name="Trazado 56021" d="M962.471,3229.691h0a13.024,13.024,0,0,0,3.907,8.37,1.8,1.8,0,0,0,1.2.461,1.762,1.762,0,0,0,1.318-.569,1.788,1.788,0,0,0-.107-2.536,9.485,9.485,0,0,1-2.763-5.867,9.312,9.312,0,0,1,2.87-6.637,13.721,13.721,0,0,0,0-18.879,1.776,1.776,0,0,0-2.623,2.4c.267.3,6.316,7.226,0,14.076a12.647,12.647,0,0,0-3.8,9.187" transform="translate(-910.347 -3202.489)" fill="#e5e5e5"/>
          <path id="Trazado_56018" data-name="Trazado 56018" d="M966.517,3238.4a2.806,2.806,0,0,1-1.86-.707,13.985,13.985,0,0,1-4.222-9.01l0-.058a13.67,13.67,0,0,1,4.069-9.864c5.6-6.094.566-12.109-.027-12.775a2.732,2.732,0,0,1,4.042-3.677,14.67,14.67,0,0,1-.011,20.184l-.033.033a8.4,8.4,0,0,0-2.574,5.907,8.548,8.548,0,0,0,2.467,5.215,2.74,2.74,0,0,1-1.848,4.752m-4.172-9.827a12.056,12.056,0,0,0,3.618,7.725.9.9,0,0,0,.543.19.808.808,0,0,0,.605-.262.83.83,0,0,0,.22-.6.821.821,0,0,0-.269-.576l-.033-.031a10.461,10.461,0,0,1-3.041-6.459l0-.048v-.048a10.329,10.329,0,0,1,3.148-7.3,12.76,12.76,0,0,0-.015-17.547.82.82,0,1,0-1.218,1.1c.286.323,6.873,7.9-.008,15.364l-.035.036a11.747,11.747,0,0,0-3.513,8.462" transform="translate(-909.265 -3201.412)" fill="#e5e5e5"/>
          <path id="Trazado_56022" data-name="Trazado 56022" d="M1009.527,3229.763h0a12.984,12.984,0,0,0,3.927,8.37,1.788,1.788,0,0,0,2.409-2.643,8.322,8.322,0,0,1,.107-12.5,13.734,13.734,0,0,0,0-18.88,1.786,1.786,0,0,0-2.643,2.395c.247.3,6.316,7.226,0,14.077a12.7,12.7,0,0,0-3.8,9.187" transform="translate(-935.331 -3202.561)" fill="#e5e5e5"/>
          <path id="Trazado_56019" data-name="Trazado 56019" d="M1013.581,3238.469a2.768,2.768,0,0,1-1.847-.707,13.948,13.948,0,0,1-4.242-9.009l0-.062a13.716,13.716,0,0,1,4.069-9.86c5.321-5.794.916-11.654-.023-12.771l-.028-.034a2.743,2.743,0,0,1,4.051-3.686,14.694,14.694,0,0,1,.025,20.22l-.034.034a7.373,7.373,0,0,0-.1,11.132,2.74,2.74,0,0,1-1.871,4.742m-4.18-9.828a12.018,12.018,0,0,0,3.635,7.721.851.851,0,0,0,.535.194.828.828,0,0,0,.565-1.441,10.362,10.362,0,0,1-3.077-6.491l0-.047v-.046a10.333,10.333,0,0,1,3.155-7.3,12.775,12.775,0,0,0-.016-17.549.831.831,0,0,0-1.2,1.141c3.1,3.691,4.945,9.911-.043,15.322l-.034.035a11.8,11.8,0,0,0-3.514,8.462" transform="translate(-934.248 -3201.481)" fill="#e5e5e5"/>
        </g>
      </g>
      <text id="de_la_Familia_Coca-Cola" data-name="de la Familia Coca-Cola" transform="translate(142.866 399.984)" fill="#333" font-size="18" font-family="TCCC-UnityHeadline-Regular, TCCC-UnityHeadline" letter-spacing="0.01em"><tspan x="0" y="0">de la</tspan><tspan y="0" xml:space="preserve" font-size="25" font-family="TCCC-UnityHeadline-Bold, TCCC-UnityHeadline" font-weight="700"> Familia Coca-Cola</tspan></text>
      <text id="Compra_los_productos_principales" data-name="Compra los productos principales" transform="translate(142.866 372.784)" fill="#333" font-size="19" font-family="TCCC-UnityHeadline-Regular, TCCC-UnityHeadline"><tspan x="0" y="0">Compra los productos principales</tspan></text>
    </g>
  </g>
</svg>
