<svg id="Home615x677px" xmlns="http://www.w3.org/2000/svg" xmlns:xlink="http://www.w3.org/1999/xlink" width="615" height="677" viewBox="0 0 615 677">
  <defs>
    <clipPath id="clip-path">
      <rect id="Rectángulo_23594" data-name="Rectángulo 23594" width="615" height="677" rx="20" fill="#fff"/>
    </clipPath>
    <filter id="Trazado_57308" x="-9" y="574.316" width="633" height="129.331" filterUnits="userSpaceOnUse">
      <feOffset dy="3" input="SourceAlpha"/>
      <feGaussianBlur stdDeviation="3" result="blur"/>
      <feFlood flood-opacity="0.161"/>
      <feComposite operator="in" in2="blur"/>
      <feComposite in="SourceGraphic"/>
    </filter>
  </defs>
  <g id="Enmascarar_grupo_19146" data-name="Enmascarar grupo 19146" clip-path="url(#clip-path)">
    <g id="Grupo_20592" data-name="Grupo 20592">
      <rect id="Rectángulo_25328" data-name="Rectángulo 25328" width="615" height="677" fill="#ffb600"/>
      <path id="Trazado_56945" data-name="Trazado 56945" d="M0,0H615V474.612H0Z" transform="translate(0 176)" fill="#fff"/>
      <g id="Grupo_20555" data-name="Grupo 20555" transform="translate(0 -82.123)">
        <g id="Grupo_20553" data-name="Grupo 20553" transform="translate(0 757.433) rotate(-90)">
          <rect id="Rectángulo_25578" data-name="Rectángulo 25578" width="70.754" height="70.754" transform="translate(157.808 71.41) rotate(-90)" fill="#ffb600"/>
          <rect id="Rectángulo_25579" data-name="Rectángulo 25579" width="49.834" height="15.136" transform="translate(157.808 60.949) rotate(-90)" fill="#b50000"/>
          <path id="Trazado_56892" data-name="Trazado 56892" d="M19.542,0H0L5.141,39.622H14.4Z" transform="translate(172.945 45.804) rotate(-90)" fill="#f40000"/>
          <path id="Trazado_56893" data-name="Trazado 56893" d="M15.726,40.935H5.311L0,0H21.036ZM6.465,39.622h8.108L19.542,1.313H1.494Z" transform="translate(172.289 46.551) rotate(-90)" fill="#222"/>
          <rect id="Rectángulo_25580" data-name="Rectángulo 25580" width="4.246" height="15.136" transform="translate(157.808 43.958) rotate(-90)" fill="#f40000"/>
          <rect id="Rectángulo_25581" data-name="Rectángulo 25581" width="4.246" height="15.136" transform="translate(157.808 32.355) rotate(-90)" fill="#f40000"/>
          <rect id="Rectángulo_25582" data-name="Rectángulo 25582" width="4.246" height="15.136" transform="translate(157.808 20.749) rotate(-90)" fill="#f40000"/>
          <rect id="Rectángulo_25583" data-name="Rectángulo 25583" width="70.754" height="70.754" transform="translate(228.562 71.41) rotate(-90)" fill="#ff8749"/>
          <rect id="Rectángulo_25584" data-name="Rectángulo 25584" width="70.754" height="70.754" transform="translate(299.315 71.41) rotate(-90)" fill="#b50000"/>
          <path id="Trazado_56894" data-name="Trazado 56894" d="M0,152.471s29.153-35.13,19.391-94.033C14.676,26.828,8.9,17.332,9.7,0h8.9s-6.973,16.469,2.457,59.367c5.568,25.331,12.152,62.158-1.66,93.1Z" transform="translate(217.599 50.347) rotate(-90)" fill="#f40000"/>
          <path id="Trazado_56895" data-name="Trazado 56895" d="M0,0V157.808H70.754V0Z" transform="translate(0 71.411) rotate(-90)" fill="#f40000"/>
          <path id="Trazado_56896" data-name="Trazado 56896" d="M72.067,158.465H0V0H72.067ZM1.314,157.008h69.44V1.458H1.314Z" transform="translate(0 72.067) rotate(-90)" fill="#222"/>
        </g>
        <g id="Grupo_20552" data-name="Grupo 20552" transform="translate(72.067 131.196) rotate(90)">
          <rect id="Rectángulo_25590" data-name="Rectángulo 25590" width="35.947" height="35.947" transform="translate(222.871 36.614) rotate(-90)" fill="#f40000"/>
          <path id="Trazado_56910" data-name="Trazado 56910" d="M35.947,0V35.947H0Z" transform="translate(186.924 36.614) rotate(-90)" fill="#f40000"/>
          <path id="Trazado_56911" data-name="Trazado 56911" d="M35.948,35.947V0H0Z" transform="translate(258.819 36.614) rotate(-90)" fill="#f40000"/>
          <rect id="Rectángulo_25591" data-name="Rectángulo 25591" width="35.947" height="35.947" transform="translate(222.871 72.067) rotate(-90)" fill="#f40000"/>
          <path id="Trazado_56912" data-name="Trazado 56912" d="M0,35.947V0H35.947Z" transform="translate(258.818 72.067) rotate(-90)" fill="#f40000"/>
          <path id="Trazado_56913" data-name="Trazado 56913" d="M0,0V35.947H35.947Z" transform="translate(186.924 72.067) rotate(-90)" fill="#f40000"/>
          <path id="Trazado_56914" data-name="Trazado 56914" d="M0,0V137.364a36.034,36.034,0,1,0,72.067,0V0Z" transform="translate(0 72.067) rotate(-90)" fill="#ffb600"/>
          <path id="Trazado_56915" data-name="Trazado 56915" d="M23.3,62.331a6.442,6.442,0,0,1,1.108-3.448C29.969,50.765,38.318,43.677,38.9,31.379,39.257,18.3,37.143,3.967,24.512.558.927-4.532-4.77,26.428,3.711,43.631c.083.169.176.335.273.5,15.175,25.227,12.531-1.025,8.456,90.61-.066,1.753-.108,5.012-.132,8.608-.023,2.772-.035,24.5-.04,35.791a6.543,6.543,0,1,0,13.084-.161c-.73-29.4-2.447-103.448-2.05-116.645" transform="translate(205.599 17.342) rotate(90)" fill="#b50000"/>
          <path id="Trazado_56916" data-name="Trazado 56916" d="M19.309,186.692a7.046,7.046,0,0,1-7.048-7.049c0-7.638.015-32.791.04-35.793.019-2.834.057-6.63.132-8.624.809-18.183,1.572-31.917,2.128-41.946,1.74-31.316,1.74-31.316-3.641-38.362A100.388,100.388,0,0,1,4.05,44.9c-.109-.182-.208-.362-.293-.534-5.77-11.7-4.784-28.506,2.2-37.453C9.146,2.82,15.06-1.6,25.117.572l.025.006C35.571,3.393,40.4,13.639,39.905,31.9c-.456,9.606-5.509,16.019-10.4,22.221-1.491,1.892-2.9,3.678-4.183,5.555a5.922,5.922,0,0,0-1.02,3.178C23.855,77.8,26.1,169.108,26.355,179.471a7.046,7.046,0,0,1-7.045,7.221M20.067,1.016A16.252,16.252,0,0,0,6.751,7.529C-.017,16.2-.953,32.524,4.662,43.915c.073.148.158.3.252.46A99.322,99.322,0,0,0,11.724,54.3c5.607,7.342,5.607,7.342,3.847,39.031-.557,10.026-1.32,23.758-2.128,41.932-.059,1.565-.1,4.537-.132,8.59-.025,3-.037,28.15-.04,35.787a6.039,6.039,0,1,0,12.076-.148c-.257-10.366-2.5-101.705-2.049-116.673a6.931,6.931,0,0,1,1.2-3.718c1.3-1.9,2.788-3.788,4.224-5.609,4.788-6.077,9.74-12.361,10.18-21.634.48-17.709-4.1-27.626-14.005-30.306a22.934,22.934,0,0,0-4.825-.54" transform="translate(206.106 16.843) rotate(90)" fill="#222"/>
        </g>
      </g>
      <path id="Trazado_57309" data-name="Trazado 57309" d="M-5713.1-3634.821l128.469,37.06h125.555l82.809-11.723,98.852-16.66,105.488-8.677,32.832,8.677v83.637h-616.258v-97.176Z" transform="translate(5754 4220)" fill="#f40000"/>
      <g id="Grupo_20485" data-name="Grupo 20485" transform="translate(479.538 12.575)">
        <path id="Trazado_56076" data-name="Trazado 56076" d="M220.058,1912.717v6.394l-2.555.374v-6.658H181.815l-.248,6.592c-2.57,0-2.544.253-2.408-1.8.091-1.684.152-2.312-.41-3.081-.992-.769-3.369-.4-4.188.036-1.67,1.087-1.862,2.423-2.11,4.385-.025,3.628.445,3.82,1.679,5.58,5.271,5.362,8.145,1.811,8.746,5.2,4.968,18.251,28.066,18.682,33.18,1.209.739-2.524.81-2.61,1.629-2.808,9.566-.167,13.653-13.592,2.373-15.418" transform="translate(-151.387 -1842.799)" fill="#fff"/>
        <path id="Trazado_56077" data-name="Trazado 56077" d="M198.759,1942.953h-.168c-8.2-.078-15.027-5.737-17.389-14.415l-.011-.048c-.2-1.148-.571-1.2-1.787-1.356-1.518-.2-3.813-.5-6.809-3.549l-.058-.07c-.135-.193-.261-.367-.378-.528-1.059-1.461-1.424-2.132-1.4-5.373l0-.065c.25-1.975.447-3.535,2.356-4.78l.041-.024c.967-.52,3.586-.919,4.788.015l.062.048.046.063c.654.9.614,1.628.526,3.231l-.018.311a6.2,6.2,0,0,0-.024,1.083,6.445,6.445,0,0,0,1.124.037l.23,0,.248-6.595h36.774v6.571l1.449-.212v-6.566l.642.1c3.736.6,7.605,2.972,7.259,7.8a9.734,9.734,0,0,1-9.649,8.714c-.49.121-.524.2-1.17,2.411-2.351,8.034-8.89,13.2-16.686,13.2m-16.484-14.683c2.234,8.176,8.64,13.5,16.326,13.577,7.366.083,13.558-4.8,15.783-12.4.72-2.462.85-2.906,2.03-3.19l.12-.016c3.889-.068,8.293-3.026,8.627-7.688.235-3.291-1.88-5.69-5.692-6.511v6.206l-3.661.537v-6.744h-34.6l-.248,6.591h-.532c-.28,0-.529,0-.75.005-1.05.013-1.577.02-1.95-.373s-.333-.936-.267-1.925l.018-.3c.082-1.5.09-1.927-.267-2.449-.792-.523-2.791-.254-3.509.117-1.391.916-1.583,1.933-1.838,3.946-.019,3.013.288,3.437,1.191,4.683.113.155.233.321.361.5,2.712,2.746,4.689,3.006,6.133,3.2,1.221.16,2.375.312,2.727,2.233" transform="translate(-150.245 -1841.457)" fill="#222"/>
        <path id="Trazado_56085" data-name="Trazado 56085" d="M237.778,1998.171c-.015-2.893.162-2.575-2.585-.328-6.48,4.871-13.016,5.62-21.6,1.2-5.306-3.495-5.989-6.1-5.9-1.108.192,8-1.548,4.335,8.448,7.547a7.824,7.824,0,0,1,4.6,4.285c.334,1.452-.137,3.39,1.33,3.653,4.442.455.106-5.115,7.1-7.821,9.874-3.566,8.478-.283,8.61-7.426" transform="translate(-175.127 -1898.351)" fill="#ff8749"/>
        <path id="Trazado_56086" data-name="Trazado 56086" d="M221.388,2012.843a5.054,5.054,0,0,1-.518-.028l-.041-.006c-1.468-.263-1.558-1.685-1.63-2.828a8.23,8.23,0,0,0-.137-1.224,7.3,7.3,0,0,0-4.248-3.908,42.987,42.987,0,0,0-6.061-1.5c-2.622-.474-2.8-.714-2.755-3.672.012-.746.027-1.676,0-2.88-.034-1.973.022-2.935.68-3.254s1.285.206,2.551,1.242a40.479,40.479,0,0,0,3.5,2.628c8.092,4.16,14.371,3.812,20.989-1.162.361-.295.683-.568.958-.8,1.044-.882,1.476-1.248,1.994-1.008s.515.78.516,2.089v.5c-.016.893-.009,1.631,0,2.223.032,3.041-.132,3.261-2.929,3.924a50.7,50.7,0,0,0-6.043,1.789c-3.512,1.359-3.916,3.443-4.241,5.118-.252,1.3-.535,2.761-2.588,2.761m-.383-1.126c1.5.15,1.6-.4,1.885-1.846.336-1.736.844-4.359,4.939-5.943A51.736,51.736,0,0,1,234,2002.1c1.062-.252,1.7-.4,1.9-.664a5.006,5.006,0,0,0,.183-2.172c-.007-.6-.014-1.343,0-2.25v-.484c0-.284,0-.573-.008-.8-.2.156-.442.363-.683.566-.279.235-.606.512-.99.826-6.938,5.216-13.78,5.6-22.2,1.262l-.051-.03a41.309,41.309,0,0,1-3.622-2.713,12.56,12.56,0,0,0-1.342-1.02,13.129,13.129,0,0,0-.083,2.154c.029,1.222.014,2.164,0,2.921a5.175,5.175,0,0,0,.147,2.075c.157.213.77.324,1.7.491a44.057,44.057,0,0,1,6.217,1.544l.029.01a8.322,8.322,0,0,1,4.928,4.637l.011.041a8.815,8.815,0,0,1,.168,1.423c.081,1.28.189,1.7.7,1.806" transform="translate(-173.987 -1897.198)" fill="#222"/>
        <path id="Trazado_56068" data-name="Trazado 56068" d="M171.907,2060.642c.536-9.374.531-9-.157-9.374-2.646-.966-8.074-.233-13.587-3.02-3.415-1.73-1.052-1.852-16.8-1.564-3.83.167-6.06.238-8.9,2.409-1.462,1.26-1.953,1.487-1,2.1,8.392,6.02,7.3,8.854,9.308,9.333,2.034.4,6.945.294,31.131.116" transform="translate(-123.44 -1932.989)" fill="#fcfbdf"/>
        <path id="Trazado_56069" data-name="Trazado 56069" d="M147.069,2060.208a48.056,48.056,0,0,1-7.543-.284c-1-.239-1.414-.911-1.986-1.842-.9-1.457-2.394-3.894-7.526-7.576a1.326,1.326,0,0,1-.733-.964c-.037-.559.407-.935,1.214-1.617.142-.12.3-.251.465-.4l.025-.02c2.94-2.248,5.245-2.349,9.065-2.515l.145-.006c13.762-.251,13.844-.2,15.962,1.015.309.177.658.379,1.112.608a25.781,25.781,0,0,0,9.585,2.338,17.221,17.221,0,0,1,3.942.656l.141.069c.915.478.915.478.414,9.233l-.065,1.14-.519,0-9.117.07c-6.718.052-11.342.088-14.582.088m-16.625-10.751a2.116,2.116,0,0,0,.179.126l.024.016c5.322,3.817,6.9,6.375,7.835,7.9.554.9.772,1.219,1.28,1.341,1.67.328,5.55.3,21.881.171,2.55-.02,5.4-.042,8.6-.065l.006-.106c.317-5.534.448-7.825.263-8.152a.36.36,0,0,1-.085-.038l-.043-.023a17.186,17.186,0,0,0-3.635-.582,26.68,26.68,0,0,1-9.977-2.45c-.48-.244-.844-.453-1.164-.638-1.826-1.051-1.935-1.114-15.376-.867l-.131.006c-3.719.162-5.771.251-8.429,2.279-.166.143-.32.274-.461.392a9.515,9.515,0,0,0-.765.687" transform="translate(-122.298 -1931.845)" fill="#222"/>
        <path id="Trazado_56074" data-name="Trazado 56074" d="M207.278,2101.92c-.081-3.94.551-3.581-3-3.728-6.111-.273-26.315-.278-41.689-.338.081,2.387.182,37.489.212,47.379l2.767-.268.217-44.021h2.535l.222,44.021h38.7c.127-33.2.162-32.5.03-43.044m-7.683,18.351a2.745,2.745,0,1,1,2.745-2.744,2.744,2.744,0,0,1-2.745,2.744m0-12.532a2.746,2.746,0,1,1,2.745-2.745,2.745,2.745,0,0,1-2.745,2.745" transform="translate(-144.743 -1967.55)" fill="#f40000"/>
        <path id="Trazado_56075" data-name="Trazado 56075" d="M161.07,2144.694l-.009-3.083c-.036-11.672-.13-42.678-.2-44.887l-.02-.573.574,0c2.84.011,5.846.021,8.9.03,13.678.042,27.822.087,32.815.309.278.012.531.021.76.028,2.551.084,2.783.315,2.763,2.744,0,.4-.008.907,0,1.5v0c.108,8.656.1,9.759.028,28.176-.016,4.039-.036,8.91-.059,14.877l0,.551h-39.8l-.222-44.021h-1.434l-.217,43.97Zm.9-47.434c.073,4.75.156,32.243.193,44.348l.006,1.868,1.665-.161.218-44.071h3.634l.222,44.021h37.6c.022-5.717.041-10.413.057-14.326.075-18.408.079-19.51-.028-28.156-.012-.605-.008-1.116,0-1.527a4.289,4.289,0,0,0-.1-1.459,4.816,4.816,0,0,0-1.594-.171l-.771-.028c-4.972-.223-19.1-.267-32.771-.308-2.849-.009-5.658-.018-8.33-.029m36.441,22.417a3.3,3.3,0,1,1,3.3-3.3,3.3,3.3,0,0,1-3.3,3.3m0-5.49a2.192,2.192,0,1,0,2.191,2.192,2.194,2.194,0,0,0-2.191-2.192m0-7.044a3.3,3.3,0,1,1,3.231-3.962,3.339,3.339,0,0,1,.067.664,3.3,3.3,0,0,1-3.3,3.3m0-5.489a2.187,2.187,0,0,0-2.147,1.75,2.225,2.225,0,0,0-.044.442,2.192,2.192,0,1,0,4.383,0,2.23,2.23,0,0,0-.044-.442,2.187,2.187,0,0,0-2.147-1.749" transform="translate(-143.562 -1966.403)" fill="#222"/>
        <path id="Trazado_56078" data-name="Trazado 56078" d="M183.392,1837.846l.177-32.3a16.2,16.2,0,0,1-5.124.865c-.005,3.177-.015,8.165-.035,21.459.035,11.65-1.311,10.3,4.983,9.976" transform="translate(-155.337 -1770.584)" fill="#fff"/>
        <path id="Trazado_56079" data-name="Trazado 56079" d="M178.886,1837.021a2.149,2.149,0,0,1-1.595-.478c-.741-.7-.711-2.011-.639-5.181.031-1.337.069-3,.062-5.087.014-9.269.023-14.5.029-17.895l.007-4.115.549,0a15.666,15.666,0,0,0,4.95-.836l.735-.25-.184,33.6-.521.027c-.691.036-1.285.084-1.81.127-.627.051-1.146.093-1.583.093m-1.032-31.666-.005,3.027c-.006,3.4-.015,8.626-.029,17.892.007,2.1-.032,3.77-.062,5.113-.057,2.488-.091,3.99.292,4.352.269.254,1.133.184,2.33.087.4-.032.832-.067,1.32-.1l.17-31.023a16.692,16.692,0,0,1-4.015.651" transform="translate(-154.196 -1768.988)" fill="#222"/>
        <path id="Trazado_56081" data-name="Trazado 56081" d="M203.771,1800.644a.762.762,0,0,1-.455-.279c-.319.208-.647.4-.981.577v.177c-.01,10.892-.01,31.39.3,33.175.4.4,6.885.086,7.578.061l.182-33.706h-6.546a.394.394,0,0,0-.076,0" transform="translate(-171.522 -1767.093)" fill="#fff"/>
        <path id="Trazado_56082" data-name="Trazado 56082" d="M203.943,1833.54c-2.482,0-2.672-.192-2.846-.369l-.122-.123-.029-.171c-.3-1.74-.319-19.82-.307-33.269v-.509l.294-.156c.327-.172.642-.359.939-.551l.413-.269.314.379a.267.267,0,0,0,.1.08.353.353,0,0,1,.043,0h7.063l-.188,34.792-.858.033c-2.182.093-3.723.13-4.817.13M202,1832.363a49.4,49.4,0,0,0,6.52-.049l.176-32.623-6.16-.013a1.234,1.234,0,0,1-.4-.144q-.19.116-.388.226c-.007,7.557-.025,29.234.254,32.6" transform="translate(-170.381 -1765.582)" fill="#222"/>
        <path id="Trazado_56107" data-name="Trazado 56107" d="M326.982,1806.756c-.086,3.167-.081,5.408-.1,14.686,0,1.32.025,16.911.263,17.224a17.306,17.306,0,0,0,4.416,0l.177-31.45c-.263.015-.536.02-.8.02a16.651,16.651,0,0,1-3.951-.476" transform="translate(-255.448 -1771.399)" fill="#fff"/>
        <path id="Trazado_56108" data-name="Trazado 56108" d="M327.468,1837.922a5.991,5.991,0,0,1-1.623-.17l-.174-.051-.11-.145c-.178-.234-.331-.436-.374-17l0-.558.005-2.769c.015-6.991.019-9.1.1-11.933l.019-.684.665.162a16.135,16.135,0,0,0,3.82.46c.293,0,.546-.007.773-.02l.588-.034-.183,32.557-.517.03c-.243.015-.5.032-.754.05-.761.051-1.535.1-2.23.1m-.974-1.16a17.722,17.722,0,0,0,3.129-.047l.246-.017.171-30.359-.248,0a17.254,17.254,0,0,1-3.415-.343c-.06,2.518-.065,4.817-.078,11.235l-.006,2.765,0,.557c.031,11.925.134,15.292.2,16.207" transform="translate(-254.306 -1769.955)" fill="#222"/>
        <path id="Trazado_56105" data-name="Trazado 56105" d="M305.412,1834.941c.1-17.042.319-26.952.354-32.649a16.4,16.4,0,0,1-2.13-1.057h-4.821c-.015,13.932-.066,28.6.278,32.239.192,1.669-.076,1.755,6.318,1.467" transform="translate(-236.529 -1767.679)" fill="#fff"/>
        <path id="Trazado_56104" data-name="Trazado 56104" d="M300.46,1834.481c-2.5,0-2.875-.395-3.037-1.891l-.022-.2c-.319-3.378-.3-15.745-.286-28.838l0-4.018h5.524l.13.077a15.932,15.932,0,0,0,2.058,1.021l.347.141,0,.375c-.013,2.044-.049,4.622-.1,7.887-.083,5.837-.2,13.829-.258,24.761l0,.525-.525.024c-1.648.074-2.892.131-3.834.131m-2.235-33.836,0,2.913c-.016,12.49-.033,25.406.28,28.721l.021.192c.078.726.086.727.474.81a27.083,27.083,0,0,0,4.722-.011c.062-10.668.174-18.5.255-24.245.044-3.068.079-5.53.093-7.508a17.208,17.208,0,0,1-1.723-.871Z" transform="translate(-235.386 -1766.537)" fill="#222"/>
        <path id="Trazado_56090" data-name="Trazado 56090" d="M235.04,1830.272c.131,5.661-.9,4.882,7.34,4.669l.187-33.706h-7.634c0,9.668-.02,24.095.106,29.037" transform="translate(-193.489 -1767.679)" fill="#fff"/>
        <path id="Trazado_56091" data-name="Trazado 56091" d="M236.348,1834.51a3.22,3.22,0,0,1-2.373-.576c-.613-.589-.614-1.5-.615-3.149,0-.479,0-1.021-.015-1.642-.12-4.691-.113-17.863-.107-27.482v-2.121h8.743l-.193,34.8-.536.014c-1.038.027-1.917.062-2.693.094-.894.036-1.617.065-2.211.065m-2-33.864v1.016c-.005,9.614-.013,22.78.107,27.454h0c.015.634.015,1.182.015,1.667,0,1.259,0,2.09.275,2.353.356.342,1.642.29,3.774.2.643-.026,1.357-.055,2.173-.079l.181-32.615Z" transform="translate(-192.347 -1766.537)" fill="#222"/>
        <path id="Trazado_56070" data-name="Trazado 56070" d="M146.409,1732.857a13.625,13.625,0,0,0,2.332.2c.055,0,.111,0,.167-.005a14.038,14.038,0,0,0,5.129-1.017v-.233c.258-.025.516-.061.774-.1a14.37,14.37,0,0,0,3.339-2.18,1.132,1.132,0,0,1,1.6.106,1.144,1.144,0,0,1-.015,1.523h30.544a1.137,1.137,0,0,1,1.588-1.624,13.5,13.5,0,0,0,1.72,1.29c.182.117.364.228.551.334.288.167.587.323.886.47a13.774,13.774,0,0,0,2.362.9c.162.045.329.091.491.126a14.117,14.117,0,0,0,3.389.409c.273,0,.546-.01.814-.026a13.63,13.63,0,0,0,2.15-.288,14.268,14.268,0,0,0,9.151-21.525,13.713,13.713,0,0,0-1.76-2.276,14.258,14.258,0,0,0-19.754-.921.343.343,0,0,1-.056.035.242.242,0,0,1-.035.036c-.015.01-.03.015-.046.025l-.106.061a.489.489,0,0,1-.106.045.7.7,0,0,1-.091.036,1.178,1.178,0,0,1-.127.025l-.086.015a1.05,1.05,0,0,1-.131,0,.555.555,0,0,1-.091-.005.836.836,0,0,1-.116-.02.819.819,0,0,1-.106-.026.667.667,0,0,1-.1-.036.911.911,0,0,1-.106-.051c-.03-.015-.061-.035-.086-.051s-.071-.051-.1-.076a.793.793,0,0,1-.071-.071.38.38,0,0,1-.051-.045c-.015-.016-.025-.036-.04-.051a.211.211,0,0,0-.03-.035,18.712,18.712,0,0,0-30.372,0,.3.3,0,0,1-.04.041.288.288,0,0,1-.025.04c-.02.02-.046.04-.066.061s-.056.056-.086.081a.852.852,0,0,1-.146.1c-.02.01-.036.026-.056.036a1.114,1.114,0,0,1-.228.081l-.076.015c-.055,0-.106.015-.162.015-.015,0-.025.005-.04.005s-.025-.005-.04-.005a1.148,1.148,0,0,1-.263-.04c-.015-.005-.03-.005-.045-.01a1.109,1.109,0,0,1-.268-.137c-.015-.01-.03-.01-.046-.02s-.035-.036-.055-.051-.02-.01-.025-.02a14.271,14.271,0,0,0-19.764.921,13.708,13.708,0,0,0-1.76,2.276,14.266,14.266,0,0,0,9.783,21.641" transform="translate(-125.785 -1699.499)" fill="#fff"/>
        <path id="Trazado_56071" data-name="Trazado 56071" d="M200.128,1732.465a14.665,14.665,0,0,1-3.522-.426c-.157-.035-.335-.083-.507-.131a14.406,14.406,0,0,1-2.458-.937c-.329-.162-.638-.326-.917-.488q-.288-.164-.572-.347a14,14,0,0,1-1.788-1.342.6.6,0,0,0-.422-.148.587.587,0,0,0-.395.982l.862.929H157.34l.848-.927a.592.592,0,0,0,0-.788.567.567,0,0,0-.394-.2.576.576,0,0,0-.425.144,14.935,14.935,0,0,1-3.47,2.266l-.071.033-.078.012-.307.046v.115l-.346.139a14.539,14.539,0,0,1-5.311,1.057c-.064.005-.128.006-.192.006a14.239,14.239,0,0,1-2.424-.206,14.818,14.818,0,0,1-10.16-22.479,14.3,14.3,0,0,1,1.829-2.365,14.824,14.824,0,0,1,20.519-.962.212.212,0,0,1,.024.02l.012.01.043.027a.79.79,0,0,0,.11.062.6.6,0,0,1,.074.02.745.745,0,0,0,.1.011h.065l.035,0,.095-.016a.5.5,0,0,0,.067-.024.725.725,0,0,1,.074-.044.38.38,0,0,0,.057-.04l.031-.032.033-.031.064-.075.008-.008a19.263,19.263,0,0,1,31.22.008c.012.014.024.028.037.044l.014.017.035.033.044.045.042.031.056.032a.362.362,0,0,0,.047.021l.031.015c.015,0,.027.006.04.009l.065.014.036,0,.083,0,.064-.011.063-.011.167-.08.045-.046.053-.026a14.811,14.811,0,0,1,20.485.985,14.3,14.3,0,0,1,1.83,2.367,14.821,14.821,0,0,1-9.507,22.356,14.311,14.311,0,0,1-2.234.3c-.312.017-.589.026-.845.026M147.6,1703.894a13.614,13.614,0,0,0-9.954,4.285,13.222,13.222,0,0,0-1.691,2.186,13.713,13.713,0,0,0,9.4,20.8h.005a13.1,13.1,0,0,0,2.238.189c.039,0,.078,0,.116,0l.046,0a13.422,13.422,0,0,0,4.581-.843v-.355l.5-.049c.2-.02.419-.048.664-.086a13.8,13.8,0,0,0,3.139-2.063,1.686,1.686,0,0,1,2.385.162,1.709,1.709,0,0,1,.4,1.331H188.3a1.691,1.691,0,0,1,2.8-1.483,12.927,12.927,0,0,0,1.648,1.235c.176.113.35.219.529.32.261.151.548.3.856.455a13.287,13.287,0,0,0,2.269.864c.151.042.307.085.459.119a13.615,13.615,0,0,0,3.271.4c.235,0,.491-.008.783-.025a13.176,13.176,0,0,0,2.064-.276,13.715,13.715,0,0,0,8.8-20.691,13.228,13.228,0,0,0-1.692-2.188,13.707,13.707,0,0,0-18.989-.888l-.035.028-.037.027a.6.6,0,0,1-.08.061l-.183.105a1.049,1.049,0,0,1-.18.082c-.035.015-.071.028-.106.04l-.052.016a1.711,1.711,0,0,1-.192.037l-.152.02a1.374,1.374,0,0,1-.157,0,.921.921,0,0,1-.158-.013,1.317,1.317,0,0,1-.138-.023c-.049-.009-.1-.022-.146-.036l-.032-.01a1.2,1.2,0,0,1-.138-.052,1.486,1.486,0,0,1-.141-.068c-.032-.017-.064-.036-.093-.054l-.052-.033c-.047-.033-.093-.067-.133-.1l-.036-.033c-.024-.022-.044-.042-.063-.061a.66.66,0,0,1-.088-.086l-.034-.042-.065-.081a18.158,18.158,0,0,0-29.475,0,.52.52,0,0,1-.057.07.635.635,0,0,1-.064.077c-.019.019-.039.037-.059.055-.049.048-.092.089-.133.124a1.563,1.563,0,0,1-.221.149.662.662,0,0,1-.089.052,1.621,1.621,0,0,1-.338.121l-.2.034c-.043.005-.085.01-.128.012a.7.7,0,0,1-.088.006l-.093-.007a1.675,1.675,0,0,1-.346-.055.578.578,0,0,1-.087-.023,1.469,1.469,0,0,1-.348-.169.533.533,0,0,1-.1-.052.9.9,0,0,1-.094-.077.639.639,0,0,1-.066-.057,13.745,13.745,0,0,0-9.022-3.378m10.035,3.807.006,0Zm.189-1.089.014,0-.014,0m.415-.257-.02.027.02-.027" transform="translate(-124.643 -1698.356)" fill="#222"/>
        <path id="Trazado_56097" data-name="Trazado 56097" d="M266.725,2036.32c1.143.314,10.142-1.674,10.142-5.7-.146-1.386.253-1.8-3.49-.865-2.038.536-5.782,1.548-6.632,3.475-.41,1.108-.92,2.327-.02,3.091" transform="translate(-214.576 -1921.325)" fill="#ff8749"/>
        <path id="Trazado_56098" data-name="Trazado 56098" d="M265.9,2035.759a1.838,1.838,0,0,1-.465-.046l-.118-.032-.094-.079c-1.155-.98-.624-2.406-.2-3.552l.069-.184c.971-2.2,4.891-3.233,7-3.787,2.237-.555,3.125-.683,3.665-.291a1.533,1.533,0,0,1,.485,1.261c.008.114.017.238.031.371l0,.059a4.288,4.288,0,0,1-1.995,3.36,17.463,17.463,0,0,1-8.382,2.92m-.059-1.1a16.585,16.585,0,0,0,7.836-2.753,3.232,3.232,0,0,0,1.493-2.4c-.014-.135-.023-.262-.031-.378a3.038,3.038,0,0,0-.052-.449,11.718,11.718,0,0,0-2.722.472c-1.637.431-5.483,1.443-6.253,3.148l-.051.137c-.386,1.038-.615,1.772-.221,2.226" transform="translate(-213.428 -1920.185)" fill="#222"/>
        <path id="Trazado_56087" data-name="Trazado 56087" d="M215.358,2030.4a30.489,30.489,0,0,0-4.75-1.229c-2.276-.38-1.806-.744-1.806,1.153.258,1.406,0,2.246,3.749,4.108a15.765,15.765,0,0,0,4.871,1.574c.931.065,1.371-.026,1.508-1.685-.106-1.933.283-2.575-3.572-3.921" transform="translate(-175.855 -1921.063)" fill="#ff8749"/>
        <path id="Trazado_56088" data-name="Trazado 56088" d="M216.576,2035.425c-.107,0-.217,0-.333-.012a16.024,16.024,0,0,1-5.068-1.625c-3.464-1.722-3.773-2.687-3.994-4.12-.019-.125-.038-.254-.064-.388l-.009-.1c0-.324-.014-.578-.025-.782-.025-.448-.046-.8.25-1.054s.64-.184,1.2-.063c.263.057.589.128,1.026.2a29.981,29.981,0,0,1,4.595,1.172l.246.081c3.683,1.286,3.863,2.124,3.92,3.9.005.161.011.333.021.516l0,.038,0,.038c-.146,1.772-.735,2.2-1.765,2.2m-8.361-6.3c.023.128.041.251.06.371.161,1.05.267,1.743,3.382,3.292a15.31,15.31,0,0,0,4.674,1.518c.691.048.8.057.9-1.142-.009-.178-.015-.345-.02-.5-.045-1.38-.058-1.8-3.176-2.886l-.233-.076a28.816,28.816,0,0,0-4.431-1.131c-.462-.077-.818-.154-1.077-.211l-.112-.024c.011.2.026.462.027.792" transform="translate(-174.716 -1919.921)" fill="#222"/>
        <path id="Trazado_56099" data-name="Trazado 56099" d="M270.383,1835.123c6.121.081,4.2.369,3.986-33.888h-8.1c.02,24.727,0,25.258.106,29.411.147,4.842-.455,4.432,4.007,4.477" transform="translate(-214.607 -1767.679)" fill="#fff"/>
        <path id="Trazado_56100" data-name="Trazado 56100" d="M270.149,1834.542c-.239,0-.49,0-.752-.007l-.165,0c-.345,0-.659,0-.946,0-3.3-.008-3.531-.238-3.576-3.515-.006-.431-.013-.926-.03-1.494-.089-3.473-.089-4.35-.1-18.99l-.008-10.991h9.2l0,.55c.052,8.19.2,14.507.315,19.12.243,10.131.317,13.189-1.025,14.545a3.83,3.83,0,0,1-2.919.789m-4.469-33.9.007,9.884c.009,14.627.01,15.5.1,18.96.017.571.025,1.072.03,1.509a4.975,4.975,0,0,0,.243,2.205,5.069,5.069,0,0,0,2.23.218c.29,0,.607,0,.956.005l.167,0c1.489.022,2.388.033,2.87-.453,1.01-1.021.921-4.745.705-13.741-.108-4.513-.256-10.657-.311-18.59Z" transform="translate(-213.463 -1766.537)" fill="#222"/>
        <path id="Trazado_56101" data-name="Trazado 56101" d="M306.883,2053.756c-.137-.207-.283-.425-.435-.657-5.929-6.819-10.6-6.3-15.53-6.359-17.584-.025-11.018-.815-20.154,2.9a30.122,30.122,0,0,1-6.1,1.255c0,11.948-2.474,10,13.608,10.016,0,24.524-.086,41.952.258,47.34.217,2.833-.263,2.474,11.013,2.21.051-32.719.025-34.4.228-37.3.212-1.994.283-1.614,2.322-1.614l.212,39.129h8.99l-.268,2.337-15.95.227c0,4.892-.035,8.241-.03,10.532h21.833v-25.081l-.1-23.6h.1Z" transform="translate(-213.435 -1933.05)" fill="#fff"/>
        <path id="Trazado_56102" data-name="Trazado 56102" d="M306.3,2123.184H283.358v-.552c0-1.04,0-2.3.011-3.819.009-1.829.02-4.042.02-6.714v-.546l16.009-.229.142-1.238h-8.919l-.212-39.137-.3-.01a3.679,3.679,0,0,0-.731.011,5.1,5.1,0,0,0-.192,1.126c-.175,2.51-.177,4.326-.209,26.567l-.017,11.218-.539.012c-1.307.031-2.456.063-3.465.091-7.451.206-7.9.218-8.089-2.5l-.022-.312c-.285-4.461-.276-17.306-.265-35.083,0-3.7,0-7.618.005-11.746-2.059,0-3.823.039-5.264.068-4.505.09-6.562.13-7.631-.954-.951-.964-.9-2.592-.8-5.548.039-1.179.085-2.515.085-4.135v-.473l.467-.073,1.356-.21a22.79,22.79,0,0,0,4.637-1.02c1.965-.8,3.2-1.39,4.1-1.822,2.612-1.251,2.727-1.25,8.706-1.173,1.807.023,4.28.054,7.538.059.36,0,.714.005,1.067.007,4.53.012,9.215.026,14.88,6.542l.046.062.264.4.261.4V2074.5h-.1l.1,23.049Zm-21.834-1.106H305.19V2097.55l-.1-24.156h.1v-20.613l-.076-.115c-.081-.121-.163-.245-.248-.375-5.324-6.108-9.55-6.12-14.024-6.133-.355,0-.712,0-1.07-.007-3.258,0-5.736-.036-7.545-.059-5.835-.074-5.835-.075-8.214,1.065-.917.439-2.173,1.04-4.18,1.858l-.043.015a23.95,23.95,0,0,1-4.823,1.064l-.887.137c-.008,1.437-.05,2.679-.084,3.7-.089,2.65-.137,4.11.479,4.735.735.745,2.77.7,6.822.624,1.573-.031,3.532-.062,5.84-.068h.552v.553c0,4.329,0,8.439-.005,12.3-.011,17.757-.02,30.587.262,35l.023.312c.081,1.153.129,1.258.646,1.395.863.227,2.8.174,6.31.076.87-.023,1.843-.051,2.931-.076l.015-10.14c.033-22.734.035-24.094.214-26.662.2-1.922.475-2.2,2.063-2.146.227.008.495.017.81.017h.55l.212,39.129h9.06l-.394,3.436-15.891.226c0,2.433-.011,4.47-.019,6.176-.006,1.258-.011,2.335-.011,3.259" transform="translate(-212.295 -1931.907)" fill="#222"/>
        <path id="Trazado_56072" data-name="Trazado 56072" d="M145.689,2049.644c-9.136-3.719-2.57-2.929-20.154-2.9-4.932.055-9.6-.461-15.53,6.359-.152.232-.3.45-.435.657v21.332h.1l-.1,23.6v25.081H131.4c.005-2.292-.03-5.641-.03-10.532l-15.95-.228-.268-2.337h8.989l.212-39.128c2.039,0,2.11-.38,2.322,1.614.2,2.9.177,4.583.227,37.3,11.276.263,10.8.621,11.013-2.211.344-5.388.258-22.815.258-47.339,16.082-.015,13.608,1.933,13.608-10.016a30.122,30.122,0,0,1-6.1-1.254" transform="translate(-109.017 -1933.05)" fill="#fff"/>
        <path id="Trazado_56073" data-name="Trazado 56073" d="M130.812,2123.183H107.875V2097.55l.1-23.052h-.1v-22.051l.264-.4c.084-.127.172-.258.261-.395l.046-.061c5.665-6.515,10.35-6.53,14.88-6.543.352,0,.706,0,1.061-.006,3.263,0,5.737-.036,7.544-.059,5.98-.078,6.093-.078,8.705,1.173.9.431,2.134,1.021,4.1,1.821a22.86,22.86,0,0,0,4.637,1.02c.392.06.839.128,1.356.209l.468.073v.473c0,1.621.045,2.957.084,4.135.1,2.955.154,4.584-.8,5.548-1.069,1.083-3.125,1.043-7.631.953-1.441-.029-3.206-.064-5.264-.068,0,4.133,0,8.059.005,11.759.011,17.77.02,30.609-.265,35.063l-.023.318c-.191,2.719-.638,2.706-8.089,2.5-1.01-.028-2.159-.06-3.465-.09l-.539-.013-.017-11.223c-.032-22.236-.034-24.052-.21-26.582a5.059,5.059,0,0,0-.191-1.106,3.756,3.756,0,0,0-.731-.011l-.3.01-.212,39.137h-8.919l.142,1.238,16.009.229v.545c0,2.673.011,4.885.02,6.715.007,1.521.013,2.779.011,3.818Zm-21.832-1.105h20.728c0-.924-.006-2-.012-3.259-.008-1.707-.018-3.743-.019-6.176l-15.891-.227-.394-3.436h9.06l.212-39.129h.55c.316,0,.583-.01.81-.017,1.59-.056,1.859.222,2.061,2.125.181,2.587.183,3.948.215,26.677l.015,10.145c1.088.027,2.061.053,2.931.078,3.512.1,5.447.151,6.31-.077.516-.136.564-.241.646-1.394l.023-.319c.282-4.41.273-17.235.262-34.984,0-3.865-.006-7.978-.006-12.312v-.552h.553c2.308,0,4.266.037,5.839.068,4.052.08,6.087.12,6.822-.625.617-.626.568-2.085.479-4.735-.034-1.018-.076-2.26-.084-3.7l-.887-.136a23.944,23.944,0,0,1-4.823-1.065l-.043-.015c-2.008-.818-3.263-1.419-4.18-1.858-2.379-1.139-2.38-1.14-8.214-1.064-1.809.023-4.287.055-7.55.059-.353,0-.709.005-1.065.006-4.474.013-8.7.025-14.024,6.133-.083.129-.166.251-.245.371l-.079.119v20.613h.1l-.1,24.159Z" transform="translate(-107.875 -1931.906)" fill="#222"/>
      </g>
      <text id="Gana_premios" data-name="Gana premios" transform="translate(264 81)" fill="#333" font-size="45" font-family="TCCC-UnityHeadline-Black, TCCC-UnityHeadline" font-weight="800"><tspan x="-173" y="0">Gana premios</tspan></text>
      <text id="increíbles_" data-name="increíbles " transform="translate(264 135)" fill="#333" font-size="45" font-family="TCCC-UnityHeadline-Black, TCCC-UnityHeadline" font-weight="800"><tspan x="-129" y="0">increíbles </tspan></text>
      <g id="Rectángulo_25699" data-name="Rectángulo 25699" transform="translate(72 168)" fill="#fff" stroke="#707070" stroke-width="1">
        <path d="M12,0H546a14,14,0,0,1,14,14V533a14,14,0,0,1-14,14H14A14,14,0,0,1,0,533V12A12,12,0,0,1,12,0Z" stroke="none"/>
        <path d="M12,.5H546A13.5,13.5,0,0,1,559.5,14V533A13.5,13.5,0,0,1,546,546.5H14A13.5,13.5,0,0,1,.5,533V12A11.5,11.5,0,0,1,12,.5Z" fill="none"/>
      </g>
      <g id="Grupo_20556" data-name="Grupo 20556" transform="translate(21.204 6.854)">
        <path id="Trazado_56879" data-name="Trazado 56879" d="M0,0V16.161a16.161,16.161,0,0,0,32.322,0V0Z" transform="translate(105.334 341.66) rotate(-90)" fill="#f40000"/>
        <path id="Trazado_56880" data-name="Trazado 56880" d="M16.861,8.43A8.431,8.431,0,1,0,8.43,16.861,8.431,8.431,0,0,0,16.861,8.43" transform="translate(113.065 333.93) rotate(-90)" fill="#ffb600"/>
      </g>
      <g id="Grupo_20557" data-name="Grupo 20557" transform="translate(21.204 87.854)">
        <path id="Trazado_56879-2" data-name="Trazado 56879" d="M0,0V16.161a16.161,16.161,0,0,0,32.322,0V0Z" transform="translate(105.334 341.66) rotate(-90)" fill="#f40000"/>
        <path id="Trazado_56880-2" data-name="Trazado 56880" d="M16.861,8.43A8.431,8.431,0,1,0,8.43,16.861,8.431,8.431,0,0,0,16.861,8.43" transform="translate(113.065 333.93) rotate(-90)" fill="#ffb600"/>
      </g>
      <g id="Grupo_20558" data-name="Grupo 20558" transform="translate(21.204 170.174)">
        <path id="Trazado_56879-3" data-name="Trazado 56879" d="M0,0V16.161a16.161,16.161,0,0,0,32.322,0V0Z" transform="translate(105.334 341.66) rotate(-90)" fill="#f40000"/>
        <path id="Trazado_56880-3" data-name="Trazado 56880" d="M16.861,8.43A8.431,8.431,0,1,0,8.43,16.861,8.431,8.431,0,0,0,16.861,8.43" transform="translate(113.065 333.93) rotate(-90)" fill="#ffb600"/>
      </g>
      <text id="metas_mensuales" data-name="metas mensuales" transform="translate(169.204 357.192)" fill="#333" font-size="30" font-family="TCCC-UnityHeadline-Bold, TCCC-UnityHeadline" font-weight="700" letter-spacing="0.01em"><tspan x="0" y="0">metas mensuales</tspan></text>
      <text id="enfriador" transform="translate(303.548 423.513)" fill="#333" font-size="32" font-family="TCCC-UnityHeadline-Bold, TCCC-UnityHeadline" font-weight="700" letter-spacing="0.01em"><tspan x="0" y="0">enfriador</tspan></text>
      <text id="Familia_Coca-Cola" data-name="Familia Coca-Cola" transform="translate(169.204 556.513)" fill="#333" font-size="32" font-family="TCCC-UnityHeadline-Bold, TCCC-UnityHeadline" font-weight="700" letter-spacing="0.01em"><tspan x="0" y="0">Familia Coca-Cola</tspan></text>
      <text id="Cumple_con_tus" data-name="Cumple con tus" transform="translate(169.538 325.192)" fill="#333" font-size="22" font-family="TCCC-UnityHeadline-Regular, TCCC-UnityHeadline"><tspan x="0" y="0">Cumple con tus</tspan></text>
      <text id="Respeta_al" data-name="Respeta al" transform="translate(169.204 422.174)" fill="#333" font-size="22" font-family="TCCC-UnityHeadline-Regular, TCCC-UnityHeadline"><tspan x="0" y="0">Respeta al</tspan></text>
      <text id="Compra_los_productos_principales_de_la" data-name="Compra los productos
principales de la" transform="translate(169.204 490.513)" fill="#333" font-size="22" font-family="TCCC-UnityHeadline-Regular, TCCC-UnityHeadline"><tspan x="0" y="0">Compra los productos</tspan><tspan x="0" y="29">principales de la</tspan></text>
      <text id="Acumula_puntos" data-name="Acumula puntos" transform="translate(326.538 252.852)" fill="#ffb600" font-size="44" font-family="TCCC-UnityHeadline-Black, TCCC-UnityHeadline" font-weight="800"><tspan x="-200" y="0">Acumula puntos</tspan></text>
      <g id="Grupo_20589" data-name="Grupo 20589" transform="translate(153.204 401.418)" opacity="0.204">
        <g id="Grupo_20586" data-name="Grupo 20586" transform="translate(283.093 137.674)">
          <path id="Trazado_56009" data-name="Trazado 56009" d="M1095.729,3430.481h0a69.391,69.391,0,0,0-7.139-15.916,13.779,13.779,0,0,1-11.969,7.654,51.852,51.852,0,0,1,.589,7.814v2.978a9.423,9.423,0,0,0,16.987,5.586,9.1,9.1,0,0,0,1.532-8.116" transform="translate(-970.953 -3314.572)" fill="#e5e5e5"/>
          <path id="Trazado_56010" data-name="Trazado 56010" d="M1085.632,3441.373a10.2,10.2,0,0,1-10.2-10.161v-2.98a51.238,51.238,0,0,0-.58-7.7l-.131-.86.87-.024a12.979,12.979,0,0,0,11.3-7.227l.619-1.251.727,1.192a70.189,70.189,0,0,1,7.218,16.093l0,.008a9.9,9.9,0,0,1-1.662,8.8,10.168,10.168,0,0,1-8.164,4.107m-9.14-20.235a52.838,52.838,0,0,1,.477,7.094v2.978a8.654,8.654,0,0,0,15.6,5.128,8.361,8.361,0,0,0,1.412-7.438,68.6,68.6,0,0,0-6.378-14.595,14.505,14.505,0,0,1-11.113,6.833" transform="translate(-969.944 -3312.771)" fill="#e5e5e5"/>
          <path id="Trazado_56011" data-name="Trazado 56011" d="M1065.168,3387.151h0a52.588,52.588,0,0,1,4.784,13.147,10.222,10.222,0,0,0,2.161-20.265,18.434,18.434,0,0,1-6.945,7.118" transform="translate(-964.872 -3296.237)" fill="#e5e5e5"/>
          <path id="Trazado_56012" data-name="Trazado 56012" d="M1069.074,3400.1c-.1,0-.2,0-.3,0l-.6-.017-.128-.586a51.829,51.829,0,0,0-4.714-12.955l-.342-.654.638-.369a17.674,17.674,0,0,0,6.655-6.821l.267-.49.548.1a10.99,10.99,0,0,1-2.022,21.793m-4.051-13.633a53.351,53.351,0,0,1,4.385,12.09,9.454,9.454,0,0,0,1.938-18.624,19.2,19.2,0,0,1-6.323,6.534" transform="translate(-963.714 -3295.267)" fill="#e5e5e5"/>
          <path id="Trazado_56015" data-name="Trazado 56015" d="M893.292,3326.7a52.8,52.8,0,0,1,30.9-9.916h2.623a53.127,53.127,0,0,1,45.335,25.456c2.7-1.606,8.223-5.887,6.229-13.134a10.153,10.153,0,0,0-9.775-7.72,5.763,5.763,0,0,1-5.352-4.549c-1.124-5.353-4.744-7.848-10.7-7.366v-.006a5.863,5.863,0,0,1-5.352-2.441c-2.5-3.567-8.243-8.6-18.573-3.567a6.078,6.078,0,0,1-4.014.5,23.006,23.006,0,0,0-10.585-.227c-4.87,1.231-8.029,4.656-9.346,10.17a5.782,5.782,0,0,1-3.834,4.175c-3.693,1.2-7.687,3.566-7.547,8.637Z" transform="translate(-873.616 -3254.456)" fill="#e5e5e5"/>
          <path id="Trazado_56016" data-name="Trazado 56016" d="M971.016,3342.424l-.4-.649a52.359,52.359,0,0,0-44.679-25.088h-2.72a51.718,51.718,0,0,0-30.351,9.771l-.436-.607-.78.011c-.123-4.453,2.594-7.612,8.078-9.39a4.981,4.981,0,0,0,3.322-3.62c1.39-5.817,4.724-9.428,9.906-10.74a23.934,23.934,0,0,1,10.966.229,5.308,5.308,0,0,0,3.481-.439c4.745-2.311,9.057-2.808,12.822-1.477a14.083,14.083,0,0,1,6.722,5.291,5.1,5.1,0,0,0,4.647,2.118l.844-.084v.04c5.851-.205,9.539,2.549,10.689,8.023a4.99,4.99,0,0,0,4.637,3.94,10.9,10.9,0,0,1,10.484,8.305c2.146,7.8-3.887,12.373-6.581,13.978Zm-47.8-27.275h2.722a53.9,53.9,0,0,1,45.583,25.167c6.262-4.062,5.989-9.148,5.24-11.871a9.377,9.377,0,0,0-9.039-7.156,6.538,6.538,0,0,1-6.1-5.158c-1.051-5-4.287-7.213-9.891-6.761l-.831.067v-.045a6.652,6.652,0,0,1-5.21-2.791c-2.321-3.316-7.69-8.15-17.61-3.321a6.856,6.856,0,0,1-4.518.555,22.382,22.382,0,0,0-10.256-.225c-4.557,1.151-7.513,4.383-8.76,9.6a6.507,6.507,0,0,1-4.342,4.727c-4.14,1.342-6.417,3.43-6.916,6.358a53.227,53.227,0,0,1,29.927-9.141" transform="translate(-872.746 -3253.585)" fill="#e5e5e5"/>
          <path id="Trazado_56013" data-name="Trazado 56013" d="M955.19,3391.441a49.614,49.614,0,0,0-49.563-49.563H903a49.613,49.613,0,0,0-49.617,49.563v10.1a2.284,2.284,0,0,0,2.288,2.287h31.652c.171.042.343.084.516.119h15.161c-.047-.036-.089-.079-.135-.119h7.609c.144.041.287.082.434.119H926.2c-.048-.038-.093-.079-.14-.119h7.521c.168.042.336.084.506.119h25.137a12.971,12.971,0,0,1-4.034-9.4Z" transform="translate(-852.432 -3275.98)" fill="#e5e5e5"/>
          <path id="Trazado_56014" data-name="Trazado 56014" d="M901.923,3403.819H886.666l-.094-.019c-.148-.03-.295-.064-.441-.1H854.593a3.242,3.242,0,0,1-3.245-3.244v-10.1a50.937,50.937,0,0,1,14.832-35.727,50.253,50.253,0,0,1,35.741-14.792h2.623a50.569,50.569,0,0,1,50.519,50.518v3.1a12.064,12.064,0,0,0,3.737,8.707l1.735,1.65H932.909l-.1-.021c-.144-.029-.287-.063-.431-.1h-4.715l.147.119h-18.1l-.115-.029c-.112-.029-.223-.06-.333-.091h-4.846l.139.115Zm-15.061-1.913h12.43l-.143-.12h10.379l.248.07c.06.017.119.034.179.05H922.47l-.144-.12h10.29l.114.029c.127.031.251.062.376.09h22.9a14,14,0,0,1-2.855-8.444v-3.1a48.658,48.658,0,0,0-48.607-48.608h-2.621a48.355,48.355,0,0,0-34.389,14.233,49.011,49.011,0,0,0-14.271,34.375v10.1a1.328,1.328,0,0,0,1.332,1.331h31.768l.112.028c.139.034.264.065.388.092" transform="translate(-851.349 -3274.898)" fill="#e5e5e5"/>
          <path id="Trazado_56020" data-name="Trazado 56020" d="M915.388,3229.674h0a13.091,13.091,0,0,0,3.907,8.37,1.785,1.785,0,0,0,2.516-.107,1.8,1.8,0,0,0,.448-1.3,1.769,1.769,0,0,0-.609-1.232,9.52,9.52,0,0,1-2.75-5.867,9.208,9.208,0,0,1,2.857-6.637,13.721,13.721,0,0,0,0-18.879,1.788,1.788,0,1,0-2.656,2.395c.268.3,6.316,7.227,0,14.077a12.608,12.608,0,0,0-3.713,9.186" transform="translate(-885.348 -3202.473)" fill="#e5e5e5"/>
          <path id="Trazado_56017" data-name="Trazado 56017" d="M919.407,3238.38a2.706,2.706,0,0,1-1.839-.714,14.121,14.121,0,0,1-3.3-4.977l-.616-1.91-.3-2.168a13.633,13.633,0,0,1,3.979-9.868c5.6-6.093.568-12.112-.025-12.778a2.745,2.745,0,0,1,4.079-3.674,14.669,14.669,0,0,1-.014,20.18l-.034.034a8.282,8.282,0,0,0-2.56,5.9,8.573,8.573,0,0,0,2.449,5.214,2.7,2.7,0,0,1,.907,1.874,2.7,2.7,0,0,1-2.725,2.884m-4.145-9.836a12.123,12.123,0,0,0,3.62,7.734.826.826,0,0,0,1.147-.073.835.835,0,0,0,.2-.587.813.813,0,0,0-.283-.577l-.048-.045a10.493,10.493,0,0,1-3.026-6.458l0-.044v-.045a10.2,10.2,0,0,1,3.135-7.309,12.762,12.762,0,0,0-.016-17.547.842.842,0,0,0-1.19-.081.834.834,0,0,0-.062,1.179c.287.324,6.87,7.9-.008,15.365l-.029.03a11.7,11.7,0,0,0-3.432,8.458" transform="translate(-884.266 -3201.391)" fill="#e5e5e5"/>
          <path id="Trazado_56021" data-name="Trazado 56021" d="M962.471,3229.691h0a13.024,13.024,0,0,0,3.907,8.37,1.8,1.8,0,0,0,1.2.461,1.762,1.762,0,0,0,1.318-.569,1.788,1.788,0,0,0-.107-2.536,9.485,9.485,0,0,1-2.763-5.867,9.312,9.312,0,0,1,2.87-6.637,13.721,13.721,0,0,0,0-18.879,1.776,1.776,0,0,0-2.623,2.4c.267.3,6.316,7.226,0,14.076a12.647,12.647,0,0,0-3.8,9.187" transform="translate(-910.347 -3202.489)" fill="#e5e5e5"/>
          <path id="Trazado_56018" data-name="Trazado 56018" d="M966.517,3238.4a2.806,2.806,0,0,1-1.86-.707,13.985,13.985,0,0,1-4.222-9.01l0-.058a13.67,13.67,0,0,1,4.069-9.864c5.6-6.094.566-12.109-.027-12.775a2.732,2.732,0,0,1,4.042-3.677,14.67,14.67,0,0,1-.011,20.184l-.033.033a8.4,8.4,0,0,0-2.574,5.907,8.548,8.548,0,0,0,2.467,5.215,2.74,2.74,0,0,1-1.848,4.752m-4.172-9.827a12.056,12.056,0,0,0,3.618,7.725.9.9,0,0,0,.543.19.808.808,0,0,0,.605-.262.83.83,0,0,0,.22-.6.821.821,0,0,0-.269-.576l-.033-.031a10.461,10.461,0,0,1-3.041-6.459l0-.048v-.048a10.329,10.329,0,0,1,3.148-7.3,12.76,12.76,0,0,0-.015-17.547.82.82,0,1,0-1.218,1.1c.286.323,6.873,7.9-.008,15.364l-.035.036a11.747,11.747,0,0,0-3.513,8.462" transform="translate(-909.265 -3201.412)" fill="#e5e5e5"/>
          <path id="Trazado_56022" data-name="Trazado 56022" d="M1009.527,3229.763h0a12.984,12.984,0,0,0,3.927,8.37,1.788,1.788,0,0,0,2.409-2.643,8.322,8.322,0,0,1,.107-12.5,13.734,13.734,0,0,0,0-18.88,1.786,1.786,0,0,0-2.643,2.395c.247.3,6.316,7.226,0,14.077a12.7,12.7,0,0,0-3.8,9.187" transform="translate(-935.331 -3202.561)" fill="#e5e5e5"/>
          <path id="Trazado_56019" data-name="Trazado 56019" d="M1013.581,3238.469a2.768,2.768,0,0,1-1.847-.707,13.948,13.948,0,0,1-4.242-9.009l0-.062a13.716,13.716,0,0,1,4.069-9.86c5.321-5.794.916-11.654-.023-12.771l-.028-.034a2.743,2.743,0,0,1,4.051-3.686,14.694,14.694,0,0,1,.025,20.22l-.034.034a7.373,7.373,0,0,0-.1,11.132,2.74,2.74,0,0,1-1.871,4.742m-4.18-9.828a12.018,12.018,0,0,0,3.635,7.721.851.851,0,0,0,.535.194.828.828,0,0,0,.565-1.441,10.362,10.362,0,0,1-3.077-6.491l0-.047v-.046a10.333,10.333,0,0,1,3.155-7.3,12.775,12.775,0,0,0-.016-17.549.831.831,0,0,0-1.2,1.141c3.1,3.691,4.945,9.911-.043,15.322l-.034.035a11.8,11.8,0,0,0-3.514,8.462" transform="translate(-934.248 -3201.481)" fill="#e5e5e5"/>
        </g>
      </g>
      <g transform="matrix(1, 0, 0, 1, 0, 0)" filter="url(#Trazado_57308)">
        <path id="Trazado_57308-2" data-name="Trazado 57308" d="M0,615S117.589,473.3,78.215,235.715C59.2,108.214,35.892,69.912,39.108,0H75S46.875,66.429,84.911,239.465C107.37,341.639,133.929,490.18,78.215,615Z" transform="translate(615 580.32) rotate(90)" fill="#f40000"/>
      </g>
      <g id="Grupo_20590" data-name="Grupo 20590" transform="translate(3243.579 3812.608)">
        <path id="Trazado_57314" data-name="Trazado 57314" d="M1508.044,315.507a20.109,20.109,0,1,0,25.064,13.437,20.109,20.109,0,0,0-25.064-13.437" transform="translate(-4255.456 -3837.658)" fill="#f40000"/>
        <path id="Trazado_57315" data-name="Trazado 57315" d="M1588.391,431.413a12.232,12.232,0,1,0,15.245,8.173,12.233,12.233,0,0,0-15.245-8.173" transform="translate(-4298.727 -3896.181)" fill="#f40000"/>
        <path id="Trazado_57316" data-name="Trazado 57316" d="M1612.468,537.171a6.811,6.811,0,1,0,8.489,4.551,6.811,6.811,0,0,0-8.489-4.551" transform="translate(-4312.79 -3949.542)" fill="#f40000"/>
        <path id="Trazado_57318" data-name="Trazado 57318" d="M1617.91,886.885l-.029-.086a68.718,68.718,0,0,1-4.168-25.41v-.053c.013-13.5,3.817-37.909,5.067-45.93.244-1.559.353-2.261.387-2.557.058-.472.126-.943.19-1.406.313-2.2.682-4.8-.361-6.529.385-1.783.633-5.071.533-11.436a199.18,199.18,0,0,0-1.389-20.568c-.657-5.091-1.369-7.943-2.1-9.591.82-1.715.568-4.311.126-7.643l-.05-.379c-.474-3.657-2.52-9.965-5.11-17.952-1.513-4.664-3.227-9.95-4.818-15.33l-1.513-3.584-1.525.072c-5.8.273-30.416.083-39.682.011l-3.4-.026-.676,2.273c-.129.43-.255.851-.372,1.253-1.582,5.336-3.286,10.587-4.789,15.22-2.608,8.04-4.668,14.391-5.14,18.062l-.054.414c-.437,3.315-.684,5.9.13,7.608-.734,1.655-1.449,4.527-2.109,9.668a199.4,199.4,0,0,0-1.38,20.531c-.1,6.338.15,9.616.534,11.4-1.041,1.723-.674,4.321-.362,6.524.065.465.132.937.19,1.409.036.293.142.971.375,2.474,1.253,8.029,5.065,32.461,5.081,46.017v.053a68.8,68.8,0,0,1-4.151,25.411l-.029.084a46.509,46.509,0,0,0-1.911,14c.159,6.806,2.19,11.507,5.873,13.6,4.552,2.579,18.314,4.6,31.332,4.6,14.542,0,27.35-2.339,31.331-4.6,8.975-5.088,5.407-23.059,3.961-27.594" transform="translate(-4281.464 -4040.945)" fill="#f40000"/>
        <path id="Trazado_57317" data-name="Trazado 57317" d="M1579.606,857.418c-11.532,0-26.571-1.766-31.777-4.722-10.937-6.2-4.45-28.435-4.379-28.657.139-.442.3-.922.472-1.436a67.38,67.38,0,0,0,3.665-23.819c-.016-13.439-3.806-37.785-5.051-45.785l-.014-.088c-.218-1.33-.34-2.209-.381-2.5-.057-.471-.12-.918-.185-1.36a11.453,11.453,0,0,1,.32-6.813,58.35,58.35,0,0,1-.508-11.3,200.877,200.877,0,0,1,1.375-20.569,38.927,38.927,0,0,1,2.068-9.655,16.026,16.026,0,0,1-.071-7.752l.057-.421a133.885,133.885,0,0,1,5.174-18.164c1.411-4.348,3.179-9.794,4.78-15.192l.485-1.639a158.061,158.061,0,0,0,5.219-20.961,127.648,127.648,0,0,0,.684-16.551v-.453a6.749,6.749,0,0,1-1.682-5.188,21.343,21.343,0,0,1,2.086-6.613l.016-.038c.167-.391.38-.895.514-1.242a6.607,6.607,0,0,1-1.246-7.133,7.527,7.527,0,0,1,5.969-4.364,90.982,90.982,0,0,1,24.812,0,7.522,7.522,0,0,1,5.946,4.339,6.633,6.633,0,0,1-1.232,7.146c.068.17.152.373.238.583.1.238.2.485.288.706a21.35,21.35,0,0,1,2.079,6.567,6.751,6.751,0,0,1-1.677,5.222v.437a128.279,128.279,0,0,0,.684,16.56,158.63,158.63,0,0,0,5.22,20.966l.483,1.63c1.53,5.153,3.183,10.253,4.641,14.752l.149.459a133.729,133.729,0,0,1,5.166,18.148l.011.066.045.351a16.125,16.125,0,0,1-.071,7.751,38.806,38.806,0,0,1,2.066,9.653,200.425,200.425,0,0,1,1.38,20.579,58.056,58.056,0,0,1-.509,11.282,11.381,11.381,0,0,1,.321,6.816c-.063.441-.126.892-.182,1.343-.034.277-.156,1.068-.384,2.525-1.25,8.011-5.052,32.381-5.065,45.843a67.43,67.43,0,0,0,3.659,23.831l.056.17c.149.451.29.873.418,1.27,1.495,4.685,5.129,23.271-4.376,28.661-5.17,2.974-20.207,4.753-31.755,4.753m-32.754-164.56-.066.46a14.342,14.342,0,0,0,.117,7.209l.071.258-.09.252a37.3,37.3,0,0,0-2.066,9.505A199.515,199.515,0,0,0,1543.45,731a56.8,56.8,0,0,0,.522,11.212l.032.219-.079.206a9.786,9.786,0,0,0-.33,6.037l.019.092c.069.471.136.947.194,1.424.039.278.159,1.142.375,2.458l.015.095c1.251,8.032,5.056,32.473,5.071,46.021a69.012,69.012,0,0,1-3.755,24.385c-.168.5-.324.966-.461,1.4-1.4,4.411-4.9,21.861,3.605,26.685,4.965,2.818,19.633,4.5,30.946,4.5s25.989-1.694,30.92-4.53c4.465-2.532,5.453-8.645,5.5-13.326a47.97,47.97,0,0,0-1.887-13.36q-.19-.584-.414-1.254l-.053-.161a69.047,69.047,0,0,1-3.747-24.394c.013-13.57,3.83-38.037,5.084-46.077.179-1.145.343-2.193.376-2.473.061-.482.127-.958.193-1.424l.02-.1a9.716,9.716,0,0,0-.329-6.036l-.08-.207.032-.219a56.5,56.5,0,0,0,.523-11.2,199.132,199.132,0,0,0-1.372-20.467,37.2,37.2,0,0,0-2.064-9.5l-.091-.251.071-.258a14.425,14.425,0,0,0,.116-7.214l-.017-.091-.046-.362a132.029,132.029,0,0,0-5.1-17.914l-.158-.487c-1.461-4.509-3.117-9.619-4.654-14.793l-.476-1.611a160.312,160.312,0,0,1-5.275-21.2l-.008-.058a129.933,129.933,0,0,1-.7-16.788v-1.1l.244-.246a5.056,5.056,0,0,0,1.447-4.089,19.651,19.651,0,0,0-1.927-6.047l-.032-.07c-.088-.224-.193-.477-.294-.722-.154-.373-.3-.726-.374-.934l-.057-.158.008-.167a1.306,1.306,0,0,1,.476-1.076,4.945,4.945,0,0,0,.959-5.351,5.845,5.845,0,0,0-4.624-3.353,89.379,89.379,0,0,0-24.379,0,5.852,5.852,0,0,0-4.648,3.379,4.92,4.92,0,0,0,.967,5.328,1.3,1.3,0,0,1,.476,1.127v.135l-.042.128c-.121.368-.406,1.038-.656,1.629l-.052.117a19.632,19.632,0,0,0-1.929,6.082,5.061,5.061,0,0,0,1.451,4.057l.244.246v1.112a129.3,129.3,0,0,1-.7,16.78l-.008.057a159.586,159.586,0,0,1-5.275,21.194l-.479,1.619c-1.608,5.419-3.379,10.876-4.8,15.261a132.187,132.187,0,0,0-5.111,17.931" transform="translate(-4279.487 -3978.38)" fill="#222"/>
      </g>
    </g>
  </g>
</svg>
