<svg xmlns="http://www.w3.org/2000/svg" xmlns:xlink="http://www.w3.org/1999/xlink" height="35" viewBox="0 0 35 50">
  <defs>
    <clipPath id="clip-path">
      <rect id="Rect치ngulo_24178" data-name="Rect치ngulo 24178" width="35" height="32.579" fill="none"/>
    </clipPath>
  </defs>
  <g id="logo-pleca" transform="translate(-112 -68)">
    <rect id="Rect치ngulo_25236" data-name="Rect치ngulo 25236" width="35" height="35" transform="translate(112 68)" fill="none"/>
    <g id="Grupo_20026" data-name="Grupo 20026" transform="translate(112 84)">
      <g id="Grupo_20025" data-name="Grupo 20025" clip-path="url(#clip-path)">
        <path id="Trazado_45565" data-name="Trazado 45565" d="M33.787,15.251a7.3,7.3,0,0,0-1.834-2.123,11.3,11.3,0,0,0-2.51-1.473q-1.4-.6-2.751-1.038-1.06-.337-2-.675a15.484,15.484,0,0,1-1.666-.7,4.827,4.827,0,0,1-1.158-.772,1.262,1.262,0,0,1-.434-.941v-.1a1.541,1.541,0,0,1,.676-1.279,3.359,3.359,0,0,1,2.027-.507,9.822,9.822,0,0,1,3.233.652,23.213,23.213,0,0,1,3.765,1.761l2.8-5.068A18.536,18.536,0,0,0,29.274.8a16.583,16.583,0,0,0-5-.8,12.4,12.4,0,0,0-3.692.531A8.638,8.638,0,0,0,17.6,2.123a7.762,7.762,0,0,0-2.027,2.582,6.991,6.991,0,0,0-.576,1.712,16.283,16.283,0,0,0-4.23-.576,12.43,12.43,0,0,0-3.693.531A8.638,8.638,0,0,0,4.077,7.965,7.606,7.606,0,0,0,1.3,14.047v.1A6.647,6.647,0,0,0,2,17.328a7.057,7.057,0,0,0,1.81,2.2A9.727,9.727,0,0,0,6.3,20.972a27.292,27.292,0,0,0,2.727.942q1.06.338,2.027.626a17.559,17.559,0,0,1,1.714.6,3.645,3.645,0,0,1,1.182.748,1.387,1.387,0,0,1,.435,1.014V25a1.64,1.64,0,0,1-.749,1.4,4.081,4.081,0,0,1-2.34.532,11.428,11.428,0,0,1-3.934-.772,17.43,17.43,0,0,1-4.223-2.318L0,28.67a18.111,18.111,0,0,0,11.1,3.91,14.378,14.378,0,0,0,3.885-.507,9.464,9.464,0,0,0,3.162-1.521,6.883,6.883,0,0,0,2.1-2.582,7.274,7.274,0,0,0,.551-1.677,17.244,17.244,0,0,0,3.821.444A14.35,14.35,0,0,0,28.5,26.23a9.448,9.448,0,0,0,3.162-1.52,6.872,6.872,0,0,0,2.1-2.583,8.615,8.615,0,0,0,.748-3.74v-.1a5.99,5.99,0,0,0-.723-3.04" fill="#fd2905"/>
        <path id="Trazado_45566" data-name="Trazado 45566" d="M28.617,22.262a6.731,6.731,0,0,0,.557-2.4c-.1-.634-1.329-.941-1.844-.98a5.925,5.925,0,0,1-2.151-.472,36.533,36.533,0,0,1-3.6-1.882c-.234-.127-.454-.283-.565-.173-.06-.209-3.149-1.27-3.376-1.038.054-.139-.3-.219-.552-.282-.449-.12-1.608-.143-2.834-.257a14.65,14.65,0,0,1-1.951-.264,12.4,12.4,0,0,1-1.46-.509.347.347,0,0,0-.246-.239,4.5,4.5,0,0,0-.678-.039.242.242,0,0,1-.16-.143.308.308,0,0,0-.283-.156c-.145-.011-.239.126-.292.2a6.089,6.089,0,0,0-.408.862,6.216,6.216,0,0,0-.286.9c-.012.1-.036.261.077.35a.308.308,0,0,0,.316.078.242.242,0,0,1,.215,0,5.443,5.443,0,0,0,.523.438.357.357,0,0,0,.344-.011,11.835,11.835,0,0,1,1.42.615A14.511,14.511,0,0,1,12.985,18c.977.744,1.846,1.516,2.254,1.734.224.123.542.306.6.165.008.327,2.995,1.643,3.181,1.534.007.152.276.189.536.253a37.432,37.432,0,0,1,3.923,1.067,6.022,6.022,0,0,1,1.9,1.111c.4.323,1.517.935,2.017.538a6.712,6.712,0,0,0,1.221-2.145" transform="translate(-1.571 -2.492)" fill="#fff"/>
      </g>
    </g>
  </g>
</svg>
