<svg xmlns="http://www.w3.org/2000/svg" xmlns:xlink="http://www.w3.org/1999/xlink" width="414" height="64" viewBox="0 0 414 64">
  <defs>
    <clipPath id="clip-path">
      <rect id="Rectángulo_23899" data-name="Rectángulo 23899" width="414" height="64" transform="translate(26.96 49.489)" fill="none"/>
    </clipPath>
  </defs>
  <g id="Header_App" data-name="Header App" transform="translate(-26.96 -49.489)">
    <rect id="Rectángulo_23898" data-name="Rectángulo 23898" width="414" height="64" transform="translate(26.96 49.489)" fill="#f40000"/>
    <g id="Grupo_19933" data-name="Grupo 19933">
      <g id="Grupo_19932" data-name="Grupo 19932" clip-path="url(#clip-path)">
        <path id="Trazado_43360" data-name="Trazado 43360" d="M157.475,116.484a35.231,35.231,0,0,0-33.732-23.891l-27.481.3" fill="none" stroke="#fff" stroke-linecap="round" stroke-width="0.724" stroke-dasharray="12.975 21.626 1.636 12.975 21.626 1.636"/>
        <line id="Línea_1116" data-name="Línea 1116" x1="6.902" y2="0.076" transform="translate(88.547 92.905)" fill="none" stroke="#fff" stroke-linecap="round" stroke-width="0.724"/>
        <path id="Trazado_43361" data-name="Trazado 43361" d="M146.35,130.541a22.581,22.581,0,0,0,.166-3.014,22.4,22.4,0,0,0-17.722-21.638" fill="none" stroke="#fff" stroke-linecap="round" stroke-width="0.724" stroke-dasharray="6.042 9.666 1.208 6.042 9.666 1.208"/>
        <path id="Trazado_43362" data-name="Trazado 43362" d="M128.2,105.771a22.649,22.649,0,0,0-4.33-.367s-1.787.021-4.352.051" fill="none" stroke="#fff" stroke-linecap="round" stroke-width="0.724"/>
        <path id="Trazado_43363" data-name="Trazado 43363" d="M114.761,105.509l-8.626.1" fill="none" stroke="#fff" stroke-linecap="round" stroke-width="0.724" stroke-dasharray="0.595 2.974 4.759 0.595"/>
        <path id="Trazado_43364" data-name="Trazado 43364" d="M105.84,105.609l-4.352.049" fill="none" stroke="#fff" stroke-linecap="round" stroke-width="0.724"/>
        <path id="Trazado_43365" data-name="Trazado 43365" d="M85.606,104.8A32.186,32.186,0,0,1,62.7,114.285v-8.68a23.719,23.719,0,0,0,0-47.437H0v-8.68H62.7A32.4,32.4,0,0,1,85.606,104.8" fill="#0fa251"/>
        <path id="Trazado_43366" data-name="Trazado 43366" d="M424.94,101.033a32.19,32.19,0,0,1-9.489-22.909h8.681a23.718,23.718,0,0,0,47.436,0v-62.7h8.68v62.7a32.4,32.4,0,0,1-55.308,22.909" fill="#ff8300"/>
        <path id="Trazado_43367" data-name="Trazado 43367" d="M162.714,49.488h-8.68a23.561,23.561,0,0,1-6.947,16.771c-.048.049-.1.093-.148.141l.041.039a32.522,32.522,0,0,1,5.26,6.9c.333-.307.663-.616.985-.938a32.186,32.186,0,0,0,9.489-22.909" fill="#fff"/>
        <path id="Trazado_43368" data-name="Trazado 43368" d="M152.24,73.335a32.52,32.52,0,0,0-5.261-6.9c-.013-.013-.027-.025-.04-.039A32.421,32.421,0,0,0,109.3,60.5a23.8,23.8,0,0,0,4.243,5.756c.426.426.87.828,1.322,1.218a23.747,23.747,0,0,1,24.653,3.881c.452.389.9.791,1.323,1.218a23.615,23.615,0,0,1,6.947,16.771v24.184h8.68V89.348a32.2,32.2,0,0,0-4.229-16.013" fill="#0086cc"/>
        <path id="Trazado_43369" data-name="Trazado 43369" d="M140.842,72.577c-.426-.426-.87-.829-1.322-1.218a23.747,23.747,0,0,1-24.653-3.881c-.453-.39-.9-.792-1.323-1.218A23.615,23.615,0,0,1,106.6,49.488h-8.68A32.207,32.207,0,0,0,102.146,65.5a32.573,32.573,0,0,0,5.26,6.9l.041.038a32.42,32.42,0,0,0,37.638,5.9,23.775,23.775,0,0,0-4.243-5.756" fill="#fff"/>
        <path id="Trazado_43370" data-name="Trazado 43370" d="M294.964,46.861A35.232,35.232,0,0,0,328.7,70.752l27.48-.3" fill="none" stroke="#fff" stroke-linecap="round" stroke-width="0.724" stroke-dasharray="12.975 21.626 1.636 12.975 21.626 1.636"/>
        <line id="Línea_1117" data-name="Línea 1117" y1="0.076" x2="6.902" transform="translate(356.99 70.364)" fill="none" stroke="#fff" stroke-linecap="round" stroke-width="0.724"/>
        <path id="Trazado_43371" data-name="Trazado 43371" d="M306.089,32.8a22.579,22.579,0,0,0-.166,3.014,22.4,22.4,0,0,0,17.722,21.638" fill="none" stroke="#fff" stroke-linecap="round" stroke-width="0.724" stroke-dasharray="6.042 9.666 1.208 6.042 9.666 1.208"/>
        <path id="Trazado_43372" data-name="Trazado 43372" d="M324.238,57.573a22.483,22.483,0,0,0,4.33.367s1.787-.021,4.352-.051" fill="none" stroke="#fff" stroke-linecap="round" stroke-width="0.724"/>
        <path id="Trazado_43373" data-name="Trazado 43373" d="M337.678,57.836l8.626-.1" fill="none" stroke="#fff" stroke-linecap="round" stroke-width="0.724" stroke-dasharray="0.595 2.974 4.759 0.595"/>
        <path id="Trazado_43374" data-name="Trazado 43374" d="M346.6,57.736l4.352-.049" fill="none" stroke="#fff" stroke-linecap="round" stroke-width="0.724"/>
        <path id="Trazado_43375" data-name="Trazado 43375" d="M400.277,49.463a32.189,32.189,0,0,1,22.909,9.488l-6.138,6.139a23.718,23.718,0,1,0-33.542,33.542l44.333,44.334L421.7,149.1l-44.333-44.333a32.4,32.4,0,0,1,22.909-55.308" fill="#ffdd04"/>
      </g>
    </g>
  </g>
</svg>
