<svg id="ic-compra-app" xmlns="http://www.w3.org/2000/svg" xmlns:xlink="http://www.w3.org/1999/xlink" width="82" height="82" viewBox="0 0 82 82">
	<defs>
		<clipPath id="clip-path">
			<rect id="Rectángulo_22346" width="24.83" height="42" fill="none" />
		</clipPath>
		<clipPath id="clip-path-2">
			<rect width="82" height="82" fill="none"/>
		</clipPath>
	</defs>

	<g id="Grupo_19641" transform="translate(28.5 20)">
		<g clip-path="url(#clip-path)">
			<!-- Contorno del dispositivo -->
			<rect width="22.829" height="40" rx="3.449" transform="translate(1 1)" fill="none" stroke="#707070" stroke-linecap="round" stroke-width="2"/>

			<!-- Figura central (persona) -->
			<path d="M12.415,30.32a7.709,7.709,0,0,0,2.7-.385c.612-.347.433-1.7.263-2.233A6.37,6.37,0,0,1,15,25.362a38.417,38.417,0,0,1,.489-4.35c.035-.285.105-.569-.051-.634.191-.141.038-3.655-.3-3.789.169,0,.109-.394.074-.665-.065-.5-.5-1.669-.881-2.94a15.672,15.672,0,0,1-.518-2.058,13.054,13.054,0,0,1-.063-1.666.371.371,0,0,0,.151-.338,5.188,5.188,0,0,0-.24-.7.255.255,0,0,1,.085-.216.332.332,0,0,0,.047-.349c-.048-.144-.226-.188-.329-.212a6.96,6.96,0,0,0-1.05-.07,6.96,6.96,0,0,0-1.05.07c-.1.024-.281.068-.329.212a.332.332,0,0,0,.047.349.255.255,0,0,1,.085.216,5.188,5.188,0,0,0-.24.7.371.371,0,0,0,.151.338,13.054,13.054,0,0,1-.063,1.666,15.672,15.672,0,0,1-.518,2.058c-.377,1.271-.816,2.443-.881,2.94-.035.271-.095.665.074.665-.333.134-.486,3.648-.3,3.789-.156.065-.086.349-.051.634a38.417,38.417,0,0,1,.489,4.35,6.37,6.37,0,0,1-.382,2.34c-.17.532-.349,1.886.263,2.233A7.709,7.709,0,0,0,12.415,30.32Z"
			  fill="none" stroke="#707070" stroke-linecap="round" stroke-linejoin="round" stroke-width="1.5"/>
		</g>

		<!-- Línea inferior (posiblemente base o botón) -->
		<line x2="4.147" transform="translate(10.341 37.443)" fill="none" stroke="#707070" stroke-linecap="round" stroke-width="2"/>
	</g>

	<!-- Marco exterior transparente -->
	<g id="Grupo_19643">
		<g clip-path="url(#clip-path-2)">
			<rect width="80.392" height="80.392" transform="translate(0.804 0.804)" fill="none"/>
		</g>
	</g>
</svg>
