<svg id="ic-enfriador" xmlns="http://www.w3.org/2000/svg" xmlns:xlink="http://www.w3.org/1999/xlink" width="82" height="82" viewBox="0 0 82 82">
	<defs>
		<clipPath id="clip-path">
			<rect id="Rect치ngulo_23081" data-name="Rect치ngulo 23081" width="58.559" height="68.284" fill="#707070"></rect>
		</clipPath>
	</defs>
	<rect id="Rect치ngulo_23087" data-name="Rect치ngulo 23087" width="82" height="82" fill="none"></rect>
	<g id="Grupo_19627" data-name="Grupo 19627" transform="translate(11.721 6.857)">
		<g id="Grupo_19626" data-name="Grupo 19626" transform="translate(0 0)" clip-path="url(#clip-path)">
			<path id="Trazado_42541" class="rojo" data-name="Trazado 42541" d="M8.451,3.656a3.469,3.469,0,0,1,.616.055c.079.022.2.048.23.144s.049.2-.026.248a.182.182,0,0,0-.049.148,2.387,2.387,0,0,1,.178.473.249.249,0,0,1-.1.225A10.5,10.5,0,0,0,9.35,6.091a8.726,8.726,0,0,0,.355,1.415c.253.872.559,1.688.608,2.039.026.2.076.473-.049.473a6.633,6.633,0,0,1,.2,2.634c.1.048.049.248.026.447a22.945,22.945,0,0,0-.355,3,4.048,4.048,0,0,0,.253,1.614c.128.373.253,1.293-.178,1.541a5.287,5.287,0,0,1-1.9.273,5.589,5.589,0,0,1-1.93-.273c-.434-.225-.306-1.167-.178-1.541a3.868,3.868,0,0,0,.28-1.614,25.1,25.1,0,0,0-.332-3c-.023-.2-.076-.4.026-.447a7.082,7.082,0,0,1,.2-2.634c-.128,0-.076-.273-.049-.473.049-.347.355-1.167.635-2.039a7.612,7.612,0,0,0,.382-1.415A9.618,9.618,0,0,0,7.4,4.949a.239.239,0,0,1-.1-.225,3.114,3.114,0,0,1,.178-.473A.149.149,0,0,0,7.4,4.1a.286.286,0,0,1-.026-.248c.026-.1.151-.122.23-.144a4.132,4.132,0,0,1,.638-.052h.215m0-.731H8.338l-.1-.007a5.27,5.27,0,0,0-.763.063.6.6,0,0,0-.117.03l-.015,0a.943.943,0,0,0-.7.624,1,1,0,0,0,0,.632q-.045.127-.079.255a1.089,1.089,0,0,0-.026.118.986.986,0,0,0,.1.539c0,.27-.019.543-.045.813a6.987,6.987,0,0,1-.34,1.26l-.011.03c-.083.266-.174.528-.253.768A9.4,9.4,0,0,0,5.58,9.442l-.008.07a1.792,1.792,0,0,0-.015.532,5.2,5.2,0,0,0-.11.68,8.886,8.886,0,0,0-.06,1.847,1.523,1.523,0,0,0,0,.539l.011.078,0,.033a24.4,24.4,0,0,1,.321,2.915A3.186,3.186,0,0,1,5.5,17.447l-.015.037c-.178.506-.419,1.932.54,2.424A6.368,6.368,0,0,0,8.3,20.27a5.911,5.911,0,0,0,2.293-.377,1.936,1.936,0,0,0,.5-2.405l-.008-.022a3.294,3.294,0,0,1-.208-1.326,22.125,22.125,0,0,1,.344-2.907l.008-.041.011-.081a1.55,1.55,0,0,0,0-.528,6.158,6.158,0,0,0,.019-.7,12.513,12.513,0,0,0-.094-1.356,3.63,3.63,0,0,0-.091-.5,1.946,1.946,0,0,0-.019-.514l-.008-.055a8.453,8.453,0,0,0-.332-1.182c-.094-.3-.2-.632-.3-.968l-.011-.03A7.935,7.935,0,0,1,10.09,6c-.03-.27-.042-.543-.045-.813a.96.96,0,0,0,.1-.543.432.432,0,0,0-.019-.1,2.537,2.537,0,0,0-.087-.288,1.146,1.146,0,0,0-.011-.576.936.936,0,0,0-.718-.672l-.015,0a.422.422,0,0,0-.1-.022,4.567,4.567,0,0,0-.744-.066" transform="translate(14.781 7.87)" fill="#707070"></path>
			<path id="Trazado_42542" class="rojo" data-name="Trazado 42542" d="M8.9,21.127c-.079,0-.159,0-.238-.007a6.73,6.73,0,0,1-2.436-.388c-1.292-.658-1.111-2.279-.842-3.048a2.754,2.754,0,0,0,.215-1.167,24.357,24.357,0,0,0-.314-2.856l.48-.192-.495.089a1.976,1.976,0,0,1-.015-.65,9.318,9.318,0,0,1,.068-1.892,5.975,5.975,0,0,1,.1-.639,2.213,2.213,0,0,1,.03-.591,9.13,9.13,0,0,1,.438-1.541c.076-.222.159-.48.246-.743a7.2,7.2,0,0,0,.336-1.227c.015-.192.03-.41.034-.632a1.446,1.446,0,0,1-.091-.695,1.151,1.151,0,0,1,.038-.192c.011-.048.026-.1.042-.144A1.452,1.452,0,0,1,7.6,2.895a.767.767,0,0,1,.159-.037,5,5,0,0,1,.846-.07l.132.007a.331.331,0,0,1,.083-.007,5.182,5.182,0,0,1,.831.07,1.361,1.361,0,0,1,.166.041,1.415,1.415,0,0,1,1.069,1.02,1.594,1.594,0,0,1,.042.669,1.974,1.974,0,0,1,.057.2.773.773,0,0,1,.03.163,1.456,1.456,0,0,1-.091.7c0,.222.015.447.038.665a7.855,7.855,0,0,0,.3,1.171c.106.362.208.672.295.949a9.338,9.338,0,0,1,.363,1.289,2.685,2.685,0,0,1,.042.628,4.119,4.119,0,0,1,.083.48,13.275,13.275,0,0,1,.1,1.4,6.061,6.061,0,0,1-.015.691,2.085,2.085,0,0,1-.015.632l-.015.1a21.936,21.936,0,0,0-.34,2.871,2.8,2.8,0,0,0,.178,1.127.46.46,0,0,1,.034.133,2.332,2.332,0,0,1-.748,2.889,6.333,6.333,0,0,1-2.327.451M8.666,19.4a4.913,4.913,0,0,0,1.673-.222,1.707,1.707,0,0,0-.057-.942,4.505,4.505,0,0,1-.28-1.8,23.978,23.978,0,0,1,.366-3.07l.019-.137a.425.425,0,0,1-.049-.166.471.471,0,0,1,.038-.251,9.616,9.616,0,0,0-.136-2.128.484.484,0,0,1-.1-.41.536.536,0,0,1,.06-.159l-.011-.089A7.971,7.971,0,0,0,9.9,9c-.1-.307-.208-.647-.31-1a9.328,9.328,0,0,1-.37-1.47A10.6,10.6,0,0,1,9.164,5.3a.474.474,0,0,1,.072-.248,1.731,1.731,0,0,0-.1-.222.526.526,0,0,1-.049-.166.917.917,0,0,1,0-.144L8.9,4.509l-.072,0H8.617c-.091,0-.178,0-.268.011a.509.509,0,0,1,0,.151.463.463,0,0,1-.042.14q-.057.122-.1.244a.454.454,0,0,1,.068.24,10.5,10.5,0,0,1-.049,1.2,8.561,8.561,0,0,1-.412,1.541c-.079.248-.166.514-.253.761A10.685,10.685,0,0,0,7.2,9.973l-.023.144a.477.477,0,0,1,.064.148.486.486,0,0,1-.087.406,10.031,10.031,0,0,0-.147,2.146A.491.491,0,0,1,7,13.232l.008.059.015.107a25.917,25.917,0,0,1,.336,3.04,4.3,4.3,0,0,1-.317,1.821A1.762,1.762,0,0,0,7,19.176a5.08,5.08,0,0,0,1.666.222m2.712-5.955-.008.052.246-.007Zm-4.609.011h0M9.361,4.561h0Zm0-.51h0" transform="translate(14.407 7.508)" fill="#707070"></path>
			<path id="Trazado_42543" class="rojo" data-name="Trazado 42543" d="M10.709,3.656a3.469,3.469,0,0,1,.616.055c.079.022.2.048.23.144s.049.2-.026.248a.182.182,0,0,0-.049.148,2.387,2.387,0,0,1,.178.473.25.25,0,0,1-.1.225,10.5,10.5,0,0,0,.053,1.142,8.726,8.726,0,0,0,.355,1.415c.253.872.559,1.688.608,2.039.026.2.076.473-.049.473a6.633,6.633,0,0,1,.2,2.634c.1.048.049.248.026.447a22.945,22.945,0,0,0-.355,3,4.048,4.048,0,0,0,.253,1.614c.128.373.253,1.293-.178,1.541a5.287,5.287,0,0,1-1.9.273,5.589,5.589,0,0,1-1.93-.273c-.434-.225-.306-1.167-.178-1.541a3.868,3.868,0,0,0,.28-1.614,25.1,25.1,0,0,0-.332-3c-.026-.2-.076-.4.026-.447a7.082,7.082,0,0,1,.2-2.634c-.128,0-.076-.273-.049-.473.049-.347.355-1.167.635-2.039a7.612,7.612,0,0,0,.382-1.415,9.618,9.618,0,0,0,.049-1.142.239.239,0,0,1-.1-.225,3.114,3.114,0,0,1,.178-.473A.149.149,0,0,0,9.659,4.1a.286.286,0,0,1-.026-.248c.026-.1.151-.122.23-.144A4.132,4.132,0,0,1,10.5,3.66h.215m0-.731H10.6l-.1-.007a5.27,5.27,0,0,0-.763.063.6.6,0,0,0-.117.03l-.015,0a.943.943,0,0,0-.7.624,1,1,0,0,0,0,.632q-.045.127-.079.255a1.089,1.089,0,0,0-.026.118.986.986,0,0,0,.1.539c0,.27-.019.543-.045.813a6.988,6.988,0,0,1-.34,1.26l-.011.03c-.083.266-.174.528-.253.768a9.4,9.4,0,0,0-.408,1.385l-.008.07a1.792,1.792,0,0,0-.015.532,5.2,5.2,0,0,0-.11.68,8.885,8.885,0,0,0-.06,1.847,1.523,1.523,0,0,0,0,.539l.011.078,0,.033a24.4,24.4,0,0,1,.321,2.915,3.186,3.186,0,0,1-.227,1.312l-.015.037c-.178.506-.419,1.932.54,2.424a6.368,6.368,0,0,0,2.278.362,5.911,5.911,0,0,0,2.293-.377,1.936,1.936,0,0,0,.5-2.405l-.008-.022a3.294,3.294,0,0,1-.208-1.326,22.124,22.124,0,0,1,.344-2.907l.008-.041.011-.081a1.55,1.55,0,0,0,0-.528,6.158,6.158,0,0,0,.019-.7,12.512,12.512,0,0,0-.094-1.356,3.629,3.629,0,0,0-.091-.5,1.946,1.946,0,0,0-.019-.514l-.008-.055a8.453,8.453,0,0,0-.332-1.182c-.094-.3-.2-.632-.3-.968l-.011-.03A7.935,7.935,0,0,1,12.348,6c-.03-.27-.042-.543-.045-.813a.96.96,0,0,0,.1-.543.432.432,0,0,0-.019-.1,2.536,2.536,0,0,0-.087-.288,1.146,1.146,0,0,0-.011-.576.936.936,0,0,0-.718-.672l-.015,0a.422.422,0,0,0-.1-.022,4.567,4.567,0,0,0-.744-.066" transform="translate(21.052 7.87)" fill="#707070"></path>
			<path id="Trazado_42544" class="rojo" data-name="Trazado 42544" d="M11.152,21.124c-.079,0-.159,0-.238,0a6.685,6.685,0,0,1-2.433-.388c-1.292-.661-1.111-2.279-.846-3.048a2.754,2.754,0,0,0,.215-1.167,23.415,23.415,0,0,0-.314-2.856l.484-.192-.5.089a2.087,2.087,0,0,1-.015-.65,9.046,9.046,0,0,1,.072-1.892,5.172,5.172,0,0,1,.094-.643,2.39,2.39,0,0,1,.03-.591,9.558,9.558,0,0,1,.438-1.537c.076-.225.162-.484.246-.743a6.815,6.815,0,0,0,.336-1.23c.019-.188.03-.406.038-.628a1.446,1.446,0,0,1-.094-.691,1.505,1.505,0,0,1,.038-.2c.015-.048.026-.1.045-.144a1.464,1.464,0,0,1,.045-.765A1.44,1.44,0,0,1,9.856,2.9a.717.717,0,0,1,.162-.041,5.394,5.394,0,0,1,.842-.066l.132.007a.238.238,0,0,1,.087-.007,4.822,4.822,0,0,1,.831.07c.053.011.106.022.159.037A1.419,1.419,0,0,1,13.143,3.92a1.59,1.59,0,0,1,.042.669c.023.066.042.133.06.2s.023.107.03.163a1.463,1.463,0,0,1-.094.7c0,.222.019.443.038.665a8.077,8.077,0,0,0,.306,1.167c.106.366.2.676.295.953a9.486,9.486,0,0,1,.363,1.289,2.862,2.862,0,0,1,.038.624,4.192,4.192,0,0,1,.087.484,13.478,13.478,0,0,1,.094,1.4,6.061,6.061,0,0,1-.015.691,1.971,1.971,0,0,1-.015.632l-.019.122a21.812,21.812,0,0,0-.336,2.845,2.792,2.792,0,0,0,.178,1.127.418.418,0,0,1,.03.107,2.36,2.36,0,0,1-.74,2.919,6.361,6.361,0,0,1-2.331.447m-.23-1.725a5.028,5.028,0,0,0,1.677-.222,1.744,1.744,0,0,0-.057-.942,4.439,4.439,0,0,1-.28-1.8,23.168,23.168,0,0,1,.363-3.07l.019-.14a.5.5,0,0,1-.049-.166.464.464,0,0,1,.038-.248,9.588,9.588,0,0,0-.136-2.128.489.489,0,0,1-.1-.414.467.467,0,0,1,.064-.155l-.015-.089a8.015,8.015,0,0,0-.291-1.038c-.1-.3-.208-.643-.31-.99a9.273,9.273,0,0,1-.37-1.474A11.4,11.4,0,0,1,11.42,5.3a.511.511,0,0,1,.072-.248,2.02,2.02,0,0,0-.1-.225.5.5,0,0,1-.045-.163.614.614,0,0,1,0-.144,1.619,1.619,0,0,0-.189-.011l-.068,0h-.215a2.14,2.14,0,0,0-.264.011.645.645,0,0,1,0,.148.455.455,0,0,1-.042.144c-.034.078-.068.159-.1.244a.522.522,0,0,1,.068.24,11.534,11.534,0,0,1-.053,1.2,8.012,8.012,0,0,1-.412,1.537c-.079.251-.17.521-.253.772A11.356,11.356,0,0,0,9.46,9.975l-.019.144a.47.47,0,0,1,.06.148.486.486,0,0,1-.087.406,10.009,10.009,0,0,0-.144,2.143.551.551,0,0,1,.038.248.526.526,0,0,1-.053.17l.011.055.015.111a25.135,25.135,0,0,1,.332,3.04A4.346,4.346,0,0,1,9.3,18.261a1.729,1.729,0,0,0-.045.916,5.094,5.094,0,0,0,1.666.222m2.712-5.97v0l-.008.055.249-.015Zm-4.609.026h0m2.591-8.892h0Zm0-.51h0" transform="translate(20.681 7.511)" fill="#707070"></path>
			<path id="Trazado_42545" class="rojo" data-name="Trazado 42545" d="M12.967,3.656a3.469,3.469,0,0,1,.616.055c.079.022.2.048.23.144s.049.2-.026.248a.182.182,0,0,0-.049.148,2.387,2.387,0,0,1,.178.473.249.249,0,0,1-.1.225,10.5,10.5,0,0,0,.053,1.142,8.726,8.726,0,0,0,.355,1.415c.253.872.559,1.688.608,2.039.026.2.076.473-.049.473a6.633,6.633,0,0,1,.2,2.634c.1.048.049.248.026.447a22.945,22.945,0,0,0-.355,3,4.048,4.048,0,0,0,.253,1.614c.128.373.253,1.293-.178,1.541a5.287,5.287,0,0,1-1.9.273,5.589,5.589,0,0,1-1.93-.273c-.434-.225-.306-1.167-.178-1.541A3.868,3.868,0,0,0,11,16.1a25.1,25.1,0,0,0-.332-3c-.023-.2-.076-.4.026-.447a7.082,7.082,0,0,1,.2-2.634c-.128,0-.076-.273-.049-.473.049-.347.355-1.167.635-2.039a7.612,7.612,0,0,0,.382-1.415,9.618,9.618,0,0,0,.049-1.142.239.239,0,0,1-.1-.225,3.115,3.115,0,0,1,.178-.473.149.149,0,0,0-.076-.148.286.286,0,0,1-.026-.248c.026-.1.151-.122.23-.144a4.132,4.132,0,0,1,.638-.052h.215m0-.731h-.121l-.1-.007a5.27,5.27,0,0,0-.763.063.6.6,0,0,0-.117.03l-.015,0a.943.943,0,0,0-.7.624,1,1,0,0,0,0,.632q-.045.127-.079.255a1.088,1.088,0,0,0-.026.118.986.986,0,0,0,.1.539c0,.27-.019.543-.045.813a6.988,6.988,0,0,1-.34,1.26l-.011.03c-.083.266-.174.528-.253.768A9.4,9.4,0,0,0,10.1,9.442l-.008.07a1.792,1.792,0,0,0-.015.532,5.2,5.2,0,0,0-.11.68,8.886,8.886,0,0,0-.06,1.847,1.523,1.523,0,0,0,0,.539l.011.078,0,.033a24.394,24.394,0,0,1,.321,2.915,3.186,3.186,0,0,1-.227,1.312L10,17.484c-.178.506-.419,1.932.54,2.424a6.368,6.368,0,0,0,2.278.362,5.911,5.911,0,0,0,2.293-.377,1.936,1.936,0,0,0,.5-2.405l-.008-.022A3.294,3.294,0,0,1,15.4,16.14a22.124,22.124,0,0,1,.344-2.907l.008-.041.011-.081a1.55,1.55,0,0,0,0-.528,6.157,6.157,0,0,0,.019-.7,12.512,12.512,0,0,0-.094-1.356,3.631,3.631,0,0,0-.091-.5,1.946,1.946,0,0,0-.019-.514l-.008-.055a8.453,8.453,0,0,0-.332-1.182c-.094-.3-.2-.632-.3-.968l-.011-.03A7.935,7.935,0,0,1,14.606,6c-.026-.27-.042-.543-.045-.813a.96.96,0,0,0,.1-.543.432.432,0,0,0-.019-.1,2.537,2.537,0,0,0-.087-.288,1.146,1.146,0,0,0-.011-.576.936.936,0,0,0-.718-.672l-.015,0a.422.422,0,0,0-.1-.022,4.567,4.567,0,0,0-.744-.066" transform="translate(27.324 7.87)" fill="#707070"></path>
			<path id="Trazado_42546" class="rojo" data-name="Trazado 42546" d="M13.413,21.127c-.079,0-.159,0-.238-.007a6.743,6.743,0,0,1-2.436-.388c-1.292-.661-1.111-2.279-.842-3.048a2.754,2.754,0,0,0,.215-1.167A25.1,25.1,0,0,0,9.8,13.66l.48-.192-.495.089a1.976,1.976,0,0,1-.015-.65,9.318,9.318,0,0,1,.068-1.892,5.974,5.974,0,0,1,.1-.639,2.22,2.22,0,0,1,.03-.591A9.13,9.13,0,0,1,10.4,8.244c.076-.222.159-.48.246-.743a7.384,7.384,0,0,0,.336-1.227c.015-.192.03-.41.034-.632a1.446,1.446,0,0,1-.091-.695,1.15,1.15,0,0,1,.038-.192c.011-.048.026-.1.042-.144a1.452,1.452,0,0,1,1.111-1.718.767.767,0,0,1,.159-.037,5,5,0,0,1,.846-.07l.132.007a.317.317,0,0,1,.083-.007,5.182,5.182,0,0,1,.831.07,1.361,1.361,0,0,1,.166.041A1.415,1.415,0,0,1,15.4,3.918a1.594,1.594,0,0,1,.042.669,1.976,1.976,0,0,1,.057.2.773.773,0,0,1,.03.163,1.455,1.455,0,0,1-.091.7c0,.222.015.447.038.665a7.856,7.856,0,0,0,.3,1.171c.106.362.208.672.295.949a9.639,9.639,0,0,1,.363,1.289,2.685,2.685,0,0,1,.042.628,4.119,4.119,0,0,1,.083.48,13.346,13.346,0,0,1,.1,1.4,6.06,6.06,0,0,1-.015.691,2.085,2.085,0,0,1-.015.632l-.015.1a21.936,21.936,0,0,0-.34,2.871,2.8,2.8,0,0,0,.178,1.127.46.46,0,0,1,.034.133,2.332,2.332,0,0,1-.748,2.889,6.333,6.333,0,0,1-2.327.451m-.23-1.729a4.9,4.9,0,0,0,1.673-.222,1.744,1.744,0,0,0-.057-.942,4.5,4.5,0,0,1-.28-1.8,23.978,23.978,0,0,1,.366-3.07l.019-.137a.444.444,0,0,1-.049-.166.472.472,0,0,1,.038-.251,9.616,9.616,0,0,0-.136-2.128.5.5,0,0,1-.1-.41.542.542,0,0,1,.064-.159l-.011-.089A7.972,7.972,0,0,0,14.418,9c-.1-.307-.208-.647-.31-1a9.328,9.328,0,0,1-.37-1.47,10.6,10.6,0,0,1-.057-1.23.474.474,0,0,1,.072-.248c-.023-.063-.06-.144-.1-.222a.526.526,0,0,1-.049-.166.917.917,0,0,1,0-.144l-.189-.011-.072,0h-.212c-.091,0-.178,0-.268.011a.532.532,0,0,1-.042.292q-.057.122-.1.244a.454.454,0,0,1,.068.24,9.7,9.7,0,0,1-.053,1.2,8.293,8.293,0,0,1-.408,1.537c-.079.251-.166.517-.253.765a10.684,10.684,0,0,0-.355,1.175l-.023.144a.477.477,0,0,1,.064.148.486.486,0,0,1-.087.406,10.031,10.031,0,0,0-.147,2.146.491.491,0,0,1-.011.414l.008.059.015.107a25.132,25.132,0,0,1,.332,3.04,4.23,4.23,0,0,1-.314,1.821,1.762,1.762,0,0,0-.042.916,5.094,5.094,0,0,0,1.666.222m-1.9-5.944h0m2.591-8.892h0Zm0-.51h0" transform="translate(26.953 7.508)" fill="#707070"></path>
			<path id="Trazado_42547" class="rojo" data-name="Trazado 42547" d="M8.451,11.108a3.469,3.469,0,0,1,.616.055c.079.022.2.048.23.144s.049.2-.026.248a.182.182,0,0,0-.049.148,2.387,2.387,0,0,1,.178.473.25.25,0,0,1-.1.225,10.5,10.5,0,0,0,.053,1.142,8.726,8.726,0,0,0,.355,1.415c.253.872.559,1.688.608,2.039.026.2.076.473-.049.473a6.633,6.633,0,0,1,.2,2.634c.1.048.049.248.026.447a22.945,22.945,0,0,0-.355,3,4.048,4.048,0,0,0,.253,1.614c.128.373.253,1.293-.178,1.541a5.287,5.287,0,0,1-1.9.273,5.589,5.589,0,0,1-1.93-.273c-.434-.225-.306-1.167-.178-1.541a3.868,3.868,0,0,0,.28-1.614,25.1,25.1,0,0,0-.332-3c-.023-.2-.076-.4.026-.447a7.082,7.082,0,0,1,.2-2.634c-.128,0-.076-.273-.049-.473.049-.347.355-1.167.635-2.039a7.69,7.69,0,0,0,.382-1.415A9.618,9.618,0,0,0,7.4,12.4a.239.239,0,0,1-.1-.225,3.114,3.114,0,0,1,.178-.473.149.149,0,0,0-.076-.148.286.286,0,0,1-.026-.248c.026-.1.151-.122.23-.144a4.132,4.132,0,0,1,.638-.052h.215m0-.731H8.338l-.1-.007a5.268,5.268,0,0,0-.763.063.6.6,0,0,0-.117.03l-.015,0a.943.943,0,0,0-.7.624,1,1,0,0,0,0,.632q-.045.127-.079.255a1.089,1.089,0,0,0-.026.118.986.986,0,0,0,.1.539c0,.27-.019.543-.045.813a6.988,6.988,0,0,1-.34,1.26l-.011.03c-.083.266-.174.528-.253.768a9.4,9.4,0,0,0-.408,1.385l-.008.07a1.792,1.792,0,0,0-.015.532,5.2,5.2,0,0,0-.11.68,8.886,8.886,0,0,0-.06,1.847,1.523,1.523,0,0,0,0,.539l.011.078,0,.033a24.4,24.4,0,0,1,.321,2.915A3.186,3.186,0,0,1,5.5,24.9l-.015.037c-.178.506-.419,1.932.54,2.424a6.368,6.368,0,0,0,2.278.362,5.911,5.911,0,0,0,2.293-.377,1.936,1.936,0,0,0,.5-2.405l-.008-.022a3.294,3.294,0,0,1-.208-1.326,22.125,22.125,0,0,1,.344-2.907l.008-.041.011-.081a1.55,1.55,0,0,0,0-.528,6.158,6.158,0,0,0,.019-.7,12.512,12.512,0,0,0-.094-1.356,3.63,3.63,0,0,0-.091-.5,1.946,1.946,0,0,0-.019-.514l-.008-.055a8.453,8.453,0,0,0-.332-1.182c-.094-.3-.2-.632-.3-.968l-.011-.03a7.935,7.935,0,0,1-.325-1.278c-.03-.27-.042-.543-.045-.813a.96.96,0,0,0,.1-.543.432.432,0,0,0-.019-.1,2.537,2.537,0,0,0-.087-.288,1.146,1.146,0,0,0-.011-.576.936.936,0,0,0-.718-.672l-.015,0a.422.422,0,0,0-.1-.022,4.566,4.566,0,0,0-.744-.066" transform="translate(14.781 27.949)" fill="#707070"></path>
			<path id="Trazado_42548" class="rojo" data-name="Trazado 42548" d="M8.9,28.579c-.079,0-.159,0-.238-.007a6.575,6.575,0,0,1-2.436-.388c-1.292-.658-1.111-2.279-.842-3.048a2.754,2.754,0,0,0,.215-1.167,24.357,24.357,0,0,0-.314-2.856l.48-.192-.495.089a1.976,1.976,0,0,1-.015-.65,9.318,9.318,0,0,1,.068-1.892,5.975,5.975,0,0,1,.1-.639,2.213,2.213,0,0,1,.03-.591A9.13,9.13,0,0,1,5.885,15.7c.076-.222.159-.48.246-.743a7.2,7.2,0,0,0,.336-1.227c.015-.192.03-.41.034-.632A1.447,1.447,0,0,1,6.41,12.4a1.151,1.151,0,0,1,.038-.192c.011-.048.026-.1.042-.144A1.452,1.452,0,0,1,7.6,10.347a.767.767,0,0,1,.159-.037,5,5,0,0,1,.846-.07l.132.007.083-.007a5.183,5.183,0,0,1,.831.07,1.362,1.362,0,0,1,.166.041,1.415,1.415,0,0,1,1.069,1.02,1.594,1.594,0,0,1,.042.669,1.973,1.973,0,0,1,.057.2.773.773,0,0,1,.03.163,1.456,1.456,0,0,1-.091.7c0,.222.015.447.038.665a7.856,7.856,0,0,0,.3,1.171c.106.362.208.672.295.949a9.338,9.338,0,0,1,.363,1.289,2.685,2.685,0,0,1,.042.628,4.119,4.119,0,0,1,.083.48,13.276,13.276,0,0,1,.1,1.4,6.061,6.061,0,0,1-.015.691,2.085,2.085,0,0,1-.015.632l-.015.1a21.936,21.936,0,0,0-.34,2.871,2.8,2.8,0,0,0,.178,1.127.46.46,0,0,1,.034.133,2.332,2.332,0,0,1-.748,2.889,6.333,6.333,0,0,1-2.327.451m-.23-1.729a4.913,4.913,0,0,0,1.673-.222,1.707,1.707,0,0,0-.057-.942,4.505,4.505,0,0,1-.28-1.8,23.978,23.978,0,0,1,.366-3.07l.019-.137a.425.425,0,0,1-.049-.166.472.472,0,0,1,.038-.251,9.616,9.616,0,0,0-.136-2.128.484.484,0,0,1-.1-.41.536.536,0,0,1,.06-.159l-.011-.089A7.972,7.972,0,0,0,9.9,16.45c-.1-.307-.208-.647-.31-1a9.328,9.328,0,0,1-.37-1.47,10.6,10.6,0,0,1-.057-1.23.474.474,0,0,1,.072-.248,1.732,1.732,0,0,0-.1-.222.526.526,0,0,1-.049-.166.917.917,0,0,1,0-.144L8.9,11.962l-.072,0H8.617c-.091,0-.178,0-.268.011a.509.509,0,0,1,0,.151.463.463,0,0,1-.042.14q-.057.122-.1.244a.454.454,0,0,1,.068.24,10.5,10.5,0,0,1-.049,1.2,8.561,8.561,0,0,1-.412,1.541c-.079.248-.166.514-.253.761A10.684,10.684,0,0,0,7.2,17.426l-.023.144a.477.477,0,0,1,.064.148.486.486,0,0,1-.087.406,10.031,10.031,0,0,0-.147,2.146A.491.491,0,0,1,7,20.684l.008.059.015.107a25.917,25.917,0,0,1,.336,3.04,4.3,4.3,0,0,1-.317,1.821A1.762,1.762,0,0,0,7,26.628a5.08,5.08,0,0,0,1.666.222m2.712-5.955-.008.052.246-.007Zm-4.609.011Zm2.591-8.892h0Zm0-.51h0" transform="translate(14.407 27.59)" fill="#707070"></path>
			<path id="Trazado_42549" class="rojo" data-name="Trazado 42549" d="M10.709,11.108a3.469,3.469,0,0,1,.616.055c.079.022.2.048.23.144s.049.2-.026.248a.182.182,0,0,0-.049.148,2.388,2.388,0,0,1,.178.473.25.25,0,0,1-.1.225,10.5,10.5,0,0,0,.053,1.142,8.726,8.726,0,0,0,.355,1.415c.253.872.559,1.688.608,2.039.026.2.076.473-.049.473a6.633,6.633,0,0,1,.2,2.634c.1.048.049.248.026.447a22.945,22.945,0,0,0-.355,3,4.048,4.048,0,0,0,.253,1.614c.128.373.253,1.293-.178,1.541a5.287,5.287,0,0,1-1.9.273,5.589,5.589,0,0,1-1.93-.273c-.434-.225-.306-1.167-.178-1.541a3.868,3.868,0,0,0,.28-1.614,25.1,25.1,0,0,0-.332-3c-.026-.2-.076-.4.026-.447a7.082,7.082,0,0,1,.2-2.634c-.128,0-.076-.273-.049-.473.049-.347.355-1.167.635-2.039a7.69,7.69,0,0,0,.382-1.415A9.618,9.618,0,0,0,9.655,12.4a.239.239,0,0,1-.1-.225,3.114,3.114,0,0,1,.178-.473.149.149,0,0,0-.076-.148.286.286,0,0,1-.026-.248c.026-.1.151-.122.23-.144a4.132,4.132,0,0,1,.638-.052h.215m0-.731H10.6l-.1-.007a5.268,5.268,0,0,0-.763.063.6.6,0,0,0-.117.03l-.015,0a.943.943,0,0,0-.7.624,1,1,0,0,0,0,.632q-.045.127-.079.255A1.089,1.089,0,0,0,8.8,12.1a.986.986,0,0,0,.1.539c0,.27-.019.543-.045.813a6.988,6.988,0,0,1-.34,1.26l-.011.03c-.083.266-.174.528-.253.768a9.4,9.4,0,0,0-.408,1.385l-.008.07a1.792,1.792,0,0,0-.015.532,5.2,5.2,0,0,0-.11.68,8.885,8.885,0,0,0-.06,1.847,1.523,1.523,0,0,0,0,.539l.011.078,0,.033a24.4,24.4,0,0,1,.321,2.915A3.186,3.186,0,0,1,7.759,24.9l-.015.037c-.178.506-.419,1.932.54,2.424a6.368,6.368,0,0,0,2.278.362,5.911,5.911,0,0,0,2.293-.377,1.936,1.936,0,0,0,.5-2.405l-.008-.022a3.294,3.294,0,0,1-.208-1.326,22.124,22.124,0,0,1,.344-2.907l.008-.041.011-.081a1.55,1.55,0,0,0,0-.528,6.158,6.158,0,0,0,.019-.7,12.512,12.512,0,0,0-.094-1.356,3.629,3.629,0,0,0-.091-.5,1.946,1.946,0,0,0-.019-.514l-.008-.055a8.454,8.454,0,0,0-.332-1.182c-.094-.3-.2-.632-.3-.968l-.011-.03a7.935,7.935,0,0,1-.325-1.278c-.03-.27-.042-.543-.045-.813a.96.96,0,0,0,.1-.543.432.432,0,0,0-.019-.1,2.536,2.536,0,0,0-.087-.288,1.146,1.146,0,0,0-.011-.576.936.936,0,0,0-.718-.672l-.015,0a.422.422,0,0,0-.1-.022,4.566,4.566,0,0,0-.744-.066" transform="translate(21.052 27.949)" fill="#707070"></path>
			<path id="Trazado_42550" class="rojo" data-name="Trazado 42550" d="M11.152,28.575c-.079,0-.159,0-.238,0a6.685,6.685,0,0,1-2.433-.388c-1.292-.661-1.111-2.279-.846-3.048a2.754,2.754,0,0,0,.215-1.167,23.415,23.415,0,0,0-.314-2.856l.484-.192-.5.089a2.087,2.087,0,0,1-.015-.65,9.046,9.046,0,0,1,.072-1.892,5.172,5.172,0,0,1,.094-.643,2.39,2.39,0,0,1,.03-.591A9.558,9.558,0,0,1,8.141,15.7c.076-.225.162-.484.246-.743a6.815,6.815,0,0,0,.336-1.23c.019-.188.03-.406.038-.628a1.446,1.446,0,0,1-.094-.691,1.505,1.505,0,0,1,.038-.2c.015-.048.026-.1.045-.144a1.464,1.464,0,0,1,.045-.765,1.44,1.44,0,0,1,1.061-.953.717.717,0,0,1,.162-.041,5.394,5.394,0,0,1,.842-.067l.132.007a.754.754,0,0,1,.087-.007,4.822,4.822,0,0,1,.831.07c.053.011.106.022.159.037a1.419,1.419,0,0,1,1.073,1.023,1.59,1.59,0,0,1,.042.669c.023.066.042.133.06.2s.023.107.03.163a1.463,1.463,0,0,1-.094.7c0,.222.019.443.038.665a8.077,8.077,0,0,0,.306,1.167c.106.366.2.676.295.953a9.486,9.486,0,0,1,.363,1.289,2.862,2.862,0,0,1,.038.624,4.193,4.193,0,0,1,.087.484,13.479,13.479,0,0,1,.094,1.4,6.061,6.061,0,0,1-.015.691,1.971,1.971,0,0,1-.015.632l-.019.122a21.812,21.812,0,0,0-.336,2.845,2.792,2.792,0,0,0,.178,1.127.418.418,0,0,1,.03.107,2.36,2.36,0,0,1-.74,2.919,6.361,6.361,0,0,1-2.331.447m-.23-1.725a4.935,4.935,0,0,0,1.677-.222,1.744,1.744,0,0,0-.057-.942,4.439,4.439,0,0,1-.28-1.8,23.169,23.169,0,0,1,.363-3.07l.019-.14a.5.5,0,0,1-.049-.166.464.464,0,0,1,.038-.248,9.588,9.588,0,0,0-.136-2.128.489.489,0,0,1-.1-.414.467.467,0,0,1,.064-.155l-.015-.089a8.015,8.015,0,0,0-.291-1.038c-.1-.3-.208-.643-.31-.99a9.273,9.273,0,0,1-.37-1.474,11.4,11.4,0,0,1-.057-1.227.511.511,0,0,1,.072-.248,2.02,2.02,0,0,0-.1-.225.5.5,0,0,1-.045-.163.614.614,0,0,1,0-.144,1.62,1.62,0,0,0-.189-.011l-.068,0h-.215c-.083,0-.178,0-.264.011a.645.645,0,0,1,0,.148.455.455,0,0,1-.042.144c-.034.078-.068.159-.1.244a.522.522,0,0,1,.068.24,11.534,11.534,0,0,1-.053,1.2,8.012,8.012,0,0,1-.412,1.537c-.079.251-.17.521-.253.772a11.356,11.356,0,0,0-.355,1.167l-.019.144a.47.47,0,0,1,.06.148.486.486,0,0,1-.087.406,10.009,10.009,0,0,0-.144,2.143.551.551,0,0,1,.038.248.526.526,0,0,1-.053.17l.011.055.015.111a25.135,25.135,0,0,1,.332,3.04A4.346,4.346,0,0,1,9.3,25.712a1.729,1.729,0,0,0-.045.916,5.094,5.094,0,0,0,1.666.222m2.712-5.97v0l-.008.055.249-.015Zm-4.609.026Zm2.591-8.892h0Zm0-.51h0" transform="translate(20.681 27.59)" fill="#707070"></path>
			<path id="Trazado_42551" class="rojo" data-name="Trazado 42551" d="M12.967,11.108a3.469,3.469,0,0,1,.616.055c.079.022.2.048.23.144s.049.2-.026.248a.182.182,0,0,0-.049.148,2.387,2.387,0,0,1,.178.473.249.249,0,0,1-.1.225,10.5,10.5,0,0,0,.053,1.142,8.726,8.726,0,0,0,.355,1.415c.253.872.559,1.688.608,2.039.026.2.076.473-.049.473a6.633,6.633,0,0,1,.2,2.634c.1.048.049.248.026.447a22.945,22.945,0,0,0-.355,3,4.048,4.048,0,0,0,.253,1.614c.128.373.253,1.293-.178,1.541a5.287,5.287,0,0,1-1.9.273,5.589,5.589,0,0,1-1.93-.273c-.434-.225-.306-1.167-.178-1.541A3.868,3.868,0,0,0,11,23.555a25.1,25.1,0,0,0-.332-3c-.023-.2-.076-.4.026-.447a7.082,7.082,0,0,1,.2-2.634c-.128,0-.076-.273-.049-.473.049-.347.355-1.167.635-2.039a7.69,7.69,0,0,0,.382-1.415,9.618,9.618,0,0,0,.049-1.142.239.239,0,0,1-.1-.225,3.115,3.115,0,0,1,.178-.473.149.149,0,0,0-.076-.148.286.286,0,0,1-.026-.248c.026-.1.151-.122.23-.144a4.132,4.132,0,0,1,.638-.052h.215m0-.731h-.121l-.1-.007a5.269,5.269,0,0,0-.763.063.6.6,0,0,0-.117.03l-.015,0a.943.943,0,0,0-.7.624,1,1,0,0,0,0,.632q-.045.127-.079.255a1.088,1.088,0,0,0-.026.118.986.986,0,0,0,.1.539c0,.27-.019.543-.045.813a6.988,6.988,0,0,1-.34,1.26l-.011.03c-.083.266-.174.528-.253.768a9.4,9.4,0,0,0-.408,1.385l-.008.07a1.792,1.792,0,0,0-.015.532,5.2,5.2,0,0,0-.11.68,8.886,8.886,0,0,0-.06,1.847,1.523,1.523,0,0,0,0,.539l.011.078,0,.033a24.394,24.394,0,0,1,.321,2.915,3.186,3.186,0,0,1-.227,1.312L10,24.936c-.178.506-.419,1.932.54,2.424a6.368,6.368,0,0,0,2.278.362,5.911,5.911,0,0,0,2.293-.377,1.936,1.936,0,0,0,.5-2.405l-.008-.022a3.294,3.294,0,0,1-.208-1.326,22.124,22.124,0,0,1,.344-2.907l.008-.041.011-.081a1.55,1.55,0,0,0,0-.528,6.157,6.157,0,0,0,.019-.7,12.511,12.511,0,0,0-.094-1.356,3.631,3.631,0,0,0-.091-.5,1.946,1.946,0,0,0-.019-.514l-.008-.055a8.454,8.454,0,0,0-.332-1.182c-.094-.3-.2-.632-.3-.968l-.011-.03a7.935,7.935,0,0,1-.325-1.278c-.026-.27-.042-.543-.045-.813a.96.96,0,0,0,.1-.543.432.432,0,0,0-.019-.1,2.537,2.537,0,0,0-.087-.288,1.146,1.146,0,0,0-.011-.576.936.936,0,0,0-.718-.672l-.015,0a.422.422,0,0,0-.1-.022,4.566,4.566,0,0,0-.744-.066" transform="translate(27.324 27.949)" fill="#707070"></path>
			<path id="Trazado_42552" class="rojo" data-name="Trazado 42552" d="M13.413,28.579c-.079,0-.159,0-.238-.007a6.587,6.587,0,0,1-2.436-.388C9.447,27.522,9.628,25.9,9.9,25.136a2.754,2.754,0,0,0,.215-1.167A25.1,25.1,0,0,0,9.8,21.113l.48-.192-.495.089a1.976,1.976,0,0,1-.015-.65,9.318,9.318,0,0,1,.068-1.892,5.974,5.974,0,0,1,.1-.639,2.22,2.22,0,0,1,.03-.591A9.13,9.13,0,0,1,10.4,15.7c.076-.222.159-.48.246-.743a7.384,7.384,0,0,0,.336-1.227c.015-.192.03-.41.034-.632a1.446,1.446,0,0,1-.091-.695,1.15,1.15,0,0,1,.038-.192c.011-.048.026-.1.042-.144a1.452,1.452,0,0,1,1.111-1.718.767.767,0,0,1,.159-.037,5,5,0,0,1,.846-.07l.132.007.083-.007a5.183,5.183,0,0,1,.831.07,1.362,1.362,0,0,1,.166.041A1.415,1.415,0,0,1,15.4,11.37a1.594,1.594,0,0,1,.042.669,1.975,1.975,0,0,1,.057.2.773.773,0,0,1,.03.163,1.455,1.455,0,0,1-.091.7c0,.222.015.447.038.665a7.856,7.856,0,0,0,.3,1.171c.106.362.208.672.295.949a9.639,9.639,0,0,1,.363,1.289,2.685,2.685,0,0,1,.042.628,4.12,4.12,0,0,1,.083.48,13.346,13.346,0,0,1,.1,1.4,6.06,6.06,0,0,1-.015.691,2.085,2.085,0,0,1-.015.632l-.015.1a21.936,21.936,0,0,0-.34,2.871,2.8,2.8,0,0,0,.178,1.127.46.46,0,0,1,.034.133,2.332,2.332,0,0,1-.748,2.889,6.333,6.333,0,0,1-2.327.451m-.23-1.729a4.9,4.9,0,0,0,1.673-.222,1.744,1.744,0,0,0-.057-.942,4.5,4.5,0,0,1-.28-1.8,23.978,23.978,0,0,1,.366-3.07l.019-.137a.444.444,0,0,1-.049-.166.472.472,0,0,1,.038-.251,9.616,9.616,0,0,0-.136-2.128.5.5,0,0,1-.1-.41.542.542,0,0,1,.064-.159l-.011-.089a7.972,7.972,0,0,0-.291-1.031c-.1-.307-.208-.647-.31-1a9.328,9.328,0,0,1-.37-1.47,10.6,10.6,0,0,1-.057-1.23.474.474,0,0,1,.072-.248c-.023-.063-.06-.144-.1-.222a.526.526,0,0,1-.049-.166.917.917,0,0,1,0-.144l-.189-.011-.072,0h-.212c-.091,0-.178,0-.268.011a.532.532,0,0,1-.042.292q-.057.122-.1.244a.454.454,0,0,1,.068.24,9.7,9.7,0,0,1-.053,1.2,8.293,8.293,0,0,1-.408,1.537c-.079.251-.166.517-.253.765a10.684,10.684,0,0,0-.355,1.175l-.023.144a.477.477,0,0,1,.064.148.486.486,0,0,1-.087.406,10.031,10.031,0,0,0-.147,2.146.491.491,0,0,1-.011.414l.008.059.015.107a25.132,25.132,0,0,1,.332,3.04,4.23,4.23,0,0,1-.314,1.821,1.762,1.762,0,0,0-.042.916,5.094,5.094,0,0,0,1.666.222m-1.9-5.944Zm2.591-8.892h0Zm0-.51Z" transform="translate(26.953 27.59)" fill="#707070"></path>
			<path id="Trazado_42553" class="blanco" data-name="Trazado 42553" d="M54.056,0H4.507A4.456,4.456,0,0,0,0,4.4V59.472a4.454,4.454,0,0,0,4.507,4.4v3.306a1.114,1.114,0,0,0,1.126,1.1h9.009a1.116,1.116,0,0,0,1.126-1.1V63.876H42.8v3.306a1.114,1.114,0,0,0,1.126,1.1H52.93a1.116,1.116,0,0,0,1.126-1.1V63.876a4.453,4.453,0,0,0,4.5-4.4V4.4a4.456,4.456,0,0,0-4.5-4.4M13.516,66.082H6.758v-2.2h6.758Zm38.289,0H45.047v-2.2H51.8Zm4.5-6.609a2.228,2.228,0,0,1-2.251,2.2H4.507a2.229,2.229,0,0,1-2.255-2.2V4.4A2.229,2.229,0,0,1,4.507,2.2H54.056a2.228,2.228,0,0,1,2.251,2.2Z" transform="translate(0 0)" fill="#707070"></path>
			<path id="Trazado_42554" class="blanco" data-name="Trazado 42554" d="M47.364,1.491H6.824a3.343,3.343,0,0,0-3.381,3.3V8.1H2.318A1.116,1.116,0,0,0,1.192,9.2v8.811a1.114,1.114,0,0,0,1.126,1.1H3.443V36.732H2.318a1.116,1.116,0,0,0-1.126,1.1v8.811a1.114,1.114,0,0,0,1.126,1.1H3.443v3.306a3.343,3.343,0,0,0,3.381,3.3h40.54a3.339,3.339,0,0,0,3.377-3.3V4.794a3.339,3.339,0,0,0-3.377-3.3M3.443,10.3H5.695v6.609H3.443Zm0,28.632H5.695v6.609H3.443ZM48.49,51.051a1.114,1.114,0,0,1-1.126,1.1H6.824a1.114,1.114,0,0,1-1.126-1.1V47.745H6.824a1.114,1.114,0,0,0,1.126-1.1V37.833a1.116,1.116,0,0,0-1.126-1.1H5.7v-5.5H48.49Zm0-22.03H5.7v-2.2H48.49Zm0-4.4H5.7V19.11H6.824a1.114,1.114,0,0,0,1.126-1.1V9.2A1.116,1.116,0,0,0,6.824,8.1H5.7v-3.3a1.112,1.112,0,0,1,1.126-1.1h40.54a1.112,1.112,0,0,1,1.126,1.1Z" transform="translate(3.311 4.017)" fill="#707070"></path>
		</g>
	</g>
</svg>