<svg xmlns="http://www.w3.org/2000/svg" xmlns:xlink="http://www.w3.org/1999/xlink" width="50" height="50" viewBox="0 0 50 50">
  <defs>
    <clipPath id="clip-path">
      <rect id="Rect치ngulo_21272" data-name="Rect치ngulo 21272" width="50" height="50" transform="translate(-93 -20570)" fill="#e2ff00"/>
    </clipPath>
    <clipPath id="clip-path-2">
      <rect id="Rect치ngulo_21271" data-name="Rect치ngulo 21271" width="14.569" height="43.409" transform="translate(0 0)" fill="none"/>
    </clipPath>
  </defs>
  <g id="icn-portafolio_prioritario" data-name="icn-portafolio prioritario" transform="translate(93 20570)" clip-path="url(#clip-path)">
    <g id="icn-portafolio_prioritario-2" data-name="icn-portafolio prioritario" transform="translate(-75 -20566.703)">
      <g id="Grupo_19166" data-name="Grupo 19166" clip-path="url(#clip-path-2)">
        <path id="Trazado_41463" data-name="Trazado 41463" d="M7.653,1.833a8.607,8.607,0,0,1,1.512.138c.189.058.5.121.561.366s.121.5-.063.621a.466.466,0,0,0-.123.368,6.043,6.043,0,0,1,.436,1.181.614.614,0,0,1-.245.56,25.725,25.725,0,0,0,.123,2.858,22.841,22.841,0,0,0,.87,3.545c.621,2.175,1.367,4.225,1.491,5.1.063.5.186,1.181-.121,1.181.559.245.807,6.34.5,6.589.244.122.123.622.062,1.119a58.633,58.633,0,0,0-.87,7.521,10.253,10.253,0,0,0,.623,4.039c.31.934.622,3.233-.436,3.854a12.879,12.879,0,0,1-4.661.684,13.438,13.438,0,0,1-4.724-.687c-1.056-.558-.748-2.919-.435-3.851a9.821,9.821,0,0,0,.683-4.039,63.4,63.4,0,0,0-.807-7.519c-.062-.5-.186-1,.063-1.12-.313-.244,0-6.34.5-6.588-.311,0-.187-.684-.121-1.183.121-.868.87-2.92,1.554-5.1a19.836,19.836,0,0,0,.933-3.545,25.969,25.969,0,0,0,.122-2.858.614.614,0,0,1-.245-.56,8.414,8.414,0,0,1,.436-1.182.366.366,0,0,0-.187-.367.741.741,0,0,1-.061-.623c.061-.244.373-.307.56-.366a9.789,9.789,0,0,1,1.568-.122h.524m0-1.833h-.3L7.128,0A11.553,11.553,0,0,0,5.262.154a1.865,1.865,0,0,0-.286.07L4.939.236A2.33,2.33,0,0,0,3.24,1.8a2.565,2.565,0,0,0,0,1.579c-.074.208-.143.421-.2.633a2,2,0,0,0-.057.3,2.452,2.452,0,0,0,.237,1.353c-.009.676-.045,1.356-.109,2.027a18,18,0,0,1-.835,3.155.667.667,0,0,0-.027.079c-.208.662-.421,1.313-.621,1.92a24.416,24.416,0,0,0-1,3.469l-.015.167a4.645,4.645,0,0,0-.04,1.337,13.191,13.191,0,0,0-.261,1.7,22.007,22.007,0,0,0-.151,4.617,3.886,3.886,0,0,0,.009,1.352c.008.068.019.136.027.2a.4.4,0,0,0,.012.076,62.137,62.137,0,0,1,.781,7.3,7.94,7.94,0,0,1-.556,3.276.7.7,0,0,0-.033.091C-.03,37.7-.625,41.265,1.719,42.5a15.122,15.122,0,0,0,5.58.9,13.989,13.989,0,0,0,5.607-.943c.927-.547,2.4-2.518,1.233-6.012a.139.139,0,0,0-.021-.055,8.362,8.362,0,0,1-.51-3.316,57.041,57.041,0,0,1,.843-7.28.949.949,0,0,1,.015-.1c.01-.069.02-.137.03-.2a4.015,4.015,0,0,0,.011-1.326,14.378,14.378,0,0,0,.043-1.749,32.6,32.6,0,0,0-.229-3.393,9.847,9.847,0,0,0-.224-1.249,4.823,4.823,0,0,0-.047-1.281l-.019-.14a21.353,21.353,0,0,0-.809-2.958c-.233-.739-.5-1.579-.733-2.419-.007-.025-.017-.051-.024-.077a20.882,20.882,0,0,1-.8-3.2c-.066-.672-.1-1.353-.109-2.032A2.449,2.449,0,0,0,11.8,4.315a1.882,1.882,0,0,0-.045-.245q-.093-.366-.22-.718a2.82,2.82,0,0,0-.024-1.445A2.317,2.317,0,0,0,9.757.229L9.722.219A1.9,1.9,0,0,0,9.477.16,10.624,10.624,0,0,0,7.653,0" fill="#f40000"/>
      </g>
    </g>
  </g>
</svg>
