<svg xmlns="http://www.w3.org/2000/svg" xmlns:xlink="http://www.w3.org/1999/xlink" width="87" height="87" viewBox="0 0 87 87">
  <defs>
    <filter id="Elipse_1" x="0" y="0" width="87" height="87" filterUnits="userSpaceOnUse">
      <feOffset dy="3" input="SourceAlpha"/>
      <feGaussianBlur stdDeviation="4.5" result="blur"/>
      <feFlood flood-opacity="0.282"/>
      <feComposite operator="in" in2="blur"/>
      <feComposite in="SourceGraphic"/>
    </filter>
    <clipPath id="clip-path">
      <rect id="Rectángulo_20489" data-name="Rectángulo 20489" width="35" height="35" fill="none"/>
    </clipPath>
  </defs>
  <g id="icn-whatsapp" transform="translate(-25.5 -670.801)">
    <g transform="matrix(1, 0, 0, 1, 25.5, 670.8)" filter="url(#Elipse_1)">
      <circle id="Elipse_1-2" data-name="Elipse 1" cx="30" cy="30" r="30" transform="translate(13.5 10.5)" fill="#65d172"/>
    </g>
    <g id="icn-whatsapp-2" data-name="icn-whatsapp" transform="translate(51.5 693.801)">
      <g id="Grupo_18604" data-name="Grupo 18604" clip-path="url(#clip-path)">
        <path id="Trazado_40245" data-name="Trazado 40245" d="M17.535,0A17.5,17.5,0,0,0,2.374,26.231L0,35.029l9.164-2.166a17.482,17.482,0,0,0,8.361,2.128h.006A17.5,17.5,0,1,0,17.535,0m0,3.5a13.993,13.993,0,1,1-6.687,26.286l-1.18-.644-1.3.308-3.449.814.842-3.126.38-1.4-.725-1.259A13.992,13.992,0,0,1,17.531,3.5M11.343,9.414a1.606,1.606,0,0,0-1.166.547A4.888,4.888,0,0,0,8.644,13.6a8.506,8.506,0,0,0,1.786,4.522c.217.291,3.024,4.844,7.467,6.6,3.692,1.455,4.443,1.168,5.245,1.095a4.409,4.409,0,0,0,2.952-2.076,3.672,3.672,0,0,0,.257-2.08c-.109-.182-.4-.291-.838-.51s-2.585-1.274-2.986-1.42-.694-.219-.985.219-1.127,1.42-1.383,1.71-.51.332-.948.113A12.031,12.031,0,0,1,15.695,19.6a13.177,13.177,0,0,1-2.433-3.024c-.254-.436-.024-.676.2-.893.2-.2.434-.511.653-.766a3.041,3.041,0,0,0,.438-.729.809.809,0,0,0-.038-.766c-.109-.219-.959-2.378-1.348-3.243-.328-.727-.673-.743-.985-.756-.254-.011-.544-.011-.835-.011" transform="translate(0.138 -0.165)" fill="#fff"/>
      </g>
    </g>
  </g>
</svg>
