<svg id="ic-meta-compra" xmlns="http://www.w3.org/2000/svg" xmlns:xlink="http://www.w3.org/1999/xlink" width="82" height="82" viewBox="0 0 82 82">
	<defs>
		<clipPath id="clip-path">
			<rect id="Rectángulo_23105" data-name="Rectángulo 23105" width="54.304" height="63.787" fill="#707070"></rect>
		</clipPath>
		<clipPath id="clip-path-2">
			<rect id="Rectángulo_23107" data-name="Rectángulo 23107" width="82" height="82" fill="none"></rect>
		</clipPath>
	</defs>
	<g id="Grupo_19641" data-name="Grupo 19641" transform="translate(13.152 9.539)">
		<g id="Grupo_19640" data-name="Grupo 19640" transform="translate(0 0)" clip-path="url(#clip-path)">
			<path id="Trazado_42576" class="rojo" data-name="Trazado 42576" d="M15.992,56.367a1.5,1.5,0,0,1-1.07-.448,1.554,1.554,0,0,1,0-2.174l2.76-2.8a1.5,1.5,0,0,1,.833-.431c.525-.085,12.861-2.074,16.316-2.455,2.762-.308,5.2-1.853,9-5.707L54.641,31.383a1.307,1.307,0,0,1,.119-.111,1.675,1.675,0,0,0,.246-2.329,1.62,1.62,0,0,0-2.226-.3,1.578,1.578,0,0,0-.272.282,1.655,1.655,0,0,1-.118.14c-3.848,4.034-11.635,11.806-11.713,11.885a1.5,1.5,0,0,1-.819.419l-12.4,2.052a1.536,1.536,0,0,1-.488-3.032L38.9,38.409c1.539-1.537,7.885-7.888,11.259-11.425a4.758,4.758,0,0,1,.825-.819,4.629,4.629,0,0,1,6.384.85,4.783,4.783,0,0,1-.634,6.592L45.969,44.522c-3.679,3.736-6.772,6.139-10.81,6.588-3,.331-13.318,1.979-15.684,2.358l-2.414,2.45a1.5,1.5,0,0,1-1.07.448" transform="translate(-4.178 7.418)" fill="#707070"></path>
			<path id="Trazado_42577" class="rojo" data-name="Trazado 42577" d="M9.514,43.7a1.5,1.5,0,0,1-1.07-.45,1.552,1.552,0,0,1,0-2.173l7.314-7.422a12.436,12.436,0,0,1,11.106-4.707c3.862-.089,11.337.169,14.838.394,3.463.219,5.12,2.473,5.225,4.608.11,2.226-1.5,4.908-5.283,5.537A1.513,1.513,0,0,1,39.9,38.221a1.532,1.532,0,0,1,1.248-1.765c1.952-.326,2.8-1.447,2.749-2.353-.046-.94-.984-1.607-2.388-1.7-3.477-.221-10.922-.481-14.674-.386a1.489,1.489,0,0,1-.207-.01,9.433,9.433,0,0,0-8.554,3.621c-.037.045-.076.09-.118.132l-7.376,7.483a1.494,1.494,0,0,1-1.07.45" transform="translate(-8 9.639)" fill="#707070"></path>
			<path id="Trazado_42578" class="rojo" data-name="Trazado 42578" d="M36.154,37.148A15.63,15.63,0,0,1,26,33.411a1.552,1.552,0,0,1,.011-2.366,13.006,13.006,0,0,0,0-19.929A1.552,1.552,0,0,1,26,8.75,15.655,15.655,0,0,1,36.119,5.022l.029,0A15.921,15.921,0,0,1,51.942,19.668,16.119,16.119,0,0,1,48.312,31.4a15.725,15.725,0,0,1-12.159,5.747M29.349,32.09a12.7,12.7,0,0,0,16.641-2.661,13.119,13.119,0,0,0-1.6-18.3A12.718,12.718,0,0,0,36.168,8.1a.1.1,0,0,0-.022,0,12.448,12.448,0,0,0-6.794,1.974,16.137,16.137,0,0,1,.77,21.132c-.246.3-.5.6-.773.887" transform="translate(2.302 -4.987)" fill="#707070"></path>
			<path id="Trazado_42579" class="blanco" data-name="Trazado 42579" d="M33.742,25.218a10.12,10.12,0,0,1-3.655-.684l-.006,0a1.235,1.235,0,0,1-.7-1.587,1.208,1.208,0,0,1,1.565-.708,7.7,7.7,0,0,0,3.46.486l.04-.006a2.51,2.51,0,0,0,1.744-.826,1.812,1.812,0,0,0,.269-1.381c-.068-.494-1.55-1.6-4.045-2.316A4.3,4.3,0,0,1,29.193,14.8a3.531,3.531,0,0,1-.038-.707,3.869,3.869,0,0,1,1.832-3.047c2.013-1.342,5.427-.279,6.315.035h0l.013,0,.148.053,0,0,.008,0,0,0a1.231,1.231,0,0,1,.709,1.579,1.207,1.207,0,0,1-1.557.724c-1.248-.471-3.482-.9-4.318-.348a1.425,1.425,0,0,0-.739,1.174c0,.044.006.087.013.134a1.956,1.956,0,0,0,1.5,1.416c1.617.463,5.43,1.815,5.783,4.333a4.268,4.268,0,0,1-.744,3.223,4.78,4.78,0,0,1-3.247,1.757.989.989,0,0,1-.17.031q-.482.046-.967.047" transform="translate(4.478 -1.697)" fill="#707070"></path>
			<path id="Trazado_42580" class="blanco" data-name="Trazado 42580" d="M28.309,27.019a1.9,1.9,0,0,1-1.014-.294l-3.3-2.176-3.272,2.16a1.92,1.92,0,0,1-1.506.252,1.941,1.941,0,0,1-1.205-.9,2,2,0,0,1-.232-1.466L18.8,20.721l-3.04-2.492a2,2,0,0,1-.256-2.8,1.944,1.944,0,0,1,1.347-.7l3.929-.2,1.4-3.7a1.957,1.957,0,0,1,1.048-1.1,1.914,1.914,0,0,1,1.491-.019A1.979,1.979,0,0,1,25.795,10.8c.017.045.033.09.048.137L27.2,14.524l3.9.2a1.943,1.943,0,0,1,1.364.69,2,2,0,0,1-.219,2.789L29.18,20.723,30.2,24.551a2.013,2.013,0,0,1-.231,1.532,1.945,1.945,0,0,1-1.212.882,1.912,1.912,0,0,1-.447.053m-10.045-9.9,2.305,1.889a2,2,0,0,1,.657,2.045l-.77,2.9,2.477-1.636a1.93,1.93,0,0,1,2.11,0l2.487,1.639-.771-2.9a2,2,0,0,1,.652-2.04l2.307-1.9-2.961-.153a1.961,1.961,0,0,1-1.717-1.279l-1.048-2.776L22.938,15.7a1.947,1.947,0,0,1-1.7,1.271Zm12.677.061h0ZM20.675,14.823l0,.006Zm6.627-.015,0,0,0,0" transform="translate(-3.84 -2.196)" fill="#707070"></path>
			<path id="Trazado_42581" class="rojo" data-name="Trazado 42581" d="M26.492,37.212A15.7,15.7,0,0,1,16.281,33.43a16.283,16.283,0,0,1-1.945-22.687A15.738,15.738,0,0,1,36.7,8.772a1.552,1.552,0,0,1,.186,2.165,1.5,1.5,0,0,1-2.135.187,12.733,12.733,0,0,0-18.1,1.6,13.178,13.178,0,0,0,1.572,18.359,12.684,12.684,0,0,0,16.525,0,1.5,1.5,0,0,1,2.135.187A1.552,1.552,0,0,1,36.7,33.43a15.7,15.7,0,0,1-10.211,3.783" transform="translate(-6.452 -4.997)" fill="#707070"></path>
			<path id="Trazado_42582" class="rojo" data-name="Trazado 42582" d="M26.976,32.5a1.5,1.5,0,0,1-1.172-.563,1.55,1.55,0,0,1,.211-2.161,12.971,12.971,0,0,0,0-19.932,1.555,1.555,0,0,1-.21-2.163,1.5,1.5,0,0,1,2.132-.213,16.017,16.017,0,0,1,5.679,13.912A15.923,15.923,0,0,1,27.937,32.15a1.5,1.5,0,0,1-.96.348" transform="translate(2.302 -3.702)" fill="#707070"></path>
		</g>
	</g>
	<g id="Grupo_19643" data-name="Grupo 19643">
		<g id="Grupo_19642" data-name="Grupo 19642" clip-path="url(#clip-path-2)">
			<rect id="Rectángulo_23106" data-name="Rectángulo 23106" width="80.392" height="80.392" transform="translate(0.804 0.804)" fill="none"></rect>
		</g>
	</g>
</svg>