<svg id="ic-bonos" xmlns="http://www.w3.org/2000/svg" xmlns:xlink="http://www.w3.org/1999/xlink" width="82" height="82" viewBox="0 0 82 82">
	<defs>
		<clipPath id="clip-path">
			<rect id="Rect치ngulo_23219" data-name="Rect치ngulo 23219" width="66.739" height="56.296" fill="#707070" />
		</clipPath>
	</defs>
	<g id="Grupo_19724" data-name="Grupo 19724" transform="translate(14.386 18.387)">
		<g id="Grupo_19723" data-name="Grupo 19723" transform="translate(-6.386 -5.387)" clip-path="url(#clip-path)">
			<path id="Trazado_42700" class="blanco" data-name="Trazado 42700" d="M55.031,49.054H19.994a3.731,3.731,0,0,1-3.727-3.727V33.385a1.64,1.64,0,0,1,3.281,0V45.328a.447.447,0,0,0,.446.447H55.031a.448.448,0,0,0,.447-.447V18.038H35.987a1.64,1.64,0,0,1,0-3.279H56.6a2.163,2.163,0,0,1,2.161,2.173v28.4a3.73,3.73,0,0,1-3.727,3.727m.447-32.131v0Z" transform="translate(7.981 7.242)" fill="#707070" />
			<path id="Trazado_42701" class="blanco" data-name="Trazado 42701" d="M10.373,52.069A2.622,2.622,0,0,1,8.51,51.3l-6.1-6.1a2.634,2.634,0,0,1,0-3.73h0L34.5,9.376a2.641,2.641,0,0,1,3.728,0l6.1,6.1a2.637,2.637,0,0,1,0,3.727L12.238,51.3a2.628,2.628,0,0,1-1.865.771m-5.19-8.734,5.189,5.19L41.554,17.338l-5.19-5.189Zm-.453.453Z" transform="translate(0.802 4.222)" fill="#707070" />
			<path id="Trazado_42702" class="blanco" data-name="Trazado 42702" d="M20.756,33.989a1.633,1.633,0,0,1-1.16-.48l-8.266-8.266a4.908,4.908,0,0,1,6.94-6.94l8.269,8.266a1.64,1.64,0,1,1-2.319,2.319l-8.269-8.267a1.628,1.628,0,0,0-2.3,2.3l8.266,8.266a1.64,1.64,0,0,1-1.16,2.8" transform="translate(4.856 8.277)" fill="#707070" />
			<path id="Trazado_42703" class="blanco" data-name="Trazado 42703" d="M14.623,25.175a1.642,1.642,0,0,1-1.589-1.24c-.953-3.791-1.4-11.238,2.947-15.108a7.011,7.011,0,0,1,7.431-1.306c2.768,1.167,4.521,4.029,4.688,7.656a1.64,1.64,0,1,1-3.276.151c-.109-2.367-1.088-4.111-2.686-4.785a3.758,3.758,0,0,0-3.976.735c-2.954,2.627-2.783,8.529-1.947,11.858a1.641,1.641,0,0,1-1.191,1.99,1.687,1.687,0,0,1-.4.049" transform="translate(6.084 3.424)" fill="#707070" />
			<path id="Trazado_42704" class="blanco" data-name="Trazado 42704" d="M8.276,35.079H8.2C4.577,34.915,1.715,33.167.544,30.4a7.014,7.014,0,0,1,1.3-7.44c3.865-4.354,11.317-3.9,15.108-2.946a1.639,1.639,0,1,1-.8,3.18c-3.327-.836-9.233-1.011-11.855,1.944a3.764,3.764,0,0,0-.735,3.986c.674,1.6,2.418,2.573,4.782,2.679a1.64,1.64,0,0,1-.072,3.278" transform="translate(0 9.508)" fill="#707070" />
			<path id="Trazado_42705" class="rojo" data-name="Trazado 42705" d="M30.275,9.251a1.639,1.639,0,0,1-1.608-1.334L27.534,1.945a1.639,1.639,0,1,1,3.221-.611l1.133,5.972a1.641,1.641,0,0,1-1.3,1.917,1.686,1.686,0,0,1-.309.028" transform="translate(13.495 0)" fill="#707070" />
			<path id="Trazado_42706" class="rojo" data-name="Trazado 42706" d="M39.036,13.879a1.64,1.64,0,0,1-.3-3.251L44.7,9.5a1.64,1.64,0,0,1,.611,3.223l-5.97,1.133a1.686,1.686,0,0,1-.309.028" transform="translate(18.349 4.645)" fill="#707070" />
			<path id="Trazado_42707" class="rojo" data-name="Trazado 42707" d="M35.318,10.638a1.64,1.64,0,0,1-1.354-2.562l3.078-4.521A1.639,1.639,0,1,1,39.753,5.4L36.675,9.921a1.636,1.636,0,0,1-1.356.717" transform="translate(16.525 1.393)" fill="#707070" />
			<path id="Trazado_42708" class="rojo" data-name="Trazado 42708" d="M38.38,39.45a3.073,3.073,0,0,1-1.427-.35L33.9,37.494,30.847,39.1a3.055,3.055,0,0,1-4.119-1.289,3.089,3.089,0,0,1-.3-1.911l.586-3.408-2.471-2.4a3.047,3.047,0,0,1,1.69-5.2l3.414-.495L31.171,21.3a3.047,3.047,0,0,1,5.392-.136,1.453,1.453,0,0,1,.073.134l1.528,3.093,3.418.5a3.049,3.049,0,0,1,1.687,5.2l-2.476,2.407.581,3.4A3.048,3.048,0,0,1,38.9,39.407a3,3,0,0,1-.516.043M27.167,28.068l2.343,2.279a2.748,2.748,0,0,1,.784,2.4l-.555,3.229,2.89-1.522a2.741,2.741,0,0,1,2.536,0l2.9,1.523-.552-3.218a2.731,2.731,0,0,1,.786-2.412l2.345-2.279L37.409,27.6a2.729,2.729,0,0,1-2.057-1.491L33.9,23.174l-1.447,2.932a2.735,2.735,0,0,1-2.05,1.492Zm11.125-3.415h0Zm-.414-.3h0" transform="translate(11.59 9.619)" fill="#707070" />
		</g>
	</g>
	<rect id="Rect치ngulo_23220" data-name="Rect치ngulo 23220" width="82" height="82" fill="none" />
</svg>