<svg id="logo-SS-vertical192px" xmlns="http://www.w3.org/2000/svg" xmlns:xlink="http://www.w3.org/1999/xlink" width="192.011" height="184.173" viewBox="0 0 192.011 184.173">
  <defs>
    <clipPath id="clip-path">
      <rect id="Rectángulo_22985" data-name="Rectángulo 22985" width="192.011" height="184.173" fill="#fff"/>
    </clipPath>
  </defs>
  <g id="Grupo_19543" data-name="Grupo 19543" clip-path="url(#clip-path)">
    <path id="Trazado_42473" data-name="Trazado 42473" d="M8.8,707.11a22.2,22.2,0,0,1-3.16-.867A6.837,6.837,0,0,1,3.7,705.2a3.054,3.054,0,0,1-.961-1.27,4.393,4.393,0,0,1-.264-1.565v-.062a3.486,3.486,0,0,1,.372-1.58,3.879,3.879,0,0,1,1.069-1.3,5.375,5.375,0,0,1,1.673-.883,6.886,6.886,0,0,1,2.184-.325,9.938,9.938,0,0,1,3.362.558,9.978,9.978,0,0,1,3.114,1.89l1.023-1.27a12.225,12.225,0,0,0-3.362-1.983,11.521,11.521,0,0,0-4.075-.65,8.581,8.581,0,0,0-2.788.434,6.858,6.858,0,0,0-2.2,1.208,5.707,5.707,0,0,0-1.456,1.813,4.884,4.884,0,0,0-.527,2.246v.062a5.646,5.646,0,0,0,.4,2.2,4.371,4.371,0,0,0,1.286,1.689,8.271,8.271,0,0,0,2.278,1.27,20.963,20.963,0,0,0,3.346.945,19.514,19.514,0,0,1,3.037.821,7.01,7.01,0,0,1,1.875,1.007,2.98,2.98,0,0,1,.96,1.239,4.283,4.283,0,0,1,.264,1.55v.062a3.728,3.728,0,0,1-.4,1.72,4.16,4.16,0,0,1-1.115,1.363,5.29,5.29,0,0,1-1.735.9,7.328,7.328,0,0,1-2.231.325,11.543,11.543,0,0,1-2.231-.2,9.906,9.906,0,0,1-3.765-1.58,15.369,15.369,0,0,1-1.781-1.44L0,715.6a14.413,14.413,0,0,0,4.043,2.6,12.151,12.151,0,0,0,4.694.868,9.215,9.215,0,0,0,2.9-.434,6.947,6.947,0,0,0,2.262-1.209,5.6,5.6,0,0,0,1.487-1.874,5.359,5.359,0,0,0,.542-2.4v-.062a4.709,4.709,0,0,0-1.673-3.8A12.476,12.476,0,0,0,8.8,707.11" transform="translate(0 -534.989)" fill="#fff"/>
    <path id="Trazado_42474" data-name="Trazado 42474" d="M95.215,724.3a8.307,8.307,0,0,0-2.556-1.782,7.766,7.766,0,0,0-3.237-.666,7.873,7.873,0,0,0-3.253.666,8.225,8.225,0,0,0-4.292,4.447,8.312,8.312,0,0,0-.6,3.16v.063a8.309,8.309,0,0,0,.6,3.16,8.025,8.025,0,0,0,1.689,2.6,8.3,8.3,0,0,0,2.556,1.781,7.765,7.765,0,0,0,3.237.666,7.872,7.872,0,0,0,3.253-.666,8.215,8.215,0,0,0,4.292-4.446,8.317,8.317,0,0,0,.6-3.161v-.062a8.315,8.315,0,0,0-.6-3.161,8.027,8.027,0,0,0-1.689-2.6m.682,5.886a7.136,7.136,0,0,1-.483,2.622,6.592,6.592,0,0,1-1.339,2.144,6.379,6.379,0,0,1-2.055,1.449,6.249,6.249,0,0,1-2.6.54,6.338,6.338,0,0,1-2.568-.525,6.444,6.444,0,0,1-2.087-1.449,6.689,6.689,0,0,1-1.385-2.175,7.134,7.134,0,0,1-.5-2.668v-.061a7.14,7.14,0,0,1,.482-2.622A6.6,6.6,0,0,1,84.7,725.3a6.406,6.406,0,0,1,2.055-1.45,6.258,6.258,0,0,1,2.6-.539,6.332,6.332,0,0,1,2.569.524,6.416,6.416,0,0,1,2.085,1.45,6.666,6.666,0,0,1,1.386,2.174,7.132,7.132,0,0,1,.5,2.668Z" transform="translate(-62.403 -554.253)" fill="#fff"/>
    <path id="Trazado_42475" data-name="Trazado 42475" d="M173.783,736.18a5.87,5.87,0,0,1-2.989.76,6.18,6.18,0,0,1-2.542-.525,6.447,6.447,0,0,1-2.06-1.449,6.9,6.9,0,0,1-1.394-2.175,6.984,6.984,0,0,1-.511-2.668v-.061a7.049,7.049,0,0,1,.5-2.653,6.807,6.807,0,0,1,1.348-2.144,6.247,6.247,0,0,1,2.013-1.434,6.065,6.065,0,0,1,2.526-.524,5.559,5.559,0,0,1,3.005.775,11.994,11.994,0,0,1,2.262,1.828l1.084-1.116a13.821,13.821,0,0,0-1.193-1.117,8.245,8.245,0,0,0-1.41-.94,7.743,7.743,0,0,0-1.688-.648,8.077,8.077,0,0,0-2.03-.238,7.611,7.611,0,0,0-3.176.666,8.019,8.019,0,0,0-2.553,1.813,8.491,8.491,0,0,0-1.689,2.634,8.27,8.27,0,0,0-.608,3.16v.063a8.268,8.268,0,0,0,.608,3.16,8.121,8.121,0,0,0,1.689,2.6,8.253,8.253,0,0,0,2.553,1.781,7.613,7.613,0,0,0,3.176.666,7.209,7.209,0,0,0,3.7-.9,11.226,11.226,0,0,0,2.742-2.262l-1.054-.929a9.24,9.24,0,0,1-2.308,1.874" transform="translate(-124.906 -554.253)" fill="#fff"/>
    <rect id="Rectángulo_22982" data-name="Rectángulo 22982" width="1.518" height="15.802" transform="translate(55.834 167.968)" fill="#fff"/>
    <rect id="Rectángulo_22983" data-name="Rectángulo 22983" width="1.891" height="2.076" transform="translate(55.647 161.772)" fill="#fff"/>
    <path id="Trazado_42476" data-name="Trazado 42476" d="M278.045,724.3a8.317,8.317,0,0,0-2.557-1.782,7.765,7.765,0,0,0-3.238-.666,7.869,7.869,0,0,0-3.253.666,8.227,8.227,0,0,0-4.292,4.447,8.307,8.307,0,0,0-.6,3.16v.063a8.3,8.3,0,0,0,.6,3.16,8.023,8.023,0,0,0,1.688,2.6,8.3,8.3,0,0,0,2.557,1.781,7.764,7.764,0,0,0,3.238.666,7.868,7.868,0,0,0,3.253-.666,8.21,8.21,0,0,0,4.292-4.446,8.307,8.307,0,0,0,.6-3.161v-.062a8.305,8.305,0,0,0-.6-3.161,8.029,8.029,0,0,0-1.688-2.6m.682,5.886a7.136,7.136,0,0,1-.483,2.622,6.585,6.585,0,0,1-1.339,2.144,6.376,6.376,0,0,1-2.055,1.449,6.246,6.246,0,0,1-2.6.54,6.345,6.345,0,0,1-2.568-.525,6.452,6.452,0,0,1-2.087-1.449,6.676,6.676,0,0,1-1.384-2.175,7.12,7.12,0,0,1-.5-2.668v-.061a7.139,7.139,0,0,1,.482-2.622,6.591,6.591,0,0,1,1.339-2.144,6.406,6.406,0,0,1,2.055-1.45,6.259,6.259,0,0,1,2.6-.539,6.332,6.332,0,0,1,2.568.524,6.413,6.413,0,0,1,2.085,1.45,6.643,6.643,0,0,1,1.385,2.174,7.12,7.12,0,0,1,.5,2.668Z" transform="translate(-202.784 -554.253)" fill="#fff"/>
    <path id="Trazado_42477" data-name="Trazado 42477" d="M363.236,707.328a10.07,10.07,0,0,0-2.556-1.315,26.492,26.492,0,0,0-3.362-.943q-1.116-.247-1.843-.479a6.5,6.5,0,0,1-1.147-.464,1.534,1.534,0,0,1-.587-.51,1.211,1.211,0,0,1-.172-.649V702.9a1.2,1.2,0,0,1,.542-.989,2.719,2.719,0,0,1,1.628-.4,9.218,9.218,0,0,1,3.021.543,12.194,12.194,0,0,1,3.052,1.6l3-4.258a12.517,12.517,0,0,0-3.95-2.166,15.6,15.6,0,0,0-4.973-.733,11.177,11.177,0,0,0-3.5.51,7.879,7.879,0,0,0-2.649,1.438,6.167,6.167,0,0,0-1.673,2.2,6.682,6.682,0,0,0-.574,2.784v.061a5.279,5.279,0,0,0,2.371,4.686,9.848,9.848,0,0,0,2.587,1.237q1.486.48,3.223.881,1.114.248,1.812.48a5.892,5.892,0,0,1,1.116.48,1.6,1.6,0,0,1,.574.51,1.178,1.178,0,0,1,.154.6v.062a1.219,1.219,0,0,1-.634,1.1,3.583,3.583,0,0,1-1.844.387,11.032,11.032,0,0,1-7.032-2.6l-3.347,4.006a13.405,13.405,0,0,0,4.633,2.713,16.833,16.833,0,0,0,5.53.9,12.6,12.6,0,0,0,3.594-.479,8.061,8.061,0,0,0,2.757-1.392,6.384,6.384,0,0,0,1.783-2.212,6.69,6.69,0,0,0,.634-2.969v-.062a5.707,5.707,0,0,0-.557-2.613,5.262,5.262,0,0,0-1.611-1.871" transform="translate(-266.03 -534.784)" fill="#fff"/>
    <path id="Trazado_42478" data-name="Trazado 42478" d="M447.006,720.454a7.41,7.41,0,0,0-2.632-2,8.836,8.836,0,0,0-3.765-.744,8.384,8.384,0,0,0-3.409.681,8.2,8.2,0,0,0-2.68,1.875,8.482,8.482,0,0,0-1.751,2.789,9.392,9.392,0,0,0-.619,3.424v.062a9.248,9.248,0,0,0,.666,3.564,7.844,7.844,0,0,0,1.861,2.742,8.532,8.532,0,0,0,2.834,1.766,9.965,9.965,0,0,0,3.626.635,9.188,9.188,0,0,0,4.292-.93,9.056,9.056,0,0,0,2.988-2.479l-3.253-2.7a6.247,6.247,0,0,1-1.78,1.3,4.609,4.609,0,0,1-1.937.4,3.9,3.9,0,0,1-2.34-.681,3.45,3.45,0,0,1-1.286-2.076h11.216c.02-.206.03-.413.03-.62v-.589a11.887,11.887,0,0,0-.509-3.517,8.415,8.415,0,0,0-1.551-2.912m-9.279,4.632a4.358,4.358,0,0,1,.991-2.215,2.477,2.477,0,0,1,1.921-.821,2.6,2.6,0,0,1,1.982.821,3.725,3.725,0,0,1,.931,2.215Z" transform="translate(-331.814 -551.076)" fill="#fff"/>
    <rect id="Rectángulo_22984" data-name="Rectángulo 22984" width="5.918" height="22.618" transform="translate(118.956 161.152)" fill="#fff"/>
    <path id="Trazado_42479" data-name="Trazado 42479" d="M559.774,720.454a7.428,7.428,0,0,0-2.634-2,8.832,8.832,0,0,0-3.765-.744,8.378,8.378,0,0,0-3.408.681,8.2,8.2,0,0,0-2.68,1.875,8.447,8.447,0,0,0-1.751,2.789,9.368,9.368,0,0,0-.619,3.424v.062a9.248,9.248,0,0,0,.666,3.564,7.855,7.855,0,0,0,1.86,2.742,8.534,8.534,0,0,0,2.834,1.766,9.974,9.974,0,0,0,3.626.635,9.18,9.18,0,0,0,4.292-.93,9.055,9.055,0,0,0,2.989-2.479l-3.253-2.7a6.251,6.251,0,0,1-1.782,1.3,4.6,4.6,0,0,1-1.937.4,3.9,3.9,0,0,1-2.34-.681,3.451,3.451,0,0,1-1.286-2.076H561.8c.02-.206.03-.413.03-.62v-.589a11.882,11.882,0,0,0-.511-3.517,8.419,8.419,0,0,0-1.549-2.912m-9.281,4.632a4.359,4.359,0,0,1,.992-2.215,2.474,2.474,0,0,1,1.922-.821,2.6,2.6,0,0,1,1.982.821,3.732,3.732,0,0,1,.93,2.215Z" transform="translate(-418.4 -551.076)" fill="#fff"/>
    <path id="Trazado_42480" data-name="Trazado 42480" d="M632.51,729.93a3.249,3.249,0,0,1-1.783.465,3.114,3.114,0,0,1-2.416-1.1,3.82,3.82,0,0,1-.682-1.208,4.457,4.457,0,0,1-.248-1.5v-.062a4.106,4.106,0,0,1,.248-1.441,3.9,3.9,0,0,1,.682-1.178,3.161,3.161,0,0,1,1.038-.806,2.964,2.964,0,0,1,1.316-.294,3.226,3.226,0,0,1,1.8.465,5.256,5.256,0,0,1,1.331,1.3l4-2.975a8.288,8.288,0,0,0-2.82-2.726,8.426,8.426,0,0,0-4.337-1.022,9.3,9.3,0,0,0-3.641.7,8.678,8.678,0,0,0-5.344,8.04v.062a8.676,8.676,0,0,0,8.768,8.707,8.736,8.736,0,0,0,4.524-1.053,9.246,9.246,0,0,0,2.944-2.789l-3.936-2.851a6.959,6.959,0,0,1-1.44,1.27" transform="translate(-477.317 -551.179)" fill="#fff"/>
    <path id="Trazado_42481" data-name="Trazado 42481" d="M700.278,701.031H694.36v4.245h-1.982v4.741h1.982v6.816q0,3.006,1.5,4.276a6.249,6.249,0,0,0,4.174,1.271,9.079,9.079,0,0,0,2.263-.263,8.084,8.084,0,0,0,1.828-.7V716.8a6.765,6.765,0,0,1-1.084.4,4.242,4.242,0,0,1-1.147.155,1.679,1.679,0,0,1-1.208-.387,1.728,1.728,0,0,1-.4-1.286v-5.67h3.9v-4.741h-3.9Z" transform="translate(-531.624 -538.268)" fill="#fff"/>
    <path id="Trazado_42482" data-name="Trazado 42482" d="M764.933,723.042a8.3,8.3,0,0,0-1.92-2.757,9.433,9.433,0,0,0-2.929-1.875,9.612,9.612,0,0,0-3.7-.7,9.729,9.729,0,0,0-3.719.7,9.23,9.23,0,0,0-2.943,1.89,8.6,8.6,0,0,0-1.936,2.789,8.374,8.374,0,0,0-.7,3.393v.062a8.434,8.434,0,0,0,2.6,6.151,9.047,9.047,0,0,0,2.929,1.875,10.326,10.326,0,0,0,7.42-.016,9.224,9.224,0,0,0,2.944-1.89,8.6,8.6,0,0,0,1.937-2.789,8.371,8.371,0,0,0,.7-3.393v-.062a8.427,8.427,0,0,0-.682-3.378m-5.049,3.5a4.073,4.073,0,0,1-.249,1.414,3.669,3.669,0,0,1-.7,1.183,3.191,3.191,0,0,1-1.1.8,3.516,3.516,0,0,1-1.456.292,3.3,3.3,0,0,1-1.426-.307,3.747,3.747,0,0,1-1.131-.814,3.588,3.588,0,0,1-.744-1.183,3.949,3.949,0,0,1-.264-1.445v-.062a4.07,4.07,0,0,1,.248-1.413,3.66,3.66,0,0,1,.7-1.183,3.187,3.187,0,0,1,1.1-.8,3.513,3.513,0,0,1,1.456-.292,3.3,3.3,0,0,1,1.426.307,3.767,3.767,0,0,1,1.131.814,3.614,3.614,0,0,1,.744,1.183,3.951,3.951,0,0,1,.264,1.444Z" transform="translate(-573.63 -551.077)" fill="#fff"/>
    <path id="Trazado_42483" data-name="Trazado 42483" d="M196.862,181.895c26.9,26.125,72.2,16.879,86.666-17.7a53.827,53.827,0,0,0-10.867-58.1c-20.5-21.479-55.531-21.76-76.421-.628-21.131,20.89-20.859,55.92.622,76.427M229.3,158.646a6.744,6.744,0,0,0-2.18-1.379,32.4,32.4,0,0,0-3.159-1.113q-1.781-.534-3.737-1.155a50.231,50.231,0,0,1-5.027-1.736,17.957,17.957,0,0,1-4.582-2.67,13.017,13.017,0,0,1-3.336-4.048,12.257,12.257,0,0,1-1.291-5.871V140.5a14.021,14.021,0,0,1,5.116-11.211,15.9,15.9,0,0,1,5.516-2.936,22.9,22.9,0,0,1,6.808-.979,30.016,30.016,0,0,1,7.8,1.061,12.9,12.9,0,0,1,1.061-3.156,14.32,14.32,0,0,1,3.737-4.759,15.907,15.907,0,0,1,5.514-2.936,22.889,22.889,0,0,1,6.807-.979,30.576,30.576,0,0,1,9.208,1.468,34.117,34.117,0,0,1,8.587,4.048l-5.16,9.343a42.692,42.692,0,0,0-6.941-3.247,18.133,18.133,0,0,0-5.96-1.2,6.2,6.2,0,0,0-3.737.934A2.839,2.839,0,0,0,243.1,128.3v.178a2.326,2.326,0,0,0,.8,1.735,8.914,8.914,0,0,0,2.135,1.424,28.492,28.492,0,0,0,3.07,1.29q1.735.623,3.692,1.245,2.492.8,5.072,1.913A20.872,20.872,0,0,1,262.5,138.8a13.471,13.471,0,0,1,3.381,3.915,11.046,11.046,0,0,1,1.334,5.6v.178a15.876,15.876,0,0,1-1.378,6.894,12.668,12.668,0,0,1-3.87,4.761,17.423,17.423,0,0,1-5.828,2.8,26.453,26.453,0,0,1-7.162.935,31.788,31.788,0,0,1-7.044-.818,13.415,13.415,0,0,1-1.016,3.091,12.67,12.67,0,0,1-3.87,4.76,17.465,17.465,0,0,1-5.828,2.8,26.5,26.5,0,0,1-7.162.934,33.4,33.4,0,0,1-20.463-7.207l5.783-8.9a32.133,32.133,0,0,0,7.785,4.273,21.072,21.072,0,0,0,7.252,1.423,7.532,7.532,0,0,0,4.315-.98,3.02,3.02,0,0,0,1.379-2.58v-.177a2.56,2.56,0,0,0-.8-1.869" transform="translate(-138.646 -68.951)" fill="#fff"/>
    <path id="Trazado_42484" data-name="Trazado 42484" d="M353.947,298.234c.014.281.509.348.988.467a68.851,68.851,0,0,1,7.231,1.966,11.119,11.119,0,0,1,3.5,2.048c.743.6,2.8,1.725,3.72.994a15.781,15.781,0,0,0,3.278-8.373c-.182-1.168-2.451-1.734-3.4-1.807a10.921,10.921,0,0,1-3.965-.87,67.464,67.464,0,0,1-6.646-3.47c-.431-.234-.837-.523-1.042-.32-.112-.384-5.806-2.341-6.224-1.915.1-.256-.56-.4-1.019-.52-.827-.22-2.963-.264-5.225-.472a27.233,27.233,0,0,1-3.6-.487,22.9,22.9,0,0,1-2.692-.938.644.644,0,0,0-.454-.441,8.319,8.319,0,0,0-1.25-.072.44.44,0,0,1-.3-.263.572.572,0,0,0-.523-.289c-.266-.02-.441.234-.539.375a11.115,11.115,0,0,0-.752,1.587,11.387,11.387,0,0,0-.527,1.665c-.023.179-.065.481.141.647a.572.572,0,0,0,.583.144.447.447,0,0,1,.4,0,9.857,9.857,0,0,0,.964.808.661.661,0,0,0,.634-.02,21.921,21.921,0,0,1,2.618,1.133,26.8,26.8,0,0,1,2.968,2.092c1.8,1.373,3.4,2.794,4.157,3.2.412.226,1,.564,1.1.3.015.6,5.521,3.029,5.863,2.828" transform="translate(-256.836 -217.656)" fill="#fff"/>
    <path id="Trazado_42485" data-name="Trazado 42485" d="M168.069,2.1a75.192,75.192,0,1,0,75.192,75.192A75.192,75.192,0,0,0,168.069,2.1M207.2,116.427c-24.766,24.911-66.715,20.438-85.656-9.114-14.111-21.462-10.972-51.194,7.36-69.182,20.972-21.289,56.335-21.573,77.676-.627,22.168,21.184,22.448,57.358.62,78.924" transform="translate(-71.313 -1.614)" fill="#fff"/>
    <path id="Trazado_42486" data-name="Trazado 42486" d="M778.3,41.583q0,19.035,0,38.069c0,.369.005.738.021,1.106a3.25,3.25,0,0,1-1.454,3,1.912,1.912,0,0,0-.864,1.843c.153,4.1.27,8.193.395,12.289q.273,8.943.541,17.887.246,8.051.5,16.1c.134,4.364.285,8.728.383,13.092a5.927,5.927,0,0,1-3.955,6.053c-3.44.971-6.718-1.864-6.676-5.853.034-3.238.172-6.475.271-9.712q.225-7.375.458-14.749.281-9.22.554-18.439.249-8.051.519-16.1c.032-.972-.175-1.387-.946-1.749-2.544-1.195-3.771-3.406-4.051-6.269a121.223,121.223,0,0,1-.316-14.5c.161-7.293.383-14.587.732-21.873.21-4.374.634-8.741,1.1-13.094a110.228,110.228,0,0,1,3.4-19.081A24.17,24.17,0,0,1,772,2.46,4.943,4.943,0,0,1,775.347.021,3.1,3.1,0,0,1,776.473.1a1.669,1.669,0,0,1,1.38,1.824q.08,4.857.12,9.715.083,11.87.142,23.739c.011,2.07,0,4.139,0,6.209h.189" transform="translate(-586.32 0)" fill="#fff"/>
    <path id="Trazado_42487" data-name="Trazado 42487" d="M7.03,99.572q.391-13.149.782-26.3.28-9.37.573-18.739a2.274,2.274,0,0,0-.691-1.763c-1.663-1.717-3.3-3.46-4.939-5.2A9.6,9.6,0,0,1,.023,40.72C.039,37.115-.073,33.5.09,29.9c.257-5.667.66-11.329,1.072-16.988.29-3.981.7-7.954,1.045-11.932.034-.4.177-.59.607-.591,1.863,0,1.51-.16,1.553,1.412Q4.7,14.22,5.011,26.635c.027,1.065.026,2.131.064,3.2.03.829.452,1.3,1.1,1.3.7,0,1.153-.539,1.173-1.385Q7.671,16.072,8,2.4c.015-.614.08-1.228.08-1.842,0-.4.162-.56.555-.534a2.831,2.831,0,0,0,.5-.01c.49-.055.631.151.639.632q.209,12.817.449,25.633.03,1.66.055,3.319c.015.927.462,1.495,1.186,1.508.7.013,1.218-.586,1.234-1.471q.156-9.067.3-18.133c.061-3.606.137-7.212.181-10.818.006-.5.153-.729.672-.672a2.2,2.2,0,0,0,.436,0c.459-.042.6.155.61.607.038,2.274.11,4.548.168,6.822q.281,11,.562,22a4.77,4.77,0,0,0,.049.734,1.124,1.124,0,0,0,1.186.953,1.094,1.094,0,0,0,1-1.071c.044-1,.056-2.007.082-3.011q.252-9.956.507-19.911c.055-2.11.146-4.219.191-6.329.011-.509.191-.628.68-.56,1.407.2,1.4.181,1.515,1.627q.565,6.827,1.147,13.654c.613,7.189,1.027,14.388,1.033,21.6,0,1.576-.117,3.152-.177,4.728a8.655,8.655,0,0,1-2.507,5.55q-2.365,2.61-4.84,5.123a2.818,2.818,0,0,0-.929,2.228q.359,10.629.662,21.261.425,14.164.841,28.329.393,13.149.792,26.3c.134,4.465.248,8.932.406,13.4a7.013,7.013,0,0,1-1.807,5.386,5.44,5.44,0,0,1-8.979-1.391,7.813,7.813,0,0,1-.838-3.857q.347-10.413.674-20.828c.161-5.264.293-10.529.445-15.794.077-2.663.168-5.325.252-7.988H7.03" transform="translate(0 0)" fill="#fff"/>
  </g>
</svg>
