<svg xmlns="http://www.w3.org/2000/svg" xmlns:xlink="http://www.w3.org/1999/xlink" width="243.942" height="39.725" viewBox="0 0 243.942 39.725">
  <defs>
    <clipPath id="clip-path">
      <rect id="Rectángulo_23355" data-name="Rectángulo 23355" width="243.942" height="39.725" fill="none"/>
    </clipPath>
  </defs>
  <g id="Logo_Header_D." data-name="Logo Header D." transform="translate(0 0)">
    <g id="Grupo_19921" data-name="Grupo 19921" transform="translate(0 0)" clip-path="url(#clip-path)">
      <path id="Trazado_43329" data-name="Trazado 43329" d="M41.209,18.6a8.911,8.911,0,0,0-2.237-2.59,13.81,13.81,0,0,0-3.06-1.8q-1.7-.734-3.357-1.267c-.863-.273-1.677-.551-2.444-.824a18.53,18.53,0,0,1-2.03-.853,5.7,5.7,0,0,1-1.413-.944,1.538,1.538,0,0,1-.531-1.146V9.063a1.877,1.877,0,0,1,.824-1.56,4.091,4.091,0,0,1,2.473-.616,12.144,12.144,0,0,1,3.943.793,28.116,28.116,0,0,1,4.594,2.151l3.414-6.18A22.579,22.579,0,0,0,35.705.975,20.186,20.186,0,0,0,29.611,0a15.2,15.2,0,0,0-4.5.646,10.546,10.546,0,0,0-3.65,1.944,9.514,9.514,0,0,0-2.474,3.15,8.541,8.541,0,0,0-.7,2.09,19.986,19.986,0,0,0-5.16-.7,15.2,15.2,0,0,0-4.5.646,10.546,10.546,0,0,0-3.65,1.944A9.279,9.279,0,0,0,1.58,17.136v.116a8.087,8.087,0,0,0,.853,3.883A8.561,8.561,0,0,0,4.64,23.81a11.833,11.833,0,0,0,3.035,1.768A32.252,32.252,0,0,0,11,26.723c.863.273,1.687.531,2.474.763a21.422,21.422,0,0,1,2.09.736,4.535,4.535,0,0,1,1.444.915,1.689,1.689,0,0,1,.529,1.237v.116a1.99,1.99,0,0,1-.913,1.706,4.976,4.976,0,0,1-2.853.646,13.865,13.865,0,0,1-4.8-.944,21.223,21.223,0,0,1-5.15-2.828L0,34.959a22.08,22.08,0,0,0,13.536,4.766,17.673,17.673,0,0,0,4.741-.616,11.607,11.607,0,0,0,3.857-1.853,8.333,8.333,0,0,0,2.561-3.15,8.816,8.816,0,0,0,.671-2.045,21,21,0,0,0,4.659.54,17.661,17.661,0,0,0,4.741-.616,11.493,11.493,0,0,0,3.858-1.853,8.321,8.321,0,0,0,2.56-3.15,10.547,10.547,0,0,0,.913-4.564V22.3a7.277,7.277,0,0,0-.884-3.7Z" transform="translate(0 0)" fill="#fff"/>
      <path id="Trazado_43330" data-name="Trazado 43330" d="M31.979,22.516a8.176,8.176,0,0,0,.682-2.923c-.122-.773-1.621-1.146-2.252-1.2a7.368,7.368,0,0,1-2.626-.576,44.342,44.342,0,0,1-4.4-2.3c-.287-.157-.556-.349-.692-.212-.075-.252-3.842-1.55-4.12-1.267.066-.172-.368-.268-.676-.343-.545-.147-1.96-.177-3.459-.314a17.571,17.571,0,0,1-2.378-.323,14.787,14.787,0,0,1-1.783-.621.432.432,0,0,0-.3-.293,5.411,5.411,0,0,0-.828-.045.28.28,0,0,1-.2-.172.383.383,0,0,0-.349-.192c-.177-.015-.293.157-.358.248a7.156,7.156,0,0,0-.5,1.051,7.68,7.68,0,0,0-.349,1.1c-.015.117-.045.318.091.429a.38.38,0,0,0,.384.1.3.3,0,0,1,.262,0,7.214,7.214,0,0,0,.636.536.441.441,0,0,0,.419-.016,15.177,15.177,0,0,1,1.731.748,17.925,17.925,0,0,1,1.964,1.384c1.192.909,2.252,1.847,2.752,2.115.273.151.661.374.732.2.01.4,3.656,2.005,3.878,1.873.01.187.339.233.652.308a44.969,44.969,0,0,1,4.786,1.3,7.363,7.363,0,0,1,2.318,1.353c.49.393,1.847,1.141,2.459.657a8.357,8.357,0,0,0,1.489-2.615" transform="translate(1.005 1.598)" fill="#f62627"/>
      <path id="Trazado_43331" data-name="Trazado 43331" d="M54.933,27.774A11.632,11.632,0,0,1,51.111,25.8l1.116-1.221a10.6,10.6,0,0,0,3.419,1.843,12.884,12.884,0,0,0,4,.621,8.763,8.763,0,0,0,2.958-.481A5.109,5.109,0,0,0,64.743,25.2a2.98,2.98,0,0,0,.8-2.051q0-2.8-4.468-3.609l-4.16-.752q-5.278-.963-5.276-4.468a3.925,3.925,0,0,1,1.02-2.687A6.605,6.605,0,0,1,55.433,9.84,11.485,11.485,0,0,1,59.37,9.2a10.746,10.746,0,0,1,7.316,2.363l-1.035,1.141a8.56,8.56,0,0,0-3.045-1.626,11.678,11.678,0,0,0-3.266-.479,9.61,9.61,0,0,0-3.055.469,5.406,5.406,0,0,0-2.176,1.287,2.623,2.623,0,0,0-.8,1.884,2.314,2.314,0,0,0,1.045,1.934,8.265,8.265,0,0,0,3.282,1.182l4.049.752a8.139,8.139,0,0,1,4.13,1.777,4.159,4.159,0,0,1,1.394,3.181,4.467,4.467,0,0,1-.95,2.807A6.193,6.193,0,0,1,63.6,27.784a10.4,10.4,0,0,1-3.892.686,15.772,15.772,0,0,1-4.772-.7Z" transform="translate(6.956 1.253)" fill="#fff"/>
      <path id="Trazado_43332" data-name="Trazado 43332" d="M74.938,28a8.426,8.426,0,0,1-4.074-.975,7.311,7.311,0,0,1-2.848-2.661,7.279,7.279,0,0,1,0-7.482,7.278,7.278,0,0,1,2.848-2.661,9.01,9.01,0,0,1,8.148,0,7.319,7.319,0,0,1,2.848,2.661,7.279,7.279,0,0,1,0,7.482,7.27,7.27,0,0,1-2.848,2.661A8.455,8.455,0,0,1,74.938,28Zm0-13.349a6.6,6.6,0,0,0-3.2.777,5.92,5.92,0,0,0-2.277,2.156,5.929,5.929,0,0,0,0,6.079,5.917,5.917,0,0,0,2.277,2.155,6.951,6.951,0,0,0,6.392,0,5.917,5.917,0,0,0,2.277-2.155,5.929,5.929,0,0,0,0-6.079,5.92,5.92,0,0,0-2.277-2.156,6.6,6.6,0,0,0-3.2-.777" transform="translate(9.116 1.803)" fill="#fff"/>
      <path id="Trazado_43333" data-name="Trazado 43333" d="M86.456,27.052A7.2,7.2,0,0,1,83.5,24.427a6.96,6.96,0,0,1-1.06-3.807,6.857,6.857,0,0,1,1.075-3.791A7.272,7.272,0,0,1,86.5,14.193a9.51,9.51,0,0,1,4.287-.949,7.774,7.774,0,0,1,5.387,1.868l-1.035,1.116a6.237,6.237,0,0,0-2.025-1.182,7.183,7.183,0,0,0-2.414-.4,7.32,7.32,0,0,0-3.337.767,6,6,0,0,0-2.4,2.13,5.858,5.858,0,0,0,0,6.17,6.069,6.069,0,0,0,2.4,2.115,7.382,7.382,0,0,0,3.363.768,7.992,7.992,0,0,0,2.595-.415,4.518,4.518,0,0,0,1.923-1.171l1.091,1.041a5.559,5.559,0,0,1-2.343,1.438,9.907,9.907,0,0,1-3.237.506,9.479,9.479,0,0,1-4.3-.95Z" transform="translate(11.22 1.803)" fill="#fff"/>
      <path id="Trazado_43334" data-name="Trazado 43334" d="M98.581,9.605a1.134,1.134,0,0,1,0,1.605,1.346,1.346,0,0,1-1.727,0,1.131,1.131,0,0,1,0-1.605,1.349,1.349,0,0,1,1.727,0M96.9,14.125h1.621V28.2H96.9Z" transform="translate(13.136 1.265)" fill="#fff"/>
      <path id="Trazado_43335" data-name="Trazado 43335" d="M108.868,28a8.426,8.426,0,0,1-4.074-.975,7.311,7.311,0,0,1-2.848-2.661,7.279,7.279,0,0,1,0-7.482,7.278,7.278,0,0,1,2.848-2.661,9.011,9.011,0,0,1,8.148,0,7.319,7.319,0,0,1,2.848,2.661,7.279,7.279,0,0,1,0,7.482,7.27,7.27,0,0,1-2.848,2.661A8.454,8.454,0,0,1,108.868,28Zm0-13.349a6.6,6.6,0,0,0-3.2.777,5.92,5.92,0,0,0-2.277,2.156,5.929,5.929,0,0,0,0,6.079,5.917,5.917,0,0,0,2.277,2.155,6.951,6.951,0,0,0,6.392,0,5.917,5.917,0,0,0,2.277-2.155,5.929,5.929,0,0,0,0-6.079,5.92,5.92,0,0,0-2.277-2.156,6.6,6.6,0,0,0-3.2-.777" transform="translate(13.734 1.803)" fill="#fff"/>
      <path id="Trazado_43336" data-name="Trazado 43336" d="M121.009,27.682a11.155,11.155,0,0,1-4.175-2.171l3.07-3.5a10.135,10.135,0,0,0,6.669,2.312,5.547,5.547,0,0,0,2.611-.5c.621-.339.934-.748.934-1.232,0-.763-.651-1.227-1.954-1.4l-4.3-.621q-6.254-.93-6.25-5.427A4.956,4.956,0,0,1,118.652,12a6.489,6.489,0,0,1,3.029-2.065,14.12,14.12,0,0,1,4.817-.727,17.833,17.833,0,0,1,4.832.661,10.5,10.5,0,0,1,3.963,2.015l-2.9,3.453a11.024,11.024,0,0,0-2.777-1.479,9.028,9.028,0,0,0-3-.494,6.863,6.863,0,0,0-2.64.428c-.662.289-.99.626-.99,1.026,0,.641.575,1.05,1.731,1.221l4.857.727a7.98,7.98,0,0,1,4.509,1.868,4.765,4.765,0,0,1,1.463,3.559,5.328,5.328,0,0,1-1.075,3.313,6.858,6.858,0,0,1-3.1,2.2,13.372,13.372,0,0,1-4.816.777,18.874,18.874,0,0,1-5.54-.793Z" transform="translate(15.901 1.253)" fill="#fff"/>
      <path id="Trazado_43337" data-name="Trazado 43337" d="M151.23,21.941H139.117a3.374,3.374,0,0,0,1.591,1.768,5.982,5.982,0,0,0,2.873.62,6.5,6.5,0,0,0,2.121-.323,8.537,8.537,0,0,0,2.064-1.105l2.539,2.933a7.729,7.729,0,0,1-2.752,1.61,11.837,11.837,0,0,1-4.033.621,11.387,11.387,0,0,1-5-1.015,7.492,7.492,0,0,1-3.181-2.752,7.146,7.146,0,0,1-1.091-3.873,7.305,7.305,0,0,1,1.035-3.832,7.488,7.488,0,0,1,2.989-2.807,9.507,9.507,0,0,1,4.58-1.05,9.328,9.328,0,0,1,4.549,1.05,7.357,7.357,0,0,1,2.944,2.843,7.826,7.826,0,0,1,1.02,3.948,5.76,5.76,0,0,1-.142,1.353Zm-10.765-4.766a3.24,3.24,0,0,0-1.384,1.727h7.482a3.165,3.165,0,0,0-1.312-1.727,4.284,4.284,0,0,0-2.373-.611,4.5,4.5,0,0,0-2.413.611" transform="translate(18.272 1.734)" fill="#fff"/>
      <path id="Trazado_43338" data-name="Trazado 43338" d="M155.857,8.747V23.318a.916.916,0,0,0,.364.8,1.658,1.658,0,0,0,.979.258,3.933,3.933,0,0,0,1.227-.207v3.9a7.167,7.167,0,0,1-2.57.415,5.3,5.3,0,0,1-3.63-1.182,4.149,4.149,0,0,1-1.338-3.287V8.742h4.968Z" transform="translate(20.536 1.19)" fill="#fff"/>
      <path id="Trazado_43339" data-name="Trazado 43339" d="M174.667,21.941H162.556a3.362,3.362,0,0,0,1.589,1.768,5.984,5.984,0,0,0,2.874.62,6.5,6.5,0,0,0,2.12-.323A8.516,8.516,0,0,0,171.2,22.9l2.539,2.933a7.719,7.719,0,0,1-2.752,1.61,11.841,11.841,0,0,1-4.033.621,11.378,11.378,0,0,1-5-1.015,7.489,7.489,0,0,1-3.182-2.752,7.146,7.146,0,0,1-1.091-3.873,7.285,7.285,0,0,1,1.036-3.832,7.462,7.462,0,0,1,2.988-2.807,9.505,9.505,0,0,1,4.581-1.05,9.331,9.331,0,0,1,4.549,1.05,7.376,7.376,0,0,1,2.942,2.843,7.825,7.825,0,0,1,1.019,3.948,5.828,5.828,0,0,1-.14,1.353Zm-10.759-4.766a3.24,3.24,0,0,0-1.384,1.727h7.482a3.16,3.16,0,0,0-1.312-1.727,4.282,4.282,0,0,0-2.373-.611,4.5,4.5,0,0,0-2.413.611" transform="translate(21.461 1.734)" fill="#fff"/>
      <path id="Trazado_43340" data-name="Trazado 43340" d="M177.774,27.055a7.485,7.485,0,0,1-3.164-2.741,7.031,7.031,0,0,1-1.092-3.832,7.145,7.145,0,0,1,1.145-3.923,7.941,7.941,0,0,1,3.228-2.793,11.736,11.736,0,0,1,8.68-.364,7.736,7.736,0,0,1,2.72,1.7l-2.873,3.272a5.9,5.9,0,0,0-1.7-1.107,5.113,5.113,0,0,0-2.01-.4,5.051,5.051,0,0,0-2.025.414,3.724,3.724,0,0,0-1.55,1.222,3.367,3.367,0,0,0,0,3.8,3.677,3.677,0,0,0,1.55,1.221,5.159,5.159,0,0,0,2.081.415,6.08,6.08,0,0,0,1.993-.339,4.847,4.847,0,0,0,1.748-1.041l2.846,3.247a7.876,7.876,0,0,1-2.721,1.636,12.581,12.581,0,0,1-8.851-.394Z" transform="translate(23.616 1.734)" fill="#fff"/>
      <path id="Trazado_43341" data-name="Trazado 43341" d="M200,23.929v4.024a8.209,8.209,0,0,1-3.045.494,7.205,7.205,0,0,1-4.942-1.479,5.342,5.342,0,0,1-1.646-4.18V17.461h-2.651V13.619h2.706V10.968l4.912-2.155v4.806h4.524v3.842h-4.524v4.964q0,1.869,2.428,1.868A7.534,7.534,0,0,0,200,23.929Z" transform="translate(25.548 1.2)" fill="#fff"/>
      <path id="Trazado_43342" data-name="Trazado 43342" d="M203.275,27.045a7.7,7.7,0,0,1-3.125-2.766,7.361,7.361,0,0,1,0-7.745,7.774,7.774,0,0,1,3.125-2.768,11.176,11.176,0,0,1,9.35,0,7.737,7.737,0,0,1,3.125,2.768,7.361,7.361,0,0,1,0,7.745,7.771,7.771,0,0,1-3.125,2.766,11.176,11.176,0,0,1-9.35,0m7.437-4.1a3.437,3.437,0,0,0,0-5.069,4.4,4.4,0,0,0-5.524,0,3.437,3.437,0,0,0,0,5.069,4.4,4.4,0,0,0,5.524,0" transform="translate(27.091 1.734)" fill="#fff"/>
    </g>
  </g>
</svg>
