<svg id="ic-ejecucion-tabla" xmlns="http://www.w3.org/2000/svg" xmlns:xlink="http://www.w3.org/1999/xlink" width="114" height="114" viewBox="0 0 114 114">
  <defs>
    <clipPath id="clip-path">
      <rect id="Rect치ngulo_23108" data-name="Rect치ngulo 23108" width="114" height="88.833" fill="#f40000"/>
    </clipPath>
  </defs>
  <g id="Grupo_19646" data-name="Grupo 19646" transform="translate(0 12.031)">
    <g id="Grupo_19645" data-name="Grupo 19645" transform="translate(0 0)" clip-path="url(#clip-path)">
      <path id="Trazado_42583" data-name="Trazado 42583" d="M112.725,93.82H9.9a3.308,3.308,0,0,1-3.215-3.392V13.392A3.308,3.308,0,0,1,9.9,10a3.306,3.306,0,0,1,3.215,3.392V87.036h99.606a3.4,3.4,0,0,1,0,6.784" transform="translate(-1.94 -10.003)" fill="#fff"/>
      <path id="Trazado_42584" data-name="Trazado 42584" d="M9.9,47.753a3.308,3.308,0,0,1-3.215-3.392v-5.01A3.308,3.308,0,0,1,9.9,35.959a3.308,3.308,0,0,1,3.215,3.392v5.01A3.308,3.308,0,0,1,9.9,47.753" transform="translate(-1.94 41.08)" fill="#fff"/>
      <path id="Trazado_42585" data-name="Trazado 42585" d="M17.489,47.753a3.308,3.308,0,0,1-3.215-3.392v-5.01a3.308,3.308,0,0,1,3.215-3.392A3.308,3.308,0,0,1,20.7,39.351v5.01a3.308,3.308,0,0,1-3.215,3.392" transform="translate(11.813 41.08)" fill="#fff"/>
      <path id="Trazado_42586" data-name="Trazado 42586" d="M25.074,47.753a3.308,3.308,0,0,1-3.215-3.392v-5.01a3.22,3.22,0,1,1,6.43,0v5.01a3.308,3.308,0,0,1-3.215,3.392" transform="translate(25.564 41.08)" fill="#fff"/>
      <path id="Trazado_42587" data-name="Trazado 42587" d="M32.661,47.753a3.308,3.308,0,0,1-3.215-3.392v-5.01a3.22,3.22,0,1,1,6.43,0v5.01a3.308,3.308,0,0,1-3.215,3.392" transform="translate(39.319 41.08)" fill="#fff"/>
      <path id="Trazado_42588" data-name="Trazado 42588" d="M40.245,47.753a3.308,3.308,0,0,1-3.215-3.392v-5.01a3.22,3.22,0,1,1,6.43,0v5.01a3.308,3.308,0,0,1-3.215,3.392" transform="translate(53.068 41.08)" fill="#fff"/>
      <path id="Trazado_42589" data-name="Trazado 42589" d="M40.245,47.753a3.308,3.308,0,0,1-3.215-3.392v-5.01a3.22,3.22,0,1,1,6.43,0v5.01a3.308,3.308,0,0,1-3.215,3.392" transform="translate(53.068 41.08)" fill="#fff"/>
      <path id="Trazado_42590" data-name="Trazado 42590" d="M12.963,42.743H8.215a3.4,3.4,0,0,1,0-6.784h4.748a3.4,3.4,0,0,1,0,6.784" transform="translate(-5 41.08)" fill="#fff"/>
      <path id="Trazado_42591" data-name="Trazado 42591" d="M12.963,35.157H8.215a3.4,3.4,0,0,1,0-6.784h4.748a3.4,3.4,0,0,1,0,6.784" transform="translate(-5 26.152)" fill="#fff"/>
      <path id="Trazado_42592" data-name="Trazado 42592" d="M12.963,27.572H8.215a3.4,3.4,0,0,1,0-6.784h4.748a3.4,3.4,0,0,1,0,6.784" transform="translate(-5 11.226)" fill="#fff"/>
      <path id="Trazado_42593" data-name="Trazado 42593" d="M12.963,19.987H8.215A3.308,3.308,0,0,1,5,16.6,3.308,3.308,0,0,1,8.215,13.2h4.748A3.308,3.308,0,0,1,16.179,16.6a3.308,3.308,0,0,1-3.215,3.392" transform="translate(-5 -3.7)" fill="#fff"/>
      <path id="Trazado_42594" data-name="Trazado 42594" d="M57.86,54.742a3.1,3.1,0,0,1-1.5-.395L35.038,42.431,10.867,50.444a3.184,3.184,0,0,1-4.031-2.217,3.431,3.431,0,0,1,2.1-4.253l25.454-8.44a3.064,3.064,0,0,1,2.47.237L57.3,47.2,80.231,23.731a3.086,3.086,0,0,1,3.235-.792l20.906,7.179a3.436,3.436,0,0,1,2.062,4.277,3.182,3.182,0,0,1-4.053,2.175L83.317,30.023,60.1,53.783a3.122,3.122,0,0,1-2.239.959" transform="translate(-1.941 15.127)" fill="#f40000"/>
      <path id="Trazado_42595" data-name="Trazado 42595" d="M9.907,54.941a3.175,3.175,0,0,1-2.7-1.549A3.508,3.508,0,0,1,8.157,48.7L33.611,31.332a3.078,3.078,0,0,1,2.993-.279l20.478,9.093L80.166,15a3.135,3.135,0,0,1,2.5-1.027l20.9,1.333a3.334,3.334,0,0,1,3.015,3.591,3.291,3.291,0,0,1-3.4,3.182L83.755,20.838l-23.584,25.7a3.093,3.093,0,0,1-3.558.766L35.676,38,11.651,54.4a3.082,3.082,0,0,1-1.744.543" transform="translate(-1.941 -2.203)" fill="#f40000"/>
    </g>
  </g>
  <rect id="Rect치ngulo_23111" data-name="Rect치ngulo 23111" width="114" height="114" fill="none"/>
</svg>
