<svg xmlns="http://www.w3.org/2000/svg" xmlns:xlink="http://www.w3.org/1999/xlink" width="50" height="50" viewBox="0 0 50 50">
  <defs>
    <clipPath id="clip-path">
      <rect id="Rectángulo_22333" data-name="Rectángulo 22333" width="50" height="50" transform="translate(499 -20117)" fill="#e2ff00"/>
    </clipPath>
    <clipPath id="clip-path-2">
      <rect id="Rectángulo_21280" data-name="Rectángulo 21280" width="44.767" height="37.764" transform="translate(0 0)" fill="none"/>
    </clipPath>
  </defs>
  <g id="icn-bonos" transform="translate(-499 20117)" clip-path="url(#clip-path)">
    <g id="icn-bonos-2" data-name="icn-bonos" transform="translate(500 -20112.764)">
      <g id="Grupo_19171" data-name="Grupo 19171" clip-path="url(#clip-path-2)">
        <path id="Trazado_41475" data-name="Trazado 41475" d="M29.491,15.859H43.317a.351.351,0,0,1,.35.352V35.266a1.4,1.4,0,0,1-1.4,1.4H18.762a1.4,1.4,0,0,1-1.4-1.4h0V27.254" fill="none" stroke="#f40000" stroke-linecap="round" stroke-linejoin="round" stroke-width="2.2"/>
        <path id="Trazado_41476" data-name="Trazado 41476" d="M2.927,31.431,24.454,9.9a.669.669,0,0,1,.947,0l4.09,4.09a.669.669,0,0,1,0,.947L7.964,36.468a.669.669,0,0,1-.947,0l-4.09-4.09A.669.669,0,0,1,2.927,31.431Z" fill="none" stroke="#f40000" stroke-linecap="round" stroke-linejoin="round" stroke-width="2.2"/>
        <path id="Trazado_41477" data-name="Trazado 41477" d="M17.177,27.254,12.14,22.217l-.508-.508a2.192,2.192,0,0,1,3.1-3.1l.509.509,5.038,5.036" fill="none" stroke="#f40000" stroke-linecap="round" stroke-linejoin="round" stroke-width="2.2"/>
        <path id="Trazado_41478" data-name="Trazado 41478" d="M21.828,12.53c-.2-4.353-4.04-5.5-6.3-3.489-2.395,2.13-2.273,6.531-1.641,9.045" fill="none" stroke="#f40000" stroke-linecap="round" stroke-linejoin="round" stroke-width="2.2"/>
        <path id="Trazado_41479" data-name="Trazado 41479" d="M5.546,28.811c-4.354-.194-5.5-4.039-3.489-6.3,2.131-2.4,6.531-2.273,9.045-1.64" fill="none" stroke="#f40000" stroke-linecap="round" stroke-linejoin="round" stroke-width="2.2"/>
        <line id="Línea_795" data-name="Línea 795" x2="0.76" y2="4.006" transform="translate(28.599 1.1)" fill="none" stroke="#1d1d1b" stroke-linecap="round" stroke-linejoin="round" stroke-width="2.2"/>
        <line id="Línea_796" data-name="Línea 796" y1="0.76" x2="4.006" transform="translate(38.493 10.567)" fill="none" stroke="#1d1d1b" stroke-linecap="round" stroke-linejoin="round" stroke-width="2.2"/>
        <line id="Línea_797" data-name="Línea 797" y1="3.033" x2="2.065" transform="translate(34.775 3.938)" fill="none" stroke="#1d1d1b" stroke-linecap="round" stroke-linejoin="round" stroke-width="2.2"/>
        <path id="Trazado_41480" data-name="Trazado 41480" d="M31.361,21.229l1.111,2.249a.732.732,0,0,0,.552.4l2.483.361a.944.944,0,0,1,.522,1.61l-1.8,1.75a.731.731,0,0,0-.211.644l.424,2.473a.942.942,0,0,1-1.368.994l-2.221-1.168a.738.738,0,0,0-.681,0l-2.22,1.168a.945.945,0,0,1-1.369-.994l.425-2.473A.734.734,0,0,0,26.8,27.6L25,25.849a.944.944,0,0,1,.524-1.61l2.483-.36a.734.734,0,0,0,.55-.4l1.111-2.249a.943.943,0,0,1,1.691,0Z" fill="none" stroke="#1d1d1b" stroke-linecap="round" stroke-linejoin="round" stroke-width="2.2"/>
      </g>
    </g>
  </g>
</svg>
