<svg id="ic-CallCenter" xmlns="http://www.w3.org/2000/svg" xmlns:xlink="http://www.w3.org/1999/xlink" width="37.246" height="27.033" viewBox="0 0 37.246 27.033">
  <defs>
    <clipPath id="clip-path">
      <rect id="Rectángulo_23532" data-name="Rectángulo 23532" width="27.033" height="37.246" fill="none"/>
    </clipPath>
  </defs>
  <g id="Grupo_20134" data-name="Grupo 20134" transform="translate(0 27.033) rotate(-90)">
    <path id="Trazado_42977" data-name="Trazado 42977" d="M0,0,27.033,27.033V0Z" transform="translate(0 10.212)" fill="#a50011"/>
    <path id="Trazado_42978" data-name="Trazado 42978" d="M0,0V27.033L27.033,0Z" transform="translate(0 10.213)" fill="#f40000"/>
    <path id="Trazado_42979" data-name="Trazado 42979" d="M0,27.033H27.033V0Z" transform="translate(0 10.213)" fill="#a50011"/>
    <g id="Grupo_20133" data-name="Grupo 20133">
      <g id="Grupo_20132" data-name="Grupo 20132" clip-path="url(#clip-path)">
        <path id="Trazado_42980" data-name="Trazado 42980" d="M9.3,15.249l.016,0,.042.005a10.666,10.666,0,0,0,2.415.088,3.914,3.914,0,0,0,2.165-1A8.655,8.655,0,0,0,16.654,8.1a8.654,8.654,0,0,0-2.719-6.243,3.926,3.926,0,0,0-2.166-1A10.485,10.485,0,0,0,9.4.938,1.863,1.863,0,0,0,7.392.04h0L4.956.594A1.569,1.569,0,0,0,3.708,2.475l.234.954a.326.326,0,0,0,.152.2.364.364,0,0,0,.261.041L9.482,2.557a.324.324,0,0,0,.259-.388l-.147-.6A9.3,9.3,0,0,1,11.679,1.5a3.219,3.219,0,0,1,1.791.838h0a8.035,8.035,0,0,1,2.5,5.764V8.1a8.037,8.037,0,0,1-2.5,5.764h0a3.226,3.226,0,0,1-1.791.838,9.818,9.818,0,0,1-2.2-.086l.14-.571a.305.305,0,0,0-.043-.245.35.35,0,0,0-.215-.144L4.232,12.544a.365.365,0,0,0-.26.041.326.326,0,0,0-.153.2l-.153.623a2.888,2.888,0,0,1-.312-.095,2.993,2.993,0,0,1-.912-.516,2.24,2.24,0,0,1-.722-1.107,3.459,3.459,0,0,1,.016-1.756,2.013,2.013,0,0,0,1.17-.244,1.789,1.789,0,0,0,.937-1.553V8.055A1.791,1.791,0,0,0,2.907,6.5h0a2.023,2.023,0,0,0-1.968,0A1.791,1.791,0,0,0,0,8.055v.083A1.791,1.791,0,0,0,.938,9.691c.044.025.091.044.136.065a4.092,4.092,0,0,0-.017,2.105,2.882,2.882,0,0,0,.926,1.419,3.852,3.852,0,0,0,1.522.758l.043.01c0,.028,0,.056,0,.083v0a1.594,1.594,0,0,0,1.291,1.488l2.549.555A1.7,1.7,0,0,0,9.3,15.249M4.536,2.967,4.38,2.329a.921.921,0,0,1,.733-1.1h0L7.548.67a1.113,1.113,0,0,1,1.287.69L8.992,2ZM.688,8.138V8.055a1.148,1.148,0,0,1,.6-1,1.3,1.3,0,0,1,1.263,0,1.15,1.15,0,0,1,.6,1v.083a1.149,1.149,0,0,1-.6,1h0a1.3,1.3,0,0,1-1.263,0,1.151,1.151,0,0,1-.6-1m6.85,7.407-2.549-.554a.937.937,0,0,1-.757-.873.887.887,0,0,1,.024-.232h0l.156-.637,4.457.968-.132.533v0l-.025.1a.984.984,0,0,1-1.174.689" transform="translate(5.19 15.622)" fill="#fff" fill-rule="evenodd"/>
        <path id="Trazado_42981" data-name="Trazado 42981" d="M0,8.3V8.22a1.962,1.962,0,0,1,1.021-1.7A2.184,2.184,0,0,1,3.111,6.5h0l.038.021A1.963,1.963,0,0,1,4.17,8.22V8.3A1.961,1.961,0,0,1,3.15,10a2.15,2.15,0,0,1-1.12.273,3.215,3.215,0,0,0,.011,1.539,2.08,2.08,0,0,0,.671,1.028,2.8,2.8,0,0,0,.862.487c.049.018.1.033.137.046l.113-.46a.487.487,0,0,1,.228-.3.53.53,0,0,1,.378-.06l5.128,1.114a.508.508,0,0,1,.316.213.468.468,0,0,1,.065.376l-.1.389a8.722,8.722,0,0,0,1.978.067,3.092,3.092,0,0,0,1.7-.8l.046-.04a7.845,7.845,0,0,0,2.393-5.535V8.207A7.844,7.844,0,0,0,13.56,2.653l-.035-.03a3.083,3.083,0,0,0-1.7-.8,8.37,8.37,0,0,0-1.861.055l.1.417A.465.465,0,0,1,10,2.658a.51.51,0,0,1-.324.225L4.553,4a.527.527,0,0,1-.377-.059.493.493,0,0,1-.229-.3L3.713,2.68A1.644,1.644,0,0,1,3.92,1.408,1.811,1.811,0,0,1,5.084.6L7.552.042A2.029,2.029,0,0,1,9.659.93,10.157,10.157,0,0,1,11.953.858,4.114,4.114,0,0,1,14.205,1.9a8.85,8.85,0,0,1,2.776,6.3v.134a8.845,8.845,0,0,1-2.776,6.3,4.1,4.1,0,0,1-2.251,1.041,10.509,10.509,0,0,1-2.4-.082,1.859,1.859,0,0,1-2.044.91l-2.549-.554a1.758,1.758,0,0,1-1.418-1.6c-.11-.029-.221-.064-.331-.1a3.865,3.865,0,0,1-1.174-.667,3.034,3.034,0,0,1-.977-1.5,4.192,4.192,0,0,1-.014-2.058L1.021,10A1.964,1.964,0,0,1,0,8.3M3.012,6.821l-.023-.012a1.855,1.855,0,0,0-1.808,0A1.636,1.636,0,0,0,.327,8.22V8.3a1.637,1.637,0,0,0,.854,1.411c.027.015.056.028.085.041l.161.075L1.4,9.96a3.957,3.957,0,0,0-.019,2.022,2.715,2.715,0,0,0,.874,1.339,3.551,3.551,0,0,0,1.075.609,3.4,3.4,0,0,0,.38.115l-.006.166.048-.157.129.03-.006.209a1.43,1.43,0,0,0,1.162,1.333l2.549.555a1.525,1.525,0,0,0,1.729-.834l.049-.111.178.023a10.535,10.535,0,0,0,2.375.089,3.741,3.741,0,0,0,2.078-.964,8.5,8.5,0,0,0,2.663-6.053c0-.044,0-.087,0-.129a8.5,8.5,0,0,0-2.662-6.056,3.756,3.756,0,0,0-2.08-.965,10.44,10.44,0,0,0-2.327.084l-.113.012-.05-.1A1.69,1.69,0,0,0,7.59.365L5.156.918A1.49,1.49,0,0,0,4.2,1.58,1.325,1.325,0,0,0,4.03,2.6l.234.954a.163.163,0,0,0,.077.1.2.2,0,0,0,.143.022L9.611,2.563a.18.18,0,0,0,.116-.079.144.144,0,0,0,.019-.11l-.192-.781.186-.02A9.39,9.39,0,0,1,11.862,1.5a3.361,3.361,0,0,1,1.831.836h0l.047.04a8.2,8.2,0,0,1,2.552,5.889c0,.022,0,.044,0,.066a8.174,8.174,0,0,1-2.552,5.825l-.048.04a3.373,3.373,0,0,1-1.83.836,9.944,9.944,0,0,1-2.24-.086l-.186-.02.185-.753a.144.144,0,0,0-.02-.115.188.188,0,0,0-.115-.076L4.361,12.87a.2.2,0,0,0-.144.023.162.162,0,0,0-.076.1l-.192.78-.159-.038a3.022,3.022,0,0,1-.329-.1,3.131,3.131,0,0,1-.962-.545A2.4,2.4,0,0,1,1.727,11.9a3.649,3.649,0,0,1,.014-1.838l.032-.139.142.013A1.837,1.837,0,0,0,2.99,9.715,1.635,1.635,0,0,0,3.843,8.3V8.22a1.635,1.635,0,0,0-.832-1.4M.688,8.3V8.22a1.318,1.318,0,0,1,.686-1.14,1.458,1.458,0,0,1,1.422,0,1.32,1.32,0,0,1,.686,1.14V8.3a1.312,1.312,0,0,1-.6,1.089v0L2.8,9.444a1.461,1.461,0,0,1-1.423,0A1.321,1.321,0,0,1,.688,8.3M3.156,8.22a.992.992,0,0,0-.519-.855,1.13,1.13,0,0,0-1.1,0,.991.991,0,0,0-.52.855V8.3a.981.981,0,0,0,.52.855,1.132,1.132,0,0,0,1.071.017l.031-.018A.989.989,0,0,0,3.156,8.3Zm1.076,6.04a1.049,1.049,0,0,1,.024-.228l0-.021.194-.791,4.777,1.038-.2.8a1.15,1.15,0,0,1-1.368.811h0l-2.548-.554a1.1,1.1,0,0,1-.886-1.028c0-.009,0-.019,0-.028m.351-.19,0,.02a.7.7,0,0,0-.019.19A.773.773,0,0,0,5.188,15l2.548.553a.821.821,0,0,0,.981-.568l.117-.476-4.137-.9ZM4.354,2.286a1.039,1.039,0,0,1,.16-.551,1.146,1.146,0,0,1,.727-.505L7.676.677a1.272,1.272,0,0,1,1.481.811l.2.8L4.578,3.327l-.194-.793a1.015,1.015,0,0,1-.03-.247m4.6-.245L8.84,1.565A.959.959,0,0,0,7.746,1l-2.431.552a.81.81,0,0,0-.524.36.708.708,0,0,0-.09.548l.119.484Z" transform="translate(5.026 15.456)" fill="#fff"/>
        <path id="Trazado_42982" data-name="Trazado 42982" d="M11.745,10.212V5.872A5.872,5.872,0,0,0,0,5.872v4.34ZM3.9,5.378A1.968,1.968,0,1,1,5.872,7.345,1.968,1.968,0,0,1,3.9,5.378" transform="translate(7.644)" fill="#f40000"/>
        <path id="Trazado_42983" data-name="Trazado 42983" d="M0,1.968A1.968,1.968,0,1,1,1.968,3.935,1.968,1.968,0,0,1,0,1.968" transform="translate(11.549 3.41)" fill="#ffb600"/>
      </g>
    </g>
  </g>
</svg>
