<svg id="ic-web" xmlns="http://www.w3.org/2000/svg" xmlns:xlink="http://www.w3.org/1999/xlink" width="37.246" height="27.033" viewBox="0 0 37.246 27.033">
  <defs>
    <clipPath id="clip-path">
      <rect id="Rectángulo_23531" data-name="Rectángulo 23531" width="27.033" height="37.246" fill="none"/>
    </clipPath>
  </defs>
  <g id="Grupo_20131" data-name="Grupo 20131" transform="translate(0 27.033) rotate(-90)">
    <path id="Trazado_42971" data-name="Trazado 42971" d="M0,0,27.033,27.033V0Z" transform="translate(0 10.212)" fill="#a50011"/>
    <path id="Trazado_42972" data-name="Trazado 42972" d="M0,0V27.033L27.033,0Z" transform="translate(0 10.213)" fill="#f40000"/>
    <path id="Trazado_42973" data-name="Trazado 42973" d="M0,27.033H27.033V0Z" transform="translate(0 10.213)" fill="#a50011"/>
    <g id="Grupo_20130" data-name="Grupo 20130">
      <g id="Grupo_20129" data-name="Grupo 20129" clip-path="url(#clip-path)">
        <path id="Trazado_42974" data-name="Trazado 42974" d="M17.789,8.894a8.894,8.894,0,1,0-8.894,8.894,8.906,8.906,0,0,0,8.894-8.894m-5.217,7.015v-2.8a9.425,9.425,0,0,0,3.841-1.719,7.955,7.955,0,0,1-3.841,4.518m-3.677-3.37a16.105,16.105,0,0,1-2.465-.19V9.378H11.6V12.31a15.933,15.933,0,0,1-2.707.229m0-7.289a15.933,15.933,0,0,1,2.707.229V8.411H6.43V5.439a15.7,15.7,0,0,1,2.465-.19m7.848,3.161H12.572V5.681c2.2.546,3.815,1.559,4.171,2.729m-11.284,0H1.046C1.415,7.2,3.135,6.155,5.459,5.626Zm-4.413.968H5.459v2.785c-2.324-.53-4.044-1.572-4.413-2.785m11.526,0h4.171c-.356,1.17-1.968,2.18-4.171,2.729ZM16.413,6.4a9.425,9.425,0,0,0-3.841-1.719V1.88A7.955,7.955,0,0,1,16.413,6.4M11.6,1.448v3.04a17.024,17.024,0,0,0-2.707-.209,17.466,17.466,0,0,0-2.465.173V1.366a7.9,7.9,0,0,1,5.171.082m-6.142.307v2.87A9.669,9.669,0,0,0,1.376,6.4,7.967,7.967,0,0,1,5.459,1.755M1.376,11.392a9.651,9.651,0,0,0,4.083,1.772v2.87a7.967,7.967,0,0,1-4.083-4.642M6.43,16.423V13.337a17.058,17.058,0,0,0,2.465.173A17.416,17.416,0,0,0,11.6,13.3v3.04a7.9,7.9,0,0,1-5.171.082" transform="translate(4.622 14.835)" fill="#fff"/>
        <path id="Trazado_42975" data-name="Trazado 42975" d="M11.745,10.212V5.872A5.872,5.872,0,0,0,0,5.872v4.34ZM3.9,5.378A1.968,1.968,0,1,1,5.872,7.345,1.968,1.968,0,0,1,3.9,5.378" transform="translate(7.644)" fill="#f40000"/>
        <path id="Trazado_42976" data-name="Trazado 42976" d="M0,1.968A1.968,1.968,0,1,1,1.968,3.935,1.968,1.968,0,0,1,0,1.968" transform="translate(11.549 3.41)" fill="#ffb600"/>
      </g>
    </g>
  </g>
</svg>
