<svg id="img-back612x792px" xmlns="http://www.w3.org/2000/svg" xmlns:xlink="http://www.w3.org/1999/xlink" width="612" height="792" viewBox="0 0 612 792">
  <defs>
    <clipPath id="clip-path">
      <rect id="Rectángulo_23585" data-name="Rectángulo 23585" width="612" height="792" fill="#fff"/>
    </clipPath>
    <clipPath id="clip-path-2">
      <rect id="Rectángulo_2" data-name="Rectángulo 2" width="53.931" height="109.741" fill="none"/>
    </clipPath>
    <clipPath id="clip-path-3">
      <rect id="Rectángulo_1" data-name="Rectángulo 1" width="31.127" height="174.84" fill="none"/>
    </clipPath>
    <clipPath id="clip-path-4">
      <rect id="Rectángulo_3" data-name="Rectángulo 3" width="33.438" height="313.285" fill="none"/>
    </clipPath>
    <clipPath id="clip-path-5">
      <rect id="Rectángulo_4" data-name="Rectángulo 4" width="38.694" height="47.86" fill="none"/>
    </clipPath>
  </defs>
  <g id="Enmascarar_grupo_1" data-name="Enmascarar grupo 1" clip-path="url(#clip-path)">
    <rect id="Rectángulo_23586" data-name="Rectángulo 23586" width="612" height="792" fill="#fff"/>
    <g id="Grupo_20181" data-name="Grupo 20181">
      <g id="Grupo_4" data-name="Grupo 4" transform="translate(537.703 47.417)">
        <g id="Grupo_3" data-name="Grupo 3" transform="translate(-6 -16)" clip-path="url(#clip-path-2)">
          <path id="Trazado_2" data-name="Trazado 2" d="M48.874,71.572V75.24l-1.466.215v-3.82H26.933l-.142,3.781c-1.475,0-1.46.145-1.382-1.033.052-.967.087-1.327-.235-1.768a2.9,2.9,0,0,0-2.4.02c-.958.624-1.068,1.391-1.211,2.516-.015,2.081.256,2.191.964,3.2,3.024,3.076,4.673,1.039,5.018,2.981,2.85,10.471,16.1,10.718,19.036.694.424-1.448.464-1.5.934-1.611,5.489-.1,7.834-7.8,1.361-8.846" transform="translate(-9.476 -31.458)" fill="#fff"/>
          <path id="Trazado_3" data-name="Trazado 3" d="M31.2,124.338c.308-5.378.3-5.163-.09-5.378-1.518-.554-4.632-.133-7.8-1.732-1.959-.993-.6-1.062-9.638-.9-2.2.1-3.477.136-5.105,1.382-.838.722-1.12.853-.572,1.2,4.815,3.454,4.188,5.079,5.34,5.355,1.167.229,3.985.168,17.861.067" transform="translate(-3.39 -51.1)" fill="#fff"/>
          <path id="Trazado_4" data-name="Trazado 4" d="M26.432,54.32l.1-18.531a9.3,9.3,0,0,1-2.94.5c0,1.823-.009,4.684-.021,12.311.021,6.684-.752,5.912,2.859,5.724" transform="translate(-10.337 -15.73)" fill="#fff"/>
          <path id="Trazado_5" data-name="Trazado 5" d="M32.363,34.219a.438.438,0,0,1-.261-.16c-.183.119-.372.229-.563.331v.1c-.006,6.249-.006,18.008.172,19.033.229.233,3.95.049,4.348.035l.1-19.338H32.407a.229.229,0,0,0-.044,0" transform="translate(-13.862 -14.97)" fill="#fff"/>
          <path id="Trazado_6" data-name="Trazado 6" d="M73.18,36.193c-.049,1.817-.047,3.1-.058,8.426,0,.757.015,9.7.151,9.882a9.93,9.93,0,0,0,2.533,0l.1-18.044c-.151.009-.308.012-.462.012a9.556,9.556,0,0,1-2.267-.273" transform="translate(-32.139 -15.908)" fill="#fff"/>
          <path id="Trazado_7" data-name="Trazado 7" d="M67.54,53.688c.055-9.778.183-15.463.2-18.731a9.491,9.491,0,0,1-1.222-.606H63.755c-.008,7.993-.038,16.407.16,18.5.11.958-.043,1.007,3.625.842" transform="translate(-28.019 -15.098)" fill="#fff"/>
          <path id="Trazado_8" data-name="Trazado 8" d="M42.485,51.008c.076,3.248-.514,2.8,4.211,2.679L46.8,34.349h-4.38c0,5.546-.011,13.824.061,16.659" transform="translate(-18.646 -15.097)" fill="#fff"/>
          <path id="Trazado_9" data-name="Trazado 9" d="M15.732,19.388a7.808,7.808,0,0,0,1.338.113c.032,0,.064,0,.1,0a8.062,8.062,0,0,0,2.943-.583v-.133c.148-.015.3-.035.444-.058a8.228,8.228,0,0,0,1.916-1.251.654.654,0,0,1,.911.935H40.9a.653.653,0,0,1,.911-.932,7.737,7.737,0,0,0,.987.74c.1.067.208.131.316.192.165.1.337.186.508.27a7.872,7.872,0,0,0,1.355.517c.093.026.189.052.282.073a8.1,8.1,0,0,0,1.944.235c.157,0,.314-.006.467-.015a7.835,7.835,0,0,0,1.234-.165,8.186,8.186,0,0,0,5.25-12.349,7.826,7.826,0,0,0-1.01-1.306,8.181,8.181,0,0,0-11.333-.529.206.206,0,0,1-.032.021.171.171,0,0,1-.02.02c-.009.006-.017.008-.026.015l-.061.035a.273.273,0,0,1-.061.026.4.4,0,0,1-.052.021c-.023.006-.049.011-.072.015l-.049.008a.681.681,0,0,1-.076,0,.325.325,0,0,1-.052,0,.393.393,0,0,1-.067-.012.4.4,0,0,1-.061-.015.362.362,0,0,1-.055-.02.6.6,0,0,1-.061-.029c-.017-.008-.035-.02-.049-.029s-.041-.029-.058-.044-.029-.026-.04-.041a.24.24,0,0,1-.029-.026c-.008-.009-.015-.021-.023-.029a.133.133,0,0,0-.017-.02,10.735,10.735,0,0,0-17.426,0,.184.184,0,0,1-.024.023.108.108,0,0,1-.015.023c-.011.012-.026.024-.038.035s-.032.032-.049.047a.516.516,0,0,1-.084.055c-.012.006-.02.015-.032.02a.643.643,0,0,1-.131.047l-.044.009c-.032,0-.061.008-.092.008-.009,0-.015,0-.024,0s-.015,0-.023,0a.645.645,0,0,1-.151-.023c-.008,0-.017,0-.026-.006a.653.653,0,0,1-.154-.078c-.008-.006-.017-.006-.026-.012s-.02-.02-.032-.029-.012-.006-.015-.012a8.189,8.189,0,0,0-11.339.529,7.886,7.886,0,0,0-1.01,1.306,8.184,8.184,0,0,0,5.613,12.416" transform="translate(-3.9 -0.249)" fill="#fff"/>
          <path id="Trazado_10" data-name="Trazado 10" d="M55.246,53.792c3.512.047,2.412.212,2.287-19.443H52.886c.012,14.187,0,14.492.061,16.874.084,2.778-.261,2.542,2.3,2.569" transform="translate(-23.245 -15.097)" fill="#fff"/>
          <path id="Trazado_11" data-name="Trazado 11" d="M76.6,120.366c-.078-.119-.163-.244-.249-.377-3.4-3.913-6.081-3.616-8.91-3.648-10.088-.015-6.321-.467-11.563,1.666a17.276,17.276,0,0,1-3.5.72c0,6.855-1.42,5.738,7.807,5.746,0,14.071-.049,24.069.148,27.16.125,1.625-.151,1.42,6.319,1.268.029-18.772.015-19.735.131-21.4.122-1.143.163-.926,1.332-.926l.122,22.45H73.4l-.154,1.341-9.151.131c0,2.807-.02,4.728-.017,6.043H76.6v-14.39l-.058-13.542H76.6Z" transform="translate(-22.99 -51.113)" fill="#fff"/>
          <path id="Trazado_12" data-name="Trazado 12" d="M21.289,118.007c-5.242-2.133-1.475-1.68-11.563-1.666-2.83.032-5.508-.265-8.91,3.648-.087.133-.172.258-.25.377v12.239H.624L.566,146.147v14.39H13.092c0-1.315-.017-3.236-.017-6.043l-9.151-.131-.154-1.341H8.928l.122-22.45c1.17,0,1.21-.217,1.332.926.116,1.666.1,2.63.131,21.4,6.469.151,6.193.357,6.318-1.268.2-3.091.148-13.09.148-27.16,9.226-.008,7.807,1.109,7.807-5.746a17.275,17.275,0,0,1-3.5-.72" transform="translate(-0.249 -51.113)" fill="#fff"/>
          <path id="Trazado_13" data-name="Trazado 13" d="M37.061,89.4h-.1c-4.705-.045-8.622-3.291-9.977-8.27l-.006-.029c-.117-.658-.327-.685-1.025-.777a5.943,5.943,0,0,1-3.907-2.036l-.033-.04c-.078-.112-.15-.211-.217-.3-.608-.838-.817-1.224-.8-3.083l0-.038a3.193,3.193,0,0,1,1.352-2.743l.023-.013a3.17,3.17,0,0,1,2.748.008l.035.027.026.036c.376.515.353.934.3,1.853l-.011.179a3.6,3.6,0,0,0-.014.621,3.737,3.737,0,0,0,.645.02h.132l.142-3.784h21.1V74.8l.831-.122V70.907l.368.059c2.143.347,4.363,1.706,4.165,4.477a5.585,5.585,0,0,1-5.536,5c-.281.07-.3.117-.671,1.384A9.979,9.979,0,0,1,37.061,89.4M27.6,80.973c1.282,4.691,4.957,7.747,9.367,7.789a9.344,9.344,0,0,0,9.055-7.115c.413-1.413.488-1.668,1.165-1.83l.069-.009a5.028,5.028,0,0,0,4.95-4.411c.135-1.888-1.079-3.265-3.266-3.736v3.56l-2.1.308V71.661H26.99l-.142,3.781h-.305c-.16,0-.3,0-.43,0-.6.007-.905.011-1.119-.215s-.191-.536-.153-1.1l.01-.171c.047-.863.052-1.1-.154-1.4a2.722,2.722,0,0,0-2.013.068c-.8.525-.909,1.108-1.055,2.264-.011,1.728.165,1.972.684,2.687.064.089.133.184.207.289a5.306,5.306,0,0,0,3.519,1.833c.7.092,1.363.179,1.565,1.282" transform="translate(-9.228 -31.166)" fill="#191a1a"/>
          <path id="Trazado_14" data-name="Trazado 14" d="M41.594,109.654a2.961,2.961,0,0,1-.3-.016l-.024,0c-.842-.151-.893-.967-.935-1.623a4.72,4.72,0,0,0-.078-.7,4.189,4.189,0,0,0-2.437-2.242,24.776,24.776,0,0,0-3.477-.863c-1.5-.271-1.608-.409-1.581-2.107.007-.428.016-.962,0-1.652-.02-1.132.012-1.684.39-1.867s.737.118,1.463.712a23.045,23.045,0,0,0,2.011,1.508c4.643,2.387,8.245,2.187,12.042-.667.207-.169.392-.326.55-.459.6-.506.847-.716,1.144-.578s.3.448.3,1.2v.286c-.01.512-.005.936,0,1.276.018,1.744-.076,1.871-1.681,2.251a29.026,29.026,0,0,0-3.467,1.026,3.358,3.358,0,0,0-2.433,2.936c-.145.746-.307,1.584-1.485,1.584m-.22-.646c.86.086.921-.228,1.082-1.059a3.986,3.986,0,0,1,2.833-3.41,29.678,29.678,0,0,1,3.543-1.049c.609-.145.977-.231,1.088-.381a2.881,2.881,0,0,0,.1-1.246c0-.344-.008-.771,0-1.291v-.277c0-.163,0-.329,0-.462-.113.09-.254.209-.392.325-.16.135-.348.294-.568.474-3.98,2.992-7.907,3.213-12.739.724l-.03-.017a23.6,23.6,0,0,1-2.078-1.556,7.233,7.233,0,0,0-.77-.585,7.544,7.544,0,0,0-.048,1.236c.017.7.008,1.241,0,1.676a2.971,2.971,0,0,0,.084,1.19c.09.122.442.186.975.282a25.322,25.322,0,0,1,3.567.886l.017.006a4.775,4.775,0,0,1,2.828,2.661l.006.023a5.019,5.019,0,0,1,.1.816c.047.735.109.978.4,1.036" transform="translate(-14.399 -43.306)" fill="#191a1a"/>
          <path id="Trazado_15" data-name="Trazado 15" d="M17.353,124.5a27.494,27.494,0,0,1-4.327-.163c-.574-.137-.812-.523-1.139-1.056a13.814,13.814,0,0,0-4.318-4.347.76.76,0,0,1-.42-.553c-.021-.321.234-.536.7-.928l.267-.227.014-.012c1.687-1.29,3.01-1.347,5.2-1.443l.084,0c7.9-.144,7.943-.117,9.158.582.177.1.378.217.638.349a14.772,14.772,0,0,0,5.5,1.341,9.9,9.9,0,0,1,2.261.377l.081.04c.525.274.525.274.237,5.3l-.037.653-.3,0-5.231.04c-3.854.03-6.506.05-8.366.05m-9.538-6.168a1.22,1.22,0,0,0,.1.072l.014.01a14.386,14.386,0,0,1,4.495,4.535c.318.517.443.7.734.769.958.188,3.184.171,12.554.1l4.933-.038,0-.06a29.5,29.5,0,0,0,.151-4.677.192.192,0,0,1-.049-.022L30.729,119a9.82,9.82,0,0,0-2.086-.335,15.3,15.3,0,0,1-5.724-1.406c-.276-.14-.484-.259-.668-.365-1.047-.6-1.11-.64-8.822-.5l-.075,0c-2.134.093-3.311.144-4.836,1.308l-.265.225a5.587,5.587,0,0,0-.439.394" transform="translate(-3.141 -50.851)" fill="#191a1a"/>
          <path id="Trazado_16" data-name="Trazado 16" d="M17.817,160.668l-.005-1.768c-.021-6.7-.075-24.486-.118-25.753l-.011-.329h.33l5.1.017c7.847.025,15.962.05,18.827.178l.436.016c1.463.049,1.6.181,1.586,1.575,0,.232,0,.521,0,.859v0c.063,4.966.06,5.6.017,16.166-.01,2.317-.021,5.112-.034,8.535v.316H21.112l-.128-25.256h-.823l-.125,25.227Zm.518-27.214c.041,2.725.09,18.5.111,25.444l0,1.072.955-.092.125-25.285h2.086l.128,25.256H43.317c.012-3.28.024-5.974.033-8.22.043-10.561.045-11.193-.016-16.153-.007-.347-.005-.641,0-.877a2.484,2.484,0,0,0-.057-.837,2.765,2.765,0,0,0-.915-.1l-.443-.016c-2.852-.127-10.961-.152-18.8-.177l-4.779-.016m20.907,12.861a1.892,1.892,0,1,1,1.892-1.892,1.894,1.894,0,0,1-1.892,1.892m0-3.15a1.258,1.258,0,1,0,1.257,1.258,1.259,1.259,0,0,0-1.257-1.258m0-4.041a1.892,1.892,0,1,1,1.853-2.273,1.928,1.928,0,0,1,.038.381,1.894,1.894,0,0,1-1.892,1.892m0-3.149a1.257,1.257,0,0,0-1.232,1,1.322,1.322,0,0,0-.025.254,1.257,1.257,0,1,0,2.514,0,1.279,1.279,0,0,0-.025-.254,1.256,1.256,0,0,0-1.232-1" transform="translate(-7.772 -58.378)" fill="#191a1a"/>
          <path id="Trazado_17" data-name="Trazado 17" d="M24.254,54.415a1.234,1.234,0,0,1-.915-.274c-.425-.4-.408-1.154-.367-2.973.017-.767.039-1.722.036-2.918.008-5.318.013-8.319.017-10.267l0-2.361.315,0a8.96,8.96,0,0,0,2.84-.479L26.605,35,26.5,54.274l-.3.016c-.4.021-.737.048-1.038.073-.359.029-.657.053-.909.053m-.592-18.168,0,1.737c0,1.948-.009,4.948-.017,10.265,0,1.2-.018,2.162-.036,2.934-.033,1.428-.052,2.289.168,2.5.155.146.65.106,1.337.05.228-.018.478-.038.757-.056l.1-17.8a9.585,9.585,0,0,1-2.3.374" transform="translate(-10.088 -15.383)" fill="#191a1a"/>
          <path id="Trazado_18" data-name="Trazado 18" d="M32.869,53.63c-1.424,0-1.533-.11-1.633-.211l-.07-.071-.017-.1c-.172-1-.183-11.371-.175-19.087V33.87l.168-.09c.188-.1.369-.206.539-.316l.237-.155.18.218a.148.148,0,0,0,.058.045l.025,0h4.053l-.108,19.961-.492.019c-1.252.053-2.136.075-2.764.075m-1.116-.676a28.344,28.344,0,0,0,3.741-.028l.1-18.716L32.061,34.2a.72.72,0,0,1-.231-.082c-.073.044-.147.087-.223.129,0,4.336-.014,16.773.146,18.705" transform="translate(-13.613 -14.641)" fill="#191a1a"/>
          <path id="Trazado_19" data-name="Trazado 19" d="M73.866,54.588a3.444,3.444,0,0,1-.932-.1l-.1-.029-.063-.083c-.1-.135-.189-.251-.214-9.753V44.3l0-1.589c.008-4.011.01-5.221.054-6.847l.011-.392.382.093a9.238,9.238,0,0,0,2.192.264c.169,0,.313,0,.443-.011l.337-.02-.1,18.679-.3.018-.433.028c-.436.03-.88.06-1.278.06m-.559-.666a10.161,10.161,0,0,0,1.8-.027l.141-.01.1-17.418H75.2a9.889,9.889,0,0,1-1.96-.2c-.034,1.445-.036,2.764-.044,6.446l0,1.587v.319c.017,6.842.077,8.774.115,9.3" transform="translate(-31.891 -15.593)" fill="#191a1a"/>
          <path id="Trazado_20" data-name="Trazado 20" d="M65.106,53.831c-1.434,0-1.649-.226-1.742-1.085l-.012-.112c-.183-1.938-.174-9.033-.164-16.545l0-2.305h3.169l.075.044a9.062,9.062,0,0,0,1.18.586l.2.081v.215c-.007,1.173-.029,2.652-.055,4.525-.048,3.348-.113,7.934-.149,14.206l0,.3-.3.014c-.946.043-1.659.075-2.2.075M63.823,34.418l0,1.671c-.009,7.166-.018,14.576.161,16.478l.012.11c.045.416.049.417.272.465a15.534,15.534,0,0,0,2.709-.007c.036-6.12.1-10.615.147-13.91.025-1.76.045-3.173.053-4.308a9.787,9.787,0,0,1-.989-.5Z" transform="translate(-27.771 -14.849)" fill="#191a1a"/>
          <path id="Trazado_21" data-name="Trazado 21" d="M43.642,53.847a1.849,1.849,0,0,1-1.362-.33c-.352-.338-.352-.86-.353-1.807,0-.275,0-.586-.009-.942-.069-2.691-.064-10.249-.062-15.767V33.784h5.016l-.111,19.964-.307.008c-.6.015-1.1.036-1.545.054-.513.02-.928.037-1.268.037m-1.15-19.429V35c0,5.516-.007,13.069.062,15.751h0c.008.364.008.679.009.957,0,.722,0,1.2.157,1.35.2.2.942.166,2.165.117.369-.015.778-.031,1.247-.045l.1-18.712Z" transform="translate(-18.397 -14.849)" fill="#191a1a"/>
          <path id="Trazado_22" data-name="Trazado 22" d="M46.96,19.569a8.392,8.392,0,0,1-2.02-.244c-.09-.02-.192-.047-.291-.075a8.207,8.207,0,0,1-1.41-.537c-.189-.093-.367-.187-.526-.28q-.166-.094-.328-.2a7.96,7.96,0,0,1-1.026-.77.343.343,0,0,0-.242-.085.337.337,0,0,0-.226.563l.494.533H22.411l.487-.531a.34.34,0,0,0,0-.452.325.325,0,0,0-.226-.113.33.33,0,0,0-.244.082,8.558,8.558,0,0,1-1.991,1.3l-.46.2a8.348,8.348,0,0,1-3.047.606c-.037,0-.073,0-.11,0a8.135,8.135,0,0,1-1.391-.118A8.5,8.5,0,0,1,9.6,6.554,8.164,8.164,0,0,1,10.652,5.2a8.505,8.505,0,0,1,11.773-.552l.014.011.007.006.025.015a.44.44,0,0,0,.063.036.366.366,0,0,1,.043.011.444.444,0,0,0,.058.006h.037l.02,0,.054-.009.038-.013.043-.025a.226.226,0,0,0,.033-.022l.018-.018.018-.018.036-.043.005,0a11.052,11.052,0,0,1,17.912,0c.007.008.014.016.021.026l.008.01.02.018.025.026.025.018.032.018a.187.187,0,0,0,.027.012l.018.008.023.005.037.008.021,0,.048,0,.037-.006.036-.007.1-.046.026-.026.03-.015A8.5,8.5,0,0,1,53.131,5.2a8.219,8.219,0,0,1,1.05,1.358,8.5,8.5,0,0,1-5.454,12.826,8.187,8.187,0,0,1-1.282.172c-.179.01-.338.015-.485.015M16.822,3.177a7.808,7.808,0,0,0-5.711,2.458,7.581,7.581,0,0,0-.97,1.254,7.868,7.868,0,0,0,5.395,11.937h0a7.57,7.57,0,0,0,1.283.108c.022,0,.045,0,.067,0l.026,0a7.716,7.716,0,0,0,2.629-.483s.5-.189.668-.281a7.939,7.939,0,0,0,1.8-1.184.966.966,0,0,1,1.368.093.978.978,0,0,1,.231.763H40.171a.97.97,0,0,1,1.607-.851,7.437,7.437,0,0,0,.946.708c.1.064.2.126.3.184.15.087.314.174.491.261a7.651,7.651,0,0,0,1.3.5c.087.024.176.049.263.068a7.8,7.8,0,0,0,1.876.228c.135,0,.282,0,.449-.014a7.577,7.577,0,0,0,1.184-.159A7.869,7.869,0,0,0,53.642,6.891a7.571,7.571,0,0,0-.971-1.255,7.864,7.864,0,0,0-10.894-.509l-.02.016-.021.015a.388.388,0,0,1-.046.036l-.1.061a.588.588,0,0,1-.1.047c-.02.009-.04.016-.061.024l-.03.009a.955.955,0,0,1-.11.021l-.087.011a.793.793,0,0,1-.09,0,.551.551,0,0,1-.091-.007.667.667,0,0,1-.079-.013.766.766,0,0,1-.084-.021l-.018-.006a.724.724,0,0,1-.08-.03.816.816,0,0,1-.081-.039c-.018-.01-.037-.021-.054-.031l-.03-.02c-.027-.019-.053-.039-.076-.058l-.021-.019-.036-.035a.412.412,0,0,1-.05-.05l-.02-.024-.038-.047a10.418,10.418,0,0,0-16.911,0,.257.257,0,0,1-.033.04.343.343,0,0,1-.037.044l-.034.031c-.028.027-.052.051-.076.071a.865.865,0,0,1-.127.085.522.522,0,0,1-.05.03.93.93,0,0,1-.194.069l-.113.02c-.025,0-.049.006-.073.007a.362.362,0,0,1-.051,0l-.053,0a.962.962,0,0,1-.2-.031.319.319,0,0,1-.05-.013.856.856,0,0,1-.2-.1.356.356,0,0,1-.055-.031.58.58,0,0,1-.054-.044A.365.365,0,0,1,22,5.115a7.885,7.885,0,0,0-5.176-1.939M22.58,5.361h0Zm.108-.625h0m.238-.148-.011.016.011-.016" transform="translate(-3.652 0)" fill="#191a1a"/>
          <path id="Trazado_23" data-name="Trazado 23" d="M55.518,53.866c-.137,0-.281,0-.432,0h-.095c-.2,0-.378,0-.543,0-1.892,0-2.026-.136-2.052-2.016,0-.248-.007-.531-.017-.857-.051-1.993-.052-2.5-.057-10.895l0-6.306H57.6l0,.315c.03,4.7.117,8.324.18,10.97.14,5.813.182,7.567-.588,8.344a2.2,2.2,0,0,1-1.675.453M52.954,34.418l0,5.671c.006,8.392.006,8.895.057,10.878.01.328.014.615.017.866a2.86,2.86,0,0,0,.14,1.266,2.91,2.91,0,0,0,1.28.125c.166,0,.349,0,.548,0h.1c.855.012,1.37.019,1.647-.261.58-.586.529-2.722.4-7.883-.062-2.589-.147-6.114-.178-10.666Z" transform="translate(-22.996 -14.849)" fill="#191a1a"/>
          <path id="Trazado_24" data-name="Trazado 24" d="M76.673,160.606H63.513v-.317c0-.6,0-1.318.006-2.19.005-1.05.011-2.32.011-3.853v-.313l9.184-.131.082-.711H67.678l-.122-22.454-.172-.006a2.1,2.1,0,0,0-.419.007,2.957,2.957,0,0,0-.11.646c-.1,1.44-.1,2.482-.12,15.242l-.01,6.436-.309.007c-.749.017-1.408.036-1.988.052-4.275.118-4.531.126-4.641-1.434l-.013-.179c-.163-2.56-.159-9.929-.152-20.128,0-2.12,0-4.371,0-6.739-1.181,0-2.194.022-3.02.039-2.585.052-3.765.075-4.378-.548-.545-.553-.514-1.487-.457-3.183.022-.676.048-1.443.048-2.372v-.271l.268-.042.778-.12a13.11,13.11,0,0,0,2.661-.585c1.127-.459,1.834-.8,2.351-1.045,1.5-.717,1.565-.717,4.995-.673,1.036.013,2.456.031,4.325.034.207,0,.41,0,.612,0,2.6.008,5.287.016,8.537,3.754l.026.035q.077.119.151.229l.15.226v12.651h-.057l.057,13.224Zm-12.527-.634H76.038V145.9l-.059-13.859h.059V120.213l-.044-.066-.142-.215c-3.055-3.5-5.479-3.512-8.046-3.519-.2,0-.409,0-.614,0-1.869,0-3.291-.021-4.329-.034-3.348-.043-3.348-.043-4.712.611-.526.252-1.246.6-2.4,1.065l-.025.009a13.719,13.719,0,0,1-2.767.611l-.509.078c0,.824-.028,1.537-.048,2.121-.051,1.521-.079,2.358.275,2.717.422.428,1.589.4,3.914.359.9-.018,2.027-.036,3.35-.039h.317v.317c0,2.484,0,4.841,0,7.056-.007,10.188-.011,17.548.151,20.083l.013.179c.047.662.074.722.37.8a19.186,19.186,0,0,0,3.621.044c.5-.013,1.057-.029,1.681-.044l.008-5.818c.019-13.043.02-13.823.123-15.3.117-1.1.272-1.263,1.183-1.231.131,0,.284.01.465.01h.316l.122,22.45h5.2l-.226,1.971-9.118.13c0,1.4-.006,2.564-.011,3.543,0,.722-.007,1.34-.007,1.87" transform="translate(-22.742 -50.865)" fill="#191a1a"/>
          <path id="Trazado_25" data-name="Trazado 25" d="M13.16,160.606H0V145.9l.057-13.225H0V120.022l.151-.229c.049-.073.1-.148.15-.226l.026-.035c3.25-3.738,5.938-3.746,8.537-3.754.2,0,.405,0,.609,0,1.871,0,3.291-.021,4.327-.034,3.431-.044,3.5-.044,4.995.673.517.248,1.224.586,2.351,1.045a13.11,13.11,0,0,0,2.661.585l.778.12.268.042v.271c0,.93.026,1.7.049,2.372.057,1.7.088,2.63-.457,3.183-.613.622-1.794.6-4.378.548-.827-.016-1.839-.036-3.02-.039,0,2.37,0,4.624,0,6.746.007,10.195.011,17.561-.152,20.116l-.013.183c-.11,1.56-.366,1.553-4.641,1.434-.58-.016-1.238-.035-1.988-.052l-.309-.007-.01-6.44c-.018-12.757-.02-13.8-.121-15.25a2.86,2.86,0,0,0-.11-.634,2.1,2.1,0,0,0-.419-.007l-.172.006-.122,22.454H3.877l.081.711,9.185.131v.313c0,1.533.006,2.8.011,3.853,0,.872.008,1.594.007,2.19ZM.634,159.971H12.526c0-.53,0-1.148-.007-1.87,0-.979-.01-2.148-.011-3.543l-9.117-.13-.226-1.971h5.2l.122-22.45H8.8c.182,0,.335-.005.465-.01.912-.033,1.067.128,1.183,1.219.1,1.485.1,2.265.123,15.305l.008,5.82c.624.015,1.183.031,1.682.044a19.181,19.181,0,0,0,3.62-.044c.3-.078.323-.138.37-.8l.013-.183c.162-2.53.157-9.888.15-20.072,0-2.217,0-4.577,0-7.064v-.317h.317c1.324,0,2.448.021,3.35.039,2.324.046,3.492.069,3.914-.359.354-.359.326-1.2.275-2.717-.02-.584-.043-1.3-.048-2.121l-.509-.078a13.728,13.728,0,0,1-2.767-.611l-.025-.009c-1.152-.469-1.872-.814-2.4-1.065-1.365-.654-1.365-.654-4.712-.611-1.038.013-2.46.031-4.332.034-.2,0-.407,0-.611,0-2.567.007-4.992.015-8.046,3.519l-.141.213-.045.068v11.826H.694L.634,145.9Z" transform="translate(0 -50.865)" fill="#191a1a"/>
          <path id="Trazado_26" data-name="Trazado 26" d="M53.09,114.62a1.072,1.072,0,0,1-.267-.026l-.068-.019-.054-.045c-.662-.562-.358-1.38-.113-2.038l.04-.105c.557-1.263,2.806-1.855,4.014-2.173,1.283-.319,1.793-.392,2.1-.167a.881.881,0,0,1,.279.724c0,.066.01.137.017.213l0,.034a2.46,2.46,0,0,1-1.144,1.928,10.018,10.018,0,0,1-4.809,1.675m-.034-.629a9.52,9.52,0,0,0,4.5-1.58,1.855,1.855,0,0,0,.856-1.378c-.008-.078-.013-.15-.018-.217a1.749,1.749,0,0,0-.029-.257,6.683,6.683,0,0,0-1.561.271c-.939.247-3.146.828-3.588,1.806l-.029.079c-.222.6-.353,1.016-.127,1.277" transform="translate(-22.988 -48.312)" fill="#191a1a"/>
          <path id="Trazado_27" data-name="Trazado 27" d="M38.574,114.522c-.061,0-.125,0-.191-.007a9.192,9.192,0,0,1-2.907-.932c-1.987-.988-2.165-1.542-2.291-2.363-.011-.072-.022-.146-.037-.223l-.005-.057c0-.186-.008-.332-.015-.449-.015-.257-.026-.46.143-.6s.368-.105.689-.036c.15.033.338.073.588.115a17.17,17.17,0,0,1,2.636.673l.141.046c2.113.738,2.217,1.218,2.249,2.236,0,.092.006.191.012.3l0,.022,0,.021c-.084,1.017-.421,1.264-1.012,1.264m-4.8-3.612c.013.073.024.143.034.212.092.6.154,1,1.94,1.889a8.773,8.773,0,0,0,2.682.871c.4.028.461.033.519-.655-.005-.1-.008-.2-.011-.289-.026-.792-.033-1.031-1.822-1.656l-.133-.044a16.528,16.528,0,0,0-2.543-.649c-.265-.044-.469-.089-.618-.121l-.064-.013c.006.113.015.265.016.455" transform="translate(-14.557 -48.254)" fill="#191a1a"/>
        </g>
      </g>
      <g id="Grupo_2" data-name="Grupo 2" transform="translate(124.84 47.417) rotate(90)">
        <g id="Grupo_1" data-name="Grupo 1" clip-path="url(#clip-path-3)">
          <path id="Trazado_1" data-name="Trazado 1" d="M15.563,174.84a5.8,5.8,0,0,1-5.789-5.789V62.213A15.555,15.555,0,0,1,0,47.78V0H5.112V45.34H8.671V0h5.112V45.34h3.559V0h5.112V45.34h3.56V0h5.112V47.78a15.554,15.554,0,0,1-9.774,14.433V169.051a5.8,5.8,0,0,1-5.789,5.789" fill="#f4f4f4"/>
        </g>
      </g>
      <g id="Grupo_6" data-name="Grupo 6" transform="translate(570.908 262)">
        <g id="Grupo_5" data-name="Grupo 5" clip-path="url(#clip-path-4)">
          <path id="Trazado_28" data-name="Trazado 28" d="M10.374,313.285A10.385,10.385,0,0,1,0,302.913V0H.7A32.779,32.779,0,0,1,33.438,32.742v85.8a32.488,32.488,0,0,1-12.69,25.84V302.913a10.385,10.385,0,0,1-10.374,10.372" fill="#f4f4f4"/>
        </g>
      </g>
      <g id="Grupo_8" data-name="Grupo 8" transform="translate(568.28 623.344)">
        <g id="Grupo_7" data-name="Grupo 7" clip-path="url(#clip-path-5)">
          <path id="Trazado_29" data-name="Trazado 29" d="M71.654,81.941c-.025-.16-.335-.238-.465-.248a1.5,1.5,0,0,1-.543-.119,9.311,9.311,0,0,1-.91-.476c-.059-.032-.115-.072-.143-.044a2.255,2.255,0,0,0-.852-.263c.013-.035-.077-.055-.139-.071-.113-.03-.405-.036-.715-.065a3.724,3.724,0,0,1-.492-.067,3.143,3.143,0,0,1-.368-.129.088.088,0,0,0-.062-.061,1.146,1.146,0,0,0-.171-.01.06.06,0,0,1-.04-.036.078.078,0,0,0-.072-.04c-.037,0-.06.032-.074.052a1.54,1.54,0,0,0-.1.218,1.588,1.588,0,0,0-.072.229c0,.024-.009.066.019.089a.078.078,0,0,0,.08.02.061.061,0,0,1,.054,0,1.441,1.441,0,0,0,.132.111.09.09,0,0,0,.087,0,2.945,2.945,0,0,1,.359.156,3.672,3.672,0,0,1,.406.287c.246.188.465.383.569.439.057.031.137.077.151.042a2.259,2.259,0,0,0,.8.388c0,.038.07.048.135.064a9.389,9.389,0,0,1,.99.27,1.524,1.524,0,0,1,.48.281c.1.082.382.237.509.136a1.717,1.717,0,0,0,.308-.543h0a1.7,1.7,0,0,0,.14-.606" transform="translate(-48.688 -58.864)" fill="#f4f4f4" fill-rule="evenodd"/>
          <path id="Trazado_30" data-name="Trazado 30" d="M38.59,35.006c-.093-.1-.186-.194-.271-.281a1.976,1.976,0,0,1-.752-1.855,16.568,16.568,0,0,1,.586-3.339,12.39,12.39,0,0,0,.53-3.338,1.632,1.632,0,0,0-.426-1.011,1.523,1.523,0,0,0-.62-.4,1.948,1.948,0,0,0-.789-.093,4.494,4.494,0,0,0-2.542,1.311h-.025c-5.7,0-7.159-7.063-8.276-12.479-.087-.424-.173-.839-.229-1.106V5.332A5.346,5.346,0,0,0,20.447,0h0a5.346,5.346,0,0,0-5.332,5.332v7.1c-.035.213-.071.432-.107.656-.84,5.166-2.1,12.917-8.4,12.917H6.5c-2.717-1.033-3.9-.551-4.324.538-.439,1.138.1,2.911.5,4.194a10.308,10.308,0,0,1,.3,1.084,1.9,1.9,0,0,1-.583,1.842,7.982,7.982,0,0,1-2.166,1.2.379.379,0,0,0,.3.7,8.494,8.494,0,0,0,2.377-1.341A2.6,2.6,0,0,0,3.726,31.7,10.517,10.517,0,0,0,3.4,30.514c-.362-1.177-.861-2.8-.517-3.7.258-.668,1.115-.92,3.169-.169v15.84A5.387,5.387,0,0,0,11.43,47.86H30.35a4.5,4.5,0,0,0,4.486-4.486V26.551a3.745,3.745,0,0,1,2.071-1.1,1.211,1.211,0,0,1,.486.052.774.774,0,0,1,.314.2.881.881,0,0,1,.221.547,12,12,0,0,1-.509,3.1,17.016,17.016,0,0,0-.607,3.508,2.546,2.546,0,0,0,.965,2.393c.08.082.166.17.265.275a.379.379,0,0,0,.55-.523M24.709,23.334a2.184,2.184,0,0,1-.189.946,1.735,1.735,0,0,1-.53.653h0a2.378,2.378,0,0,1-.8.384,3.608,3.608,0,0,1-.98.128,4.341,4.341,0,0,1-.964-.113,1.835,1.835,0,0,1-.139.424,1.741,1.741,0,0,1-.53.653,2.392,2.392,0,0,1-.8.385,3.628,3.628,0,0,1-.98.128,4.567,4.567,0,0,1-2.8-.989l.792-1.221a4.406,4.406,0,0,0,1.066.586,2.878,2.878,0,0,0,.993.2,1.027,1.027,0,0,0,.591-.135.415.415,0,0,0,.189-.354v-.024a.352.352,0,0,0-.109-.257.928.928,0,0,0-.3-.189,4.329,4.329,0,0,0-.433-.153q-.244-.073-.511-.159a6.8,6.8,0,0,1-.688-.238,2.455,2.455,0,0,1-.627-.366,1.785,1.785,0,0,1-.456-.556,1.685,1.685,0,0,1-.177-.806v-.025a1.925,1.925,0,0,1,.7-1.538,2.172,2.172,0,0,1,.755-.4,3.121,3.121,0,0,1,.932-.134,4.105,4.105,0,0,1,1.067.146,1.783,1.783,0,0,1,.145-.433,1.961,1.961,0,0,1,.512-.653,2.174,2.174,0,0,1,.754-.4,3.129,3.129,0,0,1,.932-.134,4.183,4.183,0,0,1,1.261.2,4.678,4.678,0,0,1,1.175.556l-.706,1.282a5.821,5.821,0,0,0-.95-.445,2.48,2.48,0,0,0-.816-.165.847.847,0,0,0-.512.128.39.39,0,0,0-.17.324v.024a.319.319,0,0,0,.109.238,1.216,1.216,0,0,0,.292.2,3.862,3.862,0,0,0,.42.177q.238.086.505.171.341.11.694.262a2.853,2.853,0,0,1,.633.372,1.845,1.845,0,0,1,.463.537,1.521,1.521,0,0,1,.183.769Zm.309-11.257H15.876V5.332A4.585,4.585,0,0,1,20.447.761h0a4.585,4.585,0,0,1,4.571,4.571Z" transform="translate(0)" fill="#f4f4f4" fill-rule="evenodd"/>
        </g>
      </g>
    </g>
  </g>
</svg>
