<svg id="LogoSS" xmlns="http://www.w3.org/2000/svg" xmlns:xlink="http://www.w3.org/1999/xlink" width="274.482" height="48.513" viewBox="0 0 274.482 48.513">
  <defs>
    <clipPath id="clip-path">
      <rect id="Rectángulo_23560" data-name="Rectángulo 23560" width="274.482" height="48.513" fill="#f40000"/>
    </clipPath>
  </defs>
  <rect id="Rectángulo_23557" data-name="Rectángulo 23557" width="1.964" height="2.156" transform="translate(132.876 12.945)" fill="#f40000"/>
  <g id="Grupo_20151" data-name="Grupo 20151">
    <g id="Grupo_20150" data-name="Grupo 20150" clip-path="url(#clip-path)">
      <path id="Trazado_42985" data-name="Trazado 42985" d="M289.636,59.112a23.111,23.111,0,0,1-3.283-.9,7.1,7.1,0,0,1-2.011-1.078,3.171,3.171,0,0,1-1-1.319,4.562,4.562,0,0,1-.274-1.625v-.064a3.62,3.62,0,0,1,.387-1.641,4.027,4.027,0,0,1,1.11-1.352,5.579,5.579,0,0,1,1.738-.918,7.151,7.151,0,0,1,2.268-.337,9.669,9.669,0,0,1,6.726,2.543l1.062-1.319a12.7,12.7,0,0,0-3.49-2.063,11.966,11.966,0,0,0-4.232-.676,8.91,8.91,0,0,0-2.9.45,7.123,7.123,0,0,0-2.285,1.255,5.924,5.924,0,0,0-1.512,1.883,5.071,5.071,0,0,0-.547,2.333v.064a5.863,5.863,0,0,0,.418,2.285,4.543,4.543,0,0,0,1.336,1.754,8.588,8.588,0,0,0,2.365,1.319,21.78,21.78,0,0,0,3.476.982,20.248,20.248,0,0,1,3.154.853,7.276,7.276,0,0,1,1.948,1.045,3.092,3.092,0,0,1,1,1.287,4.449,4.449,0,0,1,.274,1.61v.064a3.869,3.869,0,0,1-.419,1.786,4.316,4.316,0,0,1-1.158,1.416,5.488,5.488,0,0,1-1.8.933,7.611,7.611,0,0,1-2.317.338,11.991,11.991,0,0,1-2.317-.209,10.289,10.289,0,0,1-3.911-1.642,15.959,15.959,0,0,1-1.85-1.5l-1.1,1.255a14.971,14.971,0,0,0,4.2,2.7,12.621,12.621,0,0,0,4.876.9,9.561,9.561,0,0,0,3.009-.451,7.216,7.216,0,0,0,2.349-1.255,5.813,5.813,0,0,0,1.544-1.946,5.566,5.566,0,0,0,.563-2.495v-.064a4.891,4.891,0,0,0-1.738-3.942,12.912,12.912,0,0,0-5.664-2.269" transform="translate(-205.418 -35.416)" fill="#f40000"/>
      <path id="Trazado_42986" data-name="Trazado 42986" d="M368.2,73.512a8.628,8.628,0,0,0-2.655-1.85,8.07,8.07,0,0,0-3.363-.691,8.183,8.183,0,0,0-3.381.691,8.59,8.59,0,0,0-5.085,7.9v.064a8.625,8.625,0,0,0,.628,3.282,8.331,8.331,0,0,0,1.752,2.7,8.617,8.617,0,0,0,2.655,1.85,8.069,8.069,0,0,0,3.362.692,8.179,8.179,0,0,0,3.381-.692,8.533,8.533,0,0,0,4.457-4.618,8.638,8.638,0,0,0,.627-3.283V79.5a8.638,8.638,0,0,0-.627-3.283,8.336,8.336,0,0,0-1.754-2.7m.709,6.114a7.413,7.413,0,0,1-.5,2.723,6.844,6.844,0,0,1-1.391,2.227,6.625,6.625,0,0,1-2.134,1.505,6.49,6.49,0,0,1-2.7.562,6.582,6.582,0,0,1-2.667-.545,6.694,6.694,0,0,1-2.169-1.5,6.95,6.95,0,0,1-1.439-2.259,7.409,7.409,0,0,1-.517-2.772V79.5a7.414,7.414,0,0,1,.5-2.723,6.855,6.855,0,0,1,1.39-2.227,6.653,6.653,0,0,1,2.135-1.506,6.5,6.5,0,0,1,2.7-.56,6.575,6.575,0,0,1,2.668.545,6.664,6.664,0,0,1,2.169,1.506,6.928,6.928,0,0,1,1.439,2.258,7.413,7.413,0,0,1,.518,2.771Z" transform="translate(-259.037 -51.974)" fill="#f40000"/>
      <path id="Trazado_42987" data-name="Trazado 42987" d="M438.6,85.837a6.1,6.1,0,0,1-3.1.789,6.419,6.419,0,0,1-2.64-.545,6.7,6.7,0,0,1-2.141-1.508,7.171,7.171,0,0,1-1.448-2.259,7.258,7.258,0,0,1-.53-2.772v-.064a7.32,7.32,0,0,1,.515-2.755,7.071,7.071,0,0,1,1.4-2.227,6.5,6.5,0,0,1,2.091-1.49,6.3,6.3,0,0,1,2.623-.545,5.774,5.774,0,0,1,3.121.8,12.463,12.463,0,0,1,2.35,1.9l1.126-1.159a14.381,14.381,0,0,0-1.239-1.16,8.587,8.587,0,0,0-1.464-.977A8.047,8.047,0,0,0,437.5,71.2a8.4,8.4,0,0,0-2.108-.247,7.9,7.9,0,0,0-3.3.692,8.325,8.325,0,0,0-2.652,1.882,8.82,8.82,0,0,0-1.754,2.736,8.583,8.583,0,0,0-.631,3.282V79.6a8.584,8.584,0,0,0,.631,3.281,8.43,8.43,0,0,0,1.754,2.7,8.576,8.576,0,0,0,2.652,1.85,7.914,7.914,0,0,0,3.3.692,7.489,7.489,0,0,0,3.846-.933,11.659,11.659,0,0,0,2.848-2.35l-1.094-.965a9.6,9.6,0,0,1-2.4,1.947" transform="translate(-312.751 -51.958)" fill="#f40000"/>
      <rect id="Rectángulo_23558" data-name="Rectángulo 23558" width="1.577" height="16.413" transform="translate(133.071 19.382)" fill="#f40000"/>
      <path id="Trazado_42988" data-name="Trazado 42988" d="M532.908,73.512a8.647,8.647,0,0,0-2.656-1.85,8.07,8.07,0,0,0-3.363-.691,8.177,8.177,0,0,0-3.381.691,8.588,8.588,0,0,0-5.085,7.9v.064a8.631,8.631,0,0,0,.627,3.282,8.332,8.332,0,0,0,1.754,2.7,8.622,8.622,0,0,0,2.661,1.849,8.065,8.065,0,0,0,3.363.692,8.174,8.174,0,0,0,3.381-.692,8.528,8.528,0,0,0,4.458-4.618,8.632,8.632,0,0,0,.627-3.283V79.5a8.628,8.628,0,0,0-.627-3.283,8.338,8.338,0,0,0-1.754-2.7m.709,6.114a7.412,7.412,0,0,1-.5,2.723,6.844,6.844,0,0,1-1.391,2.227A6.615,6.615,0,0,1,529.6,86.08a6.483,6.483,0,0,1-2.7.562,6.591,6.591,0,0,1-2.667-.545,6.7,6.7,0,0,1-2.169-1.5,6.936,6.936,0,0,1-1.438-2.259,7.4,7.4,0,0,1-.517-2.772V79.5a7.413,7.413,0,0,1,.5-2.723A6.844,6.844,0,0,1,522,74.547a6.65,6.65,0,0,1,2.134-1.506,6.5,6.5,0,0,1,2.7-.56,6.575,6.575,0,0,1,2.667.545,6.66,6.66,0,0,1,2.169,1.506,6.9,6.9,0,0,1,1.439,2.258,7.4,7.4,0,0,1,.518,2.771Z" transform="translate(-379.662 -51.974)" fill="#f40000"/>
      <path id="Trazado_42989" data-name="Trazado 42989" d="M610.074,59.388a10.466,10.466,0,0,0-2.654-1.366,27.508,27.508,0,0,0-3.492-.979q-1.159-.255-1.914-.5a6.769,6.769,0,0,1-1.192-.482,1.594,1.594,0,0,1-.61-.53,1.255,1.255,0,0,1-.178-.674V54.8a1.243,1.243,0,0,1,.563-1.027,2.823,2.823,0,0,1,1.691-.418,9.572,9.572,0,0,1,3.138.564,12.67,12.67,0,0,1,3.17,1.658l3.121-4.423a12.994,12.994,0,0,0-4.1-2.249,16.209,16.209,0,0,0-5.167-.762,11.614,11.614,0,0,0-3.636.53,8.178,8.178,0,0,0-2.751,1.494,6.4,6.4,0,0,0-1.738,2.281,6.937,6.937,0,0,0-.6,2.891V55.4a5.483,5.483,0,0,0,2.464,4.86,10.224,10.224,0,0,0,2.687,1.285q1.544.5,3.347.915a19.042,19.042,0,0,1,1.882.5,6.131,6.131,0,0,1,1.159.5,1.659,1.659,0,0,1,.6.529,1.225,1.225,0,0,1,.16.627v.064a1.266,1.266,0,0,1-.659,1.141,3.718,3.718,0,0,1-1.914.4,11.458,11.458,0,0,1-7.3-2.7l-3.477,4.161a13.927,13.927,0,0,0,4.813,2.818,17.483,17.483,0,0,0,5.741.939,13.086,13.086,0,0,0,3.733-.5,8.374,8.374,0,0,0,2.864-1.446,6.629,6.629,0,0,0,1.85-2.3,6.947,6.947,0,0,0,.658-3.084v-.064a5.927,5.927,0,0,0-.579-2.714,5.462,5.462,0,0,0-1.673-1.943" transform="translate(-434.032 -35.252)" fill="#f40000"/>
      <path id="Trazado_42990" data-name="Trazado 42990" d="M685.272,70.085a7.7,7.7,0,0,0-2.734-2.075,9.174,9.174,0,0,0-3.91-.772,8.7,8.7,0,0,0-3.541.707,8.51,8.51,0,0,0-2.784,1.947,8.81,8.81,0,0,0-1.819,2.9,9.751,9.751,0,0,0-.643,3.556v.064a9.6,9.6,0,0,0,.692,3.7,8.149,8.149,0,0,0,1.933,2.848,8.861,8.861,0,0,0,2.943,1.834,10.353,10.353,0,0,0,3.764.66,9.543,9.543,0,0,0,4.458-.966,9.4,9.4,0,0,0,3.1-2.575l-3.381-2.8a6.492,6.492,0,0,1-1.85,1.351,4.79,4.79,0,0,1-2.011.418,4.045,4.045,0,0,1-2.43-.707,3.584,3.584,0,0,1-1.336-2.156h11.649c.021-.214.031-.429.031-.643v-.612a12.346,12.346,0,0,0-.529-3.653,8.737,8.737,0,0,0-1.611-3.025m-9.638,4.811a4.53,4.53,0,0,1,1.03-2.3,2.573,2.573,0,0,1,2-.853,2.7,2.7,0,0,1,2.059.853,3.87,3.87,0,0,1,.967,2.3Z" transform="translate(-490.55 -49.239)" fill="#f40000"/>
      <rect id="Rectángulo_23559" data-name="Rectángulo 23559" width="6.147" height="23.493" transform="translate(198.633 12.303)" fill="#f40000"/>
      <path id="Trazado_42991" data-name="Trazado 42991" d="M786.872,70.084a7.721,7.721,0,0,0-2.735-2.075,9.174,9.174,0,0,0-3.91-.772,8.7,8.7,0,0,0-3.54.707,8.524,8.524,0,0,0-2.784,1.947,8.785,8.785,0,0,0-1.819,2.9,9.732,9.732,0,0,0-.643,3.556v.064a9.608,9.608,0,0,0,.691,3.7,8.157,8.157,0,0,0,1.932,2.848,8.866,8.866,0,0,0,2.943,1.834,10.359,10.359,0,0,0,3.764.66,9.535,9.535,0,0,0,4.458-.966,9.408,9.408,0,0,0,3.1-2.575l-3.381-2.8a6.5,6.5,0,0,1-1.85,1.351,4.786,4.786,0,0,1-2.012.419,4.044,4.044,0,0,1-2.43-.708,3.584,3.584,0,0,1-1.336-2.156h11.651q.032-.322.031-.644v-.612a12.348,12.348,0,0,0-.53-3.653,8.748,8.748,0,0,0-1.609-3.025M777.235,74.9a4.53,4.53,0,0,1,1.03-2.3,2.57,2.57,0,0,1,2-.853,2.7,2.7,0,0,1,2.059.853,3.875,3.875,0,0,1,.966,2.3Z" transform="translate(-564.955 -49.238)" fill="#f40000"/>
      <path id="Trazado_42992" data-name="Trazado 42992" d="M851.863,79.9a3.374,3.374,0,0,1-1.85.484,3.234,3.234,0,0,1-2.509-1.143,3.968,3.968,0,0,1-.708-1.255,4.631,4.631,0,0,1-.255-1.561v-.064a4.268,4.268,0,0,1,.255-1.5,4.044,4.044,0,0,1,.708-1.223,3.283,3.283,0,0,1,1.078-.837,3.079,3.079,0,0,1,1.367-.306,3.352,3.352,0,0,1,1.867.484,5.46,5.46,0,0,1,1.383,1.351l4.152-3.09a8.618,8.618,0,0,0-2.929-2.832,8.753,8.753,0,0,0-4.5-1.062,9.668,9.668,0,0,0-3.782.724,9.014,9.014,0,0,0-5.55,8.351v.064a9.012,9.012,0,0,0,8.98,9.044h.127a9.073,9.073,0,0,0,4.7-1.094,9.6,9.6,0,0,0,3.058-2.9l-4.089-2.961a7.234,7.234,0,0,1-1.5,1.319" transform="translate(-615.593 -49.321)" fill="#f40000"/>
      <path id="Trazado_42993" data-name="Trazado 42993" d="M912.5,52.215h-6.15v4.409h-2.059v4.924h2.059v7.081q0,3.122,1.553,4.441a6.491,6.491,0,0,0,4.338,1.32,9.438,9.438,0,0,0,2.351-.274,8.388,8.388,0,0,0,1.9-.724V68.6a7.036,7.036,0,0,1-1.126.418,4.4,4.4,0,0,1-1.192.161,1.742,1.742,0,0,1-1.254-.4,1.793,1.793,0,0,1-.419-1.336V61.548h4.058V56.624H912.5Z" transform="translate(-662.246 -38.239)" fill="#f40000"/>
      <path id="Trazado_42994" data-name="Trazado 42994" d="M972.123,72.779a8.617,8.617,0,0,0-1.995-2.863,9.787,9.787,0,0,0-3.041-1.947,9.984,9.984,0,0,0-3.845-.724,10.106,10.106,0,0,0-3.863.724,9.582,9.582,0,0,0-3.056,1.963,8.937,8.937,0,0,0-2.011,2.9,8.7,8.7,0,0,0-.724,3.524v.064a8.762,8.762,0,0,0,2.7,6.388,9.4,9.4,0,0,0,3.042,1.947,10.726,10.726,0,0,0,7.706-.016,9.584,9.584,0,0,0,3.057-1.963,8.943,8.943,0,0,0,2.011-2.9,8.7,8.7,0,0,0,.724-3.524v-.064a8.751,8.751,0,0,0-.708-3.509m-5.244,3.636a4.233,4.233,0,0,1-.255,1.467,3.813,3.813,0,0,1-.724,1.229,3.316,3.316,0,0,1-1.142.829,3.654,3.654,0,0,1-1.513.3,3.423,3.423,0,0,1-1.481-.319,3.9,3.9,0,0,1-1.174-.846,3.728,3.728,0,0,1-.773-1.229,4.1,4.1,0,0,1-.274-1.5v-.064a4.234,4.234,0,0,1,.255-1.467,3.8,3.8,0,0,1,.724-1.229,3.312,3.312,0,0,1,1.142-.829,3.648,3.648,0,0,1,1.513-.3,3.424,3.424,0,0,1,1.481.319,3.915,3.915,0,0,1,1.174.846,3.754,3.754,0,0,1,.772,1.229,4.1,4.1,0,0,1,.274,1.5Z" transform="translate(-698.348 -49.245)" fill="#f40000"/>
      <path id="Trazado_42995" data-name="Trazado 42995" d="M55.488,54.519a17.235,17.235,0,1,0-.154-.151l.154.151M65.9,47.06a2.167,2.167,0,0,0-.7-.442,10.342,10.342,0,0,0-1.014-.357q-.574-.171-1.2-.371a16.09,16.09,0,0,1-1.613-.557,5.758,5.758,0,0,1-1.467-.857,4.174,4.174,0,0,1-1.07-1.3,3.931,3.931,0,0,1-.414-1.884v-.058a4.5,4.5,0,0,1,1.641-3.6,5.105,5.105,0,0,1,1.77-.942,7.352,7.352,0,0,1,2.184-.314,9.636,9.636,0,0,1,2.5.34,4.14,4.14,0,0,1,.341-1.012,4.594,4.594,0,0,1,1.2-1.527,5.1,5.1,0,0,1,1.769-.942,7.34,7.34,0,0,1,2.184-.314,9.8,9.8,0,0,1,2.954.471,10.943,10.943,0,0,1,2.755,1.3l-1.658,3a13.7,13.7,0,0,0-2.227-1.042,5.814,5.814,0,0,0-1.914-.383,1.987,1.987,0,0,0-1.2.3.911.911,0,0,0-.4.757v.057a.746.746,0,0,0,.255.556,2.864,2.864,0,0,0,.685.457,9.155,9.155,0,0,0,.985.414q.557.2,1.185.4.8.255,1.627.613a6.709,6.709,0,0,1,1.484.871,4.316,4.316,0,0,1,1.084,1.256,3.544,3.544,0,0,1,.428,1.8v.057a5.094,5.094,0,0,1-.442,2.212,4.066,4.066,0,0,1-1.241,1.528,5.6,5.6,0,0,1-1.87.9,8.487,8.487,0,0,1-2.3.3,10.2,10.2,0,0,1-2.26-.263,4.3,4.3,0,0,1-.326.992A4.064,4.064,0,0,1,68.375,51a5.6,5.6,0,0,1-1.87.9,8.49,8.49,0,0,1-2.3.3,10.716,10.716,0,0,1-6.565-2.313L59.5,47.035A10.312,10.312,0,0,0,62,48.406a6.761,6.761,0,0,0,2.327.457,2.415,2.415,0,0,0,1.384-.315.97.97,0,0,0,.442-.829v-.057a.82.82,0,0,0-.255-.6" transform="translate(-36.81 -18.281)" fill="#f40000"/>
      <path id="Trazado_42996" data-name="Trazado 42996" d="M99.336,83.645c0,.09.163.112.319.15a22.145,22.145,0,0,1,2.32.631,3.572,3.572,0,0,1,1.125.657c.238.191.9.553,1.194.319a5.064,5.064,0,0,0,1.051-2.687c-.059-.374-.787-.556-1.091-.58a3.5,3.5,0,0,1-1.272-.279,21.662,21.662,0,0,1-2.132-1.113c-.138-.075-.269-.168-.334-.1a5.3,5.3,0,0,0-2-.614c.031-.082-.18-.128-.327-.166-.265-.071-.95-.085-1.676-.151a8.761,8.761,0,0,1-1.153-.156,7.345,7.345,0,0,1-.864-.3.207.207,0,0,0-.146-.142,2.68,2.68,0,0,0-.4-.023.141.141,0,0,1-.1-.084.183.183,0,0,0-.168-.092c-.085-.006-.142.075-.173.12a3.567,3.567,0,0,0-.241.51,3.628,3.628,0,0,0-.169.534c-.008.057-.021.154.045.207a.183.183,0,0,0,.187.046.144.144,0,0,1,.127,0,3.208,3.208,0,0,0,.309.259.212.212,0,0,0,.2-.006,7.03,7.03,0,0,1,.84.363,8.584,8.584,0,0,1,.953.671c.578.44,1.092.9,1.334,1.026.132.072.319.181.354.1a5.3,5.3,0,0,0,1.881.907" transform="translate(-68.179 -57.789)" fill="#f40000"/>
      <path id="Trazado_42997" data-name="Trazado 42997" d="M49.97.59A24.124,24.124,0,1,0,74.094,24.714,24.124,24.124,0,0,0,49.97.59M62.526,37.271a17.778,17.778,0,1,1,.173-.176l-.173.176" transform="translate(-18.928 -0.432)" fill="#f40000"/>
      <path id="Trazado_42998" data-name="Trazado 42998" d="M217.208,13.352V25.566c0,.118,0,.237.007.355a1.043,1.043,0,0,1-.466.963.614.614,0,0,0-.277.592c.049,1.314.087,2.628.128,3.942q.088,2.871.173,5.741.079,2.583.16,5.167c.043,1.4.091,2.8.122,4.2a1.9,1.9,0,0,1-1.269,1.942,1.759,1.759,0,0,1-2.142-1.877c.011-1.039.055-2.078.087-3.116q.072-2.366.147-4.732.09-2.958.178-5.916.08-2.583.166-5.167c.01-.312-.056-.446-.3-.561a2.291,2.291,0,0,1-1.3-2.011,38.961,38.961,0,0,1-.1-4.65c.052-2.34.123-4.68.235-7.017.068-1.4.2-2.807.353-4.2a35.388,35.388,0,0,1,1.09-6.124,7.756,7.756,0,0,1,.99-2.3A1.586,1.586,0,0,1,216.26.018a.994.994,0,0,1,.361.024.535.535,0,0,1,.443.585q.026,1.559.038,3.117.027,3.808.045,7.616c0,.664,0,1.328,0,1.992h.061" transform="translate(-155.614 -0.008)" fill="#f40000"/>
      <path id="Trazado_42999" data-name="Trazado 42999" d="M2.255,31.948q.128-4.218.251-8.437Q2.6,20.5,2.69,17.5a.73.73,0,0,0-.221-.566c-.534-.551-1.058-1.11-1.585-1.668a3.08,3.08,0,0,1-.877-2.2C.012,11.91-.023,10.752.029,9.6c.082-1.818.212-3.636.344-5.45C.466,2.871.6,1.595.708.319.719.194.765.13.9.13c.6,0,.484-.051.5.453q.108,3.983.207,7.966c.009.342.008.684.02,1.025.01.266.145.419.353.417.225,0,.37-.173.376-.447q.1-4.387.209-8.774c0-.2.025-.394.025-.591,0-.128.052-.18.178-.172a.907.907,0,0,0,.16,0c.157-.018.2.048.2.2q.064,4.112.144,8.224.01.533.018,1.065c.005.3.149.48.383.483s.391-.188.4-.472q.05-2.909.1-5.818c.02-1.157.044-2.314.058-3.471,0-.161.049-.234.216-.216a.677.677,0,0,0,.14,0c.147-.013.191.05.2.195.012.73.035,1.459.054,2.189q.091,3.529.181,7.058a1.5,1.5,0,0,0,.015.235.36.36,0,0,0,.383.306.351.351,0,0,0,.319-.343c.014-.319.018-.644.026-.966q.081-3.194.163-6.388c.018-.677.047-1.354.064-2.031,0-.163.064-.2.218-.18.451.064.446.058.486.522q.181,2.191.368,4.381c.2,2.307.33,4.616.332,6.932,0,.506-.037,1.011-.057,1.517a2.778,2.778,0,0,1-.8,1.78q-.759.838-1.553,1.643a.9.9,0,0,0-.3.714q.115,3.41.212,6.821.137,4.544.27,9.089l.255,8.437c.043,1.433.079,2.866.127,4.3a2.25,2.25,0,0,1-.58,1.728,1.745,1.745,0,0,1-2.881-.447,2.508,2.508,0,0,1-.269-1.237q.112-3.341.216-6.682c.052-1.689.094-3.381.143-5.067.025-.854.054-1.708.081-2.563h0" transform="translate(0 0)" fill="#f40000"/>
    </g>
  </g>
</svg>
