<svg id="img-header-414x65px" xmlns="http://www.w3.org/2000/svg" xmlns:xlink="http://www.w3.org/1999/xlink" width="414" height="65" viewBox="0 0 414 65">
  <defs>
    <clipPath id="clip-path">
      <rect id="Rect치ngulo_25163" data-name="Rect치ngulo 25163" width="414" height="65" transform="translate(-430 -17549)" fill="#f40000"/>
    </clipPath>
  </defs>
  <g id="Enmascarar_grupo_19830" data-name="Enmascarar grupo 19830" transform="translate(430 17549)" clip-path="url(#clip-path)">
    <g id="Grupo_20454" data-name="Grupo 20454">
      <rect id="Rect치ngulo_25162" data-name="Rect치ngulo 25162" width="414" height="65" transform="translate(-430 -17549)" fill="#f40000"/>
      <path id="Trazado_55919" data-name="Trazado 55919" d="M285.983,57.413h-27.8c-.116,0,0-2.61-.039-2.653-.016-.119,27.807.006,27.841-.037a2.69,2.69,0,0,0-2.69-2.692H258.181c-.119,0,0-2.61-.039-2.653-.023-.12,27.812.006,27.841-.038a2.69,2.69,0,0,0-2.69-2.69H258.181c-.119,0,0-2.609-.039-2.652-.023-.121,27.812,0,27.841-.039a2.691,2.691,0,0,0-2.69-2.69H256.868a9.412,9.412,0,0,0-8.783,6.041l-.035.023H199.2a3.5,3.5,0,0,0-3.567,3.2,3.351,3.351,0,0,0,3.348,3.5H248.05l.035.024a9.412,9.412,0,0,0,8.783,6.041h26.424A2.689,2.689,0,0,0,285.983,57.413Z" transform="translate(-452.471 -17567.188)" fill="#ffb600"/>
      <path id="Trazado_55920" data-name="Trazado 55920" d="M283.292,60.352H256.868a9.723,9.723,0,0,1-8.962-6.065H198.984a3.6,3.6,0,0,1-3.6-3.764,3.76,3.76,0,0,1,3.818-3.439h48.7a9.721,9.721,0,0,1,8.962-6.063h26.423a2.941,2.941,0,0,1,2.94,2.938v.074l-.041.062c-.084.132-.083.132-9.22.114-7.24-.013-16.984-.028-18.571.02,0,.146-.005.35-.009.648-.009.439-.023,1.188-.007,1.523h24.908a2.944,2.944,0,0,1,2.94,2.941v.076l-.042.061c-.086.128-.086.125-9.08.113-6.889-.014-17.084-.033-18.71.019,0,.146-.005.351-.009.648-.009.438-.023,1.189-.007,1.524h24.908a2.944,2.944,0,0,1,2.94,2.941v.086l-.054.069c-.087.111-.088.11-9,.093-6.915-.011-17.147-.032-18.775.021,0,.142-.005.344-.009.636-.008.442-.022,1.2-.005,1.536h27.846v.249a2.942,2.942,0,0,1-2.94,2.939M199.2,47.583a3.256,3.256,0,0,0-3.319,2.963,3.1,3.1,0,0,0,3.1,3.242h49.148l.125.093.06.091a9.107,9.107,0,0,0,8.551,5.882h26.423a2.446,2.446,0,0,0,2.429-2.191H258.078L258,57.586c-.113-.112-.139-.206-.1-1.967,0-.288.01-.609.009-.749l-.1-.1.152-.174c.122-.137.141-.159,19.221-.123,4.045.01,7.6.017,8.546.007a2.446,2.446,0,0,0-2.429-2.2H258.078L258,52.206c-.113-.113-.139-.2-.1-1.957,0-.29.012-.61.009-.755l-.1-.1.147-.178c.123-.147.137-.169,19.161-.128,4.078.007,7.664.012,8.611.007a2.446,2.446,0,0,0-2.429-2.2H258.078L258,46.824c-.113-.113-.139-.206-.1-1.957,0-.29.012-.613.009-.755l-.1-.1.146-.177c.121-.143.137-.161,19.023-.128,4.145.008,7.794.016,8.749.006a2.444,2.444,0,0,0-2.429-2.2H256.868a9.1,9.1,0,0,0-8.551,5.881l-.027.073-.128.087-.112.023Z" transform="translate(-452.471 -17567.188)" fill="#222"/>
      <g id="Grupo_20453" data-name="Grupo 20453" transform="translate(-533 -17549)">
        <path id="Trazado_55907" data-name="Trazado 55907" d="M343.578,27.154H311V58.209h32.578a15.528,15.528,0,1,0,0-31.055m0,8.8a6.726,6.726,0,1,1-6.742,6.726,6.734,6.734,0,0,1,6.742-6.726" transform="translate(-78.314 -10.184)" fill="#b50000"/>
        <path id="Trazado_55910" data-name="Trazado 55910" d="M331.759,47.964a6.742,6.742,0,1,1-6.742-6.726,6.734,6.734,0,0,1,6.742,6.726" transform="translate(-81.031 -15.465)" fill="#ffb600"/>
        <path id="Trazado_55911" data-name="Trazado 55911" d="M208,0v15.95A49.042,49.042,0,0,1,257.167,65h15.989A65.078,65.078,0,0,0,208,0" transform="translate(-39.844 0)" fill="#fff"/>
        <path id="Trazado_55912" data-name="Trazado 55912" d="M227.14,29.378A49,49,0,0,1,257.167,74.57H208V25.522a48.963,48.963,0,0,1,19.14,3.856" transform="translate(-39.844 -9.57)" fill="#f40000"/>
        <path id="Trazado_55913" data-name="Trazado 55913" d="M273.156,0H208a65.078,65.078,0,0,1,65.156,65Z" transform="translate(-39.844)" fill="#b50000"/>
        <path id="Trazado_55914" data-name="Trazado 55914" d="M169.156,0v15.95A49.042,49.042,0,0,0,119.989,65H104A65.078,65.078,0,0,1,169.156,0" transform="translate(-1 0)" fill="#fff"/>
        <path id="Trazado_55915" data-name="Trazado 55915" d="M159.549,29.378A49,49,0,0,0,129.521,74.57h49.167V25.522a48.963,48.963,0,0,0-19.14,3.856" transform="translate(-10.532 -9.57)" fill="#f40000"/>
        <path id="Trazado_55916" data-name="Trazado 55916" d="M219.51,59.119A29.464,29.464,0,0,1,237.57,86.3H208V56.8a29.458,29.458,0,0,1,11.51,2.319" transform="translate(-39.844 -21.3)" fill="#b50000"/>
        <path id="Trazado_55917" data-name="Trazado 55917" d="M178.861,59.119A29.464,29.464,0,0,0,160.8,86.3h29.57V56.8a29.458,29.458,0,0,0-11.51,2.319" transform="translate(-22.215 -21.3)" fill="#b50000"/>
        <path id="Trazado_55918" data-name="Trazado 55918" d="M104,0h65.156A65.078,65.078,0,0,0,104,65Z" transform="translate(-1)" fill="#b50000"/>
      </g>
      <path id="Trazado_55923" data-name="Trazado 55923" d="M220.638,84.736l-.01-.03a23.992,23.992,0,0,1-1.456-8.877v-.018c0-4.717,1.333-13.243,1.769-16.045.086-.545.123-.79.136-.893.021-.165.043-.329.067-.491a3.684,3.684,0,0,0-.127-2.281,19.95,19.95,0,0,0,.187-3.994,69.226,69.226,0,0,0-.486-7.186,13.081,13.081,0,0,0-.733-3.35,5.247,5.247,0,0,0,.045-2.67l-.017-.133a46.272,46.272,0,0,0-1.787-6.271c-.529-1.629-1.126-3.476-1.683-5.355l-.529-1.252-.532.025c-2.027.1-10.624.029-13.863,0l-1.185-.009-.236.794c-.045.15-.09.3-.131.438-.553,1.863-1.148,3.7-1.673,5.316a46.214,46.214,0,0,0-1.795,6.31l-.02.145a5.219,5.219,0,0,0,.047,2.658,13.07,13.07,0,0,0-.737,3.377,69.482,69.482,0,0,0-.482,7.173,20.021,20.021,0,0,0,.186,3.98,3.706,3.706,0,0,0-.127,2.279c.024.162.047.327.068.492.012.1.048.339.13.864.439,2.8,1.77,11.34,1.776,16.075v.018a24.036,24.036,0,0,1-1.45,8.878l-.01.029a16.244,16.244,0,0,0-.667,4.89c.055,2.377.764,4.019,2.052,4.749,1.588.9,6.4,1.607,10.944,1.607,5.08,0,9.554-.817,10.946-1.607,3.134-1.777,1.889-8.055,1.384-9.639" transform="translate(-572.471 -17549.063)" fill="#f40000"/>
      <path id="Trazado_55924" data-name="Trazado 55924" d="M207.946,96.247c-4.028,0-9.282-.618-11.1-1.65-3.821-2.167-1.554-9.933-1.529-10.01.048-.155.1-.322.165-.5a23.532,23.532,0,0,0,1.28-8.321c0-4.695-1.329-13.2-1.765-15.993l0-.031c-.077-.465-.12-.772-.134-.873-.02-.165-.042-.32-.064-.475a4,4,0,0,1,.112-2.38,20.4,20.4,0,0,1-.178-3.946,70.246,70.246,0,0,1,.48-7.186,13.656,13.656,0,0,1,.722-3.373,5.592,5.592,0,0,1-.024-2.708l.02-.147a46.8,46.8,0,0,1,1.807-6.345c.494-1.519,1.111-3.422,1.67-5.307l.17-.573a55.267,55.267,0,0,0,1.824-7.322,44.77,44.77,0,0,0,.239-5.782v-.159a2.36,2.36,0,0,1-.588-1.812,7.473,7.473,0,0,1,.729-2.31l0-.013c.058-.137.133-.313.18-.434a2.307,2.307,0,0,1-.435-2.492,2.629,2.629,0,0,1,2.085-1.524,31.8,31.8,0,0,1,8.667,0A2.625,2.625,0,0,1,214.355,6.1a2.318,2.318,0,0,1-.43,2.5l.083.2c.035.083.071.17.1.246a7.458,7.458,0,0,1,.726,2.294,2.358,2.358,0,0,1-.586,1.825v.153a44.751,44.751,0,0,0,.238,5.784,55.494,55.494,0,0,0,1.824,7.324l.169.57c.535,1.8,1.112,3.581,1.621,5.154l.052.161a46.548,46.548,0,0,1,1.8,6.339l0,.023.016.123a5.625,5.625,0,0,1-.025,2.707,13.6,13.6,0,0,1,.722,3.372,70.215,70.215,0,0,1,.482,7.19,20.3,20.3,0,0,1-.179,3.94,3.978,3.978,0,0,1,.113,2.381c-.022.154-.044.311-.064.469-.012.1-.055.373-.134.882-.437,2.8-1.766,11.312-1.77,16.014a23.546,23.546,0,0,0,1.278,8.325l.02.059c.052.158.1.305.146.444.523,1.637,1.792,8.129-1.528,10.013-1.806,1.038-7.059,1.66-11.093,1.66M196.5,38.762l-.023.161a5.008,5.008,0,0,0,.041,2.518l.025.091-.032.088a13.042,13.042,0,0,0-.721,3.32,69.778,69.778,0,0,0-.478,7.146A19.817,19.817,0,0,0,195.5,56l.011.077-.028.072a3.42,3.42,0,0,0-.115,2.109l.007.032c.024.165.047.331.067.5.014.1.056.4.132.859l0,.033c.437,2.806,1.766,11.344,1.772,16.076a24.107,24.107,0,0,1-1.312,8.518c-.059.174-.114.337-.161.489-.49,1.541-1.711,7.638,1.259,9.322,1.734.985,6.858,1.572,10.81,1.572s9.079-.592,10.8-1.582c1.559-.885,1.9-3.02,1.919-4.655a16.72,16.72,0,0,0-.659-4.668c-.044-.136-.093-.281-.145-.438l-.018-.056a24.131,24.131,0,0,1-1.31-8.521c0-4.741,1.339-13.287,1.777-16.1.063-.4.12-.766.132-.864.021-.168.044-.334.067-.5l.007-.034a3.4,3.4,0,0,0-.115-2.109l-.028-.072.011-.077a19.727,19.727,0,0,0,.184-3.911,69.68,69.68,0,0,0-.48-7.15,12.95,12.95,0,0,0-.721-3.32l-.031-.087.025-.091a5.038,5.038,0,0,0,.04-2.52l-.006-.032-.016-.126A46.138,46.138,0,0,0,217.6,32.5l-.055-.17c-.511-1.575-1.089-3.361-1.626-5.168l-.167-.564a55.957,55.957,0,0,1-1.843-7.4l0-.021a45.321,45.321,0,0,1-.243-5.864v-.384l.086-.086a1.767,1.767,0,0,0,.5-1.429,6.869,6.869,0,0,0-.672-2.112l-.012-.025c-.031-.078-.067-.167-.1-.252-.053-.13-.1-.253-.13-.326l-.02-.055,0-.059a.458.458,0,0,1,.167-.376,1.726,1.726,0,0,0,.335-1.868A2.042,2.042,0,0,0,212.2,5.163a31.216,31.216,0,0,0-8.516,0,2.044,2.044,0,0,0-1.623,1.18A1.72,1.72,0,0,0,202.4,8.2a.454.454,0,0,1,.166.394v.047l-.014.045c-.043.128-.142.362-.229.569l-.018.041a6.865,6.865,0,0,0-.674,2.125,1.766,1.766,0,0,0,.508,1.417l.085.086v.389a45.347,45.347,0,0,1-.243,5.862l0,.02a55.746,55.746,0,0,1-1.843,7.4l-.168.566c-.561,1.893-1.18,3.8-1.677,5.331a46.105,46.105,0,0,0-1.786,6.264" transform="translate(-572.469 -17549.01)" fill="#222"/>
    </g>
  </g>
</svg>
