<svg xmlns="http://www.w3.org/2000/svg" xmlns:xlink="http://www.w3.org/1999/xlink" width="200" height="64" viewBox="0 0 200 64">
  <defs>
    <clipPath id="clip-path">
      <rect id="Rectángulo_20874" data-name="Rectángulo 20874" width="200" height="64" transform="translate(60 68)" fill="#fff" stroke="#707070" stroke-width="1"/>
    </clipPath>
    <clipPath id="clip-path-2">
      <rect id="Rectángulo_20869" data-name="Rectángulo 20869" width="190" height="32.766" fill="none"/>
    </clipPath>
  </defs>
  <g id="img-logo-header" transform="translate(-60 -68)" clip-path="url(#clip-path)">
    <g id="Grupo_18858" data-name="Grupo 18858" transform="translate(66 84)">
      <g id="Grupo_18857" data-name="Grupo 18857" clip-path="url(#clip-path-2)">
        <path id="Trazado_41072" data-name="Trazado 41072" d="M210.524,87.085A11.394,11.394,0,1,0,199.13,75.69a11.394,11.394,0,0,0,11.394,11.394m-1.194-8.65a1.318,1.318,0,0,0-.427-.27,6.377,6.377,0,0,0-.618-.218q-.349-.1-.732-.226a9.82,9.82,0,0,1-.984-.34,3.515,3.515,0,0,1-.9-.523,2.547,2.547,0,0,1-.653-.793,2.4,2.4,0,0,1-.253-1.15v-.035a2.746,2.746,0,0,1,1-2.2,3.114,3.114,0,0,1,1.08-.575,4.484,4.484,0,0,1,1.333-.192,5.877,5.877,0,0,1,1.527.208,2.525,2.525,0,0,1,.208-.618,2.805,2.805,0,0,1,.732-.932,3.115,3.115,0,0,1,1.08-.575,4.479,4.479,0,0,1,1.333-.192,5.988,5.988,0,0,1,1.8.287,6.679,6.679,0,0,1,1.681.793l-1.01,1.829a8.36,8.36,0,0,0-1.359-.636,3.55,3.55,0,0,0-1.167-.235,1.213,1.213,0,0,0-.732.183.556.556,0,0,0-.244.462v.035a.455.455,0,0,0,.157.34,1.745,1.745,0,0,0,.418.279,5.573,5.573,0,0,0,.6.253q.34.122.723.244.488.157.993.375a4.087,4.087,0,0,1,.906.531,2.638,2.638,0,0,1,.662.766,2.163,2.163,0,0,1,.261,1.1v.035a3.109,3.109,0,0,1-.27,1.35,2.481,2.481,0,0,1-.758.932,3.408,3.408,0,0,1-1.141.549,5.177,5.177,0,0,1-1.4.183,6.225,6.225,0,0,1-1.379-.16,2.629,2.629,0,0,1-.2.605,2.482,2.482,0,0,1-.758.932,3.42,3.42,0,0,1-1.141.549,5.183,5.183,0,0,1-1.4.183,6.54,6.54,0,0,1-4.007-1.411l1.132-1.742a6.3,6.3,0,0,0,1.524.837,4.126,4.126,0,0,0,1.42.279,1.474,1.474,0,0,0,.845-.192.591.591,0,0,0,.27-.505V78.8a.5.5,0,0,0-.157-.366" transform="translate(-183.68 -59.307)" fill="#fff"/>
        <path id="Trazado_41073" data-name="Trazado 41073" d="M301.613,189.151c0,.055.1.068.193.091a13.489,13.489,0,0,1,1.416.385,2.18,2.18,0,0,1,.686.4c.146.117.547.338.728.195a3.089,3.089,0,0,0,.642-1.639c-.036-.229-.48-.34-.666-.354a2.139,2.139,0,0,1-.776-.17,13.207,13.207,0,0,1-1.3-.679c-.084-.046-.164-.1-.2-.063a3.231,3.231,0,0,0-1.219-.375c.019-.05-.11-.079-.2-.1-.162-.043-.58-.052-1.023-.092a5.335,5.335,0,0,1-.7-.1,4.5,4.5,0,0,1-.527-.184.126.126,0,0,0-.089-.086,1.635,1.635,0,0,0-.245-.014.086.086,0,0,1-.058-.051.112.112,0,0,0-.1-.056c-.052,0-.086.046-.105.073a2.18,2.18,0,0,0-.147.311,2.255,2.255,0,0,0-.1.326c0,.035-.013.094.028.127a.112.112,0,0,0,.114.028.087.087,0,0,1,.078,0,1.956,1.956,0,0,0,.189.158.129.129,0,0,0,.124,0,4.276,4.276,0,0,1,.513.222,5.247,5.247,0,0,1,.581.409c.353.269.666.547.814.626.081.044.2.11.216.059a3.223,3.223,0,0,0,1.148.554" transform="translate(-274.699 -171.81)" fill="#fff"/>
        <path id="Trazado_41074" data-name="Trazado 41074" d="M151.154,0H136.935a2.164,2.164,0,0,0-2.164,2.164V16.383A16.383,16.383,0,0,1,151.154,0" transform="translate(-124.314)" fill="#fff"/>
        <path id="Trazado_41075" data-name="Trazado 41075" d="M134.771,211.154v14.219a2.164,2.164,0,0,0,2.164,2.164h14.219a16.383,16.383,0,0,1-16.383-16.383" transform="translate(-124.314 -194.771)" fill="#fff"/>
        <path id="Trazado_41076" data-name="Trazado 41076" d="M360.153,0H345.924a16.382,16.382,0,0,1,16.382,16.344c0,.013,0,.026,0,.039a16.383,16.383,0,0,1-16.383,16.383h14.229a2.164,2.164,0,0,0,2.164-2.164V2.164A2.164,2.164,0,0,0,360.153,0" transform="translate(-319.085)" fill="#fff"/>
        <path id="Trazado_41077" data-name="Trazado 41077" d="M1.228,0A1.227,1.227,0,0,0,0,1.228L0,4.7A1.2,1.2,0,0,1,.72,3.6L8.65.1A1.2,1.2,0,0,1,9.123,0h-7.9Z" fill="#fff"/>
        <path id="Trazado_41078" data-name="Trazado 41078" d="M5.346,119.845l0-14.223,0,0,0-9.912L1.686,97.32A1.2,1.2,0,0,1,0,96.255v23.569a1.228,1.228,0,0,0,1.228,1.228H6.55a1.2,1.2,0,0,1-1.2-1.206" transform="translate(0 -88.286)" fill="#fff"/>
        <path id="Trazado_41079" data-name="Trazado 41079" d="M639.248,237.231a6.177,6.177,0,0,0-3.14-1.352l-3.076-.572a6.248,6.248,0,0,1-2.493-.9,1.757,1.757,0,0,1-.8-1.471,1.994,1.994,0,0,1,.6-1.431,4.091,4.091,0,0,1,1.655-.977,7.211,7.211,0,0,1,2.323-.355,8.837,8.837,0,0,1,2.482.365,6.507,6.507,0,0,1,2.313,1.234l.785-.869a8.158,8.158,0,0,0-5.558-1.8,8.745,8.745,0,0,0-2.991.484,5.027,5.027,0,0,0-2.111,1.362,2.994,2.994,0,0,0-.774,2.043q0,2.665,4.01,3.4l3.161.573q3.394.612,3.394,2.744a2.259,2.259,0,0,1-.6,1.559,3.911,3.911,0,0,1-1.623,1.036,6.614,6.614,0,0,1-2.249.365,9.761,9.761,0,0,1-3.044-.474,8.05,8.05,0,0,1-2.6-1.4l-.848.928a8.833,8.833,0,0,0,2.906,1.5,12.036,12.036,0,0,0,3.628.533,7.9,7.9,0,0,0,2.96-.523,4.713,4.713,0,0,0,2.026-1.451,3.378,3.378,0,0,0,.721-2.132,3.157,3.157,0,0,0-1.061-2.418" transform="translate(-579.338 -211.332)" fill="#fff"/>
        <path id="Trazado_41080" data-name="Trazado 41080" d="M813.847,274.882a6.851,6.851,0,0,0-6.195,0,5.566,5.566,0,0,0-2.164,2.023,5.539,5.539,0,0,0,0,5.685,5.566,5.566,0,0,0,2.164,2.023,6.851,6.851,0,0,0,6.195,0,5.571,5.571,0,0,0,2.164-2.023,5.539,5.539,0,0,0,0-5.685,5.571,5.571,0,0,0-2.164-2.023m1.061,7.176a4.492,4.492,0,0,1-1.729,1.639,5.278,5.278,0,0,1-4.858,0,4.49,4.49,0,0,1-1.729-1.639,4.509,4.509,0,0,1,0-4.619,4.49,4.49,0,0,1,1.729-1.638,5.278,5.278,0,0,1,4.858,0,4.492,4.492,0,0,1,1.729,1.638,4.509,4.509,0,0,1,0,4.619" transform="translate(-742.268 -252.872)" fill="#fff"/>
        <path id="Trazado_41081" data-name="Trazado 41081" d="M984.966,283.973a6.115,6.115,0,0,1-1.973.316,5.6,5.6,0,0,1-2.556-.582,4.586,4.586,0,0,1-1.825-1.609,4.445,4.445,0,0,1,0-4.688,4.565,4.565,0,0,1,1.825-1.619,5.558,5.558,0,0,1,2.535-.582,5.435,5.435,0,0,1,1.835.306,4.742,4.742,0,0,1,1.538.9l.785-.849a5.915,5.915,0,0,0-4.095-1.421,7.228,7.228,0,0,0-3.256.721,5.539,5.539,0,0,0-2.27,2,5.542,5.542,0,0,0-.011,5.774,5.5,5.5,0,0,0,2.249,1.994,7.213,7.213,0,0,0,3.267.72,7.549,7.549,0,0,0,2.461-.385,4.248,4.248,0,0,0,1.782-1.1l-.828-.79a3.46,3.46,0,0,1-1.464.888" transform="translate(-900.913 -252.872)" fill="#fff"/>
        <rect id="Rectángulo_20866" data-name="Rectángulo 20866" width="1.23" height="10.699" transform="translate(88.232 21.526)" fill="#fff"/>
        <path id="Trazado_41082" data-name="Trazado 41082" d="M1134.279,230.125a.927.927,0,0,0-.658.237.863.863,0,0,0,0,1.224,1.031,1.031,0,0,0,1.315,0,.862.862,0,0,0,0-1.224.927.927,0,0,0-.657-.237" transform="translate(-1045.432 -212.27)" fill="#fff"/>
        <path id="Trazado_41083" data-name="Trazado 41083" d="M1191.452,274.882a6.851,6.851,0,0,0-6.195,0,5.568,5.568,0,0,0-2.164,2.023,5.54,5.54,0,0,0,0,5.685,5.568,5.568,0,0,0,2.164,2.023,6.851,6.851,0,0,0,6.195,0,5.571,5.571,0,0,0,2.164-2.023,5.539,5.539,0,0,0,0-5.685,5.572,5.572,0,0,0-2.164-2.023m1.061,7.176a4.491,4.491,0,0,1-1.729,1.639,5.278,5.278,0,0,1-4.858,0,4.489,4.489,0,0,1-1.729-1.639,4.509,4.509,0,0,1,0-4.619,4.489,4.489,0,0,1,1.729-1.638,5.278,5.278,0,0,1,4.858,0,4.491,4.491,0,0,1,1.729,1.638,4.509,4.509,0,0,1,0,4.619" transform="translate(-1090.576 -252.872)" fill="#fff"/>
        <path id="Trazado_41084" data-name="Trazado 41084" d="M1369.183,234.852l-3.691-.553q-1.315-.2-1.315-.928,0-.454.753-.78a5.127,5.127,0,0,1,2.005-.326,6.86,6.86,0,0,1,2.28.375,8.316,8.316,0,0,1,2.111,1.125l2.206-2.625a8.053,8.053,0,0,0-3.012-1.53,13.445,13.445,0,0,0-3.67-.5,10.727,10.727,0,0,0-3.66.553,4.958,4.958,0,0,0-2.3,1.569,3.78,3.78,0,0,0-.785,2.379q0,3.415,4.752,4.126l3.267.474q1.485.2,1.485,1.066a1.106,1.106,0,0,1-.711.938,4.211,4.211,0,0,1-1.984.385,7.694,7.694,0,0,1-5.07-1.757l-2.334,2.665a8.445,8.445,0,0,0,3.172,1.648,14.414,14.414,0,0,0,4.211.6,10.185,10.185,0,0,0,3.66-.592,5.218,5.218,0,0,0,2.355-1.668,4.046,4.046,0,0,0,.817-2.517,3.623,3.623,0,0,0-1.114-2.7,6.049,6.049,0,0,0-3.426-1.421" transform="translate(-1254.028 -211.332)" fill="#fff"/>
        <path id="Trazado_41085" data-name="Trazado 41085" d="M1563.368,269.342a7.109,7.109,0,0,0-3.458-.8,7.233,7.233,0,0,0-3.479.8,5.693,5.693,0,0,0-2.27,2.132,5.635,5.635,0,0,0-.785,2.912,5.433,5.433,0,0,0,.827,2.941,5.681,5.681,0,0,0,2.419,2.092,8.643,8.643,0,0,0,3.8.77,8.977,8.977,0,0,0,3.065-.474,5.884,5.884,0,0,0,2.09-1.224l-1.931-2.231a6.467,6.467,0,0,1-1.57.839,4.957,4.957,0,0,1-1.613.247,4.53,4.53,0,0,1-2.185-.474,2.56,2.56,0,0,1-1.209-1.342h9.207a4.535,4.535,0,0,0,.106-1.027,5.967,5.967,0,0,0-.774-3,5.59,5.59,0,0,0-2.238-2.162m-6.322,3.879a2.444,2.444,0,0,1,1.05-1.313,3.436,3.436,0,0,1,1.835-.464,3.273,3.273,0,0,1,1.8.464,2.388,2.388,0,0,1,1,1.313Z" transform="translate(-1432.854 -247.707)" fill="#fff"/>
        <path id="Trazado_41086" data-name="Trazado 41086" d="M1742.54,235.707a.7.7,0,0,1-.276-.612V224.021h-3.776v11.607a3.156,3.156,0,0,0,1.018,2.5,4.02,4.02,0,0,0,2.758.9,5.463,5.463,0,0,0,1.952-.316v-2.961a3.021,3.021,0,0,1-.933.158,1.249,1.249,0,0,1-.742-.2" transform="translate(-1603.603 -206.64)" fill="#fff"/>
        <path id="Trazado_41087" data-name="Trazado 41087" d="M1824.216,269.342a7.11,7.11,0,0,0-3.458-.8,7.233,7.233,0,0,0-3.479.8,5.693,5.693,0,0,0-2.27,2.132,5.634,5.634,0,0,0-.785,2.912,5.434,5.434,0,0,0,.827,2.941,5.681,5.681,0,0,0,2.419,2.092,8.643,8.643,0,0,0,3.8.77,8.978,8.978,0,0,0,3.066-.474,5.885,5.885,0,0,0,2.09-1.224l-1.931-2.231a6.467,6.467,0,0,1-1.57.839,4.957,4.957,0,0,1-1.613.247,4.53,4.53,0,0,1-2.185-.474,2.56,2.56,0,0,1-1.209-1.342h9.207a4.528,4.528,0,0,0,.106-1.027,5.966,5.966,0,0,0-.774-3,5.59,5.59,0,0,0-2.238-2.162m-6.322,3.879a2.444,2.444,0,0,1,1.05-1.313,3.436,3.436,0,0,1,1.835-.464,3.273,3.273,0,0,1,1.8.464,2.389,2.389,0,0,1,1,1.313Z" transform="translate(-1673.463 -247.707)" fill="#fff"/>
        <path id="Trazado_41088" data-name="Trazado 41088" d="M1998.848,276.794a4.671,4.671,0,0,1-1.517.257,3.947,3.947,0,0,1-1.581-.316,2.79,2.79,0,0,1-1.177-.928,2.553,2.553,0,0,1,0-2.882,2.8,2.8,0,0,1,1.177-.928,3.933,3.933,0,0,1,3.066-.01,4.419,4.419,0,0,1,1.294.839l2.185-2.487a5.916,5.916,0,0,0-2.068-1.293,8.909,8.909,0,0,0-6.6.276,6.008,6.008,0,0,0-2.45,2.122,5.538,5.538,0,0,0-.042,5.892,5.714,5.714,0,0,0,2.408,2.083,9.546,9.546,0,0,0,6.725.3,6.009,6.009,0,0,0,2.068-1.244L2000.174,276a3.652,3.652,0,0,1-1.326.789" transform="translate(-1835.886 -247.707)" fill="#fff"/>
        <path id="Trazado_41089" data-name="Trazado 41089" d="M2154.142,235.126v-3.77h3.437v-2.921h-3.437v-3.652l-3.734,1.639v2.013h-2.058v2.921h2.016V235.4a4.052,4.052,0,0,0,1.252,3.178,5.463,5.463,0,0,0,3.755,1.125,6.235,6.235,0,0,0,2.312-.375v-3.06a5.725,5.725,0,0,1-1.7.276q-1.845,0-1.845-1.421" transform="translate(-1981.665 -207.342)" fill="#fff"/>
        <path id="Trazado_41090" data-name="Trazado 41090" d="M2284.722,269.323a8.486,8.486,0,0,0-7.107,0,5.889,5.889,0,0,0-2.376,2.1,5.581,5.581,0,0,0,0,5.883,5.885,5.885,0,0,0,2.376,2.1,8.489,8.489,0,0,0,7.107,0,5.887,5.887,0,0,0,2.376-2.1,5.58,5.58,0,0,0,0-5.883,5.891,5.891,0,0,0-2.376-2.1m-1.453,6.968a3.35,3.35,0,0,1-4.2,0,2.607,2.607,0,0,1,0-3.849,3.349,3.349,0,0,1,4.2,0,2.607,2.607,0,0,1,0,3.849" transform="translate(-2097.936 -247.707)" fill="#fff"/>
        <path id="Trazado_41091" data-name="Trazado 41091" d="M635.933,6.832h-1.488l-6.378,13.651h1.284l1.854-4.038h7.927l1.834,4.038h1.325Zm-4.259,8.608L635.2,7.818l3.464,7.622Z" transform="translate(-579.338 -6.302)" fill="#fff"/>
        <path id="Trazado_41092" data-name="Trazado 41092" d="M839.089,8.368l9.944,12.115h1.345V6.832H849.2v12.1l-9.923-12.1h-1.365V20.483h1.182Z" transform="translate(-772.896 -6.302)" fill="#fff"/>
        <rect id="Rectángulo_20867" data-name="Rectángulo 20867" width="1.223" height="13.651" transform="translate(80.945 0.53)" fill="#fff"/>
        <path id="Trazado_41093" data-name="Trazado 41093" d="M1101.036,6.832h-1.3l-5.644,12.552-5.6-12.552h-1.345l6.174,13.651h1.528Z" transform="translate(-1002.791 -6.302)" fill="#fff"/>
        <path id="Trazado_41094" data-name="Trazado 41094" d="M1303.128,19.46h-9.659V13.79h6.48V12.767h-6.48V7.856h9.455l.326-1.024h-11V20.483h11.207Z" transform="translate(-1191.985 -6.302)" fill="#fff"/>
        <path id="Trazado_41095" data-name="Trazado 41095" d="M1475.505,20.483l-4.687-6.2a4.522,4.522,0,0,0,2.863-1.185,3.383,3.383,0,0,0,1.07-2.531,3.458,3.458,0,0,0-.55-1.915,3.712,3.712,0,0,0-1.559-1.337,5.441,5.441,0,0,0-2.374-.483h-7.315V20.483h1.2V14.3h5.318l4.585,6.181Zm-11.35-7.186V7.856h5.991a3.7,3.7,0,0,1,2.466.758,2.462,2.462,0,0,1,.9,1.972,2.434,2.434,0,0,1-.9,1.963,3.731,3.731,0,0,1-2.466.749Z" transform="translate(-1349.446 -6.302)" fill="#fff"/>
        <path id="Trazado_41096" data-name="Trazado 41096" d="M1647.047,16.573a6.358,6.358,0,0,1-2.16.351,9.371,9.371,0,0,1-2.924-.455,7.731,7.731,0,0,1-2.5-1.346l-.815.891a8.484,8.484,0,0,0,2.792,1.441,11.564,11.564,0,0,0,3.484.512,7.592,7.592,0,0,0,2.843-.5,4.528,4.528,0,0,0,1.946-1.393,3.246,3.246,0,0,0,.693-2.048,3.032,3.032,0,0,0-1.019-2.322,5.93,5.93,0,0,0-3.016-1.3l-2.955-.55a6,6,0,0,1-2.394-.863,1.688,1.688,0,0,1-.764-1.413,1.916,1.916,0,0,1,.581-1.375,3.931,3.931,0,0,1,1.589-.939,6.935,6.935,0,0,1,2.231-.341,8.488,8.488,0,0,1,2.384.351,6.247,6.247,0,0,1,2.221,1.185l.754-.834a7.836,7.836,0,0,0-5.339-1.725,8.4,8.4,0,0,0-2.873.465,4.829,4.829,0,0,0-2.027,1.308,2.876,2.876,0,0,0-.744,1.962q0,2.559,3.851,3.261l3.036.55q3.26.588,3.26,2.635a2.169,2.169,0,0,1-.581,1.5,3.754,3.754,0,0,1-1.559,1" transform="translate(-1511.513 -3.596)" fill="#fff"/>
        <path id="Trazado_41097" data-name="Trazado 41097" d="M1809.959,6.832l-6.378,13.651h1.284l1.854-4.038h7.927l1.834,4.038h1.325l-6.358-13.651Zm-2.771,8.608,3.525-7.622,3.464,7.622Z" transform="translate(-1663.646 -6.302)" fill="#fff"/>
        <path id="Trazado_41098" data-name="Trazado 41098" d="M2014.622,14.3h5.318l4.585,6.181h1.447l-4.687-6.2a4.523,4.523,0,0,0,2.863-1.185,3.384,3.384,0,0,0,1.07-2.531,3.46,3.46,0,0,0-.55-1.915,3.714,3.714,0,0,0-1.559-1.337,5.443,5.443,0,0,0-2.374-.483h-7.315V20.482h1.2Zm0-6.447h5.991a3.7,3.7,0,0,1,2.466.758,2.462,2.462,0,0,1,.9,1.972,2.434,2.434,0,0,1-.9,1.963,3.731,3.731,0,0,1-2.466.749h-5.991Z" transform="translate(-1857.204 -6.301)" fill="#fff"/>
        <rect id="Rectángulo_20868" data-name="Rectángulo 20868" width="1.223" height="13.651" transform="translate(171.07 0.53)" fill="#fff"/>
        <path id="Trazado_41099" data-name="Trazado 41099" d="M2257.135,16.888a8.821,8.821,0,0,0,7.8,0,6.786,6.786,0,0,0,3.678-6.162,6.786,6.786,0,0,0-3.678-6.162,8.82,8.82,0,0,0-7.8,0,6.787,6.787,0,0,0-3.678,6.162,6.787,6.787,0,0,0,3.678,6.162m-1.6-9.262a5.741,5.741,0,0,1,2.252-2.152,7.182,7.182,0,0,1,6.5,0,5.742,5.742,0,0,1,2.252,2.152,5.967,5.967,0,0,1,.815,3.1,5.964,5.964,0,0,1-.815,3.1,5.738,5.738,0,0,1-2.252,2.152,7.182,7.182,0,0,1-6.5,0,5.737,5.737,0,0,1-2.252-2.152,5.962,5.962,0,0,1-.815-3.1,5.965,5.965,0,0,1,.815-3.1" transform="translate(-2078.617 -3.37)" fill="#fff"/>
      </g>
    </g>
  </g>
</svg>
