<svg id="logo-sselecto-rd" xmlns="http://www.w3.org/2000/svg" xmlns:xlink="http://www.w3.org/1999/xlink" width="219.924" height="160" viewBox="0 0 219.924 160">
  <defs>
    <clipPath id="clip-path">
      <rect id="Rectángulo_22334" data-name="Rectángulo 22334" width="219.924" height="160" fill="none"/>
    </clipPath>
  </defs>
  <g id="Grupo_19398" data-name="Grupo 19398" clip-path="url(#clip-path)">
    <path id="Trazado_42430" data-name="Trazado 42430" d="M180.532,50.047a23.962,23.962,0,0,0-6.018-6.969,37.149,37.149,0,0,0-8.237-4.832q-4.594-1.977-9.029-3.406-3.479-1.1-6.571-2.216a50.675,50.675,0,0,1-5.464-2.3,15.873,15.873,0,0,1-3.8-2.534,4.141,4.141,0,0,1-1.424-3.088v-.317a5.05,5.05,0,0,1,2.218-4.2q2.218-1.663,6.651-1.663a32.274,32.274,0,0,1,10.61,2.139,75.943,75.943,0,0,1,12.355,5.78l9.185-16.63a60.759,60.759,0,0,0-15.284-7.206A54.447,54.447,0,0,0,149.331,0a40.728,40.728,0,0,0-12.116,1.743A28.3,28.3,0,0,0,127.4,6.969a25.486,25.486,0,0,0-6.651,8.472,22.915,22.915,0,0,0-1.891,5.618,53.423,53.423,0,0,0-13.882-1.89,40.762,40.762,0,0,0-12.119,1.743,28.306,28.306,0,0,0-9.819,5.225,24.965,24.965,0,0,0-9.107,19.957v.317a21.826,21.826,0,0,0,2.3,10.451,23.175,23.175,0,0,0,5.937,7.205,31.989,31.989,0,0,0,8.157,4.752,89.468,89.468,0,0,0,8.948,3.09q3.479,1.11,6.652,2.057a57.881,57.881,0,0,1,5.623,1.981,12.039,12.039,0,0,1,3.881,2.455,4.559,4.559,0,0,1,1.424,3.328v.315a5.379,5.379,0,0,1-2.454,4.593q-2.458,1.747-7.681,1.744a37.5,37.5,0,0,1-12.909-2.534,57.174,57.174,0,0,1-13.857-7.607L69.658,94.081a59.455,59.455,0,0,0,36.426,12.829,47.2,47.2,0,0,0,12.748-1.662,31.1,31.1,0,0,0,10.374-4.991,22.548,22.548,0,0,0,6.888-8.473,23.931,23.931,0,0,0,1.809-5.5,56.562,56.562,0,0,0,12.538,1.456,47.108,47.108,0,0,0,12.748-1.663,31.017,31.017,0,0,0,10.374-4.988,22.553,22.553,0,0,0,6.889-8.475,28.255,28.255,0,0,0,2.454-12.273v-.317a19.665,19.665,0,0,0-2.374-9.976" transform="translate(-16.32)" fill="#f40000"/>
    <path id="Trazado_42431" data-name="Trazado 42431" d="M165.336,75.863c1.206-3.082,2.032-6.629,1.829-7.866-.325-2.079-4.364-3.086-6.051-3.217a19.445,19.445,0,0,1-7.059-1.548c-4.041-1.582-11.372-5.933-11.83-6.177-.767-.417-1.489-.932-1.854-.57-.2-.684-10.335-4.167-11.079-3.408.175-.456-1-.717-1.814-.925-1.472-.392-5.273-.47-9.3-.84a48.475,48.475,0,0,1-6.4-.867,40.734,40.734,0,0,1-4.792-1.671,1.145,1.145,0,0,0-.808-.784,14.762,14.762,0,0,0-2.225-.128.784.784,0,0,1-.528-.468,1.017,1.017,0,0,0-.931-.513c-.474-.036-.784.415-.959.667a19.872,19.872,0,0,0-1.338,2.825,20.266,20.266,0,0,0-.939,2.965c-.041.318-.117.856.251,1.151a1.015,1.015,0,0,0,1.038.256.8.8,0,0,1,.706,0,17.537,17.537,0,0,0,1.715,1.438,1.174,1.174,0,0,0,1.127-.035,38.814,38.814,0,0,1,4.662,2.017,47.671,47.671,0,0,1,5.283,3.724c3.207,2.444,6.059,4.973,7.4,5.692.734.4,1.777,1,1.964.538.026,1.073,9.829,5.393,10.437,5.035.025.5.906.619,1.758.831.5.14,8.834,1.919,12.872,3.5a19.8,19.8,0,0,1,6.238,3.646c1.323,1.064,4.976,3.07,6.622,1.769,1-.784,2.8-3.952,4.005-7.038" transform="translate(-23.247 -10.983)" fill="#fff"/>
    <text id="República_Dominicana" data-name="República Dominicana" transform="translate(33.336 157.628)" font-size="7" font-family="TCCC-UnityHeadline-Bold, TCCC-UnityHeadline" font-weight="700"><tspan x="0" y="0" letter-spacing="0.379em">R</tspan><tspan y="0" letter-spacing="0.397em">e</tspan><tspan y="0" letter-spacing="0.4em">p</tspan><tspan y="0" letter-spacing="0.399em">ú</tspan><tspan y="0" letter-spacing="0.397em">b</tspan><tspan y="0" letter-spacing="0.4em">lica</tspan><tspan y="0" letter-spacing="0.399em"> </tspan><tspan y="0" letter-spacing="0.4em">D</tspan><tspan y="0" letter-spacing="0.399em">om</tspan><tspan y="0" letter-spacing="0.4em">i</tspan><tspan y="0" letter-spacing="0.399em">ni</tspan><tspan y="0" letter-spacing="0.4em">c</tspan><tspan y="0" letter-spacing="0.399em">an</tspan><tspan y="0">a</tspan></text>
    <path id="Trazado_42432" data-name="Trazado 42432" d="M4.525,178.593A13.748,13.748,0,0,1,0,176.258l1.321-1.444a12.533,12.533,0,0,0,4.046,2.182,15.194,15.194,0,0,0,4.739.737,10.308,10.308,0,0,0,3.5-.568,6.084,6.084,0,0,0,2.527-1.613,3.517,3.517,0,0,0,.941-2.428q0-3.318-5.284-4.271l-4.921-.891Q.628,166.823.627,162.675a4.657,4.657,0,0,1,1.206-3.181,7.827,7.827,0,0,1,3.286-2.12,13.606,13.606,0,0,1,4.657-.753q5.449,0,8.652,2.8l-1.221,1.352a10.134,10.134,0,0,0-3.6-1.921,13.773,13.773,0,0,0-3.864-.568,11.221,11.221,0,0,0-3.616.553,6.376,6.376,0,0,0-2.577,1.521,3.1,3.1,0,0,0-.941,2.227,2.733,2.733,0,0,0,1.239,2.289,9.719,9.719,0,0,0,3.881,1.4l4.789.891a9.621,9.621,0,0,1,4.888,2.1,4.917,4.917,0,0,1,1.651,3.765,5.256,5.256,0,0,1-1.123,3.319,7.33,7.33,0,0,1-3.153,2.259,12.3,12.3,0,0,1-4.608.815,18.731,18.731,0,0,1-5.647-.83" transform="translate(0 -36.695)"/>
    <path id="Trazado_42433" data-name="Trazado 42433" d="M37.276,181.179a10.031,10.031,0,0,1-4.822-1.152,8.672,8.672,0,0,1-3.369-3.15,8.622,8.622,0,0,1,0-8.85,8.661,8.661,0,0,1,3.369-3.15,10.663,10.663,0,0,1,9.643,0,8.667,8.667,0,0,1,3.369,3.15,8.622,8.622,0,0,1,0,8.85,8.678,8.678,0,0,1-3.369,3.15,10.033,10.033,0,0,1-4.822,1.152m0-15.8a7.806,7.806,0,0,0-3.782.922,6.988,6.988,0,0,0-2.691,2.551,7.019,7.019,0,0,0,0,7.191,6.99,6.99,0,0,0,2.691,2.551,8.218,8.218,0,0,0,7.564,0,7,7,0,0,0,2.691-2.551,7.019,7.019,0,0,0,0-7.191,6.993,6.993,0,0,0-2.691-2.551,7.806,7.806,0,0,0-3.782-.922" transform="translate(-6.528 -38.359)"/>
    <path id="Trazado_42434" data-name="Trazado 42434" d="M59.749,180.058a8.566,8.566,0,0,1-3.5-3.1,8.625,8.625,0,0,1,.017-8.989,8.616,8.616,0,0,1,3.534-3.119,11.248,11.248,0,0,1,5.069-1.122,9.211,9.211,0,0,1,6.375,2.212l-1.222,1.322a7.372,7.372,0,0,0-2.394-1.4,8.47,8.47,0,0,0-2.857-.476,8.65,8.65,0,0,0-3.946.907,7.1,7.1,0,0,0-2.841,2.52,6.922,6.922,0,0,0,0,7.3,7.143,7.143,0,0,0,2.841,2.505,8.721,8.721,0,0,0,3.979.907,9.518,9.518,0,0,0,3.071-.492,5.386,5.386,0,0,0,2.279-1.384l1.289,1.23a6.618,6.618,0,0,1-2.775,1.705,11.752,11.752,0,0,1-3.831.6,11.232,11.232,0,0,1-5.086-1.122" transform="translate(-12.884 -38.359)"/>
    <path id="Trazado_42435" data-name="Trazado 42435" d="M82.151,157.15a1.342,1.342,0,0,1,0,1.905,1.6,1.6,0,0,1-2.048,0,1.342,1.342,0,0,1,0-1.905,1.6,1.6,0,0,1,2.048,0M80.169,162.5h1.915v16.656H80.169Z" transform="translate(-18.675 -36.733)"/>
    <path id="Trazado_42436" data-name="Trazado 42436" d="M96.84,181.179a10.031,10.031,0,0,1-4.822-1.152,8.672,8.672,0,0,1-3.369-3.15,8.622,8.622,0,0,1,0-8.85,8.661,8.661,0,0,1,3.369-3.15,10.663,10.663,0,0,1,9.643,0,8.667,8.667,0,0,1,3.369,3.15,8.622,8.622,0,0,1,0,8.85,8.678,8.678,0,0,1-3.369,3.15,10.033,10.033,0,0,1-4.822,1.152m0-15.8a7.8,7.8,0,0,0-3.782.922,6.987,6.987,0,0,0-2.691,2.551,7.019,7.019,0,0,0,0,7.191,6.989,6.989,0,0,0,2.691,2.551,8.218,8.218,0,0,0,7.564,0,7,7,0,0,0,2.691-2.551,7.019,7.019,0,0,0,0-7.191,6.993,6.993,0,0,0-2.691-2.551,7.808,7.808,0,0,0-3.782-.922" transform="translate(-20.483 -38.359)"/>
    <path id="Trazado_42437" data-name="Trazado 42437" d="M120.317,178.486a13.132,13.132,0,0,1-4.937-2.566l3.633-4.149a11.977,11.977,0,0,0,7.894,2.735,6.558,6.558,0,0,0,3.088-.6q1.106-.6,1.106-1.459,0-1.352-2.312-1.659l-5.087-.738q-7.4-1.106-7.4-6.422a5.888,5.888,0,0,1,1.222-3.7,7.725,7.725,0,0,1,3.584-2.443,16.7,16.7,0,0,1,5.7-.861,20.936,20.936,0,0,1,5.714.783,12.543,12.543,0,0,1,4.689,2.382l-3.435,4.087a12.973,12.973,0,0,0-3.286-1.751,10.68,10.68,0,0,0-3.551-.584,7.973,7.973,0,0,0-3.121.508q-1.173.506-1.172,1.214,0,1.137,2.047,1.444l5.747.861a9.412,9.412,0,0,1,5.334,2.213,5.641,5.641,0,0,1,1.734,4.21,6.3,6.3,0,0,1-1.271,3.918,8.129,8.129,0,0,1-3.666,2.6,15.845,15.845,0,0,1-5.7.922,22.431,22.431,0,0,1-6.556-.937" transform="translate(-27.033 -36.695)"/>
    <path id="Trazado_42438" data-name="Trazado 42438" d="M166.041,173.72H151.708a3.983,3.983,0,0,0,1.882,2.09,7.054,7.054,0,0,0,3.4.737,7.715,7.715,0,0,0,2.511-.384,10.073,10.073,0,0,0,2.443-1.306l3.005,3.472a9.163,9.163,0,0,1-3.253,1.905,13.976,13.976,0,0,1-4.772.737,13.451,13.451,0,0,1-5.912-1.2,8.85,8.85,0,0,1-3.765-3.257,8.461,8.461,0,0,1-1.288-4.579,8.732,8.732,0,0,1,4.756-7.852,11.257,11.257,0,0,1,5.417-1.245,11.062,11.062,0,0,1,5.383,1.245A8.7,8.7,0,0,1,165,167.451a9.288,9.288,0,0,1,1.205,4.671,7.036,7.036,0,0,1-.165,1.6m-12.731-5.639a3.8,3.8,0,0,0-1.635,2.044h8.851a3.718,3.718,0,0,0-1.552-2.044,5.1,5.1,0,0,0-2.807-.722,5.352,5.352,0,0,0-2.857.722" transform="translate(-34.198 -38.152)"/>
    <path id="Trazado_42439" data-name="Trazado 42439" d="M181.04,155.818v17.24a1.089,1.089,0,0,0,.43.953,1.942,1.942,0,0,0,1.156.308,4.7,4.7,0,0,0,1.453-.247v4.61a8.508,8.508,0,0,1-3.038.492,6.258,6.258,0,0,1-4.293-1.4,4.915,4.915,0,0,1-1.586-3.887v-18.07Z" transform="translate(-41.039 -36.507)"/>
    <path id="Trazado_42440" data-name="Trazado 42440" d="M207.188,173.72H192.855a3.983,3.983,0,0,0,1.882,2.09,7.054,7.054,0,0,0,3.4.737,7.715,7.715,0,0,0,2.511-.384,10.073,10.073,0,0,0,2.443-1.306l3.005,3.472a9.163,9.163,0,0,1-3.253,1.905,13.976,13.976,0,0,1-4.772.737,13.451,13.451,0,0,1-5.912-1.2,8.85,8.85,0,0,1-3.765-3.257,8.461,8.461,0,0,1-1.288-4.579,8.732,8.732,0,0,1,4.756-7.852,11.257,11.257,0,0,1,5.417-1.245,11.062,11.062,0,0,1,5.383,1.245,8.7,8.7,0,0,1,3.485,3.365,9.289,9.289,0,0,1,1.205,4.671,7.037,7.037,0,0,1-.165,1.6m-12.731-5.639a3.8,3.8,0,0,0-1.635,2.044h8.851a3.718,3.718,0,0,0-1.552-2.044,5.1,5.1,0,0,0-2.807-.722,5.352,5.352,0,0,0-2.857.722" transform="translate(-43.838 -38.152)"/>
    <path id="Trazado_42441" data-name="Trazado 42441" d="M219.921,179.774a8.892,8.892,0,0,1-3.748-3.242,8.621,8.621,0,0,1,.066-9.173,9.346,9.346,0,0,1,3.815-3.3,13.865,13.865,0,0,1,10.271-.43,9.21,9.21,0,0,1,3.22,2.013l-3.4,3.871a6.893,6.893,0,0,0-2.015-1.306,6.124,6.124,0,0,0-4.772.015,4.35,4.35,0,0,0-1.833,1.444,3.975,3.975,0,0,0,0,4.487,4.35,4.35,0,0,0,1.833,1.444,6.143,6.143,0,0,0,2.46.492,7.277,7.277,0,0,0,2.361-.4,5.678,5.678,0,0,0,2.064-1.229l3.368,3.842a9.353,9.353,0,0,1-3.22,1.936,14.861,14.861,0,0,1-10.47-.461" transform="translate(-50.346 -38.152)"/>
    <path id="Trazado_42442" data-name="Trazado 42442" d="M254.347,173.824v4.763a9.721,9.721,0,0,1-3.6.583q-3.9,0-5.846-1.751a6.311,6.311,0,0,1-1.949-4.948v-6.3h-3.137v-4.548h3.2v-3.135l5.813-2.551v5.686h5.351v4.548h-5.351v5.869q0,2.213,2.873,2.213a8.912,8.912,0,0,0,2.642-.43" transform="translate(-56.187 -36.535)"/>
    <path id="Trazado_42443" data-name="Trazado 42443" d="M264.7,179.759a9.163,9.163,0,0,1-3.7-3.273,8.687,8.687,0,0,1,0-9.158,9.168,9.168,0,0,1,3.7-3.273,13.206,13.206,0,0,1,11.064,0,9.173,9.173,0,0,1,3.7,3.273,8.687,8.687,0,0,1,0,9.158,9.168,9.168,0,0,1-3.7,3.273,13.214,13.214,0,0,1-11.064,0m8.8-4.855a4.059,4.059,0,0,0,0-5.992,5.214,5.214,0,0,0-6.539,0,4.057,4.057,0,0,0,0,5.992,5.214,5.214,0,0,0,6.539,0" transform="translate(-60.845 -38.152)"/>
  </g>
</svg>
