<svg id="back-desktop" xmlns="http://www.w3.org/2000/svg" xmlns:xlink="http://www.w3.org/1999/xlink" width="1366" height="768" viewBox="0 0 1366 768">
  <defs>
    <clipPath id="clip-path">
      <rect id="Rectángulo_23304" data-name="Rectángulo 23304" width="1366" height="768" fill="#fff"/>
    </clipPath>
    <clipPath id="clip-path-2">
      <rect id="Rectángulo_22979" data-name="Rectángulo 22979" width="1366" height="235.8" fill="none"/>
    </clipPath>
    <clipPath id="clip-path-3">
      <rect id="Rectángulo_22840" data-name="Rectángulo 22840" width="1366" height="46" transform="translate(0 -0.149)" fill="none"/>
    </clipPath>
    <clipPath id="clip-path-4">
      <rect id="Rectángulo_22839" data-name="Rectángulo 22839" width="348.565" height="235.517" fill="none"/>
    </clipPath>
    <clipPath id="clip-path-5">
      <rect id="Rectángulo_22838" data-name="Rectángulo 22838" width="348.566" height="235.517" fill="none"/>
    </clipPath>
  </defs>
  <g id="Enmascarar_grupo_13" data-name="Enmascarar grupo 13" clip-path="url(#clip-path)">
    <g id="Grupo_19790" data-name="Grupo 19790">
      <g id="Grupo_19547" data-name="Grupo 19547" transform="translate(193.541 51.633)">
        <g id="Grupo_19546" data-name="Grupo 19546" transform="translate(-0.001 -0.001)">
          <path id="Trazado_42443" data-name="Trazado 42443" d="M476.338,0c-211.8,0-383.5,171.7-383.5,383.5S264.536,767,476.338,767s383.5-171.7,383.5-383.5S688.139,0,476.338,0m0,661.373" transform="translate(18.648 0.003)" fill="#f40000"/>
          <path id="Trazado_42446" data-name="Trazado 42446" d="M839.6,215.084q0,98.455.005,196.909c0,1.907.026,3.817.11,5.721.3,6.767-2.323,11.975-7.519,15.528-3.381,2.312-4.628,5.246-4.467,9.535.79,21.184,1.4,42.375,2.043,63.564q1.415,46.259,2.8,92.517,1.273,41.64,2.584,83.278c.691,22.572,1.472,45.142,1.979,67.719.338,15.1-8.187,27.844-20.455,31.307-17.792,5.023-34.746-9.641-34.53-30.272.176-16.749.891-33.492,1.4-50.236q1.161-38.146,2.367-76.289,1.45-47.687,2.864-95.374,1.288-41.642,2.687-83.279c.164-5.026-.908-7.173-4.894-9.044-13.159-6.179-19.5-17.615-20.955-32.427-2.441-24.931-2.189-49.984-1.638-74.98.832-37.724,1.979-75.452,3.786-113.134,1.086-22.624,3.281-45.213,5.69-67.729,3.568-33.347,8.228-66.524,17.566-98.7,3.8-13.075,8.271-25.864,15.959-36.974,4.38-6.329,9.6-11.612,17.324-12.616A16.033,16.033,0,0,1,830.129.5c4.8,1.192,7.049,4.119,7.136,9.433q.412,25.122.619,50.247.428,61.394.734,122.787c.058,10.7.009,21.41.009,32.116h.975" transform="translate(153.414 0.001)" fill="#f2f4f5"/>
          <path id="Trazado_42447" data-name="Trazado 42447" d="M36.361,515.024Q38.382,447.01,40.4,379q1.45-48.464,2.966-96.925a11.764,11.764,0,0,0-3.573-9.12c-8.6-8.881-17.062-17.9-25.544-26.889A49.63,49.63,0,0,1,.116,210.621c.085-18.649-.495-37.327.348-55.942,1.328-29.313,3.414-58.6,5.543-87.869C7.506,46.217,9.624,25.668,11.415,5.1c.178-2.045.915-3.052,3.138-3.055,9.635-.017,7.808-.826,8.03,7.3q1.747,64.209,3.333,128.424c.141,5.51.133,11.024.331,16.532.154,4.286,2.338,6.747,5.684,6.731,3.635-.019,5.961-2.788,6.066-7.166Q39.674,83.133,41.37,12.4c.077-3.176.416-6.35.413-9.526,0-2.079.839-2.9,2.871-2.764A14.646,14.646,0,0,0,47.23.057c2.536-.287,3.263.783,3.3,3.268q1.079,66.292,2.323,132.581.153,8.585.285,17.169c.079,4.793,2.392,7.731,6.137,7.8,3.64.066,6.3-3.03,6.38-7.607q.807-46.9,1.57-93.792c.316-18.651.709-37.3.937-55.955.031-2.6.794-3.77,3.477-3.478A11.4,11.4,0,0,0,73.9.051c2.372-.215,3.116.8,3.156,3.142.2,11.763.569,23.523.869,35.285q1.455,56.9,2.909,113.793a24.674,24.674,0,0,0,.251,3.8A5.814,5.814,0,0,0,87.214,161a5.657,5.657,0,0,0,5.193-5.537c.226-5.188.291-10.383.423-15.576Q94.136,88.39,95.454,36.9c.286-10.913.755-21.82.986-32.734.055-2.632.987-3.246,3.515-2.9,7.276,1.009,7.221.934,7.838,8.415q2.92,35.314,5.932,70.622c3.172,37.185,5.313,74.42,5.344,111.748.006,8.151-.608,16.3-.915,24.455-.426,11.283-5.581,20.558-12.965,28.706q-12.235,13.5-25.036,26.5c-3.317,3.354-4.963,6.777-4.8,11.523q1.857,54.979,3.424,109.968,2.2,73.263,4.351,146.526,2.032,68.014,4.1,136.027c.694,23.1,1.28,46.2,2.1,69.29.372,10.5-1.9,20.1-9.347,27.86-14.312,14.908-37.091,11.288-46.441-7.193A40.412,40.412,0,0,1,29.2,745.759Q31,691.9,32.69,638.031c.835-27.229,1.518-54.462,2.3-81.692.4-13.773.867-27.545,1.3-41.317l.066,0" transform="translate(0 0.001)" fill="#f2f4f5"/>
        </g>
      </g>
      <g id="Grupo_19537" data-name="Grupo 19537" transform="translate(0 719.873)">
        <g id="Grupo_19536" data-name="Grupo 19536" clip-path="url(#clip-path-2)">
          <rect id="Rectángulo_22795" data-name="Rectángulo 22795" width="9.421" height="46.777" transform="translate(1356.579 0.179)" fill="red"/>
          <rect id="Rectángulo_22796" data-name="Rectángulo 22796" width="9.421" height="46.777" transform="translate(1337.738 0.179)" fill="red"/>
          <rect id="Rectángulo_22797" data-name="Rectángulo 22797" width="9.42" height="46.777" transform="translate(1318.896 0.179)" fill="red"/>
          <rect id="Rectángulo_22798" data-name="Rectángulo 22798" width="9.42" height="46.777" transform="translate(1300.056 0.179)" fill="red"/>
          <rect id="Rectángulo_22799" data-name="Rectángulo 22799" width="9.421" height="46.777" transform="translate(1281.213 0.179)" fill="red"/>
          <rect id="Rectángulo_22800" data-name="Rectángulo 22800" width="9.422" height="46.777" transform="translate(1262.373 0.179)" fill="red"/>
          <rect id="Rectángulo_22801" data-name="Rectángulo 22801" width="9.42" height="46.777" transform="translate(1243.531 0.179)" fill="red"/>
          <rect id="Rectángulo_22802" data-name="Rectángulo 22802" width="9.422" height="46.777" transform="translate(1224.689 0.179)" fill="red"/>
          <rect id="Rectángulo_22803" data-name="Rectángulo 22803" width="9.421" height="46.777" transform="translate(1205.848 0.179)" fill="red"/>
          <rect id="Rectángulo_22804" data-name="Rectángulo 22804" width="9.421" height="46.777" transform="translate(1187.007 0.179)" fill="red"/>
          <rect id="Rectángulo_22805" data-name="Rectángulo 22805" width="9.421" height="46.777" transform="translate(1168.165 0.179)" fill="red"/>
          <rect id="Rectángulo_22806" data-name="Rectángulo 22806" width="9.422" height="46.777" transform="translate(1149.324 0.179)" fill="red"/>
          <rect id="Rectángulo_22807" data-name="Rectángulo 22807" width="9.421" height="46.777" transform="translate(1130.482 0.179)" fill="red"/>
          <rect id="Rectángulo_22808" data-name="Rectángulo 22808" width="9.42" height="46.777" transform="translate(1111.641 0.179)" fill="red"/>
          <rect id="Rectángulo_22809" data-name="Rectángulo 22809" width="9.421" height="46.777" transform="translate(1092.799 0.179)" fill="red"/>
          <rect id="Rectángulo_22810" data-name="Rectángulo 22810" width="9.421" height="46.777" transform="translate(1073.958 0.179)" fill="red"/>
          <rect id="Rectángulo_22811" data-name="Rectángulo 22811" width="9.42" height="46.777" transform="translate(1055.117 0.179)" fill="red"/>
          <rect id="Rectángulo_22812" data-name="Rectángulo 22812" width="9.421" height="46.777" transform="translate(1036.275 0.179)" fill="red"/>
          <rect id="Rectángulo_22813" data-name="Rectángulo 22813" width="9.422" height="46.777" transform="translate(1017.434 0.179)" fill="red"/>
          <rect id="Rectángulo_22814" data-name="Rectángulo 22814" width="9.42" height="46.777" transform="translate(1347.158 0.179)" fill="#fff"/>
          <rect id="Rectángulo_22815" data-name="Rectángulo 22815" width="9.422" height="46.777" transform="translate(1328.317 0.179)" fill="#fff"/>
          <rect id="Rectángulo_22816" data-name="Rectángulo 22816" width="9.421" height="46.777" transform="translate(1309.475 0.179)" fill="#fff"/>
          <rect id="Rectángulo_22817" data-name="Rectángulo 22817" width="9.422" height="46.777" transform="translate(1290.635 0.179)" fill="#fff"/>
          <rect id="Rectángulo_22818" data-name="Rectángulo 22818" width="9.42" height="46.777" transform="translate(1271.793 0.179)" fill="#fff"/>
          <rect id="Rectángulo_22819" data-name="Rectángulo 22819" width="9.421" height="46.777" transform="translate(1252.952 0.179)" fill="#fff"/>
          <rect id="Rectángulo_22820" data-name="Rectángulo 22820" width="9.421" height="46.777" transform="translate(1234.11 0.179)" fill="#fff"/>
          <rect id="Rectángulo_22821" data-name="Rectángulo 22821" width="9.42" height="46.777" transform="translate(1215.269 0.179)" fill="#fff"/>
          <rect id="Rectángulo_22822" data-name="Rectángulo 22822" width="9.422" height="46.777" transform="translate(1196.427 0.179)" fill="#fff"/>
          <rect id="Rectángulo_22823" data-name="Rectángulo 22823" width="9.421" height="46.777" transform="translate(1177.586 0.179)" fill="#fff"/>
          <rect id="Rectángulo_22824" data-name="Rectángulo 22824" width="9.42" height="46.777" transform="translate(1158.745 0.179)" fill="#fff"/>
          <rect id="Rectángulo_22825" data-name="Rectángulo 22825" width="9.42" height="46.777" transform="translate(1139.904 0.179)" fill="#fff"/>
          <rect id="Rectángulo_22826" data-name="Rectángulo 22826" width="9.422" height="46.777" transform="translate(1121.062 0.179)" fill="#fff"/>
          <rect id="Rectángulo_22827" data-name="Rectángulo 22827" width="9.421" height="46.777" transform="translate(1102.22 0.179)" fill="#fff"/>
          <rect id="Rectángulo_22828" data-name="Rectángulo 22828" width="9.421" height="46.777" transform="translate(1083.38 0.179)" fill="#fff"/>
          <rect id="Rectángulo_22829" data-name="Rectángulo 22829" width="9.421" height="46.777" transform="translate(1064.537 0.179)" fill="#fff"/>
          <rect id="Rectángulo_22830" data-name="Rectángulo 22830" width="9.422" height="46.777" transform="translate(1045.696 0.179)" fill="#fff"/>
          <rect id="Rectángulo_22831" data-name="Rectángulo 22831" width="9.42" height="46.777" transform="translate(1026.855 0.179)" fill="#fff"/>
          <g id="Grupo_19505" data-name="Grupo 19505" transform="translate(0 0.517)">
            <g id="Grupo_19504" data-name="Grupo 19504" clip-path="url(#clip-path-3)">
              <g id="Grupo_19503" data-name="Grupo 19503" transform="translate(1017.435 -0.517)" opacity="0.5">
                <g id="Grupo_19502" data-name="Grupo 19502">
                  <g id="Grupo_19501" data-name="Grupo 19501" clip-path="url(#clip-path-4)">
                    <rect id="Rectángulo_22832" data-name="Rectángulo 22832" width="348.565" height="9.42" transform="translate(-0.001 28.263)" fill="#fff"/>
                    <rect id="Rectángulo_22833" data-name="Rectángulo 22833" width="348.565" height="9.42" transform="translate(-0.001 9.421)" fill="#fff"/>
                    <g id="Grupo_19500" data-name="Grupo 19500" transform="translate(-0.001)">
                      <g id="Grupo_19499" data-name="Grupo 19499" clip-path="url(#clip-path-5)">
                        <g id="Grupo_19498" data-name="Grupo 19498" transform="translate(0.001)" opacity="0.7">
                          <g id="Grupo_19497" data-name="Grupo 19497">
                            <g id="Grupo_19496" data-name="Grupo 19496" clip-path="url(#clip-path-4)">
                              <rect id="Rectángulo_22834" data-name="Rectángulo 22834" width="348.565" height="9.421" transform="translate(-0.001 37.682)" fill="red"/>
                              <rect id="Rectángulo_22835" data-name="Rectángulo 22835" width="348.565" height="9.42" transform="translate(-0.001 18.842)" fill="red"/>
                              <rect id="Rectángulo_22836" data-name="Rectángulo 22836" width="348.565" height="9.42" transform="translate(-0.001)" fill="red"/>
                            </g>
                          </g>
                        </g>
                      </g>
                    </g>
                  </g>
                </g>
              </g>
            </g>
          </g>
          <rect id="Rectángulo_22841" data-name="Rectángulo 22841" width="9.422" height="46.777" transform="translate(1017.434 0.179)" fill="red"/>
          <rect id="Rectángulo_22842" data-name="Rectángulo 22842" width="9.421" height="46.777" transform="translate(998.593 0.179)" fill="red"/>
          <rect id="Rectángulo_22843" data-name="Rectángulo 22843" width="9.42" height="46.777" transform="translate(979.752 0.179)" fill="red"/>
          <rect id="Rectángulo_22844" data-name="Rectángulo 22844" width="9.421" height="46.777" transform="translate(960.91 0.179)" fill="red"/>
          <rect id="Rectángulo_22845" data-name="Rectángulo 22845" width="9.422" height="46.777" transform="translate(942.069 0.179)" fill="red"/>
          <rect id="Rectángulo_22846" data-name="Rectángulo 22846" width="9.42" height="46.777" transform="translate(923.227 0.179)" fill="red"/>
          <rect id="Rectángulo_22847" data-name="Rectángulo 22847" width="9.422" height="46.777" transform="translate(904.386 0.179)" fill="red"/>
          <rect id="Rectángulo_22848" data-name="Rectángulo 22848" width="9.421" height="46.777" transform="translate(885.544 0.179)" fill="red"/>
          <rect id="Rectángulo_22849" data-name="Rectángulo 22849" width="9.422" height="46.777" transform="translate(866.704 0.179)" fill="red"/>
          <rect id="Rectángulo_22850" data-name="Rectángulo 22850" width="9.42" height="46.777" transform="translate(847.862 0.179)" fill="red"/>
          <rect id="Rectángulo_22851" data-name="Rectángulo 22851" width="9.422" height="46.777" transform="translate(829.02 0.179)" fill="red"/>
          <rect id="Rectángulo_22852" data-name="Rectángulo 22852" width="9.421" height="46.777" transform="translate(810.179 0.179)" fill="red"/>
          <rect id="Rectángulo_22853" data-name="Rectángulo 22853" width="9.421" height="46.777" transform="translate(791.338 0.179)" fill="red"/>
          <rect id="Rectángulo_22854" data-name="Rectángulo 22854" width="9.421" height="46.777" transform="translate(772.496 0.179)" fill="red"/>
          <rect id="Rectángulo_22855" data-name="Rectángulo 22855" width="9.421" height="46.777" transform="translate(753.655 0.179)" fill="red"/>
          <rect id="Rectángulo_22856" data-name="Rectángulo 22856" width="9.421" height="46.777" transform="translate(734.813 0.179)" fill="red"/>
          <rect id="Rectángulo_22857" data-name="Rectángulo 22857" width="9.42" height="46.777" transform="translate(715.973 0.179)" fill="red"/>
          <rect id="Rectángulo_22858" data-name="Rectángulo 22858" width="9.421" height="46.777" transform="translate(697.131 0.179)" fill="red"/>
          <rect id="Rectángulo_22859" data-name="Rectángulo 22859" width="9.421" height="46.777" transform="translate(678.289 0.179)" fill="red"/>
          <rect id="Rectángulo_22860" data-name="Rectángulo 22860" width="9.421" height="46.777" transform="translate(1008.014 0.179)" fill="#fff"/>
          <rect id="Rectángulo_22861" data-name="Rectángulo 22861" width="9.421" height="46.777" transform="translate(989.172 0.179)" fill="#fff"/>
          <rect id="Rectángulo_22862" data-name="Rectángulo 22862" width="9.422" height="46.777" transform="translate(970.331 0.179)" fill="#fff"/>
          <rect id="Rectángulo_22863" data-name="Rectángulo 22863" width="9.42" height="46.777" transform="translate(951.489 0.179)" fill="#fff"/>
          <rect id="Rectángulo_22864" data-name="Rectángulo 22864" width="9.421" height="46.777" transform="translate(932.648 0.179)" fill="#fff"/>
          <rect id="Rectángulo_22865" data-name="Rectángulo 22865" width="9.421" height="46.777" transform="translate(913.806 0.179)" fill="#fff"/>
          <rect id="Rectángulo_22866" data-name="Rectángulo 22866" width="9.42" height="46.777" transform="translate(894.966 0.179)" fill="#fff"/>
          <rect id="Rectángulo_22867" data-name="Rectángulo 22867" width="9.42" height="46.777" transform="translate(876.124 0.179)" fill="#fff"/>
          <rect id="Rectángulo_22868" data-name="Rectángulo 22868" width="9.421" height="46.777" transform="translate(857.282 0.179)" fill="#fff"/>
          <rect id="Rectángulo_22869" data-name="Rectángulo 22869" width="9.422" height="46.777" transform="translate(838.441 0.179)" fill="#fff"/>
          <rect id="Rectángulo_22870" data-name="Rectángulo 22870" width="9.42" height="46.777" transform="translate(819.6 0.179)" fill="#fff"/>
          <rect id="Rectángulo_22871" data-name="Rectángulo 22871" width="9.422" height="46.777" transform="translate(800.758 0.179)" fill="#fff"/>
          <rect id="Rectángulo_22872" data-name="Rectángulo 22872" width="9.421" height="46.777" transform="translate(781.917 0.179)" fill="#fff"/>
          <rect id="Rectángulo_22873" data-name="Rectángulo 22873" width="9.421" height="46.777" transform="translate(763.076 0.179)" fill="#fff"/>
          <rect id="Rectángulo_22874" data-name="Rectángulo 22874" width="9.42" height="46.777" transform="translate(744.234 0.179)" fill="#fff"/>
          <rect id="Rectángulo_22875" data-name="Rectángulo 22875" width="9.422" height="46.777" transform="translate(725.393 0.179)" fill="#fff"/>
          <rect id="Rectángulo_22876" data-name="Rectángulo 22876" width="9.421" height="46.777" transform="translate(706.551 0.179)" fill="#fff"/>
          <rect id="Rectángulo_22877" data-name="Rectángulo 22877" width="9.421" height="46.777" transform="translate(687.711 0.179)" fill="#fff"/>
          <g id="Grupo_19515" data-name="Grupo 19515" transform="translate(0 0.517)">
            <g id="Grupo_19514" data-name="Grupo 19514" clip-path="url(#clip-path-3)">
              <g id="Grupo_19513" data-name="Grupo 19513" transform="translate(678.289 -0.517)" opacity="0.5">
                <g id="Grupo_19512" data-name="Grupo 19512">
                  <g id="Grupo_19511" data-name="Grupo 19511" clip-path="url(#clip-path-5)">
                    <rect id="Rectángulo_22878" data-name="Rectángulo 22878" width="348.566" height="9.42" transform="translate(0 28.263)" fill="#fff"/>
                    <rect id="Rectángulo_22879" data-name="Rectángulo 22879" width="348.566" height="9.42" transform="translate(0 9.421)" fill="#fff"/>
                    <g id="Grupo_19510" data-name="Grupo 19510">
                      <g id="Grupo_19509" data-name="Grupo 19509" clip-path="url(#clip-path-5)">
                        <g id="Grupo_19508" data-name="Grupo 19508" opacity="0.7">
                          <g id="Grupo_19507" data-name="Grupo 19507">
                            <g id="Grupo_19506" data-name="Grupo 19506" clip-path="url(#clip-path-5)">
                              <rect id="Rectángulo_22880" data-name="Rectángulo 22880" width="348.566" height="9.421" transform="translate(0 37.682)" fill="red"/>
                              <rect id="Rectángulo_22881" data-name="Rectángulo 22881" width="348.566" height="9.42" transform="translate(0 18.842)" fill="red"/>
                              <rect id="Rectángulo_22882" data-name="Rectángulo 22882" width="348.566" height="9.42" fill="red"/>
                            </g>
                          </g>
                        </g>
                      </g>
                    </g>
                  </g>
                </g>
              </g>
            </g>
          </g>
          <rect id="Rectángulo_22887" data-name="Rectángulo 22887" width="9.421" height="46.777" transform="translate(678.289 0.179)" fill="red"/>
          <rect id="Rectángulo_22888" data-name="Rectángulo 22888" width="9.42" height="46.777" transform="translate(659.449 0.179)" fill="red"/>
          <rect id="Rectángulo_22889" data-name="Rectángulo 22889" width="9.421" height="46.777" transform="translate(640.606 0.179)" fill="red"/>
          <rect id="Rectángulo_22890" data-name="Rectángulo 22890" width="9.422" height="46.777" transform="translate(621.766 0.179)" fill="red"/>
          <rect id="Rectángulo_22891" data-name="Rectángulo 22891" width="9.421" height="46.777" transform="translate(602.924 0.179)" fill="red"/>
          <rect id="Rectángulo_22892" data-name="Rectángulo 22892" width="9.421" height="46.777" transform="translate(584.083 0.179)" fill="red"/>
          <rect id="Rectángulo_22893" data-name="Rectángulo 22893" width="9.421" height="46.777" transform="translate(565.241 0.179)" fill="red"/>
          <rect id="Rectángulo_22894" data-name="Rectángulo 22894" width="9.422" height="46.777" transform="translate(546.4 0.179)" fill="red"/>
          <rect id="Rectángulo_22895" data-name="Rectángulo 22895" width="9.42" height="46.777" transform="translate(527.558 0.179)" fill="red"/>
          <rect id="Rectángulo_22896" data-name="Rectángulo 22896" width="9.421" height="46.777" transform="translate(508.718 0.179)" fill="red"/>
          <rect id="Rectángulo_22897" data-name="Rectángulo 22897" width="9.421" height="46.777" transform="translate(489.875 0.179)" fill="red"/>
          <rect id="Rectángulo_22898" data-name="Rectángulo 22898" width="9.421" height="46.777" transform="translate(471.034 0.179)" fill="red"/>
          <rect id="Rectángulo_22899" data-name="Rectángulo 22899" width="9.42" height="46.777" transform="translate(452.193 0.179)" fill="red"/>
          <rect id="Rectángulo_22900" data-name="Rectángulo 22900" width="9.421" height="46.777" transform="translate(433.351 0.179)" fill="red"/>
          <rect id="Rectángulo_22901" data-name="Rectángulo 22901" width="9.421" height="46.777" transform="translate(414.51 0.179)" fill="red"/>
          <rect id="Rectángulo_22902" data-name="Rectángulo 22902" width="9.42" height="46.777" transform="translate(395.669 0.179)" fill="red"/>
          <rect id="Rectángulo_22903" data-name="Rectángulo 22903" width="9.422" height="46.777" transform="translate(376.827 0.179)" fill="red"/>
          <rect id="Rectángulo_22904" data-name="Rectángulo 22904" width="9.421" height="46.777" transform="translate(357.986 0.179)" fill="red"/>
          <rect id="Rectángulo_22905" data-name="Rectángulo 22905" width="9.421" height="46.777" transform="translate(339.145 0.179)" fill="red"/>
          <rect id="Rectángulo_22906" data-name="Rectángulo 22906" width="9.421" height="46.777" transform="translate(668.868 0.179)" fill="#fff"/>
          <rect id="Rectángulo_22907" data-name="Rectángulo 22907" width="9.422" height="46.777" transform="translate(650.027 0.179)" fill="#fff"/>
          <rect id="Rectángulo_22908" data-name="Rectángulo 22908" width="9.42" height="46.777" transform="translate(631.186 0.179)" fill="#fff"/>
          <rect id="Rectángulo_22909" data-name="Rectángulo 22909" width="9.421" height="46.777" transform="translate(612.345 0.179)" fill="#fff"/>
          <rect id="Rectángulo_22910" data-name="Rectángulo 22910" width="9.421" height="46.777" transform="translate(593.503 0.179)" fill="#fff"/>
          <rect id="Rectángulo_22911" data-name="Rectángulo 22911" width="9.421" height="46.777" transform="translate(574.662 0.179)" fill="#fff"/>
          <rect id="Rectángulo_22912" data-name="Rectángulo 22912" width="9.42" height="46.777" transform="translate(555.82 0.179)" fill="#fff"/>
          <rect id="Rectángulo_22913" data-name="Rectángulo 22913" width="9.421" height="46.777" transform="translate(536.979 0.179)" fill="#fff"/>
          <rect id="Rectángulo_22914" data-name="Rectángulo 22914" width="9.422" height="46.777" transform="translate(518.137 0.179)" fill="#fff"/>
          <rect id="Rectángulo_22915" data-name="Rectángulo 22915" width="9.421" height="46.777" transform="translate(499.297 0.179)" fill="#fff"/>
          <rect id="Rectángulo_22916" data-name="Rectángulo 22916" width="9.422" height="46.777" transform="translate(480.455 0.179)" fill="#fff"/>
          <rect id="Rectángulo_22917" data-name="Rectángulo 22917" width="9.421" height="46.777" transform="translate(461.613 0.179)" fill="#fff"/>
          <rect id="Rectángulo_22918" data-name="Rectángulo 22918" width="9.421" height="46.777" transform="translate(442.773 0.179)" fill="#fff"/>
          <rect id="Rectángulo_22919" data-name="Rectángulo 22919" width="9.42" height="46.777" transform="translate(423.931 0.179)" fill="#fff"/>
          <rect id="Rectángulo_22920" data-name="Rectángulo 22920" width="9.422" height="46.777" transform="translate(405.089 0.179)" fill="#fff"/>
          <rect id="Rectángulo_22921" data-name="Rectángulo 22921" width="9.421" height="46.777" transform="translate(386.248 0.179)" fill="#fff"/>
          <rect id="Rectángulo_22922" data-name="Rectángulo 22922" width="9.421" height="46.777" transform="translate(367.407 0.179)" fill="#fff"/>
          <rect id="Rectángulo_22923" data-name="Rectángulo 22923" width="9.42" height="46.777" transform="translate(348.565 0.179)" fill="#fff"/>
          <g id="Grupo_19525" data-name="Grupo 19525" transform="translate(0 0.517)">
            <g id="Grupo_19524" data-name="Grupo 19524" clip-path="url(#clip-path-3)">
              <g id="Grupo_19523" data-name="Grupo 19523" transform="translate(339.145 -0.517)" opacity="0.5">
                <g id="Grupo_19522" data-name="Grupo 19522">
                  <g id="Grupo_19521" data-name="Grupo 19521" clip-path="url(#clip-path-4)">
                    <rect id="Rectángulo_22924" data-name="Rectángulo 22924" width="348.565" height="9.42" transform="translate(0 28.263)" fill="#fff"/>
                    <rect id="Rectángulo_22925" data-name="Rectángulo 22925" width="348.565" height="9.42" transform="translate(0 9.421)" fill="#fff"/>
                    <g id="Grupo_19520" data-name="Grupo 19520" transform="translate(0)">
                      <g id="Grupo_19519" data-name="Grupo 19519" clip-path="url(#clip-path-4)">
                        <g id="Grupo_19518" data-name="Grupo 19518" transform="translate(0)" opacity="0.7">
                          <g id="Grupo_19517" data-name="Grupo 19517">
                            <g id="Grupo_19516" data-name="Grupo 19516" clip-path="url(#clip-path-4)">
                              <rect id="Rectángulo_22926" data-name="Rectángulo 22926" width="348.565" height="9.421" transform="translate(0 37.682)" fill="red"/>
                              <rect id="Rectángulo_22927" data-name="Rectángulo 22927" width="348.565" height="9.42" transform="translate(0 18.842)" fill="red"/>
                              <rect id="Rectángulo_22928" data-name="Rectángulo 22928" width="348.565" height="9.42" fill="red"/>
                            </g>
                          </g>
                        </g>
                      </g>
                    </g>
                  </g>
                </g>
              </g>
            </g>
          </g>
          <rect id="Rectángulo_22933" data-name="Rectángulo 22933" width="9.421" height="46.777" transform="translate(339.145 0.179)" fill="red"/>
          <rect id="Rectángulo_22934" data-name="Rectángulo 22934" width="9.42" height="46.777" transform="translate(320.304 0.179)" fill="red"/>
          <rect id="Rectángulo_22935" data-name="Rectángulo 22935" width="9.422" height="46.777" transform="translate(301.462 0.179)" fill="red"/>
          <rect id="Rectángulo_22936" data-name="Rectángulo 22936" width="9.421" height="46.777" transform="translate(282.62 0.179)" fill="red"/>
          <rect id="Rectángulo_22937" data-name="Rectángulo 22937" width="9.421" height="46.777" transform="translate(263.78 0.179)" fill="red"/>
          <rect id="Rectángulo_22938" data-name="Rectángulo 22938" width="9.421" height="46.777" transform="translate(244.937 0.179)" fill="red"/>
          <rect id="Rectángulo_22939" data-name="Rectángulo 22939" width="9.422" height="46.777" transform="translate(226.096 0.179)" fill="red"/>
          <rect id="Rectángulo_22940" data-name="Rectángulo 22940" width="9.421" height="46.777" transform="translate(207.255 0.179)" fill="red"/>
          <rect id="Rectángulo_22941" data-name="Rectángulo 22941" width="9.421" height="46.777" transform="translate(188.414 0.179)" fill="red"/>
          <rect id="Rectángulo_22942" data-name="Rectángulo 22942" width="9.421" height="46.777" transform="translate(169.572 0.179)" fill="red"/>
          <rect id="Rectángulo_22943" data-name="Rectángulo 22943" width="9.422" height="46.777" transform="translate(150.731 0.179)" fill="red"/>
          <rect id="Rectángulo_22944" data-name="Rectángulo 22944" width="9.42" height="46.777" transform="translate(131.889 0.179)" fill="red"/>
          <rect id="Rectángulo_22945" data-name="Rectángulo 22945" width="9.421" height="46.777" transform="translate(113.048 0.179)" fill="red"/>
          <rect id="Rectángulo_22946" data-name="Rectángulo 22946" width="9.421" height="46.777" transform="translate(94.206 0.179)" fill="red"/>
          <rect id="Rectángulo_22947" data-name="Rectángulo 22947" width="9.42" height="46.777" transform="translate(75.365 0.179)" fill="red"/>
          <rect id="Rectángulo_22948" data-name="Rectángulo 22948" width="9.42" height="46.777" transform="translate(56.524 0.179)" fill="red"/>
          <rect id="Rectángulo_22949" data-name="Rectángulo 22949" width="9.421" height="46.777" transform="translate(37.682 0.179)" fill="red"/>
          <rect id="Rectángulo_22950" data-name="Rectángulo 22950" width="9.422" height="46.777" transform="translate(18.841 0.179)" fill="red"/>
          <rect id="Rectángulo_22951" data-name="Rectángulo 22951" width="9.42" height="46.777" transform="translate(0 0.179)" fill="red"/>
          <rect id="Rectángulo_22952" data-name="Rectángulo 22952" width="9.422" height="46.777" transform="translate(329.724 0.179)" fill="#fff"/>
          <rect id="Rectángulo_22953" data-name="Rectángulo 22953" width="9.421" height="46.777" transform="translate(310.882 0.179)" fill="#fff"/>
          <rect id="Rectángulo_22954" data-name="Rectángulo 22954" width="9.42" height="46.777" transform="translate(292.042 0.179)" fill="#fff"/>
          <rect id="Rectángulo_22955" data-name="Rectángulo 22955" width="9.421" height="46.777" transform="translate(273.199 0.179)" fill="#fff"/>
          <rect id="Rectángulo_22956" data-name="Rectángulo 22956" width="9.422" height="46.777" transform="translate(254.358 0.179)" fill="#fff"/>
          <rect id="Rectángulo_22957" data-name="Rectángulo 22957" width="9.42" height="46.777" transform="translate(235.518 0.179)" fill="#fff"/>
          <rect id="Rectángulo_22958" data-name="Rectángulo 22958" width="9.42" height="46.777" transform="translate(216.676 0.179)" fill="#fff"/>
          <rect id="Rectángulo_22959" data-name="Rectángulo 22959" width="9.421" height="46.777" transform="translate(197.835 0.179)" fill="#fff"/>
          <rect id="Rectángulo_22960" data-name="Rectángulo 22960" width="9.421" height="46.777" transform="translate(178.993 0.179)" fill="#fff"/>
          <rect id="Rectángulo_22961" data-name="Rectángulo 22961" width="9.42" height="46.777" transform="translate(160.152 0.179)" fill="#fff"/>
          <rect id="Rectángulo_22962" data-name="Rectángulo 22962" width="9.421" height="46.777" transform="translate(141.31 0.179)" fill="#fff"/>
          <rect id="Rectángulo_22963" data-name="Rectángulo 22963" width="9.422" height="46.777" transform="translate(122.469 0.179)" fill="#fff"/>
          <rect id="Rectángulo_22964" data-name="Rectángulo 22964" width="9.42" height="46.777" transform="translate(103.627 0.179)" fill="#fff"/>
          <rect id="Rectángulo_22965" data-name="Rectángulo 22965" width="9.422" height="46.777" transform="translate(84.786 0.179)" fill="#fff"/>
          <rect id="Rectángulo_22966" data-name="Rectángulo 22966" width="9.421" height="46.777" transform="translate(65.944 0.179)" fill="#fff"/>
          <rect id="Rectángulo_22967" data-name="Rectángulo 22967" width="9.422" height="46.777" transform="translate(47.104 0.179)" fill="#fff"/>
          <rect id="Rectángulo_22968" data-name="Rectángulo 22968" width="9.42" height="46.777" transform="translate(28.262 0.179)" fill="#fff"/>
          <rect id="Rectángulo_22969" data-name="Rectángulo 22969" width="9.422" height="46.777" transform="translate(9.42 0.179)" fill="#fff"/>
          <g id="Grupo_19535" data-name="Grupo 19535" transform="translate(0 0.517)">
            <g id="Grupo_19534" data-name="Grupo 19534" clip-path="url(#clip-path-3)">
              <g id="Grupo_19533" data-name="Grupo 19533" transform="translate(0 -0.517)" opacity="0.5">
                <g id="Grupo_19532" data-name="Grupo 19532">
                  <g id="Grupo_19531" data-name="Grupo 19531" clip-path="url(#clip-path-4)">
                    <rect id="Rectángulo_22970" data-name="Rectángulo 22970" width="348.565" height="9.42" transform="translate(0 28.263)" fill="#fff"/>
                    <rect id="Rectángulo_22971" data-name="Rectángulo 22971" width="348.565" height="9.42" transform="translate(0 9.421)" fill="#fff"/>
                    <g id="Grupo_19530" data-name="Grupo 19530" transform="translate(0)">
                      <g id="Grupo_19529" data-name="Grupo 19529" clip-path="url(#clip-path-4)">
                        <g id="Grupo_19528" data-name="Grupo 19528" transform="translate(0)" opacity="0.7">
                          <g id="Grupo_19527" data-name="Grupo 19527">
                            <g id="Grupo_19526" data-name="Grupo 19526" clip-path="url(#clip-path-4)">
                              <rect id="Rectángulo_22972" data-name="Rectángulo 22972" width="348.565" height="9.421" transform="translate(0 37.682)" fill="red"/>
                              <rect id="Rectángulo_22973" data-name="Rectángulo 22973" width="348.565" height="9.42" transform="translate(0 18.842)" fill="red"/>
                              <rect id="Rectángulo_22974" data-name="Rectángulo 22974" width="348.565" height="9.42" transform="translate(0)" fill="red"/>
                            </g>
                          </g>
                        </g>
                      </g>
                    </g>
                  </g>
                </g>
              </g>
            </g>
          </g>
        </g>
      </g>
      <rect id="Rectángulo_22524" data-name="Rectángulo 22524" width="1366" height="30" transform="translate(0 738)" fill="#222"/>
      <path id="Trazado_42448" data-name="Trazado 42448" d="M1918.718,103.79a2.454,2.454,0,1,1-.005,0h.005m-17.443,2.452a2.453,2.453,0,1,0,2.455-2.452,2.453,2.453,0,0,0-2.455,2.452v0m-14.979,0a2.452,2.452,0,1,0,2.453-2.452h0a2.449,2.449,0,0,0-2.452,2.447v0M1696.414,91.417a2.431,2.431,0,0,0-.817-1.815c-.362,1.386-.718,2.778-1.033,4.183a2.451,2.451,0,0,0,1.851-2.368m174.9,14.825a2.454,2.454,0,1,0,2.457-2.452h0a2.45,2.45,0,0,0-2.455,2.444v.008m-177.352,2.45a2.451,2.451,0,1,0-1.283-4.536c-.175,1.262-.335,2.529-.471,3.8a2.436,2.436,0,0,0,1.755.735m72.468-2.45a2.454,2.454,0,1,0,2.455-2.452h0a2.449,2.449,0,0,0-2.453,2.446v.006m44.952,0a2.455,2.455,0,1,0,2.458-2.452h0a2.448,2.448,0,0,0-2.453,2.443v.009m-14.986,0a2.455,2.455,0,1,0,2.458-2.452h0a2.452,2.452,0,0,0-2.457,2.448v0m-14.982,0a2.452,2.452,0,1,0,2.453-2.452h0a2.451,2.451,0,0,0-2.452,2.45v0m44.956,0a2.447,2.447,0,1,0,0-.01v.01m74.912-14.825a2.453,2.453,0,1,0,2.456-2.459,2.453,2.453,0,0,0-2.456,2.459m-59.931,14.825a2.454,2.454,0,1,0,2.456-2.452h0a2.447,2.447,0,0,0-2.453,2.443v.009m14.983,0a2.444,2.444,0,1,0,0-.017v.017m14.983-14.825a2.454,2.454,0,1,0,2.455-2.459,2.454,2.454,0,0,0-2.455,2.459m-44.947,0a2.451,2.451,0,1,0,2.451-2.459,2.451,2.451,0,0,0-2.451,2.459m14.981,0a2.454,2.454,0,1,0,2.453-2.459,2.454,2.454,0,0,0-2.453,2.459m-119.869,0a2.452,2.452,0,1,0,2.448-2.459,2.452,2.452,0,0,0-2.448,2.459h0m164.821,0a2.452,2.452,0,1,0,2.452-2.459,2.453,2.453,0,0,0-2.452,2.459m29.966,0a2.453,2.453,0,1,0,2.457-2.459,2.453,2.453,0,0,0-2.457,2.459m-59.934,0a2.456,2.456,0,1,0,0-.005v.005m-104.889,0a2.455,2.455,0,1,0,2.455-2.459,2.455,2.455,0,0,0-2.455,2.459m-14.98,0a2.454,2.454,0,1,0,2.453-2.459,2.455,2.455,0,0,0-2.453,2.459m29.967,0a2.454,2.454,0,1,0,2.453-2.459,2.454,2.454,0,0,0-2.453,2.459m44.953,0a2.455,2.455,0,1,0,2.453-2.459,2.455,2.455,0,0,0-2.453,2.459m-29.97,0a2.452,2.452,0,1,0,2.452-2.459,2.453,2.453,0,0,0-2.452,2.459m14.982,0a2.455,2.455,0,1,0,2.457-2.459,2.455,2.455,0,0,0-2.457,2.459m-89.9,0a2.455,2.455,0,1,0,2.451-2.459h0a2.459,2.459,0,0,0-2.451,2.459m44.95,14.825a2.455,2.455,0,1,0,2.458-2.452h0a2.451,2.451,0,0,0-2.455,2.446v.006m-14.98,14.828a2.454,2.454,0,1,0,2.454-2.455h0a2.454,2.454,0,0,0-2.453,2.455h0m-29.969,0a2.455,2.455,0,1,0,2.454-2.455h0a2.454,2.454,0,0,0-2.451,2.455m44.95,0a2.455,2.455,0,1,0,2.455-2.455,2.455,2.455,0,0,0-2.455,2.455h0m-57.481,17.285a2.456,2.456,0,1,0-1.755-4.17c.137,1.275.3,2.537.472,3.8a2.463,2.463,0,0,0,1.283.373m72.468-17.285a2.454,2.454,0,1,0,2.453-2.455,2.454,2.454,0,0,0-2.453,2.455h0m89.9,14.825a2.453,2.453,0,1,0,2.459-2.453,2.453,2.453,0,0,0-2.459,2.453h0m-74.921-14.825a2.452,2.452,0,1,0,2.452-2.455,2.452,2.452,0,0,0-2.452,2.455m59.938,14.825a2.454,2.454,0,1,0,2.455-2.453h0a2.456,2.456,0,0,0-2.453,2.453m59.931,0a2.453,2.453,0,1,0,2.455-2.453,2.453,2.453,0,0,0-2.455,2.453m-29.966,0a2.454,2.454,0,1,0,2.456-2.453h0a2.458,2.458,0,0,0-2.455,2.453m44.952,0a2.453,2.453,0,1,0,2.457-2.453,2.453,2.453,0,0,0-2.457,2.453m-29.965,0a2.452,2.452,0,1,0,2.452-2.453,2.452,2.452,0,0,0-2.452,2.453M1721.474,121.07a2.452,2.452,0,1,0,2.449-2.455h0a2.448,2.448,0,0,0-2.448,2.448v.007m-29.97,0a2.455,2.455,0,1,0,2.454-2.455h0a2.453,2.453,0,0,0-2.453,2.453v0m14.984-14.828a2.455,2.455,0,1,0,2.458-2.452h-.007a2.45,2.45,0,0,0-2.451,2.449v0m209.773,14.828a2.453,2.453,0,1,0,2.457-2.455,2.453,2.453,0,0,0-2.457,2.455m-14.986,0a2.453,2.453,0,1,0,2.456-2.455,2.453,2.453,0,0,0-2.456,2.455m-179.8-14.828a2.452,2.452,0,1,0,2.453-2.452h0a2.444,2.444,0,0,0-2.448,2.44v.012m14.982,0a2.454,2.454,0,1,0,2.457-2.452h0a2.45,2.45,0,0,0-2.453,2.447v.005m89.906,14.828a2.453,2.453,0,1,0,0-.005v.005m14.981,0a2.454,2.454,0,1,0,2.453-2.455,2.454,2.454,0,0,0-2.453,2.455v0m-44.955,0a2.455,2.455,0,1,0,2.457-2.455,2.455,2.455,0,0,0-2.457,2.455m89.906,0a2.453,2.453,0,1,0,2.452-2.455,2.453,2.453,0,0,0-2.452,2.455m-74.919,0a2.455,2.455,0,1,0,2.454-2.455h0a2.452,2.452,0,0,0-2.453,2.452v0m59.933,0a2.455,2.455,0,1,0,2.455-2.455,2.455,2.455,0,0,0-2.455,2.455v0m-14.982,0a2.449,2.449,0,1,0,0-.012v.012m-89.9-103.791a2.451,2.451,0,1,0,0-.007v.007M1886.3,61.759a2.446,2.446,0,1,0,0-.013v.013m-74.919-29.651a2.455,2.455,0,1,0,2.453-2.458,2.455,2.455,0,0,0-2.453,2.458m-29.97,0a2.452,2.452,0,1,0,2.452-2.458,2.453,2.453,0,0,0-2.452,2.458m14.983,0a2.455,2.455,0,1,0,2.457-2.458,2.455,2.455,0,0,0-2.457,2.458m44.955,0a2.454,2.454,0,1,0,2.453-2.458,2.454,2.454,0,0,0-2.453,2.458m29.966,0a2.455,2.455,0,1,0,2.455-2.458,2.455,2.455,0,0,0-2.455,2.458m19.891,0a2.455,2.455,0,1,0,0,.009v-.009m-47.4-27.2a2.45,2.45,0,0,0,2.365-1.839c-1.568-.426-3.144-.832-4.745-1.2a2.574,2.574,0,0,0-.074.584A2.455,2.455,0,0,0,1843.8,4.91m74.919,173.01a2.455,2.455,0,0,0,0,4.911,2.317,2.317,0,0,0,.793-.145c.549-.928,1.089-1.868,1.6-2.818a2.451,2.451,0,0,0-2.394-1.947M1766.425,32.108a2.454,2.454,0,1,0,2.453-2.458,2.453,2.453,0,0,0-2.453,2.458m89.9,0a2.454,2.454,0,1,0,2.459-2.458,2.454,2.454,0,0,0-2.459,2.458v0m-119.87,0a2.454,2.454,0,1,0,2.453-2.458,2.454,2.454,0,0,0-2.453,2.458m14.98,0a2.455,2.455,0,1,0,2.456-2.458,2.456,2.456,0,0,0-2.456,2.458m74.925,0a2.451,2.451,0,1,0,2.451-2.458,2.451,2.451,0,0,0-2.451,2.458m44.947-14.829a2.45,2.45,0,1,0,0-.009v.009M1796.39,2.456A2.455,2.455,0,1,0,1798.847,0a2.455,2.455,0,0,0-2.457,2.459m59.938,14.822a2.445,2.445,0,1,0,0-.017v.017m-104.89,0a2.455,2.455,0,1,0,2.457-2.454h0a2.452,2.452,0,0,0-2.456,2.448v.006m59.939-14.822A2.455,2.455,0,1,0,1813.831,0a2.455,2.455,0,0,0-2.453,2.459h0m14.986,0A2.451,2.451,0,1,0,1828.815,0a2.451,2.451,0,0,0-2.451,2.459v0m-42.5,2.455a2.455,2.455,0,0,0,2.453-2.455,2.1,2.1,0,0,0-.079-.584c-1.6.367-3.167.774-4.734,1.2a2.446,2.446,0,0,0,2.36,1.839M1796.39,17.28a2.455,2.455,0,1,0,2.457-2.454,2.455,2.455,0,0,0-2.457,2.454v0m-14.983,0a2.452,2.452,0,1,0,2.452-2.454,2.453,2.453,0,0,0-2.452,2.454v0M1826.364,135.9a2.451,2.451,0,1,0,2.451-2.453,2.451,2.451,0,0,0-2.451,2.453m0-118.617a2.449,2.449,0,1,0,0-.011v.011m14.981,0a2.454,2.454,0,1,0,2.454-2.454h0a2.449,2.449,0,0,0-2.453,2.444v.01m-29.968,0a2.455,2.455,0,1,0,2.456-2.454h0a2.449,2.449,0,0,0-2.453,2.445v.009m104.885,59.313a2.453,2.453,0,1,0,2.456-2.457,2.453,2.453,0,0,0-2.456,2.457v0m-74.917,0a2.452,2.452,0,1,0,0-.008v.008m-14.981,0a2.452,2.452,0,1,0,0-.01v.01m29.964,0a2.449,2.449,0,1,0,0-.016v.016m14.982,0a2.453,2.453,0,1,0,0-.007v.007m14.986,0a2.453,2.453,0,1,0,2.452-2.457,2.452,2.452,0,0,0-2.452,2.457v0m-74.919,0a2.452,2.452,0,1,0,0-.008v.008m-89.9,0a2.451,2.451,0,1,0,0-.011v.011m14.982,0a2.454,2.454,0,1,0,2.453-2.457,2.454,2.454,0,0,0-2.453,2.457v0m14.98,0a2.455,2.455,0,1,0,2.456-2.457,2.455,2.455,0,0,0-2.456,2.457v0m-44.949,0a2.455,2.455,0,1,0,2.453-2.457h0a2.453,2.453,0,0,0-2.451,2.455v0m89.9,0a2.455,2.455,0,1,0,2.457-2.457,2.455,2.455,0,0,0-2.457,2.457v0m-29.965,0a2.454,2.454,0,1,0,2.453-2.457,2.454,2.454,0,0,0-2.453,2.457v0m14.982,0a2.452,2.452,0,1,0,2.452-2.457,2.452,2.452,0,0,0-2.452,2.457h0m119.869-14.834a2.446,2.446,0,1,0,0-.013v.013m-59.931,0a2.454,2.454,0,1,0,2.456-2.453h0a2.444,2.444,0,0,0-2.453,2.435v.018m-14.981,0a2.443,2.443,0,1,0,0-.019v.019m74.912,14.834a2.453,2.453,0,1,0,2.455-2.457,2.453,2.453,0,0,0-2.455,2.457v0M1796.39,61.759a2.455,2.455,0,1,0,2.457-2.453h0a2.449,2.449,0,0,0-2.457,2.441v.012m74.92,0a2.455,2.455,0,1,0,2.456-2.453h0a2.445,2.445,0,0,0-2.455,2.436v.017m-14.982,0a2.44,2.44,0,1,0,0-.025v.025m-44.951,0a2.455,2.455,0,1,0,2.457-2.453h0a2.444,2.444,0,0,0-2.453,2.435v.018m-74.919,0a2.454,2.454,0,1,0,2.456-2.453h0a2.445,2.445,0,0,0-2.453,2.438v.014m-14.982,0a2.452,2.452,0,1,0,2.452-2.453h0a2.44,2.44,0,0,0-2.448,2.433v.02m44.949,0a2.454,2.454,0,1,0,2.454-2.453h0a2.446,2.446,0,0,0-2.453,2.438v.014m-14.987,0a2.455,2.455,0,1,0,2.458-2.453h0a2.447,2.447,0,0,0-2.456,2.439v.014m29.969,0a2.447,2.447,0,1,0,0-.011v.011m49.859,163.1a2.451,2.451,0,1,0-2.452,2.452,2.451,2.451,0,0,0,2.452-2.452M1756.349,46.932a2.455,2.455,0,1,0-2.455,2.456,2.455,2.455,0,0,0,2.455-2.456h0M1933.7,103.79a2.451,2.451,0,1,0,1.752,4.167c-.134-1.279-.3-2.539-.469-3.8a2.434,2.434,0,0,0-1.283-.366M1771.333,46.932a2.454,2.454,0,1,0-2.454,2.456,2.454,2.454,0,0,0,2.454-2.456v0m14.98,0a2.453,2.453,0,1,0,0,.006v-.006m129.949,14.827a2.452,2.452,0,0,0,4.85.506c-.511-.944-1.051-1.883-1.6-2.814a2.367,2.367,0,0,0-.793-.145,2.456,2.456,0,0,0-2.457,2.453m14.983,29.658a2.457,2.457,0,0,0,1.847,2.368c-.317-1.405-.668-2.8-1.035-4.183a2.438,2.438,0,0,0-.814,1.815M1741.367,46.932a2.454,2.454,0,1,0-2.455,2.456,2.454,2.454,0,0,0,2.455-2.456h0m119.869,0a2.454,2.454,0,1,0-2.451,2.456h0a2.453,2.453,0,0,0,2.448-2.456m14.984,0a2.454,2.454,0,1,0-2.454,2.456,2.454,2.454,0,0,0,2.454-2.456m14.983,0a2.453,2.453,0,1,0,0,.005v-.005m-44.948,0a2.454,2.454,0,1,0-2.455,2.456,2.454,2.454,0,0,0,2.455-2.456m-29.966,0a2.455,2.455,0,1,0-2.457,2.456,2.455,2.455,0,0,0,2.457-2.456m14.979,0a2.451,2.451,0,1,0-2.452,2.456,2.451,2.451,0,0,0,2.452-2.456v0m-29.967,0a2.455,2.455,0,1,0-2.454,2.456h0a2.454,2.454,0,0,0,2.453-2.456m-4.91,148.276a2.455,2.455,0,1,0,2.457-2.458,2.455,2.455,0,0,0-2.457,2.458m14.986,0a2.455,2.455,0,1,0,2.453-2.458,2.455,2.455,0,0,0-2.453,2.458h0m-29.97,0a2.453,2.453,0,1,0,2.452-2.458,2.453,2.453,0,0,0-2.452,2.458m59.938,0a2.454,2.454,0,1,0,2.453-2.458,2.454,2.454,0,0,0-2.453,2.458h0m-74.92,0a2.453,2.453,0,1,0,2.453-2.458,2.453,2.453,0,0,0-2.453,2.458m59.939,0a2.451,2.451,0,1,0,2.451-2.458,2.451,2.451,0,0,0-2.451,2.458v0M1933.7,118.614a2.455,2.455,0,1,0,2.455,2.456h0a2.454,2.454,0,0,0-2.454-2.455h0m-182.261,76.594a2.455,2.455,0,1,0,2.456-2.458,2.456,2.456,0,0,0-2.456,2.458m179.807-44.485a2.42,2.42,0,0,0,.814,1.809c.366-1.383.718-2.776,1.035-4.176a2.444,2.444,0,0,0-1.848,2.367m2.455-17.283a2.456,2.456,0,1,0,1.283,4.539c.173-1.261.335-2.522.469-3.8a2.447,2.447,0,0,0-1.752-.742m-27.519,61.768a2.453,2.453,0,1,0,0,.006v-.006m-184.707,0a2.452,2.452,0,1,0,2.448-2.458,2.452,2.452,0,0,0-2.448,2.458v0m14.982,0a2.454,2.454,0,1,0,2.453-2.458,2.454,2.454,0,0,0-2.453,2.458m139.762,29.652a2.454,2.454,0,1,0-2.457,2.452h0a2.457,2.457,0,0,0,2.454-2.452m-89.906-14.826a2.452,2.452,0,1,0-2.453,2.452,2.453,2.453,0,0,0,2.453-2.452m14.986,0a2.455,2.455,0,1,0-2.458,2.452h0a2.461,2.461,0,0,0,2.453-2.452m29.967,0a2.451,2.451,0,1,0-2.452,2.452,2.451,2.451,0,0,0,2.452-2.452m-14.979,0a2.455,2.455,0,1,0-2.458,2.452h0a2.463,2.463,0,0,0,2.456-2.452m-59.938,0a2.455,2.455,0,1,0-2.459,2.452h0a2.463,2.463,0,0,0,2.456-2.452m99.977-14.826a2.454,2.454,0,1,0,0-.008v.008m-84.994,14.826a2.454,2.454,0,1,0-2.455,2.452h0a2.459,2.459,0,0,0,2.454-2.452m-34.874,0a2.458,2.458,0,1,0,0-.005v.005m154.744,0a2.453,2.453,0,1,0-2.453,2.452,2.453,2.453,0,0,0,2.453-2.452m-104.889,29.654a2.446,2.446,0,0,0-4.813-.625c1.567.429,3.146.84,4.734,1.206a2.1,2.1,0,0,0,.079-.581m25.065-103.8a2.455,2.455,0,1,0,2.457-2.453h0a2.457,2.457,0,0,0-2.453,2.453m49.859,74.141a2.453,2.453,0,1,0-2.455,2.452h.007a2.46,2.46,0,0,0,2.448-2.452m-14.981,0a2.454,2.454,0,1,0-2.456,2.452h0a2.464,2.464,0,0,0,2.455-2.452m-2.455,27.2a2.448,2.448,0,0,0-2.453,2.443v.011a2.525,2.525,0,0,0,.073.581c1.6-.366,3.177-.777,4.745-1.206a2.449,2.449,0,0,0-2.365-1.83m-32.421,2.454a2.455,2.455,0,1,0,2.455-2.454h0a2.455,2.455,0,0,0-2.453,2.454m94.8-192.756a2.453,2.453,0,1,0,0,.006v-.006M1796.39,239.689a2.455,2.455,0,1,0,2.457-2.454,2.455,2.455,0,0,0-2.457,2.454m34.876,0a2.449,2.449,0,1,0,0,.009v-.009m29.969-14.828a2.453,2.453,0,1,0-2.455,2.452h.007a2.454,2.454,0,0,0,2.448-2.452M1708.94,64.208a2.451,2.451,0,1,0,0-4.9,2.41,2.41,0,0,0-.8.145q-.814,1.4-1.6,2.814a2.446,2.446,0,0,0,2.394,1.942m12.536-17.276a2.452,2.452,0,1,0,2.452-2.453h0a2.449,2.449,0,0,0-2.448,2.45v0m94.812,177.928a2.455,2.455,0,1,0-2.458,2.452h0a2.457,2.457,0,0,0,2.457-2.452m-44.955,0a2.454,2.454,0,1,0-2.455,2.452h0a2.454,2.454,0,0,0,2.454-2.452m29.968,0a2.455,2.455,0,1,0-2.458,2.452h0a2.456,2.456,0,0,0,2.453-2.452m44.954,0a2.454,2.454,0,1,0-2.456,2.452h0a2.457,2.457,0,0,0,2.455-2.452m-59.941,0a2.452,2.452,0,1,0-2.453,2.452,2.453,2.453,0,0,0,2.453-2.452h0m-29.964,0a2.455,2.455,0,1,0-2.458,2.452h0a2.456,2.456,0,0,0,2.455-2.452m119.87-14.826a2.454,2.454,0,1,0-2.457,2.452h0a2.464,2.464,0,0,0,2.454-2.452m-109.794-59.31a2.456,2.456,0,1,0,0-.006v.006m14.982,0a2.452,2.452,0,1,0,2.452-2.459,2.452,2.452,0,0,0-2.452,2.459v0m-29.969,0a2.456,2.456,0,1,0,0-.005v.005m59.939,0a2.454,2.454,0,1,0,0-.009v.009m14.986,0a2.454,2.454,0,1,0,0-.011v.011m-89.906,0a2.456,2.456,0,1,0,0-.006v.006m59.932,0a2.455,2.455,0,1,0,2.457-2.459,2.455,2.455,0,0,0-2.457,2.459v0m104.886,14.827a2.453,2.453,0,1,0,2.455-2.454,2.453,2.453,0,0,0-2.455,2.454v0m-179.8-14.827a2.453,2.453,0,1,0,0-.011v.011M1886.3,165.551a2.453,2.453,0,1,0,2.452-2.454,2.453,2.453,0,0,0-2.452,2.454v0m29.966,0a2.453,2.453,0,1,0,2.457-2.454,2.453,2.453,0,0,0-2.457,2.454v0m-209.773-14.827a2.455,2.455,0,1,0,2.45-2.459,2.454,2.454,0,0,0-2.45,2.459v0m-10.074,0a2.438,2.438,0,0,0-1.851-2.367c.316,1.4.671,2.792,1.033,4.176a2.418,2.418,0,0,0,.817-1.809m25.061-14.829a2.453,2.453,0,1,0,2.452-2.453h0a2.452,2.452,0,0,0-2.448,2.453m44.949,0a2.454,2.454,0,1,0,2.454-2.453h0a2.458,2.458,0,0,0-2.453,2.453m104.885,29.656a2.451,2.451,0,1,0,0-.007v.007m-134.852-29.656a2.454,2.454,0,1,0,2.456-2.453h0a2.458,2.458,0,0,0-2.453,2.453m104.887,14.829a2.454,2.454,0,1,0,0-.009v.009m-59.938-14.829a2.452,2.452,0,1,0,2.452-2.453,2.452,2.452,0,0,0-2.452,2.453m14.983,0a2.455,2.455,0,1,0,2.456-2.453,2.455,2.455,0,0,0-2.456,2.453m-44.951,0a2.455,2.455,0,1,0,2.457-2.453h0a2.459,2.459,0,0,0-2.455,2.453m119.872,14.829a2.455,2.455,0,1,0,0-.008v.008m14.987,0a2.452,2.452,0,1,0,2.452-2.459,2.452,2.452,0,0,0-2.452,2.459v0m-29.969,0a2.451,2.451,0,1,0,0-.016v.016m-149.839-14.829a2.455,2.455,0,1,0,2.456-2.453h-.006a2.458,2.458,0,0,0-2.45,2.453m209.773,14.829a2.453,2.453,0,1,0,2.457-2.459,2.454,2.454,0,0,0-2.457,2.459v0m-14.986,0a2.453,2.453,0,1,0,2.455-2.459,2.453,2.453,0,0,0-2.455,2.459v0M1886.3,180.377a2.452,2.452,0,1,0,2.452-2.457,2.452,2.452,0,0,0-2.452,2.457v0m-59.933,0a2.453,2.453,0,1,0,0-.007v.007m-14.986,0a2.454,2.454,0,1,0,0-.006v.006m29.968,0a2.454,2.454,0,1,0,0-.006v.006m-44.955,0a2.455,2.455,0,1,0,2.456-2.457,2.455,2.455,0,0,0-2.456,2.457m59.938,0a2.45,2.45,0,1,0,0-.013v.013m14.983,0a2.454,2.454,0,1,0,2.455-2.457,2.454,2.454,0,0,0-2.455,2.457v0m-149.835,0a2.452,2.452,0,1,0,0-.008v.008m14.983,0a2.454,2.454,0,1,0,2.453-2.457,2.454,2.454,0,0,0-2.453,2.457v0m44.949,0a2.452,2.452,0,1,0,2.452-2.457,2.452,2.452,0,0,0-2.452,2.457m89.9,14.832a2.454,2.454,0,1,0,2.455-2.458,2.454,2.454,0,0,0-2.455,2.458m29.966-14.832a2.453,2.453,0,1,0,2.455-2.457,2.453,2.453,0,0,0-2.455,2.457h0m-134.851,0a2.454,2.454,0,1,0,2.453-2.457,2.454,2.454,0,0,0-2.453,2.457v0m-14.986,0a2.455,2.455,0,1,0,2.455-2.457,2.454,2.454,0,0,0-2.455,2.457v0m-29.964-14.826a2.452,2.452,0,1,0,2.45-2.454h0a2.446,2.446,0,0,0-2.448,2.444v.01m89.9,0a2.455,2.455,0,1,0,2.455-2.454h0a2.45,2.45,0,0,0-2.453,2.447v.008m-14.986,0a2.455,2.455,0,1,0,2.457-2.454,2.455,2.455,0,0,0-2.457,2.454v0m-14.982,0a2.452,2.452,0,1,0,2.452-2.454,2.452,2.452,0,0,0-2.452,2.454h0m59.938,0a2.454,2.454,0,1,0,2.454-2.454h0a2.45,2.45,0,0,0-2.453,2.446v.009m-14.981,0a2.45,2.45,0,1,0,0-.009v.009m-59.939,0a2.452,2.452,0,1,0,0-.005v.005M1886.3,195.209a2.452,2.452,0,1,0,2.452-2.458,2.452,2.452,0,0,0-2.452,2.458m-174.9-14.832a2.453,2.453,0,0,0-4.854-.509q.78,1.425,1.6,2.818a2.347,2.347,0,0,0,.8.145,2.456,2.456,0,0,0,2.459-2.454h0m-4.91-14.826a2.455,2.455,0,1,0,2.455-2.454h0a2.452,2.452,0,0,0-2.45,2.453h0m149.839,0a2.447,2.447,0,1,0,0-.015v.015m-119.87,0a2.454,2.454,0,1,0,2.454-2.454h0a2.451,2.451,0,0,0-2.453,2.45v0m14.981,0a2.455,2.455,0,1,0,2.456-2.454h0a2.453,2.453,0,0,0-2.455,2.45v0" transform="translate(-501.811 -67.07)" fill="#f40000"/>
      <path id="Trazado_42451" data-name="Trazado 42451" d="M1800.719,868.368a5.15,5.15,0,1,0,0-.006Zm0-20.287a5.151,5.151,0,1,0,5.154-5.149h0a5.151,5.151,0,0,0-5.152,5.149m21.73,20.287a5.149,5.149,0,1,0,0-.008v.008m0-20.287a5.152,5.152,0,1,0,5.156-5.149,5.153,5.153,0,0,0-5.156,5.149h0m21.734,20.287a5.152,5.152,0,1,0,5.154-5.153,5.152,5.152,0,0,0-5.154,5.153v0m0-20.287a5.152,5.152,0,1,0,5.156-5.149h0a5.153,5.153,0,0,0-5.154,5.149" transform="translate(-614.025 -369.205)" fill="#fff"/>
      <path id="Trazado_42453" data-name="Trazado 42453" d="M206.548,835.834a5.149,5.149,0,1,0,0-.009Zm0-20.286A5.151,5.151,0,1,0,211.7,810.4h0a5.15,5.15,0,0,0-5.151,5.148h0m21.73,20.286a5.149,5.149,0,1,0,0-.007v.007m0-20.286a5.152,5.152,0,1,0,5.155-5.15,5.152,5.152,0,0,0-5.155,5.15h0m21.734,20.286a5.15,5.15,0,1,0,0-.005v.005m0-20.286a5.152,5.152,0,1,0,5.155-5.15,5.151,5.151,0,0,0-5.155,5.15" transform="translate(-150.411 -458.947)" fill="#ffb600"/>
      <path id="Trazado_42454" data-name="Trazado 42454" d="M627.5,646.667a8.537,8.537,0,1,1,8.541-8.541,8.536,8.536,0,0,1-8.541,8.541" transform="translate(-239.719 -486.65)" fill="#ffb600"/>
      <path id="Trazado_42458" data-name="Trazado 42458" d="M358.689,952.811a8.323,8.323,0,1,1,8.327-8.327,8.324,8.324,0,0,1-8.327,8.327m0-12.323a4,4,0,1,0,4,4,4,4,0,0,0-4-4" transform="translate(-198.644 -501.123)" fill="#ffb600"/>
      <g id="Grupo_19539" data-name="Grupo 19539" transform="translate(66.281 -205.11)">
        <path id="Trazado_42449" data-name="Trazado 42449" d="M120.5,1238.858a1.3,1.3,0,1,1-1.3,1.3,1.3,1.3,0,0,1,1.3-1.3Zm-9.25,1.3a1.3,1.3,0,1,0,1.3-1.3,1.3,1.3,0,0,0-1.3,1.3v0m-7.944,0a1.3,1.3,0,1,0,1.3-1.3h0a1.3,1.3,0,0,0-1.3,1.3v0M2.6,1232.3a1.289,1.289,0,0,0-.433-.962c-.192.735-.381,1.474-.548,2.219A1.3,1.3,0,0,0,2.6,1232.3m92.75,7.862a1.3,1.3,0,1,0,1.3-1.3h0a1.3,1.3,0,0,0-1.3,1.3v0m-94.053,1.3a1.3,1.3,0,1,0-.68-2.4c-.093.669-.178,1.341-.25,2.016a1.294,1.294,0,0,0,.931.39m38.43-1.3a1.3,1.3,0,1,0,1.3-1.3h0a1.3,1.3,0,0,0-1.3,1.3v0m23.839,0a1.3,1.3,0,1,0,1.3-1.3h0a1.3,1.3,0,0,0-1.3,1.3v0m-7.948,0a1.3,1.3,0,1,0,1.3-1.3h0a1.3,1.3,0,0,0-1.3,1.3h0m-7.946,0a1.3,1.3,0,1,0,1.3-1.3h0a1.3,1.3,0,0,0-1.3,1.3m23.841,0a1.3,1.3,0,1,0,1.3-1.3h0a1.3,1.3,0,0,0-1.3,1.3v0m39.728-7.862a1.3,1.3,0,1,0,1.3-1.3,1.3,1.3,0,0,0-1.3,1.3m-31.783,7.862a1.3,1.3,0,1,0,1.3-1.3h0a1.3,1.3,0,0,0-1.3,1.3v0m7.946,0a1.3,1.3,0,1,0,0-.008v.008m7.946-7.862a1.3,1.3,0,1,0,1.3-1.3,1.3,1.3,0,0,0-1.3,1.3m-23.836,0a1.3,1.3,0,1,0,1.3-1.3,1.3,1.3,0,0,0-1.3,1.3m7.945,0a1.3,1.3,0,1,0,1.3-1.3,1.3,1.3,0,0,0-1.3,1.3m-63.569,0a1.3,1.3,0,1,0,1.3-1.3,1.3,1.3,0,0,0-1.3,1.3h0m87.408,0a1.3,1.3,0,1,0,1.3-1.3,1.3,1.3,0,0,0-1.3,1.3m15.892,0a1.3,1.3,0,1,0,1.3-1.3,1.3,1.3,0,0,0-1.3,1.3m-31.785,0a1.3,1.3,0,1,0,1.3-1.3,1.3,1.3,0,0,0-1.3,1.3v0m-55.625,0a1.3,1.3,0,1,0,1.3-1.3,1.3,1.3,0,0,0-1.3,1.3m-7.944,0a1.3,1.3,0,1,0,1.3-1.3,1.3,1.3,0,0,0-1.3,1.3m15.892,0a1.3,1.3,0,1,0,1.3-1.3,1.3,1.3,0,0,0-1.3,1.3m23.839,0a1.3,1.3,0,1,0,1.3-1.3,1.3,1.3,0,0,0-1.3,1.3m-15.894,0a1.3,1.3,0,1,0,1.3-1.3,1.3,1.3,0,0,0-1.3,1.3m7.946,0a1.3,1.3,0,1,0,1.3-1.3,1.3,1.3,0,0,0-1.3,1.3m-47.676,0a1.3,1.3,0,1,0,1.3-1.3h0a1.3,1.3,0,0,0-1.3,1.3m23.837,7.862a1.3,1.3,0,1,0,1.3-1.3h0a1.3,1.3,0,0,0-1.3,1.3v0m-7.946,7.862a1.3,1.3,0,1,0,1.3-1.3,1.3,1.3,0,0,0-1.3,1.3m-15.893,0a1.3,1.3,0,1,0,1.3-1.3h0a1.3,1.3,0,0,0-1.3,1.3m23.837,0a1.3,1.3,0,1,0,1.3-1.3,1.3,1.3,0,0,0-1.3,1.3M1.3,1257.187a1.3,1.3,0,1,0-.931-2.211c.072.677.158,1.345.25,2.014a1.313,1.313,0,0,0,.681.2m38.43-9.165a1.3,1.3,0,1,0,1.3-1.3,1.3,1.3,0,0,0-1.3,1.3m47.678,7.862a1.3,1.3,0,1,0,1.3-1.3,1.3,1.3,0,0,0-1.3,1.3h0m-39.732-7.864a1.3,1.3,0,1,0,1.3-1.3,1.3,1.3,0,0,0-1.3,1.3m31.787,7.862a1.3,1.3,0,1,0,1.3-1.3h0a1.3,1.3,0,0,0-1.3,1.3m31.783,0a1.3,1.3,0,1,0,1.3-1.3,1.3,1.3,0,0,0-1.3,1.3m-15.892,0a1.3,1.3,0,1,0,1.3-1.3h0a1.3,1.3,0,0,0-1.3,1.3m23.839,0a1.3,1.3,0,1,0,1.3-1.3,1.3,1.3,0,0,0-1.3,1.3m-15.892,0a1.3,1.3,0,1,0,1.3-1.3h0a1.3,1.3,0,0,0-1.3,1.3m-87.408-7.862a1.3,1.3,0,1,0,1.3-1.3h0a1.3,1.3,0,0,0-1.3,1.3v0m-15.894,0a1.3,1.3,0,1,0,1.3-1.3h0a1.3,1.3,0,0,0-1.3,1.3H0m7.946-7.863a1.3,1.3,0,1,0,1.3-1.3h0a1.3,1.3,0,0,0-1.3,1.3h0m111.247,7.863a1.3,1.3,0,1,0,1.3-1.3,1.3,1.3,0,0,0-1.3,1.3m-7.947,0a1.3,1.3,0,1,0,1.3-1.3,1.3,1.3,0,0,0-1.3,1.3m-95.353-7.863a1.3,1.3,0,1,0,1.3-1.3h0a1.3,1.3,0,0,0-1.3,1.293v.007m7.946,0a1.3,1.3,0,1,0,1.3-1.3h0a1.3,1.3,0,0,0-1.3,1.3v0m47.676,7.863a1.3,1.3,0,1,0,1.3-1.3,1.3,1.3,0,0,0-1.3,1.3v0m7.945,0a1.3,1.3,0,1,0,1.3-1.3,1.3,1.3,0,0,0-1.3,1.3v0m-23.841,0a1.3,1.3,0,1,0,1.3-1.3,1.3,1.3,0,0,0-1.3,1.3m47.68,0a1.3,1.3,0,1,0,1.3-1.3,1.3,1.3,0,0,0-1.3,1.3m-39.731,0a1.3,1.3,0,1,0,1.3-1.3h0a1.3,1.3,0,0,0-1.3,1.3h0m31.784,0a1.3,1.3,0,1,0,1.3-1.3,1.3,1.3,0,0,0-1.3,1.3h0m-7.946,0a1.3,1.3,0,1,0,0-.006v.006m-47.675-55.043a1.3,1.3,0,1,0,1.3-1.3h0a1.3,1.3,0,0,0-1.3,1.3v0m63.571,23.589a1.3,1.3,0,1,0,1.3-1.3h0a1.3,1.3,0,0,0-1.3,1.293v.007m-39.732-15.725a1.3,1.3,0,1,0,1.3-1.3h0a1.3,1.3,0,0,0-1.3,1.3m-15.894,0a1.3,1.3,0,1,0,1.3-1.3,1.3,1.3,0,0,0-1.3,1.3m7.946,0a1.3,1.3,0,1,0,1.3-1.3,1.3,1.3,0,0,0-1.3,1.3m23.841,0a1.3,1.3,0,1,0,1.3-1.3,1.3,1.3,0,0,0-1.3,1.3m15.891,0a1.3,1.3,0,1,0,1.3-1.3,1.3,1.3,0,0,0-1.3,1.3m10.549,0a1.3,1.3,0,1,0-1.3,1.3,1.3,1.3,0,0,0,1.3-1.3v0m-25.139-14.422a1.3,1.3,0,0,0,1.254-.976c-.831-.226-1.668-.441-2.516-.636a1.352,1.352,0,0,0-.039.31,1.3,1.3,0,0,0,1.3,1.3m39.732,91.751a1.3,1.3,0,1,0,0,2.6,1.216,1.216,0,0,0,.421-.077c.291-.492.577-.99.849-1.494a1.3,1.3,0,0,0-1.269-1.033m-80.762-77.328a1.3,1.3,0,1,0,1.3-1.3,1.3,1.3,0,0,0-1.3,1.3m47.678,0a1.3,1.3,0,1,0,1.3-1.3,1.3,1.3,0,0,0-1.3,1.3v0m-63.569,0a1.3,1.3,0,1,0,1.3-1.3,1.3,1.3,0,0,0-1.3,1.3m7.944,0a1.3,1.3,0,1,0,1.3-1.3,1.3,1.3,0,0,0-1.3,1.3m39.734,0a1.3,1.3,0,1,0,1.3-1.3,1.3,1.3,0,0,0-1.3,1.3m23.836-7.864a1.3,1.3,0,1,0,1.3-1.3,1.3,1.3,0,0,0-1.3,1.3v0m-39.732-7.861a1.3,1.3,0,1,0,1.3-1.3,1.3,1.3,0,0,0-1.3,1.3m31.787,7.861a1.3,1.3,0,1,0,0-.009v.009m-55.625,0a1.3,1.3,0,1,0,1.3-1.3h0a1.3,1.3,0,0,0-1.3,1.3v0m31.787-7.861a1.3,1.3,0,1,0,1.3-1.3,1.3,1.3,0,0,0-1.3,1.3m7.948,0a1.3,1.3,0,1,0,1.3-1.3,1.3,1.3,0,0,0-1.3,1.3h0m-22.541,1.3a1.3,1.3,0,0,0,1.3-1.3,1.11,1.11,0,0,0-.042-.31c-.846.195-1.68.41-2.511.636a1.3,1.3,0,0,0,1.252.975m6.646,6.559a1.3,1.3,0,1,0,1.3-1.3,1.3,1.3,0,0,0-1.3,1.3h0m-7.946,0a1.3,1.3,0,1,0,1.3-1.3,1.3,1.3,0,0,0-1.3,1.3h0m23.838,62.9a1.3,1.3,0,1,0,1.3-1.3,1.3,1.3,0,0,0-1.3,1.3m0-62.9a1.3,1.3,0,1,0,1.3-1.3,1.3,1.3,0,0,0-1.3,1.3v0m7.945,0a1.3,1.3,0,1,0,1.3-1.3h0a1.3,1.3,0,0,0-1.3,1.3v0m-15.892,0a1.3,1.3,0,1,0,1.3-1.3h0a1.3,1.3,0,0,0-1.3,1.3v0m55.623,31.456a1.3,1.3,0,1,0,1.3-1.3,1.3,1.3,0,0,0-1.3,1.3v0m-39.73,0a1.3,1.3,0,1,0,1.3-1.3,1.3,1.3,0,0,0-1.3,1.3v0m-7.945,0a1.3,1.3,0,1,0,1.3-1.3,1.3,1.3,0,0,0-1.3,1.3v0m15.891,0a1.3,1.3,0,1,0,0-.008v.008m7.946,0a1.3,1.3,0,1,0,1.3-1.3,1.3,1.3,0,0,0-1.3,1.3v0m7.948,0a1.3,1.3,0,1,0,1.3-1.3,1.3,1.3,0,0,0-1.3,1.3v0m-39.731,0a1.3,1.3,0,1,0,1.3-1.3h0a1.3,1.3,0,0,0-1.3,1.3v0m-47.677,0a1.3,1.3,0,1,0,0-.007v.007m7.946,0a1.3,1.3,0,1,0,1.3-1.3,1.3,1.3,0,0,0-1.3,1.3v0m7.944,0a1.3,1.3,0,1,0,1.3-1.3,1.3,1.3,0,0,0-1.3,1.3v0m-23.837,0a1.3,1.3,0,1,0,1.3-1.3h0a1.3,1.3,0,0,0-1.3,1.3h0m47.676,0a1.3,1.3,0,1,0,1.3-1.3,1.3,1.3,0,0,0-1.3,1.3h0m-15.891,0a1.3,1.3,0,1,0,1.3-1.3,1.3,1.3,0,0,0-1.3,1.3v0m7.946,0a1.3,1.3,0,1,0,1.3-1.3,1.3,1.3,0,0,0-1.3,1.3m63.569-7.867a1.3,1.3,0,1,0,0-.007v.007m-31.783,0a1.3,1.3,0,1,0,1.3-1.3h0a1.3,1.3,0,0,0-1.3,1.291v.009m-7.945,0a1.3,1.3,0,1,0,0-.009v.009m39.728,7.867a1.3,1.3,0,1,0,1.3-1.3,1.3,1.3,0,0,0-1.3,1.3v0m-55.623-7.867a1.3,1.3,0,1,0,1.3-1.3h0a1.3,1.3,0,0,0-1.3,1.295v.006m39.732,0a1.3,1.3,0,1,0,1.3-1.3h0a1.3,1.3,0,0,0-1.3,1.292v.009m-7.946,0a1.294,1.294,0,1,0,0-.013v.013m-23.838,0a1.3,1.3,0,1,0,1.3-1.3h0a1.3,1.3,0,0,0-1.3,1.293v.008m-39.731,0a1.3,1.3,0,1,0,1.3-1.3h0a1.3,1.3,0,0,0-1.3,1.294v.007m-7.946,0a1.3,1.3,0,1,0,1.3-1.3h0a1.294,1.294,0,0,0-1.3,1.289v.011m23.837,0a1.3,1.3,0,1,0,1.3-1.3h0a1.3,1.3,0,0,0-1.3,1.294v.007m-7.948,0a1.3,1.3,0,1,0,1.3-1.3h0a1.3,1.3,0,0,0-1.3,1.294v.007m15.893,0a1.3,1.3,0,1,0,1.3-1.3h0a1.3,1.3,0,0,0-1.3,1.3v0m26.442,86.5a1.3,1.3,0,1,0-1.3,1.3,1.3,1.3,0,0,0,1.3-1.3m-39.73-94.358a1.3,1.3,0,1,0-1.3,1.3,1.3,1.3,0,0,0,1.3-1.3m94.052,30.153a1.3,1.3,0,1,0,.93,2.21c-.071-.679-.157-1.347-.248-2.016a1.289,1.289,0,0,0-.681-.194m-86.109-30.154a1.3,1.3,0,1,0-1.3,1.3,1.3,1.3,0,0,0,1.3-1.3v0m7.944,0a1.3,1.3,0,1,0-1.3,1.3,1.3,1.3,0,0,0,1.3-1.3v0m68.915,7.862a1.3,1.3,0,0,0,2.572.266c-.272-.5-.558-1-.849-1.492a1.245,1.245,0,0,0-.421-.077,1.3,1.3,0,0,0-1.3,1.3m7.946,15.728a1.3,1.3,0,0,0,.98,1.256c-.168-.746-.354-1.484-.549-2.219a1.292,1.292,0,0,0-.432.962m-100.7-23.589a1.3,1.3,0,1,0-1.3,1.3,1.3,1.3,0,0,0,1.3-1.3m63.569,0a1.3,1.3,0,1,0-1.3,1.3h0a1.3,1.3,0,0,0,1.3-1.3m7.947,0a1.3,1.3,0,1,0-1.3,1.3,1.3,1.3,0,0,0,1.3-1.3m7.946,0a1.3,1.3,0,1,0-1.3,1.3,1.3,1.3,0,0,0,1.3-1.3v0m-23.837,0a1.3,1.3,0,1,0-1.3,1.3,1.3,1.3,0,0,0,1.3-1.3m-15.892,0a1.3,1.3,0,1,0-1.306,1.3,1.3,1.3,0,0,0,1.306-1.3m7.944,0a1.3,1.3,0,1,0-1.3,1.3,1.3,1.3,0,0,0,1.3-1.3h0m-15.892,0a1.3,1.3,0,1,0-1.3,1.3h0a1.3,1.3,0,0,0,1.3-1.3m-2.6,78.634a1.3,1.3,0,1,0,1.3-1.3,1.3,1.3,0,0,0-1.3,1.3m7.948,0a1.3,1.3,0,1,0,1.3-1.3,1.3,1.3,0,0,0-1.3,1.3m-15.894,0a1.3,1.3,0,1,0,1.3-1.3,1.3,1.3,0,0,0-1.3,1.3m31.787,0a1.3,1.3,0,1,0,1.3-1.3,1.3,1.3,0,0,0-1.3,1.3m-39.732,0a1.3,1.3,0,1,0,1.3-1.3,1.3,1.3,0,0,0-1.3,1.3m31.787,0a1.3,1.3,0,1,0,1.3-1.3,1.3,1.3,0,0,0-1.3,1.3m56.923-40.619a1.3,1.3,0,1,0,1.3,1.3h0a1.3,1.3,0,0,0-1.3-1.3h0m-96.656,40.618a1.3,1.3,0,1,0,1.3-1.3,1.3,1.3,0,0,0-1.3,1.3m95.355-23.591a1.286,1.286,0,0,0,.432.96c.194-.731.381-1.472.549-2.215a1.3,1.3,0,0,0-.98,1.256m1.3-9.165a1.3,1.3,0,1,0,.681,2.407c.092-.669.177-1.337.248-2.014a1.3,1.3,0,0,0-.93-.393m-14.593,32.756a1.3,1.3,0,1,0-1.3,1.3,1.3,1.3,0,0,0,1.3-1.3v0m-97.954,0a1.3,1.3,0,1,0,1.3-1.3,1.3,1.3,0,0,0-1.3,1.3v0m7.946,0a1.3,1.3,0,1,0,1.3-1.3,1.3,1.3,0,0,0-1.3,1.3m74.118,15.725a1.3,1.3,0,1,0-1.3,1.3h0a1.3,1.3,0,0,0,1.3-1.3M50.278,1295.2a1.3,1.3,0,1,0-1.3,1.3h0a1.3,1.3,0,0,0,1.3-1.3m7.948,0a1.3,1.3,0,1,0-1.3,1.3h0a1.3,1.3,0,0,0,1.3-1.3m15.892,0a1.3,1.3,0,1,0-1.3,1.3,1.3,1.3,0,0,0,1.3-1.3m-7.944,0a1.3,1.3,0,1,0-1.3,1.3h0a1.305,1.305,0,0,0,1.3-1.3m-31.786,0a1.3,1.3,0,1,0-1.3,1.3h0a1.3,1.3,0,0,0,1.3-1.3m53.021-7.863a1.3,1.3,0,1,0,1.3-1.3,1.3,1.3,0,0,0-1.3,1.3v0M42.333,1295.2a1.3,1.3,0,1,0-1.3,1.3h0a1.3,1.3,0,0,0,1.3-1.3m-18.494,0a1.3,1.3,0,1,0,1.3-1.305,1.3,1.3,0,0,0-1.3,1.305v0m82.064,0a1.3,1.3,0,1,0-1.3,1.3h0a1.3,1.3,0,0,0,1.3-1.3m-55.624,15.726a1.3,1.3,0,0,0-2.553-.332c.831.228,1.668.445,2.511.64a1.1,1.1,0,0,0,.042-.308m13.293-55.044a1.3,1.3,0,1,0,1.3-1.3h0a1.3,1.3,0,0,0-1.3,1.3M90.012,1295.2a1.3,1.3,0,1,0-1.3,1.3h0a1.3,1.3,0,0,0,1.3-1.3m-7.945,0a1.3,1.3,0,1,0-1.3,1.3h0a1.305,1.305,0,0,0,1.3-1.3m-1.3,14.423a1.3,1.3,0,0,0-1.3,1.3v.006a1.343,1.343,0,0,0,.039.308c.849-.194,1.685-.412,2.516-.64a1.3,1.3,0,0,0-1.254-.97m-17.194,1.3a1.3,1.3,0,1,0,1.3-1.3h0a1.3,1.3,0,0,0-1.3,1.3M113.848,1208.7a1.3,1.3,0,1,0-1.3,1.3,1.3,1.3,0,0,0,1.3-1.3v0M55.625,1310.925a1.3,1.3,0,1,0,1.3-1.3,1.3,1.3,0,0,0-1.3,1.3m18.5,0a1.3,1.3,0,1,0-1.3,1.3,1.3,1.3,0,0,0,1.3-1.3v0m15.893-7.864a1.3,1.3,0,1,0-1.3,1.3h0a1.3,1.3,0,0,0,1.3-1.3M9.246,1217.867a1.3,1.3,0,0,0,.058-2.6H9.246a1.267,1.267,0,0,0-.424.077q-.432.741-.846,1.492a1.3,1.3,0,0,0,1.27,1.03m6.646-9.161a1.3,1.3,0,1,0,1.3-1.3h0a1.3,1.3,0,0,0-1.3,1.3v0m50.28,94.359a1.3,1.3,0,1,0-1.3,1.3h0a1.3,1.3,0,0,0,1.3-1.3m-23.84,0a1.3,1.3,0,1,0-1.3,1.3h0a1.3,1.3,0,0,0,1.3-1.3h0m15.892,0a1.3,1.3,0,1,0-1.3,1.3h0a1.3,1.3,0,0,0,1.3-1.3m23.84,0a1.3,1.3,0,1,0-1.3,1.3,1.3,1.3,0,0,0,1.3-1.3m-31.788,0a1.3,1.3,0,1,0-1.3,1.3,1.3,1.3,0,0,0,1.3-1.3h0m-15.89,0a1.3,1.3,0,1,0-1.3,1.3h0a1.3,1.3,0,0,0,1.3-1.3m63.569-7.862a1.3,1.3,0,1,0-1.3,1.3h0a1.305,1.305,0,0,0,1.3-1.3m-58.223-31.454a1.3,1.3,0,1,0,1.3-1.3,1.3,1.3,0,0,0-1.3,1.3v0m7.946,0a1.3,1.3,0,1,0,1.3-1.3,1.3,1.3,0,0,0-1.3,1.3h0m-15.893,0a1.3,1.3,0,1,0,1.3-1.3,1.3,1.3,0,0,0-1.3,1.3v0m31.787,0a1.3,1.3,0,1,0,1.3-1.3,1.3,1.3,0,0,0-1.3,1.3v0m7.948,0a1.3,1.3,0,1,0,1.3-1.3,1.3,1.3,0,0,0-1.3,1.3v0m-47.679,0a1.3,1.3,0,1,0,1.3-1.3,1.3,1.3,0,0,0-1.3,1.3v0m31.783,0a1.3,1.3,0,1,0,1.3-1.3,1.3,1.3,0,0,0-1.3,1.3h0m55.623,7.863a1.3,1.3,0,1,0,1.3-1.3,1.3,1.3,0,0,0-1.3,1.3v0m-95.355-7.864a1.3,1.3,0,1,0,0-.007v.007m87.408,7.863a1.3,1.3,0,1,0,1.3-1.3,1.3,1.3,0,0,0-1.3,1.3v0m15.892,0a1.3,1.3,0,1,0,1.3-1.3,1.3,1.3,0,0,0-1.3,1.3v0M7.946,1263.748a1.3,1.3,0,1,0,1.3-1.3h0a1.3,1.3,0,0,0-1.3,1.3v0m-5.342,0a1.294,1.294,0,0,0-.982-1.256c.167.743.356,1.482.548,2.215a1.283,1.283,0,0,0,.433-.96m13.293-7.864a1.3,1.3,0,1,0,1.3-1.3h0a1.3,1.3,0,0,0-1.3,1.3m23.837,0a1.3,1.3,0,1,0,1.3-1.3h0a1.3,1.3,0,0,0-1.3,1.3m55.623,15.728a1.3,1.3,0,1,0,1.3-1.3,1.3,1.3,0,0,0-1.3,1.3v0m-71.516-15.728a1.3,1.3,0,1,0,1.3-1.3h0a1.3,1.3,0,0,0-1.3,1.3m55.624,7.864a1.3,1.3,0,1,0,1.3-1.3,1.3,1.3,0,0,0-1.3,1.3v0m-31.789-7.864a1.3,1.3,0,1,0,1.3-1.3h0a1.3,1.3,0,0,0-1.3,1.3m7.946,0a1.3,1.3,0,1,0,1.3-1.3h0a1.3,1.3,0,0,0-1.3,1.3m-23.839,0a1.3,1.3,0,1,0,1.3-1.3h0a1.3,1.3,0,0,0-1.3,1.3m63.571,7.864a1.3,1.3,0,1,0,1.3-1.3,1.3,1.3,0,0,0-1.3,1.3v0m7.948,0a1.3,1.3,0,1,0,1.3-1.3,1.3,1.3,0,0,0-1.3,1.3v0m-15.893,0a1.3,1.3,0,1,0,0-.009v.009m-79.463-7.864a1.3,1.3,0,1,0,1.3-1.3h0a1.3,1.3,0,0,0-1.3,1.3m111.247,7.864a1.3,1.3,0,1,0,1.3-1.3,1.3,1.3,0,0,0-1.3,1.3v0m-7.947,0a1.3,1.3,0,1,0,1.3-1.3,1.3,1.3,0,0,0-1.3,1.3v0m-7.944,15.725a1.3,1.3,0,1,0,1.3-1.3,1.3,1.3,0,0,0-1.3,1.3h0m-31.784,0a1.3,1.3,0,1,0,1.3-1.3,1.3,1.3,0,0,0-1.3,1.3v0m-7.948,0a1.3,1.3,0,1,0,1.3-1.3h0a1.3,1.3,0,0,0-1.3,1.3v0m15.892,0a1.3,1.3,0,1,0,1.3-1.3,1.3,1.3,0,0,0-1.3,1.3v0m-23.841,0a1.3,1.3,0,1,0,1.3-1.3,1.3,1.3,0,0,0-1.3,1.3m31.787,0a1.3,1.3,0,1,0,0-.007v.007m7.946,0a1.3,1.3,0,1,0,1.3-1.3,1.3,1.3,0,0,0-1.3,1.3v0m-79.46,0a1.3,1.3,0,1,0,0-.005v.005m7.946,0a1.3,1.3,0,1,0,1.3-1.3,1.3,1.3,0,0,0-1.3,1.3h0m23.837,0a1.3,1.3,0,1,0,1.3-1.3,1.3,1.3,0,0,0-1.3,1.3m47.678,7.865a1.3,1.3,0,1,0,1.3-1.3,1.3,1.3,0,0,0-1.3,1.3m15.892-7.865a1.3,1.3,0,1,0,1.3-1.3,1.3,1.3,0,0,0-1.3,1.3h0m-71.516,0a1.3,1.3,0,1,0,1.3-1.3,1.3,1.3,0,0,0-1.3,1.3h0m-7.948,0a1.3,1.3,0,1,0,1.3-1.3,1.3,1.3,0,0,0-1.3,1.3h0m-15.89-7.863a1.3,1.3,0,1,0,1.3-1.3h0a1.3,1.3,0,0,0-1.3,1.3v.005m47.677,0a1.3,1.3,0,1,0,1.3-1.3h0a1.3,1.3,0,0,0-1.3,1.3v0m-7.948,0a1.3,1.3,0,1,0,1.3-1.3,1.3,1.3,0,0,0-1.3,1.3v0m-7.946,0a1.3,1.3,0,1,0,1.3-1.3,1.3,1.3,0,0,0-1.3,1.3m31.787,0a1.3,1.3,0,1,0,1.3-1.3h0a1.3,1.3,0,0,0-1.3,1.3v0m-7.945,0a1.3,1.3,0,1,0,1.3-1.3,1.3,1.3,0,0,0-1.3,1.3v0m-31.787,0a1.3,1.3,0,1,0,1.3-1.3h0a1.3,1.3,0,0,0-1.3,1.3v0m63.571,15.728a1.3,1.3,0,1,0,1.3-1.3,1.3,1.3,0,0,0-1.3,1.3m-92.752-7.865a1.3,1.3,0,0,0-2.574-.27q.414.756.846,1.494a1.24,1.24,0,0,0,.424.077,1.3,1.3,0,0,0,1.3-1.3m-2.6-7.862a1.3,1.3,0,1,0,1.3-1.3h0a1.3,1.3,0,0,0-1.3,1.3h0m79.462,0a1.3,1.3,0,1,0,0-.008v.008m-63.569,0a1.3,1.3,0,1,0,1.3-1.3h0a1.3,1.3,0,0,0-1.3,1.3v0m7.944,0a1.3,1.3,0,1,0,1.3-1.3h0a1.3,1.3,0,0,0-1.3,1.3v0" transform="translate(-10.145 -483.521)" fill="#f40000"/>
        <path id="Trazado_42457" data-name="Trazado 42457" d="M348.3,1252.466a6.944,6.944,0,1,1,6.947-6.947,6.944,6.944,0,0,1-6.947,6.947m0-10.28a3.336,3.336,0,1,0,3.338,3.333,3.336,3.336,0,0,0-3.338-3.333" transform="translate(-124.621 -501.887)" fill="#ffb600"/>
        <path id="Trazado_42461" data-name="Trazado 42461" d="M245.57,1179.791a6.662,6.662,0,1,1,6.666-6.665,6.662,6.662,0,0,1-6.666,6.665" transform="translate(-90.266 -477.705)" fill="#f40000"/>
        <path id="Trazado_42462" data-name="Trazado 42462" d="M334.257,1200.533a2.641,2.641,0,1,1,2.642-2.644,2.641,2.641,0,0,1-2.642,2.644" transform="translate(-121.354 -487.357)" fill="#ffb600"/>
        <path id="Trazado_42463" data-name="Trazado 42463" d="M456.515,1260.783a2.641,2.641,0,1,1,2.642-2.643,2.641,2.641,0,0,1-2.642,2.643" transform="translate(-162.354 -507.563)" fill="#f40000"/>
      </g>
      <g id="Grupo_19538" data-name="Grupo 19538" transform="translate(70.079 -115.582)">
        <path id="Trazado_42455" data-name="Trazado 42455" d="M1732.389,1243.779a7.986,7.986,0,1,1,7.99-7.99,7.985,7.985,0,0,1-7.99,7.99" transform="translate(-588.434 -498.275)" fill="#ffb600"/>
        <path id="Trazado_42456" data-name="Trazado 42456" d="M1834.668,1212.295a8.323,8.323,0,1,1,8.328-8.327,8.324,8.324,0,0,1-8.328,8.327m0-12.322a4,4,0,1,0,4,4h0a4,4,0,0,0-4-4" transform="translate(-622.621 -487.49)" fill="#ffb600"/>
        <path id="Trazado_42464" data-name="Trazado 42464" d="M1698.445,1192.452a3.166,3.166,0,1,1,3.167-3.168,3.166,3.166,0,0,1-3.167,3.168" transform="translate(-578.667 -484.295)" fill="#f40000"/>
        <path id="Trazado_42465" data-name="Trazado 42465" d="M1899.8,1256.283a3.166,3.166,0,1,1,3.167-3.169,3.166,3.166,0,0,1-3.167,3.169" transform="translate(-646.191 -505.701)" fill="#f40000"/>
      </g>
      <g id="Grupo_19541" data-name="Grupo 19541" transform="translate(238.546 90.112)">
        <path id="Trazado_42452" data-name="Trazado 42452" d="M1389.865,381.906a5.149,5.149,0,1,0,0-.009Zm0-20.286a5.151,5.151,0,1,0,5.152-5.15h0a5.15,5.15,0,0,0-5.151,5.148h0m21.73,20.286a5.149,5.149,0,1,0,0-.008v.008m0-20.286a5.152,5.152,0,1,0,5.156-5.15,5.153,5.153,0,0,0-5.156,5.15v0m21.734,20.286a5.153,5.153,0,1,0,5.154-5.153,5.153,5.153,0,0,0-5.154,5.153v0m0-20.286a5.153,5.153,0,1,0,5.156-5.15h0a5.153,5.153,0,0,0-5.154,5.15" transform="translate(-476.244 -206.068)" fill="#ffb600"/>
        <path id="Trazado_42460" data-name="Trazado 42460" d="M1567.436,607.552a8.9,8.9,0,1,1,8.9-8.9,8.9,8.9,0,0,1-8.9,8.9m0-13.173a4.275,4.275,0,1,0,4.279,4.271,4.275,4.275,0,0,0-4.279-4.271" transform="translate(-532.811 -284.301)" fill="#f40000"/>
        <path id="Trazado_42466" data-name="Trazado 42466" d="M1583.722,409.491a3.166,3.166,0,1,1,3.167-3.169,3.166,3.166,0,0,1-3.167,3.169" transform="translate(-540.193 -221.725)" fill="#f40000"/>
        <path id="Trazado_42467" data-name="Trazado 42467" d="M1339.537,552.971a3.166,3.166,0,1,1,3.167-3.168,3.166,3.166,0,0,1-3.167,3.168" transform="translate(-458.305 -269.842)" fill="#f40000"/>
      </g>
      <path id="Trazado_42468" data-name="Trazado 42468" d="M738.379,399.813a3.384,3.384,0,1,1,3.386-3.39,3.385,3.385,0,0,1-3.386,3.39" transform="translate(-297.63 -276.026)" fill="#f40000"/>
      <g id="Grupo_19540" data-name="Grupo 19540" transform="translate(26.972 34.917)">
        <path id="Trazado_42450" data-name="Trazado 42450" d="M444.833,453.462c-8.642,0-12.859-6.611-16.574-12.437-3.375-5.294-6.288-9.866-11.872-9.866s-8.5,4.571-11.866,9.866c-3.722,5.827-7.933,12.437-16.573,12.437s-12.849-6.611-16.568-12.437c-3.374-5.294-6.289-9.866-11.869-9.866s-8.5,4.57-11.871,9.866c-3.716,5.827-7.93,12.437-16.569,12.437s-12.853-6.611-16.571-12.437c-3.374-5.294-6.287-9.866-11.871-9.866a2.788,2.788,0,0,1,0-5.575c8.64,0,12.859,6.611,16.573,12.442,3.374,5.292,6.287,9.86,11.869,9.86s8.5-4.568,11.871-9.86c3.718-5.829,7.929-12.442,16.571-12.442s12.853,6.611,16.568,12.442c3.372,5.292,6.29,9.86,11.868,9.86s8.495-4.568,11.87-9.86c3.715-5.829,7.932-12.442,16.569-12.442s12.853,6.611,16.574,12.442c3.371,5.292,6.288,9.86,11.872,9.86a2.788,2.788,0,1,1,0,5.575M389.343,497.14a2.79,2.79,0,0,0-2.787-2.789c-5.582,0-8.494-4.571-11.871-9.862-3.717-5.832-7.931-12.443-16.571-12.443s-12.851,6.611-16.568,12.443c-3.375,5.291-6.288,9.862-11.87,9.862s-8.492-4.571-11.869-9.862c-3.718-5.832-7.934-12.443-16.573-12.443a2.789,2.789,0,0,0,0,5.579c5.584,0,8.5,4.571,11.872,9.863,3.715,5.827,7.927,12.44,16.569,12.44s12.859-6.611,16.573-12.44c3.371-5.292,6.286-9.863,11.865-9.863s8.5,4.571,11.873,9.863c3.715,5.827,7.931,12.44,16.568,12.44a2.789,2.789,0,0,0,2.787-2.788" transform="translate(-188.409 -357.485)" fill="#ffb600"/>
        <path id="Trazado_42459" data-name="Trazado 42459" d="M538.634,351.3a9.727,9.727,0,1,1,9.732-9.731,9.727,9.727,0,0,1-9.732,9.731m0-14.4a4.673,4.673,0,1,0,4.677,4.669,4.673,4.673,0,0,0-4.677-4.669" transform="translate(-251.437 -331.85)" fill="#f40000"/>
        <path id="Trazado_42469" data-name="Trazado 42469" d="M496.577,577.449a3.7,3.7,0,1,1,3.7-3.705,3.7,3.7,0,0,1-3.7,3.705" transform="translate(-241.583 -396.993)" fill="#f40000"/>
        <path id="Trazado_42470" data-name="Trazado 42470" d="M150.688,500.148a3.7,3.7,0,1,1,3.7-3.705,3.7,3.7,0,0,1-3.7,3.705" transform="translate(-146.991 -375.852)" fill="#f40000"/>
        <path id="Trazado_42471" data-name="Trazado 42471" d="M191.39,373.993a3.7,3.7,0,1,1,3.7-3.705,3.7,3.7,0,0,1-3.7,3.705" transform="translate(-158.121 -341.352)" fill="#ffb600"/>
      </g>
      <path id="Trazado_42472" data-name="Trazado 42472" d="M444.487,839.737a3.166,3.166,0,1,1,3.167-3.168,3.165,3.165,0,0,1-3.167,3.168" transform="translate(-229.145 -496.664)" fill="#fff"/>
      <path id="Trazado_42488" data-name="Trazado 42488" d="M-15011.811-20783.344v21.123l11.986-9.975-.8-34.793Z" transform="translate(15245.151 20903.197)" fill="#f2f4f5"/>
    </g>
  </g>
</svg>
