<svg id="BG-movil" xmlns="http://www.w3.org/2000/svg" xmlns:xlink="http://www.w3.org/1999/xlink" width="414" height="896" viewBox="0 0 414 896">
  <defs>
    <clipPath id="clip-path">
      <rect id="Rectángulo_23334" data-name="Rectángulo 23334" width="414" height="896" fill="#fff"/>
    </clipPath>
    <clipPath id="clip-path-2">
      <rect id="Rectángulo_22979" data-name="Rectángulo 22979" width="1366" height="235.8" fill="none"/>
    </clipPath>
    <clipPath id="clip-path-3">
      <rect id="Rectángulo_22840" data-name="Rectángulo 22840" width="1366" height="46" transform="translate(0 -0.149)" fill="none"/>
    </clipPath>
    <clipPath id="clip-path-4">
      <rect id="Rectángulo_22839" data-name="Rectángulo 22839" width="348.565" height="235.517" fill="none"/>
    </clipPath>
    <clipPath id="clip-path-5">
      <rect id="Rectángulo_22838" data-name="Rectángulo 22838" width="348.566" height="235.517" fill="none"/>
    </clipPath>
  </defs>
  <g id="Enmascarar_grupo_1360" data-name="Enmascarar grupo 1360" clip-path="url(#clip-path)">
    <g id="Grupo_19807" data-name="Grupo 19807">
      <g id="Grupo_19248" data-name="Grupo 19248" transform="translate(29.867 127.047)">
        <path id="Trazado_42490" data-name="Trazado 42490" d="M2.548,5.1A2.55,2.55,0,1,1,5.1,2.548,2.55,2.55,0,0,1,2.548,5.1" transform="translate(16.061 -37.895)" fill="#ffb600"/>
        <g id="Grupo_19553" data-name="Grupo 19553" transform="translate(0 123.875)">
          <path id="Trazado_42449" data-name="Trazado 42449" d="M35.992,16.441a.388.388,0,1,1-.389.388.388.388,0,0,1,.389-.388Zm-2.763.388a.389.389,0,1,0,.389-.388.388.388,0,0,0-.389.388h0m-2.373,0a.389.389,0,1,0,.389-.388h0a.388.388,0,0,0-.388.388h0M.778,14.482a.385.385,0,0,0-.129-.287c-.057.22-.114.44-.164.663a.388.388,0,0,0,.293-.375m27.7,2.348a.389.389,0,1,0,.389-.388h0a.388.388,0,0,0-.389.387h0M.389,17.218a.388.388,0,1,0-.2-.718c-.028.2-.053.4-.075.6a.386.386,0,0,0,.278.116m11.479-.388a.389.389,0,1,0,.389-.388h0a.388.388,0,0,0-.389.388h0m7.121,0a.389.389,0,1,0,.39-.388h0a.388.388,0,0,0-.389.387h0m-2.374,0a.389.389,0,1,0,.39-.388h0a.388.388,0,0,0-.389.388h0m-2.373,0a.389.389,0,1,0,.389-.388h0a.388.388,0,0,0-.388.388m7.121,0a.388.388,0,1,0,.388-.388h0a.388.388,0,0,0-.388.387h0m11.867-2.348a.389.389,0,1,0,.389-.39.389.389,0,0,0-.389.39M23.736,16.83a.389.389,0,1,0,.389-.388h0a.388.388,0,0,0-.389.387h0m2.373,0a.389.389,0,1,0,.39-.388.389.389,0,0,0-.39.388v0m2.373-2.348a.389.389,0,1,0,.389-.39.389.389,0,0,0-.389.39m-7.12,0a.388.388,0,1,0,.388-.39.388.388,0,0,0-.388.39m2.373,0a.389.389,0,1,0,.389-.39.389.389,0,0,0-.389.39m-18.988,0a.389.389,0,1,0,.388-.39.388.388,0,0,0-.388.39h0m26.109,0a.389.389,0,1,0,.388-.39.389.389,0,0,0-.388.39m4.747,0a.389.389,0,1,0,.389-.39.388.388,0,0,0-.389.39m-9.494,0a.389.389,0,1,0,.39-.39.389.389,0,0,0-.39.39h0m-16.615,0a.389.389,0,1,0,.389-.39.389.389,0,0,0-.389.39m-2.373,0a.389.389,0,1,0,.389-.39.389.389,0,0,0-.389.39m4.747,0a.389.389,0,1,0,.389-.39.389.389,0,0,0-.389.39m7.121,0a.389.389,0,1,0,.389-.39.389.389,0,0,0-.389.39m-4.747,0a.389.389,0,1,0,.388-.39.388.388,0,0,0-.388.39m2.373,0a.389.389,0,1,0,.389-.39.389.389,0,0,0-.389.39m-14.241,0a.389.389,0,1,0,.388-.39h0a.389.389,0,0,0-.388.39m7.12,2.348a.389.389,0,1,0,.39-.388h0a.388.388,0,0,0-.389.388h0M7.121,19.179a.389.389,0,1,0,.389-.389.389.389,0,0,0-.389.389m-4.747,0a.389.389,0,1,0,.389-.389h0a.389.389,0,0,0-.388.389m7.12,0a.389.389,0,1,0,.389-.389.389.389,0,0,0-.389.389M.389,21.916a.389.389,0,1,0-.278-.661c.022.2.047.4.075.6a.392.392,0,0,0,.2.06m11.479-2.738a.389.389,0,1,0,.389-.389.389.389,0,0,0-.389.389m14.241,2.348a.389.389,0,1,0,.39-.389.389.389,0,0,0-.39.389h0M14.241,19.179a.389.389,0,1,0,.388-.389.389.389,0,0,0-.388.389m9.495,2.348a.389.389,0,1,0,.389-.389h0a.389.389,0,0,0-.389.389m9.493,0a.389.389,0,1,0,.389-.389.388.388,0,0,0-.389.389m-4.747,0a.389.389,0,1,0,.389-.389h0a.389.389,0,0,0-.389.389m7.121,0a.389.389,0,1,0,.389-.389.388.388,0,0,0-.389.389m-4.747,0a.389.389,0,1,0,.389-.389h0a.389.389,0,0,0-.388.389M4.747,19.179a.389.389,0,1,0,.388-.389h0a.388.388,0,0,0-.388.388h0M0,19.179a.389.389,0,1,0,.389-.389h0A.388.388,0,0,0,0,19.178H0M2.374,16.83a.389.389,0,1,0,.39-.388h0a.388.388,0,0,0-.388.388h0M35.6,19.179a.389.389,0,1,0,.389-.389.388.388,0,0,0-.389.389m-2.374,0a.389.389,0,1,0,.389-.389.389.389,0,0,0-.389.389M4.747,16.83a.389.389,0,1,0,.389-.388h0a.387.387,0,0,0-.388.386v0m2.373,0a.389.389,0,1,0,.389-.388h0a.388.388,0,0,0-.389.388h0m14.241,2.349a.388.388,0,1,0,.388-.389.388.388,0,0,0-.388.389h0m2.373,0a.389.389,0,1,0,.389-.389.389.389,0,0,0-.389.389h0m-7.121,0A.389.389,0,1,0,17,18.79a.389.389,0,0,0-.389.389m14.242,0a.389.389,0,1,0,.388-.389.389.389,0,0,0-.388.389m-11.868,0a.389.389,0,1,0,.389-.389h0a.388.388,0,0,0-.389.389h0m9.494,0a.389.389,0,1,0,.389-.389.389.389,0,0,0-.389.389h0m-2.373,0a.389.389,0,1,0,.39-.389.389.389,0,0,0-.39.389v0M11.868,2.738a.389.389,0,1,0,.389-.389h0a.388.388,0,0,0-.389.388h0M30.856,9.784a.389.389,0,1,0,.389-.388h0a.387.387,0,0,0-.388.386v0m-11.868-4.7a.389.389,0,1,0,.389-.389h0a.389.389,0,0,0-.389.389m-4.747,0a.389.389,0,1,0,.388-.389.388.388,0,0,0-.388.389m2.373,0A.389.389,0,1,0,17,4.7a.389.389,0,0,0-.389.389m7.121,0a.389.389,0,1,0,.389-.389.389.389,0,0,0-.389.389m4.747,0A.389.389,0,1,0,28.87,4.7a.389.389,0,0,0-.389.389m3.151,0a.389.389,0,1,0-.389.389.388.388,0,0,0,.389-.389h0M24.123.779A.388.388,0,0,0,24.5.487C24.25.42,24,.355,23.746.3a.4.4,0,0,0-.012.093.389.389,0,0,0,.389.389M35.991,28.184a.389.389,0,1,0,0,.778.364.364,0,0,0,.126-.023c.087-.147.172-.3.254-.446a.388.388,0,0,0-.379-.308M11.868,5.087a.389.389,0,1,0,.389-.389.389.389,0,0,0-.389.389m14.241,0A.389.389,0,1,0,26.5,4.7a.389.389,0,0,0-.39.389h0m-18.988,0A.389.389,0,1,0,7.509,4.7a.389.389,0,0,0-.389.389m2.373,0A.389.389,0,1,0,9.883,4.7a.389.389,0,0,0-.389.389m11.869,0a.388.388,0,1,0,.388-.389.388.388,0,0,0-.388.389m7.12-2.349a.389.389,0,1,0,.389-.389.389.389,0,0,0-.389.389h0M16.614.39A.389.389,0,1,0,17,0a.389.389,0,0,0-.389.39m9.495,2.348a.389.389,0,1,0,.39-.389.389.389,0,0,0-.39.389v0m-16.615,0a.389.389,0,1,0,.389-.389h0a.388.388,0,0,0-.389.388h0M18.989.39A.389.389,0,1,0,19.377,0a.389.389,0,0,0-.389.39m2.374,0A.388.388,0,1,0,21.751,0a.388.388,0,0,0-.388.39h0M14.629.778A.389.389,0,0,0,15.018.39.331.331,0,0,0,15.005.3c-.253.058-.5.123-.75.19a.387.387,0,0,0,.374.291m1.985,1.959A.389.389,0,1,0,17,2.349a.389.389,0,0,0-.389.389h0m-2.373,0a.389.389,0,1,0,.388-.389.388.388,0,0,0-.388.389h0m7.12,18.789a.388.388,0,1,0,.388-.389.388.388,0,0,0-.388.389m0-18.789a.388.388,0,1,0,.388-.389.388.388,0,0,0-.388.389h0m2.373,0a.389.389,0,1,0,.389-.389h0a.388.388,0,0,0-.389.387h0m-4.747,0a.389.389,0,1,0,.389-.389h0a.388.388,0,0,0-.389.387h0m16.614,9.4a.389.389,0,1,0,.389-.389.389.389,0,0,0-.389.389h0m-11.867,0a.389.389,0,1,0,.389-.389.389.389,0,0,0-.389.389h0m-2.373,0a.388.388,0,1,0,.388-.389.388.388,0,0,0-.388.389h0m4.747,0a.389.389,0,1,0,.39-.389.389.389,0,0,0-.39.389v0m2.373,0a.389.389,0,1,0,.389-.389.389.389,0,0,0-.389.389h0m2.374,0a.389.389,0,1,0,.388-.389.389.389,0,0,0-.388.389h0m-11.868,0a.389.389,0,1,0,.389-.389h0a.388.388,0,0,0-.389.388h0m-14.241,0a.389.389,0,1,0,.388-.389.389.389,0,0,0-.388.389v0m2.373,0a.389.389,0,1,0,.389-.389.389.389,0,0,0-.389.389h0m2.373,0a.389.389,0,1,0,.389-.389.389.389,0,0,0-.389.389h0m-7.12,0a.389.389,0,1,0,.389-.389h0a.389.389,0,0,0-.388.389h0m14.241,0A.389.389,0,1,0,17,11.744a.389.389,0,0,0-.389.389h0m-4.747,0a.389.389,0,1,0,.389-.389.389.389,0,0,0-.389.389h0m2.373,0a.389.389,0,1,0,.388-.389.389.389,0,0,0-.388.389m18.988-2.35a.389.389,0,1,0,.389-.389.388.388,0,0,0-.389.389v0m-9.493,0a.389.389,0,1,0,.389-.389h0a.387.387,0,0,0-.389.386v0m-2.373,0A.388.388,0,1,0,21.75,9.4a.388.388,0,0,0-.388.389v0m11.867,2.35a.389.389,0,1,0,.389-.389.389.389,0,0,0-.389.389h0M16.614,9.784A.389.389,0,1,0,17,9.4h0a.388.388,0,0,0-.389.387v0m11.868,0a.389.389,0,1,0,.389-.389h0a.387.387,0,0,0-.389.386v0m-2.373,0A.389.389,0,1,0,26.5,9.4a.389.389,0,0,0-.39.389v0m-7.12,0a.389.389,0,1,0,.389-.389h0a.387.387,0,0,0-.389.386v0m-11.868,0A.389.389,0,1,0,7.51,9.4h0a.388.388,0,0,0-.389.387v0m-2.373,0A.389.389,0,1,0,5.136,9.4h0a.387.387,0,0,0-.388.385v0m7.12,0a.389.389,0,1,0,.389-.389h0a.388.388,0,0,0-.389.387v0m-2.374,0A.389.389,0,1,0,9.883,9.4h0a.388.388,0,0,0-.389.387v0m4.747,0a.389.389,0,1,0,.389-.389h0a.388.388,0,0,0-.388.387h0m7.9,25.836a.388.388,0,1,0-.388.389.388.388,0,0,0,.388-.389M10.272,7.435a.389.389,0,1,0-.389.389.389.389,0,0,0,.389-.389m28.093,9.007a.388.388,0,1,0,.278.66c-.021-.2-.047-.4-.074-.6a.385.385,0,0,0-.2-.058M12.645,7.435a.389.389,0,1,0-.389.389.389.389,0,0,0,.389-.389h0m2.373,0a.389.389,0,1,0-.389.389.389.389,0,0,0,.389-.389h0M35.6,9.784a.388.388,0,0,0,.768.079c-.081-.15-.167-.3-.254-.446a.372.372,0,0,0-.126-.023.389.389,0,0,0-.389.389m2.373,4.7a.389.389,0,0,0,.293.375c-.05-.223-.106-.443-.164-.663a.386.386,0,0,0-.129.287M7.9,7.435a.389.389,0,1,0-.389.389A.389.389,0,0,0,7.9,7.435m18.988,0a.389.389,0,1,0-.389.389h0a.389.389,0,0,0,.388-.389m2.374,0a.389.389,0,1,0-.389.389.389.389,0,0,0,.389-.389m2.373,0a.389.389,0,1,0-.389.389.388.388,0,0,0,.389-.389h0m-7.12,0a.389.389,0,1,0-.389.389.389.389,0,0,0,.389-.389m-4.747,0a.389.389,0,1,0-.39.389.389.389,0,0,0,.39-.389m2.373,0a.388.388,0,1,0-.388.389.388.388,0,0,0,.388-.389h0m-4.747,0A.389.389,0,1,0,17,7.824h0a.389.389,0,0,0,.389-.389m-.778,23.488A.389.389,0,1,0,17,30.534a.389.389,0,0,0-.389.389m2.374,0a.389.389,0,1,0,.389-.389.389.389,0,0,0-.389.389m-4.747,0a.389.389,0,1,0,.388-.389.389.389,0,0,0-.388.389m9.495,0a.389.389,0,1,0,.389-.389.389.389,0,0,0-.389.389m-11.868,0a.389.389,0,1,0,.389-.389.389.389,0,0,0-.389.389m9.495,0a.388.388,0,1,0,.388-.389.388.388,0,0,0-.388.389m17-12.133a.389.389,0,1,0,.389.389h0a.389.389,0,0,0-.389-.389h0M9.494,30.923a.389.389,0,1,0,.389-.389.389.389,0,0,0-.389.389m28.482-7.047a.384.384,0,0,0,.129.287c.058-.218.114-.44.164-.662a.387.387,0,0,0-.293.375m.389-2.738a.389.389,0,1,0,.2.719c.027-.2.053-.4.074-.6a.388.388,0,0,0-.278-.118m-4.359,9.784a.389.389,0,1,0-.388.389.389.389,0,0,0,.388-.389h0m-29.259,0a.389.389,0,1,0,.388-.389.388.388,0,0,0-.388.389h0m2.373,0a.389.389,0,1,0,.389-.389.389.389,0,0,0-.389.389m22.139,4.7a.389.389,0,1,0-.389.389h0a.389.389,0,0,0,.389-.389M15.018,33.271a.389.389,0,1,0-.389.388h0a.389.389,0,0,0,.389-.388m2.374,0a.389.389,0,1,0-.39.388h0a.39.39,0,0,0,.389-.388m4.747,0a.388.388,0,1,0-.388.388.388.388,0,0,0,.388-.388m-2.373,0a.389.389,0,1,0-.39.388h0a.39.39,0,0,0,.389-.388m-9.494,0a.389.389,0,1,0-.39.388h0a.39.39,0,0,0,.389-.388m15.837-2.349a.389.389,0,1,0,.39-.389.389.389,0,0,0-.39.389h0M12.645,33.271a.389.389,0,1,0-.389.388h0a.389.389,0,0,0,.389-.388m-5.524,0a.389.389,0,1,0,.389-.39.389.389,0,0,0-.389.39h0m24.512,0a.389.389,0,1,0-.389.388h0a.389.389,0,0,0,.389-.388m-16.615,4.7a.388.388,0,0,0-.763-.1c.248.068.5.133.75.191a.328.328,0,0,0,.013-.092m3.971-16.441a.389.389,0,1,0,.389-.388h0a.389.389,0,0,0-.389.388m7.9,11.744a.389.389,0,1,0-.389.388h0a.389.389,0,0,0,.388-.388m-2.373,0a.389.389,0,1,0-.389.388h0a.39.39,0,0,0,.389-.388m-.389,4.308a.388.388,0,0,0-.389.387v0a.4.4,0,0,0,.012.092c.254-.058.5-.123.752-.191a.388.388,0,0,0-.375-.29m-5.136.389a.389.389,0,1,0,.389-.389h0a.389.389,0,0,0-.389.389M34.006,7.434a.389.389,0,1,0-.388.389.389.389,0,0,0,.388-.389h0M16.615,37.968A.389.389,0,1,0,17,37.579a.389.389,0,0,0-.389.389m5.525,0a.388.388,0,1,0-.388.388.388.388,0,0,0,.388-.388h0m4.747-2.349a.389.389,0,1,0-.389.389h0a.389.389,0,0,0,.388-.389M2.762,10.172A.388.388,0,0,0,2.779,9.4H2.762a.379.379,0,0,0-.127.023q-.129.221-.253.446a.388.388,0,0,0,.379.308M4.747,7.435a.389.389,0,1,0,.389-.389h0a.388.388,0,0,0-.388.388h0M19.766,35.62a.389.389,0,1,0-.389.389h0a.389.389,0,0,0,.389-.389m-7.121,0a.389.389,0,1,0-.389.389h0a.388.388,0,0,0,.389-.388h0m4.747,0a.389.389,0,1,0-.389.389h0a.389.389,0,0,0,.389-.389m7.121,0a.389.389,0,1,0-.389.389.389.389,0,0,0,.389-.389m-9.495,0a.389.389,0,1,0-.389.389.388.388,0,0,0,.389-.389h0m-4.746,0a.389.389,0,1,0-.389.389h0a.389.389,0,0,0,.389-.389m18.988-2.348a.389.389,0,1,0-.389.388h0a.39.39,0,0,0,.389-.388m-17.391-9.4a.389.389,0,1,0,.389-.389.389.389,0,0,0-.389.389h0m2.373,0a.389.389,0,1,0,.388-.389.388.388,0,0,0-.388.389h0m-4.747,0a.389.389,0,1,0,.389-.389.389.389,0,0,0-.389.389h0m9.495,0a.389.389,0,1,0,.389-.389.389.389,0,0,0-.389.389h0m2.374,0a.388.388,0,1,0,.388-.389.388.388,0,0,0-.388.389h0m-14.242,0a.389.389,0,1,0,.389-.389.389.389,0,0,0-.389.389h0m9.494,0A.389.389,0,1,0,17,23.487a.389.389,0,0,0-.389.389h0M33.23,26.225a.389.389,0,1,0,.389-.389.388.388,0,0,0-.389.389h0M4.747,23.876a.389.389,0,1,0,.388-.389.388.388,0,0,0-.388.389v0m26.109,2.349a.389.389,0,1,0,.388-.389.388.388,0,0,0-.388.389h0m4.747,0a.389.389,0,1,0,.389-.389.388.388,0,0,0-.389.389h0M2.374,23.876a.389.389,0,1,0,.388-.389h0a.388.388,0,0,0-.388.389h0m-1.6,0A.387.387,0,0,0,.485,23.5c.05.222.106.443.164.662a.383.383,0,0,0,.129-.287m3.971-2.349a.389.389,0,1,0,.389-.389h0a.388.388,0,0,0-.388.389m7.12,0a.389.389,0,1,0,.389-.389h0a.389.389,0,0,0-.389.389m16.614,4.7a.389.389,0,1,0,.389-.389.389.389,0,0,0-.389.389h0m-21.362-4.7a.389.389,0,1,0,.389-.389h0a.389.389,0,0,0-.389.389m16.615,2.349a.389.389,0,1,0,.389-.389.389.389,0,0,0-.389.389h0m-9.5-2.349a.389.389,0,1,0,.389-.389h0a.39.39,0,0,0-.388.389m2.373,0A.389.389,0,1,0,17,21.139h0a.39.39,0,0,0-.389.389m-7.121,0a.389.389,0,1,0,.389-.389h0a.39.39,0,0,0-.389.389m18.988,2.349a.389.389,0,1,0,.389-.389.389.389,0,0,0-.389.389h0m2.374,0a.389.389,0,1,0,.388-.389.388.388,0,0,0-.388.389h0m-4.747,0a.389.389,0,1,0,.39-.389.389.389,0,0,0-.39.389v0M2.374,21.527a.389.389,0,1,0,.389-.389h0a.389.389,0,0,0-.388.389M35.6,23.876a.389.389,0,1,0,.389-.389.388.388,0,0,0-.389.389h0m-2.374,0a.389.389,0,1,0,.389-.389.388.388,0,0,0-.389.389h0m-2.373,4.7a.389.389,0,1,0,.388-.389.388.388,0,0,0-.388.389h0m-9.494,0a.388.388,0,1,0,.388-.389.388.388,0,0,0-.388.389h0m-2.374,0a.389.389,0,1,0,.389-.389h0a.388.388,0,0,0-.389.388h0m4.747,0a.389.389,0,1,0,.389-.389.389.389,0,0,0-.389.389h0m-7.121,0A.389.389,0,1,0,17,28.184a.389.389,0,0,0-.389.389m9.495,0a.389.389,0,1,0,.39-.389.389.389,0,0,0-.39.389v0m2.373,0a.389.389,0,1,0,.389-.389.389.389,0,0,0-.389.389h0m-23.735,0a.389.389,0,1,0,.388-.389.388.388,0,0,0-.388.389v0m2.373,0a.389.389,0,1,0,.389-.389.389.389,0,0,0-.389.389h0m7.12,0a.389.389,0,1,0,.388-.389.388.388,0,0,0-.388.389m14.241,2.349a.389.389,0,1,0,.389-.389.389.389,0,0,0-.389.389m4.747-2.349a.389.389,0,1,0,.389-.389.388.388,0,0,0-.389.389h0m-21.362,0a.389.389,0,1,0,.389-.389.389.389,0,0,0-.389.389h0m-2.374,0a.389.389,0,1,0,.389-.389.389.389,0,0,0-.389.389h0M4.747,26.225a.389.389,0,1,0,.388-.389h0a.388.388,0,0,0-.388.387v0m14.241,0a.389.389,0,1,0,.389-.389h0a.388.388,0,0,0-.389.388h0m-2.374,0A.389.389,0,1,0,17,25.836a.389.389,0,0,0-.389.389h0m-2.373,0a.389.389,0,1,0,.388-.389.388.388,0,0,0-.388.389m9.495,0a.389.389,0,1,0,.389-.389h0a.388.388,0,0,0-.389.387h0m-2.373,0a.388.388,0,1,0,.388-.389.388.388,0,0,0-.388.389h0m-9.495,0a.389.389,0,1,0,.389-.389h0a.388.388,0,0,0-.389.388h0m18.988,4.7a.389.389,0,1,0,.388-.389.388.388,0,0,0-.388.389m-27.7-2.349a.389.389,0,0,0-.769-.081q.124.226.253.446a.371.371,0,0,0,.127.023.389.389,0,0,0,.39-.389m-.778-2.348a.389.389,0,1,0,.389-.389h0a.388.388,0,0,0-.388.389h0m23.735,0a.389.389,0,1,0,.39-.389.389.389,0,0,0-.39.389v0m-18.988,0a.389.389,0,1,0,.389-.389h0a.388.388,0,0,0-.389.388h0m2.373,0a.389.389,0,1,0,.389-.389h0a.388.388,0,0,0-.389.388h0" transform="translate(0 3.444)" fill="#f40000"/>
          <path id="Trazado_42457" data-name="Trazado 42457" d="M2.073,4.148A2.074,2.074,0,1,1,4.148,2.073,2.074,2.074,0,0,1,2.073,4.148m0-3.071a1,1,0,1,0,1,1,1,1,0,0,0-1-1" transform="translate(67.769 14.316)" fill="#ffb600"/>
          <path id="Trazado_42461" data-name="Trazado 42461" d="M1.988,3.98A1.99,1.99,0,1,1,3.98,1.989,1.99,1.99,0,0,1,1.988,3.98" transform="translate(47.431 0)" fill="#f40000"/>
          <path id="Trazado_42462" data-name="Trazado 42462" d="M.789,1.578a.789.789,0,1,1,.789-.79.789.789,0,0,1-.789.79" transform="translate(65.835 5.714)" fill="#ffb600"/>
          <path id="Trazado_42463" data-name="Trazado 42463" d="M.789,1.578a.789.789,0,1,1,.789-.79.789.789,0,0,1-.789.79" transform="translate(90.107 17.675)" fill="#f40000"/>
        </g>
        <path id="Trazado_42491" data-name="Trazado 42491" d="M1.011,2.022A1.011,1.011,0,1,1,2.022,1.009,1.011,1.011,0,0,1,1.011,2.022" transform="translate(113.872 14.361)" fill="#f40000"/>
        <g id="Grupo_19550" data-name="Grupo 19550" transform="translate(-12.017 -8.272)">
          <path id="Trazado_42450" data-name="Trazado 42450" d="M40,7.618c-2.361,0-3.514-1.807-4.529-3.4-.922-1.447-1.718-2.7-3.244-2.7s-2.321,1.249-3.243,2.7c-1.017,1.592-2.168,3.4-4.529,3.4s-3.511-1.807-4.527-3.4c-.922-1.447-1.718-2.7-3.243-2.7s-2.322,1.249-3.244,2.7c-1.015,1.592-2.167,3.4-4.528,3.4S5.4,5.811,4.387,4.219c-.922-1.447-1.718-2.7-3.244-2.7A.762.762,0,0,1,1.144,0C3.5,0,4.657,1.807,5.672,3.4,6.594,4.846,7.39,6.094,8.915,6.094S11.237,4.846,12.159,3.4C13.175,1.807,14.326,0,16.687,0S20.2,1.807,21.215,3.4c.921,1.446,1.719,2.694,3.243,2.694S26.779,4.846,27.7,3.4C28.717,1.807,29.869,0,32.229,0s3.512,1.807,4.529,3.4C37.679,4.846,38.476,6.094,40,6.094a.762.762,0,1,1,0,1.523M24.838,19.553a.762.762,0,0,0-.762-.762c-1.525,0-2.321-1.249-3.244-2.695-1.016-1.594-2.167-3.4-4.528-3.4s-3.512,1.807-4.527,3.4c-.922,1.446-1.718,2.695-3.244,2.695S6.214,17.542,5.291,16.1C4.275,14.5,3.123,12.7.762,12.7a.762.762,0,0,0,0,1.524c1.526,0,2.322,1.249,3.244,2.7,1.015,1.592,2.166,3.4,4.528,3.4s3.514-1.807,4.529-3.4c.921-1.446,1.718-2.7,3.242-2.7s2.323,1.249,3.244,2.7c1.015,1.592,2.167,3.4,4.527,3.4a.762.762,0,0,0,.762-.762" transform="translate(30.068 18.608)" fill="#ffb600"/>
          <path id="Trazado_42459" data-name="Trazado 42459" d="M2.656,5.316A2.658,2.658,0,1,1,5.316,2.657,2.658,2.658,0,0,1,2.656,5.316m0-3.935A1.277,1.277,0,1,0,3.935,2.657,1.277,1.277,0,0,0,2.656,1.381" transform="translate(75.822 0)" fill="#f40000"/>
          <path id="Trazado_42469" data-name="Trazado 42469" d="M1.011,2.022A1.011,1.011,0,1,1,2.022,1.009,1.011,1.011,0,0,1,1.011,2.022" transform="translate(68.668 47.289)" fill="#f40000"/>
          <path id="Trazado_42470" data-name="Trazado 42470" d="M1.011,2.022A1.011,1.011,0,1,1,2.022,1.009,1.011,1.011,0,0,1,1.011,2.022" transform="translate(0 31.943)" fill="#f40000"/>
          <path id="Trazado_42471" data-name="Trazado 42471" d="M1.011,2.022A1.011,1.011,0,1,1,2.022,1.009,1.011,1.011,0,0,1,1.011,2.022" transform="translate(8.081 6.897)" fill="#ffb600"/>
        </g>
        <path id="Trazado_42489" data-name="Trazado 42489" d="M0,7.6A1.539,1.539,0,1,0,1.539,6.058,1.539,1.539,0,0,0,0,7.6ZM0,1.538A1.539,1.539,0,1,0,1.54,0h0A1.538,1.538,0,0,0,0,1.538H0M6.491,7.6a1.539,1.539,0,1,0,1.54-1.539A1.539,1.539,0,0,0,6.491,7.6v0m0-6.059A1.539,1.539,0,1,0,8.031,0a1.539,1.539,0,0,0-1.54,1.538h0M12.983,7.6a1.539,1.539,0,1,0,1.539-1.539A1.539,1.539,0,0,0,12.983,7.6v0m0-6.059A1.539,1.539,0,1,0,14.522,0a1.539,1.539,0,0,0-1.54,1.538" transform="translate(0 84.386)" fill="#ffb600"/>
        <path id="Trazado_42494" data-name="Trazado 42494" d="M2.485,4.972A2.486,2.486,0,1,1,4.972,2.485,2.486,2.486,0,0,1,2.485,4.972m0-3.681a1.195,1.195,0,1,0,1.2,1.194,1.195,1.195,0,0,0-1.2-1.194" transform="translate(28.552 109.354)" fill="#ffb600"/>
        <path id="Trazado_42492" data-name="Trazado 42492" d="M.945,1.891A.946.946,0,1,1,1.891.945a.946.946,0,0,1-.946.946" transform="translate(46.609 79.992)" fill="#fff"/>
      </g>
      <g id="Grupo_19249" data-name="Grupo 19249" transform="translate(288.933 91.422)">
        <path id="Trazado_42495" data-name="Trazado 42495" d="M67.868,31a.732.732,0,1,1-.734.732A.732.732,0,0,1,67.868,31h0m-5.21.732A.733.733,0,1,0,63.391,31a.733.733,0,0,0-.733.732h0m-4.474,0A.732.732,0,1,0,58.916,31h0a.732.732,0,0,0-.732.731h0M1.467,27.307a.726.726,0,0,0-.244-.542c-.108.414-.214.83-.309,1.25a.732.732,0,0,0,.553-.707m52.241,4.428A.733.733,0,1,0,54.441,31h0a.732.732,0,0,0-.733.73v0M.733,32.467A.732.732,0,1,0,.35,31.112c-.052.377-.1.755-.141,1.135a.728.728,0,0,0,.524.22m21.646-.732A.733.733,0,1,0,23.112,31h0a.732.732,0,0,0-.733.731v0m13.427,0A.733.733,0,1,0,36.54,31h0a.731.731,0,0,0-.733.73v0m-4.476,0A.733.733,0,1,0,32.064,31h0a.732.732,0,0,0-.734.731h0m-4.475,0A.732.732,0,1,0,27.587,31h0a.732.732,0,0,0-.732.732h0m13.428,0A.732.732,0,1,0,41.015,31a.732.732,0,0,0-.732.732v0m22.376-4.428a.733.733,0,1,0,.733-.734.733.733,0,0,0-.733.734m-17.9,4.428A.733.733,0,1,0,45.491,31h0a.731.731,0,0,0-.733.73v0m4.475,0a.73.73,0,1,0,0-.005v.005m4.475-4.428a.733.733,0,1,0,.733-.734.733.733,0,0,0-.733.734m-13.426,0a.732.732,0,1,0,.732-.734.732.732,0,0,0-.732.734m4.475,0a.733.733,0,1,0,.733-.734.733.733,0,0,0-.733.734m-35.8,0a.732.732,0,1,0,.731-.734.732.732,0,0,0-.731.734h0m49.232,0a.733.733,0,1,0,.732-.734.733.733,0,0,0-.732.734m8.951,0a.733.733,0,1,0,.734-.734.733.733,0,0,0-.734.734m-17.9,0a.733.733,0,1,0,.735-.734.733.733,0,0,0-.735.734v0m-31.33,0a.733.733,0,1,0,.733-.734.733.733,0,0,0-.733.734m-4.475,0a.733.733,0,1,0,.733-.734.733.733,0,0,0-.733.734m8.951,0a.733.733,0,1,0,.733-.734.733.733,0,0,0-.733.734m13.427,0a.733.733,0,1,0,.733-.734.733.733,0,0,0-.733.734m-8.952,0a.732.732,0,1,0,.732-.734.733.733,0,0,0-.732.734m4.475,0a.733.733,0,1,0,.734-.734.733.733,0,0,0-.734.734m-26.853,0a.733.733,0,1,0,.732-.734h0a.735.735,0,0,0-.732.734M17.9,31.735A.733.733,0,1,0,18.637,31h0a.732.732,0,0,0-.733.731v0m-4.475,4.429a.733.733,0,1,0,.733-.733h0a.733.733,0,0,0-.733.733h0m-8.952,0a.733.733,0,1,0,.733-.733h0a.733.733,0,0,0-.732.733m13.426,0a.733.733,0,1,0,.733-.733.733.733,0,0,0-.733.733h0M.733,41.327a.734.734,0,1,0-.524-1.246c.041.381.089.758.141,1.134a.736.736,0,0,0,.383.111m21.646-5.163a.733.733,0,1,0,.733-.733.733.733,0,0,0-.733.733h0m26.854,4.428a.733.733,0,1,0,.735-.733.733.733,0,0,0-.735.733h0M26.855,36.164a.733.733,0,1,0,.732-.733.732.732,0,0,0-.732.733m17.9,4.428a.733.733,0,1,0,.733-.733h0a.734.734,0,0,0-.733.733m17.9,0a.733.733,0,1,0,.733-.733.733.733,0,0,0-.733.733m-8.951,0a.733.733,0,1,0,.733-.733h0a.734.734,0,0,0-.733.733m13.427,0a.733.733,0,1,0,.734-.733.733.733,0,0,0-.734.733m-8.951,0a.732.732,0,1,0,.732-.733.732.732,0,0,0-.732.733M8.952,36.164a.733.733,0,1,0,.732-.733h0a.731.731,0,0,0-.731.731v0M0,36.164a.733.733,0,1,0,.733-.733h0A.733.733,0,0,0,0,36.164H0m4.476-4.429A.733.733,0,1,0,5.21,31h0a.732.732,0,0,0-.732.732h0m62.659,4.429a.733.733,0,1,0,.734-.733.733.733,0,0,0-.734.733m-4.476,0a.733.733,0,1,0,.733-.733.733.733,0,0,0-.733.733M8.952,31.735A.733.733,0,1,0,9.685,31h0a.73.73,0,0,0-.731.729v0m4.475,0A.733.733,0,1,0,14.161,31h0a.732.732,0,0,0-.733.731v0m26.855,4.429a.732.732,0,1,0,.732-.733.732.732,0,0,0-.732.733v0m4.475,0a.733.733,0,1,0,.733-.733.733.733,0,0,0-.733.733h0m-13.428,0a.733.733,0,1,0,.734-.733.733.733,0,0,0-.734.733m26.855,0a.733.733,0,1,0,.733-.733.733.733,0,0,0-.733.733m-22.378,0a.733.733,0,1,0,.733-.733h0a.732.732,0,0,0-.733.732h0m17.9,0a.733.733,0,1,0,.733-.733.733.733,0,0,0-.733.733h0m-4.475,0a.733.733,0,1,0,.734-.733.733.733,0,0,0-.734.733v0m-26.853-31a.733.733,0,1,0,.733-.733.733.733,0,0,0-.733.733v0M58.184,18.448a.733.733,0,1,0,.732-.733.732.732,0,0,0-.732.733v0M35.806,9.591a.733.733,0,1,0,.733-.734.733.733,0,0,0-.733.734m-8.952,0a.733.733,0,1,0,.732-.734.733.733,0,0,0-.732.734m4.475,0a.733.733,0,1,0,.734-.734.733.733,0,0,0-.734.734m13.428,0a.733.733,0,1,0,.733-.734.733.733,0,0,0-.733.734m8.951,0a.733.733,0,1,0,.733-.734.733.733,0,0,0-.733.734m5.942,0a.733.733,0,1,0-.733.734.733.733,0,0,0,.733-.734v0M45.49,1.468A.732.732,0,0,0,46.2.918C45.728.791,45.257.669,44.779.56a.767.767,0,0,0-.022.174.733.733,0,0,0,.733.733M67.868,53.145a.733.733,0,0,0,0,1.467.692.692,0,0,0,.237-.043c.164-.277.325-.558.478-.842a.732.732,0,0,0-.715-.582M22.379,9.591a.733.733,0,1,0,.733-.734.733.733,0,0,0-.733.734m26.854,0a.733.733,0,1,0,.735-.734.733.733,0,0,0-.735.734h0m-35.8,0a.733.733,0,1,0,.733-.734.733.733,0,0,0-.733.734m4.475,0a.733.733,0,1,0,.733-.734.733.733,0,0,0-.733.734m22.38,0a.732.732,0,1,0,.732-.734.732.732,0,0,0-.732.734m13.425-4.43a.733.733,0,1,0,.733-.733.733.733,0,0,0-.733.733v0M31.329.735A.733.733,0,1,0,32.063,0a.733.733,0,0,0-.734.735m17.9,4.427a.73.73,0,1,0,0-.005v.005m-31.33,0a.733.733,0,1,0,.734-.733h0a.732.732,0,0,0-.733.731v0M35.806.734A.733.733,0,1,0,36.539,0a.733.733,0,0,0-.733.734h0m4.476,0A.732.732,0,1,0,41.014,0a.732.732,0,0,0-.732.734h0m-12.7.733a.733.733,0,0,0,.733-.733A.626.626,0,0,0,28.3.56c-.477.11-.946.231-1.414.358a.731.731,0,0,0,.705.549m3.743,3.694a.733.733,0,1,0,.734-.733.733.733,0,0,0-.734.733h0m-4.475,0a.733.733,0,1,0,.732-.733.733.733,0,0,0-.732.733h0M40.282,40.593a.732.732,0,1,0,.732-.733.732.732,0,0,0-.732.733m0-35.431a.732.732,0,1,0,.732-.733.732.732,0,0,0-.732.733v0m4.475,0a.733.733,0,1,0,.733-.733h0a.731.731,0,0,0-.733.73v0m-8.951,0a.733.733,0,1,0,.734-.733h0a.731.731,0,0,0-.733.73v0M67.135,22.879a.733.733,0,1,0,.734-.734.733.733,0,0,0-.734.734h0m-22.378,0a.733.733,0,1,0,.733-.734.733.733,0,0,0-.733.734v0m-4.475,0a.732.732,0,1,0,.732-.734.732.732,0,0,0-.732.734v0m8.95,0a.733.733,0,1,0,.735-.734.733.733,0,0,0-.735.734v0m4.475,0a.733.733,0,1,0,.733-.734.733.733,0,0,0-.733.734v0m4.476,0a.733.733,0,1,0,.732-.734.732.732,0,0,0-.732.734h0m-22.378,0a.733.733,0,1,0,.733-.734.733.733,0,0,0-.733.734v0m-26.853,0a.733.733,0,1,0,.731-.734.732.732,0,0,0-.731.734v0m4.475,0a.733.733,0,1,0,.733-.734.733.733,0,0,0-.733.734h0m4.475,0a.733.733,0,1,0,.733-.734.733.733,0,0,0-.733.734h0m-13.426,0a.733.733,0,1,0,.733-.734h0a.733.733,0,0,0-.732.733h0m26.853,0a.733.733,0,1,0,.734-.734.733.733,0,0,0-.734.734h0m-8.951,0a.733.733,0,1,0,.733-.734.733.733,0,0,0-.733.734h0m4.475,0a.733.733,0,1,0,.732-.734.732.732,0,0,0-.732.734h0m35.8-4.431a.733.733,0,1,0,.733-.733.733.733,0,0,0-.733.733v0m-17.9,0a.733.733,0,1,0,.733-.733h0a.73.73,0,0,0-.733.727v.005m-4.475,0a.73.73,0,1,0,0-.006v.006m22.376,4.431a.733.733,0,1,0,.733-.734.733.733,0,0,0-.733.734h0M31.329,18.448a.733.733,0,1,0,.734-.733h0a.731.731,0,0,0-.734.729v0m22.378,0a.733.733,0,1,0,.734-.733h0a.73.73,0,0,0-.733.728v.005m-4.475,0a.729.729,0,1,0,0-.007v.007m-13.427,0a.733.733,0,1,0,.734-.733h0a.73.73,0,0,0-.733.727v.005m-22.378,0a.733.733,0,1,0,.734-.733h0a.73.73,0,0,0-.733.728v0m-4.475,0a.733.733,0,1,0,.732-.733h0a.729.729,0,0,0-.731.727v.006m13.426,0a.733.733,0,1,0,.733-.733h0a.731.731,0,0,0-.733.728v0m-4.476,0a.733.733,0,1,0,.734-.733h0a.731.731,0,0,0-.733.728v0m8.952,0a.733.733,0,1,0,.732-.733.732.732,0,0,0-.732.733v0M41.747,67.166a.732.732,0,1,0-.732.732.732.732,0,0,0,.732-.732M19.369,14.019a.733.733,0,1,0-.733.734.733.733,0,0,0,.733-.734h0M72.343,31a.732.732,0,1,0,.523,1.245c-.04-.382-.088-.758-.14-1.135A.727.727,0,0,0,72.343,31m-48.5-16.983a.733.733,0,1,0-.733.734.733.733,0,0,0,.733-.734h0m4.475,0a.733.733,0,1,0-.733.734.733.733,0,0,0,.733-.734v0m38.815,4.429a.732.732,0,0,0,1.449.151c-.153-.282-.314-.562-.478-.84a.707.707,0,0,0-.237-.043.734.734,0,0,0-.734.733m4.475,8.859a.734.734,0,0,0,.552.707c-.095-.42-.2-.836-.309-1.25a.728.728,0,0,0-.243.542M14.894,14.019a.733.733,0,1,0-.733.734.733.733,0,0,0,.733-.734h0m35.8,0a.733.733,0,1,0-.732.734h0a.733.733,0,0,0,.731-.734m4.476,0a.733.733,0,1,0-.733.734.733.733,0,0,0,.733-.734m4.475,0a.733.733,0,1,0-.733.734.733.733,0,0,0,.733-.734v0m-13.426,0a.733.733,0,1,0-.733.734.733.733,0,0,0,.733-.734m-8.951,0a.733.733,0,1,0-.734.734.733.733,0,0,0,.734-.734m4.474,0a.732.732,0,1,0-.732.734.732.732,0,0,0,.732-.734h0m-8.951,0a.733.733,0,1,0-.733.734h0a.733.733,0,0,0,.733-.734m-1.467,44.29a.733.733,0,1,0,.734-.734.733.733,0,0,0-.734.734m4.476,0a.733.733,0,1,0,.733-.734.733.733,0,0,0-.733.734h0m-8.952,0a.733.733,0,1,0,.732-.734.733.733,0,0,0-.732.734m17.9,0a.733.733,0,1,0,.733-.734.733.733,0,0,0-.733.734h0m-22.378,0a.733.733,0,1,0,.733-.734.733.733,0,0,0-.733.734m17.9,0a.732.732,0,1,0,.732-.734.732.732,0,0,0-.732.734h0M72.343,35.431a.733.733,0,1,0,.733.734h0a.733.733,0,0,0-.733-.733h0M17.9,58.309a.733.733,0,1,0,.733-.734.733.733,0,0,0-.733.734M71.61,45.022a.723.723,0,0,0,.243.54c.109-.413.214-.829.309-1.247a.73.73,0,0,0-.552.707m.733-5.162a.734.734,0,1,0,.383,1.356c.052-.377.1-.753.14-1.134a.731.731,0,0,0-.523-.222m-8.22,18.45a.733.733,0,1,0-.732.734.733.733,0,0,0,.732-.734v0m-55.171,0a.733.733,0,1,0,.731-.734.732.732,0,0,0-.731.734h0m4.475,0a.733.733,0,1,0,.733-.734.733.733,0,0,0-.733.734m41.747,8.857a.733.733,0,1,0-.734.732h0a.734.734,0,0,0,.733-.732M28.32,62.738a.733.733,0,1,0-.733.732.733.733,0,0,0,.733-.732m4.476,0a.733.733,0,1,0-.734.732h0a.735.735,0,0,0,.733-.732m8.951,0a.732.732,0,1,0-.732.732.732.732,0,0,0,.732-.732m-4.474,0a.733.733,0,1,0-.734.732h0a.736.736,0,0,0,.734-.732m-17.9,0a.733.733,0,1,0-.734.732h0a.736.736,0,0,0,.733-.732m29.863-4.428a.733.733,0,1,0,.734-.734.733.733,0,0,0-.734.734v0M23.845,62.738a.733.733,0,1,0-.733.732h0a.735.735,0,0,0,.733-.732m-10.417,0A.733.733,0,1,0,14.161,62a.733.733,0,0,0-.733.735v0m46.222,0a.733.733,0,1,0-.733.732.733.733,0,0,0,.733-.732M28.319,71.6a.731.731,0,0,0-1.438-.187c.468.128.94.251,1.414.36a.627.627,0,0,0,.024-.174m7.487-31a.733.733,0,1,0,.734-.733h0a.734.734,0,0,0-.733.733M50.7,62.738a.733.733,0,1,0-.733.732h0a.735.735,0,0,0,.731-.732m-4.475,0a.733.733,0,1,0-.734.732h0a.736.736,0,0,0,.733-.732m-.733,8.125a.731.731,0,0,0-.733.73v0a.753.753,0,0,0,.022.174c.478-.109.949-.232,1.417-.36a.732.732,0,0,0-.706-.546m-9.684.733a.733.733,0,1,0,.733-.733h0a.733.733,0,0,0-.733.733M64.124,14.019a.733.733,0,1,0-.732.734.733.733,0,0,0,.732-.734v0M31.329,71.6a.733.733,0,1,0,.734-.733.733.733,0,0,0-.734.733m10.417,0a.732.732,0,1,0-.732.733.732.732,0,0,0,.732-.733v0M50.7,67.166a.733.733,0,1,0-.733.732h0a.733.733,0,0,0,.731-.732M5.208,19.18a.732.732,0,1,0,0-1.464.72.72,0,0,0-.239.043q-.243.417-.477.84a.731.731,0,0,0,.715.58m3.745-5.16a.733.733,0,1,0,.732-.733h0a.731.731,0,0,0-.731.732h0m28.32,53.147a.733.733,0,1,0-.734.732h0a.734.734,0,0,0,.734-.732m-13.428,0a.733.733,0,1,0-.733.732h0a.733.733,0,0,0,.733-.732m8.951,0a.733.733,0,1,0-.734.732h0a.734.734,0,0,0,.733-.732m13.428,0a.733.733,0,1,0-.734.732h0a.734.734,0,0,0,.733-.732m-17.9,0a.733.733,0,1,0-.733.732.733.733,0,0,0,.733-.732h0m-8.95,0a.733.733,0,1,0-.734.732h0a.734.734,0,0,0,.733-.732m35.8-4.429a.733.733,0,1,0-.734.732h0a.736.736,0,0,0,.733-.732m-32.8-17.716a.733.733,0,1,0,.733-.734.733.733,0,0,0-.733.734v0m4.475,0a.733.733,0,1,0,.732-.734.732.732,0,0,0-.732.734h0m-8.952,0a.733.733,0,1,0,.733-.734.733.733,0,0,0-.733.734v0m17.9,0a.733.733,0,1,0,.733-.734.733.733,0,0,0-.733.734v0m4.476,0a.732.732,0,1,0,.732-.734.732.732,0,0,0-.732.734v0m-26.855,0a.733.733,0,1,0,.733-.734.733.733,0,0,0-.733.734v0m17.9,0a.733.733,0,1,0,.734-.734.733.733,0,0,0-.734.734h0m31.329,4.429a.733.733,0,1,0,.733-.733.733.733,0,0,0-.733.733h0M8.952,45.022a.733.733,0,1,0,.731-.734.733.733,0,0,0-.731.734v0m49.232,4.429a.733.733,0,1,0,.733-.733.733.733,0,0,0-.733.733h0m8.951,0a.733.733,0,1,0,.734-.733.733.733,0,0,0-.734.733h0M4.476,45.022a.733.733,0,1,0,.732-.734.733.733,0,0,0-.732.734h0m-3.009,0a.728.728,0,0,0-.553-.707c.094.418.2.834.309,1.248a.722.722,0,0,0,.244-.54m7.486-4.43a.733.733,0,1,0,.732-.733h0a.733.733,0,0,0-.731.733m13.426,0a.733.733,0,1,0,.733-.733h0a.734.734,0,0,0-.733.733m31.329,8.858a.733.733,0,1,0,.733-.733.733.733,0,0,0-.733.733v0m-40.28-8.858a.733.733,0,1,0,.733-.733h0a.734.734,0,0,0-.733.733m31.329,4.43a.733.733,0,1,0,.733-.734.733.733,0,0,0-.733.734v0m-17.9-4.43a.733.733,0,1,0,.732-.733.733.733,0,0,0-.732.733m4.475,0a.733.733,0,1,0,.734-.733.733.733,0,0,0-.734.733m-13.427,0a.733.733,0,1,0,.734-.733h0a.735.735,0,0,0-.733.733m35.805,4.43a.733.733,0,1,0,.733-.734.733.733,0,0,0-.733.734v0m4.476,0a.732.732,0,1,0,.732-.734.732.732,0,0,0-.732.734h0m-8.952,0a.733.733,0,1,0,.735-.734.733.733,0,0,0-.735.734v0M4.476,40.592a.733.733,0,1,0,.734-.733h0a.734.734,0,0,0-.732.733m62.659,4.43a.733.733,0,1,0,.734-.734.733.733,0,0,0-.734.734h0m-4.476,0a.733.733,0,1,0,.733-.734.733.733,0,0,0-.733.734h0m-4.474,8.857a.732.732,0,1,0,.732-.734.732.732,0,0,0-.732.734h0m-17.9,0a.732.732,0,1,0,.732-.734.732.732,0,0,0-.732.734v0m-4.476,0a.733.733,0,1,0,.733-.734.733.733,0,0,0-.733.734v0m8.951,0a.733.733,0,1,0,.733-.734.733.733,0,0,0-.733.734v0m-13.428,0a.733.733,0,1,0,.734-.734.733.733,0,0,0-.734.734m17.9,0a.733.733,0,1,0,.735-.734.733.733,0,0,0-.735.734v0m4.475,0a.733.733,0,1,0,.733-.734.733.733,0,0,0-.733.734h0m-44.755,0a.733.733,0,1,0,.731-.734.732.732,0,0,0-.731.734v0m4.475,0a.733.733,0,1,0,.733-.734.733.733,0,0,0-.733.734h0m13.426,0a.733.733,0,1,0,.732-.734.732.732,0,0,0-.732.734m26.854,4.43a.733.733,0,1,0,.733-.734.733.733,0,0,0-.733.734m8.951-4.43a.733.733,0,1,0,.733-.734.733.733,0,0,0-.733.734h0m-40.28,0a.733.733,0,1,0,.733-.734.733.733,0,0,0-.733.734h0m-4.476,0a.733.733,0,1,0,.733-.734.733.733,0,0,0-.733.734h0m-8.95-4.428a.733.733,0,1,0,.732-.733h0a.731.731,0,0,0-.731.73v0m26.853,0a.733.733,0,1,0,.733-.733h0a.732.732,0,0,0-.733.731v0m-4.476,0a.733.733,0,1,0,.734-.733.733.733,0,0,0-.734.733h0m-4.475,0a.732.732,0,1,0,.732-.733.732.732,0,0,0-.732.733h0m17.9,0a.733.733,0,1,0,.733-.733h0a.732.732,0,0,0-.733.731v0m-4.475,0a.732.732,0,1,0,.732-.733.732.732,0,0,0-.732.733v0m-17.9,0a.733.733,0,1,0,.733-.733.733.733,0,0,0-.733.733v0m35.806,8.859a.732.732,0,1,0,.732-.734.732.732,0,0,0-.732.734M5.943,53.879a.733.733,0,0,0-1.45-.152q.233.426.477.842a.7.7,0,0,0,.239.043.734.734,0,0,0,.735-.733h0M4.476,49.451a.733.733,0,1,0,.733-.733h0a.732.732,0,0,0-.732.733h0m44.756,0a.733.733,0,1,0,.735-.733.733.733,0,0,0-.735.733v0m-35.8,0a.733.733,0,1,0,.733-.733h0a.732.732,0,0,0-.733.732h0m4.475,0a.733.733,0,1,0,.734-.733h0a.733.733,0,0,0-.733.732h0" transform="translate(36.45 0)" fill="#f40000"/>
        <path id="Trazado_42496" data-name="Trazado 42496" d="M0,7.6A1.539,1.539,0,1,0,1.539,6.058,1.539,1.539,0,0,0,0,7.6Zm0-6.06A1.539,1.539,0,1,0,1.539,0h0A1.539,1.539,0,0,0,0,1.538M6.491,7.6a1.539,1.539,0,1,0,1.54-1.539A1.539,1.539,0,0,0,6.491,7.6v0m0-6.06A1.539,1.539,0,1,0,8.031,0a1.539,1.539,0,0,0-1.54,1.538h0M12.983,7.6a1.539,1.539,0,1,0,1.539-1.539A1.539,1.539,0,0,0,12.983,7.6h0m0-6.06A1.539,1.539,0,1,0,14.523,0h0a1.539,1.539,0,0,0-1.539,1.538" transform="translate(35.554 161.536)" fill="#fff"/>
        <g id="Grupo_19555" data-name="Grupo 19555" transform="translate(35.554 195.145)">
          <path id="Trazado_42455" data-name="Trazado 42455" d="M2.384,4.771A2.385,2.385,0,1,1,4.771,2.384,2.385,2.385,0,0,1,2.384,4.771" transform="translate(5.783 8.276)" fill="#ffb600"/>
          <path id="Trazado_42456" data-name="Trazado 42456" d="M2.485,4.972A2.486,2.486,0,1,1,4.972,2.485,2.486,2.486,0,0,1,2.485,4.972m0-3.681a1.195,1.195,0,1,0,1.2,1.194h0a1.2,1.2,0,0,0-1.2-1.193" transform="translate(26.021 1.891)" fill="#ffb600"/>
          <path id="Trazado_42464" data-name="Trazado 42464" d="M.945,1.891A.946.946,0,1,1,1.891.945a.946.946,0,0,1-.946.946" transform="translate(0 0)" fill="#f40000"/>
          <path id="Trazado_42465" data-name="Trazado 42465" d="M.945,1.891A.946.946,0,1,1,1.891.945a.946.946,0,0,1-.946.947" transform="translate(39.974 12.672)" fill="#f40000"/>
        </g>
        <g id="Grupo_19554" data-name="Grupo 19554" transform="translate(14.622 91.876)">
          <path id="Trazado_42452" data-name="Trazado 42452" d="M0,7.6A1.539,1.539,0,1,0,1.539,6.058,1.539,1.539,0,0,0,0,7.6ZM0,1.538A1.539,1.539,0,1,0,1.539,0h0A1.538,1.538,0,0,0,0,1.538H0M6.491,7.6a1.539,1.539,0,1,0,1.54-1.539A1.539,1.539,0,0,0,6.491,7.6v0m0-6.059A1.539,1.539,0,1,0,8.031,0a1.539,1.539,0,0,0-1.54,1.538h0M12.982,7.6a1.539,1.539,0,1,0,1.54-1.539A1.539,1.539,0,0,0,12.982,7.6h0m0-6.059A1.539,1.539,0,1,0,14.523,0h0a1.539,1.539,0,0,0-1.54,1.538" transform="translate(10.62 0)" fill="#ffb600"/>
          <path id="Trazado_42460" data-name="Trazado 42460" d="M2.656,5.316A2.658,2.658,0,1,1,5.316,2.657,2.658,2.658,0,0,1,2.656,5.316m0-3.935A1.277,1.277,0,1,0,3.935,2.657,1.277,1.277,0,0,0,2.656,1.381" transform="translate(44.107 46.314)" fill="#f40000"/>
          <path id="Trazado_42466" data-name="Trazado 42466" d="M.945,1.891A.946.946,0,1,1,1.891.945a.946.946,0,0,1-.946.947" transform="translate(48.478 9.27)" fill="#f40000"/>
          <path id="Trazado_42467" data-name="Trazado 42467" d="M.945,1.891A.946.946,0,1,1,1.891.945a.946.946,0,0,1-.946.946" transform="translate(0 37.754)" fill="#f40000"/>
        </g>
      </g>
      <path id="Trazado_42130" data-name="Trazado 42130" d="M364.089,0C163.009,0,0,163.009,0,364.09S163.009,728.18,364.089,728.18,728.179,565.171,728.179,364.09,565.17,0,364.089,0m0,627.9" transform="translate(-156.545 307.447)" fill="#f40000"/>
      <g id="Grupo_19250" data-name="Grupo 19250" transform="translate(-476 818.979)">
        <g id="Grupo_19536" data-name="Grupo 19536" clip-path="url(#clip-path-2)">
          <rect id="Rectángulo_22795" data-name="Rectángulo 22795" width="9.421" height="46.777" transform="translate(1356.579 0.179)" fill="red"/>
          <rect id="Rectángulo_22796" data-name="Rectángulo 22796" width="9.421" height="46.777" transform="translate(1337.738 0.179)" fill="red"/>
          <rect id="Rectángulo_22797" data-name="Rectángulo 22797" width="9.42" height="46.777" transform="translate(1318.896 0.179)" fill="red"/>
          <rect id="Rectángulo_22798" data-name="Rectángulo 22798" width="9.42" height="46.777" transform="translate(1300.056 0.179)" fill="red"/>
          <rect id="Rectángulo_22799" data-name="Rectángulo 22799" width="9.421" height="46.777" transform="translate(1281.213 0.179)" fill="red"/>
          <rect id="Rectángulo_22800" data-name="Rectángulo 22800" width="9.422" height="46.777" transform="translate(1262.373 0.179)" fill="red"/>
          <rect id="Rectángulo_22801" data-name="Rectángulo 22801" width="9.42" height="46.777" transform="translate(1243.531 0.179)" fill="red"/>
          <rect id="Rectángulo_22802" data-name="Rectángulo 22802" width="9.422" height="46.777" transform="translate(1224.689 0.179)" fill="red"/>
          <rect id="Rectángulo_22803" data-name="Rectángulo 22803" width="9.421" height="46.777" transform="translate(1205.848 0.179)" fill="red"/>
          <rect id="Rectángulo_22804" data-name="Rectángulo 22804" width="9.421" height="46.777" transform="translate(1187.007 0.179)" fill="red"/>
          <rect id="Rectángulo_22805" data-name="Rectángulo 22805" width="9.421" height="46.777" transform="translate(1168.165 0.179)" fill="red"/>
          <rect id="Rectángulo_22806" data-name="Rectángulo 22806" width="9.422" height="46.777" transform="translate(1149.324 0.179)" fill="red"/>
          <rect id="Rectángulo_22807" data-name="Rectángulo 22807" width="9.421" height="46.777" transform="translate(1130.482 0.179)" fill="red"/>
          <rect id="Rectángulo_22808" data-name="Rectángulo 22808" width="9.42" height="46.777" transform="translate(1111.641 0.179)" fill="red"/>
          <rect id="Rectángulo_22809" data-name="Rectángulo 22809" width="9.421" height="46.777" transform="translate(1092.799 0.179)" fill="red"/>
          <rect id="Rectángulo_22810" data-name="Rectángulo 22810" width="9.421" height="46.777" transform="translate(1073.958 0.179)" fill="red"/>
          <rect id="Rectángulo_22811" data-name="Rectángulo 22811" width="9.42" height="46.777" transform="translate(1055.117 0.179)" fill="red"/>
          <rect id="Rectángulo_22812" data-name="Rectángulo 22812" width="9.421" height="46.777" transform="translate(1036.275 0.179)" fill="red"/>
          <rect id="Rectángulo_22813" data-name="Rectángulo 22813" width="9.422" height="46.777" transform="translate(1017.434 0.179)" fill="red"/>
          <rect id="Rectángulo_22814" data-name="Rectángulo 22814" width="9.42" height="46.777" transform="translate(1347.158 0.179)" fill="#fff"/>
          <rect id="Rectángulo_22815" data-name="Rectángulo 22815" width="9.422" height="46.777" transform="translate(1328.317 0.179)" fill="#fff"/>
          <rect id="Rectángulo_22816" data-name="Rectángulo 22816" width="9.421" height="46.777" transform="translate(1309.475 0.179)" fill="#fff"/>
          <rect id="Rectángulo_22817" data-name="Rectángulo 22817" width="9.422" height="46.777" transform="translate(1290.635 0.179)" fill="#fff"/>
          <rect id="Rectángulo_22818" data-name="Rectángulo 22818" width="9.42" height="46.777" transform="translate(1271.793 0.179)" fill="#fff"/>
          <rect id="Rectángulo_22819" data-name="Rectángulo 22819" width="9.421" height="46.777" transform="translate(1252.952 0.179)" fill="#fff"/>
          <rect id="Rectángulo_22820" data-name="Rectángulo 22820" width="9.421" height="46.777" transform="translate(1234.11 0.179)" fill="#fff"/>
          <rect id="Rectángulo_22821" data-name="Rectángulo 22821" width="9.42" height="46.777" transform="translate(1215.269 0.179)" fill="#fff"/>
          <rect id="Rectángulo_22822" data-name="Rectángulo 22822" width="9.422" height="46.777" transform="translate(1196.427 0.179)" fill="#fff"/>
          <rect id="Rectángulo_22823" data-name="Rectángulo 22823" width="9.421" height="46.777" transform="translate(1177.586 0.179)" fill="#fff"/>
          <rect id="Rectángulo_22824" data-name="Rectángulo 22824" width="9.42" height="46.777" transform="translate(1158.745 0.179)" fill="#fff"/>
          <rect id="Rectángulo_22825" data-name="Rectángulo 22825" width="9.42" height="46.777" transform="translate(1139.904 0.179)" fill="#fff"/>
          <rect id="Rectángulo_22826" data-name="Rectángulo 22826" width="9.422" height="46.777" transform="translate(1121.062 0.179)" fill="#fff"/>
          <rect id="Rectángulo_22827" data-name="Rectángulo 22827" width="9.421" height="46.777" transform="translate(1102.22 0.179)" fill="#fff"/>
          <rect id="Rectángulo_22828" data-name="Rectángulo 22828" width="9.421" height="46.777" transform="translate(1083.38 0.179)" fill="#fff"/>
          <rect id="Rectángulo_22829" data-name="Rectángulo 22829" width="9.421" height="46.777" transform="translate(1064.537 0.179)" fill="#fff"/>
          <rect id="Rectángulo_22830" data-name="Rectángulo 22830" width="9.422" height="46.777" transform="translate(1045.696 0.179)" fill="#fff"/>
          <rect id="Rectángulo_22831" data-name="Rectángulo 22831" width="9.42" height="46.777" transform="translate(1026.855 0.179)" fill="#fff"/>
          <g id="Grupo_19505" data-name="Grupo 19505" transform="translate(0 0.517)">
            <g id="Grupo_19504" data-name="Grupo 19504" clip-path="url(#clip-path-3)">
              <g id="Grupo_19503" data-name="Grupo 19503" transform="translate(1017.435 -0.517)" opacity="0.5">
                <g id="Grupo_19502" data-name="Grupo 19502">
                  <g id="Grupo_19501" data-name="Grupo 19501" clip-path="url(#clip-path-4)">
                    <rect id="Rectángulo_22832" data-name="Rectángulo 22832" width="348.565" height="9.42" transform="translate(-0.001 28.263)" fill="#fff"/>
                    <rect id="Rectángulo_22833" data-name="Rectángulo 22833" width="348.565" height="9.42" transform="translate(-0.001 9.421)" fill="#fff"/>
                    <g id="Grupo_19500" data-name="Grupo 19500" transform="translate(-0.001)">
                      <g id="Grupo_19499" data-name="Grupo 19499" clip-path="url(#clip-path-5)">
                        <g id="Grupo_19498" data-name="Grupo 19498" transform="translate(0.001)" opacity="0.7">
                          <g id="Grupo_19497" data-name="Grupo 19497">
                            <g id="Grupo_19496" data-name="Grupo 19496" clip-path="url(#clip-path-4)">
                              <rect id="Rectángulo_22834" data-name="Rectángulo 22834" width="348.565" height="9.421" transform="translate(-0.001 37.682)" fill="red"/>
                              <rect id="Rectángulo_22835" data-name="Rectángulo 22835" width="348.565" height="9.42" transform="translate(-0.001 18.842)" fill="red"/>
                              <rect id="Rectángulo_22836" data-name="Rectángulo 22836" width="348.565" height="9.42" transform="translate(-0.001)" fill="red"/>
                            </g>
                          </g>
                        </g>
                      </g>
                    </g>
                  </g>
                </g>
              </g>
            </g>
          </g>
          <rect id="Rectángulo_22841" data-name="Rectángulo 22841" width="9.422" height="46.777" transform="translate(1017.434 0.179)" fill="red"/>
          <rect id="Rectángulo_22842" data-name="Rectángulo 22842" width="9.421" height="46.777" transform="translate(998.593 0.179)" fill="red"/>
          <rect id="Rectángulo_22843" data-name="Rectángulo 22843" width="9.42" height="46.777" transform="translate(979.752 0.179)" fill="red"/>
          <rect id="Rectángulo_22844" data-name="Rectángulo 22844" width="9.421" height="46.777" transform="translate(960.91 0.179)" fill="red"/>
          <rect id="Rectángulo_22845" data-name="Rectángulo 22845" width="9.422" height="46.777" transform="translate(942.069 0.179)" fill="red"/>
          <rect id="Rectángulo_22846" data-name="Rectángulo 22846" width="9.42" height="46.777" transform="translate(923.227 0.179)" fill="red"/>
          <rect id="Rectángulo_22847" data-name="Rectángulo 22847" width="9.422" height="46.777" transform="translate(904.386 0.179)" fill="red"/>
          <rect id="Rectángulo_22848" data-name="Rectángulo 22848" width="9.421" height="46.777" transform="translate(885.544 0.179)" fill="red"/>
          <rect id="Rectángulo_22849" data-name="Rectángulo 22849" width="9.422" height="46.777" transform="translate(866.704 0.179)" fill="red"/>
          <rect id="Rectángulo_22850" data-name="Rectángulo 22850" width="9.42" height="46.777" transform="translate(847.862 0.179)" fill="red"/>
          <rect id="Rectángulo_22851" data-name="Rectángulo 22851" width="9.422" height="46.777" transform="translate(829.02 0.179)" fill="red"/>
          <rect id="Rectángulo_22852" data-name="Rectángulo 22852" width="9.421" height="46.777" transform="translate(810.179 0.179)" fill="red"/>
          <rect id="Rectángulo_22853" data-name="Rectángulo 22853" width="9.421" height="46.777" transform="translate(791.338 0.179)" fill="red"/>
          <rect id="Rectángulo_22854" data-name="Rectángulo 22854" width="9.421" height="46.777" transform="translate(772.496 0.179)" fill="red"/>
          <rect id="Rectángulo_22855" data-name="Rectángulo 22855" width="9.421" height="46.777" transform="translate(753.655 0.179)" fill="red"/>
          <rect id="Rectángulo_22856" data-name="Rectángulo 22856" width="9.421" height="46.777" transform="translate(734.813 0.179)" fill="red"/>
          <rect id="Rectángulo_22857" data-name="Rectángulo 22857" width="9.42" height="46.777" transform="translate(715.973 0.179)" fill="red"/>
          <rect id="Rectángulo_22858" data-name="Rectángulo 22858" width="9.421" height="46.777" transform="translate(697.131 0.179)" fill="red"/>
          <rect id="Rectángulo_22859" data-name="Rectángulo 22859" width="9.421" height="46.777" transform="translate(678.289 0.179)" fill="red"/>
          <rect id="Rectángulo_22860" data-name="Rectángulo 22860" width="9.421" height="46.777" transform="translate(1008.014 0.179)" fill="#fff"/>
          <rect id="Rectángulo_22861" data-name="Rectángulo 22861" width="9.421" height="46.777" transform="translate(989.172 0.179)" fill="#fff"/>
          <rect id="Rectángulo_22862" data-name="Rectángulo 22862" width="9.422" height="46.777" transform="translate(970.331 0.179)" fill="#fff"/>
          <rect id="Rectángulo_22863" data-name="Rectángulo 22863" width="9.42" height="46.777" transform="translate(951.489 0.179)" fill="#fff"/>
          <rect id="Rectángulo_22864" data-name="Rectángulo 22864" width="9.421" height="46.777" transform="translate(932.648 0.179)" fill="#fff"/>
          <rect id="Rectángulo_22865" data-name="Rectángulo 22865" width="9.421" height="46.777" transform="translate(913.806 0.179)" fill="#fff"/>
          <rect id="Rectángulo_22866" data-name="Rectángulo 22866" width="9.42" height="46.777" transform="translate(894.966 0.179)" fill="#fff"/>
          <rect id="Rectángulo_22867" data-name="Rectángulo 22867" width="9.42" height="46.777" transform="translate(876.124 0.179)" fill="#fff"/>
          <rect id="Rectángulo_22868" data-name="Rectángulo 22868" width="9.421" height="46.777" transform="translate(857.282 0.179)" fill="#fff"/>
          <rect id="Rectángulo_22869" data-name="Rectángulo 22869" width="9.422" height="46.777" transform="translate(838.441 0.179)" fill="#fff"/>
          <rect id="Rectángulo_22870" data-name="Rectángulo 22870" width="9.42" height="46.777" transform="translate(819.6 0.179)" fill="#fff"/>
          <rect id="Rectángulo_22871" data-name="Rectángulo 22871" width="9.422" height="46.777" transform="translate(800.758 0.179)" fill="#fff"/>
          <rect id="Rectángulo_22872" data-name="Rectángulo 22872" width="9.421" height="46.777" transform="translate(781.917 0.179)" fill="#fff"/>
          <rect id="Rectángulo_22873" data-name="Rectángulo 22873" width="9.421" height="46.777" transform="translate(763.076 0.179)" fill="#fff"/>
          <rect id="Rectángulo_22874" data-name="Rectángulo 22874" width="9.42" height="46.777" transform="translate(744.234 0.179)" fill="#fff"/>
          <rect id="Rectángulo_22875" data-name="Rectángulo 22875" width="9.422" height="46.777" transform="translate(725.393 0.179)" fill="#fff"/>
          <rect id="Rectángulo_22876" data-name="Rectángulo 22876" width="9.421" height="46.777" transform="translate(706.551 0.179)" fill="#fff"/>
          <rect id="Rectángulo_22877" data-name="Rectángulo 22877" width="9.421" height="46.777" transform="translate(687.711 0.179)" fill="#fff"/>
          <g id="Grupo_19515" data-name="Grupo 19515" transform="translate(0 0.517)">
            <g id="Grupo_19514" data-name="Grupo 19514" clip-path="url(#clip-path-3)">
              <g id="Grupo_19513" data-name="Grupo 19513" transform="translate(678.289 -0.517)" opacity="0.5">
                <g id="Grupo_19512" data-name="Grupo 19512">
                  <g id="Grupo_19511" data-name="Grupo 19511" clip-path="url(#clip-path-5)">
                    <rect id="Rectángulo_22878" data-name="Rectángulo 22878" width="348.566" height="9.42" transform="translate(0 28.263)" fill="#fff"/>
                    <rect id="Rectángulo_22879" data-name="Rectángulo 22879" width="348.566" height="9.42" transform="translate(0 9.421)" fill="#fff"/>
                    <g id="Grupo_19510" data-name="Grupo 19510">
                      <g id="Grupo_19509" data-name="Grupo 19509" clip-path="url(#clip-path-5)">
                        <g id="Grupo_19508" data-name="Grupo 19508" opacity="0.7">
                          <g id="Grupo_19507" data-name="Grupo 19507">
                            <g id="Grupo_19506" data-name="Grupo 19506" clip-path="url(#clip-path-5)">
                              <rect id="Rectángulo_22880" data-name="Rectángulo 22880" width="348.566" height="9.421" transform="translate(0 37.682)" fill="red"/>
                              <rect id="Rectángulo_22881" data-name="Rectángulo 22881" width="348.566" height="9.42" transform="translate(0 18.842)" fill="red"/>
                              <rect id="Rectángulo_22882" data-name="Rectángulo 22882" width="348.566" height="9.42" fill="red"/>
                            </g>
                          </g>
                        </g>
                      </g>
                    </g>
                  </g>
                </g>
              </g>
            </g>
          </g>
          <rect id="Rectángulo_22887" data-name="Rectángulo 22887" width="9.421" height="46.777" transform="translate(678.289 0.179)" fill="red"/>
          <rect id="Rectángulo_22888" data-name="Rectángulo 22888" width="9.42" height="46.777" transform="translate(659.449 0.179)" fill="red"/>
          <rect id="Rectángulo_22889" data-name="Rectángulo 22889" width="9.421" height="46.777" transform="translate(640.606 0.179)" fill="red"/>
          <rect id="Rectángulo_22890" data-name="Rectángulo 22890" width="9.422" height="46.777" transform="translate(621.766 0.179)" fill="red"/>
          <rect id="Rectángulo_22891" data-name="Rectángulo 22891" width="9.421" height="46.777" transform="translate(602.924 0.179)" fill="red"/>
          <rect id="Rectángulo_22892" data-name="Rectángulo 22892" width="9.421" height="46.777" transform="translate(584.083 0.179)" fill="red"/>
          <rect id="Rectángulo_22893" data-name="Rectángulo 22893" width="9.421" height="46.777" transform="translate(565.241 0.179)" fill="red"/>
          <rect id="Rectángulo_22894" data-name="Rectángulo 22894" width="9.422" height="46.777" transform="translate(546.4 0.179)" fill="red"/>
          <rect id="Rectángulo_22895" data-name="Rectángulo 22895" width="9.42" height="46.777" transform="translate(527.558 0.179)" fill="red"/>
          <rect id="Rectángulo_22896" data-name="Rectángulo 22896" width="9.421" height="46.777" transform="translate(508.718 0.179)" fill="red"/>
          <rect id="Rectángulo_22897" data-name="Rectángulo 22897" width="9.421" height="46.777" transform="translate(489.875 0.179)" fill="red"/>
          <rect id="Rectángulo_22898" data-name="Rectángulo 22898" width="9.421" height="46.777" transform="translate(471.034 0.179)" fill="red"/>
          <rect id="Rectángulo_22899" data-name="Rectángulo 22899" width="9.42" height="46.777" transform="translate(452.193 0.179)" fill="red"/>
          <rect id="Rectángulo_22900" data-name="Rectángulo 22900" width="9.421" height="46.777" transform="translate(433.351 0.179)" fill="red"/>
          <rect id="Rectángulo_22901" data-name="Rectángulo 22901" width="9.421" height="46.777" transform="translate(414.51 0.179)" fill="red"/>
          <rect id="Rectángulo_22902" data-name="Rectángulo 22902" width="9.42" height="46.777" transform="translate(395.669 0.179)" fill="red"/>
          <rect id="Rectángulo_22903" data-name="Rectángulo 22903" width="9.422" height="46.777" transform="translate(376.827 0.179)" fill="red"/>
          <rect id="Rectángulo_22904" data-name="Rectángulo 22904" width="9.421" height="46.777" transform="translate(357.986 0.179)" fill="red"/>
          <rect id="Rectángulo_22905" data-name="Rectángulo 22905" width="9.421" height="46.777" transform="translate(339.145 0.179)" fill="red"/>
          <rect id="Rectángulo_22906" data-name="Rectángulo 22906" width="9.421" height="46.777" transform="translate(668.868 0.179)" fill="#fff"/>
          <rect id="Rectángulo_22907" data-name="Rectángulo 22907" width="9.422" height="46.777" transform="translate(650.027 0.179)" fill="#fff"/>
          <rect id="Rectángulo_22908" data-name="Rectángulo 22908" width="9.42" height="46.777" transform="translate(631.186 0.179)" fill="#fff"/>
          <rect id="Rectángulo_22909" data-name="Rectángulo 22909" width="9.421" height="46.777" transform="translate(612.345 0.179)" fill="#fff"/>
          <rect id="Rectángulo_22910" data-name="Rectángulo 22910" width="9.421" height="46.777" transform="translate(593.503 0.179)" fill="#fff"/>
          <rect id="Rectángulo_22911" data-name="Rectángulo 22911" width="9.421" height="46.777" transform="translate(574.662 0.179)" fill="#fff"/>
          <rect id="Rectángulo_22912" data-name="Rectángulo 22912" width="9.42" height="46.777" transform="translate(555.82 0.179)" fill="#fff"/>
          <rect id="Rectángulo_22913" data-name="Rectángulo 22913" width="9.421" height="46.777" transform="translate(536.979 0.179)" fill="#fff"/>
          <rect id="Rectángulo_22914" data-name="Rectángulo 22914" width="9.422" height="46.777" transform="translate(518.137 0.179)" fill="#fff"/>
          <rect id="Rectángulo_22915" data-name="Rectángulo 22915" width="9.421" height="46.777" transform="translate(499.297 0.179)" fill="#fff"/>
          <rect id="Rectángulo_22916" data-name="Rectángulo 22916" width="9.422" height="46.777" transform="translate(480.455 0.179)" fill="#fff"/>
          <rect id="Rectángulo_22917" data-name="Rectángulo 22917" width="9.421" height="46.777" transform="translate(461.613 0.179)" fill="#fff"/>
          <rect id="Rectángulo_22918" data-name="Rectángulo 22918" width="9.421" height="46.777" transform="translate(442.773 0.179)" fill="#fff"/>
          <rect id="Rectángulo_22919" data-name="Rectángulo 22919" width="9.42" height="46.777" transform="translate(423.931 0.179)" fill="#fff"/>
          <rect id="Rectángulo_22920" data-name="Rectángulo 22920" width="9.422" height="46.777" transform="translate(405.089 0.179)" fill="#fff"/>
          <rect id="Rectángulo_22921" data-name="Rectángulo 22921" width="9.421" height="46.777" transform="translate(386.248 0.179)" fill="#fff"/>
          <rect id="Rectángulo_22922" data-name="Rectángulo 22922" width="9.421" height="46.777" transform="translate(367.407 0.179)" fill="#fff"/>
          <rect id="Rectángulo_22923" data-name="Rectángulo 22923" width="9.42" height="46.777" transform="translate(348.565 0.179)" fill="#fff"/>
          <g id="Grupo_19525" data-name="Grupo 19525" transform="translate(0 0.517)">
            <g id="Grupo_19524" data-name="Grupo 19524" clip-path="url(#clip-path-3)">
              <g id="Grupo_19523" data-name="Grupo 19523" transform="translate(339.145 -0.517)" opacity="0.5">
                <g id="Grupo_19522" data-name="Grupo 19522">
                  <g id="Grupo_19521" data-name="Grupo 19521" clip-path="url(#clip-path-4)">
                    <rect id="Rectángulo_22924" data-name="Rectángulo 22924" width="348.565" height="9.42" transform="translate(0 28.263)" fill="#fff"/>
                    <rect id="Rectángulo_22925" data-name="Rectángulo 22925" width="348.565" height="9.42" transform="translate(0 9.421)" fill="#fff"/>
                    <g id="Grupo_19520" data-name="Grupo 19520" transform="translate(0)">
                      <g id="Grupo_19519" data-name="Grupo 19519" clip-path="url(#clip-path-4)">
                        <g id="Grupo_19518" data-name="Grupo 19518" transform="translate(0)" opacity="0.7">
                          <g id="Grupo_19517" data-name="Grupo 19517">
                            <g id="Grupo_19516" data-name="Grupo 19516" clip-path="url(#clip-path-4)">
                              <rect id="Rectángulo_22926" data-name="Rectángulo 22926" width="348.565" height="9.421" transform="translate(0 37.682)" fill="red"/>
                              <rect id="Rectángulo_22927" data-name="Rectángulo 22927" width="348.565" height="9.42" transform="translate(0 18.842)" fill="red"/>
                              <rect id="Rectángulo_22928" data-name="Rectángulo 22928" width="348.565" height="9.42" fill="red"/>
                            </g>
                          </g>
                        </g>
                      </g>
                    </g>
                  </g>
                </g>
              </g>
            </g>
          </g>
          <rect id="Rectángulo_22933" data-name="Rectángulo 22933" width="9.421" height="46.777" transform="translate(339.145 0.179)" fill="red"/>
          <rect id="Rectángulo_22934" data-name="Rectángulo 22934" width="9.42" height="46.777" transform="translate(320.304 0.179)" fill="red"/>
          <rect id="Rectángulo_22935" data-name="Rectángulo 22935" width="9.422" height="46.777" transform="translate(301.462 0.179)" fill="red"/>
          <rect id="Rectángulo_22936" data-name="Rectángulo 22936" width="9.421" height="46.777" transform="translate(282.62 0.179)" fill="red"/>
          <rect id="Rectángulo_22937" data-name="Rectángulo 22937" width="9.421" height="46.777" transform="translate(263.78 0.179)" fill="red"/>
          <rect id="Rectángulo_22938" data-name="Rectángulo 22938" width="9.421" height="46.777" transform="translate(244.937 0.179)" fill="red"/>
          <rect id="Rectángulo_22939" data-name="Rectángulo 22939" width="9.422" height="46.777" transform="translate(226.096 0.179)" fill="red"/>
          <rect id="Rectángulo_22940" data-name="Rectángulo 22940" width="9.421" height="46.777" transform="translate(207.255 0.179)" fill="red"/>
          <rect id="Rectángulo_22941" data-name="Rectángulo 22941" width="9.421" height="46.777" transform="translate(188.414 0.179)" fill="red"/>
          <rect id="Rectángulo_22942" data-name="Rectángulo 22942" width="9.421" height="46.777" transform="translate(169.572 0.179)" fill="red"/>
          <rect id="Rectángulo_22943" data-name="Rectángulo 22943" width="9.422" height="46.777" transform="translate(150.731 0.179)" fill="red"/>
          <rect id="Rectángulo_22944" data-name="Rectángulo 22944" width="9.42" height="46.777" transform="translate(131.889 0.179)" fill="red"/>
          <rect id="Rectángulo_22945" data-name="Rectángulo 22945" width="9.421" height="46.777" transform="translate(113.048 0.179)" fill="red"/>
          <rect id="Rectángulo_22946" data-name="Rectángulo 22946" width="9.421" height="46.777" transform="translate(94.206 0.179)" fill="red"/>
          <rect id="Rectángulo_22947" data-name="Rectángulo 22947" width="9.42" height="46.777" transform="translate(75.365 0.179)" fill="red"/>
          <rect id="Rectángulo_22948" data-name="Rectángulo 22948" width="9.42" height="46.777" transform="translate(56.524 0.179)" fill="red"/>
          <rect id="Rectángulo_22949" data-name="Rectángulo 22949" width="9.421" height="46.777" transform="translate(37.682 0.179)" fill="red"/>
          <rect id="Rectángulo_22950" data-name="Rectángulo 22950" width="9.422" height="46.777" transform="translate(18.841 0.179)" fill="red"/>
          <rect id="Rectángulo_22951" data-name="Rectángulo 22951" width="9.42" height="46.777" transform="translate(0 0.179)" fill="red"/>
          <rect id="Rectángulo_22952" data-name="Rectángulo 22952" width="9.422" height="46.777" transform="translate(329.724 0.179)" fill="#fff"/>
          <rect id="Rectángulo_22953" data-name="Rectángulo 22953" width="9.421" height="46.777" transform="translate(310.882 0.179)" fill="#fff"/>
          <rect id="Rectángulo_22954" data-name="Rectángulo 22954" width="9.42" height="46.777" transform="translate(292.042 0.179)" fill="#fff"/>
          <rect id="Rectángulo_22955" data-name="Rectángulo 22955" width="9.421" height="46.777" transform="translate(273.199 0.179)" fill="#fff"/>
          <rect id="Rectángulo_22956" data-name="Rectángulo 22956" width="9.422" height="46.777" transform="translate(254.358 0.179)" fill="#fff"/>
          <rect id="Rectángulo_22957" data-name="Rectángulo 22957" width="9.42" height="46.777" transform="translate(235.518 0.179)" fill="#fff"/>
          <rect id="Rectángulo_22958" data-name="Rectángulo 22958" width="9.42" height="46.777" transform="translate(216.676 0.179)" fill="#fff"/>
          <rect id="Rectángulo_22959" data-name="Rectángulo 22959" width="9.421" height="46.777" transform="translate(197.835 0.179)" fill="#fff"/>
          <rect id="Rectángulo_22960" data-name="Rectángulo 22960" width="9.421" height="46.777" transform="translate(178.993 0.179)" fill="#fff"/>
          <rect id="Rectángulo_22961" data-name="Rectángulo 22961" width="9.42" height="46.777" transform="translate(160.152 0.179)" fill="#fff"/>
          <rect id="Rectángulo_22962" data-name="Rectángulo 22962" width="9.421" height="46.777" transform="translate(141.31 0.179)" fill="#fff"/>
          <rect id="Rectángulo_22963" data-name="Rectángulo 22963" width="9.422" height="46.777" transform="translate(122.469 0.179)" fill="#fff"/>
          <rect id="Rectángulo_22964" data-name="Rectángulo 22964" width="9.42" height="46.777" transform="translate(103.627 0.179)" fill="#fff"/>
          <rect id="Rectángulo_22965" data-name="Rectángulo 22965" width="9.422" height="46.777" transform="translate(84.786 0.179)" fill="#fff"/>
          <rect id="Rectángulo_22966" data-name="Rectángulo 22966" width="9.421" height="46.777" transform="translate(65.944 0.179)" fill="#fff"/>
          <rect id="Rectángulo_22967" data-name="Rectángulo 22967" width="9.422" height="46.777" transform="translate(47.104 0.179)" fill="#fff"/>
          <rect id="Rectángulo_22968" data-name="Rectángulo 22968" width="9.42" height="46.777" transform="translate(28.262 0.179)" fill="#fff"/>
          <rect id="Rectángulo_22969" data-name="Rectángulo 22969" width="9.422" height="46.777" transform="translate(9.42 0.179)" fill="#fff"/>
          <g id="Grupo_19535" data-name="Grupo 19535" transform="translate(0 0.517)">
            <g id="Grupo_19534" data-name="Grupo 19534" clip-path="url(#clip-path-3)">
              <g id="Grupo_19533" data-name="Grupo 19533" transform="translate(0 -0.517)" opacity="0.5">
                <g id="Grupo_19532" data-name="Grupo 19532">
                  <g id="Grupo_19531" data-name="Grupo 19531" clip-path="url(#clip-path-4)">
                    <rect id="Rectángulo_22970" data-name="Rectángulo 22970" width="348.565" height="9.42" transform="translate(0 28.263)" fill="#fff"/>
                    <rect id="Rectángulo_22971" data-name="Rectángulo 22971" width="348.565" height="9.42" transform="translate(0 9.421)" fill="#fff"/>
                    <g id="Grupo_19530" data-name="Grupo 19530" transform="translate(0)">
                      <g id="Grupo_19529" data-name="Grupo 19529" clip-path="url(#clip-path-4)">
                        <g id="Grupo_19528" data-name="Grupo 19528" transform="translate(0)" opacity="0.7">
                          <g id="Grupo_19527" data-name="Grupo 19527">
                            <g id="Grupo_19526" data-name="Grupo 19526" clip-path="url(#clip-path-4)">
                              <rect id="Rectángulo_22972" data-name="Rectángulo 22972" width="348.565" height="9.421" transform="translate(0 37.682)" fill="red"/>
                              <rect id="Rectángulo_22973" data-name="Rectángulo 22973" width="348.565" height="9.42" transform="translate(0 18.842)" fill="red"/>
                              <rect id="Rectángulo_22974" data-name="Rectángulo 22974" width="348.565" height="9.42" transform="translate(0)" fill="red"/>
                            </g>
                          </g>
                        </g>
                      </g>
                    </g>
                  </g>
                </g>
              </g>
            </g>
          </g>
        </g>
      </g>
      <rect id="Rectángulo_22201" data-name="Rectángulo 22201" width="414" height="60" transform="translate(0 836)" fill="#222"/>
    </g>
  </g>
</svg>
