<svg id="BG-tablet" xmlns="http://www.w3.org/2000/svg" xmlns:xlink="http://www.w3.org/1999/xlink" width="768" height="1024" viewBox="0 0 768 1024">
  <defs>
    <clipPath id="clip-path">
      <rect id="Rectángulo_23339" data-name="Rectángulo 23339" width="768" height="1024" fill="#fff"/>
    </clipPath>
    <clipPath id="clip-path-2">
      <rect id="Rectángulo_22979" data-name="Rectángulo 22979" width="1366" height="235.8" fill="none"/>
    </clipPath>
    <clipPath id="clip-path-3">
      <rect id="Rectángulo_22840" data-name="Rectángulo 22840" width="1366" height="46" transform="translate(0 -0.149)" fill="none"/>
    </clipPath>
    <clipPath id="clip-path-4">
      <rect id="Rectángulo_22839" data-name="Rectángulo 22839" width="348.565" height="235.517" fill="none"/>
    </clipPath>
    <clipPath id="clip-path-5">
      <rect id="Rectángulo_22838" data-name="Rectángulo 22838" width="348.566" height="235.517" fill="none"/>
    </clipPath>
  </defs>
  <g id="Enmascarar_grupo_1358" data-name="Enmascarar grupo 1358" clip-path="url(#clip-path)">
    <g id="Grupo_19815" data-name="Grupo 19815">
      <g id="Grupo_19805" data-name="Grupo 19805" transform="translate(561.803 12)">
        <path id="Trazado_42446" data-name="Trazado 42446" d="M42.012,118.916q0,54.434,0,108.867c0,1.054.014,2.11.061,3.163a9.294,9.294,0,0,1-4.157,8.585,5.467,5.467,0,0,0-2.47,5.272c.437,11.712.772,23.428,1.129,35.143q.782,25.576,1.547,51.151.7,23.022,1.429,46.043c.382,12.48.814,24.958,1.094,37.441.187,8.348-4.527,15.395-11.309,17.309-9.837,2.777-19.21-5.33-19.091-16.737.1-9.26.492-18.517.775-27.775q.642-21.09,1.309-42.179.8-26.365,1.583-52.73.712-23.023,1.485-46.043c.091-2.779-.5-3.966-2.706-5C5.419,238.008,1.911,231.685,1.109,223.5-.241,209.712-.1,195.861.2,182.041.663,161.185,1.3,140.326,2.3,119.492c.6-12.508,1.814-25,3.146-37.446,1.973-18.437,4.549-36.78,9.712-54.567,2.1-7.229,4.573-14.3,8.824-20.442C26.4,3.539,29.285.618,33.557.063a8.864,8.864,0,0,1,3.219.214c2.656.659,3.9,2.277,3.945,5.215q.228,13.889.342,27.781.237,33.943.406,67.886c.032,5.919,0,11.837,0,17.756h.539" transform="translate(0 91.441)" fill="#f2f4f5"/>
        <path id="Trazado_42495" data-name="Trazado 42495" d="M137.318,62.728a1.481,1.481,0,1,1-1.485,1.482,1.482,1.482,0,0,1,1.485-1.482h0M126.776,64.21a1.483,1.483,0,1,0,1.484-1.482,1.483,1.483,0,0,0-1.484,1.482v0m-9.053,0a1.482,1.482,0,1,0,1.482-1.482h0a1.48,1.48,0,0,0-1.482,1.479v0M2.967,55.25a1.47,1.47,0,0,0-.494-1.1c-.219.838-.434,1.679-.625,2.528A1.481,1.481,0,0,0,2.967,55.25m105.7,8.96a1.483,1.483,0,1,0,1.485-1.482h0a1.48,1.48,0,0,0-1.484,1.477v0M1.483,65.69a1.481,1.481,0,1,0-.775-2.741c-.106.763-.2,1.528-.285,2.3a1.472,1.472,0,0,0,1.06.444m43.8-1.481a1.483,1.483,0,1,0,1.484-1.482h0a1.48,1.48,0,0,0-1.483,1.478v0m27.167,0a1.484,1.484,0,1,0,1.485-1.482h0A1.48,1.48,0,0,0,72.446,64.2v.005m-9.057,0a1.484,1.484,0,1,0,1.485-1.482h0a1.482,1.482,0,0,0-1.485,1.48v0m-9.055,0a1.482,1.482,0,1,0,1.482-1.482h0a1.481,1.481,0,0,0-1.482,1.48v0m27.169,0a1.479,1.479,0,1,0,0-.006v.006m45.274-8.96a1.483,1.483,0,1,0,1.484-1.486,1.483,1.483,0,0,0-1.484,1.486m-36.22,8.96a1.483,1.483,0,1,0,1.484-1.482h0A1.479,1.479,0,0,0,90.558,64.2v.006m9.055,0a1.477,1.477,0,1,0,0-.01v.01m9.055-8.96a1.483,1.483,0,1,0,1.484-1.486,1.483,1.483,0,0,0-1.484,1.486m-27.164,0a1.481,1.481,0,1,0,1.481-1.486A1.482,1.482,0,0,0,81.5,55.25m9.054,0a1.483,1.483,0,1,0,1.482-1.486,1.483,1.483,0,0,0-1.482,1.486m-72.444,0a1.482,1.482,0,1,0,1.48-1.486,1.482,1.482,0,0,0-1.48,1.486h0m99.61,0a1.482,1.482,0,1,0,1.482-1.486,1.482,1.482,0,0,0-1.482,1.486m18.11,0a1.483,1.483,0,1,0,1.485-1.486,1.483,1.483,0,0,0-1.485,1.486m-36.222,0a1.483,1.483,0,1,0,1.486-1.486,1.483,1.483,0,0,0-1.486,1.486v0m-63.39,0a1.484,1.484,0,1,0,1.484-1.486,1.484,1.484,0,0,0-1.484,1.486m-9.054,0a1.483,1.483,0,1,0,1.483-1.486,1.483,1.483,0,0,0-1.483,1.486m18.111,0a1.483,1.483,0,1,0,1.483-1.486A1.483,1.483,0,0,0,45.28,55.25m27.167,0a1.484,1.484,0,1,0,1.483-1.486,1.484,1.484,0,0,0-1.483,1.486m-18.113,0a1.482,1.482,0,1,0,1.482-1.486,1.482,1.482,0,0,0-1.482,1.486m9.055,0a1.484,1.484,0,1,0,1.485-1.486,1.484,1.484,0,0,0-1.485,1.486m-54.332,0a1.484,1.484,0,1,0,1.481-1.486h0A1.486,1.486,0,0,0,9.057,55.25m27.166,8.96a1.484,1.484,0,1,0,1.486-1.482h0a1.481,1.481,0,0,0-1.484,1.478v0m-9.054,8.961a1.483,1.483,0,1,0,1.483-1.484h0a1.483,1.483,0,0,0-1.483,1.484h0m-18.112,0a1.484,1.484,0,1,0,1.483-1.484h0a1.483,1.483,0,0,0-1.481,1.484m27.166,0a1.484,1.484,0,1,0,1.484-1.484,1.484,1.484,0,0,0-1.484,1.484h0M1.484,83.618A1.484,1.484,0,1,0,.423,81.1c.083.771.179,1.533.285,2.295a1.489,1.489,0,0,0,.775.226m43.8-10.447a1.483,1.483,0,1,0,1.483-1.484,1.483,1.483,0,0,0-1.483,1.484h0M99.613,82.13a1.483,1.483,0,1,0,1.486-1.483,1.483,1.483,0,0,0-1.486,1.483h0M54.335,73.171a1.482,1.482,0,1,0,1.482-1.484,1.482,1.482,0,0,0-1.482,1.484M90.559,82.13a1.483,1.483,0,1,0,1.484-1.483h0a1.484,1.484,0,0,0-1.483,1.483m36.22,0a1.483,1.483,0,1,0,1.484-1.483,1.483,1.483,0,0,0-1.484,1.483m-18.11,0a1.483,1.483,0,1,0,1.484-1.483h0a1.485,1.485,0,0,0-1.484,1.483m27.167,0a1.483,1.483,0,1,0,1.485-1.483,1.483,1.483,0,0,0-1.485,1.483m-18.11,0a1.482,1.482,0,1,0,1.482-1.483,1.482,1.482,0,0,0-1.482,1.483M18.113,73.171a1.482,1.482,0,1,0,1.48-1.484h0a1.48,1.48,0,0,0-1.479,1.48v0M0,73.171a1.484,1.484,0,1,0,1.483-1.484h0A1.482,1.482,0,0,0,0,73.17H0M9.055,64.21a1.484,1.484,0,1,0,1.485-1.482h0a1.481,1.481,0,0,0-1.481,1.48v0m126.778,8.961a1.483,1.483,0,1,0,1.485-1.484,1.483,1.483,0,0,0-1.485,1.484m-9.057,0a1.483,1.483,0,1,0,1.484-1.484,1.483,1.483,0,0,0-1.484,1.484M18.113,64.21A1.482,1.482,0,1,0,19.6,62.728h0A1.477,1.477,0,0,0,18.113,64.2v.007m9.055,0a1.483,1.483,0,1,0,1.485-1.482h0a1.481,1.481,0,0,0-1.483,1.479v0M81.5,73.171a1.481,1.481,0,1,0,1.481-1.484A1.481,1.481,0,0,0,81.5,73.171v0m9.054,0a1.483,1.483,0,1,0,1.483-1.484,1.483,1.483,0,0,0-1.483,1.484v0m-27.169,0a1.484,1.484,0,1,0,1.485-1.484,1.484,1.484,0,0,0-1.485,1.484m54.335,0a1.482,1.482,0,1,0,1.482-1.484,1.482,1.482,0,0,0-1.482,1.484m-45.278,0a1.484,1.484,0,1,0,1.483-1.484h0a1.482,1.482,0,0,0-1.483,1.482v0m36.221,0a1.483,1.483,0,1,0,1.484-1.484,1.484,1.484,0,0,0-1.484,1.484v0m-9.055,0a1.48,1.48,0,1,0,0-.007v.007M45.279,10.444a1.483,1.483,0,1,0,1.483-1.483,1.483,1.483,0,0,0-1.483,1.483v0m72.445,26.882a1.478,1.478,0,1,0,0-.008v.008M72.446,19.406a1.484,1.484,0,1,0,1.483-1.485,1.484,1.484,0,0,0-1.483,1.485m-18.112,0a1.482,1.482,0,1,0,1.482-1.485,1.482,1.482,0,0,0-1.482,1.485m9.055,0a1.484,1.484,0,1,0,1.485-1.485,1.484,1.484,0,0,0-1.485,1.485m27.169,0a1.483,1.483,0,1,0,1.483-1.485,1.483,1.483,0,0,0-1.483,1.485m18.11,0a1.483,1.483,0,1,0,1.484-1.485,1.483,1.483,0,0,0-1.484,1.485m12.021,0a1.483,1.483,0,1,0,0,.005v-.005M92.04,2.969a1.481,1.481,0,0,0,1.429-1.112c-.948-.257-1.9-.5-2.867-.725a1.551,1.551,0,0,0-.045.353A1.484,1.484,0,0,0,92.04,2.969m45.278,104.56a1.484,1.484,0,0,0,0,2.968,1.4,1.4,0,0,0,.48-.088c.332-.561.658-1.129.968-1.7a1.481,1.481,0,0,0-1.447-1.177M45.279,19.406a1.483,1.483,0,1,0,1.483-1.485,1.483,1.483,0,0,0-1.483,1.485m54.333,0a1.483,1.483,0,1,0,1.486-1.485,1.483,1.483,0,0,0-1.486,1.485v0m-72.444,0a1.483,1.483,0,1,0,1.483-1.485,1.483,1.483,0,0,0-1.483,1.485m9.053,0a1.484,1.484,0,1,0,1.484-1.485,1.484,1.484,0,0,0-1.484,1.485m45.281,0a1.481,1.481,0,1,0,1.481-1.485A1.482,1.482,0,0,0,81.5,19.406m27.164-8.962a1.48,1.48,0,1,0,0-.005v.005M63.389,1.486A1.484,1.484,0,1,0,64.873,0a1.484,1.484,0,0,0-1.485,1.486m36.224,8.958a1.478,1.478,0,1,0,0-.01v.01m-63.391,0a1.484,1.484,0,1,0,1.485-1.483h0a1.482,1.482,0,0,0-1.484,1.479v0M72.446,1.486A1.484,1.484,0,1,0,73.929,0a1.484,1.484,0,0,0-1.483,1.486h0m9.057,0A1.481,1.481,0,1,0,82.984,0,1.482,1.482,0,0,0,81.5,1.486h0M55.816,2.97A1.484,1.484,0,0,0,57.3,1.486a1.266,1.266,0,0,0-.048-.353c-.964.222-1.914.468-2.861.725A1.478,1.478,0,0,0,55.816,2.97m7.573,7.475a1.484,1.484,0,1,0,1.485-1.483,1.484,1.484,0,0,0-1.485,1.483v0m-9.055,0a1.482,1.482,0,1,0,1.482-1.483,1.482,1.482,0,0,0-1.482,1.483v0M81.5,82.132a1.481,1.481,0,1,0,1.481-1.483A1.481,1.481,0,0,0,81.5,82.132m0-71.687a1.48,1.48,0,1,0,0-.006v.006m9.054,0a1.483,1.483,0,1,0,1.483-1.483h0a1.48,1.48,0,0,0-1.483,1.477v.006m-18.111,0A1.484,1.484,0,1,0,73.93,8.962h0a1.48,1.48,0,0,0-1.483,1.478v.005m63.388,35.846a1.483,1.483,0,1,0,1.485-1.485,1.482,1.482,0,0,0-1.485,1.485v0m-45.277,0a1.483,1.483,0,1,0,1.483-1.485,1.483,1.483,0,0,0-1.483,1.485v0m-9.054,0a1.482,1.482,0,1,0,0-.006v.006m18.109,0a1.48,1.48,0,1,0,0-.009v.009m9.055,0a1.483,1.483,0,1,0,1.484-1.485,1.483,1.483,0,0,0-1.484,1.485v0m9.057,0a1.482,1.482,0,1,0,1.482-1.485,1.482,1.482,0,0,0-1.482,1.485v0m-45.278,0a1.484,1.484,0,1,0,1.483-1.485,1.484,1.484,0,0,0-1.483,1.485v0m-54.332,0a1.481,1.481,0,1,0,0-.006v.006m9.055,0a1.483,1.483,0,1,0,1.483-1.485,1.483,1.483,0,0,0-1.483,1.485v0m9.053,0a1.484,1.484,0,1,0,1.484-1.485,1.484,1.484,0,0,0-1.484,1.485v0m-27.165,0a1.484,1.484,0,1,0,1.483-1.485h0A1.482,1.482,0,0,0,9.056,46.29h0m54.332,0a1.484,1.484,0,1,0,1.485-1.485,1.484,1.484,0,0,0-1.485,1.485h0m-18.11,0a1.483,1.483,0,1,0,1.483-1.485,1.483,1.483,0,0,0-1.483,1.485v0m9.055,0a1.482,1.482,0,1,0,1.482-1.485,1.482,1.482,0,0,0-1.482,1.485h0m72.443-8.965a1.478,1.478,0,1,0,0-.008v.008m-36.22,0a1.483,1.483,0,1,0,1.484-1.482h0a1.477,1.477,0,0,0-1.483,1.472v.011m-9.054,0a1.477,1.477,0,1,0,0-.012v.012m45.274,8.965a1.483,1.483,0,1,0,1.484-1.485,1.483,1.483,0,0,0-1.484,1.485v0M63.389,37.326a1.484,1.484,0,1,0,1.485-1.482h0a1.48,1.48,0,0,0-1.485,1.475v.007m45.278,0a1.483,1.483,0,1,0,1.485-1.482h0a1.478,1.478,0,0,0-1.484,1.472v.01m-9.055,0a1.475,1.475,0,1,0,0-.015v.015m-27.166,0a1.484,1.484,0,1,0,1.485-1.482h0a1.477,1.477,0,0,0-1.483,1.472v.011m-45.278,0a1.483,1.483,0,1,0,1.484-1.482h0a1.478,1.478,0,0,0-1.483,1.474v.009m-9.055,0A1.482,1.482,0,1,0,19.6,35.844h0a1.475,1.475,0,0,0-1.48,1.47v.012m27.165,0a1.483,1.483,0,1,0,1.483-1.482h0a1.478,1.478,0,0,0-1.483,1.474v.009m-9.057,0a1.484,1.484,0,1,0,1.486-1.482h0a1.479,1.479,0,0,0-1.484,1.474v.008m18.112,0a1.479,1.479,0,1,0,0-.006v.006M84.466,135.9a1.481,1.481,0,1,0-1.482,1.482,1.481,1.481,0,0,0,1.482-1.482M39.19,28.366a1.484,1.484,0,1,0-1.484,1.484,1.484,1.484,0,0,0,1.484-1.484h0M146.373,62.728a1.481,1.481,0,1,0,1.059,2.518c-.081-.773-.178-1.534-.283-2.3a1.471,1.471,0,0,0-.775-.221M48.245,28.366a1.483,1.483,0,1,0-1.483,1.484,1.483,1.483,0,0,0,1.483-1.484v0m9.053,0a1.482,1.482,0,1,0-1.483,1.484A1.482,1.482,0,0,0,57.3,28.366v0m78.535,8.961a1.482,1.482,0,0,0,2.931.306c-.309-.571-.635-1.138-.968-1.7a1.43,1.43,0,0,0-.48-.088,1.484,1.484,0,0,0-1.485,1.482m9.055,17.924A1.485,1.485,0,0,0,146,56.681c-.191-.849-.4-1.691-.625-2.528a1.473,1.473,0,0,0-.492,1.1M30.135,28.366a1.483,1.483,0,1,0-1.484,1.484,1.483,1.483,0,0,0,1.484-1.484h0m72.443,0A1.483,1.483,0,1,0,101.1,29.85h0a1.483,1.483,0,0,0,1.48-1.484m9.056,0a1.483,1.483,0,1,0-1.483,1.484,1.483,1.483,0,0,0,1.483-1.484m9.055,0a1.482,1.482,0,1,0-1.483,1.484,1.482,1.482,0,0,0,1.483-1.484v0m-27.165,0A1.483,1.483,0,1,0,92.04,29.85a1.483,1.483,0,0,0,1.484-1.484m-18.11,0a1.484,1.484,0,1,0-1.485,1.484,1.484,1.484,0,0,0,1.485-1.484m9.052,0a1.481,1.481,0,1,0-1.482,1.484,1.481,1.481,0,0,0,1.482-1.484v0m-18.11,0a1.484,1.484,0,1,0-1.483,1.484h0a1.483,1.483,0,0,0,1.483-1.484m-2.967,89.612a1.484,1.484,0,1,0,1.485-1.485,1.484,1.484,0,0,0-1.485,1.485m9.057,0a1.484,1.484,0,1,0,1.483-1.485,1.484,1.484,0,0,0-1.483,1.485h0m-18.112,0a1.482,1.482,0,1,0,1.482-1.485,1.482,1.482,0,0,0-1.482,1.485m36.224,0a1.483,1.483,0,1,0,1.483-1.485,1.483,1.483,0,0,0-1.483,1.485h0m-45.278,0a1.483,1.483,0,1,0,1.483-1.485,1.483,1.483,0,0,0-1.483,1.485m36.224,0a1.481,1.481,0,1,0,1.481-1.485,1.481,1.481,0,0,0-1.481,1.485h0m64.87-46.29a1.484,1.484,0,1,0,1.484,1.484h0a1.483,1.483,0,0,0-1.483-1.484h0M36.222,117.977a1.484,1.484,0,1,0,1.484-1.485,1.484,1.484,0,0,0-1.484,1.485M144.889,91.092a1.463,1.463,0,0,0,.492,1.094c.221-.836.434-1.677.625-2.524a1.477,1.477,0,0,0-1.117,1.431m1.484-10.445a1.484,1.484,0,1,0,.775,2.743c.1-.762.2-1.524.283-2.295a1.479,1.479,0,0,0-1.059-.448m-16.631,37.33a1.483,1.483,0,1,0-1.481,1.485,1.482,1.482,0,0,0,1.481-1.485v0m-111.628,0a1.482,1.482,0,1,0,1.48-1.485,1.482,1.482,0,0,0-1.48,1.485v0m9.055,0a1.483,1.483,0,1,0,1.483-1.485,1.483,1.483,0,0,0-1.483,1.485m84.466,17.92a1.483,1.483,0,1,0-1.485,1.482h0a1.485,1.485,0,0,0,1.483-1.482M57.3,126.937a1.482,1.482,0,1,0-1.483,1.482,1.482,1.482,0,0,0,1.483-1.482m9.057,0a1.484,1.484,0,1,0-1.486,1.482h0a1.487,1.487,0,0,0,1.483-1.482m18.111,0a1.481,1.481,0,1,0-1.482,1.482,1.482,1.482,0,0,0,1.482-1.482m-9.053,0a1.484,1.484,0,1,0-1.485,1.482h0a1.489,1.489,0,0,0,1.485-1.482m-36.224,0a1.484,1.484,0,1,0-1.486,1.482h0a1.489,1.489,0,0,0,1.484-1.482m60.421-8.96a1.483,1.483,0,1,0,1.486-1.485,1.483,1.483,0,0,0-1.486,1.485v0m-51.367,8.96a1.483,1.483,0,1,0-1.484,1.482h0a1.486,1.486,0,0,0,1.483-1.482m-21.076,0a1.483,1.483,0,1,0,1.483-1.487,1.483,1.483,0,0,0-1.483,1.487v0m93.52,0a1.482,1.482,0,1,0-1.483,1.482,1.482,1.482,0,0,0,1.483-1.482M57.3,144.859a1.478,1.478,0,0,0-2.909-.378c.947.259,1.9.508,2.861.729a1.27,1.27,0,0,0,.048-.351M72.446,82.13a1.484,1.484,0,1,0,1.485-1.483h0a1.485,1.485,0,0,0-1.483,1.483m30.132,44.807a1.483,1.483,0,1,0-1.484,1.482h0a1.487,1.487,0,0,0,1.48-1.482m-9.054,0a1.483,1.483,0,1,0-1.484,1.482h0a1.489,1.489,0,0,0,1.484-1.482m-1.484,16.438a1.479,1.479,0,0,0-1.483,1.477v.007a1.523,1.523,0,0,0,.044.351c.968-.221,1.92-.47,2.867-.729a1.48,1.48,0,0,0-1.429-1.106m-19.594,1.483a1.484,1.484,0,1,0,1.484-1.483h0a1.484,1.484,0,0,0-1.483,1.483M129.742,28.366a1.483,1.483,0,1,0-1.481,1.484,1.483,1.483,0,0,0,1.481-1.484v0M63.389,144.859a1.484,1.484,0,1,0,1.485-1.483,1.484,1.484,0,0,0-1.485,1.483m21.078,0a1.48,1.48,0,1,0,0,.006v-.006m18.112-8.962a1.483,1.483,0,1,0-1.484,1.482h0a1.483,1.483,0,0,0,1.48-1.482M10.538,38.806a1.481,1.481,0,1,0,0-2.962,1.456,1.456,0,0,0-.483.088q-.492.844-.964,1.7a1.478,1.478,0,0,0,1.447,1.174m7.576-10.441A1.482,1.482,0,1,0,19.6,26.883h0a1.48,1.48,0,0,0-1.48,1.481v0M75.414,135.9a1.484,1.484,0,1,0-1.485,1.482h0a1.485,1.485,0,0,0,1.485-1.482m-27.169,0a1.483,1.483,0,1,0-1.484,1.482h0a1.483,1.483,0,0,0,1.483-1.482m18.111,0a1.484,1.484,0,1,0-1.485,1.482h0a1.484,1.484,0,0,0,1.483-1.482m27.168,0a1.483,1.483,0,1,0-1.484,1.482h0a1.485,1.485,0,0,0,1.484-1.482m-36.226,0a1.482,1.482,0,1,0-1.483,1.482A1.482,1.482,0,0,0,57.3,135.9h0m-18.109,0a1.484,1.484,0,1,0-1.486,1.482h0A1.484,1.484,0,0,0,39.19,135.9m72.444-8.96a1.483,1.483,0,1,0-1.485,1.482h0a1.489,1.489,0,0,0,1.483-1.482M45.279,91.093a1.483,1.483,0,1,0,1.483-1.486,1.483,1.483,0,0,0-1.483,1.486v0m9.055,0a1.482,1.482,0,1,0,1.482-1.486,1.482,1.482,0,0,0-1.482,1.486h0m-18.112,0a1.484,1.484,0,1,0,1.484-1.486,1.484,1.484,0,0,0-1.484,1.486v0m36.224,0a1.483,1.483,0,1,0,0-.005v.005m9.057,0a1.483,1.483,0,1,0,0-.006v.006m-54.335,0a1.483,1.483,0,1,0,1.483-1.486,1.483,1.483,0,0,0-1.483,1.486v0m36.22,0a1.484,1.484,0,1,0,1.485-1.486,1.483,1.483,0,0,0-1.485,1.486v0m63.388,8.961a1.483,1.483,0,1,0,1.484-1.483,1.483,1.483,0,0,0-1.484,1.483v0M18.113,91.093a1.483,1.483,0,1,0,0-.007v.007m99.61,8.961a1.482,1.482,0,1,0,1.482-1.483,1.482,1.482,0,0,0-1.482,1.483v0m18.11,0a1.483,1.483,0,1,0,1.485-1.483,1.483,1.483,0,0,0-1.485,1.483v0M9.056,91.093a1.484,1.484,0,1,0,1.481-1.486,1.483,1.483,0,0,0-1.481,1.486h0m-6.088,0a1.473,1.473,0,0,0-1.118-1.431c.191.847.406,1.687.625,2.524a1.462,1.462,0,0,0,.494-1.094M18.113,82.13a1.482,1.482,0,1,0,1.482-1.483h0a1.482,1.482,0,0,0-1.48,1.483m27.165,0a1.483,1.483,0,1,0,1.483-1.483h0a1.486,1.486,0,0,0-1.483,1.483m63.388,17.923a1.483,1.483,0,1,0,1.484-1.483,1.483,1.483,0,0,0-1.484,1.483v0M27.168,82.13a1.483,1.483,0,1,0,1.484-1.483h0a1.486,1.486,0,0,0-1.483,1.483m63.389,8.962a1.483,1.483,0,1,0,0-.005v.005M54.333,82.13a1.482,1.482,0,1,0,1.482-1.483,1.482,1.482,0,0,0-1.482,1.483m9.055,0a1.484,1.484,0,1,0,1.484-1.483,1.484,1.484,0,0,0-1.484,1.483m-27.167,0a1.484,1.484,0,1,0,1.485-1.483h0a1.486,1.486,0,0,0-1.484,1.483m72.445,8.962a1.483,1.483,0,1,0,1.484-1.486,1.484,1.484,0,0,0-1.484,1.486v0m9.057,0a1.482,1.482,0,1,0,1.482-1.486,1.482,1.482,0,0,0-1.482,1.486v0m-18.112,0a1.481,1.481,0,1,0,0-.01v.01M9.056,82.13a1.484,1.484,0,1,0,1.485-1.483h0A1.485,1.485,0,0,0,9.056,82.13m126.777,8.962a1.483,1.483,0,1,0,1.485-1.486,1.483,1.483,0,0,0-1.485,1.486v0m-9.057,0a1.483,1.483,0,1,0,1.484-1.486,1.483,1.483,0,0,0-1.484,1.486v0m-9.053,17.921a1.482,1.482,0,1,0,1.482-1.485,1.482,1.482,0,0,0-1.482,1.485h0m-36.221,0a1.481,1.481,0,1,0,1.481-1.485,1.482,1.482,0,0,0-1.481,1.485v0m-9.057,0a1.484,1.484,0,1,0,1.483-1.485,1.484,1.484,0,0,0-1.483,1.485v0m18.111,0a1.483,1.483,0,1,0,1.483-1.485,1.483,1.483,0,0,0-1.483,1.485v0m-27.169,0a1.484,1.484,0,1,0,1.484-1.485,1.483,1.483,0,0,0-1.484,1.485m36.224,0a1.481,1.481,0,1,0,0-.008v.008m9.055,0a1.483,1.483,0,1,0,1.484-1.485,1.483,1.483,0,0,0-1.484,1.485v0m-90.553,0a1.482,1.482,0,1,0,1.48-1.485,1.482,1.482,0,0,0-1.48,1.485v0m9.055,0a1.483,1.483,0,1,0,1.483-1.485,1.483,1.483,0,0,0-1.483,1.485v0m27.165,0a1.482,1.482,0,1,0,1.482-1.485,1.482,1.482,0,0,0-1.482,1.485m54.333,8.964a1.483,1.483,0,1,0,1.484-1.485,1.483,1.483,0,0,0-1.484,1.485m18.11-8.964a1.483,1.483,0,1,0,1.484-1.485,1.483,1.483,0,0,0-1.484,1.485h0m-81.5,0a1.483,1.483,0,1,0,1.483-1.485,1.483,1.483,0,0,0-1.483,1.485v0m-9.057,0a1.484,1.484,0,1,0,1.484-1.485,1.483,1.483,0,0,0-1.484,1.485h0m-18.109-8.96a1.482,1.482,0,1,0,1.481-1.483h0a1.478,1.478,0,0,0-1.479,1.477v.006m54.333,0a1.484,1.484,0,1,0,1.484-1.483h0a1.48,1.48,0,0,0-1.483,1.479v0m-9.057,0a1.484,1.484,0,1,0,1.485-1.483,1.484,1.484,0,0,0-1.485,1.483h0m-9.055,0a1.482,1.482,0,1,0,1.482-1.483,1.482,1.482,0,0,0-1.482,1.483h0m36.224,0A1.483,1.483,0,1,0,92.04,98.57h0a1.48,1.48,0,0,0-1.483,1.478v.005m-9.054,0a1.481,1.481,0,1,0,0-.006v.006m-36.224,0a1.483,1.483,0,1,0,1.483-1.483,1.483,1.483,0,0,0-1.483,1.483v0m72.446,17.924a1.482,1.482,0,1,0,1.482-1.485,1.482,1.482,0,0,0-1.482,1.485m-105.7-8.964a1.483,1.483,0,0,0-2.934-.308q.471.861.964,1.7a1.418,1.418,0,0,0,.483.088,1.484,1.484,0,0,0,1.486-1.483h0m-2.968-8.96A1.484,1.484,0,1,0,10.54,98.57h0a1.482,1.482,0,0,0-1.481,1.483h0m90.556,0a1.479,1.479,0,1,0,0-.009v.009m-72.444,0a1.483,1.483,0,1,0,1.483-1.483h0a1.482,1.482,0,0,0-1.483,1.481v0m9.054,0a1.484,1.484,0,1,0,1.484-1.483h0a1.482,1.482,0,0,0-1.484,1.481v0" transform="translate(73.749 0)" fill="#f40000"/>
        <path id="Trazado_42496" data-name="Trazado 42496" d="M0,15.372a3.113,3.113,0,1,0,3.114-3.114A3.113,3.113,0,0,0,0,15.372ZM0,3.112A3.113,3.113,0,1,0,3.115,0h0A3.113,3.113,0,0,0,0,3.112m13.133,12.26a3.114,3.114,0,1,0,3.116-3.114,3.114,3.114,0,0,0-3.116,3.114v0m0-12.26A3.114,3.114,0,1,0,16.249,0a3.114,3.114,0,0,0-3.116,3.112h0m13.135,12.26a3.114,3.114,0,1,0,3.115-3.114,3.114,3.114,0,0,0-3.115,3.114v0m0-12.26A3.114,3.114,0,1,0,29.384,0h0a3.114,3.114,0,0,0-3.115,3.112" transform="translate(71.936 326.836)" fill="#fff"/>
        <g id="Grupo_19555" data-name="Grupo 19555" transform="translate(71.937 394.836)">
          <path id="Trazado_42455" data-name="Trazado 42455" d="M4.824,9.652A4.826,4.826,0,1,1,9.652,4.823,4.826,4.826,0,0,1,4.824,9.652" transform="translate(11.7 16.744)" fill="#ffb600"/>
          <path id="Trazado_42456" data-name="Trazado 42456" d="M5.028,10.061a5.03,5.03,0,1,1,5.033-5.032,5.031,5.031,0,0,1-5.033,5.032m0-7.447A2.417,2.417,0,1,0,7.446,5.029h0A2.419,2.419,0,0,0,5.028,2.614" transform="translate(52.648 3.827)" fill="#ffb600"/>
          <path id="Trazado_42464" data-name="Trazado 42464" d="M1.912,3.826A1.913,1.913,0,1,1,3.826,1.912,1.913,1.913,0,0,1,1.912,3.826" transform="translate(0 0)" fill="#f40000"/>
          <path id="Trazado_42465" data-name="Trazado 42465" d="M1.912,3.827A1.913,1.913,0,1,1,3.826,1.911,1.913,1.913,0,0,1,1.912,3.827" transform="translate(80.88 25.639)" fill="#f40000"/>
        </g>
        <g id="Grupo_19554" data-name="Grupo 19554" transform="translate(29.584 185.892)">
          <path id="Trazado_42452" data-name="Trazado 42452" d="M0,15.372a3.112,3.112,0,1,0,0-.005ZM0,3.112A3.113,3.113,0,1,0,3.114,0h0A3.112,3.112,0,0,0,0,3.111H0m13.133,12.26a3.114,3.114,0,1,0,3.116-3.114,3.114,3.114,0,0,0-3.116,3.114v0m0-12.26A3.114,3.114,0,1,0,16.248,0a3.114,3.114,0,0,0-3.116,3.112h0m13.135,12.26a3.114,3.114,0,1,0,3.115-3.114,3.114,3.114,0,0,0-3.115,3.114v0m0-12.26A3.114,3.114,0,1,0,29.384,0h0a3.114,3.114,0,0,0-3.115,3.112" transform="translate(21.487 0)" fill="#ffb600"/>
          <path id="Trazado_42460" data-name="Trazado 42460" d="M5.375,10.755a5.378,5.378,0,1,1,5.381-5.38,5.378,5.378,0,0,1-5.381,5.38m0-7.961A2.584,2.584,0,1,0,7.961,5.376,2.584,2.584,0,0,0,5.375,2.795" transform="translate(89.242 93.707)" fill="#f40000"/>
          <path id="Trazado_42466" data-name="Trazado 42466" d="M1.912,3.826A1.913,1.913,0,1,1,3.826,1.911,1.914,1.914,0,0,1,1.912,3.826" transform="translate(98.085 18.755)" fill="#f40000"/>
          <path id="Trazado_42467" data-name="Trazado 42467" d="M1.913,3.826A1.913,1.913,0,1,1,3.827,1.912,1.913,1.913,0,0,1,1.913,3.826" transform="translate(0 76.388)" fill="#f40000"/>
        </g>
      </g>
      <g id="Grupo_19806" data-name="Grupo 19806" transform="translate(27.605 94.199)">
        <path id="Trazado_42447" data-name="Trazado 42447" d="M20.1,284.747q1.117-37.6,2.236-75.207.8-26.795,1.64-53.588A6.5,6.5,0,0,0,22,150.91C17.247,146,12.57,141.015,7.88,136.043A27.439,27.439,0,0,1,.064,116.448c.047-10.311-.274-20.637.193-30.929.734-16.207,1.888-32.4,3.065-48.581.828-11.386,2-22.746,2.989-34.121.1-1.131.506-1.687,1.735-1.689,5.327-.009,4.317-.457,4.44,4.038q.966,35.5,1.842,71c.078,3.046.074,6.1.183,9.14.085,2.37,1.293,3.73,3.143,3.721,2.01-.011,3.3-1.542,3.354-3.962q.927-39.106,1.865-78.213c.042-1.756.23-3.511.228-5.267,0-1.149.464-1.6,1.588-1.528A8.1,8.1,0,0,0,26.112.031c1.4-.159,1.8.433,1.827,1.807q.6,36.651,1.284,73.3.085,4.747.157,9.493c.044,2.65,1.323,4.275,3.393,4.312,2.012.037,3.484-1.675,3.528-4.205q.446-25.928.868-51.856c.175-10.312.392-20.624.518-30.936C37.7.511,38.125-.137,39.609.024a6.3,6.3,0,0,0,1.246,0c1.311-.119,1.723.444,1.745,1.737.108,6.5.315,13.006.481,19.508q.8,31.457,1.608,62.914a13.642,13.642,0,0,0,.139,2.1,3.215,3.215,0,0,0,3.391,2.726,3.128,3.128,0,0,0,2.871-3.061c.125-2.868.161-5.741.234-8.612q.722-28.471,1.451-56.94c.158-6.033.418-12.064.545-18.1C53.35.846,53.865.507,55.263.7c4.023.558,3.992.517,4.334,4.652q1.614,19.524,3.28,39.045c1.754,20.559,2.937,41.145,2.955,61.783,0,4.506-.336,9.013-.506,13.521-.236,6.238-3.085,11.366-7.168,15.871q-6.764,7.465-13.842,14.65a8.058,8.058,0,0,0-2.656,6.371q1.027,30.4,1.893,60.8Q44.767,257.9,45.957,298.4q1.123,37.6,2.266,75.206c.384,12.77.708,25.542,1.161,38.309.206,5.808-1.048,11.113-5.168,15.4-7.913,8.242-20.507,6.241-25.677-3.977a22.343,22.343,0,0,1-2.4-11.03q.993-29.779,1.929-59.561c.461-15.054.839-30.111,1.272-45.166.22-7.615.479-15.229.721-22.843H20.1" transform="translate(104.315 9.241)" fill="#f2f4f5"/>
        <path id="Trazado_42490" data-name="Trazado 42490" d="M5.156,10.318a5.159,5.159,0,1,1,5.162-5.162,5.159,5.159,0,0,1-5.162,5.162" transform="translate(195.274 44.726)" fill="#ffb600"/>
        <g id="Grupo_19553" data-name="Grupo 19553" transform="translate(0 250.635)">
          <path id="Trazado_42449" data-name="Trazado 42449" d="M72.822,33.266a.785.785,0,1,1-.787.786.785.785,0,0,1,.787-.786Zm-5.59.786a.786.786,0,1,0,.787-.786.786.786,0,0,0-.787.786h0m-4.8,0a.786.786,0,1,0,.786-.786h0a.785.785,0,0,0-.786.784v0M1.573,29.3a.779.779,0,0,0-.262-.582c-.116.444-.23.891-.331,1.341a.786.786,0,0,0,.593-.759m56.054,4.752a.786.786,0,1,0,.787-.786h0a.785.785,0,0,0-.786.783v0M.786,34.837a.785.785,0,1,0-.411-1.453c-.056.4-.108.811-.151,1.218a.782.782,0,0,0,.562.235m23.226-.785a.786.786,0,1,0,.787-.786h0a.785.785,0,0,0-.786.785h0m14.407,0a.787.787,0,1,0,.788-.786h0a.785.785,0,0,0-.786.784v0m-4.8,0a.787.787,0,1,0,.788-.786h0a.786.786,0,0,0-.787.785h0m-4.8,0a.786.786,0,1,0,.786-.786h0a.786.786,0,0,0-.786.786m14.409,0a.786.786,0,1,0,.786-.786h0a.784.784,0,0,0-.785.783v0M67.232,29.3a.786.786,0,1,0,.787-.788.786.786,0,0,0-.787.788M48.024,34.053a.786.786,0,1,0,.787-.786h0a.784.784,0,0,0-.786.783v0m4.8,0a.786.786,0,1,0,.788-.786.787.787,0,0,0-.788.786v0m4.8-4.751a.786.786,0,1,0,.786-.788.787.787,0,0,0-.786.788m-14.405,0a.786.786,0,1,0,.785-.788.786.786,0,0,0-.785.788m4.8,0a.786.786,0,1,0,.786-.788.787.787,0,0,0-.786.788m-38.418,0a.786.786,0,1,0,.785-.788.786.786,0,0,0-.785.788h0m52.825,0a.786.786,0,1,0,.786-.788.786.786,0,0,0-.786.788m9.6,0a.786.786,0,1,0,.787-.788.786.786,0,0,0-.787.788m-19.209,0a.786.786,0,1,0,.788-.788.787.787,0,0,0-.788.788v0m-33.617,0A.787.787,0,1,0,20,28.513a.787.787,0,0,0-.787.788m-4.8,0a.786.786,0,1,0,.786-.788.787.787,0,0,0-.786.788m9.6,0a.786.786,0,1,0,.786-.788.787.787,0,0,0-.786.788m14.408,0a.787.787,0,1,0,.786-.788.787.787,0,0,0-.786.788m-9.605,0a.786.786,0,1,0,.786-.788.786.786,0,0,0-.786.788m4.8,0a.787.787,0,1,0,.787-.788.787.787,0,0,0-.787.788M4.8,29.3a.787.787,0,1,0,.786-.788h0A.788.788,0,0,0,4.8,29.3M19.21,34.053A.787.787,0,1,0,20,33.267h0a.786.786,0,0,0-.787.785h0m-4.8,4.752a.786.786,0,1,0,.786-.787.787.787,0,0,0-.786.787m-9.6,0a.787.787,0,1,0,.787-.787h0A.786.786,0,0,0,4.8,38.8m14.406,0A.787.787,0,1,0,20,38.017a.787.787,0,0,0-.787.787M.786,44.344a.787.787,0,1,0-.562-1.336c.044.409.1.813.151,1.217a.793.793,0,0,0,.411.12m23.226-5.539a.786.786,0,1,0,.786-.787.787.787,0,0,0-.786.787m28.814,4.751a.786.786,0,1,0,.788-.786.787.787,0,0,0-.788.786h0M28.814,38.8a.786.786,0,1,0,.786-.787.786.786,0,0,0-.786.787m19.21,4.751a.786.786,0,1,0,.787-.786h0a.787.787,0,0,0-.786.786m19.208,0a.786.786,0,1,0,.787-.786.786.786,0,0,0-.787.786m-9.6,0a.786.786,0,1,0,.787-.786h0a.788.788,0,0,0-.787.786m14.407,0a.786.786,0,1,0,.787-.786.786.786,0,0,0-.787.786m-9.6,0a.786.786,0,1,0,.786-.786h0a.787.787,0,0,0-.786.786M9.605,38.8a.786.786,0,1,0,.785-.787h0a.785.785,0,0,0-.785.785v0M0,38.8a.787.787,0,1,0,.787-.787h0A.786.786,0,0,0,0,38.8H0m4.8-4.752a.787.787,0,1,0,.788-.786h0a.785.785,0,0,0-.785.785h0M72.035,38.8a.786.786,0,1,0,.787-.787.786.786,0,0,0-.787.787m-4.8,0a.786.786,0,1,0,.787-.787.786.786,0,0,0-.787.787M9.605,34.052a.786.786,0,1,0,.786-.786h0a.783.783,0,0,0-.785.782v0m4.8,0a.786.786,0,1,0,.787-.786h0a.785.785,0,0,0-.786.785h0M43.221,38.8a.786.786,0,1,0,.785-.787.786.786,0,0,0-.785.787v0m4.8,0a.786.786,0,1,0,.786-.787.787.787,0,0,0-.786.787v0m-14.408,0a.787.787,0,1,0,.787-.787.787.787,0,0,0-.787.787m28.815,0a.786.786,0,1,0,.786-.787.786.786,0,0,0-.786.787m-24.012,0a.787.787,0,1,0,.787-.787h0a.786.786,0,0,0-.786.786h0m19.209,0a.786.786,0,1,0,.786-.787.787.787,0,0,0-.786.787h0m-4.8,0a.786.786,0,1,0,.788-.787.787.787,0,0,0-.788.787v0M24.012,5.539a.786.786,0,1,0,.786-.786h0a.785.785,0,0,0-.786.784v0M62.431,19.8a.786.786,0,1,0,.786-.786h0a.783.783,0,0,0-.786.782v0m-24.012-9.5a.787.787,0,1,0,.786-.788h0a.788.788,0,0,0-.786.788m-9.605,0A.786.786,0,1,0,29.6,9.5a.786.786,0,0,0-.786.788m4.8,0A.787.787,0,1,0,34.4,9.5a.787.787,0,0,0-.787.788m14.408,0a.786.786,0,1,0,.786-.788.787.787,0,0,0-.786.788m9.6,0a.786.786,0,1,0,.786-.788.787.787,0,0,0-.786.788m6.375,0a.786.786,0,1,0-.786.788A.786.786,0,0,0,64,10.292v0M48.809,1.575a.785.785,0,0,0,.758-.59C49.065.849,48.559.719,48.046.6a.818.818,0,0,0-.023.187.787.787,0,0,0,.786.787m24.012,55.45a.787.787,0,1,0,0,1.574.736.736,0,0,0,.254-.046c.176-.3.349-.6.513-.9a.786.786,0,0,0-.767-.624M24.012,10.292A.786.786,0,1,0,24.8,9.5a.787.787,0,0,0-.786.788m28.814,0a.786.786,0,1,0,.788-.788.787.787,0,0,0-.788.788h0m-38.418,0a.786.786,0,1,0,.786-.788.787.787,0,0,0-.786.788m4.8,0A.787.787,0,1,0,20,9.5a.787.787,0,0,0-.787.788m24.014,0a.786.786,0,1,0,.785-.788.786.786,0,0,0-.785.788M57.628,5.539a.786.786,0,1,0,.786-.786.787.787,0,0,0-.786.786v0M33.616.788A.787.787,0,1,0,34.4,0a.787.787,0,0,0-.787.788m19.21,4.751a.784.784,0,1,0,0-.006v.006m-33.617,0A.787.787,0,1,0,20,4.753h0a.786.786,0,0,0-.787.784v0M38.42.788A.787.787,0,1,0,39.206,0a.787.787,0,0,0-.786.788m4.8,0A.786.786,0,1,0,44.008,0a.786.786,0,0,0-.785.788h0M29.6,1.575a.787.787,0,0,0,.786-.787A.671.671,0,0,0,30.361.6c-.511.118-1.015.248-1.518.384a.784.784,0,0,0,.756.59m4.017,3.964a.787.787,0,1,0,.787-.786.787.787,0,0,0-.787.786h0m-4.8,0a.786.786,0,1,0,.786-.786.786.786,0,0,0-.786.786h0M43.221,43.556a.786.786,0,1,0,.785-.786.786.786,0,0,0-.785.786m0-38.017a.786.786,0,1,0,.785-.786.786.786,0,0,0-.785.786v0m4.8,0a.786.786,0,1,0,.786-.786h0a.785.785,0,0,0-.786.784v0m-9.6,0a.787.787,0,1,0,.787-.787h0a.785.785,0,0,0-.786.784v0M72.034,24.55a.786.786,0,1,0,.787-.787.786.786,0,0,0-.787.787v0m-24.011,0a.786.786,0,1,0,.786-.787.787.787,0,0,0-.786.787v0m-4.8,0a.786.786,0,1,0,.785-.787.786.786,0,0,0-.785.787v0m9.6,0a.786.786,0,1,0,.788-.787.787.787,0,0,0-.788.787v0m4.8,0a.786.786,0,1,0,.786-.787.787.787,0,0,0-.786.787v0m4.8,0a.786.786,0,1,0,.786-.787.786.786,0,0,0-.786.787v0m-24.012,0a.787.787,0,1,0,.786-.787h0a.786.786,0,0,0-.786.785v0M9.6,24.55a.786.786,0,1,0,.785-.787.786.786,0,0,0-.785.787v0m4.8,0a.786.786,0,1,0,.786-.787.787.787,0,0,0-.786.787h0m4.8,0A.787.787,0,1,0,20,23.762a.787.787,0,0,0-.787.787h0M4.8,24.55a.787.787,0,1,0,.786-.787h0a.786.786,0,0,0-.785.787h0m28.813,0a.787.787,0,1,0,.787-.787.787.787,0,0,0-.787.787h0m-9.6,0a.786.786,0,1,0,.786-.787.787.787,0,0,0-.786.787h0m4.8,0a.786.786,0,1,0,.786-.787.786.786,0,0,0-.786.787M67.232,19.8a.786.786,0,1,0,.787-.786.786.786,0,0,0-.787.786v0m-19.208,0a.786.786,0,1,0,.787-.786h0a.783.783,0,0,0-.786.78V19.8m-4.8,0a.783.783,0,1,0,0-.006V19.8m24.01,4.754a.786.786,0,1,0,.787-.787.786.786,0,0,0-.787.787h0M33.616,19.8a.787.787,0,1,0,.788-.786h0a.785.785,0,0,0-.787.782v0m24.012,0a.786.786,0,1,0,.787-.786h0a.784.784,0,0,0-.787.781V19.8m-4.8,0a.782.782,0,1,0,0-.008V19.8m-14.407,0a.787.787,0,1,0,.788-.786h0a.784.784,0,0,0-.786.781v0m-24.012,0a.786.786,0,1,0,.787-.786h0a.784.784,0,0,0-.786.782v0m-4.8,0a.786.786,0,1,0,.786-.786h0a.782.782,0,0,0-.785.779V19.8m14.406,0a.786.786,0,1,0,.787-.786h0a.784.784,0,0,0-.786.782v0m-4.8,0A.787.787,0,1,0,20,19.009h0a.784.784,0,0,0-.787.782v0m9.6,0a.786.786,0,1,0,.786-.786h0a.784.784,0,0,0-.786.783v0m15.98,52.274a.786.786,0,1,0-.786.786.786.786,0,0,0,.786-.786M20.783,15.043a.787.787,0,1,0-.787.787.787.787,0,0,0,.787-.787M77.624,33.267a.785.785,0,1,0,.562,1.336c-.043-.41-.095-.814-.15-1.218a.779.779,0,0,0-.411-.117M25.585,15.043a.786.786,0,1,0-.786.787.787.787,0,0,0,.786-.787h0m4.8,0a.786.786,0,1,0-.786.787.786.786,0,0,0,.786-.787v0M72.035,19.8a.786.786,0,0,0,1.554.161c-.164-.3-.337-.6-.513-.9a.752.752,0,0,0-.254-.047.788.788,0,0,0-.787.786m4.8,9.505a.788.788,0,0,0,.592.759c-.1-.451-.214-.9-.332-1.341a.781.781,0,0,0-.261.582M15.981,15.043a.786.786,0,1,0-.787.787.787.787,0,0,0,.787-.787m38.418,0a.786.786,0,1,0-.786.787h0a.786.786,0,0,0,.785-.787m4.8,0a.786.786,0,1,0-.787.787.787.787,0,0,0,.787-.787m4.8,0a.786.786,0,1,0-.786.787A.786.786,0,0,0,64,15.043v0m-14.406,0a.786.786,0,1,0-.787.787.787.787,0,0,0,.787-.787m-9.6,0a.787.787,0,1,0-.789.787.787.787,0,0,0,.789-.787m4.8,0a.786.786,0,1,0-.786.787.786.786,0,0,0,.786-.787h0m-9.6,0a.787.787,0,1,0-.787.787h0a.787.787,0,0,0,.786-.787M33.615,62.567a.787.787,0,1,0,.787-.788.787.787,0,0,0-.787.788m4.8,0a.787.787,0,1,0,.786-.788.787.787,0,0,0-.786.788m-9.605,0a.786.786,0,1,0,.786-.788.786.786,0,0,0-.786.788m19.21,0a.786.786,0,1,0,.786-.788.787.787,0,0,0-.786.788m-24.012,0a.786.786,0,1,0,.786-.788.787.787,0,0,0-.786.788m19.21,0a.786.786,0,1,0,.785-.788.786.786,0,0,0-.785.788m34.4-24.548a.787.787,0,1,0,.786.787h0a.787.787,0,0,0-.786-.787h0M19.209,62.566A.787.787,0,1,0,20,61.778a.787.787,0,0,0-.787.788M76.837,48.309a.777.777,0,0,0,.261.58c.117-.442.23-.89.332-1.339a.784.784,0,0,0-.592.759m.787-5.539a.787.787,0,1,0,.411,1.455c.055-.4.107-.808.15-1.217a.785.785,0,0,0-.562-.238M68.8,62.566a.786.786,0,1,0-.786.787.786.786,0,0,0,.786-.787v0m-59.2,0a.786.786,0,1,0,.785-.788.786.786,0,0,0-.785.788h0m4.8,0a.786.786,0,1,0,.786-.788.787.787,0,0,0-.786.788m44.793,9.5a.786.786,0,1,0-.787.786h0a.787.787,0,0,0,.786-.786M30.386,67.318a.786.786,0,1,0-.786.786h0a.788.788,0,0,0,.786-.786m4.8,0a.787.787,0,1,0-.788.786h0a.789.789,0,0,0,.786-.786m9.6,0a.786.786,0,1,0-.786.786.786.786,0,0,0,.786-.786m-4.8,0a.787.787,0,1,0-.788.786h0a.789.789,0,0,0,.787-.786m-19.21,0a.787.787,0,1,0-.788.786h0a.789.789,0,0,0,.787-.786m32.043-4.752a.786.786,0,1,0,.788-.788.787.787,0,0,0-.788.788v0M25.584,67.318a.786.786,0,1,0-.787.786h0a.788.788,0,0,0,.786-.786m-11.177,0a.786.786,0,1,0,.786-.789.787.787,0,0,0-.786.789v0m49.6,0a.786.786,0,1,0-.786.786h0A.788.788,0,0,0,64,67.318m-33.617,9.5a.784.784,0,0,0-1.543-.2c.5.138,1.008.269,1.518.387a.664.664,0,0,0,.025-.186M38.42,43.555a.787.787,0,1,0,.788-.786h0a.787.787,0,0,0-.786.786M54.4,67.317a.786.786,0,1,0-.787.786h0a.788.788,0,0,0,.785-.786m-4.8,0a.786.786,0,1,0-.787.786h0a.789.789,0,0,0,.787-.786m-.787,8.716a.784.784,0,0,0-.786.783v0a.813.813,0,0,0,.023.186c.513-.117,1.018-.249,1.521-.387a.785.785,0,0,0-.758-.586M38.42,76.82a.787.787,0,1,0,.787-.787h0a.787.787,0,0,0-.786.787M68.8,15.042a.786.786,0,1,0-.786.787.786.786,0,0,0,.786-.787v0M33.617,76.82a.787.787,0,1,0,.787-.787.787.787,0,0,0-.787.787m11.178,0a.786.786,0,1,0-.786.786.786.786,0,0,0,.786-.786v0M54.4,72.068a.786.786,0,1,0-.787.786h0a.787.787,0,0,0,.785-.786M5.588,20.58a.786.786,0,0,0,.035-1.571H5.588a.767.767,0,0,0-.256.047q-.261.448-.511.9a.784.784,0,0,0,.768.623M9.6,15.043a.786.786,0,1,0,.786-.786h0a.785.785,0,0,0-.785.785h0M39.992,72.07a.787.787,0,1,0-.788.786h0a.788.788,0,0,0,.787-.786m-14.408,0a.786.786,0,1,0-.787.786h0a.786.786,0,0,0,.786-.786h0m9.6,0a.787.787,0,1,0-.788.786h0a.787.787,0,0,0,.786-.786m14.408,0a.786.786,0,1,0-.787.786.787.787,0,0,0,.787-.786m-19.211,0a.786.786,0,1,0-.786.786.786.786,0,0,0,.786-.786h0m-9.6,0a.787.787,0,1,0-.788.786h0a.787.787,0,0,0,.787-.786M59.2,67.318a.786.786,0,1,0-.787.786h0a.789.789,0,0,0,.786-.786M24.013,48.309a.786.786,0,1,0,.786-.788.787.787,0,0,0-.786.788v0m4.8,0a.786.786,0,1,0,.786-.788.786.786,0,0,0-.786.788h0m-9.6,0A.787.787,0,1,0,20,47.521a.787.787,0,0,0-.787.788v0m19.21,0a.787.787,0,1,0,.786-.788.787.787,0,0,0-.786.788v0m4.8,0a.786.786,0,1,0,.785-.788.786.786,0,0,0-.785.788v0m-28.815,0a.786.786,0,1,0,.786-.788.787.787,0,0,0-.786.788v0m19.208,0a.787.787,0,1,0,.787-.788.787.787,0,0,0-.787.788h0m33.616,4.752a.786.786,0,1,0,.787-.787.786.786,0,0,0-.787.787h0M9.605,48.309a.786.786,0,1,0,.785-.788.786.786,0,0,0-.785.788v0M62.431,53.06a.786.786,0,1,0,.786-.787.786.786,0,0,0-.786.787h0m9.6,0a.786.786,0,1,0,.787-.787.786.786,0,0,0-.787.787h0M4.8,48.309a.787.787,0,1,0,.786-.788h0a.786.786,0,0,0-.785.787h0m-3.229,0a.782.782,0,0,0-.593-.759c.1.449.215.9.331,1.339a.776.776,0,0,0,.262-.58m8.034-4.753a.786.786,0,1,0,.786-.786h0a.786.786,0,0,0-.785.786m14.406,0a.786.786,0,1,0,.787-.786h0a.788.788,0,0,0-.786.786M57.63,53.061a.786.786,0,1,0,.787-.787.787.787,0,0,0-.787.787v0M14.409,43.556a.786.786,0,1,0,.787-.786h0a.788.788,0,0,0-.786.786m33.617,4.753a.786.786,0,1,0,.786-.788.787.787,0,0,0-.786.788v0M28.814,43.556a.786.786,0,1,0,.786-.786h0a.788.788,0,0,0-.786.786m4.8,0a.787.787,0,1,0,.788-.786h0a.788.788,0,0,0-.787.786m-14.407,0A.787.787,0,1,0,20,42.77h0a.788.788,0,0,0-.787.786m38.419,4.753a.786.786,0,1,0,.787-.788.787.787,0,0,0-.787.788v0m4.8,0a.786.786,0,1,0,.786-.788.786.786,0,0,0-.786.788v0m-9.605,0a.785.785,0,1,0,0-.006v.006M4.8,43.556a.787.787,0,1,0,.788-.786h0a.788.788,0,0,0-.785.786m67.233,4.753a.786.786,0,1,0,.787-.788.786.786,0,0,0-.787.788v0m-4.8,0a.786.786,0,1,0,.787-.788.786.786,0,0,0-.787.788h0m-4.8,9.5a.786.786,0,1,0,.786-.787.786.786,0,0,0-.786.787h0m-19.209,0a.786.786,0,1,0,.785-.787.786.786,0,0,0-.785.787v0m-4.8,0a.787.787,0,1,0,.786-.787h0a.786.786,0,0,0-.786.786h0m9.6,0a.786.786,0,1,0,.786-.787.787.787,0,0,0-.786.787v0m-14.408,0a.787.787,0,1,0,.787-.787.787.787,0,0,0-.787.787m19.21,0a.786.786,0,1,0,.788-.787.787.787,0,0,0-.788.787v0m4.8,0a.786.786,0,1,0,.787-.787.787.787,0,0,0-.787.787v0m-48.022,0a.786.786,0,1,0,.785-.787.786.786,0,0,0-.785.787v0m4.8,0a.786.786,0,1,0,.786-.787.787.787,0,0,0-.786.787h0m14.406,0a.786.786,0,1,0,.786-.787.786.786,0,0,0-.786.787m28.814,4.753a.786.786,0,1,0,.786-.788.787.787,0,0,0-.786.788m9.6-4.753a.786.786,0,1,0,.787-.787.786.786,0,0,0-.787.787h0m-43.221,0a.786.786,0,1,0,.786-.787.787.787,0,0,0-.786.787h0m-4.8,0A.787.787,0,1,0,20,57.025a.787.787,0,0,0-.787.787h0m-9.6-4.752a.786.786,0,1,0,.786-.787h0a.784.784,0,0,0-.785.783v0m28.814,0a.787.787,0,1,0,.787-.787h0a.785.785,0,0,0-.786.784v0m-4.8,0a.787.787,0,1,0,.787-.787.787.787,0,0,0-.787.787h0m-4.8,0a.786.786,0,1,0,.786-.787.786.786,0,0,0-.786.787m19.21,0a.786.786,0,1,0,.786-.787h0a.785.785,0,0,0-.786.784v0m-4.8,0a.786.786,0,1,0,.785-.787.786.786,0,0,0-.785.787v0m-19.21,0a.786.786,0,1,0,.786-.787h0a.786.786,0,0,0-.786.785h0m38.419,9.505a.786.786,0,1,0,.786-.788.786.786,0,0,0-.786.788M6.376,57.812a.786.786,0,0,0-1.556-.163q.25.457.511.9a.75.75,0,0,0,.256.047.787.787,0,0,0,.788-.786M4.8,53.061a.787.787,0,1,0,.787-.787h0a.786.786,0,0,0-.785.786h0m48.023,0a.786.786,0,1,0,.788-.787.787.787,0,0,0-.788.787v0m-38.418,0a.786.786,0,1,0,.786-.787h0a.786.786,0,0,0-.786.785h0m4.8,0A.787.787,0,1,0,20,52.274h0a.786.786,0,0,0-.787.785h0" transform="translate(0 6.968)" fill="#f40000"/>
          <path id="Trazado_42457" data-name="Trazado 42457" d="M4.2,8.394a4.2,4.2,0,1,1,4.2-4.2,4.2,4.2,0,0,1-4.2,4.2m0-6.213A2.016,2.016,0,1,0,6.213,4.2,2.016,2.016,0,0,0,4.2,2.181" transform="translate(137.118 28.966)" fill="#ffb600"/>
          <path id="Trazado_42461" data-name="Trazado 42461" d="M4.023,8.052A4.026,4.026,0,1,1,8.052,4.024,4.026,4.026,0,0,1,4.023,8.052" transform="translate(95.967 0)" fill="#f40000"/>
          <path id="Trazado_42462" data-name="Trazado 42462" d="M1.6,3.193a1.6,1.6,0,1,1,1.6-1.6,1.6,1.6,0,0,1-1.6,1.6" transform="translate(133.204 11.562)" fill="#ffb600"/>
          <path id="Trazado_42463" data-name="Trazado 42463" d="M1.6,3.193a1.6,1.6,0,1,1,1.6-1.6,1.6,1.6,0,0,1-1.6,1.6" transform="translate(182.313 35.763)" fill="#f40000"/>
        </g>
        <path id="Trazado_42491" data-name="Trazado 42491" d="M2.045,4.091A2.045,2.045,0,1,1,4.091,2.042,2.046,2.046,0,0,1,2.045,4.091" transform="translate(230.399 29.056)" fill="#f40000"/>
        <g id="Grupo_19550" data-name="Grupo 19550" transform="translate(12.222 0)">
          <path id="Trazado_42450" data-name="Trazado 42450" d="M80.935,15.413c-4.778,0-7.11-3.655-9.163-6.876C69.906,5.61,68.3,3.082,65.208,3.082s-4.7,2.527-6.561,5.454c-2.058,3.222-4.386,6.876-9.163,6.876s-7.1-3.655-9.16-6.876c-1.865-2.927-3.477-5.454-6.562-5.454s-4.7,2.527-6.563,5.454c-2.055,3.222-4.384,6.876-9.161,6.876s-7.106-3.655-9.162-6.876C7.011,5.61,5.4,3.082,2.314,3.082A1.541,1.541,0,0,1,2.314,0c4.777,0,7.11,3.655,9.163,6.879,1.865,2.926,3.476,5.452,6.562,5.452s4.7-2.526,6.563-5.452C26.657,3.656,28.986,0,33.763,0s7.106,3.655,9.16,6.879c1.864,2.926,3.478,5.452,6.562,5.452s4.7-2.526,6.563-5.452C58.1,3.656,60.434,0,65.209,0s7.106,3.655,9.163,6.879c1.864,2.926,3.477,5.452,6.564,5.452a1.541,1.541,0,1,1,0,3.082M50.256,39.562a1.542,1.542,0,0,0-1.541-1.542c-3.086,0-4.7-2.527-6.563-5.452-2.055-3.224-4.385-6.88-9.161-6.88s-7.1,3.655-9.16,6.88c-1.866,2.925-3.477,5.452-6.563,5.452s-4.7-2.527-6.562-5.452c-2.055-3.224-4.386-6.88-9.163-6.88a1.542,1.542,0,0,0,0,3.084c3.087,0,4.7,2.527,6.564,5.453,2.054,3.222,4.383,6.878,9.161,6.878s7.11-3.655,9.163-6.878c1.864-2.926,3.475-5.453,6.56-5.453s4.7,2.527,6.564,5.453c2.054,3.222,4.385,6.878,9.16,6.878a1.542,1.542,0,0,0,1.541-1.541" transform="translate(60.837 37.65)" fill="#ffb600"/>
          <path id="Trazado_42459" data-name="Trazado 42459" d="M5.375,10.755a5.378,5.378,0,1,1,5.381-5.38,5.378,5.378,0,0,1-5.381,5.38m0-7.961A2.584,2.584,0,1,0,7.961,5.376,2.584,2.584,0,0,0,5.375,2.794" transform="translate(153.411 0)" fill="#f40000"/>
          <path id="Trazado_42469" data-name="Trazado 42469" d="M2.045,4.091A2.045,2.045,0,1,1,4.091,2.042,2.046,2.046,0,0,1,2.045,4.091" transform="translate(138.937 95.68)" fill="#f40000"/>
          <path id="Trazado_42470" data-name="Trazado 42470" d="M2.045,4.091A2.045,2.045,0,1,1,4.091,2.042,2.045,2.045,0,0,1,2.045,4.091" transform="translate(0 64.63)" fill="#f40000"/>
          <path id="Trazado_42471" data-name="Trazado 42471" d="M2.045,4.091A2.045,2.045,0,1,1,4.091,2.042,2.046,2.046,0,0,1,2.045,4.091" transform="translate(16.349 13.956)" fill="#ffb600"/>
        </g>
        <path id="Trazado_42489" data-name="Trazado 42489" d="M0,15.371a3.112,3.112,0,1,0,0-.005ZM0,3.111A3.113,3.113,0,1,0,3.115,0h0A3.112,3.112,0,0,0,0,3.111H0m13.133,12.26a3.114,3.114,0,1,0,3.115-3.114,3.114,3.114,0,0,0-3.115,3.114v0m0-12.26A3.114,3.114,0,1,0,16.248,0a3.114,3.114,0,0,0-3.115,3.112h0m13.135,12.26a3.113,3.113,0,1,0,3.114-3.114,3.113,3.113,0,0,0-3.114,3.114v0m0-12.26A3.113,3.113,0,1,0,29.383,0a3.113,3.113,0,0,0-3.115,3.112" transform="translate(0.001 170.738)" fill="#ffb600"/>
        <path id="Trazado_42494" data-name="Trazado 42494" d="M5.028,10.06A5.03,5.03,0,1,1,10.06,5.028,5.03,5.03,0,0,1,5.028,10.06m0-7.447A2.417,2.417,0,1,0,7.447,5.028,2.417,2.417,0,0,0,5.028,2.613" transform="translate(57.77 221.255)" fill="#ffb600"/>
        <path id="Trazado_42492" data-name="Trazado 42492" d="M1.912,3.826A1.913,1.913,0,1,1,3.826,1.912,1.913,1.913,0,0,1,1.912,3.826" transform="translate(94.304 161.848)" fill="#fff"/>
        <path id="Trazado_42493" data-name="Trazado 42493" d="M0,13.073V24.752l6.628-5.515L6.185,0Z" transform="translate(126.32 33.887)" fill="#f2f4f5"/>
      </g>
      <path id="Trazado_42744" data-name="Trazado 42744" d="M450.731,0C201.8,0,0,201.8,0,450.733S201.8,901.464,450.731,901.464s450.731-201.8,450.731-450.731S699.663,0,450.731,0m0,777.316" transform="translate(-67 407.162)" fill="#f40000"/>
      <g id="Grupo_19807" data-name="Grupo 19807" transform="translate(-0.395 945.873)">
        <g id="Grupo_19536" data-name="Grupo 19536" clip-path="url(#clip-path-2)">
          <rect id="Rectángulo_22795" data-name="Rectángulo 22795" width="9.421" height="46.777" transform="translate(1356.579 0.179)" fill="red"/>
          <rect id="Rectángulo_22796" data-name="Rectángulo 22796" width="9.421" height="46.777" transform="translate(1337.738 0.179)" fill="red"/>
          <rect id="Rectángulo_22797" data-name="Rectángulo 22797" width="9.42" height="46.777" transform="translate(1318.896 0.179)" fill="red"/>
          <rect id="Rectángulo_22798" data-name="Rectángulo 22798" width="9.42" height="46.777" transform="translate(1300.056 0.179)" fill="red"/>
          <rect id="Rectángulo_22799" data-name="Rectángulo 22799" width="9.421" height="46.777" transform="translate(1281.213 0.179)" fill="red"/>
          <rect id="Rectángulo_22800" data-name="Rectángulo 22800" width="9.422" height="46.777" transform="translate(1262.373 0.179)" fill="red"/>
          <rect id="Rectángulo_22801" data-name="Rectángulo 22801" width="9.42" height="46.777" transform="translate(1243.531 0.179)" fill="red"/>
          <rect id="Rectángulo_22802" data-name="Rectángulo 22802" width="9.422" height="46.777" transform="translate(1224.689 0.179)" fill="red"/>
          <rect id="Rectángulo_22803" data-name="Rectángulo 22803" width="9.421" height="46.777" transform="translate(1205.848 0.179)" fill="red"/>
          <rect id="Rectángulo_22804" data-name="Rectángulo 22804" width="9.421" height="46.777" transform="translate(1187.007 0.179)" fill="red"/>
          <rect id="Rectángulo_22805" data-name="Rectángulo 22805" width="9.421" height="46.777" transform="translate(1168.165 0.179)" fill="red"/>
          <rect id="Rectángulo_22806" data-name="Rectángulo 22806" width="9.422" height="46.777" transform="translate(1149.324 0.179)" fill="red"/>
          <rect id="Rectángulo_22807" data-name="Rectángulo 22807" width="9.421" height="46.777" transform="translate(1130.482 0.179)" fill="red"/>
          <rect id="Rectángulo_22808" data-name="Rectángulo 22808" width="9.42" height="46.777" transform="translate(1111.641 0.179)" fill="red"/>
          <rect id="Rectángulo_22809" data-name="Rectángulo 22809" width="9.421" height="46.777" transform="translate(1092.799 0.179)" fill="red"/>
          <rect id="Rectángulo_22810" data-name="Rectángulo 22810" width="9.421" height="46.777" transform="translate(1073.958 0.179)" fill="red"/>
          <rect id="Rectángulo_22811" data-name="Rectángulo 22811" width="9.42" height="46.777" transform="translate(1055.117 0.179)" fill="red"/>
          <rect id="Rectángulo_22812" data-name="Rectángulo 22812" width="9.421" height="46.777" transform="translate(1036.275 0.179)" fill="red"/>
          <rect id="Rectángulo_22813" data-name="Rectángulo 22813" width="9.422" height="46.777" transform="translate(1017.434 0.179)" fill="red"/>
          <rect id="Rectángulo_22814" data-name="Rectángulo 22814" width="9.42" height="46.777" transform="translate(1347.158 0.179)" fill="#fff"/>
          <rect id="Rectángulo_22815" data-name="Rectángulo 22815" width="9.422" height="46.777" transform="translate(1328.317 0.179)" fill="#fff"/>
          <rect id="Rectángulo_22816" data-name="Rectángulo 22816" width="9.421" height="46.777" transform="translate(1309.475 0.179)" fill="#fff"/>
          <rect id="Rectángulo_22817" data-name="Rectángulo 22817" width="9.422" height="46.777" transform="translate(1290.635 0.179)" fill="#fff"/>
          <rect id="Rectángulo_22818" data-name="Rectángulo 22818" width="9.42" height="46.777" transform="translate(1271.793 0.179)" fill="#fff"/>
          <rect id="Rectángulo_22819" data-name="Rectángulo 22819" width="9.421" height="46.777" transform="translate(1252.952 0.179)" fill="#fff"/>
          <rect id="Rectángulo_22820" data-name="Rectángulo 22820" width="9.421" height="46.777" transform="translate(1234.11 0.179)" fill="#fff"/>
          <rect id="Rectángulo_22821" data-name="Rectángulo 22821" width="9.42" height="46.777" transform="translate(1215.269 0.179)" fill="#fff"/>
          <rect id="Rectángulo_22822" data-name="Rectángulo 22822" width="9.422" height="46.777" transform="translate(1196.427 0.179)" fill="#fff"/>
          <rect id="Rectángulo_22823" data-name="Rectángulo 22823" width="9.421" height="46.777" transform="translate(1177.586 0.179)" fill="#fff"/>
          <rect id="Rectángulo_22824" data-name="Rectángulo 22824" width="9.42" height="46.777" transform="translate(1158.745 0.179)" fill="#fff"/>
          <rect id="Rectángulo_22825" data-name="Rectángulo 22825" width="9.42" height="46.777" transform="translate(1139.904 0.179)" fill="#fff"/>
          <rect id="Rectángulo_22826" data-name="Rectángulo 22826" width="9.422" height="46.777" transform="translate(1121.062 0.179)" fill="#fff"/>
          <rect id="Rectángulo_22827" data-name="Rectángulo 22827" width="9.421" height="46.777" transform="translate(1102.22 0.179)" fill="#fff"/>
          <rect id="Rectángulo_22828" data-name="Rectángulo 22828" width="9.421" height="46.777" transform="translate(1083.38 0.179)" fill="#fff"/>
          <rect id="Rectángulo_22829" data-name="Rectángulo 22829" width="9.421" height="46.777" transform="translate(1064.537 0.179)" fill="#fff"/>
          <rect id="Rectángulo_22830" data-name="Rectángulo 22830" width="9.422" height="46.777" transform="translate(1045.696 0.179)" fill="#fff"/>
          <rect id="Rectángulo_22831" data-name="Rectángulo 22831" width="9.42" height="46.777" transform="translate(1026.855 0.179)" fill="#fff"/>
          <g id="Grupo_19505" data-name="Grupo 19505" transform="translate(0 0.517)">
            <g id="Grupo_19504" data-name="Grupo 19504" clip-path="url(#clip-path-3)">
              <g id="Grupo_19503" data-name="Grupo 19503" transform="translate(1017.435 -0.517)" opacity="0.5">
                <g id="Grupo_19502" data-name="Grupo 19502">
                  <g id="Grupo_19501" data-name="Grupo 19501" clip-path="url(#clip-path-4)">
                    <rect id="Rectángulo_22832" data-name="Rectángulo 22832" width="348.565" height="9.42" transform="translate(-0.001 28.263)" fill="#fff"/>
                    <rect id="Rectángulo_22833" data-name="Rectángulo 22833" width="348.565" height="9.42" transform="translate(-0.001 9.421)" fill="#fff"/>
                    <g id="Grupo_19500" data-name="Grupo 19500" transform="translate(-0.001)">
                      <g id="Grupo_19499" data-name="Grupo 19499" clip-path="url(#clip-path-5)">
                        <g id="Grupo_19498" data-name="Grupo 19498" transform="translate(0.001)" opacity="0.7">
                          <g id="Grupo_19497" data-name="Grupo 19497">
                            <g id="Grupo_19496" data-name="Grupo 19496" clip-path="url(#clip-path-4)">
                              <rect id="Rectángulo_22834" data-name="Rectángulo 22834" width="348.565" height="9.421" transform="translate(-0.001 37.682)" fill="red"/>
                              <rect id="Rectángulo_22835" data-name="Rectángulo 22835" width="348.565" height="9.42" transform="translate(-0.001 18.842)" fill="red"/>
                              <rect id="Rectángulo_22836" data-name="Rectángulo 22836" width="348.565" height="9.42" transform="translate(-0.001)" fill="red"/>
                            </g>
                          </g>
                        </g>
                      </g>
                    </g>
                  </g>
                </g>
              </g>
            </g>
          </g>
          <rect id="Rectángulo_22841" data-name="Rectángulo 22841" width="9.422" height="46.777" transform="translate(1017.434 0.179)" fill="red"/>
          <rect id="Rectángulo_22842" data-name="Rectángulo 22842" width="9.421" height="46.777" transform="translate(998.593 0.179)" fill="red"/>
          <rect id="Rectángulo_22843" data-name="Rectángulo 22843" width="9.42" height="46.777" transform="translate(979.752 0.179)" fill="red"/>
          <rect id="Rectángulo_22844" data-name="Rectángulo 22844" width="9.421" height="46.777" transform="translate(960.91 0.179)" fill="red"/>
          <rect id="Rectángulo_22845" data-name="Rectángulo 22845" width="9.422" height="46.777" transform="translate(942.069 0.179)" fill="red"/>
          <rect id="Rectángulo_22846" data-name="Rectángulo 22846" width="9.42" height="46.777" transform="translate(923.227 0.179)" fill="red"/>
          <rect id="Rectángulo_22847" data-name="Rectángulo 22847" width="9.422" height="46.777" transform="translate(904.386 0.179)" fill="red"/>
          <rect id="Rectángulo_22848" data-name="Rectángulo 22848" width="9.421" height="46.777" transform="translate(885.544 0.179)" fill="red"/>
          <rect id="Rectángulo_22849" data-name="Rectángulo 22849" width="9.422" height="46.777" transform="translate(866.704 0.179)" fill="red"/>
          <rect id="Rectángulo_22850" data-name="Rectángulo 22850" width="9.42" height="46.777" transform="translate(847.862 0.179)" fill="red"/>
          <rect id="Rectángulo_22851" data-name="Rectángulo 22851" width="9.422" height="46.777" transform="translate(829.02 0.179)" fill="red"/>
          <rect id="Rectángulo_22852" data-name="Rectángulo 22852" width="9.421" height="46.777" transform="translate(810.179 0.179)" fill="red"/>
          <rect id="Rectángulo_22853" data-name="Rectángulo 22853" width="9.421" height="46.777" transform="translate(791.338 0.179)" fill="red"/>
          <rect id="Rectángulo_22854" data-name="Rectángulo 22854" width="9.421" height="46.777" transform="translate(772.496 0.179)" fill="red"/>
          <rect id="Rectángulo_22855" data-name="Rectángulo 22855" width="9.421" height="46.777" transform="translate(753.655 0.179)" fill="red"/>
          <rect id="Rectángulo_22856" data-name="Rectángulo 22856" width="9.421" height="46.777" transform="translate(734.813 0.179)" fill="red"/>
          <rect id="Rectángulo_22857" data-name="Rectángulo 22857" width="9.42" height="46.777" transform="translate(715.973 0.179)" fill="red"/>
          <rect id="Rectángulo_22858" data-name="Rectángulo 22858" width="9.421" height="46.777" transform="translate(697.131 0.179)" fill="red"/>
          <rect id="Rectángulo_22859" data-name="Rectángulo 22859" width="9.421" height="46.777" transform="translate(678.289 0.179)" fill="red"/>
          <rect id="Rectángulo_22860" data-name="Rectángulo 22860" width="9.421" height="46.777" transform="translate(1008.014 0.179)" fill="#fff"/>
          <rect id="Rectángulo_22861" data-name="Rectángulo 22861" width="9.421" height="46.777" transform="translate(989.172 0.179)" fill="#fff"/>
          <rect id="Rectángulo_22862" data-name="Rectángulo 22862" width="9.422" height="46.777" transform="translate(970.331 0.179)" fill="#fff"/>
          <rect id="Rectángulo_22863" data-name="Rectángulo 22863" width="9.42" height="46.777" transform="translate(951.489 0.179)" fill="#fff"/>
          <rect id="Rectángulo_22864" data-name="Rectángulo 22864" width="9.421" height="46.777" transform="translate(932.648 0.179)" fill="#fff"/>
          <rect id="Rectángulo_22865" data-name="Rectángulo 22865" width="9.421" height="46.777" transform="translate(913.806 0.179)" fill="#fff"/>
          <rect id="Rectángulo_22866" data-name="Rectángulo 22866" width="9.42" height="46.777" transform="translate(894.966 0.179)" fill="#fff"/>
          <rect id="Rectángulo_22867" data-name="Rectángulo 22867" width="9.42" height="46.777" transform="translate(876.124 0.179)" fill="#fff"/>
          <rect id="Rectángulo_22868" data-name="Rectángulo 22868" width="9.421" height="46.777" transform="translate(857.282 0.179)" fill="#fff"/>
          <rect id="Rectángulo_22869" data-name="Rectángulo 22869" width="9.422" height="46.777" transform="translate(838.441 0.179)" fill="#fff"/>
          <rect id="Rectángulo_22870" data-name="Rectángulo 22870" width="9.42" height="46.777" transform="translate(819.6 0.179)" fill="#fff"/>
          <rect id="Rectángulo_22871" data-name="Rectángulo 22871" width="9.422" height="46.777" transform="translate(800.758 0.179)" fill="#fff"/>
          <rect id="Rectángulo_22872" data-name="Rectángulo 22872" width="9.421" height="46.777" transform="translate(781.917 0.179)" fill="#fff"/>
          <rect id="Rectángulo_22873" data-name="Rectángulo 22873" width="9.421" height="46.777" transform="translate(763.076 0.179)" fill="#fff"/>
          <rect id="Rectángulo_22874" data-name="Rectángulo 22874" width="9.42" height="46.777" transform="translate(744.234 0.179)" fill="#fff"/>
          <rect id="Rectángulo_22875" data-name="Rectángulo 22875" width="9.422" height="46.777" transform="translate(725.393 0.179)" fill="#fff"/>
          <rect id="Rectángulo_22876" data-name="Rectángulo 22876" width="9.421" height="46.777" transform="translate(706.551 0.179)" fill="#fff"/>
          <rect id="Rectángulo_22877" data-name="Rectángulo 22877" width="9.421" height="46.777" transform="translate(687.711 0.179)" fill="#fff"/>
          <g id="Grupo_19515" data-name="Grupo 19515" transform="translate(0 0.517)">
            <g id="Grupo_19514" data-name="Grupo 19514" clip-path="url(#clip-path-3)">
              <g id="Grupo_19513" data-name="Grupo 19513" transform="translate(678.289 -0.517)" opacity="0.5">
                <g id="Grupo_19512" data-name="Grupo 19512">
                  <g id="Grupo_19511" data-name="Grupo 19511" clip-path="url(#clip-path-5)">
                    <rect id="Rectángulo_22878" data-name="Rectángulo 22878" width="348.566" height="9.42" transform="translate(0 28.263)" fill="#fff"/>
                    <rect id="Rectángulo_22879" data-name="Rectángulo 22879" width="348.566" height="9.42" transform="translate(0 9.421)" fill="#fff"/>
                    <g id="Grupo_19510" data-name="Grupo 19510">
                      <g id="Grupo_19509" data-name="Grupo 19509" clip-path="url(#clip-path-5)">
                        <g id="Grupo_19508" data-name="Grupo 19508" opacity="0.7">
                          <g id="Grupo_19507" data-name="Grupo 19507">
                            <g id="Grupo_19506" data-name="Grupo 19506" clip-path="url(#clip-path-5)">
                              <rect id="Rectángulo_22880" data-name="Rectángulo 22880" width="348.566" height="9.421" transform="translate(0 37.682)" fill="red"/>
                              <rect id="Rectángulo_22881" data-name="Rectángulo 22881" width="348.566" height="9.42" transform="translate(0 18.842)" fill="red"/>
                              <rect id="Rectángulo_22882" data-name="Rectángulo 22882" width="348.566" height="9.42" fill="red"/>
                            </g>
                          </g>
                        </g>
                      </g>
                    </g>
                  </g>
                </g>
              </g>
            </g>
          </g>
          <rect id="Rectángulo_22887" data-name="Rectángulo 22887" width="9.421" height="46.777" transform="translate(678.289 0.179)" fill="red"/>
          <rect id="Rectángulo_22888" data-name="Rectángulo 22888" width="9.42" height="46.777" transform="translate(659.449 0.179)" fill="red"/>
          <rect id="Rectángulo_22889" data-name="Rectángulo 22889" width="9.421" height="46.777" transform="translate(640.606 0.179)" fill="red"/>
          <rect id="Rectángulo_22890" data-name="Rectángulo 22890" width="9.422" height="46.777" transform="translate(621.766 0.179)" fill="red"/>
          <rect id="Rectángulo_22891" data-name="Rectángulo 22891" width="9.421" height="46.777" transform="translate(602.924 0.179)" fill="red"/>
          <rect id="Rectángulo_22892" data-name="Rectángulo 22892" width="9.421" height="46.777" transform="translate(584.083 0.179)" fill="red"/>
          <rect id="Rectángulo_22893" data-name="Rectángulo 22893" width="9.421" height="46.777" transform="translate(565.241 0.179)" fill="red"/>
          <rect id="Rectángulo_22894" data-name="Rectángulo 22894" width="9.422" height="46.777" transform="translate(546.4 0.179)" fill="red"/>
          <rect id="Rectángulo_22895" data-name="Rectángulo 22895" width="9.42" height="46.777" transform="translate(527.558 0.179)" fill="red"/>
          <rect id="Rectángulo_22896" data-name="Rectángulo 22896" width="9.421" height="46.777" transform="translate(508.718 0.179)" fill="red"/>
          <rect id="Rectángulo_22897" data-name="Rectángulo 22897" width="9.421" height="46.777" transform="translate(489.875 0.179)" fill="red"/>
          <rect id="Rectángulo_22898" data-name="Rectángulo 22898" width="9.421" height="46.777" transform="translate(471.034 0.179)" fill="red"/>
          <rect id="Rectángulo_22899" data-name="Rectángulo 22899" width="9.42" height="46.777" transform="translate(452.193 0.179)" fill="red"/>
          <rect id="Rectángulo_22900" data-name="Rectángulo 22900" width="9.421" height="46.777" transform="translate(433.351 0.179)" fill="red"/>
          <rect id="Rectángulo_22901" data-name="Rectángulo 22901" width="9.421" height="46.777" transform="translate(414.51 0.179)" fill="red"/>
          <rect id="Rectángulo_22902" data-name="Rectángulo 22902" width="9.42" height="46.777" transform="translate(395.669 0.179)" fill="red"/>
          <rect id="Rectángulo_22903" data-name="Rectángulo 22903" width="9.422" height="46.777" transform="translate(376.827 0.179)" fill="red"/>
          <rect id="Rectángulo_22904" data-name="Rectángulo 22904" width="9.421" height="46.777" transform="translate(357.986 0.179)" fill="red"/>
          <rect id="Rectángulo_22905" data-name="Rectángulo 22905" width="9.421" height="46.777" transform="translate(339.145 0.179)" fill="red"/>
          <rect id="Rectángulo_22906" data-name="Rectángulo 22906" width="9.421" height="46.777" transform="translate(668.868 0.179)" fill="#fff"/>
          <rect id="Rectángulo_22907" data-name="Rectángulo 22907" width="9.422" height="46.777" transform="translate(650.027 0.179)" fill="#fff"/>
          <rect id="Rectángulo_22908" data-name="Rectángulo 22908" width="9.42" height="46.777" transform="translate(631.186 0.179)" fill="#fff"/>
          <rect id="Rectángulo_22909" data-name="Rectángulo 22909" width="9.421" height="46.777" transform="translate(612.345 0.179)" fill="#fff"/>
          <rect id="Rectángulo_22910" data-name="Rectángulo 22910" width="9.421" height="46.777" transform="translate(593.503 0.179)" fill="#fff"/>
          <rect id="Rectángulo_22911" data-name="Rectángulo 22911" width="9.421" height="46.777" transform="translate(574.662 0.179)" fill="#fff"/>
          <rect id="Rectángulo_22912" data-name="Rectángulo 22912" width="9.42" height="46.777" transform="translate(555.82 0.179)" fill="#fff"/>
          <rect id="Rectángulo_22913" data-name="Rectángulo 22913" width="9.421" height="46.777" transform="translate(536.979 0.179)" fill="#fff"/>
          <rect id="Rectángulo_22914" data-name="Rectángulo 22914" width="9.422" height="46.777" transform="translate(518.137 0.179)" fill="#fff"/>
          <rect id="Rectángulo_22915" data-name="Rectángulo 22915" width="9.421" height="46.777" transform="translate(499.297 0.179)" fill="#fff"/>
          <rect id="Rectángulo_22916" data-name="Rectángulo 22916" width="9.422" height="46.777" transform="translate(480.455 0.179)" fill="#fff"/>
          <rect id="Rectángulo_22917" data-name="Rectángulo 22917" width="9.421" height="46.777" transform="translate(461.613 0.179)" fill="#fff"/>
          <rect id="Rectángulo_22918" data-name="Rectángulo 22918" width="9.421" height="46.777" transform="translate(442.773 0.179)" fill="#fff"/>
          <rect id="Rectángulo_22919" data-name="Rectángulo 22919" width="9.42" height="46.777" transform="translate(423.931 0.179)" fill="#fff"/>
          <rect id="Rectángulo_22920" data-name="Rectángulo 22920" width="9.422" height="46.777" transform="translate(405.089 0.179)" fill="#fff"/>
          <rect id="Rectángulo_22921" data-name="Rectángulo 22921" width="9.421" height="46.777" transform="translate(386.248 0.179)" fill="#fff"/>
          <rect id="Rectángulo_22922" data-name="Rectángulo 22922" width="9.421" height="46.777" transform="translate(367.407 0.179)" fill="#fff"/>
          <rect id="Rectángulo_22923" data-name="Rectángulo 22923" width="9.42" height="46.777" transform="translate(348.565 0.179)" fill="#fff"/>
          <g id="Grupo_19525" data-name="Grupo 19525" transform="translate(0 0.517)">
            <g id="Grupo_19524" data-name="Grupo 19524" clip-path="url(#clip-path-3)">
              <g id="Grupo_19523" data-name="Grupo 19523" transform="translate(339.145 -0.517)" opacity="0.5">
                <g id="Grupo_19522" data-name="Grupo 19522">
                  <g id="Grupo_19521" data-name="Grupo 19521" clip-path="url(#clip-path-4)">
                    <rect id="Rectángulo_22924" data-name="Rectángulo 22924" width="348.565" height="9.42" transform="translate(0 28.263)" fill="#fff"/>
                    <rect id="Rectángulo_22925" data-name="Rectángulo 22925" width="348.565" height="9.42" transform="translate(0 9.421)" fill="#fff"/>
                    <g id="Grupo_19520" data-name="Grupo 19520" transform="translate(0)">
                      <g id="Grupo_19519" data-name="Grupo 19519" clip-path="url(#clip-path-4)">
                        <g id="Grupo_19518" data-name="Grupo 19518" transform="translate(0)" opacity="0.7">
                          <g id="Grupo_19517" data-name="Grupo 19517">
                            <g id="Grupo_19516" data-name="Grupo 19516" clip-path="url(#clip-path-4)">
                              <rect id="Rectángulo_22926" data-name="Rectángulo 22926" width="348.565" height="9.421" transform="translate(0 37.682)" fill="red"/>
                              <rect id="Rectángulo_22927" data-name="Rectángulo 22927" width="348.565" height="9.42" transform="translate(0 18.842)" fill="red"/>
                              <rect id="Rectángulo_22928" data-name="Rectángulo 22928" width="348.565" height="9.42" fill="red"/>
                            </g>
                          </g>
                        </g>
                      </g>
                    </g>
                  </g>
                </g>
              </g>
            </g>
          </g>
          <rect id="Rectángulo_22933" data-name="Rectángulo 22933" width="9.421" height="46.777" transform="translate(339.145 0.179)" fill="red"/>
          <rect id="Rectángulo_22934" data-name="Rectángulo 22934" width="9.42" height="46.777" transform="translate(320.304 0.179)" fill="red"/>
          <rect id="Rectángulo_22935" data-name="Rectángulo 22935" width="9.422" height="46.777" transform="translate(301.462 0.179)" fill="red"/>
          <rect id="Rectángulo_22936" data-name="Rectángulo 22936" width="9.421" height="46.777" transform="translate(282.62 0.179)" fill="red"/>
          <rect id="Rectángulo_22937" data-name="Rectángulo 22937" width="9.421" height="46.777" transform="translate(263.78 0.179)" fill="red"/>
          <rect id="Rectángulo_22938" data-name="Rectángulo 22938" width="9.421" height="46.777" transform="translate(244.937 0.179)" fill="red"/>
          <rect id="Rectángulo_22939" data-name="Rectángulo 22939" width="9.422" height="46.777" transform="translate(226.096 0.179)" fill="red"/>
          <rect id="Rectángulo_22940" data-name="Rectángulo 22940" width="9.421" height="46.777" transform="translate(207.255 0.179)" fill="red"/>
          <rect id="Rectángulo_22941" data-name="Rectángulo 22941" width="9.421" height="46.777" transform="translate(188.414 0.179)" fill="red"/>
          <rect id="Rectángulo_22942" data-name="Rectángulo 22942" width="9.421" height="46.777" transform="translate(169.572 0.179)" fill="red"/>
          <rect id="Rectángulo_22943" data-name="Rectángulo 22943" width="9.422" height="46.777" transform="translate(150.731 0.179)" fill="red"/>
          <rect id="Rectángulo_22944" data-name="Rectángulo 22944" width="9.42" height="46.777" transform="translate(131.889 0.179)" fill="red"/>
          <rect id="Rectángulo_22945" data-name="Rectángulo 22945" width="9.421" height="46.777" transform="translate(113.048 0.179)" fill="red"/>
          <rect id="Rectángulo_22946" data-name="Rectángulo 22946" width="9.421" height="46.777" transform="translate(94.206 0.179)" fill="red"/>
          <rect id="Rectángulo_22947" data-name="Rectángulo 22947" width="9.42" height="46.777" transform="translate(75.365 0.179)" fill="red"/>
          <rect id="Rectángulo_22948" data-name="Rectángulo 22948" width="9.42" height="46.777" transform="translate(56.524 0.179)" fill="red"/>
          <rect id="Rectángulo_22949" data-name="Rectángulo 22949" width="9.421" height="46.777" transform="translate(37.682 0.179)" fill="red"/>
          <rect id="Rectángulo_22950" data-name="Rectángulo 22950" width="9.422" height="46.777" transform="translate(18.841 0.179)" fill="red"/>
          <rect id="Rectángulo_22951" data-name="Rectángulo 22951" width="9.42" height="46.777" transform="translate(0 0.179)" fill="red"/>
          <rect id="Rectángulo_22952" data-name="Rectángulo 22952" width="9.422" height="46.777" transform="translate(329.724 0.179)" fill="#fff"/>
          <rect id="Rectángulo_22953" data-name="Rectángulo 22953" width="9.421" height="46.777" transform="translate(310.882 0.179)" fill="#fff"/>
          <rect id="Rectángulo_22954" data-name="Rectángulo 22954" width="9.42" height="46.777" transform="translate(292.042 0.179)" fill="#fff"/>
          <rect id="Rectángulo_22955" data-name="Rectángulo 22955" width="9.421" height="46.777" transform="translate(273.199 0.179)" fill="#fff"/>
          <rect id="Rectángulo_22956" data-name="Rectángulo 22956" width="9.422" height="46.777" transform="translate(254.358 0.179)" fill="#fff"/>
          <rect id="Rectángulo_22957" data-name="Rectángulo 22957" width="9.42" height="46.777" transform="translate(235.518 0.179)" fill="#fff"/>
          <rect id="Rectángulo_22958" data-name="Rectángulo 22958" width="9.42" height="46.777" transform="translate(216.676 0.179)" fill="#fff"/>
          <rect id="Rectángulo_22959" data-name="Rectángulo 22959" width="9.421" height="46.777" transform="translate(197.835 0.179)" fill="#fff"/>
          <rect id="Rectángulo_22960" data-name="Rectángulo 22960" width="9.421" height="46.777" transform="translate(178.993 0.179)" fill="#fff"/>
          <rect id="Rectángulo_22961" data-name="Rectángulo 22961" width="9.42" height="46.777" transform="translate(160.152 0.179)" fill="#fff"/>
          <rect id="Rectángulo_22962" data-name="Rectángulo 22962" width="9.421" height="46.777" transform="translate(141.31 0.179)" fill="#fff"/>
          <rect id="Rectángulo_22963" data-name="Rectángulo 22963" width="9.422" height="46.777" transform="translate(122.469 0.179)" fill="#fff"/>
          <rect id="Rectángulo_22964" data-name="Rectángulo 22964" width="9.42" height="46.777" transform="translate(103.627 0.179)" fill="#fff"/>
          <rect id="Rectángulo_22965" data-name="Rectángulo 22965" width="9.422" height="46.777" transform="translate(84.786 0.179)" fill="#fff"/>
          <rect id="Rectángulo_22966" data-name="Rectángulo 22966" width="9.421" height="46.777" transform="translate(65.944 0.179)" fill="#fff"/>
          <rect id="Rectángulo_22967" data-name="Rectángulo 22967" width="9.422" height="46.777" transform="translate(47.104 0.179)" fill="#fff"/>
          <rect id="Rectángulo_22968" data-name="Rectángulo 22968" width="9.42" height="46.777" transform="translate(28.262 0.179)" fill="#fff"/>
          <rect id="Rectángulo_22969" data-name="Rectángulo 22969" width="9.422" height="46.777" transform="translate(9.42 0.179)" fill="#fff"/>
          <g id="Grupo_19535" data-name="Grupo 19535" transform="translate(0 0.517)">
            <g id="Grupo_19534" data-name="Grupo 19534" clip-path="url(#clip-path-3)">
              <g id="Grupo_19533" data-name="Grupo 19533" transform="translate(0 -0.517)" opacity="0.5">
                <g id="Grupo_19532" data-name="Grupo 19532">
                  <g id="Grupo_19531" data-name="Grupo 19531" clip-path="url(#clip-path-4)">
                    <rect id="Rectángulo_22970" data-name="Rectángulo 22970" width="348.565" height="9.42" transform="translate(0 28.263)" fill="#fff"/>
                    <rect id="Rectángulo_22971" data-name="Rectángulo 22971" width="348.565" height="9.42" transform="translate(0 9.421)" fill="#fff"/>
                    <g id="Grupo_19530" data-name="Grupo 19530" transform="translate(0)">
                      <g id="Grupo_19529" data-name="Grupo 19529" clip-path="url(#clip-path-4)">
                        <g id="Grupo_19528" data-name="Grupo 19528" transform="translate(0)" opacity="0.7">
                          <g id="Grupo_19527" data-name="Grupo 19527">
                            <g id="Grupo_19526" data-name="Grupo 19526" clip-path="url(#clip-path-4)">
                              <rect id="Rectángulo_22972" data-name="Rectángulo 22972" width="348.565" height="9.421" transform="translate(0 37.682)" fill="red"/>
                              <rect id="Rectángulo_22973" data-name="Rectángulo 22973" width="348.565" height="9.42" transform="translate(0 18.842)" fill="red"/>
                              <rect id="Rectángulo_22974" data-name="Rectángulo 22974" width="348.565" height="9.42" transform="translate(0)" fill="red"/>
                            </g>
                          </g>
                        </g>
                      </g>
                    </g>
                  </g>
                </g>
              </g>
            </g>
          </g>
        </g>
      </g>
      <rect id="Rectángulo_23337" data-name="Rectángulo 23337" width="768" height="60" transform="translate(-0.395 964)" fill="#222"/>
    </g>
  </g>
</svg>
