<svg xmlns="http://www.w3.org/2000/svg" width="20.774" height="54.613" viewBox="0 0 20.774 54.613">
  <path id="contoure-nutricion" d="M238.591,283.829c0-4.277,1.4-12.551,1.466-13.065.105-.855.315-1.708-.152-1.9.572-.424.114-10.978-.886-11.379.506,0,.327-1.184.221-2-.194-1.493-1.512-5.011-2.642-8.83l-.222-.52c-1.682.08-9.106.016-11.136,0l-.155.52c-1.131,3.817-2.45,7.336-2.642,8.83-.106.814-.286,2,.22,2-1,.4-1.458,10.955-.886,11.379-.466.195-.257,1.048-.152,1.9.062.513,1.462,8.788,1.467,13.065a19.111,19.111,0,0,1-1.148,7.028c-.509,1.594-1.048,5.662.791,6.705,1.1.624,4.753,1.156,8.108,1.156s7.006-.532,8.108-1.156c1.839-1.043,1.3-5.109.791-6.705A19.085,19.085,0,0,1,238.591,283.829Z" transform="translate(-220.457 -245.105)" fill="#05a451" stroke="#05a451" stroke-width="2" fill-rule="evenodd"/>
</svg>
