<svg xmlns="http://www.w3.org/2000/svg" width="40.531" height="109.947" viewBox="0 0 40.531 109.947">
  <path id="contoure-rojo" d="M256.621,323.5c.008-8.779,2.882-25.759,3.009-26.814.216-1.755.646-3.5-.311-3.9,1.173-.871.235-22.53-1.818-23.355,1.039,0,.671-2.431.453-4.1-.4-3.064-3.1-10.284-5.422-18.122l-.455-1.068c-3.452.164-18.689.032-22.856,0-.11.369-.217.729-.318,1.068-2.322,7.833-5.028,15.057-5.422,18.122-.218,1.67-.586,4.1.452,4.1-2.057.829-2.991,22.484-1.818,23.355-.956.4-.527,2.15-.311,3.9.128,1.054,3,18.035,3.01,26.814a39.224,39.224,0,0,1-2.356,14.423c-1.044,3.272-2.15,11.621,1.624,13.761,2.26,1.281,9.755,2.373,16.64,2.373s14.379-1.092,16.64-2.373c3.774-2.14,2.668-10.485,1.624-13.761A39.168,39.168,0,0,1,256.621,323.5Z" transform="translate(-220.456 -245.105)" fill="#f40000" stroke="#f40000" stroke-width="2" fill-rule="evenodd"/>
</svg>
