<svg id="BG-movil" xmlns="http://www.w3.org/2000/svg" xmlns:xlink="http://www.w3.org/1999/xlink" width="414" height="65" viewBox="0 0 414 65">
  <defs>
    <clipPath id="clip-path">
      <rect id="Rect치ngulo_23332" data-name="Rect치ngulo 23332" width="414" height="65" transform="translate(-11540 -19099)" fill="#f40000"/>
    </clipPath>
  </defs>
  <g id="Enmascarar_grupo_1359" data-name="Enmascarar grupo 1359" transform="translate(11540 19099)" clip-path="url(#clip-path)">
    <g id="Grupo_19806" data-name="Grupo 19806" transform="translate(-11959 -19186.006)">
      <rect id="Rect치ngulo_23331" data-name="Rect치ngulo 23331" width="414" height="65" transform="translate(419 87.006)" fill="#f40000"/>
      <g id="Grupo_19805" data-name="Grupo 19805" transform="translate(13.472 0)">
        <g id="Grupo_19800" data-name="Grupo 19800" transform="translate(641.187 102.204) rotate(90)">
          <path id="Trazado_42717" data-name="Trazado 42717" d="M11.566,31.687q0,14.5,0,29.01c0,.281,0,.562.017.843a2.451,2.451,0,0,1-1.144,2.288,1.441,1.441,0,0,0-.68,1.4c.12,3.121.213,6.243.311,9.365q.215,6.815.426,13.63.194,6.135.393,12.269c.105,3.325.224,6.651.3,9.977a4.52,4.52,0,0,1-3.113,4.612,4.272,4.272,0,0,1-5.256-4.46c.027-2.468.136-4.934.213-7.4q.177-5.62.36-11.239.221-7.026.436-14.051.2-6.135.409-12.269c.025-.74-.138-1.057-.745-1.332A5.436,5.436,0,0,1,.305,59.555,89.427,89.427,0,0,1,.056,48.508c.127-5.558.3-11.116.576-16.667.165-3.333.5-6.661.866-9.978A81.566,81.566,0,0,1,4.172,7.322,18.118,18.118,0,0,1,6.6,1.875,3.887,3.887,0,0,1,9.238.017a2.519,2.519,0,0,1,.886.057,1.28,1.28,0,0,1,1.086,1.39q.063,3.7.094,7.4.065,9.045.112,18.09c.009,1.577,0,3.154,0,4.731h.148" transform="translate(0 24.366)" fill="#dd0606"/>
          <path id="Trazado_42718" data-name="Trazado 42718" d="M37.8,16.715a.395.395,0,1,1-.409.395.4.4,0,0,1,.409-.395h0m-2.9.395a.408.408,0,1,0,.409-.395.4.4,0,0,0-.409.395h0m-2.492,0a.408.408,0,1,0,.408-.395h0a.4.4,0,0,0-.408.394h0M.817,14.722a.386.386,0,0,0-.136-.292c-.06.223-.119.447-.172.674a.4.4,0,0,0,.308-.381m29.1,2.387a.409.409,0,1,0,.409-.395h0a.4.4,0,0,0-.408.394h0M.408,17.5a.395.395,0,1,0,0-.789.418.418,0,0,0-.216.059c-.029.2-.056.407-.078.612a.412.412,0,0,0,.292.118m12.057-.395a.408.408,0,1,0,.409-.395h0a.4.4,0,0,0-.408.394h0m7.479,0a.409.409,0,1,0,.409-.395h0a.4.4,0,0,0-.408.393h0m-2.493,0a.409.409,0,1,0,.409-.395h0a.4.4,0,0,0-.409.394h0m-2.493,0a.408.408,0,1,0,.408-.395h0a.4.4,0,0,0-.408.394h0m7.48,0a.408.408,0,1,0,.408-.395.4.4,0,0,0-.408.395v0M34.9,14.722a.408.408,0,1,0,.409-.4.4.4,0,0,0-.409.4M24.93,17.11a.409.409,0,1,0,.409-.395h0a.4.4,0,0,0-.408.393v0m2.493,0a.408.408,0,1,0,.409-.395.4.4,0,0,0-.409.395v0m2.493-2.387a.409.409,0,1,0,.408-.4.4.4,0,0,0-.408.4m-7.478,0a.408.408,0,1,0,.408-.4.4.4,0,0,0-.408.4m2.493,0a.409.409,0,1,0,.408-.4.4.4,0,0,0-.408.4m-19.943,0a.408.408,0,1,0,.407-.4.4.4,0,0,0-.407.4h0m27.422,0a.408.408,0,1,0,.408-.4.4.4,0,0,0-.408.4m4.986,0a.408.408,0,1,0,.409-.4.4.4,0,0,0-.409.4m-9.972,0a.408.408,0,1,0,.409-.4.4.4,0,0,0-.409.4h0m-17.451,0a.409.409,0,1,0,.409-.4.4.4,0,0,0-.409.4m-2.492,0a.409.409,0,1,0,.408-.4.4.4,0,0,0-.408.4m4.986,0a.408.408,0,1,0,.408-.4.4.4,0,0,0-.408.4m7.479,0a.409.409,0,1,0,.408-.4.4.4,0,0,0-.408.4m-4.986,0a.408.408,0,1,0,.408-.4.4.4,0,0,0-.408.4m2.493,0a.409.409,0,1,0,.409-.4.4.4,0,0,0-.409.4m-14.957,0a.409.409,0,1,0,.408-.4h0a.4.4,0,0,0-.408.4M9.972,17.11a.409.409,0,1,0,.409-.395h0a.4.4,0,0,0-.409.394h0M7.48,19.5a.409.409,0,1,0,.408-.4h0a.4.4,0,0,0-.408.4h0m-4.986,0a.409.409,0,1,0,.408-.4h0a.4.4,0,0,0-.408.4m7.479,0a.409.409,0,1,0,.409-.4.4.4,0,0,0-.409.4h0M.408,22.281a.4.4,0,1,0,0-.791.415.415,0,0,0-.293.119c.023.205.049.408.079.611a.42.42,0,0,0,.213.06M12.465,19.5a.408.408,0,1,0,.408-.4.4.4,0,0,0-.408.4h0m14.958,2.387a.408.408,0,1,0,.409-.4.4.4,0,0,0-.409.4h0M14.958,19.5a.408.408,0,1,0,.408-.4.4.4,0,0,0-.408.4m9.972,2.387a.408.408,0,1,0,.408-.4h0a.4.4,0,0,0-.408.4m9.971,0a.408.408,0,1,0,.409-.4.4.4,0,0,0-.409.4m-4.986,0a.409.409,0,1,0,.409-.4h0a.4.4,0,0,0-.408.4m7.479,0a.408.408,0,1,0,.409-.4.4.4,0,0,0-.409.4m-4.986,0a.408.408,0,1,0,.408-.4.4.4,0,0,0-.408.4M4.986,19.5a.408.408,0,1,0,.408-.4h0a.4.4,0,0,0-.407.394h0M0,19.5a.4.4,0,0,0,.409.4.4.4,0,1,0,0-.791h0A.4.4,0,0,0,0,19.5H0M2.493,17.11a.409.409,0,1,0,.409-.395h0a.4.4,0,0,0-.408.394h0m34.9,2.388a.408.408,0,1,0,.409-.4.4.4,0,0,0-.409.4m-2.493,0a.408.408,0,1,0,.409-.4.4.4,0,0,0-.409.4M4.986,17.11a.408.408,0,1,0,.408-.395h0a.4.4,0,0,0-.407.393v0m2.493,0a.409.409,0,1,0,.409-.395h0a.4.4,0,0,0-.408.394h0M22.437,19.5a.408.408,0,1,0,.408-.4.4.4,0,0,0-.408.4h0m2.493,0a.409.409,0,1,0,.408-.4.4.4,0,0,0-.408.4h0m-7.479,0a.409.409,0,1,0,.409-.4.4.4,0,0,0-.409.4m14.958,0a.408.408,0,1,0,.408-.4.4.4,0,0,0-.408.4m-12.465,0a.409.409,0,1,0,.408-.4h0a.4.4,0,0,0-.408.395h0m9.971,0a.409.409,0,1,0,.408-.4.4.4,0,0,0-.408.4h0m-2.493,0a.408.408,0,1,0,.409-.4.4.4,0,0,0-.409.4v0M12.465,2.783a.408.408,0,1,0,.408-.4.4.4,0,0,0-.408.4h0M32.409,9.946a.408.408,0,1,0,.408-.4.4.4,0,0,0-.408.4v0M19.944,5.171a.409.409,0,1,0,.408-.4.4.4,0,0,0-.408.4m-4.986,0a.408.408,0,1,0,.408-.4.4.4,0,0,0-.408.4m2.493,0a.409.409,0,1,0,.409-.4.4.4,0,0,0-.409.4m7.479,0a.409.409,0,1,0,.408-.4.4.4,0,0,0-.408.4m4.986,0a.409.409,0,1,0,.408-.4.4.4,0,0,0-.408.4m3.309,0a.408.408,0,1,0-.408.4.4.4,0,0,0,.408-.4h0M25.338.791a.405.405,0,0,0,.393-.3C25.471.426,25.209.361,24.942.3A.4.4,0,0,0,24.93.4a.4.4,0,0,0,.408.4M37.8,28.653a.4.4,0,1,0,0,.791.4.4,0,0,0,.132-.023c.091-.149.181-.3.266-.454a.4.4,0,0,0-.4-.314M12.465,5.171a.408.408,0,1,0,.408-.4.4.4,0,0,0-.408.4m14.958,0a.408.408,0,1,0,.409-.4.4.4,0,0,0-.409.4h0m-19.944,0a.409.409,0,1,0,.408-.4.4.4,0,0,0-.408.4m2.492,0a.409.409,0,1,0,.409-.4.4.4,0,0,0-.409.4m12.466,0a.408.408,0,1,0,.408-.4.4.4,0,0,0-.408.4m7.478-2.388a.409.409,0,1,0,.408-.4.4.4,0,0,0-.408.4h0M17.451.4a.409.409,0,0,0,.817,0,.409.409,0,0,0-.817,0m9.972,2.387a.408.408,0,1,0,.409-.4.4.4,0,0,0-.409.4v0m-17.451,0a.409.409,0,1,0,.409-.4h0a.4.4,0,0,0-.409.394h0M19.944.4a.409.409,0,0,0,.817,0,.409.409,0,0,0-.817,0h0m2.493,0a.408.408,0,0,0,.816,0,.408.408,0,0,0-.816,0h0m-7.072.4a.4.4,0,0,0,.408-.4A.327.327,0,0,0,15.761.3c-.266.059-.527.125-.788.193a.4.4,0,0,0,.393.3m2.085,1.992a.409.409,0,1,0,.409-.4.4.4,0,0,0-.409.4h0m-2.493,0a.408.408,0,1,0,.408-.4.4.4,0,0,0-.408.4h0m7.48,19.1a.408.408,0,1,0,.408-.4.4.4,0,0,0-.408.4m0-19.1a.408.408,0,1,0,.408-.4.4.4,0,0,0-.408.4v0m2.493,0a.409.409,0,1,0,.408-.4h0a.4.4,0,0,0-.408.394v0m-4.986,0a.409.409,0,1,0,.409-.4h0a.4.4,0,0,0-.408.394h0m17.45,9.552a.408.408,0,1,0,.409-.4.4.4,0,0,0-.409.4h0m-12.464,0a.409.409,0,1,0,.408-.4.4.4,0,0,0-.408.4h0m-2.493,0a.408.408,0,1,0,.408-.4.4.4,0,0,0-.408.4v0m4.985,0a.408.408,0,1,0,.409-.4.4.4,0,0,0-.409.4v0m2.493,0a.409.409,0,1,0,.408-.4.4.4,0,0,0-.408.4h0m2.493,0a.408.408,0,1,0,.408-.4.4.4,0,0,0-.408.4h0m-12.465,0a.409.409,0,1,0,.408-.4.4.4,0,0,0-.408.4h0m-14.957,0a.408.408,0,1,0,.407-.4.4.4,0,0,0-.407.4v0m2.493,0a.409.409,0,1,0,.408-.4.4.4,0,0,0-.408.4h0m2.492,0a.409.409,0,1,0,.409-.4.4.4,0,0,0-.409.4h0m-7.479,0a.409.409,0,1,0,.408-.4h0a.4.4,0,0,0-.408.4h0m14.957,0a.409.409,0,1,0,.409-.4.4.4,0,0,0-.409.4h0m-4.985,0a.408.408,0,1,0,.408-.4.4.4,0,0,0-.408.4h0m2.493,0a.408.408,0,1,0,.408-.4.4.4,0,0,0-.408.4h0M34.9,9.946a.408.408,0,1,0,.409-.4.4.4,0,0,0-.409.4v0m-9.971,0a.409.409,0,1,0,.409-.4h0a.4.4,0,0,0-.408.392v0m-2.493,0a.408.408,0,1,0,.408-.4.4.4,0,0,0-.408.4v0M34.9,12.335a.408.408,0,1,0,.409-.4.4.4,0,0,0-.409.4h0M17.451,9.946a.409.409,0,1,0,.409-.4h0a.4.4,0,0,0-.409.393v0m12.465,0a.409.409,0,1,0,.409-.4h0a.4.4,0,0,0-.408.392v0m-2.493,0a.408.408,0,1,0,.409-.4.4.4,0,0,0-.409.4v0m-7.479,0a.409.409,0,1,0,.409-.4h0a.4.4,0,0,0-.408.392v0m-12.465,0a.409.409,0,1,0,.409-.4h0a.4.4,0,0,0-.408.393v0m-2.493,0a.408.408,0,1,0,.408-.4h0a.4.4,0,0,0-.407.392v0m7.478,0a.408.408,0,1,0,.408-.4h0a.4.4,0,0,0-.408.393v0m-2.493,0a.409.409,0,1,0,.409-.4h0a.4.4,0,0,0-.409.393v0m4.986,0a.408.408,0,1,0,.408-.4.4.4,0,0,0-.408.4v0m8.3,26.266a.408.408,0,1,0-.408.395.4.4,0,0,0,.408-.395M10.789,7.559a.409.409,0,1,0-.408.4.4.4,0,0,0,.408-.4h0M40.3,16.715a.395.395,0,1,0,0,.789.414.414,0,0,0,.291-.118c-.022-.206-.049-.409-.078-.612a.415.415,0,0,0-.213-.059M13.282,7.559a.408.408,0,1,0-.408.4.4.4,0,0,0,.408-.4h0m2.492,0a.408.408,0,1,0-.408.4.4.4,0,0,0,.408-.4h0m21.62,2.388a.409.409,0,0,0,.807.082c-.085-.152-.175-.3-.266-.453a.405.405,0,0,0-.541.372m2.493,4.776a.4.4,0,0,0,.307.381c-.053-.226-.111-.45-.172-.674a.387.387,0,0,0-.135.292M8.3,7.559a.409.409,0,1,0-.409.4.4.4,0,0,0,.409-.4h0m19.943,0a.408.408,0,1,0-.408.4h0a.4.4,0,0,0,.407-.4m2.493,0a.409.409,0,1,0-.408.4.4.4,0,0,0,.408-.4m2.493,0a.408.408,0,1,0-.408.4.4.4,0,0,0,.408-.4h0m-7.478,0a.408.408,0,1,0-.409.4.4.4,0,0,0,.409-.4m-4.986,0a.409.409,0,1,0-.409.4.4.4,0,0,0,.409-.4m2.492,0a.408.408,0,1,0-.408.4.4.4,0,0,0,.408-.4h0m-4.986,0a.409.409,0,1,0-.408.4h0a.4.4,0,0,0,.408-.4m-.817,23.879a.409.409,0,1,0,.409-.4.4.4,0,0,0-.409.4m2.493,0a.409.409,0,1,0,.408-.4.4.4,0,0,0-.408.4h0m-4.986,0a.408.408,0,1,0,.408-.4.4.4,0,0,0-.408.4m9.972,0a.409.409,0,1,0,.408-.4.4.4,0,0,0-.408.4h0m-12.465,0a.408.408,0,1,0,.408-.4.4.4,0,0,0-.408.4m9.972,0a.408.408,0,1,0,.408-.4.4.4,0,0,0-.408.4h0M40.3,19.1a.4.4,0,1,0,.408.4h0a.4.4,0,0,0-.408-.4h0M9.972,31.437a.409.409,0,1,0,.409-.4.4.4,0,0,0-.409.4m29.916-7.164a.384.384,0,0,0,.135.291c.061-.223.119-.447.172-.673a.4.4,0,0,0-.307.381M40.3,21.49a.4.4,0,1,0-.006.791.419.419,0,0,0,.22-.06c.029-.2.056-.406.078-.611a.414.414,0,0,0-.291-.119m-4.578,9.947a.408.408,0,1,0-.408.4.4.4,0,0,0,.408-.4h0m-30.731,0a.408.408,0,1,0,.407-.4.4.4,0,0,0-.407.4h0m2.493,0a.409.409,0,1,0,.408-.4.4.4,0,0,0-.408.4m23.253,4.775a.409.409,0,1,0-.409.395h0a.4.4,0,0,0,.408-.395M15.774,33.825a.408.408,0,1,0-.408.395.4.4,0,0,0,.408-.395m2.493,0a.409.409,0,1,0-.409.395h0a.4.4,0,0,0,.408-.395m4.986,0a.408.408,0,1,0-.408.395.4.4,0,0,0,.408-.395m-2.492,0a.409.409,0,1,0-.409.395h0a.4.4,0,0,0,.409-.395m-9.972,0a.409.409,0,1,0-.409.395h0a.4.4,0,0,0,.409-.395m16.634-2.388a.408.408,0,1,0,.409-.4.4.4,0,0,0-.409.4h0M13.282,33.825a.408.408,0,1,0-.409.395h0a.4.4,0,0,0,.408-.395m-5.8,0a.409.409,0,1,0,.408-.4.4.4,0,0,0-.408.4h0m25.746,0a.408.408,0,1,0-.408.395.4.4,0,0,0,.408-.395M15.774,38.6a.4.4,0,0,0-.406-.4.405.405,0,0,0-.4.295c.261.069.523.135.788.194a.328.328,0,0,0,.013-.094m4.17-16.715a.409.409,0,1,0,.409-.4h0a.4.4,0,0,0-.408.4m8.3,11.94a.408.408,0,1,0-.408.395h0a.4.4,0,0,0,.407-.395m-2.493,0a.409.409,0,1,0-.409.395h0a.4.4,0,0,0,.409-.395m-.409,4.38a.4.4,0,0,0-.408.393v0a.394.394,0,0,0,.012.094c.266-.059.529-.125.789-.194a.405.405,0,0,0-.393-.295m-5.394.4a.409.409,0,1,0,.409-.4h0a.4.4,0,0,0-.408.4M35.717,7.559a.408.408,0,1,0-.408.4.4.4,0,0,0,.408-.4h0M17.451,38.6a.409.409,0,1,0,.409-.4.4.4,0,0,0-.409.4m5.8,0a.408.408,0,1,0-.408.4.4.4,0,0,0,.408-.4v0m4.986-2.388a.408.408,0,1,0-.408.395h0a.4.4,0,0,0,.407-.395M2.9,10.341a.395.395,0,1,0,0-.789.413.413,0,0,0-.133.023q-.135.225-.265.453a.4.4,0,0,0,.4.313M4.987,7.559a.408.408,0,1,0,.408-.4h0a.4.4,0,0,0-.407.395h0M20.761,36.212a.409.409,0,1,0-.409.395h0a.4.4,0,0,0,.409-.395m-7.479,0a.408.408,0,1,0-.409.395h0a.4.4,0,0,0,.408-.395m4.986,0a.409.409,0,1,0-.409.395h0a.4.4,0,0,0,.408-.395m7.479,0a.408.408,0,1,0-.409.395h0a.4.4,0,0,0,.409-.395m-9.973,0a.408.408,0,1,0-.408.395.4.4,0,0,0,.408-.395h0m-4.985,0a.409.409,0,1,0-.409.395h0a.4.4,0,0,0,.408-.395m19.944-2.388a.409.409,0,1,0-.409.395h0a.4.4,0,0,0,.408-.395M12.465,24.273a.408.408,0,1,0,.408-.4.4.4,0,0,0-.408.4h0m2.493,0a.408.408,0,1,0,.408-.4.4.4,0,0,0-.408.4h0m-4.986,0a.409.409,0,1,0,.409-.4.4.4,0,0,0-.409.4h0m9.972,0a.409.409,0,1,0,.408-.4.4.4,0,0,0-.408.4h0m2.493,0a.408.408,0,1,0,.408-.4.4.4,0,0,0-.408.4v0m-14.958,0a.409.409,0,1,0,.408-.4.4.4,0,0,0-.408.4h0m9.971,0a.409.409,0,1,0,.409-.4.4.4,0,0,0-.409.4h0M34.9,26.661a.408.408,0,1,0,.409-.4.4.4,0,0,0-.409.4h0M4.986,24.273a.408.408,0,1,0,.407-.4.4.4,0,0,0-.407.4v0m27.422,2.388a.408.408,0,1,0,.408-.4.4.4,0,0,0-.408.4h0m4.986,0a.408.408,0,1,0,.409-.4.4.4,0,0,0-.409.4h0m-34.9-2.388a.409.409,0,1,0,.408-.4.4.4,0,0,0-.408.4h0m-1.676,0a.4.4,0,0,0-.308-.381c.053.226.112.45.172.673a.384.384,0,0,0,.136-.291m4.169-2.388a.408.408,0,1,0,.408-.4h0a.4.4,0,0,0-.407.4m7.479,0a.408.408,0,1,0,.408-.4h0a.4.4,0,0,0-.408.4m17.45,4.776a.409.409,0,1,0,.408-.4.4.4,0,0,0-.408.4h0M7.479,21.885a.409.409,0,1,0,.409-.4h0a.4.4,0,0,0-.408.4M24.93,24.273a.409.409,0,1,0,.408-.4.4.4,0,0,0-.408.4h0m-9.972-2.388a.408.408,0,1,0,.408-.4.4.4,0,0,0-.408.4m2.493,0a.409.409,0,1,0,.409-.4.4.4,0,0,0-.409.4m-7.479,0a.409.409,0,1,0,.409-.4h0a.4.4,0,0,0-.408.4m19.944,2.388a.409.409,0,1,0,.408-.4.4.4,0,0,0-.408.4h0m2.493,0a.408.408,0,1,0,.408-.4.4.4,0,0,0-.408.4h0m-4.986,0a.408.408,0,1,0,.409-.4.4.4,0,0,0-.409.4v0M2.493,21.885a.409.409,0,1,0,.409-.4h0a.4.4,0,0,0-.408.4m34.9,2.388a.408.408,0,1,0,.409-.4.4.4,0,0,0-.409.4h0m-2.493,0a.408.408,0,1,0,.409-.4.4.4,0,0,0-.409.4h0m-2.492,4.775a.408.408,0,1,0,.408-.4.4.4,0,0,0-.408.4h0m-9.972,0a.408.408,0,1,0,.408-.4.4.4,0,0,0-.408.4h0m-2.493,0a.409.409,0,1,0,.408-.4.4.4,0,0,0-.408.4h0m4.986,0a.409.409,0,1,0,.408-.4.4.4,0,0,0-.408.4h0m-7.479,0a.409.409,0,1,0,.409-.4.4.4,0,0,0-.409.4m9.972,0a.408.408,0,1,0,.409-.4.4.4,0,0,0-.409.4v0m2.493,0a.409.409,0,1,0,.408-.4.4.4,0,0,0-.408.4h0m-24.929,0a.408.408,0,1,0,.407-.4.4.4,0,0,0-.407.4h0m2.493,0a.409.409,0,1,0,.408-.4.4.4,0,0,0-.408.4h0m7.478,0a.408.408,0,1,0,.408-.4.4.4,0,0,0-.408.4m14.958,2.389a.409.409,0,1,0,.408-.4.4.4,0,0,0-.408.4M34.9,29.049a.408.408,0,1,0,.409-.4.4.4,0,0,0-.409.4h0m-22.436,0a.408.408,0,1,0,.408-.4.4.4,0,0,0-.408.4h0m-2.493,0a.409.409,0,1,0,.408-.4.4.4,0,0,0-.408.4h0M4.986,26.661a.408.408,0,1,0,.408-.4h0a.4.4,0,0,0-.407.394v0m14.958,0a.409.409,0,1,0,.409-.4h0a.4.4,0,0,0-.408.394h0m-2.493,0a.409.409,0,1,0,.409-.4.4.4,0,0,0-.409.4h0m-2.493,0a.408.408,0,1,0,.408-.4.4.4,0,0,0-.408.4h0m9.972,0a.409.409,0,1,0,.408-.4h0a.4.4,0,0,0-.408.394h0m-2.493,0a.408.408,0,1,0,.408-.4.4.4,0,0,0-.408.4v0m-9.972,0a.408.408,0,1,0,.408-.4.4.4,0,0,0-.408.4h0m19.944,4.776a.408.408,0,1,0,.408-.4.4.4,0,0,0-.408.4M3.31,29.049a.41.41,0,0,0-.808-.082q.13.23.265.454a.406.406,0,0,0,.542-.372h0m-.817-2.388a.409.409,0,1,0,.408-.4h0a.4.4,0,0,0-.408.4h0m24.93,0a.408.408,0,1,0,.409-.4.4.4,0,0,0-.409.4v0m-19.943,0a.409.409,0,1,0,.408-.4h0a.4.4,0,0,0-.408.395h0m2.492,0a.409.409,0,1,0,.409-.4h0a.4.4,0,0,0-.408.395h0" transform="translate(20.303 0)" fill="#f40000"/>
          <path id="Trazado_42719" data-name="Trazado 42719" d="M0,4.1a.844.844,0,0,0,.857.829.83.83,0,1,0,0-1.659A.843.843,0,0,0,0,4.1ZM0,.829a.844.844,0,0,0,.857.83A.844.844,0,0,0,1.714.83.844.844,0,0,0,.857,0h0A.844.844,0,0,0,0,.829M3.615,4.1a.858.858,0,1,0,.858-.83.844.844,0,0,0-.858.83h0m0-3.267A.858.858,0,0,0,5.33.83a.858.858,0,0,0-1.714,0h0M7.231,4.1a.858.858,0,1,0,.857-.83.844.844,0,0,0-.857.83h0m0-3.267a.858.858,0,0,0,1.714,0A.844.844,0,0,0,8.089,0h0a.844.844,0,0,0-.857.829" transform="translate(19.804 87.092)" fill="#fff"/>
          <g id="Grupo_19798" data-name="Grupo 19798" transform="translate(19.804 105.212)">
            <path id="Trazado_42720" data-name="Trazado 42720" d="M1.328,2.572A1.308,1.308,0,0,1,0,1.285,1.308,1.308,0,0,1,1.329,0,1.308,1.308,0,0,1,2.657,1.285,1.31,1.31,0,0,1,1.328,2.572" transform="translate(3.221 4.462)" fill="#ffb600"/>
            <path id="Trazado_42721" data-name="Trazado 42721" d="M1.384,2.681A1.363,1.363,0,0,1,0,1.34,1.363,1.363,0,0,1,1.385,0,1.363,1.363,0,0,1,2.77,1.34,1.365,1.365,0,0,1,1.384,2.681M1.384.7a.655.655,0,0,0-.665.644.655.655,0,0,0,.666.644A.655.655,0,0,0,2.05,1.34h0A.656.656,0,0,0,1.384.7" transform="translate(14.494 1.02)" fill="#ffb600"/>
            <path id="Trazado_42722" data-name="Trazado 42722" d="M.526,1.02A.518.518,0,0,1,0,.51.518.518,0,0,1,.527,0a.518.518,0,0,1,.527.509.519.519,0,0,1-.527.51" transform="translate(0)" fill="#f40000"/>
            <path id="Trazado_42723" data-name="Trazado 42723" d="M.526,1.02A.518.518,0,0,1,0,.51.519.519,0,0,1,.527,0a.519.519,0,0,1,.526.509.519.519,0,0,1-.527.51" transform="translate(22.266 6.832)" fill="#f40000"/>
          </g>
          <g id="Grupo_19799" data-name="Grupo 19799" transform="translate(8.144 49.535)">
            <path id="Trazado_42724" data-name="Trazado 42724" d="M0,4.1a.844.844,0,0,0,.857.829.83.83,0,1,0,0-1.659A.843.843,0,0,0,0,4.095ZM0,.829a.844.844,0,0,0,.857.83A.844.844,0,0,0,1.714.83.844.844,0,0,0,.857,0h0A.843.843,0,0,0,0,.829H0M3.615,4.1a.858.858,0,1,0,.858-.83.844.844,0,0,0-.858.83h0m0-3.267A.858.858,0,0,0,5.33.83a.858.858,0,0,0-1.714,0h0M7.231,4.1a.858.858,0,1,0,.858-.83.844.844,0,0,0-.858.83h0m0-3.267a.858.858,0,0,0,1.715,0A.844.844,0,0,0,8.089,0h0a.844.844,0,0,0-.858.829" transform="translate(5.915 0)" fill="#ffb600"/>
            <path id="Trazado_42725" data-name="Trazado 42725" d="M1.48,2.866A1.457,1.457,0,0,1,0,1.432,1.457,1.457,0,0,1,1.481,0a1.457,1.457,0,0,1,1.48,1.432A1.459,1.459,0,0,1,1.48,2.866m0-2.121a.7.7,0,0,0-.711.689.7.7,0,0,0,.712.688.7.7,0,0,0,.711-.689A.7.7,0,0,0,1.48.745" transform="translate(24.568 24.97)" fill="#f40000"/>
            <path id="Trazado_42726" data-name="Trazado 42726" d="M.526,1.02A.519.519,0,0,1,0,.51.518.518,0,0,1,.527,0a.518.518,0,0,1,.526.509.519.519,0,0,1-.527.51" transform="translate(27.002 4.998)" fill="#f40000"/>
            <path id="Trazado_42727" data-name="Trazado 42727" d="M.527,1.02A.518.518,0,0,1,0,.51.518.518,0,0,1,.527,0a.518.518,0,0,1,.527.509.519.519,0,0,1-.527.51" transform="translate(0 20.355)" fill="#f40000"/>
          </g>
        </g>
        <g id="Grupo_19803" data-name="Grupo 19803" transform="translate(398.157 91.708)">
          <path id="Trazado_42728" data-name="Trazado 42728" d="M5.357,78.389q.3-10.352.6-20.7.214-7.376.437-14.753a1.823,1.823,0,0,0-.526-1.388C4.6,40.193,3.349,38.821,2.1,37.452A7.689,7.689,0,0,1,.017,32.058c.013-2.838-.073-5.681.051-8.515.2-4.462.5-8.919.817-13.374.221-3.134.533-6.262.8-9.393.026-.311.135-.464.462-.465,1.419,0,1.15-.126,1.183,1.112q.257,9.773.491,19.547c.021.839.02,1.678.049,2.516.023.652.344,1.027.837,1.025.536,0,.878-.424.894-1.091q.247-10.766.5-21.532c.011-.483.061-.967.061-1.45,0-.316.124-.441.423-.421a2.089,2.089,0,0,0,.38-.008c.374-.044.481.119.487.5q.159,10.09.342,20.18.023,1.307.042,2.613c.012.729.352,1.177.9,1.187.536.01.928-.461.94-1.158Q9.792,16.19,9.9,9.053c.047-2.839.1-5.678.138-8.517,0-.4.117-.574.512-.529a1.626,1.626,0,0,0,.332,0c.349-.033.459.122.465.478.029,1.79.084,3.58.128,5.371q.214,8.66.429,17.32a3.878,3.878,0,0,0,.037.578.863.863,0,0,0,.9.751.849.849,0,0,0,.765-.843c.033-.79.043-1.58.062-2.371q.192-7.838.387-15.675c.042-1.661.111-3.321.145-4.982.008-.4.145-.494.518-.441C15.8.346,15.79.335,15.881,1.473q.43,5.375.874,10.749c.467,5.66.783,11.327.787,17.009,0,1.241-.09,2.481-.135,3.722a6.917,6.917,0,0,1-1.91,4.369q-1.8,2.055-3.689,4.033a2.255,2.255,0,0,0-.708,1.754q.274,8.368.5,16.738.324,11.151.641,22.3.3,10.352.6,20.7c.1,3.516.189,7.032.309,10.546a5.637,5.637,0,0,1-1.377,4.24,4.08,4.08,0,0,1-6.842-1.095,6.322,6.322,0,0,1-.639-3.036q.265-8.2.514-16.4c.123-4.144.224-8.289.339-12.434.059-2.1.128-4.193.192-6.289h.01" transform="translate(27.797 2.544)" fill="#dd0606"/>
          <path id="Trazado_42729" data-name="Trazado 42729" d="M1.374,2.841A1.4,1.4,0,0,1,0,1.42,1.4,1.4,0,0,1,1.376,0,1.4,1.4,0,0,1,2.75,1.42,1.4,1.4,0,0,1,1.374,2.841" transform="translate(52.034 12.313)" fill="#ffb600"/>
          <g id="Grupo_19801" data-name="Grupo 19801" transform="translate(3.978 45.608)">
            <path id="Trazado_42730" data-name="Trazado 42730" d="M19.4,9.158a.216.216,0,1,1-.21.216.213.213,0,0,1,.21-.216Zm-1.49.216a.21.21,0,1,0,.21-.216.213.213,0,0,0-.21.216h0m-1.279,0a.21.21,0,1,0,.21-.216h0a.213.213,0,0,0-.209.216h0M.419,8.066a.218.218,0,0,0-.07-.16c-.031.122-.061.245-.088.369a.215.215,0,0,0,.158-.209M15.356,9.374a.21.21,0,1,0,.21-.216h0a.213.213,0,0,0-.21.216h0M.209,9.59a.216.216,0,0,0,0-.432A.2.2,0,0,0,.1,9.19c-.015.111-.029.223-.04.335a.205.205,0,0,0,.15.065M6.4,9.375a.21.21,0,1,0,.21-.216h0a.213.213,0,0,0-.209.216h0m3.839,0a.21.21,0,1,0,.21-.216h0a.213.213,0,0,0-.209.216h0m-1.28,0a.21.21,0,1,0,.21-.216h0a.213.213,0,0,0-.21.216h0m-1.28,0a.21.21,0,1,0,.21-.216h0a.213.213,0,0,0-.209.216m3.839,0a.209.209,0,1,0,.209-.216h0a.212.212,0,0,0-.209.216h0m6.4-1.308a.21.21,0,1,0,.21-.217.213.213,0,0,0-.21.217M12.8,9.375a.21.21,0,1,0,.21-.216h0a.213.213,0,0,0-.209.216h0m1.28,0a.21.21,0,1,0,.21-.216.213.213,0,0,0-.21.216h0m1.28-1.308a.21.21,0,1,0,.21-.217.213.213,0,0,0-.21.217m-3.839,0a.209.209,0,1,0,.209-.217.213.213,0,0,0-.209.217m1.28,0a.21.21,0,1,0,.209-.217.213.213,0,0,0-.209.217m-10.237,0a.21.21,0,1,0,.209-.217.213.213,0,0,0-.209.217h0m14.076,0a.21.21,0,1,0,.209-.217.213.213,0,0,0-.209.217m2.559,0a.21.21,0,1,0,.21-.217.213.213,0,0,0-.21.217m-5.119,0a.21.21,0,1,0,.21-.217.213.213,0,0,0-.21.217h0m-8.958,0a.21.21,0,1,0,.21-.217.213.213,0,0,0-.21.217m-1.279,0a.21.21,0,1,0,.209-.217.213.213,0,0,0-.209.217m2.559,0a.21.21,0,1,0,.209-.217.213.213,0,0,0-.209.217m3.839,0a.21.21,0,1,0,.209-.217.213.213,0,0,0-.209.217m-2.56,0a.21.21,0,1,0,.209-.217.213.213,0,0,0-.209.217m1.28,0a.21.21,0,1,0,.21-.217.213.213,0,0,0-.21.217m-7.678,0a.21.21,0,1,0,.209-.217h0a.214.214,0,0,0-.209.217M5.119,9.375a.21.21,0,1,0,.21-.216h0a.213.213,0,0,0-.21.216h0m-1.28,1.308a.21.21,0,1,0,.209-.217.213.213,0,0,0-.209.217m-2.559,0a.21.21,0,1,0,.21-.217h0a.213.213,0,0,0-.209.217m3.839,0a.21.21,0,1,0,.21-.217.213.213,0,0,0-.21.217M.209,12.208a.217.217,0,0,0,0-.433.207.207,0,0,0-.15.065c.012.113.025.224.04.335a.206.206,0,0,0,.11.033M6.4,10.683a.21.21,0,1,0,.209-.217.213.213,0,0,0-.209.217m7.678,1.308a.21.21,0,1,0,.21-.216.213.213,0,0,0-.21.216h0m-6.4-1.308a.21.21,0,1,0,.209-.217.213.213,0,0,0-.209.217M12.8,11.991a.21.21,0,1,0,.21-.216h0a.213.213,0,0,0-.209.216m5.118,0a.21.21,0,1,0,.21-.216.213.213,0,0,0-.21.216m-2.559,0a.21.21,0,1,0,.21-.216h0a.214.214,0,0,0-.21.216m3.839,0a.21.21,0,1,0,.21-.216.213.213,0,0,0-.21.216m-2.559,0a.21.21,0,1,0,.209-.216h0a.213.213,0,0,0-.209.216M2.56,10.683a.21.21,0,1,0,.209-.217h0a.213.213,0,0,0-.209.216h0m-2.56,0a.213.213,0,0,0,.21.217.217.217,0,0,0,0-.433h0A.213.213,0,0,0,0,10.682H0M1.28,9.374a.21.21,0,1,0,.21-.216h0a.213.213,0,0,0-.209.216h0M19.2,10.683a.21.21,0,1,0,.21-.217.213.213,0,0,0-.21.217m-1.28,0a.21.21,0,1,0,.21-.217.213.213,0,0,0-.21.217M2.56,9.374a.21.21,0,1,0,.21-.216h0a.212.212,0,0,0-.209.215h0m1.28,0a.21.21,0,1,0,.21-.216h0a.213.213,0,0,0-.209.216h0m7.678,1.308a.209.209,0,1,0,.209-.217.213.213,0,0,0-.209.217h0m1.28,0a.21.21,0,1,0,.209-.217.213.213,0,0,0-.209.217h0m-3.839,0a.21.21,0,1,0,.21-.217.213.213,0,0,0-.21.217m7.678,0a.21.21,0,1,0,.209-.217.213.213,0,0,0-.209.217m-6.4,0a.21.21,0,1,0,.21-.217h0a.213.213,0,0,0-.209.216h0m5.119,0a.21.21,0,1,0,.21-.217.213.213,0,0,0-.21.217h0m-1.28,0a.21.21,0,1,0,.21-.217.213.213,0,0,0-.21.217h0M6.4,1.525a.21.21,0,1,0,.21-.217h0a.213.213,0,0,0-.209.216h0M16.636,5.45a.21.21,0,1,0,.209-.216h0a.212.212,0,0,0-.209.215h0m-6.4-2.616a.21.21,0,1,0,.209-.217h0a.213.213,0,0,0-.209.217m-2.56,0a.21.21,0,1,0,.209-.217.213.213,0,0,0-.209.217m1.28,0a.21.21,0,1,0,.21-.217.213.213,0,0,0-.21.217m3.839,0a.21.21,0,1,0,.209-.217.213.213,0,0,0-.209.217m2.559,0a.21.21,0,1,0,.21-.217.213.213,0,0,0-.21.217m1.7,0a.21.21,0,1,0-.209.217.213.213,0,0,0,.209-.217h0M13.006.434a.211.211,0,0,0,.2-.162C13.074.234,12.94.2,12.8.166A.232.232,0,0,0,12.8.217a.213.213,0,0,0,.209.217M19.4,15.7a.217.217,0,0,0,0,.433.191.191,0,0,0,.068-.013c.047-.082.093-.165.137-.249a.211.211,0,0,0-.2-.172M6.4,2.833a.21.21,0,1,0,.209-.217.213.213,0,0,0-.209.217m7.678,0a.21.21,0,1,0,.21-.217.213.213,0,0,0-.21.217h0m-10.237,0a.21.21,0,1,0,.209-.217.213.213,0,0,0-.209.217m1.279,0a.21.21,0,1,0,.21-.217.213.213,0,0,0-.21.217m6.4,0a.209.209,0,1,0,.209-.217.213.213,0,0,0-.209.217m3.839-1.308a.21.21,0,1,0,.21-.217.213.213,0,0,0-.21.217h0M8.958.217a.21.21,0,1,0,.419,0,.21.21,0,1,0-.419,0m5.119,1.308a.21.21,0,1,0,.21-.217.213.213,0,0,0-.21.217v0m-8.958,0a.21.21,0,1,0,.21-.217h0a.213.213,0,0,0-.21.216h0M10.238.217a.21.21,0,1,0,.419,0,.21.21,0,1,0-.419,0m1.28,0a.209.209,0,1,0,.419,0,.209.209,0,1,0-.419,0h0M7.887.434A.213.213,0,0,0,8.1.217.19.19,0,0,0,8.09.165c-.136.032-.27.068-.4.106a.21.21,0,0,0,.2.162m1.07,1.091a.21.21,0,1,0,.21-.217.213.213,0,0,0-.21.217h0m-1.28,0a.21.21,0,1,0,.209-.217.213.213,0,0,0-.209.217h0m3.839,10.466a.209.209,0,1,0,.209-.216.213.213,0,0,0-.209.216m0-10.466a.209.209,0,1,0,.209-.217.213.213,0,0,0-.209.217h0m1.28,0a.21.21,0,1,0,.21-.217h0a.213.213,0,0,0-.209.216h0m-2.559,0a.21.21,0,1,0,.21-.217h0a.213.213,0,0,0-.209.216h0m8.958,5.234a.21.21,0,1,0,.21-.217.213.213,0,0,0-.21.217h0m-6.4,0a.21.21,0,1,0,.209-.217.213.213,0,0,0-.209.217h0m-1.28,0a.209.209,0,1,0,.209-.217.213.213,0,0,0-.209.217h0m2.559,0a.21.21,0,1,0,.21-.217.213.213,0,0,0-.21.217h0m1.28,0a.21.21,0,1,0,.21-.217.213.213,0,0,0-.21.217h0m1.28,0a.21.21,0,1,0,.209-.217.213.213,0,0,0-.209.217h0m-6.4,0a.21.21,0,1,0,.21-.217h0a.213.213,0,0,0-.209.216h0m-7.678,0a.21.21,0,1,0,.209-.217.213.213,0,0,0-.209.217h0m1.28,0a.21.21,0,1,0,.209-.217.213.213,0,0,0-.209.217h0m1.279,0a.21.21,0,1,0,.21-.217.213.213,0,0,0-.21.217h0m-3.839,0a.21.21,0,1,0,.21-.217h0a.213.213,0,0,0-.209.217h0m7.678,0a.21.21,0,1,0,.21-.217.213.213,0,0,0-.21.217h0m-2.559,0a.21.21,0,1,0,.209-.217.213.213,0,0,0-.209.217h0m1.28,0a.21.21,0,1,0,.209-.217.213.213,0,0,0-.209.217M17.915,5.45a.21.21,0,1,0,.21-.216.213.213,0,0,0-.21.216h0m-5.118,0a.21.21,0,1,0,.21-.216h0a.212.212,0,0,0-.209.215v0m-1.28,0a.209.209,0,1,0,.209-.216.213.213,0,0,0-.209.216v0m6.4,1.309a.21.21,0,1,0,.21-.217.213.213,0,0,0-.21.217h0M8.958,5.45a.21.21,0,1,0,.21-.216h0a.213.213,0,0,0-.21.215h0m6.4,0a.21.21,0,1,0,.21-.216h0a.212.212,0,0,0-.21.215h0m-1.28,0a.21.21,0,1,0,.21-.216.213.213,0,0,0-.21.216v0m-3.839,0a.21.21,0,1,0,.21-.216h0a.212.212,0,0,0-.209.215h0m-6.4,0a.21.21,0,1,0,.21-.216h0a.212.212,0,0,0-.209.215h0m-1.28,0a.21.21,0,1,0,.209-.216h0a.212.212,0,0,0-.209.215v0m3.839,0a.21.21,0,1,0,.21-.216h0a.212.212,0,0,0-.209.215h0m-1.28,0a.21.21,0,1,0,.21-.216h0a.212.212,0,0,0-.21.215h0m2.559,0a.21.21,0,1,0,.209-.216h0a.213.213,0,0,0-.209.216h0M11.936,19.84a.209.209,0,1,0-.209.216.213.213,0,0,0,.209-.216m-6.4-15.7a.21.21,0,1,0-.21.217.213.213,0,0,0,.21-.217M20.684,9.158a.216.216,0,0,0,0,.432.206.206,0,0,0,.149-.065c-.011-.113-.025-.224-.04-.335a.2.2,0,0,0-.11-.032M6.818,4.141a.21.21,0,1,0-.21.217.213.213,0,0,0,.21-.217h0m1.279,0a.21.21,0,1,0-.209.217A.213.213,0,0,0,8.1,4.141h0M19.2,5.45a.209.209,0,0,0,.414.044c-.044-.083-.09-.166-.137-.248a.2.2,0,0,0-.068-.013.213.213,0,0,0-.21.216m1.28,2.617a.216.216,0,0,0,.158.209c-.027-.124-.057-.247-.088-.369a.218.218,0,0,0-.07.16M4.258,4.141a.21.21,0,1,0-.21.217.213.213,0,0,0,.21-.217m10.237,0a.21.21,0,1,0-.209.217h0a.213.213,0,0,0,.209-.217m1.28,0a.21.21,0,1,0-.21.217.213.213,0,0,0,.21-.217m1.28,0a.21.21,0,1,0-.209.217.213.213,0,0,0,.209-.217h0m-3.839,0a.21.21,0,1,0-.21.217.213.213,0,0,0,.21-.217m-2.559,0a.21.21,0,1,0-.21.217.213.213,0,0,0,.21-.217m1.279,0a.209.209,0,1,0-.209.217.213.213,0,0,0,.209-.217h0m-2.559,0a.21.21,0,1,0-.21.217h0a.213.213,0,0,0,.209-.217M8.957,17.224a.21.21,0,1,0,.21-.217.213.213,0,0,0-.21.217m1.28,0a.21.21,0,1,0,.209-.217.213.213,0,0,0-.209.217m-2.56,0a.21.21,0,1,0,.209-.217.213.213,0,0,0-.209.217m5.119,0a.21.21,0,1,0,.209-.217.213.213,0,0,0-.209.217m-6.4,0a.21.21,0,1,0,.209-.217.213.213,0,0,0-.209.217m5.119,0a.209.209,0,1,0,.209-.217.213.213,0,0,0-.209.217m9.167-6.758a.217.217,0,1,0,.21.217h0a.213.213,0,0,0-.209-.217h0M5.119,17.224a.21.21,0,1,0,.21-.217.213.213,0,0,0-.21.217M20.475,13.3a.217.217,0,0,0,.07.16c.031-.122.061-.245.088-.369a.215.215,0,0,0-.158.209m.21-1.525a.217.217,0,0,0,0,.433.2.2,0,0,0,.112-.033c.015-.111.029-.222.04-.335a.206.206,0,0,0-.15-.065m-2.35,5.45a.21.21,0,1,0-.209.217.213.213,0,0,0,.209-.217h0m-15.775,0a.21.21,0,1,0,.209-.217.213.213,0,0,0-.209.217h0m1.28,0a.21.21,0,1,0,.209-.217.213.213,0,0,0-.209.217M15.775,19.84a.21.21,0,1,0-.21.216h0a.213.213,0,0,0,.21-.216M8.1,18.532a.21.21,0,1,0-.21.216h0a.213.213,0,0,0,.209-.216m1.28,0a.21.21,0,1,0-.21.216h0a.214.214,0,0,0,.209-.216m2.559,0a.209.209,0,1,0-.209.216.213.213,0,0,0,.209-.216m-1.279,0a.21.21,0,1,0-.21.216h0a.214.214,0,0,0,.21-.216m-5.119,0a.21.21,0,1,0-.21.216h0a.214.214,0,0,0,.21-.216m8.539-1.308a.21.21,0,1,0,.21-.217.213.213,0,0,0-.21.217h0M6.817,18.532a.21.21,0,1,0-.21.216h0a.214.214,0,0,0,.21-.216m-2.978,0a.21.21,0,1,0,.209-.217.213.213,0,0,0-.209.217h0m13.216,0a.21.21,0,1,0-.21.216h0a.213.213,0,0,0,.209-.216M8.1,21.149a.212.212,0,0,0-.208-.217.21.21,0,0,0-.2.161c.134.038.269.074.4.106a.188.188,0,0,0,.007-.051m2.141-9.158a.21.21,0,1,0,.21-.216h0a.213.213,0,0,0-.209.216M14.5,18.532a.21.21,0,1,0-.21.216h0a.214.214,0,0,0,.209-.216m-1.28,0a.21.21,0,1,0-.21.216h0a.214.214,0,0,0,.21-.216m-.21,2.4a.213.213,0,0,0-.209.216h0a.231.231,0,0,0,.006.051c.137-.032.271-.069.405-.106a.211.211,0,0,0-.2-.161m-2.769.217a.21.21,0,1,0,.21-.217h0a.213.213,0,0,0-.209.217m8.1-17.007a.21.21,0,1,0-.209.217.213.213,0,0,0,.209-.217h0M8.958,21.148a.21.21,0,1,0,.21-.217.213.213,0,0,0-.21.217m2.979,0a.209.209,0,1,0-.209.216.213.213,0,0,0,.209-.216h0M14.5,19.84a.21.21,0,1,0-.21.216h0a.213.213,0,0,0,.209-.216M1.489,5.666A.216.216,0,0,0,1.5,5.233H1.489a.2.2,0,0,0-.068.013q-.07.123-.136.248a.211.211,0,0,0,.2.171m1.07-1.524a.21.21,0,1,0,.209-.216h0a.213.213,0,0,0-.209.216h0m8.1,15.7a.21.21,0,1,0-.21.216h0a.213.213,0,0,0,.21-.216m-3.839,0a.21.21,0,1,0-.21.216h0a.213.213,0,0,0,.21-.216h0m2.559,0a.21.21,0,1,0-.21.216h0a.213.213,0,0,0,.209-.216m3.839,0a.21.21,0,1,0-.21.216.213.213,0,0,0,.21-.216m-5.119,0a.21.21,0,1,0-.209.216A.213.213,0,0,0,8.1,19.84h0m-2.559,0a.21.21,0,1,0-.21.216h0a.213.213,0,0,0,.21-.216m10.237-1.308a.21.21,0,1,0-.21.216h0a.214.214,0,0,0,.21-.216M6.4,13.3a.21.21,0,1,0,.209-.217A.213.213,0,0,0,6.4,13.3h0m1.28,0a.21.21,0,1,0,.209-.217.213.213,0,0,0-.209.217h0m-2.559,0a.21.21,0,1,0,.21-.217.213.213,0,0,0-.21.217h0m5.119,0a.21.21,0,1,0,.209-.217.213.213,0,0,0-.209.217h0m1.28,0a.209.209,0,1,0,.209-.217.213.213,0,0,0-.209.217h0m-7.678,0a.21.21,0,1,0,.209-.217.213.213,0,0,0-.209.217h0m5.118,0a.21.21,0,1,0,.21-.217.213.213,0,0,0-.21.217h0m8.958,1.308a.21.21,0,1,0,.21-.217.213.213,0,0,0-.21.217h0M2.56,13.3a.21.21,0,1,0,.209-.217.213.213,0,0,0-.209.217h0m14.076,1.308a.21.21,0,1,0,.209-.217.213.213,0,0,0-.209.217h0m2.559,0a.21.21,0,1,0,.21-.217.213.213,0,0,0-.21.217h0M1.28,13.3a.21.21,0,1,0,.209-.217h0a.213.213,0,0,0-.209.217h0m-.86,0a.214.214,0,0,0-.158-.209c.027.124.057.247.088.369a.217.217,0,0,0,.07-.16M2.56,11.991a.21.21,0,1,0,.209-.216h0a.213.213,0,0,0-.209.216m3.839,0a.21.21,0,1,0,.21-.216h0a.213.213,0,0,0-.209.216m8.958,2.617a.21.21,0,1,0,.21-.217.213.213,0,0,0-.21.217h0M3.839,11.991a.21.21,0,1,0,.21-.216h0a.213.213,0,0,0-.209.216M12.8,13.3a.21.21,0,1,0,.209-.217.213.213,0,0,0-.209.217h0M7.678,11.991a.21.21,0,1,0,.209-.216h0a.214.214,0,0,0-.209.216m1.28,0a.21.21,0,1,0,.21-.216h0a.214.214,0,0,0-.21.216m-3.839,0a.21.21,0,1,0,.21-.216h0a.214.214,0,0,0-.21.216M15.356,13.3a.21.21,0,1,0,.21-.217.213.213,0,0,0-.21.217h0m1.28,0a.21.21,0,1,0,.209-.217.213.213,0,0,0-.209.217h0m-2.559,0a.21.21,0,1,0,.21-.217.213.213,0,0,0-.21.217v0M1.28,11.991a.21.21,0,1,0,.21-.216h0a.213.213,0,0,0-.209.216M19.2,13.3a.21.21,0,1,0,.21-.217.213.213,0,0,0-.21.217h0m-1.28,0a.21.21,0,1,0,.21-.217.213.213,0,0,0-.21.217h0m-1.279,2.616a.21.21,0,1,0,.209-.217.213.213,0,0,0-.209.217h0m-5.119,0a.209.209,0,1,0,.209-.217.213.213,0,0,0-.209.217h0m-1.28,0a.21.21,0,1,0,.21-.217h0a.213.213,0,0,0-.209.216h0m2.559,0a.21.21,0,1,0,.209-.217.213.213,0,0,0-.209.217h0m-3.839,0a.21.21,0,1,0,.21-.217.213.213,0,0,0-.21.217m5.119,0a.21.21,0,1,0,.21-.217.213.213,0,0,0-.21.217h0m1.28,0a.21.21,0,1,0,.21-.217.213.213,0,0,0-.21.217h0m-12.8,0a.21.21,0,1,0,.209-.217.213.213,0,0,0-.209.217h0m1.28,0a.21.21,0,1,0,.209-.217.213.213,0,0,0-.209.217h0m3.839,0a.21.21,0,1,0,.209-.217.213.213,0,0,0-.209.217m7.678,1.309a.21.21,0,1,0,.21-.217.213.213,0,0,0-.21.217m2.559-1.309a.21.21,0,1,0,.21-.217.213.213,0,0,0-.21.217h0m-11.517,0a.21.21,0,1,0,.209-.217.213.213,0,0,0-.209.217h0m-1.28,0a.21.21,0,1,0,.21-.217.213.213,0,0,0-.21.217h0M2.56,14.607a.21.21,0,1,0,.209-.217h0a.212.212,0,0,0-.209.216h0m7.678,0a.21.21,0,1,0,.21-.217h0a.213.213,0,0,0-.209.216h0m-1.28,0a.21.21,0,1,0,.21-.217.213.213,0,0,0-.21.217h0m-1.28,0a.21.21,0,1,0,.209-.217.213.213,0,0,0-.209.217m5.119,0a.21.21,0,1,0,.21-.217h0a.213.213,0,0,0-.209.216h0m-1.28,0a.209.209,0,1,0,.209-.217.213.213,0,0,0-.209.217h0m-5.119,0a.21.21,0,1,0,.21-.217h0a.213.213,0,0,0-.209.216h0m10.238,2.617a.21.21,0,1,0,.209-.217.213.213,0,0,0-.209.217M1.7,15.915a.209.209,0,0,0-.415-.045q.067.126.136.249a.194.194,0,0,0,.068.013.213.213,0,0,0,.21-.217M1.28,14.607a.21.21,0,1,0,.21-.217h0a.213.213,0,0,0-.209.216h0m12.8,0a.21.21,0,1,0,.21-.217.213.213,0,0,0-.21.217h0m-10.237,0a.21.21,0,1,0,.21-.217h0a.213.213,0,0,0-.209.216h0m1.279,0a.21.21,0,1,0,.21-.217h0a.213.213,0,0,0-.21.216h0" transform="translate(0 1.918)" fill="#f40000"/>
            <path id="Trazado_42731" data-name="Trazado 42731" d="M1.118,2.311A1.137,1.137,0,0,1,0,1.155,1.137,1.137,0,0,1,1.119,0,1.137,1.137,0,0,1,2.237,1.155,1.139,1.139,0,0,1,1.118,2.311m0-1.71a.546.546,0,0,0-.537.555.546.546,0,0,0,.538.555.546.546,0,0,0,.537-.555A.547.547,0,0,0,1.118.6" transform="translate(36.538 7.974)" fill="#ffb600"/>
            <path id="Trazado_42732" data-name="Trazado 42732" d="M1.072,2.217A1.091,1.091,0,0,1,0,1.108,1.091,1.091,0,0,1,1.074,0,1.091,1.091,0,0,1,2.146,1.108,1.092,1.092,0,0,1,1.072,2.217" transform="translate(25.572 0)" fill="#f40000"/>
            <path id="Trazado_42733" data-name="Trazado 42733" d="M.425.879A.432.432,0,0,1,0,.439.433.433,0,0,1,.425,0,.432.432,0,0,1,.851.439a.433.433,0,0,1-.425.44" transform="translate(35.495 3.183)" fill="#ffb600"/>
            <path id="Trazado_42734" data-name="Trazado 42734" d="M.425.879A.432.432,0,0,1,0,.439.433.433,0,0,1,.425,0,.433.433,0,0,1,.851.439a.433.433,0,0,1-.425.44" transform="translate(48.581 9.845)" fill="#f40000"/>
          </g>
          <path id="Trazado_42735" data-name="Trazado 42735" d="M.545,1.126A.554.554,0,0,1,0,.563.554.554,0,0,1,.545,0,.554.554,0,0,1,1.09.562a.555.555,0,0,1-.545.564" transform="translate(61.394 7.999)" fill="#f40000"/>
          <g id="Grupo_19802" data-name="Grupo 19802" transform="translate(3.257 0)">
            <path id="Trazado_42736" data-name="Trazado 42736" d="M21.567,4.243c-1.273,0-1.895-1.006-2.442-1.893-.5-.806-.926-1.5-1.749-1.5s-1.252.7-1.748,1.5c-.548.887-1.169,1.893-2.442,1.893S11.293,3.237,10.745,2.35c-.5-.806-.926-1.5-1.749-1.5s-1.252.7-1.749,1.5C6.7,3.237,6.079,4.243,4.807,4.243S2.913,3.237,2.365,2.35c-.5-.806-.926-1.5-1.749-1.5A.418.418,0,0,1,.206.424.418.418,0,0,1,.617,0C1.889,0,2.511,1.006,3.058,1.894c.5.805.926,1.5,1.749,1.5s1.252-.7,1.749-1.5C7.1,1.007,7.724,0,9,0s1.894,1.006,2.441,1.894c.5.805.927,1.5,1.749,1.5s1.251-.7,1.749-1.5C15.482,1.007,16.1,0,17.376,0s1.894,1.006,2.442,1.894c.5.805.926,1.5,1.749,1.5a.425.425,0,0,1,0,.849m-8.175,6.648a.418.418,0,0,0-.411-.425c-.822,0-1.251-.7-1.749-1.5-.548-.888-1.168-1.894-2.441-1.894S6.9,8.078,6.35,8.966c-.5.805-.926,1.5-1.749,1.5s-1.251-.7-1.749-1.5C2.3,8.078,1.684,7.072.411,7.072a.425.425,0,0,0,0,.849c.823,0,1.252.7,1.749,1.5.547.887,1.168,1.893,2.441,1.893S6.5,10.309,7.043,9.422c.5-.805.926-1.5,1.748-1.5s1.252.7,1.749,1.5c.547.887,1.169,1.893,2.441,1.893a.418.418,0,0,0,.411-.424" transform="translate(16.211 10.365)" fill="#ffb600"/>
            <path id="Trazado_42737" data-name="Trazado 42737" d="M1.432,2.961A1.457,1.457,0,0,1,0,1.48,1.457,1.457,0,0,1,1.434,0,1.457,1.457,0,0,1,2.866,1.48,1.459,1.459,0,0,1,1.432,2.961m0-2.192a.7.7,0,0,0-.688.712.7.7,0,0,0,.689.711.7.7,0,0,0,.688-.712A.7.7,0,0,0,1.432.769" transform="translate(40.879 0)" fill="#f40000"/>
            <path id="Trazado_42738" data-name="Trazado 42738" d="M.545,1.126A.554.554,0,0,1,0,.563.554.554,0,0,1,.545,0,.554.554,0,0,1,1.09.562a.555.555,0,0,1-.545.564" transform="translate(37.022 26.34)" fill="#f40000"/>
            <path id="Trazado_42739" data-name="Trazado 42739" d="M.545,1.126A.554.554,0,0,1,0,.563.554.554,0,0,1,.545,0,.554.554,0,0,1,1.09.562a.555.555,0,0,1-.545.564" transform="translate(11.357 3.842)" fill="#ffb600"/>
          </g>
          <path id="Trazado_42740" data-name="Trazado 42740" d="M1.34,2.77A1.363,1.363,0,0,1,0,1.384,1.363,1.363,0,0,1,1.341,0a1.363,1.363,0,0,1,1.34,1.384A1.365,1.365,0,0,1,1.34,2.77m0-2.05A.655.655,0,0,0,.7,1.385a.655.655,0,0,0,.645.665.655.655,0,0,0,.643-.666A.655.655,0,0,0,1.34.719" transform="translate(14.614 36.911)" fill="#ffb600"/>
          <path id="Trazado_42741" data-name="Trazado 42741" d="M.51,1.053A.518.518,0,0,1,0,.526.518.518,0,0,1,.51,0a.518.518,0,0,1,.51.526.519.519,0,0,1-.51.527" transform="translate(25.129 44.556)" fill="#fff"/>
          <path id="Trazado_42742" data-name="Trazado 42742" d="M0,3.6V6.814L1.766,5.3,1.648,0Z" transform="translate(33.66 9.329)" fill="#dd0606"/>
        </g>
        <path id="Trazado_42743" data-name="Trazado 42743" d="M1830.015,65.365a1.545,1.545,0,1,1-1.5,1.544,1.52,1.52,0,0,1,1.5-1.544h0m-10.633,1.544a1.5,1.5,0,1,0,1.5-1.544,1.521,1.521,0,0,0-1.5,1.544v0m-9.131,0a1.5,1.5,0,1,0,1.5-1.544h0a1.518,1.518,0,0,0-1.495,1.541v0M1694.5,57.573a1.554,1.554,0,0,0-.5-1.143c-.221.873-.437,1.75-.63,2.635a1.535,1.535,0,0,0,1.128-1.492m106.617,9.337a1.5,1.5,0,1,0,1.5-1.544h0a1.518,1.518,0,0,0-1.5,1.539v0M1693,68.453a1.545,1.545,0,0,0,.008-3.087,1.459,1.459,0,0,0-.79.231c-.107.795-.2,1.593-.287,2.394a1.462,1.462,0,0,0,1.07.463m44.177-1.543a1.5,1.5,0,1,0,1.5-1.544h0a1.518,1.518,0,0,0-1.5,1.54v0m27.4,0a1.5,1.5,0,1,0,1.5-1.544h0a1.518,1.518,0,0,0-1.5,1.539v.005m-9.136,0a1.5,1.5,0,1,0,1.5-1.544h0a1.52,1.52,0,0,0-1.5,1.542v0m-9.133,0a1.5,1.5,0,1,0,1.5-1.544h0a1.519,1.519,0,0,0-1.495,1.543v0m27.405,0a1.542,1.542,0,1,0,0-.006v.006m45.667-9.337a1.5,1.5,0,1,0,1.5-1.548,1.521,1.521,0,0,0-1.5,1.548m-36.534,9.337a1.5,1.5,0,1,0,1.5-1.544h0a1.517,1.517,0,0,0-1.5,1.538v.006m9.134,0a1.539,1.539,0,1,0,0-.011v.011m9.134-9.337a1.5,1.5,0,1,0,1.5-1.548,1.521,1.521,0,0,0-1.5,1.548m-27.4,0a1.5,1.5,0,1,0,1.494-1.548,1.52,1.52,0,0,0-1.494,1.548m9.133,0a1.5,1.5,0,1,0,1.5-1.548,1.521,1.521,0,0,0-1.5,1.548m-73.073,0a1.5,1.5,0,1,0,1.492-1.548,1.52,1.52,0,0,0-1.492,1.548h0m100.476,0a1.5,1.5,0,1,0,1.495-1.548,1.52,1.52,0,0,0-1.495,1.548m18.267,0a1.5,1.5,0,1,0,1.5-1.548,1.521,1.521,0,0,0-1.5,1.548m-36.536,0a1.5,1.5,0,1,0,1.5-1.548,1.521,1.521,0,0,0-1.5,1.548v0m-63.941,0a1.5,1.5,0,1,0,1.5-1.548,1.522,1.522,0,0,0-1.5,1.548m-9.132,0a1.5,1.5,0,1,0,1.5-1.548,1.521,1.521,0,0,0-1.5,1.548m18.268,0a1.5,1.5,0,1,0,1.5-1.548,1.521,1.521,0,0,0-1.5,1.548m27.4,0a1.5,1.5,0,1,0,1.5-1.548,1.522,1.522,0,0,0-1.5,1.548m-18.27,0a1.5,1.5,0,1,0,1.495-1.548,1.52,1.52,0,0,0-1.495,1.548m9.133,0a1.5,1.5,0,1,0,1.5-1.548,1.522,1.522,0,0,0-1.5,1.548m-54.8,0a1.5,1.5,0,1,0,1.494-1.548h0a1.525,1.525,0,0,0-1.494,1.548m27.4,9.337a1.5,1.5,0,1,0,1.5-1.544h0a1.519,1.519,0,0,0-1.5,1.541v0m-9.132,9.339a1.5,1.5,0,1,0,1.5-1.546h0a1.522,1.522,0,0,0-1.5,1.546h0m-18.269,0a1.5,1.5,0,1,0,1.5-1.546h0a1.522,1.522,0,0,0-1.494,1.546m27.4,0a1.5,1.5,0,1,0,1.5-1.546,1.522,1.522,0,0,0-1.5,1.546h0M1693,87.135a1.548,1.548,0,0,0,.005-3.094,1.474,1.474,0,0,0-1.075.467c.083.8.18,1.6.288,2.391a1.466,1.466,0,0,0,.782.235m44.177-10.886a1.5,1.5,0,1,0,1.5-1.546,1.521,1.521,0,0,0-1.5,1.546h0m54.806,9.337a1.5,1.5,0,1,0,1.5-1.545,1.521,1.521,0,0,0-1.5,1.545h0m-45.672-9.337a1.5,1.5,0,1,0,1.495-1.546,1.52,1.52,0,0,0-1.495,1.546m36.538,9.337a1.5,1.5,0,1,0,1.5-1.545h0a1.523,1.523,0,0,0-1.5,1.545m36.534,0a1.5,1.5,0,1,0,1.5-1.545,1.521,1.521,0,0,0-1.5,1.545m-18.267,0a1.5,1.5,0,1,0,1.5-1.545h0a1.524,1.524,0,0,0-1.5,1.545m27.4,0a1.5,1.5,0,1,0,1.5-1.545,1.521,1.521,0,0,0-1.5,1.545m-18.267,0a1.5,1.5,0,1,0,1.495-1.545,1.52,1.52,0,0,0-1.495,1.545m-100.478-9.337a1.5,1.5,0,1,0,1.493-1.546h0a1.518,1.518,0,0,0-1.492,1.542v0m-18.27,0A1.5,1.5,0,1,0,1693,74.7h0a1.521,1.521,0,0,0-1.5,1.545h0m9.134-9.339a1.5,1.5,0,1,0,1.5-1.544h0a1.519,1.519,0,0,0-1.494,1.542v0m127.879,9.339a1.5,1.5,0,1,0,1.5-1.546,1.521,1.521,0,0,0-1.5,1.546m-9.136,0a1.5,1.5,0,1,0,1.5-1.546,1.521,1.521,0,0,0-1.5,1.546M1709.774,66.91a1.5,1.5,0,1,0,1.495-1.544h0a1.515,1.515,0,0,0-1.492,1.537v.007m9.133,0a1.5,1.5,0,1,0,1.5-1.544h0a1.519,1.519,0,0,0-1.5,1.541v0m54.807,9.339a1.5,1.5,0,1,0,1.494-1.546,1.519,1.519,0,0,0-1.494,1.546v0m9.133,0a1.5,1.5,0,1,0,1.5-1.546,1.521,1.521,0,0,0-1.5,1.546v0m-27.4,0a1.5,1.5,0,1,0,1.5-1.546,1.522,1.522,0,0,0-1.5,1.546m54.807,0a1.5,1.5,0,1,0,1.495-1.546,1.521,1.521,0,0,0-1.495,1.546m-45.671,0a1.5,1.5,0,1,0,1.5-1.546h0a1.52,1.52,0,0,0-1.5,1.544v0m36.535,0a1.5,1.5,0,1,0,1.5-1.546,1.522,1.522,0,0,0-1.5,1.546v0m-9.133,0a1.543,1.543,0,1,0,0-.007v.007m-54.8-65.368a1.5,1.5,0,1,0,1.5-1.546,1.521,1.521,0,0,0-1.5,1.546v0m73.075,28.014a1.541,1.541,0,1,0,0-.008v.008M1764.58,20.22a1.5,1.5,0,1,0,1.5-1.548,1.522,1.522,0,0,0-1.5,1.548m-18.27,0a1.5,1.5,0,1,0,1.495-1.548,1.52,1.52,0,0,0-1.495,1.548m9.134,0a1.5,1.5,0,1,0,1.5-1.548,1.522,1.522,0,0,0-1.5,1.548m27.4,0a1.5,1.5,0,1,0,1.5-1.548,1.521,1.521,0,0,0-1.5,1.548m18.267,0a1.5,1.5,0,1,0,1.5-1.548,1.521,1.521,0,0,0-1.5,1.548m12.126,0a1.547,1.547,0,1,0,0,.005V20.22m-28.9-17.129a1.5,1.5,0,0,0,1.442-1.158c-.956-.268-1.917-.524-2.892-.756a1.673,1.673,0,0,0-.045.368,1.522,1.522,0,0,0,1.5,1.546m45.671,108.961a1.547,1.547,0,0,0,0,3.093,1.373,1.373,0,0,0,.484-.092c.335-.585.664-1.177.976-1.775a1.507,1.507,0,0,0-1.459-1.226M1737.176,20.22a1.5,1.5,0,1,0,1.5-1.548,1.521,1.521,0,0,0-1.5,1.548m54.805,0a1.5,1.5,0,1,0,1.5-1.548,1.521,1.521,0,0,0-1.5,1.548v0m-73.073,0a1.5,1.5,0,1,0,1.5-1.548,1.521,1.521,0,0,0-1.5,1.548m9.132,0a1.5,1.5,0,1,0,1.5-1.548,1.522,1.522,0,0,0-1.5,1.548m45.675,0a1.5,1.5,0,1,0,1.494-1.548,1.519,1.519,0,0,0-1.494,1.548m27.4-9.34a1.543,1.543,0,1,0,0-.006v.006m-45.672-9.335a1.5,1.5,0,1,0,2.993-.006,1.5,1.5,0,1,0-2.993.005m36.538,9.335a1.541,1.541,0,1,0,0-.011v.011m-63.941,0a1.5,1.5,0,1,0,1.5-1.546h0a1.52,1.52,0,0,0-1.5,1.542v0m36.539-9.335a1.5,1.5,0,1,0,2.993-.005,1.5,1.5,0,1,0-2.993,0h0m9.136,0a1.5,1.5,0,1,0,2.989-.01,1.5,1.5,0,1,0-2.989.008v0M1747.8,3.092a1.522,1.522,0,0,0,1.5-1.546,1.364,1.364,0,0,0-.048-.368c-.973.231-1.931.487-2.886.756a1.5,1.5,0,0,0,1.439,1.158m7.639,7.79a1.5,1.5,0,1,0,1.5-1.546,1.522,1.522,0,0,0-1.5,1.546v0m-9.134,0a1.5,1.5,0,1,0,1.495-1.546,1.521,1.521,0,0,0-1.495,1.546v0m27.406,74.7a1.5,1.5,0,1,0,1.494-1.545,1.519,1.519,0,0,0-1.494,1.545m0-74.7a1.543,1.543,0,1,0,0-.007v.007m9.133,0a1.5,1.5,0,1,0,1.5-1.546h0a1.518,1.518,0,0,0-1.5,1.539v.006m-18.268,0a1.5,1.5,0,1,0,1.5-1.546h0a1.518,1.518,0,0,0-1.5,1.54v.006m63.939,37.356a1.5,1.5,0,1,0,1.5-1.547,1.52,1.52,0,0,0-1.5,1.547v0m-45.67,0a1.545,1.545,0,1,0,0-.005v.005m-9.133,0a1.545,1.545,0,1,0,0-.006v.006m18.266,0a1.543,1.543,0,1,0,0-.01v.01m9.133,0a1.5,1.5,0,1,0,1.5-1.547,1.521,1.521,0,0,0-1.5,1.547v0m9.136,0a1.5,1.5,0,1,0,1.495-1.547,1.52,1.52,0,0,0-1.495,1.547v0m-45.671,0a1.545,1.545,0,1,0,0-.005v.005m-54.8,0a1.545,1.545,0,1,0,0-.007v.007m9.134,0a1.5,1.5,0,1,0,1.5-1.547,1.521,1.521,0,0,0-1.5,1.547v0m9.132,0a1.5,1.5,0,1,0,1.5-1.547,1.522,1.522,0,0,0-1.5,1.547v0m-27.4,0a1.5,1.5,0,1,0,1.5-1.547h0a1.521,1.521,0,0,0-1.494,1.546h0m54.8,0a1.5,1.5,0,1,0,1.5-1.547,1.522,1.522,0,0,0-1.5,1.547v0m-18.267,0a1.5,1.5,0,1,0,1.5-1.547,1.521,1.521,0,0,0-1.5,1.547v0m9.133,0a1.5,1.5,0,1,0,1.495-1.547,1.52,1.52,0,0,0-1.495,1.547h0m73.073-9.342a1.541,1.541,0,1,0,0-.008v.008m-36.534,0a1.5,1.5,0,1,0,1.5-1.545h0a1.515,1.515,0,0,0-1.5,1.534v.011m-9.133,0a1.539,1.539,0,1,0,0-.012v.012m45.667,9.342a1.5,1.5,0,1,0,1.5-1.547,1.521,1.521,0,0,0-1.5,1.547v0m-63.939-9.342a1.5,1.5,0,1,0,1.5-1.545h0a1.518,1.518,0,0,0-1.5,1.537v.007m45.672,0a1.5,1.5,0,1,0,1.5-1.545h0a1.515,1.515,0,0,0-1.5,1.534v.011m-9.133,0a1.537,1.537,0,1,0,0-.016v.016m-27.4,0a1.5,1.5,0,1,0,1.5-1.545h0a1.515,1.515,0,0,0-1.5,1.534v.011m-45.671,0a1.5,1.5,0,1,0,1.5-1.545h0a1.515,1.515,0,0,0-1.5,1.536v.009m-9.134,0a1.5,1.5,0,1,0,1.495-1.545h0a1.512,1.512,0,0,0-1.492,1.532v.013m27.4,0a1.5,1.5,0,1,0,1.5-1.545h0a1.516,1.516,0,0,0-1.5,1.536v.009m-9.136,0a1.5,1.5,0,1,0,1.5-1.545h0a1.517,1.517,0,0,0-1.5,1.536v.009m18.269,0a1.542,1.542,0,1,0,0-.007v.007M1776.7,141.616a1.495,1.495,0,1,0-1.495,1.544,1.52,1.52,0,0,0,1.495-1.544m-45.67-112.059a1.5,1.5,0,1,0-1.5,1.547,1.522,1.522,0,0,0,1.5-1.547h0m108.114,35.809a1.544,1.544,0,0,0,0,3.087,1.47,1.47,0,0,0,1.065-.463c-.082-.805-.18-1.6-.286-2.394a1.449,1.449,0,0,0-.782-.231m-98.98-35.809a1.5,1.5,0,1,0-1.5,1.547,1.521,1.521,0,0,0,1.5-1.547v0m9.132,0a1.5,1.5,0,1,0-1.5,1.547,1.52,1.52,0,0,0,1.5-1.547v0m79.218,9.338a1.491,1.491,0,0,0,2.957.319c-.312-.595-.641-1.186-.976-1.772a1.4,1.4,0,0,0-.484-.092,1.523,1.523,0,0,0-1.5,1.545m9.134,18.678a1.539,1.539,0,0,0,1.126,1.492c-.193-.885-.407-1.762-.631-2.635a1.558,1.558,0,0,0-.5,1.143M1721.9,29.557a1.5,1.5,0,1,0-1.5,1.547,1.522,1.522,0,0,0,1.5-1.547h0m73.073,0a1.5,1.5,0,1,0-1.495,1.547h0a1.521,1.521,0,0,0,1.493-1.547m9.134,0a1.5,1.5,0,1,0-1.5,1.547,1.522,1.522,0,0,0,1.5-1.547m9.134,0a1.5,1.5,0,1,0-1.5,1.547,1.52,1.52,0,0,0,1.5-1.547v0m-27.4,0a1.5,1.5,0,1,0-1.5,1.547,1.521,1.521,0,0,0,1.5-1.547m-18.268,0a1.5,1.5,0,1,0-1.5,1.547,1.522,1.522,0,0,0,1.5-1.547m9.131,0a1.495,1.495,0,1,0-1.495,1.547,1.519,1.519,0,0,0,1.495-1.547v0m-18.268,0a1.5,1.5,0,1,0-1.5,1.547h0a1.522,1.522,0,0,0,1.5-1.547m-2.993,93.384a1.5,1.5,0,1,0,1.5-1.548,1.522,1.522,0,0,0-1.5,1.548m9.136,0a1.5,1.5,0,1,0,1.5-1.548,1.522,1.522,0,0,0-1.5,1.548h0m-18.27,0a1.5,1.5,0,1,0,1.495-1.548,1.52,1.52,0,0,0-1.495,1.548m36.538,0a1.5,1.5,0,1,0,1.5-1.548,1.521,1.521,0,0,0-1.5,1.548h0m-45.672,0a1.5,1.5,0,1,0,1.5-1.548,1.521,1.521,0,0,0-1.5,1.548m36.539,0a1.5,1.5,0,1,0,1.494-1.548,1.519,1.519,0,0,0-1.494,1.548h0M1839.148,74.7a1.547,1.547,0,1,0,1.5,1.547h0a1.522,1.522,0,0,0-1.5-1.546h0M1728.04,122.941a1.5,1.5,0,1,0,1.5-1.548,1.522,1.522,0,0,0-1.5,1.548m109.611-28.016a1.547,1.547,0,0,0,.5,1.14c.223-.871.438-1.748.631-2.63a1.53,1.53,0,0,0-1.126,1.491m1.5-10.885a1.548,1.548,0,0,0-.023,3.094,1.462,1.462,0,0,0,.8-.235c.106-.794.2-1.588.286-2.391a1.468,1.468,0,0,0-1.068-.467m-16.776,38.9a1.5,1.5,0,1,0-1.494,1.547,1.52,1.52,0,0,0,1.494-1.547v0m-112.6,0a1.5,1.5,0,1,0,1.492-1.548,1.52,1.52,0,0,0-1.492,1.548v0m9.134,0a1.5,1.5,0,1,0,1.5-1.548,1.521,1.521,0,0,0-1.5,1.548m85.2,18.675a1.5,1.5,0,1,0-1.5,1.544h0a1.523,1.523,0,0,0,1.5-1.544m-54.808-9.337a1.5,1.5,0,1,0-1.5,1.544,1.52,1.52,0,0,0,1.5-1.544m9.136,0a1.5,1.5,0,1,0-1.5,1.544h0a1.526,1.526,0,0,0,1.5-1.544m18.268,0a1.5,1.5,0,1,0-1.495,1.544,1.52,1.52,0,0,0,1.495-1.544m-9.131,0a1.5,1.5,0,1,0-1.5,1.544h0a1.527,1.527,0,0,0,1.5-1.544m-36.539,0a1.5,1.5,0,1,0-1.5,1.544h0a1.527,1.527,0,0,0,1.5-1.544m60.946-9.337a1.5,1.5,0,1,0,1.5-1.548,1.521,1.521,0,0,0-1.5,1.548v0m-51.813,9.337a1.5,1.5,0,1,0-1.5,1.544h0a1.524,1.524,0,0,0,1.5-1.544m-21.259,0a1.5,1.5,0,1,0,1.5-1.55,1.521,1.521,0,0,0-1.5,1.55v0m94.333,0a1.5,1.5,0,1,0-1.5,1.544,1.521,1.521,0,0,0,1.5-1.544M1749.3,150.954a1.517,1.517,0,0,0-1.487-1.545,1.5,1.5,0,0,0-1.447,1.152c.955.27,1.917.529,2.886.76a1.363,1.363,0,0,0,.048-.366m15.28-65.37a1.5,1.5,0,1,0,1.5-1.545h0a1.523,1.523,0,0,0-1.5,1.545m30.394,46.694a1.5,1.5,0,1,0-1.5,1.544h0a1.525,1.525,0,0,0,1.492-1.544m-9.133,0a1.5,1.5,0,1,0-1.5,1.544h0a1.527,1.527,0,0,0,1.5-1.544m-1.5,17.13a1.517,1.517,0,0,0-1.5,1.539v.007a1.644,1.644,0,0,0,.045.366c.976-.231,1.937-.489,2.892-.76a1.5,1.5,0,0,0-1.442-1.152m-19.764,1.546a1.5,1.5,0,1,0,1.5-1.546h0a1.522,1.522,0,0,0-1.5,1.546m57.793-121.4a1.5,1.5,0,1,0-1.494,1.547,1.521,1.521,0,0,0,1.494-1.547v0m-66.929,121.4a1.5,1.5,0,1,0,1.5-1.546,1.522,1.522,0,0,0-1.5,1.546m21.261,0a1.543,1.543,0,1,0,0,.006v-.006m18.27-9.339a1.5,1.5,0,1,0-1.5,1.544h0a1.522,1.522,0,0,0,1.492-1.544M1702.133,40.437a1.544,1.544,0,0,0,0-3.087,1.427,1.427,0,0,0-.487.092q-.5.879-.973,1.772a1.5,1.5,0,0,0,1.46,1.223m7.642-10.88a1.5,1.5,0,1,0,1.495-1.545h0a1.518,1.518,0,0,0-1.492,1.543v0m57.8,112.059a1.5,1.5,0,1,0-1.5,1.544h0a1.523,1.523,0,0,0,1.5-1.544m-27.4,0a1.5,1.5,0,1,0-1.5,1.544h0a1.521,1.521,0,0,0,1.5-1.544m18.269,0a1.5,1.5,0,1,0-1.5,1.544h0a1.523,1.523,0,0,0,1.5-1.544m27.4,0a1.5,1.5,0,1,0-1.5,1.544h0a1.523,1.523,0,0,0,1.5-1.544m-36.54,0a1.5,1.5,0,1,0-1.5,1.544,1.52,1.52,0,0,0,1.5-1.544h0m-18.266,0a1.5,1.5,0,1,0-1.5,1.544h0a1.523,1.523,0,0,0,1.5-1.544m73.073-9.337a1.5,1.5,0,1,0-1.5,1.544h0a1.527,1.527,0,0,0,1.5-1.544m-66.931-37.353a1.5,1.5,0,1,0,1.5-1.549,1.521,1.521,0,0,0-1.5,1.549v0m9.133,0a1.5,1.5,0,1,0,1.495-1.549,1.52,1.52,0,0,0-1.495,1.549h0m-18.269,0a1.5,1.5,0,1,0,1.5-1.549,1.522,1.522,0,0,0-1.5,1.549v0m36.539,0a1.547,1.547,0,1,0,0-.006v.006m9.136,0a1.546,1.546,0,1,0,0-.007v.007m-54.807,0a1.5,1.5,0,1,0,1.5-1.549,1.521,1.521,0,0,0-1.5,1.549v0m36.535,0a1.5,1.5,0,1,0,1.5-1.549,1.521,1.521,0,0,0-1.5,1.549v0m63.939,9.338a1.5,1.5,0,1,0,1.5-1.546,1.521,1.521,0,0,0-1.5,1.546v0m-109.608-9.338a1.546,1.546,0,1,0,0-.007v.007m100.476,9.338a1.5,1.5,0,1,0,1.495-1.546,1.521,1.521,0,0,0-1.495,1.546v0m18.267,0a1.5,1.5,0,1,0,1.5-1.546,1.521,1.521,0,0,0-1.5,1.546v0m-127.879-9.338a1.5,1.5,0,1,0,1.494-1.549,1.521,1.521,0,0,0-1.494,1.549v0m-6.141,0a1.527,1.527,0,0,0-1.128-1.491c.193.882.409,1.758.63,2.63a1.545,1.545,0,0,0,.5-1.14m15.277-9.34a1.5,1.5,0,1,0,1.494-1.545h0a1.52,1.52,0,0,0-1.492,1.545m27.4,0a1.5,1.5,0,1,0,1.5-1.545h0a1.524,1.524,0,0,0-1.5,1.545m63.939,18.677a1.5,1.5,0,1,0,1.5-1.546,1.521,1.521,0,0,0-1.5,1.546v0m-82.207-18.677a1.5,1.5,0,1,0,1.5-1.545h0a1.524,1.524,0,0,0-1.5,1.545m63.94,9.34a1.547,1.547,0,1,0,0-.006v.006m-36.538-9.34a1.5,1.5,0,1,0,1.495-1.545,1.52,1.52,0,0,0-1.495,1.545m9.134,0a1.5,1.5,0,1,0,1.5-1.545,1.522,1.522,0,0,0-1.5,1.545m-27.4,0a1.5,1.5,0,1,0,1.5-1.545h0a1.524,1.524,0,0,0-1.5,1.545m73.074,9.34a1.547,1.547,0,1,0,0-.005v.005m9.136,0a1.5,1.5,0,1,0,1.495-1.549,1.52,1.52,0,0,0-1.495,1.549v0m-18.27,0a1.544,1.544,0,1,0,0-.01v.01m-91.342-9.34a1.5,1.5,0,1,0,1.5-1.545h0a1.524,1.524,0,0,0-1.494,1.545m127.879,9.34a1.5,1.5,0,1,0,1.5-1.549,1.521,1.521,0,0,0-1.5,1.549v0m-9.135,0a1.5,1.5,0,1,0,1.5-1.549,1.52,1.52,0,0,0-1.5,1.549v0M1810.25,113.6a1.5,1.5,0,1,0,1.495-1.547,1.52,1.52,0,0,0-1.495,1.547h0m-36.536,0a1.5,1.5,0,1,0,1.494-1.547,1.519,1.519,0,0,0-1.494,1.547v0m-9.136,0a1.5,1.5,0,1,0,1.5-1.547,1.522,1.522,0,0,0-1.5,1.547v0m18.269,0a1.5,1.5,0,1,0,1.5-1.547,1.521,1.521,0,0,0-1.5,1.547v0m-27.4,0a1.5,1.5,0,1,0,1.5-1.547,1.522,1.522,0,0,0-1.5,1.547m36.538,0a1.544,1.544,0,1,0,0-.008v.008m9.134,0a1.5,1.5,0,1,0,1.5-1.547,1.521,1.521,0,0,0-1.5,1.547v0m-91.34,0a1.545,1.545,0,1,0,0-.005v.005m9.133,0a1.5,1.5,0,1,0,1.5-1.547,1.521,1.521,0,0,0-1.5,1.547v0m27.4,0a1.5,1.5,0,1,0,1.495-1.547,1.52,1.52,0,0,0-1.495,1.547m54.806,9.341a1.5,1.5,0,1,0,1.5-1.548,1.521,1.521,0,0,0-1.5,1.548m18.267-9.341a1.5,1.5,0,1,0,1.5-1.547,1.521,1.521,0,0,0-1.5,1.547h0m-82.206,0a1.5,1.5,0,1,0,1.5-1.547,1.521,1.521,0,0,0-1.5,1.547v0m-9.136,0a1.5,1.5,0,1,0,1.5-1.547,1.522,1.522,0,0,0-1.5,1.547h0m-18.266-9.337a1.5,1.5,0,1,0,1.494-1.546h0a1.516,1.516,0,0,0-1.492,1.539v.006m54.8,0a1.5,1.5,0,1,0,1.5-1.546h0a1.518,1.518,0,0,0-1.5,1.541v0m-9.136,0a1.5,1.5,0,1,0,1.5-1.546,1.522,1.522,0,0,0-1.5,1.546h0m-9.133,0a1.5,1.5,0,1,0,1.495-1.546,1.52,1.52,0,0,0-1.495,1.546h0m36.538,0a1.5,1.5,0,1,0,1.5-1.546h0a1.519,1.519,0,0,0-1.5,1.54v.005m-9.133,0a1.544,1.544,0,1,0,0-.006v.006m-36.539,0a1.5,1.5,0,1,0,1.5-1.546,1.521,1.521,0,0,0-1.5,1.546v0m73.075,18.678a1.5,1.5,0,1,0,1.495-1.548,1.52,1.52,0,0,0-1.495,1.548M1703.632,113.6a1.492,1.492,0,0,0-2.959-.321q.476.9.973,1.775a1.391,1.391,0,0,0,.487.092,1.523,1.523,0,0,0,1.5-1.545h0m-2.993-9.337a1.5,1.5,0,1,0,1.5-1.546h0a1.52,1.52,0,0,0-1.494,1.545h0m91.342,0a1.542,1.542,0,1,0,0-.01v.01m-73.073,0a1.5,1.5,0,1,0,1.5-1.546h0a1.52,1.52,0,0,0-1.5,1.543v0m9.132,0a1.5,1.5,0,1,0,1.5-1.546h0a1.52,1.52,0,0,0-1.5,1.543v0" transform="translate(-946.824 0.003)" fill="#dd0606"/>
        <g id="Grupo_19804" data-name="Grupo 19804" transform="translate(641.187 95.192)">
          <path id="Trazado_42744" data-name="Trazado 42744" d="M1727.7,1234.616a3.406,3.406,0,1,1,3.3-3.406,3.351,3.351,0,0,1-3.3,3.406" transform="translate(-1716.419 -1215.997)" fill="#ffb600"/>
          <path id="Trazado_42745" data-name="Trazado 42745" d="M1829.781,1202.744a3.55,3.55,0,1,1,3.436-3.549,3.493,3.493,0,0,1-3.436,3.549m0-5.253a1.706,1.706,0,1,0,1.651,1.7h0a1.68,1.68,0,0,0-1.651-1.7" transform="translate(-1790.405 -1192.949)" fill="#ffb600"/>
          <path id="Trazado_42746" data-name="Trazado 42746" d="M1696.587,1188.82a1.35,1.35,0,1,1,1.307-1.35,1.328,1.328,0,0,1-1.307,1.35" transform="translate(-1695.281 -1186.121)" fill="#f40000"/>
          <path id="Trazado_42747" data-name="Trazado 42747" d="M1897.939,1252.651a1.35,1.35,0,1,1,1.307-1.351,1.328,1.328,0,0,1-1.307,1.351" transform="translate(-1841.415 -1231.867)" fill="#f40000"/>
        </g>
        <path id="Trazado_42748" data-name="Trazado 42748" d="M329.88,431.769c-1.856,0-2.761-1.467-3.559-2.759-.725-1.174-1.35-2.189-2.549-2.189s-1.824,1.014-2.548,2.189c-.8,1.293-1.7,2.759-3.559,2.759s-2.759-1.467-3.558-2.759c-.724-1.174-1.35-2.189-2.549-2.189s-1.824,1.014-2.549,2.189c-.8,1.293-1.7,2.759-3.558,2.759s-2.76-1.467-3.558-2.759c-.724-1.174-1.35-2.189-2.549-2.189a.619.619,0,0,1,0-1.237c1.855,0,2.761,1.467,3.559,2.76.725,1.174,1.35,2.188,2.549,2.188s1.825-1.013,2.549-2.187c.8-1.293,1.7-2.76,3.558-2.76s2.76,1.467,3.558,2.76c.724,1.174,1.351,2.188,2.549,2.188s1.824-1.013,2.549-2.187c.8-1.293,1.7-2.76,3.558-2.76s2.76,1.467,3.559,2.76c.724,1.174,1.35,2.188,2.549,2.188a.619.619,0,0,1,0,1.237m-11.916,9.69a.609.609,0,0,0-.6-.619c-1.2,0-1.824-1.014-2.549-2.188-.8-1.294-1.7-2.76-3.558-2.76s-2.76,1.467-3.558,2.76c-.725,1.174-1.35,2.188-2.549,2.188s-1.824-1.014-2.549-2.188c-.8-1.294-1.7-2.76-3.559-2.76a.619.619,0,0,0,0,1.238c1.2,0,1.825,1.014,2.549,2.188.8,1.293,1.7,2.76,3.558,2.76s2.761-1.467,3.559-2.76c.724-1.174,1.35-2.188,2.548-2.188s1.825,1.014,2.55,2.188c.8,1.293,1.7,2.76,3.558,2.76a.609.609,0,0,0,.6-.618" transform="translate(364.556 -303.72)" fill="#ffb600"/>
        <path id="Trazado_42749" data-name="Trazado 42749" d="M355.441,946.648a5.245,5.245,0,1,1,5.076-5.244,5.16,5.16,0,0,1-5.076,5.244m0-7.761a2.52,2.52,0,1,0,2.44,2.517,2.48,2.48,0,0,0-2.44-2.517" transform="translate(125.672 -834.018)" fill="#ffb600"/>
      </g>
    </g>
  </g>
</svg>
