<svg id="header-desktop1366x104px" xmlns="http://www.w3.org/2000/svg" xmlns:xlink="http://www.w3.org/1999/xlink" width="1366" height="104" viewBox="0 0 1366 104">
  <defs>
    <clipPath id="clip-path">
      <rect id="Rect치ngulo_23319" data-name="Rect치ngulo 23319" width="1366" height="104" transform="translate(-5381 -7411)" fill="#f40000"/>
    </clipPath>
  </defs>
  <g id="Enmascarar_grupo_14" data-name="Enmascarar grupo 14" transform="translate(5381 7411)" clip-path="url(#clip-path)">
    <g id="Grupo_19792" data-name="Grupo 19792">
      <rect id="Rect치ngulo_23318" data-name="Rect치ngulo 23318" width="1366" height="104" transform="translate(-5381 -7411)" fill="#f40000"/>
      <g id="Grupo_19791" data-name="Grupo 19791" transform="translate(-5381 -7479)">
        <g id="Grupo_19607" data-name="Grupo 19607" transform="translate(762.746 92.133) rotate(90)">
          <path id="Trazado_42446" data-name="Trazado 42446" d="M18.364,51.98q0,23.794,0,47.588c0,.461.006.922.027,1.383a4.062,4.062,0,0,1-1.817,3.753,2.39,2.39,0,0,0-1.08,2.3c.191,5.12.338,10.241.494,15.362q.342,11.18.676,22.359.308,10.063.625,20.126c.167,5.455.356,10.91.478,16.366.082,3.649-1.979,6.729-4.944,7.566-4.3,1.214-8.4-2.33-8.345-7.316.043-4.048.215-8.094.339-12.141q.281-9.219.572-18.437.35-11.525.692-23.049.311-10.064.649-20.126c.04-1.215-.219-1.733-1.183-2.186-3.18-1.493-4.714-4.257-5.064-7.837a151.539,151.539,0,0,1-.4-18.121C.29,70.457.567,61.339,1,52.232c.262-5.468.793-10.927,1.375-16.368A137.789,137.789,0,0,1,6.624,12.012a30.215,30.215,0,0,1,3.857-8.936C11.54,1.547,12.8.27,14.668.027a3.875,3.875,0,0,1,1.407.094A2.086,2.086,0,0,1,17.8,2.4q.1,6.071.149,12.143.1,14.837.177,29.674c.014,2.587,0,5.174,0,7.762h.236" transform="translate(0 39.97)" fill="#dd0606"/>
          <path id="Trazado_42495" data-name="Trazado 42495" d="M60.024,27.419a.648.648,0,1,1-.649.648.648.648,0,0,1,.649-.648h0m-4.608.648a.648.648,0,1,0,.649-.648.648.648,0,0,0-.649.648h0m-3.957,0a.648.648,0,1,0,.648-.648h0a.647.647,0,0,0-.648.646h0M1.3,24.151a.642.642,0,0,0-.216-.48c-.1.366-.19.734-.273,1.105a.647.647,0,0,0,.489-.626m46.2,3.916a.648.648,0,1,0,.649-.648h0a.647.647,0,0,0-.649.646v0M.648,28.714a.648.648,0,1,0-.339-1.2c-.046.333-.088.668-.125,1a.644.644,0,0,0,.464.194m19.144-.647a.648.648,0,1,0,.649-.648h0a.647.647,0,0,0-.648.646v0m11.875,0a.649.649,0,1,0,.649-.648h0a.647.647,0,0,0-.648.645v0m-3.959,0a.649.649,0,1,0,.649-.648h0a.648.648,0,0,0-.649.647h0m-3.958,0a.648.648,0,1,0,.648-.648h0a.647.647,0,0,0-.648.647h0m11.876,0a.648.648,0,1,0,.647-.648.648.648,0,0,0-.647.648v0m19.79-3.916a.648.648,0,1,0,.649-.649.648.648,0,0,0-.649.649M39.585,28.067a.648.648,0,1,0,.649-.648h0a.647.647,0,0,0-.648.645v0m3.958,0a.648.648,0,1,0,.65-.648.648.648,0,0,0-.65.648v0M47.5,24.151a.648.648,0,1,0,.649-.649.648.648,0,0,0-.649.649m-11.874,0a.648.648,0,1,0,.647-.649.648.648,0,0,0-.647.649m3.958,0a.648.648,0,1,0,.648-.649.648.648,0,0,0-.648.649m-31.666,0a.648.648,0,1,0,.647-.649.648.648,0,0,0-.647.649h0m43.541,0a.648.648,0,1,0,.648-.649.648.648,0,0,0-.648.649m7.916,0a.648.648,0,1,0,.649-.649.648.648,0,0,0-.649.649m-15.833,0a.648.648,0,1,0,.65-.649.648.648,0,0,0-.65.649h0m-27.709,0a.649.649,0,1,0,.649-.649.649.649,0,0,0-.649.649m-3.957,0a.648.648,0,1,0,.648-.649.648.648,0,0,0-.648.649m7.916,0a.648.648,0,1,0,.648-.649.648.648,0,0,0-.648.649m11.875,0a.648.648,0,1,0,.648-.649.648.648,0,0,0-.648.649m-7.917,0A.648.648,0,1,0,24.4,23.5a.648.648,0,0,0-.648.649m3.958,0a.649.649,0,1,0,.649-.649.649.649,0,0,0-.649.649m-23.75,0a.649.649,0,1,0,.648-.649h0a.65.65,0,0,0-.647.649m11.875,3.916a.649.649,0,1,0,.649-.648h0a.647.647,0,0,0-.649.646v0m-3.957,3.917a.648.648,0,1,0,.648-.649h0a.648.648,0,0,0-.648.649h0m-7.917,0a.649.649,0,1,0,.648-.649h0a.648.648,0,0,0-.647.649m11.875,0a.649.649,0,1,0,.649-.649.649.649,0,0,0-.649.649h0M.649,36.551a.649.649,0,1,0-.464-1.1c.036.337.078.67.125,1a.651.651,0,0,0,.339.1m19.144-4.566a.648.648,0,1,0,.648-.649.648.648,0,0,0-.648.649h0M43.543,35.9a.648.648,0,1,0,.65-.648.648.648,0,0,0-.65.648h0M23.751,31.984a.648.648,0,1,0,.648-.649.648.648,0,0,0-.648.649M39.585,35.9a.648.648,0,1,0,.649-.648h0a.649.649,0,0,0-.648.648m15.832,0a.648.648,0,1,0,.649-.648.648.648,0,0,0-.649.648m-7.916,0a.648.648,0,1,0,.649-.648h0a.649.649,0,0,0-.649.648m11.875,0a.648.648,0,1,0,.649-.648.648.648,0,0,0-.649.648m-7.916,0a.648.648,0,1,0,.648-.648.648.648,0,0,0-.648.648M7.917,31.984a.648.648,0,1,0,.647-.649h0a.647.647,0,0,0-.647.647v0M0,31.984a.649.649,0,1,0,.648-.649h0A.648.648,0,0,0,0,31.984H0m3.958-3.917a.649.649,0,1,0,.649-.648h0a.647.647,0,0,0-.647.647h0m55.417,3.917a.648.648,0,1,0,.649-.649.648.648,0,0,0-.649.649m-3.959,0a.648.648,0,1,0,.649-.649.648.648,0,0,0-.649.649m-47.5-3.917a.648.648,0,1,0,.648-.648h0a.646.646,0,0,0-.647.645v0m3.958,0a.648.648,0,1,0,.649-.648h0a.647.647,0,0,0-.648.646h0m23.751,3.917a.648.648,0,1,0,.647-.649.648.648,0,0,0-.647.649h0m3.958,0a.648.648,0,1,0,.648-.649.648.648,0,0,0-.648.649h0m-11.876,0a.649.649,0,1,0,.649-.649.649.649,0,0,0-.649.649m23.751,0a.648.648,0,1,0,.648-.649.648.648,0,0,0-.648.649m-19.792,0a.649.649,0,1,0,.648-.649h0a.648.648,0,0,0-.648.648h0m15.833,0a.648.648,0,1,0,.649-.649.648.648,0,0,0-.649.649h0m-3.958,0a.648.648,0,1,0,.65-.649.648.648,0,0,0-.65.649v0M19.792,4.565a.648.648,0,1,0,.648-.648.648.648,0,0,0-.648.648v0M51.459,16.316a.648.648,0,1,0,.648-.648.648.648,0,0,0-.648.648v0M31.668,8.483a.649.649,0,1,0,.648-.649.649.649,0,0,0-.648.649m-7.917,0a.648.648,0,1,0,.648-.649.648.648,0,0,0-.648.649m3.958,0a.648.648,0,1,0,.649-.649.648.648,0,0,0-.649.649m11.876,0a.648.648,0,1,0,.648-.649.648.648,0,0,0-.648.649m7.916,0a.648.648,0,1,0,.649-.649.648.648,0,0,0-.649.649m5.255,0a.648.648,0,1,0-.648.65.648.648,0,0,0,.648-.65v0M40.232,1.3a.647.647,0,0,0,.625-.486C40.443.7,40.026.592,39.6.5a.678.678,0,0,0-.019.154.649.649,0,0,0,.648.649M60.024,47a.649.649,0,0,0,0,1.3.612.612,0,0,0,.21-.038c.145-.245.288-.494.423-.745A.648.648,0,0,0,60.024,47M19.792,8.483a.648.648,0,1,0,.648-.649.648.648,0,0,0-.648.649m23.75,0a.648.648,0,1,0,.65-.649.648.648,0,0,0-.65.649h0m-31.667,0a.648.648,0,1,0,.648-.649.648.648,0,0,0-.648.649m3.957,0a.649.649,0,1,0,.649-.649.649.649,0,0,0-.649.649m19.793,0a.648.648,0,1,0,.647-.649.648.648,0,0,0-.647.649M47.5,4.565a.648.648,0,1,0,.649-.648.648.648,0,0,0-.649.648v0M27.708.65A.648.648,0,1,0,28.357,0a.649.649,0,0,0-.649.65M43.542,4.565a.648.648,0,1,0,.65-.648.648.648,0,0,0-.65.648v0m-27.709,0a.649.649,0,1,0,.649-.648h0a.648.648,0,0,0-.649.647v0M31.668.65A.649.649,0,1,0,32.316,0a.649.649,0,0,0-.648.65h0m3.959,0A.648.648,0,1,0,36.274,0a.648.648,0,0,0-.647.65h0M24.4,1.3A.648.648,0,0,0,25.046.65.554.554,0,0,0,25.025.5c-.422.1-.837.2-1.251.317A.646.646,0,0,0,24.4,1.3m3.31,3.267a.648.648,0,1,0,.649-.648.648.648,0,0,0-.649.648h0m-3.958,0a.648.648,0,1,0,.648-.648.648.648,0,0,0-.648.648h0M35.627,35.9a.648.648,0,1,0,.647-.648.648.648,0,0,0-.647.648m0-31.336a.648.648,0,1,0,.647-.648.648.648,0,0,0-.647.648v0m3.958,0a.648.648,0,1,0,.648-.648h0a.647.647,0,0,0-.648.646v0m-7.917,0a.649.649,0,1,0,.649-.648h0a.647.647,0,0,0-.648.646v0M59.375,20.235a.648.648,0,1,0,.649-.649.648.648,0,0,0-.649.649h0m-19.791,0a.648.648,0,1,0,.648-.649.648.648,0,0,0-.648.649v0m-3.958,0a.648.648,0,1,0,.647-.649.648.648,0,0,0-.647.649v0m7.916,0a.648.648,0,1,0,.65-.649.648.648,0,0,0-.65.649v0m3.958,0a.648.648,0,1,0,.649-.649.648.648,0,0,0-.649.649v0m3.959,0a.648.648,0,1,0,.648-.649.648.648,0,0,0-.648.649h0m-19.792,0a.649.649,0,1,0,.648-.649.649.649,0,0,0-.648.649v0m-23.75,0a.648.648,0,1,0,.647-.649.648.648,0,0,0-.647.649v0m3.958,0a.648.648,0,1,0,.648-.649.648.648,0,0,0-.648.649h0m3.957,0a.649.649,0,1,0,.649-.649.649.649,0,0,0-.649.649h0m-11.874,0a.649.649,0,1,0,.648-.649h0a.648.648,0,0,0-.647.649h0m23.75,0a.648.648,0,1,0,.649-.649.648.648,0,0,0-.649.649h0m-7.916,0a.648.648,0,1,0,.648-.649.648.648,0,0,0-.648.649h0m3.958,0a.648.648,0,1,0,.648-.649.648.648,0,0,0-.648.649h0m31.666-3.919a.648.648,0,1,0,.649-.648.648.648,0,0,0-.649.648v0m-15.832,0a.648.648,0,1,0,.649-.648h0a.646.646,0,0,0-.648.643v0m-3.958,0a.645.645,0,1,0,0-.005v.005m19.79,3.919a.648.648,0,1,0,.649-.649.648.648,0,0,0-.649.649h0M27.708,16.316a.648.648,0,1,0,.649-.648h0a.647.647,0,0,0-.649.645v0m19.792,0a.648.648,0,1,0,.649-.648h0a.646.646,0,0,0-.649.644v0m-3.958,0a.645.645,0,1,0,0-.007v.007m-11.875,0a.649.649,0,1,0,.649-.648h0a.646.646,0,0,0-.648.643v0m-19.792,0a.648.648,0,1,0,.649-.648h0a.646.646,0,0,0-.648.644v0m-3.958,0a.648.648,0,1,0,.648-.648h0a.645.645,0,0,0-.647.643v.005m11.874,0a.648.648,0,1,0,.648-.648h0a.646.646,0,0,0-.648.644v0m-3.959,0a.649.649,0,1,0,.649-.648h0a.646.646,0,0,0-.649.644v0m7.917,0a.648.648,0,1,0,.648-.648.648.648,0,0,0-.648.648v0M36.922,59.4a.648.648,0,1,0-.648.648.648.648,0,0,0,.648-.648M17.13,12.4a.649.649,0,1,0-.649.649.648.648,0,0,0,.649-.649h0m46.852,15.02a.647.647,0,1,0,.463,1.1c-.035-.338-.078-.671-.124-1a.643.643,0,0,0-.339-.1M21.089,12.4a.648.648,0,1,0-.648.649.648.648,0,0,0,.648-.649h0m3.957,0a.648.648,0,1,0-.648.649.648.648,0,0,0,.648-.649v0m34.329,3.917a.648.648,0,0,0,1.281.134c-.135-.249-.278-.5-.423-.743a.625.625,0,0,0-.21-.038.649.649,0,0,0-.649.648m3.958,7.835a.649.649,0,0,0,.488.626c-.084-.371-.176-.739-.273-1.105a.644.644,0,0,0-.215.48M13.173,12.4a.648.648,0,1,0-.649.649.648.648,0,0,0,.649-.649h0m31.666,0a.648.648,0,1,0-.648.649h0a.648.648,0,0,0,.647-.649m3.958,0a.648.648,0,1,0-.648.649A.648.648,0,0,0,48.8,12.4m3.958,0a.648.648,0,1,0-.648.649.648.648,0,0,0,.648-.649h0m-11.874,0a.648.648,0,1,0-.649.649.648.648,0,0,0,.649-.649m-7.916,0a.649.649,0,1,0-.649.649.649.649,0,0,0,.649-.649m3.957,0a.647.647,0,1,0-.648.649.647.647,0,0,0,.648-.649h0m-7.916,0a.649.649,0,1,0-.648.649h0a.648.648,0,0,0,.648-.649m-1.3,39.171a.649.649,0,1,0,.649-.649.649.649,0,0,0-.649.649m3.959,0a.649.649,0,1,0,.648-.649.648.648,0,0,0-.648.649h0m-7.917,0a.648.648,0,1,0,.648-.649.648.648,0,0,0-.648.649m15.834,0a.648.648,0,1,0,.648-.649.648.648,0,0,0-.648.649h0m-19.792,0a.648.648,0,1,0,.648-.649.648.648,0,0,0-.648.649m15.834,0a.648.648,0,1,0,.647-.649.647.647,0,0,0-.647.649h0M63.982,31.336a.649.649,0,1,0,.649.649h0a.648.648,0,0,0-.648-.649h0M15.833,51.57a.649.649,0,1,0,.649-.649.649.649,0,0,0-.649.649m47.5-11.752a.639.639,0,0,0,.215.478c.1-.365.19-.733.273-1.1a.646.646,0,0,0-.488.625m.649-4.566a.649.649,0,1,0,.339,1.2c.046-.333.088-.666.124-1a.646.646,0,0,0-.463-.2M56.713,51.57a.648.648,0,1,0-.647.649.648.648,0,0,0,.647-.649v0m-48.795,0a.648.648,0,1,0,.647-.649.648.648,0,0,0-.647.649h0m3.958,0a.648.648,0,1,0,.648-.649.648.648,0,0,0-.648.649M48.8,59.4a.648.648,0,1,0-.649.648h0A.649.649,0,0,0,48.8,59.4M25.046,55.486a.648.648,0,1,0-.648.648.648.648,0,0,0,.648-.648m3.959,0a.649.649,0,1,0-.649.648h0a.65.65,0,0,0,.648-.648m7.916,0a.648.648,0,1,0-.648.648.648.648,0,0,0,.648-.648m-3.957,0a.649.649,0,1,0-.649.648h0a.651.651,0,0,0,.649-.648m-15.834,0a.649.649,0,1,0-.65.648h0a.651.651,0,0,0,.649-.648M43.542,51.57a.648.648,0,1,0,.65-.649.648.648,0,0,0-.65.649v0M21.089,55.486a.648.648,0,1,0-.649.648h0a.65.65,0,0,0,.648-.648m-9.213,0a.648.648,0,1,0,.648-.65.648.648,0,0,0-.648.65h0m40.879,0a.648.648,0,1,0-.648.648.648.648,0,0,0,.648-.648M25.046,63.32a.646.646,0,0,0-1.272-.165c.414.113.831.222,1.251.319a.555.555,0,0,0,.021-.154M31.668,35.9a.649.649,0,1,0,.649-.648h0a.649.649,0,0,0-.648.648M44.839,55.486a.648.648,0,1,0-.649.648h0a.65.65,0,0,0,.647-.648m-3.958,0a.648.648,0,1,0-.649.648h0a.651.651,0,0,0,.649-.648m-.649,7.185a.647.647,0,0,0-.648.645v0a.666.666,0,0,0,.019.154c.423-.1.839-.205,1.253-.319a.647.647,0,0,0-.625-.483m-8.565.648a.649.649,0,1,0,.649-.648h0a.648.648,0,0,0-.648.648M56.712,12.4a.648.648,0,1,0-.647.649.648.648,0,0,0,.647-.649v0m-29,50.921a.648.648,0,1,0,.649-.648.648.648,0,0,0-.649.648m9.213,0a.648.648,0,1,0-.648.648.648.648,0,0,0,.648-.648v0M44.839,59.4a.648.648,0,1,0-.649.648h0a.648.648,0,0,0,.647-.648M4.606,16.963a.647.647,0,1,0,0-1.295.637.637,0,0,0-.211.038q-.215.369-.422.743a.646.646,0,0,0,.633.513M7.918,12.4a.648.648,0,1,0,.648-.648h0a.647.647,0,0,0-.647.647h0m25.047,47a.649.649,0,1,0-.649.648h0a.649.649,0,0,0,.649-.648m-11.876,0a.648.648,0,1,0-.649.648h0a.648.648,0,0,0,.648-.648m7.917,0a.648.648,0,1,0-.649.648h0a.649.649,0,0,0,.648-.648m11.876,0a.648.648,0,1,0-.649.648h0a.649.649,0,0,0,.649-.648m-15.835,0a.648.648,0,1,0-.648.648.648.648,0,0,0,.648-.648h0m-7.916,0a.649.649,0,1,0-.649.648h0a.649.649,0,0,0,.649-.648M48.8,55.486a.648.648,0,1,0-.649.648h0a.651.651,0,0,0,.648-.648m-29-15.668a.648.648,0,1,0,.648-.65.648.648,0,0,0-.648.65v0m3.958,0a.648.648,0,1,0,.648-.65.648.648,0,0,0-.648.65h0m-7.917,0a.649.649,0,1,0,.649-.65.649.649,0,0,0-.649.65h0m15.834,0a.649.649,0,1,0,.648-.65.648.648,0,0,0-.648.65v0m3.959,0a.648.648,0,1,0,.647-.65.648.648,0,0,0-.647.65v0m-23.751,0a.648.648,0,1,0,.648-.65.648.648,0,0,0-.648.65v0m15.832,0a.648.648,0,1,0,.649-.65.648.648,0,0,0-.649.65h0m27.708,3.917a.648.648,0,1,0,.649-.648.648.648,0,0,0-.649.648h0m-47.5-3.917a.648.648,0,1,0,.647-.65.648.648,0,0,0-.647.65v0m43.541,3.917a.648.648,0,1,0,.648-.648.648.648,0,0,0-.648.648h0m7.916,0a.648.648,0,1,0,.649-.648.648.648,0,0,0-.649.648h0M3.958,39.818a.649.649,0,1,0,.647-.65.648.648,0,0,0-.647.65h0m-2.661,0a.644.644,0,0,0-.489-.625c.083.37.177.738.273,1.1a.639.639,0,0,0,.216-.478M7.917,35.9a.648.648,0,1,0,.648-.648h0a.648.648,0,0,0-.647.648m11.874,0a.648.648,0,1,0,.648-.648h0a.649.649,0,0,0-.648.648M47.5,43.735a.648.648,0,1,0,.649-.648.648.648,0,0,0-.649.648v0M11.876,35.9a.648.648,0,1,0,.649-.648h0a.649.649,0,0,0-.648.648m27.708,3.918a.648.648,0,1,0,.648-.65.648.648,0,0,0-.648.65v0M23.75,35.9a.648.648,0,1,0,.648-.648.648.648,0,0,0-.648.648m3.958,0a.649.649,0,1,0,.649-.648.649.649,0,0,0-.649.648m-11.875,0a.649.649,0,1,0,.649-.648h0a.65.65,0,0,0-.649.648M47.5,39.818a.648.648,0,1,0,.649-.65.649.649,0,0,0-.649.65v0m3.959,0a.648.648,0,1,0,.648-.65.648.648,0,0,0-.648.65h0m-7.917,0a.648.648,0,1,0,.65-.65.648.648,0,0,0-.65.65v0M3.958,35.9a.649.649,0,1,0,.649-.648h0a.649.649,0,0,0-.647.648m55.417,3.918a.648.648,0,1,0,.649-.65.648.648,0,0,0-.649.65h0m-3.959,0a.648.648,0,1,0,.649-.65.648.648,0,0,0-.649.65h0m-3.957,7.833A.648.648,0,1,0,52.107,47a.648.648,0,0,0-.648.649h0m-15.833,0A.648.648,0,1,0,36.274,47a.648.648,0,0,0-.647.649v0m-3.959,0A.649.649,0,1,0,32.315,47a.649.649,0,0,0-.648.649v0m7.917,0A.648.648,0,1,0,40.232,47a.648.648,0,0,0-.648.649v0m-11.876,0A.649.649,0,1,0,28.357,47a.648.648,0,0,0-.649.649m15.834,0a.648.648,0,1,0,.65-.649.648.648,0,0,0-.65.649v0m3.958,0A.648.648,0,1,0,48.148,47a.648.648,0,0,0-.649.649h0m-39.583,0A.648.648,0,1,0,8.564,47a.648.648,0,0,0-.647.649v0m3.958,0A.648.648,0,1,0,12.524,47a.648.648,0,0,0-.648.649h0m11.874,0A.648.648,0,1,0,24.4,47a.648.648,0,0,0-.648.649M47.5,51.57a.648.648,0,1,0,.649-.649.648.648,0,0,0-.649.649m7.916-3.918A.648.648,0,1,0,56.065,47a.648.648,0,0,0-.649.649h0m-35.624,0A.648.648,0,1,0,20.44,47a.648.648,0,0,0-.648.649h0m-3.959,0A.649.649,0,1,0,16.482,47a.648.648,0,0,0-.649.649h0M7.917,43.735a.648.648,0,1,0,.647-.648h0a.646.646,0,0,0-.647.646v0m23.75,0a.649.649,0,1,0,.649-.648h0a.647.647,0,0,0-.648.646v0m-3.959,0a.649.649,0,1,0,.649-.648.648.648,0,0,0-.649.648h0m-3.958,0a.648.648,0,1,0,.648-.648.648.648,0,0,0-.648.648h0m15.834,0a.648.648,0,1,0,.648-.648h0a.647.647,0,0,0-.648.646v0m-3.958,0a.648.648,0,1,0,.647-.648.648.648,0,0,0-.647.648v0m-15.834,0a.648.648,0,1,0,.648-.648.648.648,0,0,0-.648.648h0M51.459,51.57a.648.648,0,1,0,.648-.649.648.648,0,0,0-.648.649m-46.2-3.918a.648.648,0,0,0-1.282-.135q.206.377.422.745a.62.62,0,0,0,.211.038.649.649,0,0,0,.65-.648h0m-1.3-3.917a.649.649,0,1,0,.649-.648h0a.648.648,0,0,0-.647.648h0m39.583,0a.648.648,0,1,0,.65-.648.648.648,0,0,0-.65.648v0m-31.666,0a.648.648,0,1,0,.648-.648h0a.648.648,0,0,0-.648.647h0m3.958,0a.649.649,0,1,0,.649-.648h0a.648.648,0,0,0-.649.647h0" transform="translate(32.237 0)" fill="#f40000"/>
          <path id="Trazado_42496" data-name="Trazado 42496" d="M0,6.72A1.361,1.361,0,1,0,1.361,5.358,1.361,1.361,0,0,0,0,6.72ZM0,1.36A1.361,1.361,0,1,0,1.362,0h0A1.361,1.361,0,0,0,0,1.36M5.741,6.72A1.361,1.361,0,1,0,7.1,5.358,1.361,1.361,0,0,0,5.741,6.72v0m0-5.359A1.361,1.361,0,1,0,7.1,0,1.361,1.361,0,0,0,5.741,1.36h0M11.482,6.72a1.361,1.361,0,1,0,1.362-1.361A1.361,1.361,0,0,0,11.482,6.72h0m0-5.359A1.361,1.361,0,1,0,12.844,0h0a1.361,1.361,0,0,0-1.362,1.36" transform="translate(31.445 142.866)" fill="#fff"/>
          <g id="Grupo_19555" data-name="Grupo 19555" transform="translate(31.445 172.59)">
            <path id="Trazado_42455" data-name="Trazado 42455" d="M2.109,4.219A2.11,2.11,0,1,1,4.219,2.108,2.109,2.109,0,0,1,2.109,4.219" transform="translate(5.114 7.319)" fill="#ffb600"/>
            <path id="Trazado_42456" data-name="Trazado 42456" d="M2.2,4.4A2.2,2.2,0,1,1,4.4,2.2,2.2,2.2,0,0,1,2.2,4.4m0-3.255A1.056,1.056,0,1,0,3.255,2.2h0A1.057,1.057,0,0,0,2.2,1.143" transform="translate(23.013 1.673)" fill="#ffb600"/>
            <path id="Trazado_42464" data-name="Trazado 42464" d="M.836,1.673A.836.836,0,1,1,1.673.836a.836.836,0,0,1-.837.837" transform="translate(0 0)" fill="#f40000"/>
            <path id="Trazado_42465" data-name="Trazado 42465" d="M.836,1.673A.836.836,0,1,1,1.673.835a.836.836,0,0,1-.837.837" transform="translate(35.354 11.207)" fill="#f40000"/>
          </g>
          <g id="Grupo_19554" data-name="Grupo 19554" transform="translate(12.932 81.257)">
            <path id="Trazado_42452" data-name="Trazado 42452" d="M0,6.72A1.361,1.361,0,1,0,1.361,5.358,1.361,1.361,0,0,0,0,6.72ZM0,1.36A1.361,1.361,0,1,0,1.361,0h0A1.36,1.36,0,0,0,0,1.36H0M5.74,6.72A1.361,1.361,0,1,0,7.1,5.358,1.361,1.361,0,0,0,5.74,6.72v0m0-5.359A1.361,1.361,0,1,0,7.1,0,1.361,1.361,0,0,0,5.74,1.36h0M11.482,6.72a1.361,1.361,0,1,0,1.362-1.361A1.361,1.361,0,0,0,11.482,6.72h0m0-5.359A1.361,1.361,0,1,0,12.844,0h0a1.361,1.361,0,0,0-1.362,1.36" transform="translate(9.392 0)" fill="#ffb600"/>
            <path id="Trazado_42460" data-name="Trazado 42460" d="M2.349,4.7A2.351,2.351,0,1,1,4.7,2.35,2.351,2.351,0,0,1,2.349,4.7m0-3.48A1.129,1.129,0,1,0,3.48,2.35a1.129,1.129,0,0,0-1.13-1.128" transform="translate(39.009 40.961)" fill="#f40000"/>
            <path id="Trazado_42466" data-name="Trazado 42466" d="M.836,1.673A.836.836,0,1,1,1.673.835a.836.836,0,0,1-.837.837" transform="translate(42.875 8.198)" fill="#f40000"/>
            <path id="Trazado_42467" data-name="Trazado 42467" d="M.836,1.673A.836.836,0,1,1,1.673.836a.836.836,0,0,1-.837.837" transform="translate(0 33.391)" fill="#f40000"/>
          </g>
        </g>
        <g id="Grupo_19606" data-name="Grupo 19606" transform="translate(352 75.467)">
          <path id="Trazado_42447" data-name="Trazado 42447" d="M8.787,124.468q.488-16.437.977-32.874.35-11.712.717-23.424a2.843,2.843,0,0,0-.863-2.2c-2.079-2.146-4.124-4.325-6.173-6.5A11.994,11.994,0,0,1,.028,50.9c.021-4.507-.12-9.021.084-13.52C.433,30.3.937,23.22,1.452,16.146c.362-4.977.874-9.943,1.307-14.915C2.8.737,2.98.494,3.517.493c2.328,0,1.887-.2,1.941,1.765q.422,15.518.805,31.037c.034,1.332.032,2.664.08,4,.037,1.036.565,1.631,1.374,1.627.879,0,1.441-.674,1.466-1.732Q9.588,20.091,10,3c.019-.768.1-1.535.1-2.3,0-.5.2-.7.694-.668a3.539,3.539,0,0,0,.623-.013c.613-.069.789.189.8.79q.261,16.021.561,32.041.037,2.075.069,4.149c.019,1.158.578,1.868,1.483,1.885.88.016,1.523-.732,1.542-1.838q.2-11.334.379-22.667c.076-4.508.171-9.015.226-13.523.008-.628.192-.911.84-.84a2.755,2.755,0,0,0,.545,0c.573-.052.753.194.763.759.047,2.843.138,5.685.21,8.527q.352,13.75.7,27.5a5.963,5.963,0,0,0,.061.918,1.405,1.405,0,0,0,1.482,1.192,1.367,1.367,0,0,0,1.255-1.338c.055-1.254.07-2.509.1-3.764q.316-12.445.634-24.89c.069-2.637.183-5.273.238-7.911.013-.636.239-.784.849-.7C25.915.55,25.9.532,26.051,2.34q.706,8.534,1.434,17.067c.766,8.987,1.284,17.985,1.292,27.006,0,1.97-.147,3.94-.221,5.91a10.819,10.819,0,0,1-3.133,6.938q-2.957,3.263-6.051,6.4A3.522,3.522,0,0,0,18.21,68.45q.449,13.287.827,26.576.531,17.706,1.051,35.411.491,16.437.991,32.874c.168,5.582.309,11.165.508,16.746a8.767,8.767,0,0,1-2.259,6.733A6.8,6.8,0,0,1,8.1,185.051a9.767,9.767,0,0,1-1.047-4.821q.434-13.017.843-26.035c.2-6.581.367-13.162.556-19.743.1-3.329.21-6.657.315-9.985h.016" transform="translate(45.598 4.039)" fill="#dd0606"/>
          <path id="Trazado_42490" data-name="Trazado 42490" d="M2.254,4.51A2.255,2.255,0,1,1,4.51,2.254,2.255,2.255,0,0,1,2.254,4.51" transform="translate(85.358 19.55)" fill="#ffb600"/>
          <g id="Grupo_19553" data-name="Grupo 19553" transform="translate(0 109.557)">
            <path id="Trazado_42449" data-name="Trazado 42449" d="M31.832,14.541a.343.343,0,1,1-.344.343.343.343,0,0,1,.344-.343Zm-2.444.343a.344.344,0,1,0,.344-.343.344.344,0,0,0-.344.343h0m-2.1,0a.344.344,0,1,0,.344-.343h0a.343.343,0,0,0-.343.343h0M.688,12.808a.341.341,0,0,0-.114-.254c-.051.194-.1.389-.145.586a.344.344,0,0,0,.259-.332m24.5,2.077a.344.344,0,1,0,.344-.343h0a.343.343,0,0,0-.344.342h0M.344,15.228a.343.343,0,1,0-.18-.635c-.025.177-.047.354-.066.533a.342.342,0,0,0,.246.1M10.5,14.885a.344.344,0,1,0,.344-.343h0a.343.343,0,0,0-.344.343h0m6.3,0a.344.344,0,1,0,.344-.343h0a.343.343,0,0,0-.344.343h0m-2.1,0a.344.344,0,1,0,.344-.343h0a.344.344,0,0,0-.344.343h0m-2.1,0a.344.344,0,1,0,.344-.343h0a.344.344,0,0,0-.343.343m6.3,0a.343.343,0,1,0,.343-.343h0a.343.343,0,0,0-.343.342h0m10.5-2.077a.344.344,0,1,0,.344-.344.344.344,0,0,0-.344.344m-8.4,2.077a.344.344,0,1,0,.344-.343h0a.343.343,0,0,0-.344.342h0m2.1,0a.344.344,0,1,0,.344-.343.344.344,0,0,0-.344.343v0m2.1-2.077a.344.344,0,1,0,.344-.344.344.344,0,0,0-.344.344m-6.3,0a.343.343,0,1,0,.343-.344.344.344,0,0,0-.343.344m2.1,0a.344.344,0,1,0,.344-.344.344.344,0,0,0-.344.344m-16.793,0a.344.344,0,1,0,.343-.344.344.344,0,0,0-.343.344h0m23.091,0a.344.344,0,1,0,.343-.344.344.344,0,0,0-.343.344m4.2,0a.344.344,0,1,0,.344-.344.344.344,0,0,0-.344.344m-8.4,0a.344.344,0,1,0,.344-.344.344.344,0,0,0-.344.344h0m-14.695,0a.344.344,0,1,0,.344-.344.344.344,0,0,0-.344.344m-2.1,0a.344.344,0,1,0,.344-.344.344.344,0,0,0-.344.344m4.2,0a.344.344,0,1,0,.344-.344.344.344,0,0,0-.344.344m6.3,0a.344.344,0,1,0,.344-.344.344.344,0,0,0-.344.344m-4.2,0a.344.344,0,1,0,.343-.344.344.344,0,0,0-.343.344m2.1,0a.344.344,0,1,0,.344-.344.344.344,0,0,0-.344.344m-12.595,0a.344.344,0,1,0,.343-.344h0a.344.344,0,0,0-.343.344m6.3,2.077a.344.344,0,1,0,.344-.343h0a.344.344,0,0,0-.344.343h0M6.3,16.962a.344.344,0,1,0,.344-.344.344.344,0,0,0-.344.344m-4.2,0a.344.344,0,1,0,.344-.344h0a.344.344,0,0,0-.343.344m6.3,0a.344.344,0,1,0,.344-.344.344.344,0,0,0-.344.344M.344,19.383A.344.344,0,1,0,.1,18.8c.019.179.042.355.066.532a.347.347,0,0,0,.18.053M10.5,16.963a.344.344,0,1,0,.344-.344.344.344,0,0,0-.344.344m12.6,2.077a.344.344,0,1,0,.344-.344.344.344,0,0,0-.344.344h0M12.6,16.962a.344.344,0,1,0,.343-.344.344.344,0,0,0-.343.344m8.4,2.077a.344.344,0,1,0,.344-.344h0a.344.344,0,0,0-.344.344m8.4,0a.344.344,0,1,0,.344-.344.344.344,0,0,0-.344.344m-4.2,0a.344.344,0,1,0,.344-.344h0a.344.344,0,0,0-.344.344m6.3,0a.344.344,0,1,0,.344-.344.344.344,0,0,0-.344.344m-4.2,0a.344.344,0,1,0,.344-.344h0a.344.344,0,0,0-.343.344M4.2,16.962a.344.344,0,1,0,.343-.344h0a.343.343,0,0,0-.343.343h0m-4.2,0a.344.344,0,1,0,.344-.344h0A.344.344,0,0,0,0,16.962H0m2.1-2.077a.344.344,0,1,0,.344-.343h0a.343.343,0,0,0-.343.343h0m29.389,2.077a.344.344,0,1,0,.344-.344.344.344,0,0,0-.344.344m-2.1,0a.344.344,0,1,0,.344-.344.344.344,0,0,0-.344.344M4.2,14.885a.344.344,0,1,0,.344-.343h0a.342.342,0,0,0-.343.342v0m2.1,0a.344.344,0,1,0,.344-.343h0a.343.343,0,0,0-.344.343h0m12.595,2.077a.343.343,0,1,0,.343-.344.343.343,0,0,0-.343.344h0m2.1,0a.344.344,0,1,0,.344-.344.344.344,0,0,0-.344.344h0m-6.3,0a.344.344,0,1,0,.344-.344.344.344,0,0,0-.344.344m12.6,0a.344.344,0,1,0,.343-.344.344.344,0,0,0-.343.344m-10.5,0a.344.344,0,1,0,.344-.344h0a.344.344,0,0,0-.344.344h0m8.4,0a.344.344,0,1,0,.344-.344.344.344,0,0,0-.344.344h0m-2.1,0a.344.344,0,1,0,.344-.344.344.344,0,0,0-.344.344v0M10.5,2.421a.344.344,0,1,0,.344-.344h0a.343.343,0,0,0-.344.343h0M27.29,8.653a.344.344,0,1,0,.344-.344h0a.342.342,0,0,0-.343.342v0M16.794,4.5a.344.344,0,1,0,.344-.344h0a.344.344,0,0,0-.344.344m-4.2,0a.344.344,0,1,0,.343-.344.344.344,0,0,0-.343.344m2.1,0a.344.344,0,1,0,.344-.344.344.344,0,0,0-.344.344m6.3,0a.344.344,0,1,0,.344-.344.344.344,0,0,0-.344.344m4.2,0a.344.344,0,1,0,.344-.344.344.344,0,0,0-.344.344m2.787,0a.344.344,0,1,0-.344.344.344.344,0,0,0,.344-.344h0M21.335.689a.343.343,0,0,0,.331-.258c-.22-.06-.441-.117-.665-.168a.357.357,0,0,0-.01.082.344.344,0,0,0,.344.344m10.5,24.238a.344.344,0,1,0,0,.688.322.322,0,0,0,.111-.02c.077-.13.152-.262.224-.395a.344.344,0,0,0-.335-.273M10.5,4.5a.344.344,0,1,0,.344-.344A.344.344,0,0,0,10.5,4.5m12.6,0a.344.344,0,1,0,.344-.344.344.344,0,0,0-.344.344h0M6.3,4.5a.344.344,0,1,0,.344-.344A.344.344,0,0,0,6.3,4.5m2.1,0a.344.344,0,1,0,.344-.344A.344.344,0,0,0,8.4,4.5m10.5,0a.343.343,0,1,0,.343-.344.343.343,0,0,0-.343.344m6.3-2.077a.344.344,0,1,0,.344-.344.344.344,0,0,0-.344.344h0M14.694.344A.344.344,0,1,0,15.038,0a.344.344,0,0,0-.344.344m8.4,2.077a.344.344,0,1,0,.344-.344.344.344,0,0,0-.344.344v0M8.4,2.421a.344.344,0,1,0,.344-.344h0A.344.344,0,0,0,8.4,2.42h0m8.4-2.077A.344.344,0,1,0,17.137,0a.344.344,0,0,0-.344.344m2.1,0A.343.343,0,1,0,19.237,0a.344.344,0,0,0-.343.344h0M12.939.688a.344.344,0,0,0,.344-.344.293.293,0,0,0-.011-.082c-.224.052-.444.108-.663.168a.343.343,0,0,0,.331.258m1.756,1.733a.344.344,0,1,0,.344-.344.344.344,0,0,0-.344.344h0m-2.1,0a.344.344,0,1,0,.343-.344.344.344,0,0,0-.343.344h0m6.3,16.618a.343.343,0,1,0,.343-.344.344.344,0,0,0-.343.344m0-16.618a.343.343,0,1,0,.343-.344.343.343,0,0,0-.343.344h0m2.1,0a.344.344,0,1,0,.344-.344h0a.343.343,0,0,0-.344.343h0m-4.2,0a.344.344,0,1,0,.344-.344h0a.343.343,0,0,0-.344.343h0m14.694,8.31a.344.344,0,1,0,.344-.344.344.344,0,0,0-.344.344h0m-10.5,0a.344.344,0,1,0,.344-.344.344.344,0,0,0-.344.344h0m-2.1,0a.343.343,0,1,0,.343-.344.344.344,0,0,0-.343.344h0m4.2,0a.344.344,0,1,0,.344-.344.344.344,0,0,0-.344.344v0m2.1,0a.344.344,0,1,0,.344-.344.344.344,0,0,0-.344.344h0m2.1,0a.344.344,0,1,0,.343-.344.344.344,0,0,0-.343.344h0m-10.5,0a.344.344,0,1,0,.344-.344h0a.344.344,0,0,0-.344.343h0m-12.6,0a.344.344,0,1,0,.343-.344.344.344,0,0,0-.343.344v0m2.1,0a.344.344,0,1,0,.344-.344.344.344,0,0,0-.344.344h0m2.1,0a.344.344,0,1,0,.344-.344.344.344,0,0,0-.344.344h0m-6.3,0a.344.344,0,1,0,.344-.344h0a.344.344,0,0,0-.343.344h0m12.595,0a.344.344,0,1,0,.344-.344.344.344,0,0,0-.344.344h0m-4.2,0a.344.344,0,1,0,.344-.344.344.344,0,0,0-.344.344h0m2.1,0a.344.344,0,1,0,.343-.344.344.344,0,0,0-.343.344M29.388,8.653a.344.344,0,1,0,.344-.344.343.343,0,0,0-.344.344v0m-8.4,0a.344.344,0,1,0,.344-.344h0a.342.342,0,0,0-.344.341v0m-2.1,0a.343.343,0,1,0,.343-.344.343.343,0,0,0-.343.344v0m10.5,2.078a.344.344,0,1,0,.344-.344.344.344,0,0,0-.344.344h0M14.694,8.653a.344.344,0,1,0,.344-.344h0a.343.343,0,0,0-.344.342v0m10.5,0a.344.344,0,1,0,.344-.344h0a.343.343,0,0,0-.344.341v0m-2.1,0a.344.344,0,1,0,.344-.344.344.344,0,0,0-.344.344v0m-6.3,0a.344.344,0,1,0,.344-.344h0a.343.343,0,0,0-.344.341v0m-10.5,0a.344.344,0,1,0,.344-.344h0a.343.343,0,0,0-.344.342v0m-2.1,0a.344.344,0,1,0,.344-.344h0A.342.342,0,0,0,4.2,8.65v0m6.3,0a.344.344,0,1,0,.344-.344h0a.343.343,0,0,0-.344.342v0m-2.1,0a.344.344,0,1,0,.344-.344h0a.343.343,0,0,0-.344.342v0m4.2,0a.344.344,0,1,0,.344-.344h0a.343.343,0,0,0-.343.342h0M19.58,31.5a.343.343,0,1,0-.343.344.343.343,0,0,0,.343-.344M9.084,6.576a.344.344,0,1,0-.344.344.344.344,0,0,0,.344-.344m24.846,7.966a.343.343,0,1,0,.246.584c-.019-.179-.041-.356-.065-.533a.341.341,0,0,0-.18-.051M11.184,6.576a.344.344,0,1,0-.344.344.344.344,0,0,0,.344-.344h0m2.1,0a.344.344,0,1,0-.344.344.344.344,0,0,0,.344-.344h0M31.488,8.653a.343.343,0,0,0,.679.07c-.072-.132-.147-.263-.224-.394a.329.329,0,0,0-.111-.02.344.344,0,0,0-.344.344m2.1,4.155a.344.344,0,0,0,.259.332c-.044-.2-.094-.392-.145-.586a.341.341,0,0,0-.114.254M6.986,6.576a.344.344,0,1,0-.344.344.344.344,0,0,0,.344-.344m16.793,0a.344.344,0,1,0-.344.344h0a.344.344,0,0,0,.343-.344m2.1,0a.344.344,0,1,0-.344.344.344.344,0,0,0,.344-.344m2.1,0a.344.344,0,1,0-.344.344.344.344,0,0,0,.344-.344h0m-6.3,0a.344.344,0,1,0-.344.344.344.344,0,0,0,.344-.344m-4.2,0a.344.344,0,1,0-.345.344.344.344,0,0,0,.345-.344m2.1,0a.343.343,0,1,0-.343.344.343.343,0,0,0,.343-.344h0m-4.2,0a.344.344,0,1,0-.344.344h0a.344.344,0,0,0,.344-.344m-.688,20.773A.344.344,0,1,0,15.038,27a.344.344,0,0,0-.344.344m2.1,0A.344.344,0,1,0,17.137,27a.344.344,0,0,0-.344.344m-4.2,0A.344.344,0,1,0,12.938,27a.344.344,0,0,0-.343.344m8.4,0A.344.344,0,1,0,21.335,27a.344.344,0,0,0-.344.344m-10.5,0A.344.344,0,1,0,10.839,27a.344.344,0,0,0-.344.344m8.4,0A.343.343,0,1,0,19.236,27a.343.343,0,0,0-.343.344M33.93,16.618a.344.344,0,1,0,.344.344h0a.344.344,0,0,0-.344-.344h0M8.4,27.349A.344.344,0,1,0,8.74,27a.344.344,0,0,0-.344.344m25.19-6.232a.34.34,0,0,0,.114.254c.051-.193.1-.389.145-.585a.343.343,0,0,0-.259.332m.344-2.421a.344.344,0,1,0,.18.636c.024-.177.047-.353.065-.532a.343.343,0,0,0-.246-.1m-3.855,8.653a.344.344,0,1,0-.343.344.344.344,0,0,0,.343-.344h0m-25.877,0A.344.344,0,1,0,4.542,27a.344.344,0,0,0-.343.344h0m2.1,0A.344.344,0,1,0,6.641,27a.344.344,0,0,0-.344.344M25.878,31.5a.344.344,0,1,0-.344.344h0a.344.344,0,0,0,.344-.344m-12.6-2.077a.344.344,0,1,0-.344.343h0a.344.344,0,0,0,.344-.343m2.1,0a.344.344,0,1,0-.344.343h0a.345.345,0,0,0,.344-.343m4.2,0a.343.343,0,1,0-.343.343.343.343,0,0,0,.343-.343m-2.1,0a.344.344,0,1,0-.344.343h0a.345.345,0,0,0,.344-.343m-8.4,0a.344.344,0,1,0-.344.343h0a.345.345,0,0,0,.344-.343m14.007-2.077A.344.344,0,1,0,23.435,27a.344.344,0,0,0-.344.344h0M11.183,29.426a.344.344,0,1,0-.344.343h0a.344.344,0,0,0,.344-.343m-4.886,0a.344.344,0,1,0,.344-.345.344.344,0,0,0-.344.345h0m21.679,0a.344.344,0,1,0-.344.343h0a.344.344,0,0,0,.344-.343M13.282,33.58a.343.343,0,0,0-.674-.088c.219.06.441.118.663.169a.29.29,0,0,0,.011-.081m3.512-14.541a.344.344,0,1,0,.344-.344h0a.344.344,0,0,0-.344.344m6.985,10.387a.344.344,0,1,0-.344.343h0a.344.344,0,0,0,.343-.343m-2.1,0a.344.344,0,1,0-.344.343h0a.345.345,0,0,0,.344-.343m-.344,3.81a.343.343,0,0,0-.344.342v0a.355.355,0,0,0,.01.082c.224-.051.445-.109.665-.169a.343.343,0,0,0-.331-.256m-4.542.344a.344.344,0,1,0,.344-.344h0a.344.344,0,0,0-.344.344m13.282-27a.344.344,0,1,0-.343.344.344.344,0,0,0,.343-.344h0m-15.381,27a.344.344,0,1,0,.344-.344.344.344,0,0,0-.344.344m4.886,0a.343.343,0,1,0-.343.344.344.344,0,0,0,.343-.344h0m4.2-2.077a.344.344,0,1,0-.344.344h0a.344.344,0,0,0,.343-.344M2.443,9a.343.343,0,0,0,.015-.687H2.443a.335.335,0,0,0-.112.02q-.114.2-.224.394A.343.343,0,0,0,2.443,9M4.2,6.576a.344.344,0,1,0,.344-.344h0a.343.343,0,0,0-.343.343h0M17.481,31.5a.344.344,0,1,0-.344.344h0a.344.344,0,0,0,.344-.344m-6.3,0a.344.344,0,1,0-.344.344h0a.344.344,0,0,0,.344-.343h0m4.2,0a.344.344,0,1,0-.344.344h0a.344.344,0,0,0,.344-.344m6.3,0a.344.344,0,1,0-.344.344.344.344,0,0,0,.344-.344m-8.4,0a.344.344,0,1,0-.344.344.344.344,0,0,0,.344-.344h0m-4.2,0a.344.344,0,1,0-.344.344h0a.344.344,0,0,0,.344-.344m16.793-2.077a.344.344,0,1,0-.344.343h0a.345.345,0,0,0,.344-.343M10.5,21.117a.344.344,0,1,0,.344-.344.344.344,0,0,0-.344.344h0m2.1,0a.344.344,0,1,0,.343-.344.344.344,0,0,0-.343.344h0m-4.2,0a.344.344,0,1,0,.344-.344.344.344,0,0,0-.344.344h0m8.4,0a.344.344,0,1,0,.344-.344.344.344,0,0,0-.344.344h0m2.1,0a.343.343,0,1,0,.343-.344.344.344,0,0,0-.343.344h0m-12.6,0a.344.344,0,1,0,.344-.344.344.344,0,0,0-.344.344h0m8.4,0a.344.344,0,1,0,.344-.344.344.344,0,0,0-.344.344h0m14.694,2.077a.344.344,0,1,0,.344-.344.344.344,0,0,0-.344.344h0M4.2,21.116a.344.344,0,1,0,.343-.344.344.344,0,0,0-.343.344v0M27.29,23.194a.344.344,0,1,0,.343-.344.344.344,0,0,0-.343.344h0m4.2,0a.344.344,0,1,0,.344-.344.344.344,0,0,0-.344.344h0M2.1,21.116a.344.344,0,1,0,.343-.344h0a.344.344,0,0,0-.343.344h0m-1.411,0a.342.342,0,0,0-.259-.332c.044.2.094.392.145.585a.339.339,0,0,0,.114-.254M4.2,19.039a.344.344,0,1,0,.344-.344h0a.344.344,0,0,0-.343.344m6.3,0a.344.344,0,1,0,.344-.344h0a.344.344,0,0,0-.344.344m14.694,4.155a.344.344,0,1,0,.344-.344.344.344,0,0,0-.344.344h0M6.3,19.039a.344.344,0,1,0,.344-.344h0a.344.344,0,0,0-.344.344m14.694,2.077a.344.344,0,1,0,.344-.344.344.344,0,0,0-.344.344h0m-8.4-2.077a.344.344,0,1,0,.344-.344h0a.345.345,0,0,0-.343.344m2.1,0a.344.344,0,1,0,.344-.344h0a.345.345,0,0,0-.344.344m-6.3,0a.344.344,0,1,0,.344-.344h0a.345.345,0,0,0-.344.344M25.19,21.116a.344.344,0,1,0,.344-.344.344.344,0,0,0-.344.344h0m2.1,0a.344.344,0,1,0,.343-.344.344.344,0,0,0-.343.344h0m-4.2,0a.344.344,0,1,0,.344-.344.344.344,0,0,0-.344.344v0M2.1,19.039a.344.344,0,1,0,.344-.344h0a.344.344,0,0,0-.343.344m29.389,2.077a.344.344,0,1,0,.344-.344.344.344,0,0,0-.344.344h0m-2.1,0a.344.344,0,1,0,.344-.344.344.344,0,0,0-.344.344h0m-2.1,4.154a.344.344,0,1,0,.343-.344.344.344,0,0,0-.343.344h0m-8.4,0a.343.343,0,1,0,.343-.344.344.344,0,0,0-.343.344h0m-2.1,0a.344.344,0,1,0,.344-.344h0a.344.344,0,0,0-.344.344h0m4.2,0a.344.344,0,1,0,.344-.344.344.344,0,0,0-.344.344h0m-6.3,0a.344.344,0,1,0,.344-.344.344.344,0,0,0-.344.344m8.4,0a.344.344,0,1,0,.344-.344.344.344,0,0,0-.344.344v0m2.1,0a.344.344,0,1,0,.344-.344.344.344,0,0,0-.344.344h0m-20.991,0a.344.344,0,1,0,.343-.344.344.344,0,0,0-.343.344h0m2.1,0a.344.344,0,1,0,.344-.344.344.344,0,0,0-.344.344h0m6.3,0a.344.344,0,1,0,.343-.344.344.344,0,0,0-.343.344m12.6,2.078A.344.344,0,1,0,25.534,27a.344.344,0,0,0-.344.344m4.2-2.078a.344.344,0,1,0,.344-.344.344.344,0,0,0-.344.344h0m-18.893,0a.344.344,0,1,0,.344-.344.344.344,0,0,0-.344.344h0m-2.1,0a.344.344,0,1,0,.344-.344.344.344,0,0,0-.344.344h0M4.2,23.194a.344.344,0,1,0,.343-.344h0a.343.343,0,0,0-.343.342h0m12.6,0a.344.344,0,1,0,.344-.344h0a.343.343,0,0,0-.344.343h0m-2.1,0a.344.344,0,1,0,.344-.344.344.344,0,0,0-.344.344h0m-2.1,0a.344.344,0,1,0,.343-.344.344.344,0,0,0-.343.344m8.4,0a.344.344,0,1,0,.344-.344h0a.343.343,0,0,0-.344.343h0m-2.1,0a.343.343,0,1,0,.343-.344.344.344,0,0,0-.343.344h0m-8.4,0a.344.344,0,1,0,.344-.344h0a.344.344,0,0,0-.344.343h0M27.29,27.349A.344.344,0,1,0,27.633,27a.344.344,0,0,0-.343.344m-24.5-2.078a.344.344,0,0,0-.68-.071q.109.2.224.395a.328.328,0,0,0,.112.02.344.344,0,0,0,.344-.344M2.1,23.194a.344.344,0,1,0,.344-.344h0a.343.343,0,0,0-.343.344h0m20.992,0a.344.344,0,1,0,.344-.344.344.344,0,0,0-.344.344v0m-16.793,0a.344.344,0,1,0,.344-.344h0a.343.343,0,0,0-.344.343h0m2.1,0a.344.344,0,1,0,.344-.344h0a.344.344,0,0,0-.344.343h0" transform="translate(0 3.046)" fill="#f40000"/>
            <path id="Trazado_42457" data-name="Trazado 42457" d="M1.834,3.669A1.834,1.834,0,1,1,3.669,1.834,1.835,1.835,0,0,1,1.834,3.669m0-2.716a.881.881,0,1,0,.882.881A.881.881,0,0,0,1.834.953" transform="translate(59.936 12.661)" fill="#ffb600"/>
            <path id="Trazado_42461" data-name="Trazado 42461" d="M1.759,3.52A1.76,1.76,0,1,1,3.52,1.759,1.76,1.76,0,0,1,1.759,3.52" transform="translate(41.949 0)" fill="#f40000"/>
            <path id="Trazado_42462" data-name="Trazado 42462" d="M.7,1.4A.7.7,0,1,1,1.4.7a.7.7,0,0,1-.7.7" transform="translate(58.226 5.054)" fill="#ffb600"/>
            <path id="Trazado_42463" data-name="Trazado 42463" d="M.7,1.4A.7.7,0,1,1,1.4.7a.7.7,0,0,1-.7.7" transform="translate(79.692 15.632)" fill="#f40000"/>
          </g>
          <path id="Trazado_42491" data-name="Trazado 42491" d="M.894,1.788a.894.894,0,1,1,.894-.9.894.894,0,0,1-.894.9" transform="translate(100.711 12.701)" fill="#f40000"/>
          <g id="Grupo_19550" data-name="Grupo 19550" transform="translate(5.342 0)">
            <path id="Trazado_42450" data-name="Trazado 42450" d="M35.378,6.737c-2.089,0-3.108-1.6-4.005-3.006-.816-1.279-1.52-2.384-2.869-2.384s-2.053,1.1-2.868,2.384c-.9,1.408-1.917,3.006-4.005,3.006s-3.105-1.6-4-3.006c-.815-1.279-1.52-2.384-2.868-2.384s-2.053,1.1-2.869,2.384c-.9,1.408-1.916,3.006-4,3.006s-3.106-1.6-4-3.006C3.065,2.452,2.361,1.347,1.011,1.347A.674.674,0,0,1,1.011,0C3.1,0,4.119,1.6,5.017,3.007,5.832,4.286,6.536,5.39,7.885,5.39s2.053-1.1,2.869-2.383C11.652,1.6,12.67,0,14.759,0s3.106,1.6,4,3.007c.815,1.279,1.52,2.383,2.868,2.383s2.053-1.1,2.869-2.383C25.4,1.6,26.417,0,28.5,0s3.106,1.6,4.005,3.007c.815,1.279,1.52,2.383,2.869,2.383a.674.674,0,1,1,0,1.347M21.968,17.293a.674.674,0,0,0-.674-.674c-1.349,0-2.053-1.1-2.869-2.383-.9-1.409-1.917-3.007-4-3.007s-3.106,1.6-4,3.007C9.6,15.515,8.9,16.619,7.548,16.619s-2.052-1.1-2.868-2.383c-.9-1.409-1.917-3.007-4.005-3.007a.674.674,0,0,0,0,1.348c1.35,0,2.053,1.1,2.869,2.384.9,1.408,1.916,3.006,4,3.006s3.108-1.6,4.005-3.006c.815-1.279,1.519-2.384,2.867-2.384s2.054,1.1,2.869,2.384c.9,1.408,1.917,3.006,4,3.006a.674.674,0,0,0,.674-.674" transform="translate(26.593 16.458)" fill="#ffb600"/>
            <path id="Trazado_42459" data-name="Trazado 42459" d="M2.349,4.7A2.351,2.351,0,1,1,4.7,2.35,2.351,2.351,0,0,1,2.349,4.7m0-3.48A1.129,1.129,0,1,0,3.48,2.35a1.129,1.129,0,0,0-1.13-1.128" transform="translate(67.058 0)" fill="#f40000"/>
            <path id="Trazado_42469" data-name="Trazado 42469" d="M.894,1.788a.894.894,0,1,1,.894-.9.894.894,0,0,1-.894.9" transform="translate(60.732 41.823)" fill="#f40000"/>
            <path id="Trazado_42470" data-name="Trazado 42470" d="M.894,1.788a.894.894,0,1,1,.894-.9.894.894,0,0,1-.894.9" transform="translate(0 28.251)" fill="#f40000"/>
            <path id="Trazado_42471" data-name="Trazado 42471" d="M.894,1.788a.894.894,0,1,1,.894-.9.894.894,0,0,1-.894.9" transform="translate(7.147 6.1)" fill="#ffb600"/>
          </g>
          <path id="Trazado_42494" data-name="Trazado 42494" d="M2.2,4.4A2.2,2.2,0,1,1,4.4,2.2,2.2,2.2,0,0,1,2.2,4.4m0-3.255A1.056,1.056,0,1,0,3.255,2.2,1.057,1.057,0,0,0,2.2,1.142" transform="translate(25.252 96.714)" fill="#ffb600"/>
          <path id="Trazado_42492" data-name="Trazado 42492" d="M.836,1.673A.836.836,0,1,1,1.673.836a.836.836,0,0,1-.837.837" transform="translate(41.222 70.747)" fill="#fff"/>
          <path id="Trazado_42493" data-name="Trazado 42493" d="M0,5.714v5.105L2.9,8.409,2.7,0Z" transform="translate(55.216 14.812)" fill="#dd0606"/>
        </g>
        <path id="Trazado_42499" data-name="Trazado 42499" d="M1918.718,103.79a2.454,2.454,0,1,1-.005,0h.005m-17.443,2.452a2.453,2.453,0,1,0,2.455-2.452,2.453,2.453,0,0,0-2.455,2.452v0m-14.979,0a2.452,2.452,0,1,0,2.453-2.452h0a2.449,2.449,0,0,0-2.452,2.447v0M1696.414,91.417a2.431,2.431,0,0,0-.817-1.815c-.362,1.386-.718,2.778-1.033,4.183a2.451,2.451,0,0,0,1.851-2.368m174.9,14.825a2.454,2.454,0,1,0,2.457-2.452h0a2.45,2.45,0,0,0-2.455,2.444v.008m-177.352,2.45a2.451,2.451,0,1,0-1.283-4.536c-.175,1.262-.335,2.529-.471,3.8a2.436,2.436,0,0,0,1.755.735m72.468-2.45a2.454,2.454,0,1,0,2.455-2.452h0a2.449,2.449,0,0,0-2.453,2.446v.006m44.952,0a2.455,2.455,0,1,0,2.458-2.452h0a2.448,2.448,0,0,0-2.453,2.443v.009m-14.986,0a2.455,2.455,0,1,0,2.458-2.452h0a2.452,2.452,0,0,0-2.457,2.448v0m-14.982,0a2.452,2.452,0,1,0,2.453-2.452h0a2.451,2.451,0,0,0-2.452,2.45v0m44.956,0a2.447,2.447,0,1,0,0-.01v.01m74.912-14.825a2.453,2.453,0,1,0,2.456-2.459,2.453,2.453,0,0,0-2.456,2.459m-59.931,14.825a2.454,2.454,0,1,0,2.456-2.452h0a2.447,2.447,0,0,0-2.453,2.443v.009m14.983,0a2.444,2.444,0,1,0,0-.017v.017m14.983-14.825a2.454,2.454,0,1,0,2.455-2.459,2.454,2.454,0,0,0-2.455,2.459m-44.947,0a2.451,2.451,0,1,0,2.451-2.459,2.451,2.451,0,0,0-2.451,2.459m14.981,0a2.454,2.454,0,1,0,2.453-2.459,2.454,2.454,0,0,0-2.453,2.459m-119.869,0a2.452,2.452,0,1,0,2.448-2.459,2.452,2.452,0,0,0-2.448,2.459h0m164.821,0a2.452,2.452,0,1,0,2.452-2.459,2.453,2.453,0,0,0-2.452,2.459m29.966,0a2.453,2.453,0,1,0,2.457-2.459,2.453,2.453,0,0,0-2.457,2.459m-59.934,0a2.456,2.456,0,1,0,0-.005v.005m-104.889,0a2.455,2.455,0,1,0,2.455-2.459,2.455,2.455,0,0,0-2.455,2.459m-14.98,0a2.454,2.454,0,1,0,2.453-2.459,2.455,2.455,0,0,0-2.453,2.459m29.967,0a2.454,2.454,0,1,0,2.453-2.459,2.454,2.454,0,0,0-2.453,2.459m44.953,0a2.455,2.455,0,1,0,2.453-2.459,2.455,2.455,0,0,0-2.453,2.459m-29.97,0a2.452,2.452,0,1,0,2.452-2.459,2.453,2.453,0,0,0-2.452,2.459m14.982,0a2.455,2.455,0,1,0,2.457-2.459,2.455,2.455,0,0,0-2.457,2.459m-89.9,0a2.455,2.455,0,1,0,2.451-2.459h0a2.459,2.459,0,0,0-2.451,2.459m44.95,14.825a2.455,2.455,0,1,0,2.458-2.452h0a2.451,2.451,0,0,0-2.455,2.446v.006m-14.98,14.828a2.454,2.454,0,1,0,2.454-2.455h0a2.454,2.454,0,0,0-2.453,2.455h0m-29.969,0a2.455,2.455,0,1,0,2.454-2.455h0a2.454,2.454,0,0,0-2.451,2.455m44.95,0a2.455,2.455,0,1,0,2.455-2.455,2.455,2.455,0,0,0-2.455,2.455h0m-57.481,17.285a2.456,2.456,0,1,0-1.755-4.17c.137,1.275.3,2.537.472,3.8a2.463,2.463,0,0,0,1.283.373m72.468-17.285a2.454,2.454,0,1,0,2.453-2.455,2.454,2.454,0,0,0-2.453,2.455h0m89.9,14.825a2.453,2.453,0,1,0,2.459-2.453,2.453,2.453,0,0,0-2.459,2.453h0m-74.921-14.825a2.452,2.452,0,1,0,2.452-2.455,2.452,2.452,0,0,0-2.452,2.455m59.938,14.825a2.454,2.454,0,1,0,2.455-2.453h0a2.456,2.456,0,0,0-2.453,2.453m59.931,0a2.453,2.453,0,1,0,2.455-2.453,2.453,2.453,0,0,0-2.455,2.453m-29.966,0a2.454,2.454,0,1,0,2.456-2.453h0a2.458,2.458,0,0,0-2.455,2.453m44.952,0a2.453,2.453,0,1,0,2.457-2.453,2.453,2.453,0,0,0-2.457,2.453m-29.965,0a2.452,2.452,0,1,0,2.452-2.453,2.452,2.452,0,0,0-2.452,2.453M1721.474,121.07a2.452,2.452,0,1,0,2.449-2.455h0a2.448,2.448,0,0,0-2.448,2.448v.007m-29.97,0a2.455,2.455,0,1,0,2.454-2.455h0a2.453,2.453,0,0,0-2.453,2.453v0m14.984-14.828a2.455,2.455,0,1,0,2.458-2.452h-.007a2.45,2.45,0,0,0-2.451,2.449v0m209.773,14.828a2.453,2.453,0,1,0,2.457-2.455,2.453,2.453,0,0,0-2.457,2.455m-14.986,0a2.453,2.453,0,1,0,2.456-2.455,2.453,2.453,0,0,0-2.456,2.455m-179.8-14.828a2.452,2.452,0,1,0,2.453-2.452h0a2.444,2.444,0,0,0-2.448,2.44v.012m14.982,0a2.454,2.454,0,1,0,2.457-2.452h0a2.45,2.45,0,0,0-2.453,2.447v.005m89.906,14.828a2.453,2.453,0,1,0,0-.005v.005m14.981,0a2.454,2.454,0,1,0,2.453-2.455,2.454,2.454,0,0,0-2.453,2.455v0m-44.955,0a2.455,2.455,0,1,0,2.457-2.455,2.455,2.455,0,0,0-2.457,2.455m89.906,0a2.453,2.453,0,1,0,2.452-2.455,2.453,2.453,0,0,0-2.452,2.455m-74.919,0a2.455,2.455,0,1,0,2.454-2.455h0a2.452,2.452,0,0,0-2.453,2.452v0m59.933,0a2.455,2.455,0,1,0,2.455-2.455,2.455,2.455,0,0,0-2.455,2.455v0m-14.982,0a2.449,2.449,0,1,0,0-.012v.012m-89.9-103.791a2.451,2.451,0,1,0,0-.007v.007M1886.3,61.759a2.446,2.446,0,1,0,0-.013v.013m-74.919-29.651a2.455,2.455,0,1,0,2.453-2.458,2.455,2.455,0,0,0-2.453,2.458m-29.97,0a2.452,2.452,0,1,0,2.452-2.458,2.453,2.453,0,0,0-2.452,2.458m14.983,0a2.455,2.455,0,1,0,2.457-2.458,2.455,2.455,0,0,0-2.457,2.458m44.955,0a2.454,2.454,0,1,0,2.453-2.458,2.454,2.454,0,0,0-2.453,2.458m29.966,0a2.455,2.455,0,1,0,2.455-2.458,2.455,2.455,0,0,0-2.455,2.458m19.891,0a2.455,2.455,0,1,0,0,.009v-.009m-47.4-27.2a2.45,2.45,0,0,0,2.365-1.839c-1.568-.426-3.144-.832-4.745-1.2a2.574,2.574,0,0,0-.074.584A2.455,2.455,0,0,0,1843.8,4.91m74.919,173.01a2.455,2.455,0,0,0,0,4.911,2.317,2.317,0,0,0,.793-.145c.549-.928,1.089-1.868,1.6-2.818a2.451,2.451,0,0,0-2.394-1.947M1766.425,32.108a2.454,2.454,0,1,0,2.453-2.458,2.453,2.453,0,0,0-2.453,2.458m89.9,0a2.454,2.454,0,1,0,2.459-2.458,2.454,2.454,0,0,0-2.459,2.458v0m-119.87,0a2.454,2.454,0,1,0,2.453-2.458,2.454,2.454,0,0,0-2.453,2.458m14.98,0a2.455,2.455,0,1,0,2.456-2.458,2.456,2.456,0,0,0-2.456,2.458m74.925,0a2.451,2.451,0,1,0,2.451-2.458,2.451,2.451,0,0,0-2.451,2.458m44.947-14.829a2.45,2.45,0,1,0,0-.009v.009M1796.39,2.456A2.455,2.455,0,1,0,1798.847,0a2.455,2.455,0,0,0-2.457,2.459m59.938,14.822a2.445,2.445,0,1,0,0-.017v.017m-104.89,0a2.455,2.455,0,1,0,2.457-2.454h0a2.452,2.452,0,0,0-2.456,2.448v.006m59.939-14.822A2.455,2.455,0,1,0,1813.831,0a2.455,2.455,0,0,0-2.453,2.459h0m14.986,0A2.451,2.451,0,1,0,1828.815,0a2.451,2.451,0,0,0-2.451,2.459v0m-42.5,2.455a2.455,2.455,0,0,0,2.453-2.455,2.1,2.1,0,0,0-.079-.584c-1.6.367-3.167.774-4.734,1.2a2.446,2.446,0,0,0,2.36,1.839M1796.39,17.28a2.455,2.455,0,1,0,2.457-2.454,2.455,2.455,0,0,0-2.457,2.454v0m-14.983,0a2.452,2.452,0,1,0,2.452-2.454,2.453,2.453,0,0,0-2.452,2.454v0M1826.364,135.9a2.451,2.451,0,1,0,2.451-2.453,2.451,2.451,0,0,0-2.451,2.453m0-118.617a2.449,2.449,0,1,0,0-.011v.011m14.981,0a2.454,2.454,0,1,0,2.454-2.454h0a2.449,2.449,0,0,0-2.453,2.444v.01m-29.968,0a2.455,2.455,0,1,0,2.456-2.454h0a2.449,2.449,0,0,0-2.453,2.445v.009m104.885,59.313a2.453,2.453,0,1,0,2.456-2.457,2.453,2.453,0,0,0-2.456,2.457v0m-74.917,0a2.452,2.452,0,1,0,0-.008v.008m-14.981,0a2.452,2.452,0,1,0,0-.01v.01m29.964,0a2.449,2.449,0,1,0,0-.016v.016m14.982,0a2.453,2.453,0,1,0,0-.007v.007m14.986,0a2.453,2.453,0,1,0,2.452-2.457,2.452,2.452,0,0,0-2.452,2.457v0m-74.919,0a2.452,2.452,0,1,0,0-.008v.008m-89.9,0a2.451,2.451,0,1,0,0-.011v.011m14.982,0a2.454,2.454,0,1,0,2.453-2.457,2.454,2.454,0,0,0-2.453,2.457v0m14.98,0a2.455,2.455,0,1,0,2.456-2.457,2.455,2.455,0,0,0-2.456,2.457v0m-44.949,0a2.455,2.455,0,1,0,2.453-2.457h0a2.453,2.453,0,0,0-2.451,2.455v0m89.9,0a2.455,2.455,0,1,0,2.457-2.457,2.455,2.455,0,0,0-2.457,2.457v0m-29.965,0a2.454,2.454,0,1,0,2.453-2.457,2.454,2.454,0,0,0-2.453,2.457v0m14.982,0a2.452,2.452,0,1,0,2.452-2.457,2.452,2.452,0,0,0-2.452,2.457h0m119.869-14.834a2.446,2.446,0,1,0,0-.013v.013m-59.931,0a2.454,2.454,0,1,0,2.456-2.453h0a2.444,2.444,0,0,0-2.453,2.435v.018m-14.981,0a2.443,2.443,0,1,0,0-.019v.019m74.912,14.834a2.453,2.453,0,1,0,2.455-2.457,2.453,2.453,0,0,0-2.455,2.457v0M1796.39,61.759a2.455,2.455,0,1,0,2.457-2.453h0a2.449,2.449,0,0,0-2.457,2.441v.012m74.92,0a2.455,2.455,0,1,0,2.456-2.453h0a2.445,2.445,0,0,0-2.455,2.436v.017m-14.982,0a2.44,2.44,0,1,0,0-.025v.025m-44.951,0a2.455,2.455,0,1,0,2.457-2.453h0a2.444,2.444,0,0,0-2.453,2.435v.018m-74.919,0a2.454,2.454,0,1,0,2.456-2.453h0a2.445,2.445,0,0,0-2.453,2.438v.014m-14.982,0a2.452,2.452,0,1,0,2.452-2.453h0a2.44,2.44,0,0,0-2.448,2.433v.02m44.949,0a2.454,2.454,0,1,0,2.454-2.453h0a2.446,2.446,0,0,0-2.453,2.438v.014m-14.987,0a2.455,2.455,0,1,0,2.458-2.453h0a2.447,2.447,0,0,0-2.456,2.439v.014m29.969,0a2.447,2.447,0,1,0,0-.011v.011m49.859,163.1a2.451,2.451,0,1,0-2.452,2.452,2.451,2.451,0,0,0,2.452-2.452M1756.349,46.932a2.455,2.455,0,1,0-2.455,2.456,2.455,2.455,0,0,0,2.455-2.456h0M1933.7,103.79a2.451,2.451,0,1,0,1.752,4.167c-.134-1.279-.3-2.539-.469-3.8a2.434,2.434,0,0,0-1.283-.366M1771.333,46.932a2.454,2.454,0,1,0-2.454,2.456,2.454,2.454,0,0,0,2.454-2.456v0m14.98,0a2.453,2.453,0,1,0,0,.006v-.006m129.949,14.827a2.452,2.452,0,0,0,4.85.506c-.511-.944-1.051-1.883-1.6-2.814a2.367,2.367,0,0,0-.793-.145,2.456,2.456,0,0,0-2.457,2.453m14.983,29.658a2.457,2.457,0,0,0,1.847,2.368c-.317-1.405-.668-2.8-1.035-4.183a2.438,2.438,0,0,0-.814,1.815M1741.367,46.932a2.454,2.454,0,1,0-2.455,2.456,2.454,2.454,0,0,0,2.455-2.456h0m119.869,0a2.454,2.454,0,1,0-2.451,2.456h0a2.453,2.453,0,0,0,2.448-2.456m14.984,0a2.454,2.454,0,1,0-2.454,2.456,2.454,2.454,0,0,0,2.454-2.456m14.983,0a2.453,2.453,0,1,0,0,.005v-.005m-44.948,0a2.454,2.454,0,1,0-2.455,2.456,2.454,2.454,0,0,0,2.455-2.456m-29.966,0a2.455,2.455,0,1,0-2.457,2.456,2.455,2.455,0,0,0,2.457-2.456m14.979,0a2.451,2.451,0,1,0-2.452,2.456,2.451,2.451,0,0,0,2.452-2.456v0m-29.967,0a2.455,2.455,0,1,0-2.454,2.456h0a2.454,2.454,0,0,0,2.453-2.456m-4.91,148.276a2.455,2.455,0,1,0,2.457-2.458,2.455,2.455,0,0,0-2.457,2.458m14.986,0a2.455,2.455,0,1,0,2.453-2.458,2.455,2.455,0,0,0-2.453,2.458h0m-29.97,0a2.453,2.453,0,1,0,2.452-2.458,2.453,2.453,0,0,0-2.452,2.458m59.938,0a2.454,2.454,0,1,0,2.453-2.458,2.454,2.454,0,0,0-2.453,2.458h0m-74.92,0a2.453,2.453,0,1,0,2.453-2.458,2.453,2.453,0,0,0-2.453,2.458m59.939,0a2.451,2.451,0,1,0,2.451-2.458,2.451,2.451,0,0,0-2.451,2.458v0M1933.7,118.614a2.455,2.455,0,1,0,2.455,2.456h0a2.454,2.454,0,0,0-2.454-2.455h0m-182.261,76.594a2.455,2.455,0,1,0,2.456-2.458,2.456,2.456,0,0,0-2.456,2.458m179.807-44.485a2.42,2.42,0,0,0,.814,1.809c.366-1.383.718-2.776,1.035-4.176a2.444,2.444,0,0,0-1.848,2.367m2.455-17.283a2.456,2.456,0,1,0,1.283,4.539c.173-1.261.335-2.522.469-3.8a2.447,2.447,0,0,0-1.752-.742m-27.519,61.768a2.453,2.453,0,1,0,0,.006v-.006m-184.707,0a2.452,2.452,0,1,0,2.448-2.458,2.452,2.452,0,0,0-2.448,2.458v0m14.982,0a2.454,2.454,0,1,0,2.453-2.458,2.454,2.454,0,0,0-2.453,2.458m139.762,29.652a2.454,2.454,0,1,0-2.457,2.452h0a2.457,2.457,0,0,0,2.454-2.452m-89.906-14.826a2.452,2.452,0,1,0-2.453,2.452,2.453,2.453,0,0,0,2.453-2.452m14.986,0a2.455,2.455,0,1,0-2.458,2.452h0a2.461,2.461,0,0,0,2.453-2.452m29.967,0a2.451,2.451,0,1,0-2.452,2.452,2.451,2.451,0,0,0,2.452-2.452m-14.979,0a2.455,2.455,0,1,0-2.458,2.452h0a2.463,2.463,0,0,0,2.456-2.452m-59.938,0a2.455,2.455,0,1,0-2.459,2.452h0a2.463,2.463,0,0,0,2.456-2.452m99.977-14.826a2.454,2.454,0,1,0,0-.008v.008m-84.994,14.826a2.454,2.454,0,1,0-2.455,2.452h0a2.459,2.459,0,0,0,2.454-2.452m-34.874,0a2.458,2.458,0,1,0,0-.005v.005m154.744,0a2.453,2.453,0,1,0-2.453,2.452,2.453,2.453,0,0,0,2.453-2.452m-104.889,29.654a2.446,2.446,0,0,0-4.813-.625c1.567.429,3.146.84,4.734,1.206a2.1,2.1,0,0,0,.079-.581m25.065-103.8a2.455,2.455,0,1,0,2.457-2.453h0a2.457,2.457,0,0,0-2.453,2.453m49.859,74.141a2.453,2.453,0,1,0-2.455,2.452h.007a2.46,2.46,0,0,0,2.448-2.452m-14.981,0a2.454,2.454,0,1,0-2.456,2.452h0a2.464,2.464,0,0,0,2.455-2.452m-2.455,27.2a2.448,2.448,0,0,0-2.453,2.443v.011a2.525,2.525,0,0,0,.073.581c1.6-.366,3.177-.777,4.745-1.206a2.449,2.449,0,0,0-2.365-1.83m-32.421,2.454a2.455,2.455,0,1,0,2.455-2.454h0a2.455,2.455,0,0,0-2.453,2.454m94.8-192.756a2.453,2.453,0,1,0,0,.006v-.006M1796.39,239.689a2.455,2.455,0,1,0,2.457-2.454,2.455,2.455,0,0,0-2.457,2.454m34.876,0a2.449,2.449,0,1,0,0,.009v-.009m29.969-14.828a2.453,2.453,0,1,0-2.455,2.452h.007a2.454,2.454,0,0,0,2.448-2.452M1708.94,64.208a2.451,2.451,0,1,0,0-4.9,2.41,2.41,0,0,0-.8.145q-.814,1.4-1.6,2.814a2.446,2.446,0,0,0,2.394,1.942m12.536-17.276a2.452,2.452,0,1,0,2.452-2.453h0a2.449,2.449,0,0,0-2.448,2.45v0m94.812,177.928a2.455,2.455,0,1,0-2.458,2.452h0a2.457,2.457,0,0,0,2.457-2.452m-44.955,0a2.454,2.454,0,1,0-2.455,2.452h0a2.454,2.454,0,0,0,2.454-2.452m29.968,0a2.455,2.455,0,1,0-2.458,2.452h0a2.456,2.456,0,0,0,2.453-2.452m44.954,0a2.454,2.454,0,1,0-2.456,2.452h0a2.457,2.457,0,0,0,2.455-2.452m-59.941,0a2.452,2.452,0,1,0-2.453,2.452,2.453,2.453,0,0,0,2.453-2.452h0m-29.964,0a2.455,2.455,0,1,0-2.458,2.452h0a2.456,2.456,0,0,0,2.455-2.452m119.87-14.826a2.454,2.454,0,1,0-2.457,2.452h0a2.464,2.464,0,0,0,2.454-2.452m-109.794-59.31a2.456,2.456,0,1,0,0-.006v.006m14.982,0a2.452,2.452,0,1,0,2.452-2.459,2.452,2.452,0,0,0-2.452,2.459v0m-29.969,0a2.456,2.456,0,1,0,0-.005v.005m59.939,0a2.454,2.454,0,1,0,0-.009v.009m14.986,0a2.454,2.454,0,1,0,0-.011v.011m-89.906,0a2.456,2.456,0,1,0,0-.006v.006m59.932,0a2.455,2.455,0,1,0,2.457-2.459,2.455,2.455,0,0,0-2.457,2.459v0m104.886,14.827a2.453,2.453,0,1,0,2.455-2.454,2.453,2.453,0,0,0-2.455,2.454v0m-179.8-14.827a2.453,2.453,0,1,0,0-.011v.011M1886.3,165.551a2.453,2.453,0,1,0,2.452-2.454,2.453,2.453,0,0,0-2.452,2.454v0m29.966,0a2.453,2.453,0,1,0,2.457-2.454,2.453,2.453,0,0,0-2.457,2.454v0m-209.773-14.827a2.455,2.455,0,1,0,2.45-2.459,2.454,2.454,0,0,0-2.45,2.459v0m-10.074,0a2.438,2.438,0,0,0-1.851-2.367c.316,1.4.671,2.792,1.033,4.176a2.418,2.418,0,0,0,.817-1.809m25.061-14.829a2.453,2.453,0,1,0,2.452-2.453h0a2.452,2.452,0,0,0-2.448,2.453m44.949,0a2.454,2.454,0,1,0,2.454-2.453h0a2.458,2.458,0,0,0-2.453,2.453m104.885,29.656a2.451,2.451,0,1,0,0-.007v.007m-134.852-29.656a2.454,2.454,0,1,0,2.456-2.453h0a2.458,2.458,0,0,0-2.453,2.453m104.887,14.829a2.454,2.454,0,1,0,0-.009v.009m-59.938-14.829a2.452,2.452,0,1,0,2.452-2.453,2.452,2.452,0,0,0-2.452,2.453m14.983,0a2.455,2.455,0,1,0,2.456-2.453,2.455,2.455,0,0,0-2.456,2.453m-44.951,0a2.455,2.455,0,1,0,2.457-2.453h0a2.459,2.459,0,0,0-2.455,2.453m119.872,14.829a2.455,2.455,0,1,0,0-.008v.008m14.987,0a2.452,2.452,0,1,0,2.452-2.459,2.452,2.452,0,0,0-2.452,2.459v0m-29.969,0a2.451,2.451,0,1,0,0-.016v.016m-149.839-14.829a2.455,2.455,0,1,0,2.456-2.453h-.006a2.458,2.458,0,0,0-2.45,2.453m209.773,14.829a2.453,2.453,0,1,0,2.457-2.459,2.454,2.454,0,0,0-2.457,2.459v0m-14.986,0a2.453,2.453,0,1,0,2.455-2.459,2.453,2.453,0,0,0-2.455,2.459v0M1886.3,180.377a2.452,2.452,0,1,0,2.452-2.457,2.452,2.452,0,0,0-2.452,2.457v0m-59.933,0a2.453,2.453,0,1,0,0-.007v.007m-14.986,0a2.454,2.454,0,1,0,0-.006v.006m29.968,0a2.454,2.454,0,1,0,0-.006v.006m-44.955,0a2.455,2.455,0,1,0,2.456-2.457,2.455,2.455,0,0,0-2.456,2.457m59.938,0a2.45,2.45,0,1,0,0-.013v.013m14.983,0a2.454,2.454,0,1,0,2.455-2.457,2.454,2.454,0,0,0-2.455,2.457v0m-149.835,0a2.452,2.452,0,1,0,0-.008v.008m14.983,0a2.454,2.454,0,1,0,2.453-2.457,2.454,2.454,0,0,0-2.453,2.457v0m44.949,0a2.452,2.452,0,1,0,2.452-2.457,2.452,2.452,0,0,0-2.452,2.457m89.9,14.832a2.454,2.454,0,1,0,2.455-2.458,2.454,2.454,0,0,0-2.455,2.458m29.966-14.832a2.453,2.453,0,1,0,2.455-2.457,2.453,2.453,0,0,0-2.455,2.457h0m-134.851,0a2.454,2.454,0,1,0,2.453-2.457,2.454,2.454,0,0,0-2.453,2.457v0m-14.986,0a2.455,2.455,0,1,0,2.455-2.457,2.454,2.454,0,0,0-2.455,2.457v0m-29.964-14.826a2.452,2.452,0,1,0,2.45-2.454h0a2.446,2.446,0,0,0-2.448,2.444v.01m89.9,0a2.455,2.455,0,1,0,2.455-2.454h0a2.45,2.45,0,0,0-2.453,2.447v.008m-14.986,0a2.455,2.455,0,1,0,2.457-2.454,2.455,2.455,0,0,0-2.457,2.454v0m-14.982,0a2.452,2.452,0,1,0,2.452-2.454,2.452,2.452,0,0,0-2.452,2.454h0m59.938,0a2.454,2.454,0,1,0,2.454-2.454h0a2.45,2.45,0,0,0-2.453,2.446v.009m-14.981,0a2.45,2.45,0,1,0,0-.009v.009m-59.939,0a2.452,2.452,0,1,0,0-.005v.005M1886.3,195.209a2.452,2.452,0,1,0,2.452-2.458,2.452,2.452,0,0,0-2.452,2.458m-174.9-14.832a2.453,2.453,0,0,0-4.854-.509q.78,1.425,1.6,2.818a2.347,2.347,0,0,0,.8.145,2.456,2.456,0,0,0,2.459-2.454h0m-4.91-14.826a2.455,2.455,0,1,0,2.455-2.454h0a2.452,2.452,0,0,0-2.45,2.453h0m149.839,0a2.447,2.447,0,1,0,0-.015v.015m-119.87,0a2.454,2.454,0,1,0,2.454-2.454h0a2.451,2.451,0,0,0-2.453,2.45v0m14.981,0a2.455,2.455,0,1,0,2.456-2.454h0a2.453,2.453,0,0,0-2.455,2.45v0" transform="translate(-447.83 -70.145)" fill="#dd0606"/>
        <g id="Grupo_19612" data-name="Grupo 19612" transform="translate(-353.868 -620.826)">
          <path id="Trazado_42455-2" data-name="Trazado 42455" d="M1729.809,1238.618a5.405,5.405,0,1,1,5.408-5.408,5.4,5.4,0,0,1-5.408,5.408" transform="translate(-594.69 -507.229)" fill="#ffb600"/>
          <path id="Trazado_42456-2" data-name="Trazado 42456" d="M1831.98,1206.915a5.634,5.634,0,1,1,5.636-5.636,5.634,5.634,0,0,1-5.636,5.636m0-8.34a2.707,2.707,0,1,0,2.708,2.7h0a2.709,2.709,0,0,0-2.708-2.7" transform="translate(-650.773 -489.536)" fill="#ffb600"/>
          <path id="Trazado_42464-2" data-name="Trazado 42464" d="M1697.423,1190.406a2.143,2.143,0,1,1,2.144-2.145,2.143,2.143,0,0,1-2.144,2.145" transform="translate(-578.667 -484.295)" fill="#f40000"/>
          <path id="Trazado_42465-2" data-name="Trazado 42465" d="M1898.775,1254.237a2.143,2.143,0,1,1,2.144-2.145,2.143,2.143,0,0,1-2.144,2.145" transform="translate(-689.439 -519.411)" fill="#f40000"/>
        </g>
        <path id="Trazado_42500" data-name="Trazado 42500" d="M206.548,823.152a2.583,2.583,0,1,0,2.583-2.584,2.583,2.583,0,0,0-2.583,2.584Zm0-10.171a2.583,2.583,0,1,0,2.584-2.581h0a2.582,2.582,0,0,0-2.583,2.581h0m10.9,10.171a2.583,2.583,0,1,0,2.585-2.584,2.584,2.584,0,0,0-2.585,2.584v0m0-10.171a2.583,2.583,0,1,0,2.585-2.582,2.583,2.583,0,0,0-2.585,2.582h0m10.9,10.171a2.583,2.583,0,1,0,2.584-2.584,2.583,2.583,0,0,0-2.584,2.584v0m0-10.171a2.583,2.583,0,1,0,2.585-2.582,2.583,2.583,0,0,0-2.585,2.582" transform="translate(-159.548 -718.268)" fill="#ffb600"/>
        <path id="Trazado_42450-2" data-name="Trazado 42450" d="M350.011,435.4c-3.044,0-4.53-2.329-5.838-4.381-1.189-1.865-2.215-3.475-4.182-3.475s-2.992,1.61-4.18,3.475c-1.311,2.053-2.794,4.381-5.838,4.381s-4.526-2.329-5.836-4.381c-1.188-1.865-2.215-3.475-4.181-3.475s-2.993,1.61-4.182,3.475c-1.309,2.053-2.793,4.381-5.837,4.381s-4.527-2.329-5.837-4.381c-1.188-1.865-2.214-3.475-4.181-3.475a.982.982,0,0,1,0-1.964c3.043,0,4.53,2.329,5.838,4.383,1.189,1.864,2.214,3.473,4.181,3.473s2.993-1.609,4.181-3.473c1.31-2.053,2.793-4.383,5.837-4.383s4.527,2.329,5.836,4.383c1.188,1.864,2.216,3.473,4.181,3.473s2.992-1.609,4.181-3.473c1.309-2.053,2.794-4.383,5.837-4.383s4.527,2.329,5.838,4.383c1.187,1.864,2.215,3.473,4.182,3.473a.982.982,0,0,1,0,1.964M330.464,450.79a.983.983,0,0,0-.982-.982c-1.966,0-2.992-1.61-4.181-3.474-1.309-2.054-2.794-4.383-5.837-4.383s-4.527,2.329-5.836,4.383c-1.189,1.864-2.215,3.474-4.181,3.474s-2.991-1.61-4.181-3.474c-1.31-2.054-2.795-4.383-5.838-4.383a.983.983,0,0,0,0,1.965c1.967,0,2.993,1.61,4.182,3.474,1.309,2.053,2.792,4.382,5.837,4.382s4.53-2.329,5.838-4.382c1.187-1.864,2.214-3.474,4.179-3.474s2.994,1.61,4.182,3.474c1.309,2.053,2.794,4.382,5.836,4.382a.983.983,0,0,0,.982-.982" transform="translate(751.562 -338.584)" fill="#ffb600"/>
        <path id="Trazado_42501" data-name="Trazado 42501" d="M358.689,952.811a8.323,8.323,0,1,1,8.327-8.327,8.324,8.324,0,0,1-8.327,8.327m0-12.323a4,4,0,1,0,4,4,4,4,0,0,0-4-4" transform="translate(134.356 -844.123)" fill="#ffb600"/>
      </g>
    </g>
  </g>
</svg>
