<svg id="header-768x60px" xmlns="http://www.w3.org/2000/svg" xmlns:xlink="http://www.w3.org/1999/xlink" width="768" height="60" viewBox="0 0 768 60">
  <defs>
    <clipPath id="clip-path">
      <rect id="Rect치ngulo_23319" data-name="Rect치ngulo 23319" width="768" height="60" fill="#f40000"/>
    </clipPath>
  </defs>
  <g id="Enmascarar_grupo_14" data-name="Enmascarar grupo 14" clip-path="url(#clip-path)">
    <g id="Grupo_19792" data-name="Grupo 19792" transform="translate(0 -80.243)">
      <rect id="Rect치ngulo_23318" data-name="Rect치ngulo 23318" width="768" height="60" transform="translate(0 80.242)" fill="#f40000"/>
      <g id="Grupo_19791" data-name="Grupo 19791" transform="translate(26.425 0)">
        <g id="Grupo_19607" data-name="Grupo 19607" transform="translate(468.41 94.26) rotate(90)">
          <path id="Trazado_42446" data-name="Trazado 42446" d="M10.667,29.225q0,13.378,0,26.755c0,.259,0,.519.015.777a2.26,2.26,0,0,1-1.055,2.11A1.329,1.329,0,0,0,9,60.162c.111,2.878.2,5.758.287,8.637q.2,6.285.393,12.571.179,5.658.363,11.315c.1,3.067.207,6.134.278,9.2a4.168,4.168,0,0,1-2.871,4.254A3.94,3.94,0,0,1,2.6,102.027c.025-2.276.125-4.551.2-6.826q.163-5.183.332-10.366.2-6.48.4-12.959.181-5.658.377-11.316c.023-.683-.127-.975-.687-1.229A5.014,5.014,0,0,1,.281,54.926a82.477,82.477,0,0,1-.23-10.188c.117-5.126.278-10.252.532-15.372.152-3.074.461-6.143.8-9.2A75.227,75.227,0,0,1,3.848,6.753,16.71,16.71,0,0,1,6.088,1.73,3.585,3.585,0,0,1,8.52.015a2.323,2.323,0,0,1,.817.053,1.18,1.18,0,0,1,1,1.282q.058,3.413.087,6.827.06,8.342.1,16.684c.008,1.455,0,2.909,0,4.364h.137" transform="translate(0 22.472)" fill="#dd0606"/>
          <path id="Trazado_42495" data-name="Trazado 42495" d="M34.865,15.416a.364.364,0,1,1-.377.364.37.37,0,0,1,.377-.364h0m-2.676.364a.377.377,0,1,0,.377-.364.371.371,0,0,0-.377.364h0m-2.3,0a.376.376,0,1,0,.376-.364h0a.37.37,0,0,0-.376.363h0M.753,13.578a.356.356,0,0,0-.125-.27c-.056.206-.11.413-.159.621a.366.366,0,0,0,.284-.352m26.837,2.2a.377.377,0,1,0,.377-.364h0a.37.37,0,0,0-.377.363h0M.376,16.144a.364.364,0,1,0,0-.728.385.385,0,0,0-.2.054c-.027.187-.051.376-.072.565a.38.38,0,0,0,.269.109M11.5,15.78a.377.377,0,1,0,.377-.364h0a.37.37,0,0,0-.376.363h0m6.9,0a.377.377,0,1,0,.377-.364h0a.37.37,0,0,0-.376.363h0m-2.3,0a.377.377,0,1,0,.377-.364h0a.37.37,0,0,0-.377.364h0m-2.3,0a.376.376,0,1,0,.376-.364h0a.37.37,0,0,0-.376.364h0m6.9,0a.376.376,0,1,0,.376-.364.37.37,0,0,0-.376.364v0m11.495-2.2a.377.377,0,1,0,.377-.365.371.371,0,0,0-.377.365m-9.2,2.2a.377.377,0,1,0,.377-.364h0a.37.37,0,0,0-.376.363h0m2.3,0a.377.377,0,1,0,.377-.364.371.371,0,0,0-.377.364v0m2.3-2.2a.377.377,0,1,0,.377-.365.371.371,0,0,0-.377.365m-6.9,0a.376.376,0,1,0,.376-.365.37.37,0,0,0-.376.365m2.3,0a.377.377,0,1,0,.376-.365.371.371,0,0,0-.376.365m-18.393,0a.376.376,0,1,0,.376-.365.37.37,0,0,0-.376.365h0m25.291,0a.377.377,0,1,0,.376-.365.371.371,0,0,0-.376.365m4.6,0a.377.377,0,1,0,.377-.365.371.371,0,0,0-.377.365m-9.2,0a.377.377,0,1,0,.377-.365.371.371,0,0,0-.377.365h0m-16.095,0a.377.377,0,1,0,.377-.365.371.371,0,0,0-.377.365m-2.3,0a.377.377,0,1,0,.376-.365.371.371,0,0,0-.376.365m4.6,0a.377.377,0,1,0,.376-.365.371.371,0,0,0-.376.365m6.9,0a.377.377,0,1,0,.376-.365.371.371,0,0,0-.376.365m-4.6,0a.376.376,0,1,0,.376-.365.371.371,0,0,0-.376.365m2.3,0a.377.377,0,1,0,.377-.365.371.371,0,0,0-.377.365m-13.795,0a.377.377,0,1,0,.376-.365h0a.371.371,0,0,0-.376.365m6.9,2.2a.377.377,0,1,0,.377-.364h0a.37.37,0,0,0-.377.363h0m-2.3,2.2a.377.377,0,1,0,.377-.365h0a.371.371,0,0,0-.376.365h0m-4.6,0a.377.377,0,1,0,.377-.365h0a.371.371,0,0,0-.376.365m6.9,0a.377.377,0,1,0,.377-.365.371.371,0,0,0-.377.365h0M.377,20.55a.365.365,0,1,0,0-.73.383.383,0,0,0-.271.11c.021.189.045.377.072.564a.387.387,0,0,0,.2.055M11.5,17.982a.377.377,0,1,0,.376-.365.371.371,0,0,0-.376.365h0m13.8,2.2a.377.377,0,1,0,.377-.364.371.371,0,0,0-.377.364h0m-11.5-2.2a.377.377,0,1,0,.376-.365.37.37,0,0,0-.376.365m9.2,2.2a.377.377,0,1,0,.377-.364h0a.371.371,0,0,0-.376.364m9.2,0a.377.377,0,1,0,.377-.364.371.371,0,0,0-.377.364m-4.6,0a.377.377,0,1,0,.377-.364h0a.371.371,0,0,0-.377.364m6.9,0a.377.377,0,1,0,.377-.364.371.371,0,0,0-.377.364m-4.6,0a.376.376,0,1,0,.376-.364.37.37,0,0,0-.376.364M4.6,17.982a.377.377,0,1,0,.376-.365h0a.37.37,0,0,0-.376.364h0m-4.6,0a.371.371,0,0,0,.377.365.365.365,0,1,0,0-.729h0A.371.371,0,0,0,0,17.982H0m2.3-2.2a.377.377,0,1,0,.377-.364h0a.37.37,0,0,0-.376.364h0m32.189,2.2a.377.377,0,1,0,.377-.365.371.371,0,0,0-.377.365m-2.3,0a.377.377,0,1,0,.377-.365.371.371,0,0,0-.377.365M4.6,15.78a.377.377,0,1,0,.376-.364h0a.369.369,0,0,0-.376.362v0m2.3,0a.377.377,0,1,0,.377-.364h0a.37.37,0,0,0-.376.363h0m13.8,2.2a.376.376,0,1,0,.376-.365.37.37,0,0,0-.376.365h0m2.3,0a.377.377,0,1,0,.376-.365.371.371,0,0,0-.376.365h0m-6.9,0a.377.377,0,1,0,.377-.365.371.371,0,0,0-.377.365m13.8,0a.377.377,0,1,0,.376-.365.371.371,0,0,0-.376.365m-11.5,0a.377.377,0,1,0,.377-.365h0a.37.37,0,0,0-.376.364h0m9.2,0a.377.377,0,1,0,.377-.365.371.371,0,0,0-.377.365h0m-2.3,0a.377.377,0,1,0,.377-.365.371.371,0,0,0-.377.365v0M11.5,2.567a.377.377,0,1,0,.376-.364.371.371,0,0,0-.376.364h0M29.89,9.173a.377.377,0,1,0,.376-.364.37.37,0,0,0-.376.364v0m-11.5-4.4A.377.377,0,1,0,18.77,4.4a.371.371,0,0,0-.376.365m-4.6,0a.377.377,0,1,0,.376-.365.371.371,0,0,0-.376.365m2.3,0a.377.377,0,1,0,.377-.365.371.371,0,0,0-.377.365m6.9,0a.377.377,0,1,0,.376-.365.371.371,0,0,0-.376.365m4.6,0a.377.377,0,1,0,.377-.365.371.371,0,0,0-.377.365m3.052,0a.377.377,0,1,0-.376.365.371.371,0,0,0,.376-.365h0M23.369.73a.374.374,0,0,0,.363-.273C23.491.393,23.249.333,23,.278a.37.37,0,0,0-.011.087.371.371,0,0,0,.376.365m11.5,25.7a.365.365,0,1,0,0,.729.366.366,0,0,0,.122-.022c.084-.138.167-.277.246-.419a.373.373,0,0,0-.367-.289M11.5,4.769a.377.377,0,1,0,.376-.365.371.371,0,0,0-.376.365m13.8,0a.377.377,0,1,0,.377-.365.371.371,0,0,0-.377.365h0M6.9,4.769A.377.377,0,1,0,7.274,4.4a.371.371,0,0,0-.376.365m2.3,0A.377.377,0,1,0,9.573,4.4a.371.371,0,0,0-.377.365m11.5,0A.376.376,0,1,0,21.07,4.4a.37.37,0,0,0-.376.365m6.9-2.2a.377.377,0,1,0,.377-.364.371.371,0,0,0-.377.364h0m-11.5-2.2a.377.377,0,0,0,.753,0,.377.377,0,0,0-.753,0m9.2,2.2a.377.377,0,1,0,.377-.364.371.371,0,0,0-.377.364v0M9.2,2.567A.377.377,0,1,0,9.574,2.2h0a.37.37,0,0,0-.377.364h0m9.2-2.2a.377.377,0,0,0,.753,0,.377.377,0,0,0-.753,0h0m2.3,0a.376.376,0,0,0,.752,0,.376.376,0,0,0-.752,0h0M14.172.73a.371.371,0,0,0,.376-.365.3.3,0,0,0-.012-.087c-.245.055-.486.115-.726.178a.373.373,0,0,0,.362.273m1.923,1.837a.377.377,0,1,0,.377-.364.371.371,0,0,0-.377.364h0m-2.3,0a.377.377,0,1,0,.376-.364.37.37,0,0,0-.376.364h0m6.9,17.618a.376.376,0,1,0,.376-.364.37.37,0,0,0-.376.364m0-17.618A.376.376,0,1,0,21.07,2.2a.37.37,0,0,0-.376.364v0m2.3,0a.377.377,0,1,0,.377-.364h0a.37.37,0,0,0-.376.363h0m-4.6,0a.377.377,0,1,0,.377-.364h0a.37.37,0,0,0-.376.363h0m16.094,8.81a.377.377,0,1,0,.377-.365.371.371,0,0,0-.377.365h0m-11.5,0a.377.377,0,1,0,.376-.365.371.371,0,0,0-.376.365h0m-2.3,0a.376.376,0,1,0,.376-.365.37.37,0,0,0-.376.365h0m4.6,0a.377.377,0,1,0,.377-.365.371.371,0,0,0-.377.365v0m2.3,0a.377.377,0,1,0,.377-.365.371.371,0,0,0-.377.365h0m2.3,0a.377.377,0,1,0,.376-.365.37.37,0,0,0-.376.365h0m-11.5,0a.377.377,0,1,0,.376-.365.371.371,0,0,0-.376.365h0m-13.795,0a.377.377,0,1,0,.376-.365.37.37,0,0,0-.376.365v0m2.3,0a.377.377,0,1,0,.376-.365.371.371,0,0,0-.376.365h0m2.3,0a.377.377,0,1,0,.377-.365.371.371,0,0,0-.377.365h0m-6.9,0a.377.377,0,1,0,.376-.365h0a.37.37,0,0,0-.376.365h0m13.795,0a.377.377,0,1,0,.377-.365.371.371,0,0,0-.377.365h0m-4.6,0a.377.377,0,1,0,.376-.365.371.371,0,0,0-.376.365h0m2.3,0a.377.377,0,1,0,.376-.365.37.37,0,0,0-.376.365h0m18.393-2.2a.377.377,0,1,0,.377-.364.371.371,0,0,0-.377.364v0m-9.2,0a.377.377,0,1,0,.377-.364h0a.369.369,0,0,0-.376.362v0m-2.3,0a.376.376,0,1,0,.376-.364.37.37,0,0,0-.376.364v0m11.495,2.2a.377.377,0,1,0,.377-.365.371.371,0,0,0-.377.365h0m-16.094-2.2a.377.377,0,1,0,.377-.364h0a.37.37,0,0,0-.377.363v0m11.5,0a.377.377,0,1,0,.377-.364h0a.369.369,0,0,0-.377.362v0m-2.3,0a.377.377,0,1,0,.377-.364.371.371,0,0,0-.377.364v0m-6.9,0a.377.377,0,1,0,.377-.364h0a.369.369,0,0,0-.376.362v0m-11.5,0a.377.377,0,1,0,.377-.364h0a.369.369,0,0,0-.376.362v0m-2.3,0a.377.377,0,1,0,.376-.364h0A.369.369,0,0,0,4.6,9.17v0m6.9,0a.377.377,0,1,0,.377-.364h0a.37.37,0,0,0-.376.362v0m-2.3,0a.377.377,0,1,0,.377-.364h0a.37.37,0,0,0-.377.362v0m4.6,0a.377.377,0,1,0,.376-.364.37.37,0,0,0-.376.364v0M21.446,33.4a.376.376,0,1,0-.376.364.37.37,0,0,0,.376-.364M9.95,6.971a.377.377,0,1,0-.377.365.371.371,0,0,0,.377-.365h0m27.214,8.445a.364.364,0,1,0,0,.728.382.382,0,0,0,.268-.109c-.021-.19-.045-.377-.072-.565a.383.383,0,0,0-.2-.054M12.249,6.971a.377.377,0,1,0-.377.365.371.371,0,0,0,.377-.365h0m2.3,0a.377.377,0,1,0-.376.365.37.37,0,0,0,.376-.365h0m19.94,2.2a.378.378,0,0,0,.744.075c-.078-.14-.161-.28-.246-.418a.374.374,0,0,0-.5.343m2.3,4.4a.367.367,0,0,0,.283.352c-.049-.209-.1-.415-.159-.621a.357.357,0,0,0-.125.27M7.651,6.971a.377.377,0,1,0-.377.365.371.371,0,0,0,.377-.365h0m18.393,0a.377.377,0,1,0-.376.365h0a.371.371,0,0,0,.376-.365m2.3,0a.377.377,0,1,0-.376.365.371.371,0,0,0,.376-.365m2.3,0a.377.377,0,1,0-.376.365.371.371,0,0,0,.376-.365h0m-6.9,0a.377.377,0,1,0-.377.365.371.371,0,0,0,.377-.365m-4.6,0a.377.377,0,1,0-.377.365.371.371,0,0,0,.377-.365m2.3,0a.376.376,0,1,0-.376.365.37.37,0,0,0,.376-.365h0m-4.6,0a.377.377,0,1,0-.377.365h0a.371.371,0,0,0,.376-.365m-.753,22.023a.377.377,0,1,0,.377-.365.371.371,0,0,0-.377.365m2.3,0a.377.377,0,1,0,.376-.365.371.371,0,0,0-.376.365h0m-4.6,0a.377.377,0,1,0,.376-.365.371.371,0,0,0-.376.365m9.2,0a.377.377,0,1,0,.376-.365.371.371,0,0,0-.376.365h0m-11.5,0a.377.377,0,1,0,.376-.365.371.371,0,0,0-.376.365m9.2,0a.376.376,0,1,0,.376-.365.37.37,0,0,0-.376.365h0m16.47-11.376a.365.365,0,1,0,.377.365h0a.371.371,0,0,0-.376-.365h0M9.2,28.994a.377.377,0,1,0,.377-.365.371.371,0,0,0-.377.365m27.59-6.607a.355.355,0,0,0,.125.269c.056-.205.11-.412.159-.62a.365.365,0,0,0-.284.352m.377-2.567a.365.365,0,1,0-.006.73.386.386,0,0,0,.2-.055c.027-.187.051-.375.072-.564a.382.382,0,0,0-.269-.11m-4.223,9.174a.377.377,0,1,0-.376.365.371.371,0,0,0,.376-.365h0m-28.342,0a.377.377,0,1,0,.376-.365.37.37,0,0,0-.376.365h0m2.3,0a.377.377,0,1,0,.376-.365.371.371,0,0,0-.376.365m21.446,4.4a.377.377,0,1,0-.377.364h0a.371.371,0,0,0,.377-.364m-13.8-2.2a.377.377,0,1,0-.376.364.37.37,0,0,0,.376-.364m2.3,0a.377.377,0,1,0-.377.364h0a.372.372,0,0,0,.376-.364m4.6,0a.376.376,0,1,0-.376.364.37.37,0,0,0,.376-.364m-2.3,0a.377.377,0,1,0-.377.364h0a.372.372,0,0,0,.377-.364m-9.2,0a.377.377,0,1,0-.377.364h0A.372.372,0,0,0,9.95,31.2m15.341-2.2a.377.377,0,1,0,.377-.365.371.371,0,0,0-.377.365h0M12.249,31.2a.377.377,0,1,0-.377.364h0a.371.371,0,0,0,.377-.364M6.9,31.2a.377.377,0,1,0,.376-.366A.371.371,0,0,0,6.9,31.2h0m23.745,0a.377.377,0,1,0-.376.364.37.37,0,0,0,.376-.364M14.548,35.6a.369.369,0,0,0-.374-.364.374.374,0,0,0-.364.272c.24.064.483.125.726.179a.3.3,0,0,0,.012-.086m3.846-15.416a.377.377,0,1,0,.377-.364h0a.371.371,0,0,0-.376.364M26.045,31.2a.377.377,0,1,0-.377.364h0a.372.372,0,0,0,.376-.364m-2.3,0a.377.377,0,1,0-.377.364h0a.372.372,0,0,0,.377-.364m-.377,4.04a.37.37,0,0,0-.376.363v0a.363.363,0,0,0,.011.086c.246-.054.487-.115.728-.179a.374.374,0,0,0-.363-.272m-4.975.365a.377.377,0,1,0,.377-.365h0a.371.371,0,0,0-.376.365M32.941,6.971a.377.377,0,1,0-.376.365.371.371,0,0,0,.376-.365h0M16.094,35.6a.377.377,0,1,0,.377-.365.371.371,0,0,0-.377.365m5.352,0a.376.376,0,1,0-.376.364.37.37,0,0,0,.376-.364h0m4.6-2.2a.377.377,0,1,0-.377.364h0a.371.371,0,0,0,.376-.364M2.675,9.537a.364.364,0,1,0,0-.728.381.381,0,0,0-.123.022q-.125.207-.245.418a.373.373,0,0,0,.367.289M4.6,6.971a.377.377,0,1,0,.376-.364h0a.37.37,0,0,0-.376.364h0M19.147,33.4a.377.377,0,1,0-.377.364h0a.371.371,0,0,0,.377-.364m-6.9,0a.377.377,0,1,0-.377.364h0a.371.371,0,0,0,.377-.364m4.6,0a.377.377,0,1,0-.377.364h0a.371.371,0,0,0,.376-.364m6.9,0a.377.377,0,1,0-.377.364h0a.371.371,0,0,0,.377-.364m-9.2,0a.377.377,0,1,0-.376.364.37.37,0,0,0,.376-.364h0m-4.6,0a.377.377,0,1,0-.377.364h0A.371.371,0,0,0,9.95,33.4m18.393-2.2a.377.377,0,1,0-.377.364h0a.372.372,0,0,0,.376-.364M11.5,22.387a.377.377,0,1,0,.376-.365.371.371,0,0,0-.376.365h0m2.3,0a.377.377,0,1,0,.376-.365.37.37,0,0,0-.376.365h0m-4.6,0a.377.377,0,1,0,.377-.365.371.371,0,0,0-.377.365h0m9.2,0a.377.377,0,1,0,.376-.365.371.371,0,0,0-.376.365h0m2.3,0a.376.376,0,1,0,.376-.365.37.37,0,0,0-.376.365v0m-13.8,0a.377.377,0,1,0,.376-.365.371.371,0,0,0-.376.365h0m9.2,0a.377.377,0,1,0,.377-.365.371.371,0,0,0-.377.365h0m16.094,2.2a.377.377,0,1,0,.377-.365.371.371,0,0,0-.377.365h0M4.6,22.387a.377.377,0,1,0,.376-.365.371.371,0,0,0-.376.365v0m25.291,2.2a.377.377,0,1,0,.376-.365.371.371,0,0,0-.376.365h0m4.6,0a.377.377,0,1,0,.377-.365.371.371,0,0,0-.377.365h0M2.3,22.387a.377.377,0,1,0,.376-.365.371.371,0,0,0-.376.365h0m-1.546,0a.365.365,0,0,0-.284-.352c.048.208.1.415.159.62a.354.354,0,0,0,.125-.269m3.845-2.2a.377.377,0,1,0,.376-.364h0a.37.37,0,0,0-.376.364m6.9,0a.377.377,0,1,0,.377-.364h0a.371.371,0,0,0-.376.364m16.094,4.4a.377.377,0,1,0,.377-.365.371.371,0,0,0-.377.365h0M6.9,20.184a.377.377,0,1,0,.377-.364h0a.371.371,0,0,0-.376.364m16.094,2.2a.377.377,0,1,0,.376-.365.371.371,0,0,0-.376.365h0m-9.2-2.2a.377.377,0,1,0,.376-.364.37.37,0,0,0-.376.364m2.3,0a.377.377,0,1,0,.377-.364.371.371,0,0,0-.377.364m-6.9,0a.377.377,0,1,0,.377-.364h0a.371.371,0,0,0-.377.364m18.394,2.2a.377.377,0,1,0,.377-.365.371.371,0,0,0-.377.365h0m2.3,0a.376.376,0,1,0,.376-.365.37.37,0,0,0-.376.365h0m-4.6,0a.377.377,0,1,0,.377-.365.371.371,0,0,0-.377.365v0M2.3,20.184a.377.377,0,1,0,.377-.364h0a.371.371,0,0,0-.376.364m32.189,2.2a.377.377,0,1,0,.377-.365.371.371,0,0,0-.377.365h0m-2.3,0a.377.377,0,1,0,.377-.365.371.371,0,0,0-.377.365h0m-2.3,4.4a.376.376,0,1,0,.376-.365.37.37,0,0,0-.376.365h0m-9.2,0a.376.376,0,1,0,.376-.365.37.37,0,0,0-.376.365h0m-2.3,0a.377.377,0,1,0,.376-.365.371.371,0,0,0-.376.365h0m4.6,0a.377.377,0,1,0,.376-.365.371.371,0,0,0-.376.365h0m-6.9,0a.377.377,0,1,0,.377-.365.371.371,0,0,0-.377.365m9.2,0a.377.377,0,1,0,.377-.365.371.371,0,0,0-.377.365v0m2.3,0a.377.377,0,1,0,.377-.365.371.371,0,0,0-.377.365h0m-22.991,0a.377.377,0,1,0,.376-.365.37.37,0,0,0-.376.365h0m2.3,0a.377.377,0,1,0,.376-.365.371.371,0,0,0-.376.365h0m6.9,0a.377.377,0,1,0,.376-.365.37.37,0,0,0-.376.365m13.8,2.2a.377.377,0,1,0,.377-.365.371.371,0,0,0-.377.365m4.6-2.2a.377.377,0,1,0,.377-.365.371.371,0,0,0-.377.365h0m-20.692,0a.377.377,0,1,0,.376-.365.371.371,0,0,0-.376.365h0m-2.3,0a.377.377,0,1,0,.377-.365.371.371,0,0,0-.377.365h0m-4.6-2.2a.377.377,0,1,0,.376-.365h0a.369.369,0,0,0-.376.363v0m13.8,0a.377.377,0,1,0,.377-.365h0a.37.37,0,0,0-.376.363h0m-2.3,0a.377.377,0,1,0,.377-.365.371.371,0,0,0-.377.365h0m-2.3,0a.376.376,0,1,0,.376-.365.37.37,0,0,0-.376.365h0m9.2,0a.377.377,0,1,0,.376-.365h0a.37.37,0,0,0-.376.363h0m-2.3,0a.376.376,0,1,0,.376-.365.37.37,0,0,0-.376.365h0m-9.2,0a.377.377,0,1,0,.377-.365.371.371,0,0,0-.377.365h0m18.394,4.4a.376.376,0,1,0,.376-.365.37.37,0,0,0-.376.365m-26.837-2.2a.378.378,0,0,0-.745-.076q.12.212.245.419a.375.375,0,0,0,.5-.343h0m-.753-2.2a.377.377,0,1,0,.377-.365h0a.37.37,0,0,0-.376.364h0m22.992,0a.377.377,0,1,0,.377-.365.371.371,0,0,0-.377.365v0m-18.393,0a.377.377,0,1,0,.377-.365h0a.37.37,0,0,0-.376.364h0m2.3,0a.377.377,0,1,0,.377-.365h0a.37.37,0,0,0-.377.364h0" transform="translate(18.725 0)" fill="#f40000"/>
          <path id="Trazado_42496" data-name="Trazado 42496" d="M0,3.778a.778.778,0,0,0,.791.765.766.766,0,1,0,0-1.53A.778.778,0,0,0,0,3.777ZM0,.765a.778.778,0,0,0,.79.766A.778.778,0,0,0,1.581.766.778.778,0,0,0,.791,0h0A.778.778,0,0,0,0,.765M3.334,3.778a.791.791,0,1,0,.791-.765.778.778,0,0,0-.791.765h0m0-3.013a.791.791,0,0,0,1.581,0,.791.791,0,0,0-1.581,0h0M6.669,3.778a.791.791,0,1,0,.791-.765.778.778,0,0,0-.791.765h0m0-3.013a.791.791,0,0,0,1.581,0A.778.778,0,0,0,7.461,0h0a.778.778,0,0,0-.791.765" transform="translate(18.265 80.323)" fill="#fff"/>
          <g id="Grupo_19555" data-name="Grupo 19555" transform="translate(18.265 97.034)">
            <path id="Trazado_42455" data-name="Trazado 42455" d="M1.225,2.372A1.206,1.206,0,0,1,0,1.186,1.206,1.206,0,0,1,1.226,0,1.206,1.206,0,0,1,2.451,1.185,1.208,1.208,0,0,1,1.225,2.372" transform="translate(2.971 4.115)" fill="#ffb600"/>
            <path id="Trazado_42456" data-name="Trazado 42456" d="M1.277,2.472A1.257,1.257,0,0,1,0,1.236,1.257,1.257,0,0,1,1.278,0,1.257,1.257,0,0,1,2.554,1.236,1.259,1.259,0,0,1,1.277,2.472m0-1.83a.6.6,0,0,0-.613.594.6.6,0,0,0,.614.594.6.6,0,0,0,.613-.594h0A.6.6,0,0,0,1.277.642" transform="translate(13.367 0.94)" fill="#ffb600"/>
            <path id="Trazado_42464" data-name="Trazado 42464" d="M.486.94A.478.478,0,0,1,0,.47.478.478,0,0,1,.486,0,.478.478,0,0,1,.972.47.479.479,0,0,1,.486.94" transform="translate(0)" fill="#f40000"/>
            <path id="Trazado_42465" data-name="Trazado 42465" d="M.485.94A.478.478,0,0,1,0,.47.478.478,0,0,1,.486,0,.478.478,0,0,1,.972.47.479.479,0,0,1,.485.94" transform="translate(20.535 6.301)" fill="#f40000"/>
          </g>
          <g id="Grupo_19554" data-name="Grupo 19554" transform="translate(7.511 45.685)">
            <path id="Trazado_42452" data-name="Trazado 42452" d="M0,3.778a.778.778,0,0,0,.791.765.765.765,0,1,0,0-1.53A.778.778,0,0,0,0,3.777ZM0,.765a.778.778,0,0,0,.79.765A.778.778,0,0,0,1.581.765.778.778,0,0,0,.791,0h0A.778.778,0,0,0,0,.765H0M3.334,3.778a.791.791,0,1,0,.791-.765.778.778,0,0,0-.791.765h0m0-3.013a.791.791,0,0,0,1.581,0,.791.791,0,0,0-1.581,0h0M6.669,3.778a.791.791,0,1,0,.791-.765.778.778,0,0,0-.791.765h0m0-3.013a.791.791,0,0,0,1.581,0A.778.778,0,0,0,7.461,0h0a.778.778,0,0,0-.791.765" transform="translate(5.455 0)" fill="#ffb600"/>
            <path id="Trazado_42460" data-name="Trazado 42460" d="M1.365,2.643A1.344,1.344,0,0,1,0,1.321,1.344,1.344,0,0,1,1.366,0,1.344,1.344,0,0,1,2.731,1.321,1.346,1.346,0,0,1,1.365,2.643m0-1.956a.646.646,0,0,0-.655.636.646.646,0,0,0,.657.634.646.646,0,0,0,.655-.636A.646.646,0,0,0,1.365.687" transform="translate(22.658 23.029)" fill="#f40000"/>
            <path id="Trazado_42466" data-name="Trazado 42466" d="M.486.94A.478.478,0,0,1,0,.47.478.478,0,0,1,.486,0,.478.478,0,0,1,.972.47.479.479,0,0,1,.486.94" transform="translate(24.904 4.609)" fill="#f40000"/>
            <path id="Trazado_42467" data-name="Trazado 42467" d="M.486.94A.478.478,0,0,1,0,.47.478.478,0,0,1,.486,0,.478.478,0,0,1,.972.47.479.479,0,0,1,.486.94" transform="translate(0 18.773)" fill="#f40000"/>
          </g>
        </g>
        <g id="Grupo_19606" data-name="Grupo 19606" transform="translate(244.27 84.58)">
          <path id="Trazado_42447" data-name="Trazado 42447" d="M4.94,72.3q.275-9.547.549-19.095.2-6.8.4-13.606a1.681,1.681,0,0,0-.485-1.28C4.239,37.069,3.089,35.8,1.937,34.541A7.092,7.092,0,0,1,.016,29.566c.012-2.618-.067-5.24.047-7.853C.244,17.6.527,13.487.816,9.379c.2-2.891.491-5.775.735-8.663.024-.287.124-.428.426-.429C3.286.284,3.038.17,3.068,1.312q.237,9.013.453,18.028c.019.773.018,1.548.045,2.321.021.6.318.947.772.945.494,0,.81-.391.824-1.006q.228-9.929.458-19.858c.01-.446.056-.891.056-1.337,0-.292.114-.407.39-.388a1.927,1.927,0,0,0,.35-.007c.345-.04.443.11.449.459q.147,9.306.316,18.611.021,1.205.039,2.41c.011.673.325,1.085.834,1.095s.856-.425.867-1.068q.11-6.583.213-13.166c.043-2.618.1-5.236.127-7.855,0-.365.108-.529.472-.488a1.5,1.5,0,0,0,.306,0c.322-.03.423.113.429.441.027,1.651.077,3.3.118,4.953q.2,7.987.4,15.974a3.577,3.577,0,0,0,.034.533.8.8,0,0,0,.833.692.783.783,0,0,0,.706-.777c.031-.728.039-1.458.057-2.186q.177-7.229.357-14.457c.039-1.532.1-3.063.134-4.6.008-.37.134-.456.478-.407.989.142.981.131,1.065,1.181q.4,4.957.806,9.914c.431,5.22.722,10.447.726,15.687,0,1.144-.083,2.288-.124,3.433a6.38,6.38,0,0,1-1.762,4.03q-1.662,1.9-3.4,3.72a2.08,2.08,0,0,0-.653,1.618q.252,7.718.465,15.437.3,10.284.591,20.569.276,9.547.557,19.095c.094,3.242.174,6.485.285,9.727a5.2,5.2,0,0,1-1.27,3.911,3.763,3.763,0,0,1-6.31-1.01,5.83,5.83,0,0,1-.589-2.8q.244-7.561.474-15.122c.113-3.822.206-7.645.313-11.467.054-1.933.118-3.867.177-5.8H4.94" transform="translate(25.636 2.346)" fill="#dd0606"/>
          <path id="Trazado_42490" data-name="Trazado 42490" d="M1.267,2.62A1.289,1.289,0,0,1,0,1.309,1.289,1.289,0,0,1,1.269,0,1.289,1.289,0,0,1,2.536,1.309,1.291,1.291,0,0,1,1.267,2.62" transform="translate(47.99 11.356)" fill="#ffb600"/>
          <g id="Grupo_19553" data-name="Grupo 19553" transform="translate(0 63.636)">
            <path id="Trazado_42449" data-name="Trazado 42449" d="M17.9,8.446a.2.2,0,1,1-.193.2.2.2,0,0,1,.193-.2Zm-1.374.2a.193.193,0,1,0,.193-.2.2.2,0,0,0-.193.2h0m-1.18,0a.193.193,0,1,0,.193-.2h0a.2.2,0,0,0-.193.2h0M.387,7.439a.2.2,0,0,0-.064-.148c-.029.113-.057.226-.081.34a.2.2,0,0,0,.146-.193M14.162,8.646a.193.193,0,1,0,.193-.2h0a.2.2,0,0,0-.193.2h0m-13.969.2a.2.2,0,0,0,0-.4.188.188,0,0,0-.1.03c-.014.1-.026.206-.037.309a.189.189,0,0,0,.138.06m5.708-.2a.193.193,0,1,0,.193-.2h0a.2.2,0,0,0-.193.2h0m3.541,0a.193.193,0,1,0,.194-.2h0a.2.2,0,0,0-.193.2h0m-1.181,0a.193.193,0,1,0,.194-.2h0a.2.2,0,0,0-.193.2h0m-1.18,0a.193.193,0,1,0,.193-.2h0a.2.2,0,0,0-.193.2m3.541,0a.193.193,0,1,0,.193-.2h0a.2.2,0,0,0-.193.2h0m5.9-1.206a.193.193,0,1,0,.193-.2.2.2,0,0,0-.193.2M11.8,8.646a.193.193,0,1,0,.193-.2h0a.2.2,0,0,0-.193.2h0m1.18,0a.193.193,0,1,0,.194-.2.2.2,0,0,0-.194.2h0m1.18-1.206a.193.193,0,1,0,.193-.2.2.2,0,0,0-.193.2m-3.54,0a.193.193,0,1,0,.193-.2.2.2,0,0,0-.193.2m1.18,0a.193.193,0,1,0,.193-.2.2.2,0,0,0-.193.2m-9.442,0a.193.193,0,1,0,.193-.2.2.2,0,0,0-.193.2h0m12.982,0a.193.193,0,1,0,.193-.2.2.2,0,0,0-.193.2m2.36,0a.193.193,0,1,0,.193-.2.2.2,0,0,0-.193.2m-4.721,0a.193.193,0,1,0,.194-.2.2.2,0,0,0-.194.2h0m-8.262,0a.193.193,0,1,0,.193-.2.2.2,0,0,0-.193.2m-1.18,0a.193.193,0,1,0,.193-.2.2.2,0,0,0-.193.2m2.36,0a.193.193,0,1,0,.193-.2.2.2,0,0,0-.193.2m3.541,0a.193.193,0,1,0,.193-.2.2.2,0,0,0-.193.2m-2.361,0a.193.193,0,1,0,.193-.2.2.2,0,0,0-.193.2m1.18,0a.193.193,0,1,0,.193-.2.2.2,0,0,0-.193.2m-7.081,0a.193.193,0,1,0,.193-.2h0a.2.2,0,0,0-.193.2m3.54,1.206a.193.193,0,1,0,.194-.2h0a.2.2,0,0,0-.193.2h0M3.541,9.852a.193.193,0,1,0,.193-.2.2.2,0,0,0-.193.2m-2.361,0a.193.193,0,1,0,.193-.2h0a.2.2,0,0,0-.193.2m3.54,0a.193.193,0,1,0,.193-.2.2.2,0,0,0-.193.2M.193,11.259a.2.2,0,0,0,0-.4.19.19,0,0,0-.139.06c.011.1.023.206.037.309a.19.19,0,0,0,.1.031M5.9,9.853a.193.193,0,1,0,.193-.2.2.2,0,0,0-.193.2m7.081,1.206a.193.193,0,1,0,.194-.2.2.2,0,0,0-.194.2h0m-5.9-1.207a.193.193,0,1,0,.193-.2.2.2,0,0,0-.193.2M11.8,11.059a.193.193,0,1,0,.193-.2h0a.2.2,0,0,0-.193.2m4.721,0a.193.193,0,1,0,.193-.2.2.2,0,0,0-.193.2m-2.36,0a.193.193,0,1,0,.193-.2h0a.2.2,0,0,0-.193.2m3.541,0a.193.193,0,1,0,.193-.2.2.2,0,0,0-.193.2m-2.36,0a.193.193,0,1,0,.193-.2h0a.2.2,0,0,0-.193.2M2.361,9.852a.193.193,0,1,0,.193-.2h0a.2.2,0,0,0-.193.2h0M0,9.852a.2.2,0,0,0,.193.2.2.2,0,0,0,0-.4h0a.2.2,0,0,0-.193.2H0M1.18,8.646a.193.193,0,1,0,.194-.2h0a.2.2,0,0,0-.193.2h0M17.7,9.852a.193.193,0,1,0,.193-.2.2.2,0,0,0-.193.2m-1.18,0a.193.193,0,1,0,.193-.2.2.2,0,0,0-.193.2M2.361,8.646a.193.193,0,1,0,.193-.2h0a.2.2,0,0,0-.193.2h0m1.18,0a.193.193,0,1,0,.193-.2h0a.2.2,0,0,0-.193.2h0m7.081,1.207a.193.193,0,1,0,.193-.2.2.2,0,0,0-.193.2h0m1.18,0a.193.193,0,1,0,.193-.2.2.2,0,0,0-.193.2h0m-3.541,0a.193.193,0,1,0,.193-.2.2.2,0,0,0-.193.2m7.082,0a.193.193,0,1,0,.193-.2.2.2,0,0,0-.193.2m-5.9,0a.193.193,0,1,0,.193-.2h0a.2.2,0,0,0-.193.2h0m4.721,0a.193.193,0,1,0,.193-.2.2.2,0,0,0-.193.2h0m-1.18,0a.193.193,0,1,0,.194-.2.2.2,0,0,0-.194.2h0M5.9,1.406a.193.193,0,1,0,.193-.2h0a.2.2,0,0,0-.193.2h0m9.442,3.62a.193.193,0,1,0,.193-.2h0a.2.2,0,0,0-.193.2h0m-5.9-2.413a.193.193,0,1,0,.193-.2h0a.2.2,0,0,0-.193.2m-2.361,0a.193.193,0,1,0,.193-.2.2.2,0,0,0-.193.2m1.18,0a.193.193,0,1,0,.193-.2.2.2,0,0,0-.193.2m3.541,0a.193.193,0,1,0,.193-.2.2.2,0,0,0-.193.2m2.36,0a.193.193,0,1,0,.193-.2.2.2,0,0,0-.193.2m1.567,0a.193.193,0,1,0-.193.2.2.2,0,0,0,.193-.2h0M12,.4a.194.194,0,0,0,.186-.15c-.123-.035-.248-.068-.374-.1A.214.214,0,0,0,11.8.2.2.2,0,0,0,12,.4m5.9,14.079a.2.2,0,0,0,0,.4.176.176,0,0,0,.062-.012c.043-.075.086-.152.126-.229a.2.2,0,0,0-.189-.158M5.9,2.613a.193.193,0,1,0,.193-.2.2.2,0,0,0-.193.2m7.081,0a.193.193,0,1,0,.194-.2.2.2,0,0,0-.194.2h0m-9.442,0a.193.193,0,1,0,.193-.2.2.2,0,0,0-.193.2m1.18,0a.193.193,0,1,0,.193-.2.2.2,0,0,0-.193.2m5.9,0a.193.193,0,1,0,.193-.2.2.2,0,0,0-.193.2m3.54-1.207a.193.193,0,1,0,.193-.2.2.2,0,0,0-.193.2h0M8.261.2a.193.193,0,1,0,.387,0,.193.193,0,1,0-.387,0m4.721,1.206a.193.193,0,1,0,.194-.2.2.2,0,0,0-.194.2h0m-8.262,0a.193.193,0,1,0,.193-.2h0a.2.2,0,0,0-.193.2h0M9.442.2a.193.193,0,1,0,.387,0,.193.193,0,1,0-.387,0m1.18,0a.193.193,0,1,0,.386,0,.193.193,0,1,0-.386,0h0M7.274.4A.2.2,0,0,0,7.468.2.176.176,0,0,0,7.461.153c-.126.03-.249.063-.373.1A.194.194,0,0,0,7.274.4m.987,1.007a.193.193,0,1,0,.193-.2.2.2,0,0,0-.193.2h0m-1.18,0a.193.193,0,1,0,.193-.2.2.2,0,0,0-.193.2h0m3.541,9.652a.193.193,0,1,0,.193-.2.2.2,0,0,0-.193.2m0-9.652a.193.193,0,1,0,.193-.2.2.2,0,0,0-.193.2h0m1.18,0a.193.193,0,1,0,.193-.2h0a.2.2,0,0,0-.193.2h0m-2.36,0a.193.193,0,1,0,.193-.2h0a.2.2,0,0,0-.193.2h0M17.7,6.233a.193.193,0,1,0,.193-.2.2.2,0,0,0-.193.2h0m-5.9,0a.193.193,0,1,0,.193-.2.2.2,0,0,0-.193.2h0m-1.18,0a.193.193,0,1,0,.193-.2.2.2,0,0,0-.193.2h0m2.36,0a.193.193,0,1,0,.194-.2.2.2,0,0,0-.194.2h0m1.18,0a.193.193,0,1,0,.193-.2.2.2,0,0,0-.193.2h0m1.18,0a.193.193,0,1,0,.193-.2.2.2,0,0,0-.193.2h0m-5.9,0a.193.193,0,1,0,.193-.2h0a.2.2,0,0,0-.193.2h0m-7.081,0a.193.193,0,1,0,.193-.2.2.2,0,0,0-.193.2h0m1.18,0a.193.193,0,1,0,.193-.2.2.2,0,0,0-.193.2h0m1.18,0a.193.193,0,1,0,.193-.2.2.2,0,0,0-.193.2h0m-3.54,0a.193.193,0,1,0,.193-.2h0a.2.2,0,0,0-.193.2h0m7.081,0a.193.193,0,1,0,.193-.2.2.2,0,0,0-.193.2h0m-2.36,0a.193.193,0,1,0,.193-.2.2.2,0,0,0-.193.2h0m1.18,0a.193.193,0,1,0,.193-.2.2.2,0,0,0-.193.2m9.442-1.207a.193.193,0,1,0,.193-.2.2.2,0,0,0-.193.2h0m-4.721,0a.193.193,0,1,0,.193-.2h0a.2.2,0,0,0-.193.2h0m-1.18,0a.193.193,0,1,0,.193-.2.2.2,0,0,0-.193.2h0m5.9,1.207a.193.193,0,1,0,.193-.2.2.2,0,0,0-.193.2h0M8.261,5.026a.193.193,0,1,0,.194-.2h0a.2.2,0,0,0-.193.2h0m5.9,0a.193.193,0,1,0,.193-.2h0a.2.2,0,0,0-.193.2h0m-1.18,0a.193.193,0,1,0,.194-.2.2.2,0,0,0-.194.2v0m-3.541,0a.193.193,0,1,0,.194-.2h0a.2.2,0,0,0-.193.2h0m-5.9,0a.193.193,0,1,0,.193-.2h0a.2.2,0,0,0-.193.2h0m-1.18,0a.193.193,0,1,0,.193-.2h0a.2.2,0,0,0-.193.2v0m3.54,0a.193.193,0,1,0,.193-.2h0a.2.2,0,0,0-.193.2h0m-1.18,0a.193.193,0,1,0,.194-.2h0a.2.2,0,0,0-.193.2h0m2.361,0a.193.193,0,1,0,.193-.2h0a.2.2,0,0,0-.193.2h0M11.008,18.3a.193.193,0,1,0-.193.2.2.2,0,0,0,.193-.2M5.107,3.819a.193.193,0,1,0-.193.2.2.2,0,0,0,.193-.2M19.077,8.446a.2.2,0,0,0,0,.4.19.19,0,0,0,.137-.06c-.011-.1-.023-.207-.037-.309a.187.187,0,0,0-.1-.03M6.288,3.819a.193.193,0,1,0-.193.2.2.2,0,0,0,.193-.2h0m1.18,0a.193.193,0,1,0-.193.2.2.2,0,0,0,.193-.2h0M17.7,5.026a.193.193,0,0,0,.382.041c-.04-.077-.083-.153-.126-.229a.18.18,0,0,0-.062-.012.2.2,0,0,0-.193.2m1.18,2.413a.2.2,0,0,0,.146.193c-.025-.114-.053-.228-.082-.34a.2.2,0,0,0-.064.148M3.927,3.819a.193.193,0,1,0-.193.2.2.2,0,0,0,.193-.2m9.442,0a.193.193,0,1,0-.193.2h0a.2.2,0,0,0,.193-.2m1.18,0a.193.193,0,1,0-.193.2.2.2,0,0,0,.193-.2m1.18,0a.193.193,0,1,0-.193.2.2.2,0,0,0,.193-.2h0m-3.54,0a.193.193,0,1,0-.193.2.2.2,0,0,0,.193-.2m-2.36,0a.193.193,0,1,0-.194.2.2.2,0,0,0,.194-.2m1.18,0a.193.193,0,1,0-.193.2.2.2,0,0,0,.193-.2h0m-2.36,0a.193.193,0,1,0-.193.2h0a.2.2,0,0,0,.193-.2M8.261,15.886a.193.193,0,1,0,.193-.2.2.2,0,0,0-.193.2m1.181,0a.193.193,0,1,0,.193-.2.2.2,0,0,0-.193.2m-2.361,0a.193.193,0,1,0,.193-.2.2.2,0,0,0-.193.2m4.721,0a.193.193,0,1,0,.193-.2.2.2,0,0,0-.193.2m-5.9,0a.193.193,0,1,0,.193-.2.2.2,0,0,0-.193.2m4.721,0a.193.193,0,1,0,.193-.2.2.2,0,0,0-.193.2m8.454-6.233a.2.2,0,1,0,.193.2h0a.2.2,0,0,0-.193-.2h0M4.721,15.885a.193.193,0,1,0,.193-.2.2.2,0,0,0-.193.2m14.163-3.62a.2.2,0,0,0,.064.147c.029-.112.057-.226.082-.34a.2.2,0,0,0-.146.193m.193-1.406a.2.2,0,0,0,0,.4.189.189,0,0,0,.1-.03c.014-.1.026-.205.037-.309a.19.19,0,0,0-.138-.06m-2.167,5.026a.193.193,0,1,0-.193.2.2.2,0,0,0,.193-.2h0m-14.549,0a.193.193,0,1,0,.193-.2.2.2,0,0,0-.193.2h0m1.18,0a.193.193,0,1,0,.193-.2.2.2,0,0,0-.193.2M14.549,18.3a.193.193,0,1,0-.193.2h0a.2.2,0,0,0,.193-.2M7.468,17.092a.193.193,0,1,0-.193.2h0a.2.2,0,0,0,.193-.2m1.18,0a.193.193,0,1,0-.194.2h0a.2.2,0,0,0,.193-.2m2.36,0a.193.193,0,1,0-.193.2.2.2,0,0,0,.193-.2m-1.18,0a.193.193,0,1,0-.194.2h0a.2.2,0,0,0,.193-.2m-4.721,0a.193.193,0,1,0-.194.2h0a.2.2,0,0,0,.193-.2m7.875-1.207a.193.193,0,1,0,.194-.2.2.2,0,0,0-.194.2h0M6.288,17.092a.193.193,0,1,0-.193.2h0a.2.2,0,0,0,.193-.2m-2.747,0a.193.193,0,1,0,.193-.2.2.2,0,0,0-.193.2h0m12.189,0a.193.193,0,1,0-.193.2h0a.2.2,0,0,0,.193-.2M7.468,19.5a.2.2,0,0,0-.192-.2.194.194,0,0,0-.187.149c.123.035.248.068.373.1a.174.174,0,0,0,.006-.047m1.974-8.446a.193.193,0,1,0,.194-.2h0a.2.2,0,0,0-.193.2m3.927,6.033a.193.193,0,1,0-.193.2h0a.2.2,0,0,0,.193-.2m-1.18,0a.193.193,0,1,0-.193.2h0a.2.2,0,0,0,.193-.2M12,19.3a.2.2,0,0,0-.193.2h0a.213.213,0,0,0,.006.047c.126-.03.25-.063.374-.1A.194.194,0,0,0,12,19.3m-2.554.2a.193.193,0,1,0,.193-.2h0a.2.2,0,0,0-.193.2M16.909,3.819a.193.193,0,1,0-.193.2.2.2,0,0,0,.193-.2h0M8.262,19.5a.193.193,0,1,0,.193-.2.2.2,0,0,0-.193.2m2.747,0a.193.193,0,1,0-.193.2.2.2,0,0,0,.193-.2h0M13.369,18.3a.193.193,0,1,0-.193.2h0a.2.2,0,0,0,.193-.2m-12-13.073a.2.2,0,0,0,.009-.4H1.373a.183.183,0,0,0-.063.012q-.064.114-.126.229a.194.194,0,0,0,.189.158M2.36,3.819a.193.193,0,1,0,.193-.2h0a.2.2,0,0,0-.193.2h0M9.828,18.3a.193.193,0,1,0-.194.2h0a.2.2,0,0,0,.193-.2m-3.541,0a.193.193,0,1,0-.193.2h0a.2.2,0,0,0,.193-.2h0m2.36,0a.193.193,0,1,0-.194.2h0a.2.2,0,0,0,.193-.2m3.541,0a.193.193,0,1,0-.193.2.2.2,0,0,0,.193-.2m-4.721,0a.193.193,0,1,0-.193.2.2.2,0,0,0,.193-.2h0m-2.36,0a.193.193,0,1,0-.194.2h0a.2.2,0,0,0,.193-.2m9.442-1.206a.193.193,0,1,0-.193.2h0a.2.2,0,0,0,.193-.2M5.9,12.266a.193.193,0,1,0,.193-.2.2.2,0,0,0-.193.2h0m1.18,0a.193.193,0,1,0,.193-.2.2.2,0,0,0-.193.2h0m-2.361,0a.193.193,0,1,0,.193-.2.2.2,0,0,0-.193.2h0m4.721,0a.193.193,0,1,0,.193-.2.2.2,0,0,0-.193.2h0m1.18,0a.193.193,0,1,0,.193-.2.2.2,0,0,0-.193.2h0m-7.082,0a.193.193,0,1,0,.193-.2.2.2,0,0,0-.193.2h0m4.721,0a.193.193,0,1,0,.193-.2.2.2,0,0,0-.193.2h0m8.261,1.207a.193.193,0,1,0,.193-.2.2.2,0,0,0-.193.2h0M2.361,12.265a.193.193,0,1,0,.193-.2.2.2,0,0,0-.193.2h0m12.982,1.207a.193.193,0,1,0,.193-.2.2.2,0,0,0-.193.2h0m2.36,0a.193.193,0,1,0,.193-.2.2.2,0,0,0-.193.2h0M1.18,12.265a.193.193,0,1,0,.193-.2h0a.2.2,0,0,0-.193.2h0m-.793,0a.2.2,0,0,0-.146-.193c.025.114.053.227.081.34a.2.2,0,0,0,.064-.147m1.974-1.207a.193.193,0,1,0,.193-.2h0a.2.2,0,0,0-.193.2m3.54,0a.193.193,0,1,0,.193-.2h0a.2.2,0,0,0-.193.2m8.261,2.413a.193.193,0,1,0,.193-.2.2.2,0,0,0-.193.2h0M3.541,11.059a.193.193,0,1,0,.193-.2h0a.2.2,0,0,0-.193.2M11.8,12.265a.193.193,0,1,0,.193-.2.2.2,0,0,0-.193.2h0M7.081,11.059a.193.193,0,1,0,.193-.2h0a.2.2,0,0,0-.193.2m1.18,0a.193.193,0,1,0,.194-.2h0a.2.2,0,0,0-.193.2m-3.541,0a.193.193,0,1,0,.194-.2h0a.2.2,0,0,0-.193.2m9.442,1.207a.193.193,0,1,0,.193-.2.2.2,0,0,0-.193.2h0m1.18,0a.193.193,0,1,0,.193-.2.2.2,0,0,0-.193.2h0m-2.361,0a.193.193,0,1,0,.194-.2.2.2,0,0,0-.194.2h0M1.18,11.059a.193.193,0,1,0,.194-.2h0a.2.2,0,0,0-.193.2M17.7,12.265a.193.193,0,1,0,.193-.2.2.2,0,0,0-.193.2h0m-1.18,0a.193.193,0,1,0,.193-.2.2.2,0,0,0-.193.2h0m-1.18,2.413a.193.193,0,1,0,.193-.2.2.2,0,0,0-.193.2h0m-4.721,0a.193.193,0,1,0,.193-.2.2.2,0,0,0-.193.2h0m-1.18,0a.193.193,0,1,0,.193-.2h0a.2.2,0,0,0-.193.2h0m2.36,0a.193.193,0,1,0,.193-.2.2.2,0,0,0-.193.2h0m-3.541,0a.193.193,0,1,0,.193-.2.2.2,0,0,0-.193.2m4.721,0a.193.193,0,1,0,.194-.2.2.2,0,0,0-.194.2h0m1.18,0a.193.193,0,1,0,.193-.2.2.2,0,0,0-.193.2h0m-11.8,0a.193.193,0,1,0,.193-.2.2.2,0,0,0-.193.2h0m1.18,0a.193.193,0,1,0,.193-.2.2.2,0,0,0-.193.2h0m3.54,0a.193.193,0,1,0,.193-.2.2.2,0,0,0-.193.2m7.081,1.207a.193.193,0,1,0,.193-.2.2.2,0,0,0-.193.2m2.36-1.207a.193.193,0,1,0,.193-.2.2.2,0,0,0-.193.2h0m-10.622,0a.193.193,0,1,0,.193-.2.2.2,0,0,0-.193.2h0m-1.18,0a.193.193,0,1,0,.193-.2.2.2,0,0,0-.193.2h0m-2.36-1.206a.193.193,0,1,0,.193-.2h0a.2.2,0,0,0-.193.2h0m7.081,0a.193.193,0,1,0,.193-.2h0a.2.2,0,0,0-.193.2h0m-1.181,0a.193.193,0,1,0,.193-.2.2.2,0,0,0-.193.2h0m-1.18,0a.193.193,0,1,0,.193-.2.2.2,0,0,0-.193.2m4.721,0a.193.193,0,1,0,.193-.2h0a.2.2,0,0,0-.193.2h0m-1.18,0a.193.193,0,1,0,.193-.2.2.2,0,0,0-.193.2h0m-4.721,0a.193.193,0,1,0,.193-.2h0a.2.2,0,0,0-.193.2h0m9.442,2.413a.193.193,0,1,0,.193-.2.2.2,0,0,0-.193.2M1.567,14.678a.193.193,0,0,0-.382-.041q.061.116.126.229a.179.179,0,0,0,.063.012.2.2,0,0,0,.194-.2M1.18,13.472a.193.193,0,1,0,.193-.2h0a.2.2,0,0,0-.193.2h0m11.8,0a.193.193,0,1,0,.194-.2.2.2,0,0,0-.194.2h0m-9.442,0a.193.193,0,1,0,.193-.2h0a.2.2,0,0,0-.193.2h0m1.18,0a.193.193,0,1,0,.193-.2h0a.2.2,0,0,0-.193.2h0" transform="translate(0 1.769)" fill="#f40000"/>
            <path id="Trazado_42457" data-name="Trazado 42457" d="M1.031,2.131A1.049,1.049,0,0,1,0,1.065,1.049,1.049,0,0,1,1.032,0,1.049,1.049,0,0,1,2.063,1.065,1.05,1.05,0,0,1,1.031,2.131m0-1.577a.5.5,0,0,0-.5.512.5.5,0,0,0,.5.511.5.5,0,0,0,.5-.512.5.5,0,0,0-.5-.511" transform="translate(33.698 7.354)" fill="#ffb600"/>
            <path id="Trazado_42461" data-name="Trazado 42461" d="M.989,2.044A1.006,1.006,0,0,1,0,1.021,1.006,1.006,0,0,1,.99,0a1.006,1.006,0,0,1,.989,1.022,1.007,1.007,0,0,1-.99,1.023" transform="translate(23.585 0)" fill="#f40000"/>
            <path id="Trazado_42462" data-name="Trazado 42462" d="M.392.811A.4.4,0,0,1,0,.405.4.4,0,0,1,.392,0,.4.4,0,0,1,.785.4.4.4,0,0,1,.392.811" transform="translate(32.736 2.935)" fill="#ffb600"/>
            <path id="Trazado_42463" data-name="Trazado 42463" d="M.392.811A.4.4,0,0,1,0,.405.4.4,0,0,1,.392,0,.4.4,0,0,1,.785.4.4.4,0,0,1,.392.811" transform="translate(44.805 9.08)" fill="#f40000"/>
          </g>
          <path id="Trazado_42491" data-name="Trazado 42491" d="M.5,1.039A.511.511,0,0,1,0,.519.511.511,0,0,1,.5,0a.511.511,0,0,1,.5.518.512.512,0,0,1-.5.52" transform="translate(56.622 7.377)" fill="#f40000"/>
          <g id="Grupo_19550" data-name="Grupo 19550" transform="translate(3.004 0)">
            <path id="Trazado_42450" data-name="Trazado 42450" d="M19.891,3.913c-1.174,0-1.747-.928-2.252-1.746C17.18,1.424,16.784.783,16.025.783s-1.154.642-1.612,1.385c-.506.818-1.078,1.746-2.252,1.746S10.415,2.985,9.91,2.168C9.452,1.424,9.056.783,8.3.783s-1.154.641-1.613,1.385c-.5.818-1.077,1.746-2.251,1.746S2.687,2.985,2.182,2.168C1.723,1.424,1.327.783.569.783A.385.385,0,0,1,.19.391.385.385,0,0,1,.569,0C1.743,0,2.316.928,2.821,1.747c.458.743.854,1.384,1.613,1.384s1.154-.641,1.613-1.384C6.551.928,7.123,0,8.3,0s1.746.928,2.251,1.747c.458.743.855,1.384,1.613,1.384s1.154-.641,1.613-1.384C14.279.928,14.852,0,16.026,0s1.746.928,2.252,1.747c.458.743.854,1.384,1.613,1.384a.392.392,0,0,1,0,.783m-7.54,6.131a.386.386,0,0,0-.379-.392c-.758,0-1.154-.642-1.613-1.384C9.854,7.45,9.282,6.522,8.108,6.522S6.361,7.45,5.856,8.269C5.4,9.012,5,9.653,4.244,9.653S3.09,9.012,2.631,8.269C2.126,7.45,1.553,6.522.379,6.522a.392.392,0,0,0,0,.783c.759,0,1.154.642,1.613,1.384.5.818,1.077,1.746,2.251,1.746S5.991,9.508,6.5,8.69c.458-.743.854-1.384,1.612-1.384s1.155.642,1.613,1.384c.5.818,1.078,1.746,2.251,1.746a.385.385,0,0,0,.379-.391" transform="translate(14.951 9.559)" fill="#ffb600"/>
            <path id="Trazado_42459" data-name="Trazado 42459" d="M1.321,2.731A1.344,1.344,0,0,1,0,1.365,1.344,1.344,0,0,1,1.322,0,1.344,1.344,0,0,1,2.643,1.365,1.346,1.346,0,0,1,1.321,2.731m0-2.021a.646.646,0,0,0-.634.657.646.646,0,0,0,.636.655.646.646,0,0,0,.634-.657A.646.646,0,0,0,1.321.71" transform="translate(37.702 0)" fill="#f40000"/>
            <path id="Trazado_42469" data-name="Trazado 42469" d="M.5,1.039A.511.511,0,0,1,0,.519.511.511,0,0,1,.5,0a.511.511,0,0,1,.5.518.512.512,0,0,1-.5.52" transform="translate(34.145 24.293)" fill="#f40000"/>
            <path id="Trazado_42470" data-name="Trazado 42470" d="M.5,1.039A.511.511,0,0,1,0,.519.511.511,0,0,1,.5,0a.511.511,0,0,1,.5.519.512.512,0,0,1-.5.52" transform="translate(0 16.409)" fill="#f40000"/>
            <path id="Trazado_42471" data-name="Trazado 42471" d="M.5,1.039A.511.511,0,0,1,0,.519.511.511,0,0,1,.5,0a.511.511,0,0,1,.5.518.512.512,0,0,1-.5.52" transform="translate(4.018 3.543)" fill="#ffb600"/>
          </g>
          <path id="Trazado_42494" data-name="Trazado 42494" d="M1.236,2.554A1.257,1.257,0,0,1,0,1.277,1.257,1.257,0,0,1,1.237,0,1.257,1.257,0,0,1,2.472,1.277,1.259,1.259,0,0,1,1.236,2.554m0-1.891a.6.6,0,0,0-.593.614.6.6,0,0,0,.594.613.6.6,0,0,0,.593-.614A.6.6,0,0,0,1.236.664" transform="translate(14.198 56.176)" fill="#ffb600"/>
          <path id="Trazado_42492" data-name="Trazado 42492" d="M.47.972A.478.478,0,0,1,0,.486.478.478,0,0,1,.47,0,.478.478,0,0,1,.94.485.479.479,0,0,1,.47.972" transform="translate(23.176 41.093)" fill="#fff"/>
          <path id="Trazado_42493" data-name="Trazado 42493" d="M0,3.319V6.284l1.629-1.4L1.52,0Z" transform="translate(31.044 8.604)" fill="#dd0606"/>
        </g>
        <path id="Trazado_42499" data-name="Trazado 42499" d="M1819.249,60.285a1.425,1.425,0,1,1-1.381,1.424,1.4,1.4,0,0,1,1.381-1.424h0m-9.807,1.424a1.38,1.38,0,1,0,1.38-1.424,1.4,1.4,0,0,0-1.38,1.424v0m-8.422,0a1.379,1.379,0,1,0,1.379-1.424h0a1.4,1.4,0,0,0-1.378,1.421v0M1694.264,53.1a1.433,1.433,0,0,0-.459-1.054c-.2.805-.4,1.614-.581,2.43a1.416,1.416,0,0,0,1.04-1.376m98.331,8.611a1.381,1.381,0,1,0,1.381-1.424h0a1.4,1.4,0,0,0-1.38,1.42v0m-99.712,1.423a1.425,1.425,0,0,0,.007-2.848,1.345,1.345,0,0,0-.729.213c-.1.733-.188,1.469-.265,2.208a1.348,1.348,0,0,0,.986.427m40.743-1.423a1.38,1.38,0,1,0,1.38-1.424h0a1.4,1.4,0,0,0-1.379,1.421v0m25.273,0a1.381,1.381,0,1,0,1.382-1.424h0A1.4,1.4,0,0,0,1758.9,61.7v.005m-8.426,0a1.381,1.381,0,1,0,1.382-1.424h0a1.4,1.4,0,0,0-1.381,1.422v0m-8.423,0a1.379,1.379,0,1,0,1.379-1.424h0a1.4,1.4,0,0,0-1.379,1.423h0m25.275,0a1.422,1.422,0,1,0,0-.006v.006m42.118-8.611a1.38,1.38,0,1,0,1.381-1.428,1.4,1.4,0,0,0-1.381,1.428m-33.695,8.611a1.38,1.38,0,1,0,1.381-1.424h0a1.4,1.4,0,0,0-1.379,1.419v.005m8.424,0a1.42,1.42,0,1,0,0-.01v.01M1792.6,53.1a1.381,1.381,0,1,0,1.38-1.428,1.4,1.4,0,0,0-1.38,1.428m-25.27,0a1.379,1.379,0,1,0,1.378-1.428,1.4,1.4,0,0,0-1.378,1.428m8.423,0a1.38,1.38,0,1,0,1.379-1.428,1.4,1.4,0,0,0-1.379,1.428m-67.394,0a1.379,1.379,0,1,0,1.376-1.428,1.4,1.4,0,0,0-1.376,1.428h0m92.667,0a1.38,1.38,0,1,0,1.379-1.428,1.4,1.4,0,0,0-1.379,1.428m16.847,0a1.38,1.38,0,1,0,1.381-1.428,1.4,1.4,0,0,0-1.381,1.428m-33.7,0a1.38,1.38,0,1,0,1.382-1.428,1.4,1.4,0,0,0-1.382,1.428v0m-58.971,0a1.381,1.381,0,1,0,1.38-1.428,1.4,1.4,0,0,0-1.38,1.428m-8.422,0a1.381,1.381,0,1,0,1.379-1.428,1.4,1.4,0,0,0-1.379,1.428m16.848,0a1.38,1.38,0,1,0,1.379-1.428,1.4,1.4,0,0,0-1.379,1.428m25.274,0a1.381,1.381,0,1,0,1.379-1.428A1.4,1.4,0,0,0,1758.9,53.1m-16.85,0a1.379,1.379,0,1,0,1.379-1.428,1.4,1.4,0,0,0-1.379,1.428m8.423,0a1.381,1.381,0,1,0,1.381-1.428,1.4,1.4,0,0,0-1.381,1.428m-50.545,0a1.381,1.381,0,1,0,1.378-1.428h0a1.406,1.406,0,0,0-1.378,1.428m25.272,8.611a1.381,1.381,0,1,0,1.382-1.424h0a1.4,1.4,0,0,0-1.38,1.421v0m-8.422,8.613a1.381,1.381,0,1,0,1.38-1.426h0a1.4,1.4,0,0,0-1.379,1.426h0m-16.849,0a1.381,1.381,0,1,0,1.38-1.426h0a1.4,1.4,0,0,0-1.378,1.426m25.272,0a1.381,1.381,0,1,0,1.38-1.426,1.4,1.4,0,0,0-1.38,1.426h0m-32.318,10.04a1.427,1.427,0,0,0,0-2.853,1.359,1.359,0,0,0-.991.431c.077.741.167,1.473.265,2.206a1.353,1.353,0,0,0,.721.217m40.743-10.04a1.38,1.38,0,1,0,1.379-1.426,1.4,1.4,0,0,0-1.379,1.426h0m50.546,8.611a1.38,1.38,0,1,0,1.383-1.425,1.4,1.4,0,0,0-1.383,1.425h0m-42.122-8.611a1.38,1.38,0,1,0,1.378-1.426,1.4,1.4,0,0,0-1.378,1.426m33.7,8.611a1.38,1.38,0,1,0,1.38-1.425h0a1.4,1.4,0,0,0-1.379,1.425m33.695,0a1.38,1.38,0,1,0,1.38-1.425,1.4,1.4,0,0,0-1.38,1.425m-16.847,0a1.381,1.381,0,1,0,1.381-1.425h0a1.405,1.405,0,0,0-1.38,1.425m25.273,0a1.38,1.38,0,1,0,1.381-1.425,1.4,1.4,0,0,0-1.381,1.425m-16.847,0a1.379,1.379,0,1,0,1.379-1.425,1.4,1.4,0,0,0-1.379,1.425m-92.669-8.611a1.38,1.38,0,1,0,1.377-1.426h0a1.4,1.4,0,0,0-1.376,1.422v0m-16.85,0a1.381,1.381,0,1,0,1.38-1.426h0a1.4,1.4,0,0,0-1.379,1.425h0m8.424-8.613a1.381,1.381,0,1,0,1.382-1.424h0a1.4,1.4,0,0,0-1.378,1.423v0m117.94,8.613a1.38,1.38,0,1,0,1.381-1.426,1.4,1.4,0,0,0-1.381,1.426m-8.426,0a1.38,1.38,0,1,0,1.38-1.426,1.4,1.4,0,0,0-1.38,1.426m-101.088-8.613a1.38,1.38,0,1,0,1.379-1.424h0a1.4,1.4,0,0,0-1.376,1.417v.007m8.424,0a1.381,1.381,0,1,0,1.381-1.424h0a1.4,1.4,0,0,0-1.379,1.421v0m50.547,8.613A1.379,1.379,0,1,0,1768.7,68.9a1.4,1.4,0,0,0-1.378,1.426v0m8.423,0a1.38,1.38,0,1,0,1.379-1.426,1.4,1.4,0,0,0-1.379,1.426v0m-25.275,0a1.381,1.381,0,1,0,1.381-1.426,1.4,1.4,0,0,0-1.381,1.426m50.548,0A1.38,1.38,0,1,0,1802.4,68.9a1.4,1.4,0,0,0-1.379,1.426m-42.121,0a1.381,1.381,0,1,0,1.38-1.426h0a1.4,1.4,0,0,0-1.379,1.424v0m33.7,0a1.381,1.381,0,1,0,1.38-1.426,1.4,1.4,0,0,0-1.38,1.426v0m-8.424,0a1.423,1.423,0,1,0,0-.007v.007m-50.545-60.287a1.38,1.38,0,1,0,1.379-1.425,1.4,1.4,0,0,0-1.379,1.425v0m67.4,25.837a1.422,1.422,0,1,0,0-.008v.008M1758.9,18.648a1.381,1.381,0,1,0,1.379-1.428,1.4,1.4,0,0,0-1.379,1.428m-16.85,0a1.38,1.38,0,1,0,1.379-1.428,1.4,1.4,0,0,0-1.379,1.428m8.424,0a1.381,1.381,0,1,0,1.381-1.428,1.4,1.4,0,0,0-1.381,1.428m25.275,0a1.38,1.38,0,1,0,1.379-1.428,1.4,1.4,0,0,0-1.379,1.428m16.847,0a1.381,1.381,0,1,0,1.38-1.428,1.4,1.4,0,0,0-1.38,1.428m11.183,0a1.427,1.427,0,1,0,0,.005v-.005m-26.651-15.8a1.386,1.386,0,0,0,1.33-1.068c-.882-.247-1.768-.483-2.668-.7a1.54,1.54,0,0,0-.041.339,1.4,1.4,0,0,0,1.379,1.426m42.121,100.493a1.427,1.427,0,0,0,0,2.853,1.266,1.266,0,0,0,.446-.084c.309-.539.612-1.085.9-1.637a1.39,1.39,0,0,0-1.346-1.131m-85.623-84.695a1.38,1.38,0,1,0,1.379-1.428,1.4,1.4,0,0,0-1.379,1.428m50.546,0a1.38,1.38,0,1,0,1.383-1.428,1.4,1.4,0,0,0-1.383,1.428v0m-67.394,0a1.381,1.381,0,1,0,1.379-1.428,1.4,1.4,0,0,0-1.379,1.428m8.422,0a1.381,1.381,0,1,0,1.381-1.428,1.4,1.4,0,0,0-1.381,1.428m42.125,0a1.379,1.379,0,1,0,1.378-1.428,1.4,1.4,0,0,0-1.378,1.428m25.27-8.614a1.423,1.423,0,1,0,0-.005v.005m-42.122-8.609a1.381,1.381,0,1,0,2.76-.005,1.381,1.381,0,1,0-2.76.005m33.7,8.609a1.421,1.421,0,1,0,0-.01v.01m-58.972,0a1.381,1.381,0,1,0,1.381-1.425h0a1.4,1.4,0,0,0-1.381,1.422v0m33.7-8.609a1.381,1.381,0,1,0,2.76,0,1.381,1.381,0,1,0-2.76,0h0m8.426,0a1.379,1.379,0,1,0,2.756-.009,1.379,1.379,0,1,0-2.756.008h0m-23.9,1.426a1.4,1.4,0,0,0,1.379-1.426,1.257,1.257,0,0,0-.045-.339c-.9.213-1.781.45-2.662.7a1.384,1.384,0,0,0,1.327,1.068m7.045,7.184a1.381,1.381,0,1,0,1.381-1.425,1.4,1.4,0,0,0-1.381,1.425v0m-8.424,0a1.38,1.38,0,1,0,1.379-1.425,1.4,1.4,0,0,0-1.379,1.425v0m25.276,68.9a1.379,1.379,0,1,0,1.378-1.425,1.4,1.4,0,0,0-1.378,1.425m0-68.9a1.423,1.423,0,1,0,0-.006v.006m8.423,0a1.38,1.38,0,1,0,1.38-1.425h0a1.4,1.4,0,0,0-1.379,1.42v.006m-16.849,0a1.381,1.381,0,1,0,1.381-1.425h0a1.4,1.4,0,0,0-1.379,1.42v.005m58.969,34.452a1.38,1.38,0,1,0,1.381-1.427,1.4,1.4,0,0,0-1.381,1.427v0m-42.12,0a1.38,1.38,0,1,0,1.379-1.427,1.4,1.4,0,0,0-1.379,1.427v0m-8.423,0a1.425,1.425,0,1,0,0-.006v.006m16.847,0a1.423,1.423,0,1,0,0-.009v.009m8.424,0a1.381,1.381,0,1,0,1.38-1.427,1.4,1.4,0,0,0-1.38,1.427v0m8.426,0a1.38,1.38,0,1,0,1.379-1.427,1.4,1.4,0,0,0-1.379,1.427v0m-42.122,0a1.381,1.381,0,1,0,1.379-1.427,1.4,1.4,0,0,0-1.379,1.427v0m-50.545,0a1.425,1.425,0,1,0,0-.006v.006m8.424,0a1.381,1.381,0,1,0,1.379-1.427,1.4,1.4,0,0,0-1.379,1.427v0m8.422,0a1.381,1.381,0,1,0,1.381-1.427,1.4,1.4,0,0,0-1.381,1.427v0m-25.272,0a1.381,1.381,0,1,0,1.379-1.427h0a1.4,1.4,0,0,0-1.378,1.426h0m50.545,0a1.381,1.381,0,1,0,1.381-1.427,1.4,1.4,0,0,0-1.381,1.427h0m-16.847,0a1.38,1.38,0,1,0,1.379-1.427,1.4,1.4,0,0,0-1.379,1.427v0m8.423,0a1.38,1.38,0,1,0,1.379-1.427,1.4,1.4,0,0,0-1.379,1.427h0m67.393-8.616a1.421,1.421,0,1,0,0-.008v.008m-33.695,0a1.38,1.38,0,1,0,1.38-1.425h0a1.4,1.4,0,0,0-1.379,1.414v.01m-8.423,0a1.42,1.42,0,1,0,0-.011v.011m42.118,8.616a1.38,1.38,0,1,0,1.38-1.427,1.4,1.4,0,0,0-1.38,1.427v0m-58.969-8.616a1.381,1.381,0,1,0,1.381-1.425h0a1.4,1.4,0,0,0-1.381,1.418v.007m42.122,0a1.381,1.381,0,1,0,1.381-1.425h0a1.4,1.4,0,0,0-1.38,1.415v.01m-8.424,0a1.418,1.418,0,1,0,0-.015v.015m-25.272,0a1.381,1.381,0,1,0,1.381-1.425h0a1.4,1.4,0,0,0-1.379,1.414v.01m-42.121,0a1.381,1.381,0,1,0,1.381-1.425h0a1.4,1.4,0,0,0-1.379,1.416v.008m-8.424,0a1.38,1.38,0,1,0,1.378-1.425h0a1.4,1.4,0,0,0-1.376,1.413v.012m25.272,0a1.38,1.38,0,1,0,1.38-1.425h0a1.4,1.4,0,0,0-1.379,1.416v.008m-8.426,0a1.381,1.381,0,1,0,1.382-1.425h0a1.4,1.4,0,0,0-1.381,1.417v.008m16.849,0a1.422,1.422,0,1,0,0-.006v.006m28.032,94.737a1.379,1.379,0,1,0-1.379,1.424,1.4,1.4,0,0,0,1.379-1.424m-42.12-103.349a1.381,1.381,0,1,0-1.38,1.426,1.4,1.4,0,0,0,1.38-1.426h0m99.711,33.026a1.424,1.424,0,0,0,0,2.847,1.356,1.356,0,0,0,.982-.427c-.075-.743-.166-1.475-.263-2.208a1.337,1.337,0,0,0-.721-.213m-91.287-33.026a1.38,1.38,0,1,0-1.38,1.426,1.4,1.4,0,0,0,1.38-1.426v0m8.422,0a1.38,1.38,0,1,0-1.379,1.426,1.4,1.4,0,0,0,1.379-1.426v0m73.061,8.612a1.375,1.375,0,0,0,2.727.294c-.288-.549-.591-1.094-.9-1.634a1.294,1.294,0,0,0-.446-.084,1.4,1.4,0,0,0-1.381,1.425m8.424,17.227a1.419,1.419,0,0,0,1.039,1.376c-.178-.816-.375-1.625-.582-2.43a1.437,1.437,0,0,0-.458,1.054M1719.538,27.259a1.381,1.381,0,1,0-1.38,1.426,1.4,1.4,0,0,0,1.38-1.426h0m67.393,0a1.38,1.38,0,1,0-1.378,1.426h0a1.4,1.4,0,0,0,1.376-1.426m8.424,0a1.381,1.381,0,1,0-1.38,1.426,1.4,1.4,0,0,0,1.38-1.426m8.424,0a1.38,1.38,0,1,0-1.379,1.426,1.4,1.4,0,0,0,1.379-1.426v0m-25.271,0a1.38,1.38,0,1,0-1.38,1.426,1.4,1.4,0,0,0,1.38-1.426m-16.848,0a1.381,1.381,0,1,0-1.381,1.426,1.4,1.4,0,0,0,1.381-1.426m8.422,0a1.379,1.379,0,1,0-1.378,1.426,1.4,1.4,0,0,0,1.378-1.426v0m-16.848,0a1.381,1.381,0,1,0-1.38,1.426h0a1.4,1.4,0,0,0,1.379-1.426m-2.76,86.126a1.381,1.381,0,1,0,1.381-1.428,1.4,1.4,0,0,0-1.381,1.428m8.426,0a1.381,1.381,0,1,0,1.379-1.428,1.4,1.4,0,0,0-1.379,1.428h0m-16.85,0a1.38,1.38,0,1,0,1.378-1.428,1.4,1.4,0,0,0-1.378,1.428m33.7,0a1.38,1.38,0,1,0,1.379-1.428,1.4,1.4,0,0,0-1.379,1.428h0m-42.122,0a1.38,1.38,0,1,0,1.379-1.428,1.4,1.4,0,0,0-1.379,1.428m33.7,0a1.379,1.379,0,1,0,1.378-1.428,1.4,1.4,0,0,0-1.378,1.428h0m60.348-44.49a1.427,1.427,0,1,0,1.38,1.426h0a1.4,1.4,0,0,0-1.38-1.426h0M1725.2,113.385a1.381,1.381,0,1,0,1.381-1.428,1.4,1.4,0,0,0-1.381,1.428m101.092-25.839a1.427,1.427,0,0,0,.458,1.051c.206-.8.4-1.612.582-2.426a1.412,1.412,0,0,0-1.039,1.375m1.38-10.039a1.427,1.427,0,0,0-.021,2.853,1.348,1.348,0,0,0,.742-.217c.1-.732.188-1.465.264-2.206a1.354,1.354,0,0,0-.985-.431M1812.2,113.385a1.38,1.38,0,1,0-1.378,1.427,1.4,1.4,0,0,0,1.378-1.427v0m-103.847,0a1.38,1.38,0,1,0,1.376-1.428,1.4,1.4,0,0,0-1.376,1.428v0m8.424,0a1.381,1.381,0,1,0,1.379-1.428,1.4,1.4,0,0,0-1.379,1.428m78.578,17.223a1.381,1.381,0,1,0-1.381,1.424h0a1.4,1.4,0,0,0,1.379-1.424M1744.809,122a1.38,1.38,0,1,0-1.379,1.424,1.4,1.4,0,0,0,1.379-1.424m8.426,0a1.381,1.381,0,1,0-1.382,1.424h0a1.407,1.407,0,0,0,1.379-1.424m16.848,0a1.379,1.379,0,1,0-1.379,1.424,1.4,1.4,0,0,0,1.379-1.424m-8.422,0a1.381,1.381,0,1,0-1.382,1.424h0a1.408,1.408,0,0,0,1.381-1.424m-33.7,0a1.381,1.381,0,1,0-1.382,1.424h0a1.408,1.408,0,0,0,1.38-1.424m56.209-8.611a1.38,1.38,0,1,0,1.383-1.428,1.4,1.4,0,0,0-1.383,1.428v0M1736.385,122a1.38,1.38,0,1,0-1.38,1.424h0a1.406,1.406,0,0,0,1.38-1.424m-19.607,0a1.381,1.381,0,1,0,1.379-1.43,1.4,1.4,0,0,0-1.379,1.43v0m87,0a1.38,1.38,0,1,0-1.379,1.424,1.4,1.4,0,0,0,1.379-1.424m-58.971,17.225a1.4,1.4,0,0,0-1.371-1.425,1.384,1.384,0,0,0-1.335,1.062c.881.249,1.768.488,2.662.7a1.256,1.256,0,0,0,.045-.338M1758.9,78.932a1.381,1.381,0,1,0,1.381-1.425h0a1.4,1.4,0,0,0-1.379,1.425M1786.932,122a1.38,1.38,0,1,0-1.38,1.424h0a1.407,1.407,0,0,0,1.376-1.424m-8.423,0a1.38,1.38,0,1,0-1.381,1.424h0a1.408,1.408,0,0,0,1.38-1.424m-1.38,15.8a1.4,1.4,0,0,0-1.379,1.419v.006a1.52,1.52,0,0,0,.041.338c.9-.213,1.786-.451,2.668-.7a1.386,1.386,0,0,0-1.329-1.063m-18.228,1.426a1.381,1.381,0,1,0,1.38-1.426h0a1.4,1.4,0,0,0-1.379,1.426m53.3-111.962a1.38,1.38,0,1,0-1.378,1.426,1.4,1.4,0,0,0,1.378-1.426v0m-61.728,111.962a1.381,1.381,0,1,0,1.381-1.426,1.4,1.4,0,0,0-1.381,1.426m19.608,0a1.423,1.423,0,1,0,0,.005v-.005m16.85-8.613a1.38,1.38,0,1,0-1.38,1.424h0a1.4,1.4,0,0,0,1.376-1.424m-85.625-93.315a1.424,1.424,0,0,0,0-2.847,1.316,1.316,0,0,0-.449.084q-.458.811-.9,1.634a1.387,1.387,0,0,0,1.346,1.128m7.048-10.035a1.38,1.38,0,1,0,1.378-1.425h0a1.4,1.4,0,0,0-1.376,1.423v0m53.305,103.349a1.381,1.381,0,1,0-1.382,1.424h0a1.4,1.4,0,0,0,1.381-1.424m-25.275,0a1.38,1.38,0,1,0-1.38,1.424h0a1.4,1.4,0,0,0,1.38-1.424m16.849,0a1.381,1.381,0,1,0-1.382,1.424h0a1.4,1.4,0,0,0,1.379-1.424m25.274,0a1.38,1.38,0,1,0-1.381,1.424h0a1.4,1.4,0,0,0,1.38-1.424m-33.7,0a1.38,1.38,0,1,0-1.379,1.424,1.4,1.4,0,0,0,1.379-1.424h0m-16.846,0a1.381,1.381,0,1,0-1.382,1.424h0a1.4,1.4,0,0,0,1.38-1.424M1795.356,122a1.381,1.381,0,1,0-1.381,1.424h0a1.409,1.409,0,0,0,1.38-1.424m-61.729-34.45a1.38,1.38,0,1,0,1.379-1.428,1.4,1.4,0,0,0-1.379,1.428v0m8.423,0a1.38,1.38,0,1,0,1.379-1.428,1.4,1.4,0,0,0-1.379,1.428h0m-16.849,0a1.381,1.381,0,1,0,1.381-1.428,1.4,1.4,0,0,0-1.381,1.428v0m33.7,0a1.426,1.426,0,1,0,0-.005v.005m8.426,0a1.426,1.426,0,1,0,0-.006v.006m-50.547,0a1.381,1.381,0,1,0,1.379-1.428,1.4,1.4,0,0,0-1.379,1.428v0m33.7,0a1.381,1.381,0,1,0,1.381-1.428,1.4,1.4,0,0,0-1.381,1.428v0m58.969,8.612a1.38,1.38,0,1,0,1.38-1.426,1.4,1.4,0,0,0-1.38,1.426v0m-101.089-8.612a1.426,1.426,0,1,0,0-.007v.007m92.667,8.612a1.38,1.38,0,1,0,1.379-1.426,1.4,1.4,0,0,0-1.379,1.426v0m16.848,0a1.38,1.38,0,1,0,1.381-1.426,1.4,1.4,0,0,0-1.381,1.426v0m-117.94-8.612a1.381,1.381,0,1,0,1.378-1.428,1.4,1.4,0,0,0-1.378,1.428h0m-5.664,0a1.408,1.408,0,0,0-1.04-1.375c.177.814.377,1.622.581,2.426a1.425,1.425,0,0,0,.459-1.051m14.09-8.614a1.38,1.38,0,1,0,1.378-1.425h0a1.4,1.4,0,0,0-1.376,1.425m25.272,0a1.38,1.38,0,1,0,1.38-1.425h0a1.405,1.405,0,0,0-1.379,1.425M1792.6,96.159a1.381,1.381,0,1,0,1.38-1.426,1.4,1.4,0,0,0-1.38,1.426v0m-75.817-17.226a1.381,1.381,0,1,0,1.381-1.425h0a1.405,1.405,0,0,0-1.379,1.425m58.97,8.614a1.426,1.426,0,1,0,0-.005v.005m-33.7-8.614a1.38,1.38,0,1,0,1.379-1.425,1.4,1.4,0,0,0-1.379,1.425m8.424,0a1.381,1.381,0,1,0,1.381-1.425,1.4,1.4,0,0,0-1.381,1.425m-25.273,0a1.381,1.381,0,1,0,1.382-1.425h0a1.406,1.406,0,0,0-1.38,1.425m67.395,8.614a1.381,1.381,0,1,0,1.38-1.428,1.4,1.4,0,0,0-1.38,1.428v0m8.426,0a1.379,1.379,0,1,0,1.378-1.428,1.4,1.4,0,0,0-1.378,1.428v0m-16.849,0a1.424,1.424,0,1,0,0-.01v.01m-84.243-8.614a1.381,1.381,0,1,0,1.381-1.425h0a1.405,1.405,0,0,0-1.378,1.425m117.94,8.614a1.38,1.38,0,1,0,1.381-1.428,1.4,1.4,0,0,0-1.381,1.428v0m-8.426,0a1.38,1.38,0,1,0,1.38-1.428,1.4,1.4,0,0,0-1.38,1.428v0m-8.422,17.224a1.379,1.379,0,1,0,1.378-1.427,1.4,1.4,0,0,0-1.378,1.427h0m-33.7,0a1.379,1.379,0,1,0,1.378-1.427,1.4,1.4,0,0,0-1.378,1.427v0m-8.426,0a1.381,1.381,0,1,0,1.379-1.427,1.4,1.4,0,0,0-1.379,1.427v0m16.849,0a1.38,1.38,0,1,0,1.379-1.427,1.4,1.4,0,0,0-1.379,1.427v0m-25.275,0a1.381,1.381,0,1,0,1.381-1.427,1.4,1.4,0,0,0-1.381,1.427m33.7,0a1.424,1.424,0,1,0,0-.008v.008m8.424,0a1.381,1.381,0,1,0,1.38-1.427,1.4,1.4,0,0,0-1.38,1.427v0m-84.241,0a1.38,1.38,0,1,0,1.376-1.427,1.4,1.4,0,0,0-1.376,1.427v0m8.424,0a1.381,1.381,0,1,0,1.379-1.427,1.4,1.4,0,0,0-1.379,1.427h0m25.271,0a1.38,1.38,0,1,0,1.379-1.427,1.4,1.4,0,0,0-1.379,1.427m50.546,8.615a1.381,1.381,0,1,0,1.38-1.428,1.4,1.4,0,0,0-1.38,1.428m16.847-8.615a1.38,1.38,0,1,0,1.38-1.427,1.4,1.4,0,0,0-1.38,1.427h0m-75.817,0a1.38,1.38,0,1,0,1.379-1.427,1.4,1.4,0,0,0-1.379,1.427h0m-8.426,0a1.381,1.381,0,1,0,1.38-1.427,1.4,1.4,0,0,0-1.38,1.427h0m-16.846-8.612a1.38,1.38,0,1,0,1.378-1.426h0a1.4,1.4,0,0,0-1.376,1.42v.006m50.545,0a1.381,1.381,0,1,0,1.38-1.426h0a1.4,1.4,0,0,0-1.379,1.421v0m-8.426,0a1.381,1.381,0,1,0,1.381-1.426,1.4,1.4,0,0,0-1.381,1.426h0m-8.423,0a1.379,1.379,0,1,0,1.379-1.426,1.4,1.4,0,0,0-1.379,1.426h0m33.7,0a1.38,1.38,0,1,0,1.38-1.426h0a1.4,1.4,0,0,0-1.379,1.421v0m-8.423,0a1.424,1.424,0,1,0,0-.005v.005m-33.7,0a1.38,1.38,0,1,0,1.379-1.426,1.4,1.4,0,0,0-1.379,1.426v0m67.4,17.227a1.379,1.379,0,1,0,1.378-1.428,1.4,1.4,0,0,0-1.378,1.428m-98.332-8.615a1.376,1.376,0,0,0-2.729-.3q.439.828.9,1.637a1.282,1.282,0,0,0,.449.084,1.4,1.4,0,0,0,1.383-1.425h0m-2.761-8.612a1.381,1.381,0,1,0,1.38-1.426h0a1.4,1.4,0,0,0-1.378,1.425h0m84.243,0a1.422,1.422,0,1,0,0-.009v.009m-67.394,0a1.381,1.381,0,1,0,1.38-1.426h0a1.4,1.4,0,0,0-1.379,1.423v0m8.422,0a1.381,1.381,0,1,0,1.381-1.426h0a1.4,1.4,0,0,0-1.38,1.423v0" transform="translate(-1018.703 0.003)" fill="#dd0606"/>
        <g id="Grupo_19612" data-name="Grupo 19612" transform="translate(468.41 87.794)">
          <path id="Trazado_42455-2" data-name="Trazado 42455" d="M1727.444,1234.087a3.141,3.141,0,1,1,3.04-3.141,3.09,3.09,0,0,1-3.04,3.141" transform="translate(-1717.04 -1216.915)" fill="#ffb600"/>
          <path id="Trazado_42456-2" data-name="Trazado 42456" d="M1829.515,1202.193a3.274,3.274,0,1,1,3.169-3.274,3.221,3.221,0,0,1-3.169,3.274m0-4.844a1.573,1.573,0,1,0,1.523,1.571h0a1.549,1.549,0,0,0-1.523-1.571" transform="translate(-1793.199 -1193.159)" fill="#ffb600"/>
          <path id="Trazado_42464-2" data-name="Trazado 42464" d="M1696.485,1188.61a1.245,1.245,0,1,1,1.205-1.245,1.225,1.225,0,0,1-1.205,1.245" transform="translate(-1695.281 -1186.121)" fill="#f40000"/>
          <path id="Trazado_42465-2" data-name="Trazado 42465" d="M1897.838,1252.441a1.245,1.245,0,1,1,1.205-1.246,1.225,1.225,0,0,1-1.205,1.246" transform="translate(-1845.707 -1233.273)" fill="#f40000"/>
        </g>
        <path id="Trazado_42500" data-name="Trazado 42500" d="M206.548,817.807a1.453,1.453,0,1,0,1.452-1.5,1.477,1.477,0,0,0-1.452,1.5Zm0-5.908A1.453,1.453,0,1,0,208,810.4h0a1.476,1.476,0,0,0-1.452,1.5h0m6.126,5.908a1.453,1.453,0,1,0,1.453-1.5,1.477,1.477,0,0,0-1.453,1.5v0m0-5.908a1.453,1.453,0,1,0,1.453-1.5,1.477,1.477,0,0,0-1.453,1.5h0m6.127,5.908a1.453,1.453,0,1,0,1.453-1.5,1.477,1.477,0,0,0-1.453,1.5v0m0-5.908a1.453,1.453,0,1,0,1.453-1.5,1.477,1.477,0,0,0-1.453,1.5" transform="translate(-220.548 -700.929)" fill="#ffb600"/>
        <path id="Trazado_42450-2" data-name="Trazado 42450" d="M327.436,431.288c-1.711,0-2.547-1.353-3.282-2.545-.668-1.083-1.245-2.019-2.351-2.019s-1.682.935-2.35,2.019c-.737,1.192-1.571,2.545-3.282,2.545s-2.545-1.353-3.281-2.545c-.668-1.083-1.245-2.019-2.35-2.019s-1.683.935-2.351,2.019c-.736,1.192-1.57,2.545-3.281,2.545s-2.545-1.353-3.282-2.545c-.668-1.083-1.245-2.019-2.351-2.019a.571.571,0,0,1,0-1.141c1.711,0,2.547,1.353,3.282,2.546.668,1.083,1.245,2.017,2.35,2.017s1.683-.935,2.351-2.017c.736-1.193,1.57-2.546,3.282-2.546s2.545,1.353,3.281,2.546c.668,1.083,1.246,2.017,2.35,2.017s1.682-.935,2.351-2.017c.736-1.193,1.571-2.546,3.281-2.546s2.545,1.353,3.282,2.546c.668,1.083,1.245,2.017,2.351,2.017a.571.571,0,0,1,0,1.141m-10.99,8.937a.562.562,0,0,0-.552-.571c-1.105,0-1.682-.935-2.351-2.018-.736-1.193-1.571-2.546-3.282-2.546s-2.545,1.353-3.281,2.546c-.668,1.083-1.245,2.018-2.351,2.018s-1.682-.935-2.351-2.018c-.736-1.193-1.571-2.546-3.282-2.546a.571.571,0,0,0,0,1.141c1.106,0,1.683.935,2.351,2.018.736,1.192,1.57,2.545,3.281,2.545s2.547-1.353,3.282-2.545c.668-1.083,1.245-2.018,2.35-2.018s1.683.935,2.351,2.018c.736,1.192,1.571,2.545,3.281,2.545a.562.562,0,0,0,.552-.57" transform="translate(317.471 -322.415)" fill="#ffb600"/>
        <path id="Trazado_42501" data-name="Trazado 42501" d="M355.047,945.833A4.837,4.837,0,1,1,359.729,941a4.759,4.759,0,0,1-4.682,4.837m0-7.157A2.324,2.324,0,1,0,357.3,941a2.287,2.287,0,0,0-2.25-2.321" transform="translate(-34.269 -841.957)" fill="#ffb600"/>
      </g>
    </g>
  </g>
</svg>
