<svg id="ic-bono-bienvenida" xmlns="http://www.w3.org/2000/svg" xmlns:xlink="http://www.w3.org/1999/xlink" width="90" height="90" viewBox="0 0 90 90">
  <defs>
    <clipPath id="clip-path">
      <rect id="Rectángulo_21366" data-name="Rectángulo 21366" width="90" height="90" fill="none"/>
    </clipPath>
  </defs>
  <g id="Grupo_19224" data-name="Grupo 19224" clip-path="url(#clip-path)">
    <path id="Trazado_41648" data-name="Trazado 41648" d="M90,45A45,45,0,1,1,45,0,45,45,0,0,1,90,45" fill="#f40000"/>
    <path id="Trazado_41649" data-name="Trazado 41649" d="M41.142,63.648c1.072.506,3.145,1.843,3.827,2.018s1.111.256,1.255.281.43.1.833.16a9.949,9.949,0,0,0,1.453.112,7.081,7.081,0,0,0,1.345-.121,4.549,4.549,0,0,0,1.3-.448A6.343,6.343,0,0,0,52.7,64.457a8.718,8.718,0,0,0,.982-1.226,6.822,6.822,0,0,0,1.39-.063,3.73,3.73,0,0,0,1.466-.525,3.518,3.518,0,0,0,1.231-1.436,5.471,5.471,0,0,0,.472-1.588,6.5,6.5,0,0,0,1.377-.2,3.571,3.571,0,0,0,1.33-.641,3.9,3.9,0,0,0,1.114-1.439,4.473,4.473,0,0,0,.371-1.475,4.537,4.537,0,0,0,2.1-.321,3.634,3.634,0,0,0,1.781-1.657,3.955,3.955,0,0,0,.509-1.88,3.711,3.711,0,0,0-.48-1.826,10.171,10.171,0,0,0,.855-.552,11.148,11.148,0,0,0,.969-.786c.221-.2.412-.384.582-.554s.32-.329.461-.476.272-.285.41-.421.282-.271.445-.412l.4.718.4.719a2.139,2.139,0,0,0,.772.788,2.08,2.08,0,0,0,1.056.289,2.021,2.021,0,0,0,.558-.078,2.073,2.073,0,0,0,.518-.226L76,47.831l2.229-1.358a2.133,2.133,0,0,0,.952-1.3,2.18,2.18,0,0,0-.207-1.611l-5.486-9.742L68,24.078a2.113,2.113,0,0,0-.771-.785,2.067,2.067,0,0,0-2.132.014l-2.229,1.358-2.228,1.359a2.133,2.133,0,0,0-.954,1.3,2.177,2.177,0,0,0,.207,1.61l.309.549.31.55a8.883,8.883,0,0,1-1.21.316,4.21,4.21,0,0,1-1.081.069,10.7,10.7,0,0,1-1.219-.192c-.454-.093-.952-.21-1.486-.335-.929-.218-1.972-.464-3.1-.654a21.443,21.443,0,0,0-3.59-.326h-.177a49.928,49.928,0,0,0-6.608.452c-2.237.338-4.187.916-4.884,1.9-.091.129-.192.269-.3.417s-.221.305-.339.466c-.184-.03-.374-.061-.571-.091s-.4-.061-.613-.092c-.612-.091-1.337-.2-1.982-.324a5.855,5.855,0,0,1-1.5-.437c-.242-.137-.583-.341-.975-.581s-.835-.514-1.281-.793l.251-.445.251-.446a2.179,2.179,0,0,0,.208-1.611,2.13,2.13,0,0,0-.952-1.3l-2.23-1.36L24.9,23.306a2.086,2.086,0,0,0-.518-.225A2.06,2.06,0,0,0,23.823,23a2.081,2.081,0,0,0-1.057.289,2.108,2.108,0,0,0-.77.787L16.51,33.822l-5.485,9.743a2.181,2.181,0,0,0-.206,1.61,2.142,2.142,0,0,0,.952,1.3L14,47.835l2.23,1.358a2.069,2.069,0,0,0,2.131.013,2.121,2.121,0,0,0,.772-.787l.44-.783.441-.783.4.444.4.443c.063.079,2.261,2.366,2.592,2.778M60.917,30.747,65.282,38.5l4.189,7.439M38.034,66.306a1.632,1.632,0,0,1-.759.571,2.033,2.033,0,0,1-.693.119,2.542,2.542,0,0,1-.906-.174,3.115,3.115,0,0,1-.851-.5,3.247,3.247,0,0,1-.889-1.153,2.845,2.845,0,0,1-.267-1.308,2.277,2.277,0,0,1,.1-.575,1.727,1.727,0,0,1,.255-.507v0h0l.144-.195.143-.195.516-.7.515-.7L36.4,59.55l1.059-1.438a1.639,1.639,0,0,1,.763-.573,2.013,2.013,0,0,1,.693-.12,2.512,2.512,0,0,1,.9.175,3.08,3.08,0,0,1,.852.5,3.244,3.244,0,0,1,1.1,1.763,2.176,2.176,0,0,1-.3,1.782l-.556.754-.555.753-1.017,1.379L38.33,65.9l-.148.2Zm-6.251-1.653a2.522,2.522,0,0,1-.906-.175,3.107,3.107,0,0,1-.853-.5,3.3,3.3,0,0,1-.841-1.046,2.942,2.942,0,0,1-.326-1.2,2.194,2.194,0,0,1,.021-.391,2.322,2.322,0,0,1,.194-.653,1.492,1.492,0,0,1,.152-.258l.6-.811.6-.812,2.267-3.075,2.267-3.075a1.511,1.511,0,0,1,.21-.235,1.574,1.574,0,0,1,.229-.174,1.785,1.785,0,0,1,.553-.231,2.059,2.059,0,0,1,.461-.053,2.532,2.532,0,0,1,.905.174,3.111,3.111,0,0,1,.849.5,3.249,3.249,0,0,1,1.1,1.765,2.175,2.175,0,0,1-.3,1.783L37.04,58.8l-1.924,2.611-.94,1.277-.94,1.276c-.019.026-.038.049-.058.072l-.061.066a1.66,1.66,0,0,1-.709.456A1.984,1.984,0,0,1,31.783,64.653Zm-7.547-6.382a1.9,1.9,0,0,1,.093-.193,1.513,1.513,0,0,1,.116-.182l.85-1.153.85-1.154.041-.055.042-.056.711-.964.71-.965.007-.01.007-.01,1.943-2.636,1.942-2.637a1.646,1.646,0,0,1,.764-.572,2.048,2.048,0,0,1,.695-.12,2.507,2.507,0,0,1,.9.175,3.1,3.1,0,0,1,.852.5A3.234,3.234,0,0,1,35.866,50a2.181,2.181,0,0,1-.3,1.785L35.41,52l-.155.21q-.191.169-.365.357a4.358,4.358,0,0,0-.329.4l-2.3,3.118-2.3,3.117-.566.768-.567.769a4.552,4.552,0,0,0-.265.4q-.12.207-.222.421a1.714,1.714,0,0,1-.176.167,1.6,1.6,0,0,1-.185.131,1.814,1.814,0,0,1-.537.214,2.092,2.092,0,0,1-.448.05,2.538,2.538,0,0,1-.9-.173,3.067,3.067,0,0,1-.848-.5,3.28,3.28,0,0,1-1.039-1.535A2.416,2.416,0,0,1,24.236,58.271Zm-2.855-4.985a.45.45,0,0,0,.023-.043.252.252,0,0,1,.024-.042l.989-1.342.988-1.341.155-.21.154-.209a1.648,1.648,0,0,1,.763-.572,2.042,2.042,0,0,1,.694-.119,2.538,2.538,0,0,1,.906.174,3.153,3.153,0,0,1,.852.5,3.237,3.237,0,0,1,1.1,1.756,2.177,2.177,0,0,1-.293,1.779l0,.007,0,.005-.445.6-.444.6L26.719,55l-.124.167-.577.783-.578.783a1.614,1.614,0,0,1-.4.388,1.745,1.745,0,0,1-.437.21,2.139,2.139,0,0,1-.337.076,2.1,2.1,0,0,1-.278.019,2.532,2.532,0,0,1-.905-.174,3.064,3.064,0,0,1-.85-.5,3.232,3.232,0,0,1-1.085-1.711A2.237,2.237,0,0,1,21.381,53.286Zm27.126.564L52.6,56.217l5.641,3.4M51.21,49.034l4.737,2.844,6.482,3.987M35.818,33.03l.042.006c-.606.845-1.232,1.737-1.79,2.587a23.882,23.882,0,0,0-1.387,2.336.846.846,0,0,0-.038.087.867.867,0,0,0-.031.09,6.214,6.214,0,0,0-.274,1.559,2.506,2.506,0,0,0,.452,1.59,2.1,2.1,0,0,0,.9.687,3.492,3.492,0,0,0,1.332.231c.106,0,.218,0,.33-.009s.227-.015.339-.026a8.894,8.894,0,0,0,4.947-2.161,13.946,13.946,0,0,0,2.531-2.786l1.009-.321,1.009-.321c.594.3,1.818.935,3.268,1.725s3.127,1.741,4.627,2.682c.048.03.367.237.685.444l.677.442q1.932,1.317,3.408,2.373c.987.7,1.827,1.318,2.528,1.84.472.359.953.728,1.415,1.086s.9.7,1.3,1.015l.028.023.012.009,2.486,1.76m-12.5,12.858-5.776-3.217" fill="none" stroke="#fff" stroke-linecap="round" stroke-linejoin="round" stroke-width="3.14"/>
    <line id="Línea_810" data-name="Línea 810" y1="19.165" x2="11.145" transform="translate(18.361 30.041)" fill="none" stroke="#fff" stroke-linecap="round" stroke-linejoin="round" stroke-width="3.14"/>
  </g>
</svg>
