<svg id="ic-convivencias" xmlns="http://www.w3.org/2000/svg" xmlns:xlink="http://www.w3.org/1999/xlink" width="82" height="82" viewBox="0 0 82 82">
  <defs>
    <clipPath id="clip-path">
      <rect id="Rect치ngulo_23082" data-name="Rect치ngulo 23082" width="78.268" height="51.984" fill="#707070"/>
    </clipPath>
  </defs>
  <rect id="Rect치ngulo_23088" data-name="Rect치ngulo 23088" width="82" height="82" fill="none"/>
  <g id="Grupo_19632" data-name="Grupo 19632" transform="translate(1.65 14.408)">
    <g id="Grupo_19628" data-name="Grupo 19628" transform="translate(0 0)" clip-path="url(#clip-path)">
      <path id="Trazado_42555" data-name="Trazado 42555" d="M54.491,21.437a1,1,0,0,1-.786-.38L50.478,17a1.03,1.03,0,0,1,.152-1.436L54.641,12.3a1,1,0,0,1,1.419.154,1.029,1.029,0,0,1-.152,1.436l-3.226,2.626,2.594,3.259a1.029,1.029,0,0,1-.152,1.435,1,1,0,0,1-.633.226" transform="translate(9.538 2.459)" fill="#707070"/>
      <path id="Trazado_42556" data-name="Trazado 42556" d="M13.532,31.786a1,1,0,0,1-.746-.333,1.03,1.03,0,0,1,.065-1.442l3.06-2.823L13.125,24.1a1.029,1.029,0,0,1,.065-1.442,1,1,0,0,1,1.427.066l3.466,3.846a1.029,1.029,0,0,1-.065,1.443l-3.8,3.51a1,1,0,0,1-.681.266" transform="translate(2.377 4.56)" fill="#707070"/>
      <path id="Trazado_42557" data-name="Trazado 42557" d="M23.325,2.419a10.209,10.209,0,0,1,1.794-.207c.234.022.612.02.742.294s.262.56.076.747a.566.566,0,0,0-.054.463A7.334,7.334,0,0,1,26.678,5a.747.747,0,0,1-.15.72,31.151,31.151,0,0,0,.835,3.338,27.472,27.472,0,0,0,1.872,3.965c1.249,2.411,2.615,4.645,2.971,5.645.2.574.5,1.347.145,1.422.71.152,2.475,7.274,2.177,7.643.314.083.294.7.343,1.3a71.346,71.346,0,0,0,.808,9.076,12.425,12.425,0,0,0,1.7,4.608c.588,1.024,1.507,3.658.425,4.648a15.2,15.2,0,0,1-5.264,1.947,15.775,15.775,0,0,1-5.669.347c-1.365-.4-1.578-3.256-1.438-4.431a11.967,11.967,0,0,0-.182-4.928,77.088,77.088,0,0,0-2.76-8.664c-.193-.573-.459-1.133-.2-1.335-.424-.211-1.535-7.471-1.013-7.886-.362.076-.383-.761-.427-1.365-.069-1.052.307-3.653.576-6.39a24.152,24.152,0,0,0,.228-4.407,31.562,31.562,0,0,0-.55-3.4.738.738,0,0,1-.421-.6,10.267,10.267,0,0,1,.222-1.5.439.439,0,0,0-.307-.386.9.9,0,0,1-.221-.72c.012-.3.359-.453.563-.568a11.54,11.54,0,0,1,1.8-.528l.61-.128M22.91.271l-.35.073-.29.045a13.511,13.511,0,0,0-2.137.638,2.194,2.194,0,0,0-.316.153l-.04.023a2.8,2.8,0,0,0-1.6,2.259,3.119,3.119,0,0,0,.382,1.861c-.036.264-.064.531-.08.794a2.538,2.538,0,0,0,.006.368,2.981,2.981,0,0,0,.6,1.536c.153.8.276,1.609.363,2.416a21.85,21.85,0,0,1-.208,3.923.916.916,0,0,0-.013.1c-.082.831-.173,1.65-.258,2.415a29.665,29.665,0,0,0-.325,4.333l.023.2a5.648,5.648,0,0,0,.277,1.585,16.009,16.009,0,0,0,.107,2.068A26.785,26.785,0,0,0,20,30.538a4.74,4.74,0,0,0,.338,1.591c.026.078.056.155.08.229a.449.449,0,0,0,.033.087,75.267,75.267,0,0,1,2.676,8.412,9.65,9.65,0,0,1,.145,4,.961.961,0,0,0-.015.116c-.2,1.6-.025,5.948,3,6.83a17.781,17.781,0,0,0,6.718-.306,16.516,16.516,0,0,0,6.3-2.484c.947-.871,2.187-3.554-.019-7.387a.17.17,0,0,0-.037-.059,10.135,10.135,0,0,1-1.4-3.783,69.435,69.435,0,0,1-.781-8.787,1.025,1.025,0,0,1-.007-.122c0-.083-.01-.166-.013-.242a4.889,4.889,0,0,0-.308-1.566,17.444,17.444,0,0,0-.374-2.071,39.671,39.671,0,0,0-1.087-3.943,12.089,12.089,0,0,0-.564-1.417,5.854,5.854,0,0,0-.364-1.5l-.056-.16a25.941,25.941,0,0,0-1.659-3.287c-.451-.815-.965-1.739-1.44-2.672-.014-.028-.032-.055-.046-.084a25.248,25.248,0,0,1-1.706-3.575c-.24-.776-.445-1.571-.62-2.369a2.982,2.982,0,0,0-.043-1.656,2.334,2.334,0,0,0-.112-.278c-.132-.272-.275-.537-.431-.792a3.424,3.424,0,0,0-.377-1.7A2.753,2.753,0,0,0,25.387.014l-.043,0a2.269,2.269,0,0,0-.3-.01A12.448,12.448,0,0,0,22.881.26" transform="translate(3.446 0)" fill="#707070"/>
      <path id="Trazado_42558" data-name="Trazado 42558" d="M19.715,29.677a1.021,1.021,0,0,1-.12-.007C10.656,28.6,0,26.408,0,22.037c0-4.073,9.451-6.242,17.378-7.345a1.02,1.02,0,0,1,.275,2.022c-11.471,1.6-15.635,4.057-15.635,5.323,0,1.4,4.745,4.041,17.815,5.6a1.022,1.022,0,0,1-.118,2.035" transform="translate(0 2.99)" fill="#707070"/>
      <path id="Trazado_42559" data-name="Trazado 42559" d="M49.132,29.71a1.022,1.022,0,0,1-.115-2.035c13.279-1.556,18.1-4.225,18.1-5.638,0-1.263-4.151-3.72-15.585-5.317a1.02,1.02,0,0,1,.275-2.022c7.906,1.1,17.328,3.272,17.328,7.339,0,4.642-12.458,6.8-19.885,7.666a.981.981,0,0,1-.118.007" transform="translate(9.134 2.992)" fill="#707070"/>
      <path id="Trazado_42560" data-name="Trazado 42560" d="M52.239,3.462a2.8,2.8,0,0,0-1.6-2.259L50.6,1.18a2.075,2.075,0,0,0-.316-.153A13.668,13.668,0,0,0,48.146.388L47.855.344,47.5.271,47.533.26A12.448,12.448,0,0,0,45.37,0a2.269,2.269,0,0,0-.3.01l-.043,0a2.753,2.753,0,0,0-2.45,1.548,3.424,3.424,0,0,0-.377,1.7c-.156.255-.3.52-.431.792a2.554,2.554,0,0,0-.112.278,2.982,2.982,0,0,0-.043,1.656c-.175.8-.38,1.592-.619,2.368a25.337,25.337,0,0,1-1.707,3.576c-.014.029-.032.057-.046.084-.475.933-.989,1.857-1.44,2.671a25.955,25.955,0,0,0-1.659,3.288l-.056.16a5.854,5.854,0,0,0-.364,1.5,12.089,12.089,0,0,0-.564,1.417,39.669,39.669,0,0,0-1.087,3.943,17.446,17.446,0,0,0-.374,2.071,4.882,4.882,0,0,0-.308,1.565c0,.077-.008.16-.013.243a1.027,1.027,0,0,1-.007.122q-.077,3.113-.439,6.2l.584.87.935,3.339a11.917,11.917,0,0,0,.286-1.293,71.563,71.563,0,0,0,.807-9.076c.049-.6.029-1.22.343-1.3-.3-.37,1.467-7.492,2.177-7.643-.357-.076-.049-.847.145-1.422.356-1,1.722-3.234,2.971-5.645A27.473,27.473,0,0,0,43.051,9.06a31.3,31.3,0,0,0,.835-3.338.747.747,0,0,1-.15-.72,7.334,7.334,0,0,1,.794-1.285.565.565,0,0,0-.054-.463c-.186-.188-.054-.473.076-.747s.508-.272.742-.294a10.122,10.122,0,0,1,1.8.207l-.03.012.61.128a11.536,11.536,0,0,1,1.8.527c.2.116.551.267.563.569a.894.894,0,0,1-.221.719.441.441,0,0,0-.307.388,10.267,10.267,0,0,1,.222,1.5.74.74,0,0,1-.421.6,31.512,31.512,0,0,0-.55,3.4,24.151,24.151,0,0,0,.228,4.407c.269,2.737.645,5.338.576,6.39-.044.6-.064,1.441-.427,1.365.522.415-.589,7.676-1.013,7.886.262.2,0,.762-.2,1.335a77.084,77.084,0,0,0-2.76,8.664,11.961,11.961,0,0,0-.182,4.927c.139,1.176-.073,4.033-1.438,4.432a15.8,15.8,0,0,1-5.669-.347,15.048,15.048,0,0,1-2.94-.822l-1.547.822h-1.72a16.529,16.529,0,0,0,5.776,2.175,17.781,17.781,0,0,0,6.718.306c3.03-.881,3.2-5.229,3-6.83a.963.963,0,0,0-.015-.116,9.649,9.649,0,0,1,.145-4,75.265,75.265,0,0,1,2.676-8.412A.449.449,0,0,0,50,32.358c.025-.073.054-.15.08-.229a4.74,4.74,0,0,0,.338-1.591,26.8,26.8,0,0,0,.941-5.478,15.791,15.791,0,0,0,.107-2.067,5.622,5.622,0,0,0,.277-1.586l.023-.2a29.664,29.664,0,0,0-.325-4.333c-.086-.764-.176-1.584-.258-2.415a.693.693,0,0,0-.013-.1,21.85,21.85,0,0,1-.208-3.923c.088-.806.211-1.616.363-2.416a2.965,2.965,0,0,0,.6-1.536,2.538,2.538,0,0,0,.006-.368c-.015-.264-.044-.531-.08-.794a3.119,3.119,0,0,0,.382-1.861" transform="translate(6.01 0)" fill="#707070"/>
    </g>
  </g>
</svg>
