<svg id="ic-ejecucion" xmlns="http://www.w3.org/2000/svg" xmlns:xlink="http://www.w3.org/1999/xlink" width="82" height="82" viewBox="0 0 82 82">
  <defs>
    <clipPath id="clip-path">
      <rect id="Rect치ngulo_23108" data-name="Rect치ngulo 23108" width="82" height="63.897" fill="#707070"/>
    </clipPath>
  </defs>
  <g id="Grupo_19646" data-name="Grupo 19646" transform="translate(0 8.654)">
    <g id="Grupo_19645" data-name="Grupo 19645" transform="translate(0 0)" clip-path="url(#clip-path)">
      <path id="Trazado_42583" data-name="Trazado 42583" d="M82.96,70.292H9a2.38,2.38,0,0,1-2.313-2.44V12.44A2.38,2.38,0,0,1,9,10a2.378,2.378,0,0,1,2.313,2.44V65.412H82.96a2.444,2.444,0,0,1,0,4.88" transform="translate(-3.273 -10.002)" fill="#707070"/>
      <path id="Trazado_42584" data-name="Trazado 42584" d="M9,44.442A2.38,2.38,0,0,1,6.688,42V38.4A2.38,2.38,0,0,1,9,35.959a2.38,2.38,0,0,1,2.313,2.44V42A2.38,2.38,0,0,1,9,44.442" transform="translate(-3.273 19.455)" fill="#707070"/>
      <path id="Trazado_42585" data-name="Trazado 42585" d="M16.587,44.442A2.38,2.38,0,0,1,14.274,42V38.4a2.316,2.316,0,1,1,4.625,0V42a2.38,2.38,0,0,1-2.313,2.44" transform="translate(4.49 19.455)" fill="#707070"/>
      <path id="Trazado_42586" data-name="Trazado 42586" d="M24.172,44.442A2.38,2.38,0,0,1,21.859,42V38.4a2.316,2.316,0,1,1,4.625,0V42a2.38,2.38,0,0,1-2.313,2.44" transform="translate(12.253 19.455)" fill="#707070"/>
      <path id="Trazado_42587" data-name="Trazado 42587" d="M31.759,44.442A2.38,2.38,0,0,1,29.446,42V38.4a2.316,2.316,0,1,1,4.625,0V42a2.38,2.38,0,0,1-2.313,2.44" transform="translate(20.017 19.455)" fill="#707070"/>
      <path id="Trazado_42588" data-name="Trazado 42588" d="M39.343,44.442A2.38,2.38,0,0,1,37.03,42V38.4a2.316,2.316,0,1,1,4.625,0V42a2.38,2.38,0,0,1-2.313,2.44" transform="translate(27.778 19.455)" fill="#707070"/>
      <path id="Trazado_42589" data-name="Trazado 42589" d="M39.343,44.442A2.38,2.38,0,0,1,37.03,42V38.4a2.316,2.316,0,1,1,4.625,0V42a2.38,2.38,0,0,1-2.313,2.44" transform="translate(27.778 19.455)" fill="#707070"/>
      <path id="Trazado_42590" data-name="Trazado 42590" d="M10.728,40.839H7.313a2.444,2.444,0,0,1,0-4.88h3.415a2.444,2.444,0,0,1,0,4.88" transform="translate(-5 19.455)" fill="#707070"/>
      <path id="Trazado_42591" data-name="Trazado 42591" d="M10.728,33.253H7.313a2.444,2.444,0,0,1,0-4.88h3.415a2.444,2.444,0,0,1,0,4.88" transform="translate(-5 10.847)" fill="#707070"/>
      <path id="Trazado_42592" data-name="Trazado 42592" d="M10.728,25.668H7.313a2.444,2.444,0,0,1,0-4.88h3.415a2.444,2.444,0,0,1,0,4.88" transform="translate(-5 2.24)" fill="#707070"/>
      <path id="Trazado_42593" data-name="Trazado 42593" d="M10.728,18.083H7.313a2.444,2.444,0,0,1,0-4.88h3.415a2.444,2.444,0,0,1,0,4.88" transform="translate(-5 -6.368)" fill="#707070"/>
      <path id="Trazado_42594" data-name="Trazado 42594" d="M43.5,45.767a2.227,2.227,0,0,1-1.082-.284L27.08,36.912,9.693,42.676a2.29,2.29,0,0,1-2.9-1.595,2.468,2.468,0,0,1,1.513-3.059l18.309-6.071a2.2,2.2,0,0,1,1.776.171l14.7,8.219L59.587,23.461a2.22,2.22,0,0,1,2.327-.57l15.037,5.164a2.471,2.471,0,0,1,1.483,3.076A2.289,2.289,0,0,1,75.519,32.7L61.807,27.987l-16.7,17.091a2.246,2.246,0,0,1-1.611.69" transform="translate(-3.273 4.489)" fill="#707070"/>
      <path id="Trazado_42595" data-name="Trazado 42595" d="M9,43.439a2.284,2.284,0,0,1-1.944-1.114,2.523,2.523,0,0,1,.686-3.375L26.054,26.457a2.214,2.214,0,0,1,2.153-.2L42.937,32.8l16.6-18.09a2.255,2.255,0,0,1,1.8-.739l15.035.959a2.4,2.4,0,0,1,2.169,2.583A2.367,2.367,0,0,1,76.1,19.8l-13.975-.89L45.158,37.391a2.225,2.225,0,0,1-2.56.551l-15.06-6.686L10.258,43.048A2.217,2.217,0,0,1,9,43.439" transform="translate(-3.273 -5.504)" fill="#707070"/>
    </g>
  </g>
  <rect id="Rect치ngulo_23111" data-name="Rect치ngulo 23111" width="82" height="82" fill="none"/>
</svg>
