<svg xmlns="http://www.w3.org/2000/svg" width="71.125" height="36" viewBox="0 0 71.125 36">
  <g id="ic-graphic" transform="translate(0)">
    <g id="Grupo_19699" data-name="Grupo 19699" transform="translate(12608 20788)">
      <path id="Polígono_7" data-name="Polígono 7" d="M13.676,7.447a5,5,0,0,1,8.648,0l9.315,16.043A5,5,0,0,1,27.315,31H8.685a5,5,0,0,1-4.324-7.511Z" transform="translate(-12536.875 -20788) rotate(90)" fill="#ffb600"/>
      <path id="Polígono_8" data-name="Polígono 8" d="M7.963,5.9a4,4,0,0,1,6.9,0L19.3,13.479A4,4,0,0,1,15.853,19.5H6.976a4,4,0,0,1-3.452-6.021Z" transform="translate(-12570.5 -20781.414) rotate(90)" fill="#ffb600"/>
      <path id="Polígono_9" data-name="Polígono 9" d="M6.715,4.423a3,3,0,0,1,5.178,0l4.072,6.955a3,3,0,0,1-2.589,4.516H5.232a3,3,0,0,1-2.589-4.516Z" transform="translate(-12592.106 -20779.303) rotate(90)" fill="#ffb600"/>
    </g>
  </g>
</svg>
