<svg xmlns="http://www.w3.org/2000/svg" xmlns:xlink="http://www.w3.org/1999/xlink" width="30" height="30" viewBox="0 0 30 30">
  <defs>
    <clipPath id="clip-path">
      <rect id="Rectángulo_21194" data-name="Rectángulo 21194" width="30" height="30" transform="translate(-9453 -16645)" fill="#ceff00"/>
    </clipPath>
    <clipPath id="clip-path-2">
      <rect id="Rectángulo_22320" data-name="Rectángulo 22320" width="24.994" height="20.987" transform="translate(0 0)" fill="none"/>
    </clipPath>
  </defs>
  <g id="icn-infantil" transform="translate(9453 16645)" clip-path="url(#clip-path)">
    <g id="Grupo_19379" data-name="Grupo 19379" transform="translate(-9450.497 -16640.494)">
      <g id="Grupo_19378" data-name="Grupo 19378" clip-path="url(#clip-path-2)">
        <path id="Trazado_42407" data-name="Trazado 42407" d="M3.769,2.259A1.51,1.51,0,1,1,2.26.75,1.509,1.509,0,0,1,3.769,2.259Z" fill="none" stroke="#fff" stroke-linecap="round" stroke-linejoin="round" stroke-width="1.5"/>
        <path id="Trazado_42408" data-name="Trazado 42408" d="M21.468,18.16h2.72A5.144,5.144,0,0,0,23.074,14.1c-1.548-1.664-4.854-1.774-4.854-1.774H1.528V18.16H3.96" fill="none" stroke="#fff" stroke-linecap="round" stroke-linejoin="round" stroke-width="1.5"/>
        <path id="Trazado_42409" data-name="Trazado 42409" d="M9.186,6.743v5.581H18.1S16.888,6.377,9.186,6.743Z" fill="none" stroke="#fff" stroke-linecap="round" stroke-linejoin="round" stroke-width="1.5"/>
        <path id="Trazado_42410" data-name="Trazado 42410" d="M9.186,6.743v5.581H1.528S1.559,7.011,9.186,6.743Z" fill="none" stroke="#fff" stroke-linecap="round" stroke-linejoin="round" stroke-width="1.5"/>
        <line id="Línea_930" data-name="Línea 930" x2="1.833" transform="translate(10.288 14.668)" fill="none" stroke="#fff" stroke-linecap="round" stroke-linejoin="round" stroke-width="1.5"/>
        <path id="Trazado_42411" data-name="Trazado 42411" d="M3.2,3.483A7.756,7.756,0,0,1,6.038,7.227" fill="none" stroke="#fff" stroke-linecap="round" stroke-linejoin="round" stroke-width="1.5"/>
        <circle id="Elipse_727" data-name="Elipse 727" cx="2.078" cy="2.078" r="2.078" transform="translate(3.96 16.082)" fill="none" stroke="#fff" stroke-width="1.5"/>
        <circle id="Elipse_728" data-name="Elipse 728" cx="2.078" cy="2.078" r="2.078" transform="translate(17.312 16.082)" fill="none" stroke="#fff" stroke-width="1.5"/>
        <line id="Línea_931" data-name="Línea 931" x2="9.197" transform="translate(8.116 18.16)" fill="none" stroke="#fff" stroke-width="1.5"/>
      </g>
    </g>
  </g>
</svg>
