<svg xmlns="http://www.w3.org/2000/svg" xmlns:xlink="http://www.w3.org/1999/xlink" width="30" height="30" viewBox="0 0 30 30">
  <defs>
    <clipPath id="clip-path">
      <rect id="Rect치ngulo_21150" data-name="Rect치ngulo 21150" width="30" height="30" transform="translate(529 281)" fill="#d8ff00"/>
    </clipPath>
    <clipPath id="clip-path-2">
      <rect id="Rect치ngulo_20962" data-name="Rect치ngulo 20962" width="26.051" height="25.985" fill="none" stroke="#f40000" stroke-width="1"/>
    </clipPath>
  </defs>
  <g id="icn-puntos-rojo" transform="translate(-529 -281)" clip-path="url(#clip-path)">
    <g id="Grupo_18910" data-name="Grupo 18910" transform="translate(531 283)">
      <g id="Grupo_18909" data-name="Grupo 18909" clip-path="url(#clip-path-2)">
        <path id="Trazado_41141" data-name="Trazado 41141" d="M13.663,6.591,14.931,9.9a.623.623,0,0,0,.543.4l3.553.18a.622.622,0,0,1,.355,1.094l-2.764,2.241a.618.618,0,0,0-.208.638l.927,3.435a.622.622,0,0,1-.929.674l-2.981-1.938a.623.623,0,0,0-.674,0L9.774,18.565a.621.621,0,0,1-.928-.671l.926-3.436a.621.621,0,0,0-.209-.642L6.794,11.582a.621.621,0,0,1,.354-1.1l3.554-.174a.623.623,0,0,0,.543-.4L12.513,6.6a.621.621,0,0,1,1.15-.006Z" fill="none" stroke="#f40000" stroke-linecap="round" stroke-linejoin="round" stroke-width="1.672"/>
        <path id="Trazado_41142" data-name="Trazado 41142" d="M20.776,3.728a12.1,12.1,0,1,0,0,18.53" fill="none" stroke="#f40000" stroke-linecap="round" stroke-linejoin="round" stroke-width="1.784"/>
        <path id="Trazado_41143" data-name="Trazado 41143" d="M20.776,22.258a11.984,11.984,0,0,0,0-18.53" fill="none" stroke="#f40000" stroke-linecap="round" stroke-linejoin="round" stroke-width="1.784"/>
      </g>
    </g>
  </g>
</svg>
