<svg xmlns="http://www.w3.org/2000/svg" xmlns:xlink="http://www.w3.org/1999/xlink" width="30" height="30" viewBox="0 0 30 30">
  <defs>
    <clipPath id="clip-path">
      <rect id="Rectángulo_21376" data-name="Rectángulo 21376" width="30" height="30" transform="translate(-4351 -12586)" fill="#ceff00"/>
    </clipPath>
    <clipPath id="clip-path-2">
      <rect id="Rectángulo_21375" data-name="Rectángulo 21375" width="23.794" height="21.369" transform="translate(0 0)" fill="none"/>
    </clipPath>
  </defs>
  <g id="icn-super" transform="translate(4351 12586)" clip-path="url(#clip-path)">
    <g id="Grupo_19231" data-name="Grupo 19231" transform="translate(-4348 -12582)">
      <g id="Grupo_19230" data-name="Grupo 19230" clip-path="url(#clip-path-2)">
        <path id="Trazado_41653" data-name="Trazado 41653" d="M21.286,9.89V20.232a.387.387,0,0,1-.387.387H2.894a.388.388,0,0,1-.387-.387V9.89" fill="none" stroke="#fff" stroke-linecap="round" stroke-linejoin="round" stroke-width="1.5"/>
        <path id="Trazado_41654" data-name="Trazado 41654" d="M9.667,5.735V7.661a2.229,2.229,0,0,1-4.459,0V5.735" fill="none" stroke="#fff" stroke-linecap="round" stroke-linejoin="round" stroke-width="1.5"/>
        <path id="Trazado_41655" data-name="Trazado 41655" d="M14.126,5.735V7.661a2.23,2.23,0,0,1-4.459,0V5.735" fill="none" stroke="#fff" stroke-linecap="round" stroke-linejoin="round" stroke-width="1.5"/>
        <path id="Trazado_41656" data-name="Trazado 41656" d="M18.585,5.735V7.661a2.229,2.229,0,0,1-4.459,0V5.735" fill="none" stroke="#fff" stroke-linecap="round" stroke-linejoin="round" stroke-width="1.5"/>
        <line id="Línea_813" data-name="Línea 813" y2="8.347" transform="translate(14.67 12.272)" fill="none" stroke="#fff" stroke-linecap="round" stroke-linejoin="round" stroke-width="1.5"/>
        <line id="Línea_814" data-name="Línea 814" y1="8.347" transform="translate(9.124 12.272)" fill="none" stroke="#fff" stroke-linecap="round" stroke-linejoin="round" stroke-width="1.5"/>
        <path id="Trazado_41657" data-name="Trazado 41657" d="M18.585,5.735V7.661a2.23,2.23,0,0,0,4.459,0V6.048a.988.988,0,0,0-.18-.569L19.77,1.073A.763.763,0,0,0,19.148.75H4.646a.761.761,0,0,0-.622.323L.93,5.479a.988.988,0,0,0-.18.569V7.661a2.23,2.23,0,0,0,4.459,0V5.735" fill="none" stroke="#fff" stroke-linecap="round" stroke-linejoin="round" stroke-width="1.5"/>
        <line id="Línea_815" data-name="Línea 815" x2="18.551" transform="translate(2.618 12.227)" fill="none" stroke="#fff" stroke-linecap="round" stroke-linejoin="round" stroke-width="1.5"/>
        <line id="Línea_816" data-name="Línea 816" x1="6.5" transform="translate(14.67 17.828)" fill="none" stroke="#fff" stroke-linecap="round" stroke-linejoin="round" stroke-width="1.5"/>
        <line id="Línea_817" data-name="Línea 817" x1="6.505" transform="translate(2.619 17.828)" fill="none" stroke="#fff" stroke-linecap="round" stroke-linejoin="round" stroke-width="1.5"/>
        <line id="Línea_818" data-name="Línea 818" x2="22.021" transform="translate(0.852 5.735)" fill="none" stroke="#fff" stroke-linecap="round" stroke-linejoin="round" stroke-width="1.5"/>
      </g>
    </g>
  </g>
</svg>
