<svg id="icn-portafolio_prioritario" data-name="icn-portafolio prioritario" xmlns="http://www.w3.org/2000/svg" xmlns:xlink="http://www.w3.org/1999/xlink" width="82" height="82" viewBox="0 0 82 82">
  <defs>
    <clipPath id="clip-path">
      <rect id="Rect치ngulo_23211" data-name="Rect치ngulo 23211" width="82" height="82" transform="translate(-93 -20570)" fill="#707070"/>
    </clipPath>
    <clipPath id="clip-path-2">
      <rect id="Rect치ngulo_23210" data-name="Rect치ngulo 23210" width="23.893" height="71.191" fill="#707070"/>
    </clipPath>
  </defs>
  <g id="icn-portafolio_prioritario-2" data-name="icn-portafolio prioritario" transform="translate(93 20570)" clip-path="url(#clip-path)">
    <g id="icn-portafolio_prioritario-3" data-name="icn-portafolio prioritario" transform="translate(-63.48 -20564.594)">
      <g id="Grupo_19717" data-name="Grupo 19717" clip-path="url(#clip-path-2)">
        <path id="Trazado_42693" data-name="Trazado 42693" d="M12.551,3.006a14.116,14.116,0,0,1,2.48.226c.31.1.817.2.92.6s.2.813-.1,1.018a.764.764,0,0,0-.2.6,9.91,9.91,0,0,1,.715,1.937,1.007,1.007,0,0,1-.4.918A42.19,42.19,0,0,0,16.16,13a37.459,37.459,0,0,0,1.427,5.814c1.018,3.567,2.242,6.929,2.445,8.357.1.815.305,1.937-.2,1.937.917.4,1.323,10.4.815,10.806.4.2.2,1.02.1,1.835a96.159,96.159,0,0,0-1.427,12.334A16.815,16.815,0,0,0,20.346,60.7c.508,1.532,1.02,5.3-.715,6.321a21.122,21.122,0,0,1-7.644,1.122A22.039,22.039,0,0,1,4.239,67.02c-1.732-.915-1.227-4.787-.713-6.316a16.106,16.106,0,0,0,1.12-6.624A103.98,103.98,0,0,0,3.323,41.749c-.1-.818-.305-1.632.1-1.837-.513-.4,0-10.4.813-10.8-.51,0-.307-1.122-.2-1.94.2-1.424,1.427-4.789,2.549-8.357A32.531,32.531,0,0,0,8.12,13a42.589,42.589,0,0,0,.2-4.687,1.007,1.007,0,0,1-.4-.918,13.8,13.8,0,0,1,.715-1.938.6.6,0,0,0-.307-.6,1.215,1.215,0,0,1-.1-1.022c.1-.4.612-.5.918-.6a16.053,16.053,0,0,1,2.572-.2h.859m0-3.006h-.494L11.69,0A18.947,18.947,0,0,0,8.63.253a3.058,3.058,0,0,0-.469.115L8.1.387a3.821,3.821,0,0,0-2.786,2.57,4.207,4.207,0,0,0,0,2.59c-.121.341-.235.69-.335,1.038a3.273,3.273,0,0,0-.093.487,4.021,4.021,0,0,0,.389,2.219C5.259,10.4,5.2,11.514,5.1,12.615a29.514,29.514,0,0,1-1.369,5.174,1.094,1.094,0,0,0-.044.13c-.341,1.086-.69,2.153-1.018,3.149a40.042,40.042,0,0,0-1.638,5.689L1,27.03a7.618,7.618,0,0,0-.066,2.193,21.633,21.633,0,0,0-.428,2.785A36.091,36.091,0,0,0,.259,39.58,6.373,6.373,0,0,0,.274,41.8c.013.112.031.223.044.336a.657.657,0,0,0,.02.125A101.9,101.9,0,0,1,1.619,54.233a13.022,13.022,0,0,1-.912,5.373,1.155,1.155,0,0,0-.054.149c-.7,2.078-1.678,7.92,2.166,9.945a24.8,24.8,0,0,0,9.151,1.473,22.942,22.942,0,0,0,9.2-1.547c1.52-.9,3.934-4.13,2.022-9.86a.228.228,0,0,0-.034-.09,13.714,13.714,0,0,1-.836-5.438A93.548,93.548,0,0,1,23.7,42.3a1.557,1.557,0,0,1,.025-.166c.016-.113.033-.225.049-.333a6.585,6.585,0,0,0,.018-2.175,23.58,23.58,0,0,0,.071-2.868,53.462,53.462,0,0,0-.376-5.565,16.149,16.149,0,0,0-.367-2.048,7.91,7.91,0,0,0-.077-2.1l-.031-.23a35.019,35.019,0,0,0-1.327-4.851c-.382-1.212-.815-2.59-1.2-3.967-.011-.041-.028-.084-.039-.126a34.245,34.245,0,0,1-1.3-5.241c-.108-1.1-.166-2.219-.179-3.332a4.016,4.016,0,0,0,.389-2.219,3.087,3.087,0,0,0-.074-.4q-.153-.6-.361-1.178a4.625,4.625,0,0,0-.039-2.37A3.8,3.8,0,0,0,16,.376L15.944.359a3.113,3.113,0,0,0-.4-.1A17.423,17.423,0,0,0,12.551,0" transform="translate(0 0.001)" fill="#707070"/>
      </g>
    </g>
  </g>
</svg>
