<svg xmlns="http://www.w3.org/2000/svg" xmlns:xlink="http://www.w3.org/1999/xlink" width="30" height="30" viewBox="0 0 30 30">
  <defs>
    <clipPath id="clip-path">
      <rect id="Rect치ngulo_21186" data-name="Rect치ngulo 21186" width="30" height="30" transform="translate(-9445 -16903)" fill="#ceff00"/>
    </clipPath>
    <clipPath id="clip-path-2">
      <rect id="Rect치ngulo_22299" data-name="Rect치ngulo 22299" width="22.803" height="21.601" transform="translate(0 0)" fill="none"/>
    </clipPath>
  </defs>
  <g id="icn-negocio" transform="translate(9445 16903)" clip-path="url(#clip-path)">
    <g id="Grupo_19344" data-name="Grupo 19344" transform="translate(-9441.401 -16898.801)">
      <g id="Grupo_19343" data-name="Grupo 19343" clip-path="url(#clip-path-2)">
        <path id="Trazado_42384" data-name="Trazado 42384" d="M22.43,6.153l-.843-3.969a2.406,2.406,0,0,0-2.344-1.9H3.61A2.381,2.381,0,0,0,1.272,2.155L.379,6.117a3.819,3.819,0,0,0,1.208,3.71v9.887a1.6,1.6,0,0,0,1.6,1.6h16.5a1.6,1.6,0,0,0,1.6-1.6V9.757a3.824,3.824,0,0,0,1.143-3.6M20.865,8.66a3.338,3.338,0,0,1-2.113,1.029h-.488a2.773,2.773,0,0,1-2.732-2.2H21.4a2.769,2.769,0,0,1-.538,1.171M8.818,1.342h5.23l.343,5.089H8.413ZM14.37,7.489a2.775,2.775,0,0,1-2.73,2.2h-.493a2.775,2.775,0,0,1-2.725-2.2Zm4.873-6.147A1.347,1.347,0,0,1,20.554,2.4s.849,4.009.854,4.028H15.445L15.1,1.342ZM2.3,2.387A1.331,1.331,0,0,1,3.61,1.342H7.757l-.4,5.09H1.394c0-.027.909-4.044.909-4.044m-.908,5.1H7.259a2.774,2.774,0,0,1-2.729,2.2H4.042A3.07,3.07,0,0,1,1.925,8.65a2.752,2.752,0,0,1-.53-1.161M12.961,13.2H17v7.047H12.96Zm7.268,6.509a.539.539,0,0,1-.538.538H18.057V12.677a.528.528,0,0,0-.529-.528h-5.1a.528.528,0,0,0-.529.528v7.577H3.183a.54.54,0,0,1-.538-.539V10.477a5.019,5.019,0,0,0,1.4.27h.488A3.852,3.852,0,0,0,7.847,8.875a3.85,3.85,0,0,0,3.3,1.872h.488A3.851,3.851,0,0,0,14.95,8.875a3.852,3.852,0,0,0,3.316,1.872h.488a4.7,4.7,0,0,0,1.477-.3Z" fill="#fff"/>
        <path id="Trazado_42385" data-name="Trazado 42385" d="M22.43,6.153l-.843-3.969a2.406,2.406,0,0,0-2.344-1.9H3.61A2.381,2.381,0,0,0,1.272,2.155L.379,6.117a3.819,3.819,0,0,0,1.208,3.71v9.887a1.6,1.6,0,0,0,1.6,1.6h16.5a1.6,1.6,0,0,0,1.6-1.6V9.757a3.824,3.824,0,0,0,1.143-3.6M20.865,8.66a3.338,3.338,0,0,1-2.113,1.029h-.488a2.773,2.773,0,0,1-2.732-2.2H21.4a2.769,2.769,0,0,1-.538,1.171M8.818,1.342h5.23l.343,5.089H8.413ZM14.37,7.489a2.775,2.775,0,0,1-2.73,2.2h-.493a2.775,2.775,0,0,1-2.725-2.2Zm4.873-6.147A1.347,1.347,0,0,1,20.554,2.4s.849,4.009.854,4.028H15.445L15.1,1.342ZM2.3,2.387A1.331,1.331,0,0,1,3.61,1.342H7.757l-.4,5.09H1.394c0-.027.909-4.044.909-4.044m-.908,5.1H7.259a2.774,2.774,0,0,1-2.729,2.2H4.042A3.07,3.07,0,0,1,1.925,8.65a2.752,2.752,0,0,1-.53-1.161M12.961,13.2H17v7.047H12.96Zm7.268,6.509a.539.539,0,0,1-.538.538H18.057V12.677a.528.528,0,0,0-.529-.528h-5.1a.528.528,0,0,0-.529.528v7.577H3.183a.54.54,0,0,1-.538-.539V10.477a5.019,5.019,0,0,0,1.4.27h.488A3.852,3.852,0,0,0,7.847,8.875a3.85,3.85,0,0,0,3.3,1.872h.488A3.851,3.851,0,0,0,14.95,8.875a3.852,3.852,0,0,0,3.316,1.872h.488a4.7,4.7,0,0,0,1.477-.3Z" fill="none" stroke="#fff" stroke-width="0.572"/>
        <path id="Trazado_42386" data-name="Trazado 42386" d="M9.25,17.526H5.283A.527.527,0,0,1,4.755,17V12.677a.528.528,0,0,1,.528-.528H9.248a.529.529,0,0,1,.528.528V17a.528.528,0,0,1-.528.528M5.811,16.47H8.72V13.207H5.811Z" fill="#fff"/>
        <path id="Trazado_42387" data-name="Trazado 42387" d="M9.25,17.526H5.283A.527.527,0,0,1,4.755,17V12.677a.528.528,0,0,1,.528-.528H9.248a.529.529,0,0,1,.528.528V17a.528.528,0,0,1-.528.528M5.811,16.47H8.72V13.207H5.811Z" fill="none" stroke="#fff" stroke-width="0.572"/>
      </g>
    </g>
  </g>
</svg>
