<svg xmlns="http://www.w3.org/2000/svg" xmlns:xlink="http://www.w3.org/1999/xlink" width="30" height="29.997" viewBox="0 0 30 29.997">
  <defs>
    <clipPath id="clip-path">
      <rect id="Rect치ngulo_20695" data-name="Rect치ngulo 20695" width="30" height="29.997" transform="translate(110 268)" fill="#c4ff00"/>
    </clipPath>
  </defs>
  <g id="icn-premios-blanco" transform="translate(-110 -268)" clip-path="url(#clip-path)">
    <g id="Grupo_19006" data-name="Grupo 19006" transform="translate(-43.547 -0.348)">
      <path id="Trazado_40808" data-name="Trazado 40808" d="M22.447,33.912H5.961a.918.918,0,0,1-.97-.864h0a.72.72,0,0,1,0-.105V22.274H23.417V32.942a.918.918,0,0,1-.863.969h0A.906.906,0,0,1,22.447,33.912Z" transform="translate(154.35 260.74)" fill="none" stroke="#fff" stroke-linecap="round" stroke-linejoin="round" stroke-width="1.6"/>
      <path id="Trazado_40809" data-name="Trazado 40809" d="M22.838,18.6H2.472a.918.918,0,0,1-.97-.864h0c0-.035,0-.07,0-.105v-1.94a.919.919,0,0,1,.865-.969.89.89,0,0,1,.1,0H22.838a.918.918,0,0,1,.97.864c0,.035,0,.07,0,.106v1.94a.918.918,0,0,1-.864.97h0A.9.9,0,0,1,22.838,18.6Z" transform="translate(156.047 264.416)" fill="none" stroke="#fff" stroke-linecap="round" stroke-linejoin="round" stroke-width="1.6"/>
      <rect id="Rect치ngulo_20694" data-name="Rect치ngulo 20694" width="2.91" height="15.517" transform="translate(167.247 279.135)" fill="none" stroke="#fff" stroke-linecap="round" stroke-linejoin="round" stroke-width="1.6"/>
      <path id="Trazado_40810" data-name="Trazado 40810" d="M26.616,8.289a3.437,3.437,0,0,0,3.394-3.394,3.394,3.394,0,0,0-6.789,0V8.289h3.394" transform="translate(145.479 270.848)" fill="none" stroke="#fff" stroke-linecap="round" stroke-linejoin="round" stroke-width="1.6"/>
      <path id="Trazado_40811" data-name="Trazado 40811" d="M13.4,8.289H16.79V4.894a3.395,3.395,0,0,0-6.789,0A3.437,3.437,0,0,0,13.4,8.289" transform="translate(151.912 270.848)" fill="none" stroke="#fff" stroke-linecap="round" stroke-linejoin="round" stroke-width="1.6"/>
    </g>
  </g>
</svg>
