<svg xmlns="http://www.w3.org/2000/svg" xmlns:xlink="http://www.w3.org/1999/xlink" width="1366" height="560" viewBox="0 0 1366 560">
  <defs>
    <clipPath id="clip-path">
      <rect id="Rect치ngulo_23320" data-name="Rect치ngulo 23320" width="1366" height="560" transform="translate(0 208)" fill="#e5e5e5"/>
    </clipPath>
    <linearGradient id="linear-gradient" x1="0.1" y1="0.71" x2="0.144" y2="1.83" gradientUnits="objectBoundingBox">
      <stop offset="0" stop-color="#ffd56d"/>
      <stop offset="1" stop-color="#f40000"/>
    </linearGradient>
  </defs>
  <g id="back-estadocuenta" transform="translate(0 -208)" clip-path="url(#clip-path)">
    <g id="Grupo_19793" data-name="Grupo 19793">
      <rect id="Rect치ngulo_579" data-name="Rect치ngulo 579" width="1366" height="560" transform="translate(0 208)" fill="url(#linear-gradient)"/>
      <g id="Grupo_19773" data-name="Grupo 19773" transform="translate(117.506 228.495)">
        <path id="Trazado_42447" data-name="Trazado 42447" d="M28.291,400.718Q29.863,347.8,31.437,294.88q1.128-37.708,2.308-75.413a9.153,9.153,0,0,0-2.78-7.1c-6.694-6.91-13.276-13.924-19.875-20.922a38.615,38.615,0,0,1-11-27.575c.066-14.51-.385-29.042.271-43.526C1.4,97.542,3.018,74.756,4.675,51.982,5.84,35.959,7.488,19.971,8.881,3.965c.138-1.591.712-2.374,2.442-2.377,7.5-.013,6.075-.643,6.248,5.683q1.36,49.959,2.593,99.921c.109,4.287.1,8.578.258,12.863.12,3.335,1.819,5.249,4.422,5.237,2.828-.015,4.638-2.17,4.72-5.575q1.3-55.034,2.625-110.068c.06-2.471.323-4.941.321-7.411,0-1.617.653-2.254,2.234-2.151a11.4,11.4,0,0,0,2-.041c1.973-.223,2.539.609,2.57,2.542q.84,51.579,1.807,103.156.119,6.68.221,13.359c.062,3.729,1.861,6.015,4.775,6.069,2.832.051,4.9-2.357,4.964-5.918q.628-36.488,1.221-72.975c.246-14.512.551-29.023.729-43.536C53.06.719,53.654-.193,55.741.034a8.871,8.871,0,0,0,1.754.006c1.845-.167,2.425.625,2.456,2.444.152,9.152.443,18.3.676,27.454q1.132,44.268,2.263,88.537a19.2,19.2,0,0,0,.2,2.954,4.524,4.524,0,0,0,4.773,3.837,4.4,4.4,0,0,0,4.04-4.308c.176-4.036.226-8.079.329-12.119q1.016-40.066,2.042-80.131c.222-8.491.588-16.978.767-25.469C75.079,1.19,75.8.713,77.771.985c5.661.785,5.618.727,6.1,6.547q2.272,27.476,4.616,54.948c2.468,28.932,4.134,57.9,4.158,86.946,0,6.342-.473,12.684-.712,19.028-.332,8.778-4.342,16-10.087,22.335q-9.519,10.5-19.48,20.616a11.34,11.34,0,0,0-3.737,8.965q1.445,42.777,2.664,85.561,1.71,57,3.385,114.006,1.581,52.919,3.189,105.836c.54,17.971,1,35.944,1.634,53.911.29,8.173-1.474,15.638-7.272,21.676-11.136,11.6-28.859,8.783-36.134-5.6a31.442,31.442,0,0,1-3.372-15.522q1.4-41.908,2.714-83.819c.649-21.186,1.181-42.375,1.79-63.561.309-10.716.675-21.432,1.015-32.147l.051,0" transform="translate(150.517 13.007)" fill="#f2f4f5"/>
        <path id="Trazado_42712" data-name="Trazado 42712" d="M206.548,830.189a4.006,4.006,0,1,0,0-.007Zm0-15.784a4.008,4.008,0,1,0,4.01-4.005h0a4.007,4.007,0,0,0-4.008,4.006h0m16.907,15.784a4.007,4.007,0,1,0,0-.006v.006m0-15.784a4.009,4.009,0,1,0,4.011-4.007,4.009,4.009,0,0,0-4.011,4.007h0m16.91,15.784a4.008,4.008,0,1,0,4.009-4.009,4.008,4.008,0,0,0-4.009,4.009v0m0-15.784a4.008,4.008,0,1,0,4.011-4.007,4.008,4.008,0,0,0-4.011,4.007" transform="translate(-206.548 -617.803)" fill="#ffb600"/>
        <path id="Trazado_42713" data-name="Trazado 42713" d="M625.6,642.878a6.642,6.642,0,1,1,6.646-6.646,6.642,6.642,0,0,1-6.646,6.646" transform="translate(-323.958 -545.542)" fill="#ffb600"/>
        <path id="Trazado_42714" data-name="Trazado 42714" d="M356.843,949.116a6.476,6.476,0,1,1,6.479-6.479,6.476,6.476,0,0,1-6.479,6.479m0-9.588a3.112,3.112,0,1,0,3.114,3.109,3.112,3.112,0,0,0-3.114-3.109" transform="translate(-232.386 -663.747)" fill="#ffb600"/>
        <g id="Grupo_19769" data-name="Grupo 19769" transform="translate(16.247 317.794)">
          <path id="Trazado_42449" data-name="Trazado 42449" d="M111.569,1234.78a1.2,1.2,0,1,1-1.206,1.2,1.2,1.2,0,0,1,1.206-1.2Zm-8.565,1.2a1.2,1.2,0,1,0,1.206-1.2,1.2,1.2,0,0,0-1.206,1.2v0m-7.355,0a1.2,1.2,0,1,0,1.2-1.2h0a1.2,1.2,0,0,0-1.2,1.2v0M2.411,1228.7a1.193,1.193,0,0,0-.4-.891c-.178.681-.353,1.364-.508,2.054a1.2,1.2,0,0,0,.909-1.163m85.879,7.28a1.2,1.2,0,1,0,1.206-1.2h0a1.2,1.2,0,0,0-1.2,1.2v0m-87.085,1.2a1.2,1.2,0,1,0-.63-2.226c-.086.62-.165,1.242-.231,1.866a1.2,1.2,0,0,0,.862.361m35.583-1.2a1.2,1.2,0,1,0,1.206-1.2h0a1.2,1.2,0,0,0-1.2,1.2v0m22.073,0a1.206,1.206,0,1,0,1.207-1.2h0a1.2,1.2,0,0,0-1.2,1.2v0m-7.36,0a1.206,1.206,0,1,0,1.207-1.2h0a1.2,1.2,0,0,0-1.206,1.2h0m-7.357,0a1.2,1.2,0,1,0,1.2-1.2h0a1.2,1.2,0,0,0-1.2,1.2m22.075,0a1.2,1.2,0,1,0,1.2-1.2h0a1.2,1.2,0,0,0-1.2,1.2v0m36.785-7.28a1.2,1.2,0,1,0,1.206-1.207,1.2,1.2,0,0,0-1.206,1.207m-29.428,7.28a1.2,1.2,0,1,0,1.206-1.2h0a1.2,1.2,0,0,0-1.2,1.2v0m7.357,0a1.2,1.2,0,1,0,0-.008v.008m7.357-7.28a1.2,1.2,0,1,0,1.2-1.207,1.205,1.205,0,0,0-1.2,1.207m-22.07,0a1.2,1.2,0,1,0,1.2-1.207,1.2,1.2,0,0,0-1.2,1.207m7.357,0a1.2,1.2,0,1,0,1.2-1.207,1.205,1.205,0,0,0-1.2,1.207m-58.86,0a1.2,1.2,0,1,0,1.2-1.207,1.2,1.2,0,0,0-1.2,1.207h0m80.932,0a1.2,1.2,0,1,0,1.2-1.207,1.2,1.2,0,0,0-1.2,1.207m14.714,0a1.2,1.2,0,1,0,1.206-1.207,1.2,1.2,0,0,0-1.206,1.207m-29.43,0a1.2,1.2,0,1,0,1.207-1.207,1.205,1.205,0,0,0-1.207,1.207v0m-51.5,0a1.206,1.206,0,1,0,1.206-1.207,1.206,1.206,0,0,0-1.206,1.207m-7.356,0a1.2,1.2,0,1,0,1.2-1.207,1.205,1.205,0,0,0-1.2,1.207m14.714,0a1.2,1.2,0,1,0,1.2-1.207,1.205,1.205,0,0,0-1.2,1.207m22.073,0a1.206,1.206,0,1,0,1.2-1.207,1.206,1.206,0,0,0-1.2,1.207m-14.716,0a1.2,1.2,0,1,0,1.2-1.207,1.2,1.2,0,0,0-1.2,1.207m7.357,0a1.206,1.206,0,1,0,1.206-1.207,1.206,1.206,0,0,0-1.206,1.207m-44.144,0a1.206,1.206,0,1,0,1.2-1.207h0a1.207,1.207,0,0,0-1.2,1.207m22.071,7.28a1.206,1.206,0,1,0,1.207-1.2h0a1.2,1.2,0,0,0-1.206,1.2v0m-7.357,7.28a1.2,1.2,0,1,0,1.2-1.206,1.205,1.205,0,0,0-1.2,1.206m-14.716,0a1.206,1.206,0,1,0,1.206-1.206h0a1.2,1.2,0,0,0-1.2,1.206m22.071,0a1.206,1.206,0,1,0,1.206-1.206,1.206,1.206,0,0,0-1.206,1.206M1.2,1251.751a1.206,1.206,0,1,0-.862-2.047c.067.627.146,1.246.231,1.865a1.215,1.215,0,0,0,.63.185m35.583-8.486a1.2,1.2,0,1,0,1.2-1.206,1.205,1.205,0,0,0-1.2,1.206m44.145,7.28a1.2,1.2,0,1,0,1.207-1.2,1.205,1.205,0,0,0-1.207,1.2h0m-36.788-7.281a1.2,1.2,0,1,0,1.2-1.206,1.2,1.2,0,0,0-1.2,1.206m29.432,7.28a1.2,1.2,0,1,0,1.206-1.2h0a1.206,1.206,0,0,0-1.2,1.2m29.428,0a1.2,1.2,0,1,0,1.206-1.2,1.2,1.2,0,0,0-1.206,1.2m-14.714,0a1.2,1.2,0,1,0,1.206-1.2h0a1.207,1.207,0,0,0-1.2,1.2m22.073,0a1.2,1.2,0,1,0,1.206-1.2,1.2,1.2,0,0,0-1.206,1.2m-14.714,0a1.2,1.2,0,1,0,1.2-1.2h0a1.206,1.206,0,0,0-1.2,1.2m-80.932-7.28a1.2,1.2,0,1,0,1.2-1.206h0a1.2,1.2,0,0,0-1.2,1.2v0m-14.716,0a1.206,1.206,0,1,0,1.206-1.206h0a1.2,1.2,0,0,0-1.2,1.2H0m7.358-7.281a1.206,1.206,0,1,0,1.207-1.2h0a1.2,1.2,0,0,0-1.2,1.2h0m103.005,7.281a1.2,1.2,0,1,0,1.206-1.206,1.2,1.2,0,0,0-1.206,1.206m-7.358,0a1.2,1.2,0,1,0,1.206-1.206,1.2,1.2,0,0,0-1.206,1.206m-88.288-7.281a1.2,1.2,0,1,0,1.2-1.2h0a1.2,1.2,0,0,0-1.2,1.2v.006m7.357,0a1.2,1.2,0,1,0,1.206-1.2h0a1.2,1.2,0,0,0-1.2,1.2v0m44.144,7.281a1.2,1.2,0,1,0,1.2-1.206,1.2,1.2,0,0,0-1.2,1.206v0m7.357,0a1.2,1.2,0,1,0,1.2-1.206,1.205,1.205,0,0,0-1.2,1.206v0m-22.075,0a1.206,1.206,0,1,0,1.206-1.206,1.206,1.206,0,0,0-1.206,1.206m44.147,0a1.2,1.2,0,1,0,1.2-1.206,1.2,1.2,0,0,0-1.2,1.206m-36.788,0a1.206,1.206,0,1,0,1.206-1.206h0a1.2,1.2,0,0,0-1.2,1.2h0m29.429,0a1.2,1.2,0,1,0,1.2-1.206,1.205,1.205,0,0,0-1.2,1.206h0m-7.357,0a1.2,1.2,0,1,0,0-.005v.005M36.788,1192.3a1.2,1.2,0,1,0,1.2-1.2h0a1.2,1.2,0,0,0-1.2,1.2v0m58.861,21.842a1.2,1.2,0,1,0,1.2-1.2h0a1.2,1.2,0,0,0-1.2,1.2v.006m-36.788-14.56a1.206,1.206,0,1,0,1.2-1.207h0a1.207,1.207,0,0,0-1.2,1.207m-14.716,0a1.2,1.2,0,1,0,1.2-1.207,1.2,1.2,0,0,0-1.2,1.207m7.357,0a1.206,1.206,0,1,0,1.206-1.207,1.206,1.206,0,0,0-1.206,1.207m22.075,0a1.2,1.2,0,1,0,1.2-1.207,1.206,1.206,0,0,0-1.2,1.207m14.714,0a1.2,1.2,0,1,0,1.2-1.207,1.206,1.206,0,0,0-1.2,1.207m9.767,0a1.2,1.2,0,1,0-1.2,1.207,1.2,1.2,0,0,0,1.2-1.207v0m-23.276-13.354a1.2,1.2,0,0,0,1.161-.9c-.77-.209-1.544-.409-2.33-.589a1.25,1.25,0,0,0-.036.287,1.206,1.206,0,0,0,1.2,1.206m36.788,84.953a1.206,1.206,0,0,0,0,2.411,1.119,1.119,0,0,0,.39-.071c.27-.455.534-.917.786-1.383a1.2,1.2,0,0,0-1.175-.957m-74.779-71.6a1.2,1.2,0,1,0,1.2-1.207,1.206,1.206,0,0,0-1.2,1.207m44.145,0a1.2,1.2,0,1,0,1.207-1.207,1.206,1.206,0,0,0-1.207,1.207v0m-58.86,0a1.2,1.2,0,1,0,1.2-1.207,1.206,1.206,0,0,0-1.2,1.207m7.356,0a1.206,1.206,0,1,0,1.206-1.207,1.206,1.206,0,0,0-1.206,1.207m36.791,0a1.2,1.2,0,1,0,1.2-1.207,1.2,1.2,0,0,0-1.2,1.207m22.07-7.281a1.2,1.2,0,1,0,1.2-1.2,1.205,1.205,0,0,0-1.2,1.2v0M51.5,1185.021a1.206,1.206,0,1,0,1.206-1.207,1.206,1.206,0,0,0-1.206,1.207m29.432,7.279a1.2,1.2,0,1,0,0-.009v.009m-51.5,0a1.206,1.206,0,1,0,1.206-1.2h0a1.2,1.2,0,0,0-1.206,1.2v0m29.432-7.279a1.206,1.206,0,1,0,1.2-1.207,1.206,1.206,0,0,0-1.2,1.207m7.359,0a1.2,1.2,0,1,0,1.2-1.207,1.2,1.2,0,0,0-1.2,1.207h0m-20.871,1.206a1.206,1.206,0,0,0,1.2-1.206,1.028,1.028,0,0,0-.039-.287c-.783.181-1.555.38-2.325.589a1.2,1.2,0,0,0,1.159.9M51.5,1192.3a1.206,1.206,0,1,0,1.206-1.2,1.205,1.205,0,0,0-1.206,1.2h0m-7.357,0a1.2,1.2,0,1,0,1.2-1.2,1.2,1.2,0,0,0-1.2,1.2h0m22.072,58.244a1.2,1.2,0,1,0,1.2-1.2,1.2,1.2,0,0,0-1.2,1.2m0-58.244a1.2,1.2,0,1,0,1.2-1.2,1.2,1.2,0,0,0-1.2,1.2v0m7.357,0a1.2,1.2,0,1,0,1.2-1.2h0a1.2,1.2,0,0,0-1.2,1.2v0m-14.715,0a1.206,1.206,0,1,0,1.206-1.206h0a1.2,1.2,0,0,0-1.2,1.2v0m51.5,29.126a1.2,1.2,0,1,0,1.206-1.206,1.2,1.2,0,0,0-1.206,1.206v0m-36.786,0a1.2,1.2,0,1,0,1.2-1.206,1.2,1.2,0,0,0-1.2,1.206v0m-7.357,0a1.2,1.2,0,1,0,1.2-1.206,1.2,1.2,0,0,0-1.2,1.206v0m14.714,0a1.2,1.2,0,1,0,0-.007v.007m7.357,0a1.2,1.2,0,1,0,1.2-1.206,1.2,1.2,0,0,0-1.2,1.206v0m7.359,0a1.2,1.2,0,1,0,1.2-1.206,1.2,1.2,0,0,0-1.2,1.206v0m-36.788,0a1.206,1.206,0,1,0,1.2-1.206h0a1.2,1.2,0,0,0-1.2,1.2v0m-44.145,0a1.2,1.2,0,1,0,0-.006v.006m7.357,0a1.2,1.2,0,1,0,1.2-1.206,1.2,1.2,0,0,0-1.2,1.206v0m7.356,0a1.206,1.206,0,1,0,1.206-1.206,1.206,1.206,0,0,0-1.206,1.206v0m-22.071,0a1.206,1.206,0,1,0,1.2-1.206h0a1.2,1.2,0,0,0-1.2,1.206h0m44.144,0a1.206,1.206,0,1,0,1.206-1.206,1.206,1.206,0,0,0-1.206,1.206h0m-14.714,0a1.2,1.2,0,1,0,1.2-1.206,1.2,1.2,0,0,0-1.2,1.206v0m7.357,0a1.2,1.2,0,1,0,1.2-1.206,1.2,1.2,0,0,0-1.2,1.206m58.86-7.284a1.2,1.2,0,1,0,0-.006v.006m-29.428,0a1.2,1.2,0,1,0,1.206-1.2h0a1.2,1.2,0,0,0-1.2,1.2v.009m-7.357,0a1.2,1.2,0,1,0,0-.009v.009M103,1221.425a1.2,1.2,0,1,0,1.206-1.206,1.2,1.2,0,0,0-1.206,1.206v0m-51.5-7.284a1.206,1.206,0,1,0,1.207-1.2h0a1.2,1.2,0,0,0-1.206,1.2v.006m36.788,0a1.2,1.2,0,1,0,1.206-1.2h0a1.2,1.2,0,0,0-1.2,1.2v.008m-7.357,0a1.2,1.2,0,1,0,0-.012v.012m-22.072,0a1.206,1.206,0,1,0,1.207-1.2h0a1.2,1.2,0,0,0-1.2,1.2v.007m-36.788,0a1.2,1.2,0,1,0,1.206-1.2h0a1.2,1.2,0,0,0-1.2,1.2v.006m-7.357,0a1.2,1.2,0,1,0,1.2-1.2h0a1.2,1.2,0,0,0-1.2,1.194v.01m22.071,0a1.2,1.2,0,1,0,1.206-1.2h0a1.2,1.2,0,0,0-1.2,1.2v.006m-7.359,0a1.206,1.206,0,1,0,1.207-1.2h0a1.2,1.2,0,0,0-1.206,1.2v.006m14.716,0a1.2,1.2,0,1,0,1.2-1.2h0a1.2,1.2,0,0,0-1.2,1.2v0m24.483,80.087a1.2,1.2,0,1,0-1.2,1.2,1.2,1.2,0,0,0,1.2-1.2M31.84,1206.861a1.206,1.206,0,1,0-1.206,1.206,1.205,1.205,0,0,0,1.206-1.206m87.085,27.919a1.2,1.2,0,1,0,.862,2.046c-.066-.628-.145-1.247-.23-1.866a1.192,1.192,0,0,0-.63-.18M39.2,1206.861a1.2,1.2,0,1,0-1.2,1.206,1.205,1.205,0,0,0,1.2-1.206v0m7.356,0a1.2,1.2,0,1,0-1.2,1.206,1.2,1.2,0,0,0,1.2-1.206v0m63.809,7.28a1.2,1.2,0,0,0,2.382.246c-.252-.464-.516-.923-.786-1.381a1.149,1.149,0,0,0-.39-.072,1.207,1.207,0,0,0-1.206,1.2m7.357,14.563a1.207,1.207,0,0,0,.908,1.163c-.156-.691-.328-1.374-.508-2.054a1.2,1.2,0,0,0-.4.891m-93.235-21.841a1.2,1.2,0,1,0-1.206,1.206,1.205,1.205,0,0,0,1.206-1.206m58.859,0a1.2,1.2,0,1,0-1.2,1.206h0a1.2,1.2,0,0,0,1.2-1.206m7.358,0a1.2,1.2,0,1,0-1.2,1.206,1.205,1.205,0,0,0,1.2-1.206m7.357,0a1.2,1.2,0,1,0-1.2,1.206,1.2,1.2,0,0,0,1.2-1.206v0m-22.071,0a1.2,1.2,0,1,0-1.206,1.206,1.205,1.205,0,0,0,1.206-1.206m-14.714,0a1.206,1.206,0,1,0-1.209,1.206,1.205,1.205,0,0,0,1.209-1.206m7.355,0a1.2,1.2,0,1,0-1.2,1.206,1.2,1.2,0,0,0,1.2-1.206h0m-14.714,0a1.206,1.206,0,1,0-1.206,1.206h0a1.205,1.205,0,0,0,1.2-1.206M51.5,1279.67a1.206,1.206,0,1,0,1.206-1.207,1.206,1.206,0,0,0-1.206,1.207m7.36,0a1.206,1.206,0,1,0,1.2-1.207,1.206,1.206,0,0,0-1.2,1.207m-14.716,0a1.2,1.2,0,1,0,1.2-1.207,1.2,1.2,0,0,0-1.2,1.207m29.432,0a1.2,1.2,0,1,0,1.2-1.207,1.205,1.205,0,0,0-1.2,1.207m-36.788,0a1.2,1.2,0,1,0,1.2-1.207,1.205,1.205,0,0,0-1.2,1.207m29.432,0a1.2,1.2,0,1,0,1.2-1.207,1.2,1.2,0,0,0-1.2,1.207m52.706-37.61a1.206,1.206,0,1,0,1.2,1.206h0a1.205,1.205,0,0,0-1.2-1.206h0m-89.5,37.609a1.206,1.206,0,1,0,1.206-1.207,1.205,1.205,0,0,0-1.206,1.207m88.291-21.843a1.191,1.191,0,0,0,.4.889c.18-.677.353-1.363.508-2.051a1.2,1.2,0,0,0-.908,1.163m1.206-8.486a1.206,1.206,0,1,0,.63,2.229c.085-.619.164-1.238.23-1.865a1.2,1.2,0,0,0-.862-.364m-13.512,30.329a1.2,1.2,0,1,0-1.2,1.206,1.2,1.2,0,0,0,1.2-1.206v0m-90.7,0a1.2,1.2,0,1,0,1.2-1.207,1.2,1.2,0,0,0-1.2,1.207v0m7.357,0a1.2,1.2,0,1,0,1.2-1.207,1.205,1.205,0,0,0-1.2,1.207m68.627,14.56a1.2,1.2,0,1,0-1.206,1.2h0a1.206,1.206,0,0,0,1.2-1.2m-44.147-7.279a1.2,1.2,0,1,0-1.2,1.2h0a1.206,1.206,0,0,0,1.2-1.2m7.359,0a1.206,1.206,0,1,0-1.207,1.2h0a1.208,1.208,0,0,0,1.2-1.2m14.714,0a1.2,1.2,0,1,0-1.2,1.2,1.2,1.2,0,0,0,1.2-1.2m-7.355,0a1.206,1.206,0,1,0-1.207,1.2h0a1.208,1.208,0,0,0,1.206-1.2m-29.431,0a1.206,1.206,0,1,0-1.207,1.2h0a1.208,1.208,0,0,0,1.206-1.2m49.093-7.28a1.2,1.2,0,1,0,1.207-1.207,1.205,1.205,0,0,0-1.207,1.207v0m-41.735,7.28a1.2,1.2,0,1,0-1.206,1.2h0a1.207,1.207,0,0,0,1.2-1.2m-17.124,0a1.2,1.2,0,1,0,1.2-1.209,1.205,1.205,0,0,0-1.2,1.209v0m75.984,0a1.2,1.2,0,1,0-1.2,1.2h0a1.206,1.206,0,0,0,1.2-1.2m-51.5,14.561a1.2,1.2,0,0,0-2.364-.307c.769.211,1.545.412,2.325.592a1.016,1.016,0,0,0,.039-.285m12.308-50.966a1.206,1.206,0,1,0,1.207-1.2h0a1.206,1.206,0,0,0-1.2,1.2m24.482,36.4a1.2,1.2,0,1,0-1.206,1.2h0a1.207,1.207,0,0,0,1.2-1.2m-7.357,0a1.2,1.2,0,1,0-1.206,1.2h0a1.209,1.209,0,0,0,1.206-1.2M74.781,1300.3a1.2,1.2,0,0,0-1.2,1.2v.006a1.246,1.246,0,0,0,.036.286c.786-.18,1.56-.382,2.33-.593a1.2,1.2,0,0,0-1.161-.9m-15.92,1.205a1.206,1.206,0,1,0,1.206-1.205h0a1.206,1.206,0,0,0-1.2,1.205m46.552-94.649a1.2,1.2,0,1,0-1.2,1.205,1.2,1.2,0,0,0,1.2-1.205v0M51.5,1301.508a1.206,1.206,0,1,0,1.206-1.205,1.205,1.205,0,0,0-1.206,1.205m17.125,0a1.2,1.2,0,1,0-1.2,1.2,1.2,1.2,0,0,0,1.2-1.2v0m14.716-7.281a1.2,1.2,0,1,0-1.206,1.2h0a1.205,1.205,0,0,0,1.2-1.2M8.561,1215.344a1.2,1.2,0,0,0,.054-2.407H8.561a1.175,1.175,0,0,0-.393.071q-.4.686-.783,1.382a1.2,1.2,0,0,0,1.176.954m6.154-8.483a1.2,1.2,0,1,0,1.2-1.2h0a1.2,1.2,0,0,0-1.2,1.2v0M61.27,1294.23a1.206,1.206,0,1,0-1.207,1.2h0a1.207,1.207,0,0,0,1.206-1.2m-22.074,0a1.2,1.2,0,1,0-1.206,1.2h0a1.2,1.2,0,0,0,1.2-1.2h0m14.715,0a1.206,1.206,0,1,0-1.207,1.2h0a1.206,1.206,0,0,0,1.2-1.2m22.074,0a1.2,1.2,0,1,0-1.206,1.2,1.205,1.205,0,0,0,1.206-1.2m-29.433,0a1.2,1.2,0,1,0-1.2,1.2,1.2,1.2,0,0,0,1.2-1.2h0m-14.713,0a1.206,1.206,0,1,0-1.207,1.2h0a1.206,1.206,0,0,0,1.206-1.2m58.86-7.28a1.2,1.2,0,1,0-1.206,1.2h0a1.209,1.209,0,0,0,1.2-1.2m-53.909-29.124a1.2,1.2,0,1,0,1.2-1.207,1.205,1.205,0,0,0-1.2,1.207v0m7.357,0a1.2,1.2,0,1,0,1.2-1.207,1.2,1.2,0,0,0-1.2,1.207h0m-14.716,0a1.206,1.206,0,1,0,1.206-1.207,1.206,1.206,0,0,0-1.206,1.207v0m29.432,0a1.206,1.206,0,1,0,1.2-1.207,1.206,1.206,0,0,0-1.2,1.207v0m7.359,0a1.2,1.2,0,1,0,1.2-1.207,1.2,1.2,0,0,0-1.2,1.207v0m-44.147,0a1.2,1.2,0,1,0,1.2-1.207,1.205,1.205,0,0,0-1.2,1.207v0m29.429,0a1.206,1.206,0,1,0,1.206-1.207,1.206,1.206,0,0,0-1.206,1.207h0m51.5,7.281a1.2,1.2,0,1,0,1.206-1.205,1.2,1.2,0,0,0-1.206,1.205v0m-88.29-7.281a1.2,1.2,0,1,0,0-.006v.006m80.932,7.28a1.2,1.2,0,1,0,1.2-1.205,1.2,1.2,0,0,0-1.2,1.205v0m14.714,0a1.2,1.2,0,1,0,1.206-1.205,1.2,1.2,0,0,0-1.206,1.205v0m-103.005-7.28a1.206,1.206,0,1,0,1.2-1.207h0a1.2,1.2,0,0,0-1.2,1.206v0m-4.947,0a1.2,1.2,0,0,0-.909-1.163c.155.688.33,1.373.508,2.051a1.188,1.188,0,0,0,.4-.889m12.308-7.281a1.2,1.2,0,1,0,1.2-1.2h0a1.2,1.2,0,0,0-1.2,1.2m22.071,0a1.2,1.2,0,1,0,1.206-1.2h0a1.206,1.206,0,0,0-1.2,1.2m51.5,14.562a1.2,1.2,0,1,0,1.2-1.205,1.205,1.205,0,0,0-1.2,1.205v0m-66.217-14.562a1.2,1.2,0,1,0,1.206-1.2h0a1.206,1.206,0,0,0-1.2,1.2m51.5,7.281a1.2,1.2,0,1,0,1.2-1.207,1.205,1.205,0,0,0-1.2,1.207v0m-29.434-7.281a1.2,1.2,0,1,0,1.2-1.2h0a1.208,1.208,0,0,0-1.2,1.2m7.357,0a1.206,1.206,0,1,0,1.207-1.2h0a1.208,1.208,0,0,0-1.206,1.2m-22.073,0a1.206,1.206,0,1,0,1.207-1.2h0a1.208,1.208,0,0,0-1.206,1.2m58.861,7.281a1.2,1.2,0,1,0,1.2-1.207,1.205,1.205,0,0,0-1.2,1.207v0m7.359,0a1.2,1.2,0,1,0,1.2-1.207,1.2,1.2,0,0,0-1.2,1.207v0m-14.716,0a1.2,1.2,0,1,0,0-.009v.009m-73.576-7.281a1.206,1.206,0,1,0,1.207-1.2h0a1.207,1.207,0,0,0-1.2,1.2m103.005,7.281a1.2,1.2,0,1,0,1.206-1.207,1.2,1.2,0,0,0-1.206,1.207v0m-7.358,0a1.2,1.2,0,1,0,1.206-1.207,1.2,1.2,0,0,0-1.206,1.207v0m-7.355,14.56a1.2,1.2,0,1,0,1.2-1.206,1.2,1.2,0,0,0-1.2,1.206h0m-29.429,0a1.2,1.2,0,1,0,1.2-1.206,1.2,1.2,0,0,0-1.2,1.206v0m-7.359,0a1.206,1.206,0,1,0,1.2-1.206h0a1.2,1.2,0,0,0-1.2,1.2v0m14.715,0a1.2,1.2,0,1,0,1.2-1.206,1.205,1.205,0,0,0-1.2,1.206v0m-22.075,0a1.206,1.206,0,1,0,1.206-1.206,1.206,1.206,0,0,0-1.206,1.206m29.432,0a1.2,1.2,0,1,0,0-.006v.006m7.357,0a1.2,1.2,0,1,0,1.2-1.206,1.205,1.205,0,0,0-1.2,1.206v0m-73.573,0a1.2,1.2,0,1,0,1.2-1.206,1.2,1.2,0,0,0-1.2,1.206v0m7.357,0a1.2,1.2,0,1,0,1.2-1.206,1.205,1.205,0,0,0-1.2,1.206h0m22.071,0a1.2,1.2,0,1,0,1.2-1.206,1.2,1.2,0,0,0-1.2,1.206m44.145,7.283a1.2,1.2,0,1,0,1.2-1.207,1.205,1.205,0,0,0-1.2,1.207m14.714-7.283a1.2,1.2,0,1,0,1.206-1.206,1.2,1.2,0,0,0-1.206,1.206h0m-66.217,0a1.2,1.2,0,1,0,1.2-1.206,1.205,1.205,0,0,0-1.2,1.206h0m-7.359,0a1.206,1.206,0,1,0,1.206-1.206,1.206,1.206,0,0,0-1.206,1.206h0m-14.712-7.28a1.2,1.2,0,1,0,1.2-1.205h0a1.2,1.2,0,0,0-1.2,1.2v.005m44.145,0a1.206,1.206,0,1,0,1.206-1.205h0a1.2,1.2,0,0,0-1.2,1.2v0m-7.36,0a1.206,1.206,0,1,0,1.206-1.205,1.205,1.205,0,0,0-1.206,1.205v0m-7.357,0a1.2,1.2,0,1,0,1.2-1.205,1.2,1.2,0,0,0-1.2,1.205m29.432,0a1.2,1.2,0,1,0,1.2-1.205h0a1.2,1.2,0,0,0-1.2,1.2v0m-7.357,0a1.2,1.2,0,1,0,1.2-1.205,1.2,1.2,0,0,0-1.2,1.205v0m-29.432,0a1.2,1.2,0,1,0,1.2-1.205h0a1.2,1.2,0,0,0-1.2,1.2v0m58.861,14.563a1.2,1.2,0,1,0,1.2-1.207,1.2,1.2,0,0,0-1.2,1.207m-85.88-7.283a1.2,1.2,0,0,0-2.383-.25q.383.7.783,1.383a1.146,1.146,0,0,0,.393.072,1.207,1.207,0,0,0,1.207-1.2m-2.411-7.279a1.206,1.206,0,1,0,1.206-1.205h0a1.2,1.2,0,0,0-1.2,1.2h0m73.575,0a1.2,1.2,0,1,0,0-.008v.008m-58.86,0a1.2,1.2,0,1,0,1.2-1.205h0a1.2,1.2,0,0,0-1.2,1.2v0m7.356,0a1.206,1.206,0,1,0,1.206-1.205h0a1.2,1.2,0,0,0-1.206,1.2v0" transform="translate(0 -1173.139)" fill="#f40000"/>
          <path id="Trazado_42457" data-name="Trazado 42457" d="M347.786,1251.437a6.43,6.43,0,1,1,6.432-6.432,6.43,6.43,0,0,1-6.432,6.432m0-9.518a3.089,3.089,0,1,0,3.091,3.086,3.089,3.089,0,0,0-3.091-3.086" transform="translate(-131.285 -1194.2)" fill="#ffb600"/>
          <path id="Trazado_42461" data-name="Trazado 42461" d="M245.077,1178.8a6.168,6.168,0,1,1,6.172-6.171,6.168,6.168,0,0,1-6.172,6.171" transform="translate(-91.885 -1166.468)" fill="#f40000"/>
          <path id="Trazado_42462" data-name="Trazado 42462" d="M334.061,1200.142a2.446,2.446,0,1,1,2.446-2.448,2.445,2.445,0,0,1-2.446,2.448" transform="translate(-127.538 -1177.538)" fill="#ffb600"/>
          <path id="Trazado_42463" data-name="Trazado 42463" d="M456.319,1260.391a2.446,2.446,0,1,1,2.446-2.448,2.445,2.445,0,0,1-2.446,2.448" transform="translate(-174.558 -1200.709)" fill="#f40000"/>
        </g>
        <path id="Trazado_42715" data-name="Trazado 42715" d="M737.628,398.31a2.633,2.633,0,1,1,2.634-2.637,2.633,2.633,0,0,1-2.634,2.637" transform="translate(-394.769 -329.165)" fill="#f40000"/>
        <g id="Grupo_19772" data-name="Grupo 19772" transform="translate(20.917)">
          <path id="Trazado_42450" data-name="Trazado 42450" d="M412.343,447.275c-6.724,0-10.005-5.144-12.9-9.677-2.626-4.119-4.892-7.676-9.237-7.676s-6.61,3.556-9.233,7.676c-2.9,4.534-6.172,9.677-12.895,9.677s-10-5.144-12.891-9.677c-2.625-4.119-4.893-7.676-9.234-7.676s-6.61,3.556-9.237,7.676c-2.891,4.534-6.17,9.677-12.892,9.677s-10-5.144-12.893-9.677c-2.625-4.119-4.891-7.676-9.236-7.676a2.169,2.169,0,0,1,0-4.338c6.722,0,10.005,5.144,12.9,9.681,2.625,4.117,4.891,7.672,9.234,7.672s6.611-3.554,9.236-7.672c2.893-4.535,6.169-9.681,12.893-9.681s10,5.144,12.891,9.681c2.623,4.117,4.894,7.672,9.234,7.672s6.609-3.554,9.236-7.672c2.891-4.535,6.172-9.681,12.892-9.681s10,5.144,12.9,9.681c2.623,4.117,4.892,7.672,9.237,7.672a2.169,2.169,0,1,1,0,4.338m-43.176,33.984a2.171,2.171,0,0,0-2.168-2.17c-4.343,0-6.609-3.556-9.236-7.673-2.892-4.537-6.171-9.681-12.893-9.681s-10,5.144-12.891,9.681c-2.626,4.117-4.893,7.673-9.236,7.673s-6.608-3.556-9.234-7.673c-2.892-4.537-6.173-9.681-12.9-9.681a2.17,2.17,0,0,0,0,4.341c4.345,0,6.611,3.556,9.237,7.674,2.891,4.534,6.168,9.679,12.892,9.679s10.005-5.144,12.9-9.679c2.623-4.118,4.891-7.674,9.232-7.674s6.614,3.556,9.238,7.674c2.891,4.534,6.171,9.679,12.891,9.679a2.17,2.17,0,0,0,2.168-2.169" transform="translate(-212.831 -372.599)" fill="#ffb600"/>
          <path id="Trazado_42459" data-name="Trazado 42459" d="M536.476,346.986a7.568,7.568,0,1,1,7.572-7.571,7.568,7.568,0,0,1-7.572,7.571m0-11.2a3.636,3.636,0,1,0,3.639,3.632,3.636,3.636,0,0,0-3.639-3.632" transform="translate(-313.021 -331.85)" fill="#f40000"/>
          <path id="Trazado_42469" data-name="Trazado 42469" d="M495.756,575.807a2.878,2.878,0,1,1,2.88-2.883,2.878,2.878,0,0,1-2.88,2.883" transform="translate(-242.892 -404.28)" fill="#f40000"/>
          <path id="Trazado_42470" data-name="Trazado 42470" d="M149.867,498.506a2.878,2.878,0,1,1,2.88-2.883,2.879,2.879,0,0,1-2.88,2.883" transform="translate(-146.99 -401.797)" fill="#f40000"/>
          <path id="Trazado_42471" data-name="Trazado 42471" d="M190.569,372.351a2.878,2.878,0,1,1,2.88-2.883,2.879,2.879,0,0,1-2.88,2.883" transform="translate(-164.684 -346.955)" fill="#ffb600"/>
        </g>
        <path id="Trazado_42716" data-name="Trazado 42716" d="M443.785,838.332a2.463,2.463,0,1,1,2.464-2.465,2.463,2.463,0,0,1-2.464,2.465" transform="translate(-276.304 -598.569)" fill="#fff"/>
        <path id="Trazado_42717" data-name="Trazado 42717" d="M-15011.811-20788.592v16.436l9.326-7.762-.623-27.07Z" transform="translate(15193.296 20854.678)" fill="#f2f4f5"/>
      </g>
      <g id="Grupo_19775" data-name="Grupo 19775" transform="translate(881 149.141)">
        <path id="Trazado_42710" data-name="Trazado 42710" d="M1868.289,80.754a1.907,1.907,0,1,1-1.911,1.908,1.907,1.907,0,0,1,1.911-1.908h0m-13.572,1.908a1.909,1.909,0,1,0,1.91-1.908,1.909,1.909,0,0,0-1.91,1.908v0m-11.654,0a1.908,1.908,0,1,0,1.908-1.908h0a1.906,1.906,0,0,0-1.907,1.9v0M1695.324,71.127a1.892,1.892,0,0,0-.636-1.412c-.282,1.078-.558,2.161-.8,3.255a1.907,1.907,0,0,0,1.44-1.843M1831.4,82.661a1.91,1.91,0,1,0,1.912-1.908h0a1.906,1.906,0,0,0-1.91,1.9v.006m-137.99,1.906a1.907,1.907,0,1,0-1-3.529c-.136.982-.261,1.968-.367,2.957a1.9,1.9,0,0,0,1.365.572m56.384-1.906a1.909,1.909,0,1,0,1.91-1.908h0a1.906,1.906,0,0,0-1.909,1.9v0m34.976,0a1.91,1.91,0,1,0,1.912-1.908h0a1.9,1.9,0,0,0-1.909,1.9v.007m-11.66,0a1.91,1.91,0,1,0,1.912-1.908h0a1.908,1.908,0,0,0-1.911,1.9v0m-11.657,0a1.908,1.908,0,1,0,1.908-1.908h0a1.907,1.907,0,0,0-1.908,1.906v0m34.979,0a1.9,1.9,0,1,0,0-.008v.008m58.286-11.535a1.909,1.909,0,1,0,1.911-1.913,1.909,1.909,0,0,0-1.911,1.913m-46.63,11.535A1.909,1.909,0,1,0,1810,80.754h0a1.9,1.9,0,0,0-1.908,1.9v.007m11.658,0a1.9,1.9,0,1,0,0-.013v.013M1831.4,71.127a1.91,1.91,0,1,0,1.91-1.913,1.91,1.91,0,0,0-1.91,1.913m-34.971,0a1.907,1.907,0,1,0,1.907-1.913,1.907,1.907,0,0,0-1.907,1.913m11.656,0A1.909,1.909,0,1,0,1810,69.214a1.909,1.909,0,0,0-1.908,1.913m-93.265,0a1.908,1.908,0,1,0,1.9-1.913,1.908,1.908,0,0,0-1.9,1.913h0m128.24,0a1.908,1.908,0,1,0,1.908-1.913,1.908,1.908,0,0,0-1.908,1.913m23.315,0a1.909,1.909,0,1,0,1.911-1.913,1.909,1.909,0,0,0-1.911,1.913m-46.632,0a1.909,1.909,0,1,0,1.913-1.913,1.909,1.909,0,0,0-1.913,1.913v0m-81.61,0a1.91,1.91,0,1,0,1.91-1.913,1.91,1.91,0,0,0-1.91,1.913m-11.656,0a1.91,1.91,0,1,0,1.909-1.913,1.91,1.91,0,0,0-1.909,1.913m23.316,0a1.909,1.909,0,1,0,1.909-1.913,1.909,1.909,0,0,0-1.909,1.913m34.976,0a1.91,1.91,0,1,0,1.909-1.913,1.91,1.91,0,0,0-1.909,1.913m-23.318,0a1.908,1.908,0,1,0,1.908-1.913,1.909,1.909,0,0,0-1.908,1.913m11.657,0a1.91,1.91,0,1,0,1.911-1.913,1.91,1.91,0,0,0-1.911,1.913m-69.948,0a1.91,1.91,0,1,0,1.907-1.913h0a1.913,1.913,0,0,0-1.907,1.913m34.973,11.535a1.91,1.91,0,1,0,1.913-1.908h0a1.907,1.907,0,0,0-1.91,1.9v0M1726.482,94.2a1.91,1.91,0,1,0,1.909-1.91h0a1.91,1.91,0,0,0-1.909,1.91h0m-23.318,0a1.91,1.91,0,1,0,1.91-1.91h0a1.909,1.909,0,0,0-1.907,1.91m34.973,0a1.91,1.91,0,1,0,1.91-1.91,1.91,1.91,0,0,0-1.91,1.91h0m-44.724,13.449a1.911,1.911,0,1,0-1.365-3.245c.106.992.23,1.974.367,2.954a1.916,1.916,0,0,0,1,.29M1749.8,94.2a1.909,1.909,0,1,0,1.909-1.91,1.91,1.91,0,0,0-1.909,1.91h0m69.95,11.535a1.909,1.909,0,1,0,1.913-1.909,1.909,1.909,0,0,0-1.913,1.909h0M1761.455,94.2a1.908,1.908,0,1,0,1.908-1.91,1.908,1.908,0,0,0-1.908,1.91m46.635,11.535a1.909,1.909,0,1,0,1.91-1.909h0a1.911,1.911,0,0,0-1.909,1.909m46.63,0a1.909,1.909,0,1,0,1.91-1.909,1.909,1.909,0,0,0-1.91,1.909m-23.315,0a1.91,1.91,0,1,0,1.911-1.909h0a1.912,1.912,0,0,0-1.91,1.909m34.975,0a1.909,1.909,0,1,0,1.911-1.909,1.909,1.909,0,0,0-1.911,1.909m-23.315,0a1.908,1.908,0,1,0,1.908-1.909,1.908,1.908,0,0,0-1.908,1.909M1714.823,94.2a1.908,1.908,0,1,0,1.906-1.91h0a1.9,1.9,0,0,0-1.9,1.9V94.2m-23.319,0a1.91,1.91,0,1,0,1.91-1.91h0A1.909,1.909,0,0,0,1691.5,94.2v0m11.658-11.537a1.91,1.91,0,1,0,1.912-1.908h-.005a1.907,1.907,0,0,0-1.907,1.906v0M1866.377,94.2a1.909,1.909,0,1,0,1.911-1.91,1.909,1.909,0,0,0-1.911,1.91m-11.66,0a1.909,1.909,0,1,0,1.91-1.91,1.909,1.909,0,0,0-1.91,1.91M1714.823,82.661a1.908,1.908,0,1,0,1.908-1.908h0a1.9,1.9,0,0,0-1.9,1.9v.009m11.657,0a1.91,1.91,0,1,0,1.912-1.908h0a1.906,1.906,0,0,0-1.909,1.9v0M1796.431,94.2a1.907,1.907,0,1,0,1.907-1.91,1.907,1.907,0,0,0-1.907,1.91v0m11.656,0a1.909,1.909,0,1,0,1.909-1.91,1.91,1.91,0,0,0-1.909,1.91v0m-34.978,0a1.91,1.91,0,1,0,1.911-1.91,1.91,1.91,0,0,0-1.911,1.91m69.952,0a1.908,1.908,0,1,0,1.908-1.91,1.909,1.909,0,0,0-1.908,1.91m-58.291,0a1.91,1.91,0,1,0,1.91-1.91h0a1.908,1.908,0,0,0-1.909,1.907v0m46.631,0a1.91,1.91,0,1,0,1.91-1.91,1.91,1.91,0,0,0-1.91,1.91v0m-11.657,0a1.906,1.906,0,1,0,0-.009V94.2M1749.8,13.443a1.907,1.907,0,1,0,0-.005v.005m93.267,34.609a1.9,1.9,0,1,0,0-.01v.01m-58.292-23.07a1.91,1.91,0,1,0,1.909-1.912,1.91,1.91,0,0,0-1.909,1.912m-23.318,0a1.908,1.908,0,1,0,1.908-1.912,1.908,1.908,0,0,0-1.908,1.912m11.657,0a1.91,1.91,0,1,0,1.911-1.912,1.91,1.91,0,0,0-1.911,1.912m34.978,0A1.909,1.909,0,1,0,1810,23.069a1.909,1.909,0,0,0-1.909,1.912m23.315,0a1.91,1.91,0,1,0,1.91-1.912,1.91,1.91,0,0,0-1.91,1.912m15.477,0a1.91,1.91,0,1,0,0,.007v-.007M1810,3.82a1.906,1.906,0,0,0,1.84-1.431c-1.22-.331-2.446-.648-3.691-.933a1.994,1.994,0,0,0-.057.454A1.91,1.91,0,0,0,1810,3.82m58.292,134.612a1.911,1.911,0,0,0,0,3.821,1.8,1.8,0,0,0,.617-.113c.427-.722.847-1.454,1.246-2.193a1.907,1.907,0,0,0-1.862-1.515M1749.8,24.981a1.909,1.909,0,1,0,1.909-1.912,1.909,1.909,0,0,0-1.909,1.912m69.95,0a1.909,1.909,0,1,0,1.913-1.912,1.909,1.909,0,0,0-1.913,1.912v0m-93.266,0a1.91,1.91,0,1,0,1.909-1.912,1.91,1.91,0,0,0-1.909,1.912m11.656,0a1.91,1.91,0,1,0,1.911-1.912,1.911,1.911,0,0,0-1.911,1.912m58.3,0a1.907,1.907,0,1,0,1.907-1.912,1.907,1.907,0,0,0-1.907,1.912M1831.4,13.443a1.906,1.906,0,1,0,0-.007v.007M1773.111,1.911A1.91,1.91,0,1,0,1775.023,0a1.91,1.91,0,0,0-1.911,1.914m46.635,11.532a1.9,1.9,0,1,0,0-.013v.013m-81.61,0a1.91,1.91,0,1,0,1.912-1.909h0a1.908,1.908,0,0,0-1.911,1.9v0M1784.772,1.91A1.91,1.91,0,1,0,1786.681,0a1.91,1.91,0,0,0-1.909,1.913h0m11.66,0A1.907,1.907,0,1,0,1798.339,0a1.907,1.907,0,0,0-1.907,1.913v0m-33.071,1.91a1.91,1.91,0,0,0,1.909-1.91,1.633,1.633,0,0,0-.062-.454c-1.242.286-2.464.6-3.684.933a1.9,1.9,0,0,0,1.837,1.431m9.749,9.623a1.91,1.91,0,1,0,1.911-1.909,1.91,1.91,0,0,0-1.911,1.909v0m-11.657,0a1.908,1.908,0,1,0,1.908-1.909,1.908,1.908,0,0,0-1.908,1.909v0m34.979,92.291a1.907,1.907,0,1,0,1.907-1.909,1.907,1.907,0,0,0-1.907,1.909m0-92.291a1.905,1.905,0,1,0,0-.008v.008m11.656,0A1.909,1.909,0,1,0,1810,11.534h0a1.905,1.905,0,0,0-1.909,1.9v.008m-23.316,0a1.91,1.91,0,1,0,1.911-1.909h0a1.905,1.905,0,0,0-1.909,1.9v.007m81.606,46.149a1.909,1.909,0,1,0,1.911-1.911,1.909,1.909,0,0,0-1.911,1.911v0m-58.29,0a1.908,1.908,0,1,0,0-.006v.006m-11.656,0a1.907,1.907,0,1,0,0-.008v.008m23.314,0a1.905,1.905,0,1,0,0-.012v.012m11.657,0a1.908,1.908,0,1,0,0-.006v.006m11.66,0a1.908,1.908,0,1,0,1.908-1.911,1.908,1.908,0,0,0-1.908,1.911v0m-58.292,0a1.908,1.908,0,1,0,0-.006v.006m-69.948,0a1.907,1.907,0,1,0,0-.008v.008m11.657,0a1.91,1.91,0,1,0,1.909-1.911,1.91,1.91,0,0,0-1.909,1.911v0m11.656,0a1.91,1.91,0,1,0,1.911-1.911,1.91,1.91,0,0,0-1.911,1.911v0m-34.973,0a1.91,1.91,0,1,0,1.909-1.911h0a1.909,1.909,0,0,0-1.907,1.91h0m69.948,0a1.91,1.91,0,1,0,1.911-1.911,1.91,1.91,0,0,0-1.911,1.911v0m-23.314,0a1.909,1.909,0,1,0,1.909-1.911,1.909,1.909,0,0,0-1.909,1.911v0m11.657,0a1.908,1.908,0,1,0,1.908-1.911,1.908,1.908,0,0,0-1.908,1.911h0m93.264-11.542a1.9,1.9,0,1,0,0-.01v.01m-46.63,0a1.909,1.909,0,1,0,1.91-1.908h0a1.9,1.9,0,0,0-1.909,1.895v.014m-11.656,0a1.9,1.9,0,1,0,0-.015v.015m58.286,11.542a1.909,1.909,0,1,0,1.91-1.911,1.909,1.909,0,0,0-1.91,1.911v0m-81.607-11.542a1.91,1.91,0,1,0,1.912-1.908h0a1.905,1.905,0,0,0-1.911,1.9v.009m58.292,0a1.91,1.91,0,1,0,1.911-1.908h0a1.9,1.9,0,0,0-1.91,1.9v.013m-11.657,0a1.9,1.9,0,1,0,0-.019v.019m-34.974,0a1.91,1.91,0,1,0,1.911-1.908h0a1.9,1.9,0,0,0-1.909,1.895v.014m-58.292,0a1.91,1.91,0,1,0,1.911-1.908h0a1.9,1.9,0,0,0-1.909,1.9v.011m-11.657,0a1.908,1.908,0,1,0,1.907-1.908h0a1.9,1.9,0,0,0-1.9,1.893v.016m34.973,0a1.909,1.909,0,1,0,1.91-1.908h0a1.9,1.9,0,0,0-1.909,1.9v.011m-11.66,0a1.91,1.91,0,1,0,1.913-1.908h0a1.9,1.9,0,0,0-1.911,1.9v.011m23.318,0a1.9,1.9,0,1,0,0-.008v.008m38.793,126.9a1.907,1.907,0,1,0-1.908,1.908,1.907,1.907,0,0,0,1.908-1.908m-58.29-138.438a1.91,1.91,0,1,0-1.91,1.911,1.91,1.91,0,0,0,1.91-1.911h0m137.989,44.238A1.907,1.907,0,1,0,1881.309,84c-.1-1-.23-1.976-.365-2.957a1.894,1.894,0,0,0-1-.285M1753.615,36.515a1.909,1.909,0,1,0-1.909,1.911,1.909,1.909,0,0,0,1.909-1.911v0m11.656,0a1.908,1.908,0,1,0-1.909,1.911,1.908,1.908,0,0,0,1.909-1.911v0m101.108,11.536a1.908,1.908,0,0,0,3.774.394c-.4-.735-.818-1.465-1.246-2.189a1.842,1.842,0,0,0-.617-.113,1.911,1.911,0,0,0-1.911,1.908m11.658,23.075a1.912,1.912,0,0,0,1.437,1.843c-.246-1.093-.52-2.176-.8-3.255a1.9,1.9,0,0,0-.633,1.412M1730.3,36.515a1.91,1.91,0,1,0-1.91,1.911,1.909,1.909,0,0,0,1.91-1.911h0m93.265,0a1.909,1.909,0,1,0-1.907,1.911h0a1.909,1.909,0,0,0,1.905-1.911m11.658,0a1.91,1.91,0,1,0-1.909,1.911,1.91,1.91,0,0,0,1.909-1.911m11.657,0a1.908,1.908,0,1,0-1.909,1.911,1.909,1.909,0,0,0,1.909-1.911v0m-34.972,0a1.909,1.909,0,1,0-1.91,1.911,1.909,1.909,0,0,0,1.91-1.911m-23.315,0a1.91,1.91,0,1,0-1.911,1.911,1.91,1.91,0,0,0,1.911-1.911m11.654,0a1.907,1.907,0,1,0-1.907,1.911,1.907,1.907,0,0,0,1.907-1.911v0m-23.316,0a1.91,1.91,0,1,0-1.91,1.911h0a1.91,1.91,0,0,0,1.909-1.911m-3.82,115.367a1.91,1.91,0,1,0,1.911-1.912,1.91,1.91,0,0,0-1.911,1.912m11.66,0a1.91,1.91,0,1,0,1.909-1.912,1.91,1.91,0,0,0-1.909,1.912h0m-23.318,0a1.908,1.908,0,1,0,1.907-1.912,1.908,1.908,0,0,0-1.907,1.912m46.635,0A1.909,1.909,0,1,0,1810,149.97a1.909,1.909,0,0,0-1.909,1.912h0m-58.292,0a1.909,1.909,0,1,0,1.909-1.912,1.909,1.909,0,0,0-1.909,1.912m46.636,0a1.907,1.907,0,1,0,1.907-1.912,1.907,1.907,0,0,0-1.907,1.912v0m83.514-59.595a1.91,1.91,0,1,0,1.91,1.911h0a1.909,1.909,0,0,0-1.909-1.91h0m-141.81,59.594a1.91,1.91,0,1,0,1.911-1.912,1.911,1.911,0,0,0-1.911,1.912m139.9-34.611a1.883,1.883,0,0,0,.633,1.408c.285-1.076.558-2.16.805-3.25a1.9,1.9,0,0,0-1.438,1.842m1.91-13.447a1.911,1.911,0,1,0,1,3.532c.135-.981.26-1.962.365-2.954a1.9,1.9,0,0,0-1.363-.577m-21.411,48.059a1.909,1.909,0,1,0-1.907,1.911,1.909,1.909,0,0,0,1.907-1.911v0m-143.712,0a1.908,1.908,0,1,0,1.9-1.912,1.908,1.908,0,0,0-1.9,1.912v0m11.657,0a1.91,1.91,0,1,0,1.909-1.912,1.91,1.91,0,0,0-1.909,1.912m108.743,23.071a1.91,1.91,0,1,0-1.912,1.908h0a1.912,1.912,0,0,0,1.909-1.908m-69.952-11.536a1.908,1.908,0,1,0-1.908,1.908,1.908,1.908,0,0,0,1.908-1.908m11.66,0a1.91,1.91,0,1,0-1.913,1.908h0a1.915,1.915,0,0,0,1.909-1.908m23.316,0a1.907,1.907,0,1,0-1.908,1.908,1.907,1.907,0,0,0,1.908-1.908m-11.655,0a1.91,1.91,0,1,0-1.912,1.908h0a1.916,1.916,0,0,0,1.911-1.908m-46.635,0a1.91,1.91,0,1,0-1.913,1.908h0a1.917,1.917,0,0,0,1.91-1.908m77.787-11.535a1.909,1.909,0,1,0,0-.006v.006m-66.13,11.535a1.909,1.909,0,1,0-1.91,1.908h0a1.913,1.913,0,0,0,1.909-1.908m-27.134,0a1.91,1.91,0,1,0,1.909-1.915,1.91,1.91,0,0,0-1.909,1.915v0m120.4,0a1.908,1.908,0,1,0-1.909,1.908,1.908,1.908,0,0,0,1.909-1.908m-81.61,23.073a1.9,1.9,0,0,0-3.745-.486c1.219.334,2.448.654,3.684.939a1.638,1.638,0,0,0,.062-.452m19.5-80.758a1.91,1.91,0,1,0,1.911-1.909h0a1.912,1.912,0,0,0-1.909,1.909m38.793,57.686a1.909,1.909,0,1,0-1.91,1.908h.005a1.914,1.914,0,0,0,1.9-1.908m-11.656,0a1.909,1.909,0,1,0-1.911,1.908h0a1.917,1.917,0,0,0,1.91-1.908M1810,184.581a1.9,1.9,0,0,0-1.908,1.9v.009a1.964,1.964,0,0,0,.057.452c1.246-.285,2.472-.6,3.692-.939a1.906,1.906,0,0,0-1.84-1.423m-25.225,1.91a1.91,1.91,0,1,0,1.91-1.91h0a1.91,1.91,0,0,0-1.909,1.91m73.762-149.975a1.909,1.909,0,1,0-1.907,1.911,1.909,1.909,0,0,0,1.907-1.911v0M1773.111,186.49a1.91,1.91,0,1,0,1.911-1.91,1.91,1.91,0,0,0-1.911,1.91m27.136,0a1.905,1.905,0,1,0,0,.007v-.007m23.318-11.537a1.909,1.909,0,1,0-1.91,1.908h.005a1.91,1.91,0,0,0,1.9-1.908m-118.5-125a1.907,1.907,0,1,0,0-3.814,1.875,1.875,0,0,0-.621.113q-.633,1.086-1.241,2.189a1.9,1.9,0,0,0,1.863,1.511m9.754-13.441a1.908,1.908,0,1,0,1.907-1.908h0a1.905,1.905,0,0,0-1.9,1.906v0m73.769,138.438a1.91,1.91,0,1,0-1.912,1.908h0a1.912,1.912,0,0,0,1.911-1.908m-34.978,0a1.909,1.909,0,1,0-1.91,1.908h0a1.909,1.909,0,0,0,1.909-1.908m23.316,0a1.91,1.91,0,1,0-1.912,1.908h0a1.911,1.911,0,0,0,1.909-1.908m34.977,0a1.909,1.909,0,1,0-1.911,1.908h0a1.911,1.911,0,0,0,1.91-1.908m-46.637,0a1.908,1.908,0,1,0-1.909,1.908,1.908,1.908,0,0,0,1.909-1.908h0m-23.313,0a1.91,1.91,0,1,0-1.913,1.908h0a1.911,1.911,0,0,0,1.91-1.908m93.266-11.536a1.91,1.91,0,1,0-1.912,1.908h0a1.917,1.917,0,0,0,1.909-1.908M1749.8,117.271a1.909,1.909,0,1,0,1.909-1.913,1.909,1.909,0,0,0-1.909,1.913v0m11.657,0a1.908,1.908,0,1,0,1.908-1.913,1.908,1.908,0,0,0-1.908,1.913v0m-23.318,0a1.91,1.91,0,1,0,1.911-1.913,1.911,1.911,0,0,0-1.911,1.913v0m46.636,0a1.91,1.91,0,1,0,0-.007v.007m11.66,0a1.909,1.909,0,1,0,0-.008v.008m-69.952,0a1.91,1.91,0,1,0,1.909-1.913,1.91,1.91,0,0,0-1.909,1.913v0m46.63,0a1.91,1.91,0,1,0,1.911-1.913,1.91,1.91,0,0,0-1.911,1.913v0m81.607,11.536a1.909,1.909,0,1,0,1.91-1.91,1.909,1.909,0,0,0-1.91,1.91v0m-139.9-11.536a1.909,1.909,0,1,0,0-.009v.009m128.24,11.536a1.908,1.908,0,1,0,1.908-1.91,1.909,1.909,0,0,0-1.908,1.91v0m23.315,0a1.909,1.909,0,1,0,1.911-1.91,1.909,1.909,0,0,0-1.911,1.91v0m-163.215-11.536a1.91,1.91,0,1,0,1.906-1.913,1.909,1.909,0,0,0-1.906,1.913v0m-7.838,0a1.9,1.9,0,0,0-1.44-1.842c.246,1.09.522,2.172.8,3.25a1.881,1.881,0,0,0,.636-1.408m19.5-11.538a1.908,1.908,0,1,0,1.907-1.909h0a1.908,1.908,0,0,0-1.905,1.909m34.973,0a1.909,1.909,0,1,0,1.909-1.909h0a1.913,1.913,0,0,0-1.909,1.909m81.607,23.074a1.907,1.907,0,1,0,0-.005v.005M1726.48,105.733a1.91,1.91,0,1,0,1.91-1.909h0a1.912,1.912,0,0,0-1.909,1.909m81.608,11.538a1.91,1.91,0,1,0,0-.007v.007m-46.635-11.538a1.908,1.908,0,1,0,1.908-1.909,1.908,1.908,0,0,0-1.908,1.909m11.657,0a1.91,1.91,0,1,0,1.911-1.909,1.91,1.91,0,0,0-1.911,1.909m-34.974,0a1.91,1.91,0,1,0,1.912-1.909h0a1.913,1.913,0,0,0-1.91,1.909m93.267,11.538a1.91,1.91,0,1,0,0-.006v.006m11.66,0a1.908,1.908,0,1,0,1.907-1.913,1.908,1.908,0,0,0-1.907,1.913v0m-23.318,0a1.907,1.907,0,1,0,0-.013v.013m-116.583-11.538a1.91,1.91,0,1,0,1.911-1.909h0a1.912,1.912,0,0,0-1.906,1.909m163.215,11.538a1.909,1.909,0,1,0,1.911-1.913,1.909,1.909,0,0,0-1.911,1.913v0m-11.66,0a1.909,1.909,0,1,0,1.91-1.913,1.909,1.909,0,0,0-1.91,1.913v0m-11.654,23.071a1.908,1.908,0,1,0,1.907-1.911,1.908,1.908,0,0,0-1.907,1.911v0m-46.632,0a1.908,1.908,0,1,0,0-.006v.006m-11.66,0a1.91,1.91,0,1,0,1.909-1.911,1.91,1.91,0,0,0-1.909,1.911v0m23.317,0a1.909,1.909,0,1,0,1.909-1.911,1.909,1.909,0,0,0-1.909,1.911v0m-34.978,0a1.91,1.91,0,1,0,1.911-1.911,1.91,1.91,0,0,0-1.911,1.911m46.635,0a1.906,1.906,0,1,0,0-.01v.01m11.657,0a1.91,1.91,0,1,0,1.91-1.911,1.909,1.909,0,0,0-1.91,1.911v0m-116.58,0a1.908,1.908,0,1,0,0-.006v.006m11.657,0a1.91,1.91,0,1,0,1.909-1.911,1.909,1.909,0,0,0-1.909,1.911v0m34.973,0a1.908,1.908,0,1,0,1.908-1.911,1.908,1.908,0,0,0-1.908,1.911m69.95,11.54a1.91,1.91,0,1,0,1.91-1.912,1.91,1.91,0,0,0-1.91,1.912m23.315-11.54a1.909,1.909,0,1,0,1.91-1.911,1.909,1.909,0,0,0-1.91,1.911h0m-104.922,0a1.909,1.909,0,1,0,1.909-1.911,1.909,1.909,0,0,0-1.909,1.911v0m-11.66,0a1.91,1.91,0,1,0,1.91-1.911,1.91,1.91,0,0,0-1.91,1.911v0m-23.313-11.535a1.908,1.908,0,1,0,1.906-1.91h0a1.9,1.9,0,0,0-1.9,1.9v.008m69.949,0a1.91,1.91,0,1,0,1.91-1.91h0a1.906,1.906,0,0,0-1.909,1.9v.006m-11.66,0a1.91,1.91,0,1,0,1.911-1.91,1.91,1.91,0,0,0-1.911,1.91v0m-11.657,0a1.908,1.908,0,1,0,1.908-1.91,1.908,1.908,0,0,0-1.908,1.91h0m46.635,0A1.909,1.909,0,1,0,1810,126.9h0a1.906,1.906,0,0,0-1.909,1.9v.007m-11.656,0a1.906,1.906,0,1,0,0-.007v.007m-46.636,0a1.909,1.909,0,1,0,1.909-1.91,1.909,1.909,0,0,0-1.909,1.91v0m93.268,23.075a1.908,1.908,0,1,0,1.907-1.912,1.907,1.907,0,0,0-1.907,1.912m-136.081-11.54a1.909,1.909,0,0,0-3.777-.4q.607,1.109,1.242,2.193a1.825,1.825,0,0,0,.622.113,1.911,1.911,0,0,0,1.913-1.909h0m-3.821-11.535a1.91,1.91,0,1,0,1.91-1.91h0a1.908,1.908,0,0,0-1.906,1.909h0m116.583,0a1.9,1.9,0,1,0,0-.012v.012m-93.265,0a1.91,1.91,0,1,0,1.909-1.91h0a1.907,1.907,0,0,0-1.909,1.906v0m11.656,0a1.91,1.91,0,1,0,1.911-1.91h0a1.908,1.908,0,0,0-1.91,1.906v0" transform="translate(-1356.291 0.004)" fill="#f40000"/>
        <path id="Trazado_42711" data-name="Trazado 42711" d="M1800.719,862.722a4.008,4.008,0,1,0,4.009-4.009,4.008,4.008,0,0,0-4.009,4.009Zm0-15.784a4.008,4.008,0,1,0,4.01-4.006h0a4.008,4.008,0,0,0-4.009,4.006m16.907,15.784a4.006,4.006,0,1,0,0-.006v.006m0-15.784a4.009,4.009,0,1,0,4.011-4.006,4.009,4.009,0,0,0-4.011,4.006h0m16.91,15.784a4.009,4.009,0,1,0,4.01-4.009,4.009,4.009,0,0,0-4.01,4.009v0m0-15.784a4.009,4.009,0,1,0,4.012-4.006h0a4.01,4.01,0,0,0-4.01,4.006" transform="translate(-1589.452 -434.059)" fill="#fff"/>
        <g id="Grupo_19770" data-name="Grupo 19770" transform="translate(0 432.672)">
          <path id="Trazado_42455" data-name="Trazado 42455" d="M1730.617,1240.234a6.213,6.213,0,1,1,6.217-6.217,6.213,6.213,0,0,1-6.217,6.217" transform="translate(-1709.344 -1206.251)" fill="#ffb600"/>
          <path id="Trazado_42456" data-name="Trazado 42456" d="M1832.822,1208.6a6.476,6.476,0,1,1,6.479-6.479,6.476,6.476,0,0,1-6.479,6.479m0-9.587a3.112,3.112,0,1,0,3.114,3.109h0a3.115,3.115,0,0,0-3.114-3.109" transform="translate(-1758.569 -1190.722)" fill="#ffb600"/>
          <path id="Trazado_42464" data-name="Trazado 42464" d="M1697.743,1191.047a2.463,2.463,0,1,1,2.464-2.465,2.463,2.463,0,0,1-2.464,2.465" transform="translate(-1695.281 -1186.121)" fill="#f40000"/>
          <path id="Trazado_42465" data-name="Trazado 42465" d="M1899.1,1254.878a2.463,2.463,0,1,1,2.464-2.466,2.463,2.463,0,0,1-2.464,2.466" transform="translate(-1792.508 -1216.943)" fill="#f40000"/>
        </g>
        <g id="Grupo_19771" data-name="Grupo 19771" transform="translate(211.267 182.733)">
          <path id="Trazado_42452" data-name="Trazado 42452" d="M1389.865,376.261a4.006,4.006,0,1,0,0-.007Zm0-15.784a4.008,4.008,0,1,0,4.009-4.007h0a4.007,4.007,0,0,0-4.008,4.006h0m16.907,15.784a4.006,4.006,0,1,0,0-.006v.006m0-15.784a4.009,4.009,0,1,0,4.011-4.007,4.009,4.009,0,0,0-4.011,4.007v0m16.91,15.784a4.009,4.009,0,1,0,4.01-4.009,4.009,4.009,0,0,0-4.01,4.009v0m0-15.784a4.009,4.009,0,1,0,4.012-4.007h0a4.009,4.009,0,0,0-4.01,4.007" transform="translate(-1362.203 -356.47)" fill="#ffb600"/>
          <path id="Trazado_42460" data-name="Trazado 42460" d="M1565.462,603.6a6.923,6.923,0,1,1,6.927-6.926,6.923,6.923,0,0,1-6.927,6.926m0-10.249a3.326,3.326,0,1,0,3.329,3.323,3.326,3.326,0,0,0-3.329-3.323" transform="translate(-1443.652 -469.116)" fill="#f40000"/>
          <path id="Trazado_42466" data-name="Trazado 42466" d="M1583.02,408.086a2.463,2.463,0,1,1,2.464-2.466,2.464,2.464,0,0,1-2.464,2.466" transform="translate(-1454.282 -379.014)" fill="#f40000"/>
          <path id="Trazado_42467" data-name="Trazado 42467" d="M1338.835,551.566a2.463,2.463,0,1,1,2.464-2.465,2.463,2.463,0,0,1-2.464,2.465" transform="translate(-1336.373 -448.296)" fill="#f40000"/>
        </g>
        <path id="Trazado_42446" data-name="Trazado 42446" d="M822.735,167.347q0,76.6,0,153.206c0,1.484.02,2.969.086,4.451a13.079,13.079,0,0,1-5.85,12.081c-2.631,1.8-3.6,4.081-3.476,7.419.615,16.482,1.087,32.97,1.589,49.456q1.1,35.992,2.177,71.983.991,32.4,2.011,64.8c.537,17.562,1.145,35.123,1.54,52.689.263,11.748-6.37,21.664-15.915,24.358-13.843,3.908-27.034-7.5-26.866-23.554.137-13.032.693-26.059,1.091-39.087q.9-29.679,1.842-59.357,1.128-37.1,2.228-74.206,1-32.4,2.09-64.8c.128-3.91-.706-5.581-3.808-7.037-10.238-4.807-15.175-13.705-16.3-25.23-1.9-19.4-1.7-38.89-1.274-58.338.647-29.351,1.54-58.706,2.946-88.024.845-17.6,2.553-35.178,4.427-52.7,2.776-25.946,6.4-51.76,13.667-76.79C787.894,28.5,791.375,18.547,797.357,9.9c3.408-4.924,7.468-9.034,13.479-9.816a12.475,12.475,0,0,1,4.53.3c3.738.928,5.485,3.2,5.552,7.339q.321,19.546.481,39.1.333,47.768.571,95.535c.045,8.329.007,16.658.007,24.988h.758" transform="translate(-654.561 92.361)" fill="#f2f4f5"/>
      </g>
    </g>
  </g>
</svg>
