<svg xmlns="http://www.w3.org/2000/svg" xmlns:xlink="http://www.w3.org/1999/xlink" width="1366" height="560" viewBox="0 0 1366 560">
  <defs>
    <clipPath id="clip-path">
      <rect id="Rectángulo_21163" data-name="Rectángulo 21163" width="1366" height="560" transform="translate(0 208)" fill="#fff"/>
    </clipPath>
    <clipPath id="clip-path-2">
      <rect id="Rectángulo_21162" data-name="Rectángulo 21162" width="1712.474" height="1586.107" fill="none"/>
    </clipPath>
    <clipPath id="clip-path-3">
      <rect id="Rectángulo_21161" data-name="Rectángulo 21161" width="1712.476" height="1586.105" fill="none"/>
    </clipPath>
    <clipPath id="clip-path-4">
      <path id="Trazado_41441" data-name="Trazado 41441" d="M1787.92,994.56h0Z" transform="translate(-1787.92 -994.56)" fill="none"/>
    </clipPath>
  </defs>
  <g id="img-estadodecuenta" transform="translate(0 -208)" clip-path="url(#clip-path)">
    <g id="Grupo_19004" data-name="Grupo 19004" transform="translate(-25.47 -148.41)">
      <g id="Grupo_19003" data-name="Grupo 19003" transform="translate(-202.502 -94.85)">
        <g id="Grupo_19002" data-name="Grupo 19002" clip-path="url(#clip-path-2)">
          <rect id="Rectángulo_21160" data-name="Rectángulo 21160" width="1312.345" height="750.364" transform="translate(275.502 326.12)" fill="#fff"/>
          <g id="Grupo_19001" data-name="Grupo 19001" transform="translate(0 0.002)">
            <g id="Grupo_19000" data-name="Grupo 19000" clip-path="url(#clip-path-3)">
              <path id="Trazado_41379" data-name="Trazado 41379" d="M500.984,1096.023c35.185-27.542,35.025-80.092,54.765-120.17C615.5,854.53,829.293,882.523,884.279,758.965c24.444-54.927,5.787-118.119-6.479-176.976s-13.735-129.808,32.506-168.23c49.322-40.982,128.208-23.384,180.2-60.922,37.521-27.09,51.366-75.644,62.779-120.493L1212.412,0H1100.935c5.717,95.765-.118,203.284-76.671,257.786-84.251,59.984-219.537,25.479-286.2,104.551-73.278,86.918,1.152,236.12-67.664,326.611-74.369,97.794-217.084,61.879-312.028,128.187v271.31c48.456,23.425,108.764,34.064,142.612,7.574" transform="translate(-183.885 -0.004)" fill="#f2f2f2"/>
              <path id="Trazado_41380" data-name="Trazado 41380" d="M620.132,960.351c47.535-66.626,66.733-148.766,84.908-228.567-58.371,5.887-102.761,52.707-144.24,94.2-32.675,32.683-72.152,65.525-115.826,73.93v158.113c62.4.045,132.759-38.246,175.159-97.674" transform="translate(-228.32 -375.488)" fill="#f2f2f2"/>
              <path id="Trazado_41381" data-name="Trazado 41381" d="M629.148,378.785c65.514-48.687,143.919-83.842,225.543-84.233,43.206-.208,86.87,9.212,129.282.96s84.892-42.715,81.492-85.788L837.5,215.611c-105.955,2.737-220.54,8.531-302.5,75.729-32.239,26.43-59.023,61.983-90.021,89.409V562.789c3.452-4.108,6.965-8.143,10.452-12.117,53.838-61.352,108.209-123.2,173.723-171.887" transform="translate(-228.32 -107.613)" fill="#f2f2f2"/>
              <path id="Trazado_41382" data-name="Trazado 41382" d="M752.483,59.081C781.36,49.209,808.355,27.181,819.793,0H444.973V135.521C494.512,94.6,559.7,76.16,623.912,72.323c43.174-2.58,87.645.748,128.571-13.242" transform="translate(-228.32 -0.004)" fill="#f2f2f2"/>
              <path id="Trazado_41383" data-name="Trazado 41383" d="M2512.72,1798.358c-52.4-27.4,6.793-133.372-46.356-159.284-32.432-15.812-66.292,22.326-73.926,57.591a175.5,175.5,0,0,0,18.8,122.647c9.445,16.6,21.707,37.479,10.358,52.836-15.5,20.969-47.4,1.268-67.363-15.5-100.15-84.145-213.2-84.279-337.093-42.311-36.147,12.244-73.45,27.758-96.7,58.02s-25.989,79.389,3.825,103.214c24.364,19.469,59.5,15.593,89.866,8.491,79.971-18.7,121.256-38.7,203.331-35.732s171.292,61.92,168.494,144c-72.946-35.854-153.323-72.692-232.534-54.462-12.4,2.854-25.1,7.429-33.432,17.041-18.414,21.231-5.742,56.483,17.086,72.876s52,20.127,79.171,27.306c79.94,21.119,145.409,79.009,184.59,150.741,18.42,33.723,26.7,82.987,47.815,119.417h119.777v-604.89a77.425,77.425,0,0,0-27.275-13.9c-9.513-2.677-19.678-3.512-28.434-8.093" transform="translate(-976.165 -839.139)" fill="#f2f2f2"/>
              <path id="Trazado_41384" data-name="Trazado 41384" d="M2463.084,882.339a2.5,2.5,0,1,0-2.457-2.5,2.48,2.48,0,0,0,2.457,2.5" transform="translate(-1262.573 -450.17)" fill="#ff8300"/>
              <path id="Trazado_41385" data-name="Trazado 41385" d="M2510.255,882.339a2.5,2.5,0,1,0-2.457-2.5,2.481,2.481,0,0,0,2.457,2.5" transform="translate(-1286.777 -450.17)" fill="#ff8300"/>
              <path id="Trazado_41386" data-name="Trazado 41386" d="M2462.588,1030.855a2.451,2.451,0,0,0,.99,0,2.493,2.493,0,0,0,1.962-2.452,2.542,2.542,0,0,0-.193-.974,2.441,2.441,0,0,0-4.528,0,2.537,2.537,0,0,0-.193.974,2.493,2.493,0,0,0,1.961,2.452" transform="translate(-1262.573 -526.401)" fill="#ff8300"/>
              <path id="Trazado_41387" data-name="Trazado 41387" d="M2462.588,981.332a2.445,2.445,0,0,0,.99,0,2.492,2.492,0,0,0,1.962-2.452,2.521,2.521,0,0,0-.419-1.4,2.432,2.432,0,0,0-4.075,0,2.523,2.523,0,0,0-.419,1.4,2.492,2.492,0,0,0,1.961,2.452" transform="translate(-1262.573 -500.991)" fill="#ff8300"/>
              <path id="Trazado_41388" data-name="Trazado 41388" d="M2509.759,1030.855a2.453,2.453,0,0,0,.991,0,2.493,2.493,0,0,0,1.961-2.452,2.538,2.538,0,0,0-.193-.974,2.441,2.441,0,0,0-4.528,0,2.538,2.538,0,0,0-.193.974,2.494,2.494,0,0,0,1.962,2.452" transform="translate(-1286.776 -526.401)" fill="#ff8300"/>
              <path id="Trazado_41389" data-name="Trazado 41389" d="M2509.759,981.332a2.447,2.447,0,0,0,.991,0,2.492,2.492,0,0,0,1.961-2.452,2.523,2.523,0,0,0-.419-1.4,2.432,2.432,0,0,0-4.075,0,2.521,2.521,0,0,0-.42,1.4,2.493,2.493,0,0,0,1.962,2.452" transform="translate(-1286.776 -500.991)" fill="#ff8300"/>
              <path id="Trazado_41390" data-name="Trazado 41390" d="M2557.424,882.339a2.5,2.5,0,1,0-2.457-2.5,2.48,2.48,0,0,0,2.457,2.5" transform="translate(-1310.979 -450.17)" fill="#ff8300"/>
              <path id="Trazado_41391" data-name="Trazado 41391" d="M2604.6,882.339a2.5,2.5,0,1,0-2.457-2.5,2.48,2.48,0,0,0,2.457,2.5" transform="translate(-1335.184 -450.17)" fill="#ff8300"/>
              <path id="Trazado_41392" data-name="Trazado 41392" d="M2556.929,1030.855a2.452,2.452,0,0,0,.99,0,2.493,2.493,0,0,0,1.961-2.452,2.542,2.542,0,0,0-.193-.974,2.441,2.441,0,0,0-4.528,0,2.533,2.533,0,0,0-.193.974,2.493,2.493,0,0,0,1.962,2.452" transform="translate(-1310.979 -526.401)" fill="#ff8300"/>
              <path id="Trazado_41393" data-name="Trazado 41393" d="M2556.929,981.332a2.446,2.446,0,0,0,.99,0,2.492,2.492,0,0,0,1.961-2.452,2.517,2.517,0,0,0-.42-1.4,2.432,2.432,0,0,0-4.074,0,2.521,2.521,0,0,0-.42,1.4,2.493,2.493,0,0,0,1.962,2.452" transform="translate(-1310.979 -500.991)" fill="#ff8300"/>
              <path id="Trazado_41394" data-name="Trazado 41394" d="M2604.1,1030.855a2.452,2.452,0,0,0,.99,0,2.493,2.493,0,0,0,1.961-2.452,2.542,2.542,0,0,0-.193-.974,2.441,2.441,0,0,0-4.528,0,2.542,2.542,0,0,0-.193.974,2.493,2.493,0,0,0,1.962,2.452" transform="translate(-1335.184 -526.401)" fill="#ff8300"/>
              <path id="Trazado_41395" data-name="Trazado 41395" d="M2604.1,981.332a2.446,2.446,0,0,0,.99,0,2.492,2.492,0,0,0,1.961-2.452,2.521,2.521,0,0,0-.419-1.4,2.432,2.432,0,0,0-4.075,0,2.521,2.521,0,0,0-.419,1.4,2.492,2.492,0,0,0,1.962,2.452" transform="translate(-1335.184 -500.991)" fill="#ff8300"/>
              <path id="Trazado_41396" data-name="Trazado 41396" d="M2651.271,1030.855a2.452,2.452,0,0,0,.99,0,2.493,2.493,0,0,0,1.961-2.452,2.542,2.542,0,0,0-.193-.974,2.441,2.441,0,0,0-4.528,0,2.542,2.542,0,0,0-.193.974,2.493,2.493,0,0,0,1.961,2.452" transform="translate(-1359.387 -526.401)" fill="#ff8300"/>
              <path id="Trazado_41397" data-name="Trazado 41397" d="M2651.271,981.332a2.446,2.446,0,0,0,.99,0,2.492,2.492,0,0,0,1.961-2.452,2.523,2.523,0,0,0-.419-1.4,2.432,2.432,0,0,0-4.075,0,2.519,2.519,0,0,0-.419,1.4,2.493,2.493,0,0,0,1.961,2.452" transform="translate(-1359.387 -500.991)" fill="#ff8300"/>
              <path id="Trazado_41398" data-name="Trazado 41398" d="M2698.441,1030.855a2.452,2.452,0,0,0,.99,0,2.493,2.493,0,0,0,1.962-2.452,2.542,2.542,0,0,0-.193-.974,2.441,2.441,0,0,0-4.528,0,2.542,2.542,0,0,0-.193.974,2.493,2.493,0,0,0,1.961,2.452" transform="translate(-1383.591 -526.401)" fill="#ff8300"/>
              <path id="Trazado_41399" data-name="Trazado 41399" d="M2698.441,981.332a2.446,2.446,0,0,0,.99,0,2.492,2.492,0,0,0,1.962-2.452,2.521,2.521,0,0,0-.419-1.4,2.432,2.432,0,0,0-4.074,0,2.519,2.519,0,0,0-.42,1.4,2.492,2.492,0,0,0,1.961,2.452" transform="translate(-1383.591 -500.991)" fill="#ff8300"/>
              <path id="Trazado_41400" data-name="Trazado 41400" d="M2840.449,882.339a2.5,2.5,0,1,0-2.457-2.5,2.481,2.481,0,0,0,2.457,2.5" transform="translate(-1456.202 -450.17)" fill="#ff8300"/>
              <path id="Trazado_41401" data-name="Trazado 41401" d="M2745.612,1030.855a2.453,2.453,0,0,0,.991,0,2.493,2.493,0,0,0,1.961-2.452,2.538,2.538,0,0,0-.193-.974,2.441,2.441,0,0,0-4.528,0,2.538,2.538,0,0,0-.193.974,2.493,2.493,0,0,0,1.961,2.452" transform="translate(-1407.795 -526.401)" fill="#ff8300"/>
              <path id="Trazado_41402" data-name="Trazado 41402" d="M2745.612,981.332a2.447,2.447,0,0,0,.991,0,2.492,2.492,0,0,0,1.961-2.452,2.525,2.525,0,0,0-.419-1.4,2.433,2.433,0,0,0-4.075,0,2.523,2.523,0,0,0-.419,1.4,2.493,2.493,0,0,0,1.961,2.452" transform="translate(-1407.795 -500.991)" fill="#ff8300"/>
              <path id="Trazado_41403" data-name="Trazado 41403" d="M2792.783,1030.855a2.452,2.452,0,0,0,.99,0,2.493,2.493,0,0,0,1.961-2.452,2.542,2.542,0,0,0-.193-.974,2.441,2.441,0,0,0-4.528,0,2.538,2.538,0,0,0-.193.974,2.493,2.493,0,0,0,1.962,2.452" transform="translate(-1431.998 -526.401)" fill="#ff8300"/>
              <path id="Trazado_41404" data-name="Trazado 41404" d="M2792.783,981.332a2.446,2.446,0,0,0,.99,0,2.492,2.492,0,0,0,1.961-2.452,2.523,2.523,0,0,0-.419-1.4,2.432,2.432,0,0,0-4.075,0,2.521,2.521,0,0,0-.419,1.4,2.493,2.493,0,0,0,1.962,2.452" transform="translate(-1431.998 -500.991)" fill="#ff8300"/>
              <path id="Trazado_41405" data-name="Trazado 41405" d="M2839.954,1030.855a2.451,2.451,0,0,0,.99,0,2.493,2.493,0,0,0,1.961-2.452,2.537,2.537,0,0,0-.193-.974,2.441,2.441,0,0,0-4.528,0,2.542,2.542,0,0,0-.193.974,2.493,2.493,0,0,0,1.962,2.452" transform="translate(-1456.202 -526.401)" fill="#ff8300"/>
              <path id="Trazado_41406" data-name="Trazado 41406" d="M2839.954,981.332a2.445,2.445,0,0,0,.99,0,2.492,2.492,0,0,0,1.961-2.452,2.521,2.521,0,0,0-.419-1.4,2.432,2.432,0,0,0-4.075,0,2.519,2.519,0,0,0-.42,1.4,2.492,2.492,0,0,0,1.962,2.452" transform="translate(-1456.202 -500.991)" fill="#ff8300"/>
              <path id="Trazado_41407" data-name="Trazado 41407" d="M2463.084,931.862a2.5,2.5,0,1,0-2.457-2.5,2.481,2.481,0,0,0,2.457,2.5" transform="translate(-1262.573 -475.581)" fill="#ff8300"/>
              <path id="Trazado_41408" data-name="Trazado 41408" d="M2510.255,931.862a2.5,2.5,0,1,0-2.457-2.5,2.481,2.481,0,0,0,2.457,2.5" transform="translate(-1286.777 -475.581)" fill="#ff8300"/>
              <path id="Trazado_41409" data-name="Trazado 41409" d="M2463.084,1124.943a2.5,2.5,0,1,0,2.457,2.5,2.48,2.48,0,0,0-2.457-2.5" transform="translate(-1262.573 -577.221)" fill="#ff8300"/>
              <path id="Trazado_41410" data-name="Trazado 41410" d="M2463.084,1080.427a2.5,2.5,0,1,0-2.457-2.5,2.48,2.48,0,0,0,2.457,2.5" transform="translate(-1262.573 -551.811)" fill="#ff8300"/>
              <path id="Trazado_41411" data-name="Trazado 41411" d="M2510.255,1129.95a2.5,2.5,0,1,0-2.457-2.5,2.481,2.481,0,0,0,2.457,2.5" transform="translate(-1286.777 -577.222)" fill="#ff8300"/>
              <path id="Trazado_41412" data-name="Trazado 41412" d="M2510.255,1080.427a2.5,2.5,0,1,0-2.457-2.5,2.481,2.481,0,0,0,2.457,2.5" transform="translate(-1286.777 -551.811)" fill="#ff8300"/>
              <path id="Trazado_41413" data-name="Trazado 41413" d="M2557.424,931.862a2.5,2.5,0,1,0-2.457-2.5,2.48,2.48,0,0,0,2.457,2.5" transform="translate(-1310.979 -475.581)" fill="#ff8300"/>
              <path id="Trazado_41414" data-name="Trazado 41414" d="M2604.6,931.862a2.5,2.5,0,1,0-2.457-2.5,2.48,2.48,0,0,0,2.457,2.5" transform="translate(-1335.184 -475.581)" fill="#ff8300"/>
              <path id="Trazado_41415" data-name="Trazado 41415" d="M2651.766,931.862a2.5,2.5,0,1,0-2.457-2.5,2.48,2.48,0,0,0,2.457,2.5" transform="translate(-1359.387 -475.581)" fill="#ff8300"/>
              <path id="Trazado_41416" data-name="Trazado 41416" d="M2698.937,931.862a2.5,2.5,0,1,0-2.457-2.5,2.48,2.48,0,0,0,2.457,2.5" transform="translate(-1383.591 -475.581)" fill="#ff8300"/>
              <path id="Trazado_41417" data-name="Trazado 41417" d="M2746.108,931.862a2.5,2.5,0,1,0-2.457-2.5,2.48,2.48,0,0,0,2.457,2.5" transform="translate(-1407.795 -475.581)" fill="#ff8300"/>
              <path id="Trazado_41418" data-name="Trazado 41418" d="M2793.278,931.862a2.5,2.5,0,1,0-2.457-2.5,2.48,2.48,0,0,0,2.457,2.5" transform="translate(-1431.998 -475.581)" fill="#ff8300"/>
              <path id="Trazado_41419" data-name="Trazado 41419" d="M2840.449,931.862a2.5,2.5,0,1,0-2.457-2.5,2.481,2.481,0,0,0,2.457,2.5" transform="translate(-1456.202 -475.581)" fill="#ff8300"/>
              <path id="Trazado_41420" data-name="Trazado 41420" d="M2793.278,1129.95a2.5,2.5,0,1,0-2.457-2.5,2.48,2.48,0,0,0,2.457,2.5" transform="translate(-1431.998 -577.222)" fill="#ff8300"/>
              <path id="Trazado_41421" data-name="Trazado 41421" d="M2793.278,1080.427a2.5,2.5,0,1,0-2.457-2.5,2.48,2.48,0,0,0,2.457,2.5" transform="translate(-1431.998 -551.811)" fill="#ff8300"/>
              <path id="Trazado_41422" data-name="Trazado 41422" d="M2840.449,1129.95a2.5,2.5,0,1,0-2.457-2.5,2.481,2.481,0,0,0,2.457,2.5" transform="translate(-1456.202 -577.222)" fill="#ff8300"/>
              <path id="Trazado_41423" data-name="Trazado 41423" d="M2840.449,1080.427a2.5,2.5,0,1,0-2.457-2.5,2.48,2.48,0,0,0,2.457,2.5" transform="translate(-1456.202 -551.811)" fill="#ff8300"/>
              <path id="Trazado_41424" data-name="Trazado 41424" d="M656.927,1871.221c-20.005-32.645-51.4-60.352-89.132-66.829-23.451-4.025-48.381.172-70.631-8.261-45.172-17.122-61.383-78.492-106.77-95.038-20.99-7.653-44.939-4.158-65.59-12.685-35.215-14.542-48.076-57.264-53.668-94.951s-10.282-79.818-39.365-104.431c-62.052,25.756-59.281,115.627-100,169.065-24.908,32.688-64.895,49.657-96.489,75.938A287.255,287.255,0,0,0,0,1776.931v187.039H693.373c-8.959-32.213-19.027-64.324-36.446-92.749" transform="translate(0 -764.036)" fill="#ff8300"/>
              <path id="Trazado_41426" data-name="Trazado 41426" d="M2570.591,1364.856c-1.939,0-2.953-1.523-4.128-3.287-1.317-1.977-2.81-4.219-5.87-4.219s-4.553,2.242-5.87,4.219c-1.155,1.735-2.16,3.229-4.037,3.278-1.876-.049-2.882-1.543-4.036-3.278-1.317-1.977-2.811-4.219-5.87-4.219-.032,0-.059.008-.09.008s-.059-.008-.091-.008c-3.059,0-4.553,2.242-5.869,4.219-1.154,1.733-2.158,3.226-4.032,3.278-1.874-.052-2.878-1.544-4.032-3.278-1.317-1.977-2.81-4.219-5.87-4.219h-.011c-.031,0-.057.008-.089.008s-.058-.008-.09-.008a1.018,1.018,0,0,0-.154.031c-2.827.164-4.27,2.288-5.536,4.189-1.154,1.733-2.158,3.226-4.032,3.278-1.873-.052-2.878-1.544-4.032-3.278-1.317-1.977-2.81-4.219-5.87-4.219-.032,0-.059.008-.09.008s-.058-.008-.091-.008h-.017c-3.048.009-4.538,2.244-5.852,4.218-1.155,1.735-2.16,3.229-4.037,3.278-1.878-.049-2.882-1.543-4.038-3.278-1.317-1.977-2.81-4.219-5.869-4.219-.032,0-.059.008-.09.008s-.058-.008-.09-.008a1.009,1.009,0,0,0-.154.031c-2.826.164-4.27,2.288-5.536,4.189-1.174,1.764-2.188,3.287-4.127,3.287s-2.953-1.523-4.127-3.287c-1.316-1.978-2.809-4.22-5.869-4.22a1.046,1.046,0,1,0,0,2.093c1.939,0,2.953,1.524,4.127,3.287,1.317,1.978,2.81,4.22,5.87,4.22s4.552-2.242,5.869-4.22c1.155-1.735,2.16-3.229,4.037-3.278,1.877.049,2.882,1.543,4.037,3.278,1.317,1.978,2.809,4.22,5.869,4.22.031,0,.058-.008.09-.008s.057.008.09.008c3.06,0,4.552-2.242,5.87-4.22,1.154-1.733,2.159-3.226,4.033-3.277,1.874.051,2.878,1.544,4.032,3.277,1.317,1.978,2.809,4.22,5.869,4.22h.009c.032,0,.06-.008.091-.008s.059.008.091.008a.983.983,0,0,0,.156-.031c2.824-.165,4.267-2.288,5.532-4.189,1.155-1.733,2.158-3.226,4.033-3.277,1.874.051,2.878,1.544,4.032,3.277,1.317,1.978,2.809,4.22,5.869,4.22.031,0,.058-.008.09-.008s.058.008.09.008h.012l.01,0c3.044-.011,4.534-2.245,5.849-4.218,1.155-1.735,2.16-3.229,4.037-3.278,1.877.049,2.881,1.543,4.036,3.278,1.317,1.978,2.81,4.22,5.869,4.22.032,0,.059-.008.091-.008s.059.008.091.008a.97.97,0,0,0,.156-.031c2.824-.165,4.266-2.288,5.532-4.189,1.175-1.764,2.189-3.287,4.128-3.287s2.953,1.524,4.128,3.287c1.316,1.978,2.81,4.22,5.87,4.22a1.046,1.046,0,0,0,0-2.093" transform="translate(-1008.577 -831.237)" fill="#0086cc"/>
              <path id="Trazado_41427" data-name="Trazado 41427" d="M3094.152,2054.642c-5.188,0-7.9-4.076-11.045-8.8-3.524-5.292-7.518-11.291-15.705-11.291s-12.181,6-15.705,11.291c-3.09,4.641-5.779,8.639-10.8,8.771-5.022-.132-7.71-4.13-10.8-8.771-3.524-5.292-7.519-11.291-15.706-11.291-.085,0-.157.022-.241.023s-.156-.023-.242-.023c-8.186,0-12.181,6-15.7,11.292-3.087,4.636-5.775,8.63-10.787,8.768-5.014-.139-7.7-4.132-10.789-8.769-3.523-5.292-7.519-11.291-15.706-11.291l-.014,0-.012,0c-.086,0-.156.021-.241.023s-.155-.023-.24-.023a2.614,2.614,0,0,0-.411.083c-7.563.437-11.425,6.121-14.813,11.208-3.087,4.637-5.774,8.63-10.787,8.769-5.013-.139-7.7-4.132-10.788-8.769-3.524-5.292-7.518-11.291-15.7-11.291-.086,0-.157.022-.242.023s-.156-.023-.242-.023l-.011,0-.012,0c-.007,0-.013,0-.02,0-8.155.023-12.144,6.005-15.66,11.288-3.091,4.641-5.779,8.64-10.8,8.77-5.023-.13-7.711-4.128-10.8-8.77-3.523-5.292-7.517-11.292-15.7-11.292-.085,0-.157.021-.24.023s-.155-.023-.241-.023a2.642,2.642,0,0,0-.411.083c-7.563.437-11.425,6.121-14.812,11.208-3.142,4.719-5.856,8.8-11.043,8.8s-7.9-4.076-11.042-8.794c-3.524-5.292-7.517-11.292-15.7-11.292a2.8,2.8,0,1,0,0,5.6c5.186,0,7.9,4.076,11.042,8.795,3.524,5.292,7.517,11.292,15.7,11.292s12.18-6,15.7-11.291c3.091-4.642,5.779-8.641,10.8-8.771,5.024.13,7.712,4.129,10.8,8.771,3.523,5.292,7.517,11.291,15.7,11.291.085,0,.156-.021.241-.022s.155.022.24.022c8.188,0,12.182-6,15.707-11.291,3.088-4.638,5.775-8.632,10.791-8.77,5.013.137,7.7,4.132,10.788,8.769,3.524,5.292,7.518,11.292,15.7,11.292h.024c.086,0,.158-.021.244-.022s.157.022.243.022a2.591,2.591,0,0,0,.417-.084c7.555-.442,11.416-6.122,14.8-11.206,3.087-4.638,5.776-8.632,10.791-8.77,5.014.137,7.7,4.132,10.789,8.77,3.524,5.292,7.517,11.291,15.7,11.291.086,0,.156-.021.241-.022s.155.022.24.022h.031c.01,0,.017-.005.027-.005,8.146-.03,12.133-6.007,15.648-11.285,3.091-4.642,5.779-8.64,10.8-8.771,5.021.13,7.71,4.129,10.8,8.77,3.524,5.292,7.517,11.292,15.7,11.292.086,0,.158-.021.243-.022s.157.022.244.022a2.6,2.6,0,0,0,.417-.084c7.554-.442,11.415-6.122,14.8-11.206,3.143-4.719,5.857-8.8,11.044-8.8s7.9,4.076,11.044,8.8c3.524,5.292,7.519,11.291,15.706,11.291a2.8,2.8,0,0,0,0-5.6" transform="translate(-1435.745 -1043.953)" fill="#2fc57a"/>
              <path id="Trazado_41428" data-name="Trazado 41428" d="M3199.449,1985.735c-5.187,0-7.9-4.076-11.044-8.8-3.524-5.291-7.518-11.29-15.705-11.29s-12.182,6-15.706,11.29c-3.09,4.642-5.779,8.639-10.8,8.771-5.022-.132-7.71-4.13-10.8-8.771-3.524-5.291-7.519-11.29-15.705-11.29-.086,0-.157.021-.242.022s-.156-.022-.242-.022c-8.186,0-12.18,6-15.7,11.29-3.088,4.638-5.775,8.631-10.788,8.77-5.013-.139-7.7-4.132-10.788-8.77-3.524-5.291-7.519-11.29-15.705-11.29h-.028c-.085,0-.156.021-.24.022s-.155-.022-.241-.022a2.588,2.588,0,0,0-.411.083c-7.563.436-11.425,6.12-14.813,11.207-3.087,4.638-5.774,8.631-10.786,8.77-5.014-.139-7.7-4.132-10.789-8.77-3.524-5.291-7.518-11.29-15.705-11.29-.086,0-.157.021-.241.022s-.156-.022-.242-.022h-.024c-.008,0-.014,0-.021,0-8.153.024-12.142,6.005-15.659,11.286-3.09,4.643-5.779,8.641-10.8,8.772-5.023-.13-7.712-4.129-10.8-8.772-3.524-5.291-7.517-11.29-15.7-11.29-.085,0-.156.021-.24.022s-.155-.022-.24-.022a2.577,2.577,0,0,0-.411.083c-7.563.436-11.426,6.12-14.812,11.207-3.142,4.72-5.856,8.8-11.042,8.8s-7.9-4.076-11.043-8.795c-3.523-5.292-7.517-11.292-15.7-11.292a2.8,2.8,0,1,0,0,5.6c5.187,0,7.9,4.076,11.042,8.794,3.523,5.292,7.518,11.292,15.7,11.292s12.18-6,15.7-11.291c3.091-4.642,5.78-8.641,10.8-8.771,5.024.13,7.712,4.129,10.8,8.771,3.524,5.292,7.517,11.291,15.7,11.291.086,0,.156-.021.241-.022s.155.022.241.022c8.187,0,12.181-6,15.7-11.291,3.089-4.638,5.776-8.632,10.791-8.77,5.014.138,7.7,4.132,10.788,8.769,3.524,5.292,7.518,11.292,15.7,11.292h.024c.086,0,.158-.021.244-.023s.157.023.243.023a2.648,2.648,0,0,0,.417-.084c7.555-.442,11.416-6.121,14.8-11.206,3.088-4.638,5.775-8.632,10.791-8.77,5.013.138,7.7,4.132,10.789,8.77,3.524,5.292,7.517,11.291,15.7,11.291.086,0,.156-.021.241-.023s.155.023.24.023h.031c.009,0,.017-.005.026-.005,8.147-.029,12.133-6.007,15.648-11.285,3.091-4.642,5.78-8.64,10.8-8.771,5.022.131,7.71,4.129,10.8,8.77,3.523,5.292,7.518,11.292,15.7,11.292.087,0,.158-.021.244-.023s.157.023.243.023a2.629,2.629,0,0,0,.417-.084c7.556-.443,11.416-6.121,14.8-11.206,3.142-4.719,5.856-8.8,11.044-8.8s7.9,4.076,11.044,8.8c3.524,5.292,7.518,11.291,15.7,11.291a2.8,2.8,0,1,0,0-5.6" transform="translate(-1489.774 -1008.596)" fill="#2fc57a"/>
              <path id="Trazado_41429" data-name="Trazado 41429" d="M2582.029,1667.859l-14.947-14.947,14.947-14.947,14.946,14.947Zm-56.8-14.947-14.947-14.947-14.946,14.947,14.946,14.947Zm-71.742,0-14.947-14.947-14.947,14.947,14.947,14.947Z" transform="translate(-1251.013 -763.64)" fill="#ff8300"/>
              <path id="Trazado_41430" data-name="Trazado 41430" d="M3094.45,1556.386c21.7-.184,45.133,2.778,61.032,17.544,8.659-18.158,29.318-45.309,29.318-45.309s-20.2-11.041-27.987-13.663c-46.355-15.6-106.855-13.842-153.216,1.268-17.3,5.639-77.912,38.956-77.912,38.956s8.854,22.429,17.107,44.128c47.734-25.182,96.955-42.46,151.658-42.923" transform="translate(-1501.198 -771.743)" fill="#f20000"/>
              <path id="Trazado_41431" data-name="Trazado 41431" d="M3207.543,1670.808c-28.15,1.052-54.367,57.279-38.505,79.92,7.805,11.141,22.678,14.235,36.1,16.453,3.524.582,7.266,1.129,10.731.578v-96.316a34.43,34.43,0,0,0-8.324-.635" transform="translate(-1620.603 -857.295)" fill="#2fc57a"/>
              <path id="Trazado_41432" data-name="Trazado 41432" d="M726.815,1036.616a12.713,12.713,0,1,1-25.418,0,20.041,20.041,0,1,0-40.069,0,12.713,12.713,0,1,1-25.418,0,20.041,20.041,0,1,0-40.069,0,12.713,12.713,0,1,1-25.418,0,20.041,20.041,0,1,0-40.069,0,12.713,12.713,0,1,1-25.418,0,20.041,20.041,0,1,0-40.069,0h7.326a12.713,12.713,0,1,1,25.418,0,20.041,20.041,0,1,0,40.069,0,12.713,12.713,0,1,1,25.418,0,20.041,20.041,0,1,0,40.069,0,12.713,12.713,0,1,1,25.419,0,20.041,20.041,0,1,0,40.069,0,12.713,12.713,0,1,1,25.418,0,20.041,20.041,0,1,0,40.069,0Z" transform="translate(-238.528 -521.358)" fill="#f20000"/>
              <path id="Trazado_41433" data-name="Trazado 41433" d="M1364.42,1804.406a5.364,5.364,0,1,1-10.724,0,8.456,8.456,0,1,0-16.906,0,5.364,5.364,0,1,1-10.724,0,8.456,8.456,0,1,0-16.906,0,5.364,5.364,0,1,1-10.724,0,8.456,8.456,0,1,0-16.906,0,5.364,5.364,0,1,1-10.724,0,8.456,8.456,0,1,0-16.906,0h3.091a5.364,5.364,0,1,1,10.724,0,8.455,8.455,0,1,0,16.906,0,5.364,5.364,0,1,1,10.724,0,8.456,8.456,0,1,0,16.906,0,5.364,5.364,0,1,1,10.724,0,8.455,8.455,0,1,0,16.905,0,5.364,5.364,0,1,1,10.724,0,8.456,8.456,0,1,0,16.906,0Z" transform="translate(-643.389 -921.413)" fill="#fd0"/>
              <path id="Trazado_41434" data-name="Trazado 41434" d="M864.543,1816.815a72.358,72.358,0,1,1-72.358-72.358,72.358,72.358,0,0,1,72.358,72.358" transform="translate(-369.351 -895.1)" fill="#0086cc"/>
              <path id="Trazado_41435" data-name="Trazado 41435" d="M927.558,2122.97h43.854l-21.927-38.948Z" transform="translate(-475.94 -1069.335)" fill="#fd0"/>
              <path id="Trazado_41436" data-name="Trazado 41436" d="M927.558,1901.691h43.854l-21.927-38.947Z" transform="translate(-475.94 -955.794)" fill="#fd0"/>
              <path id="Trazado_41437" data-name="Trazado 41437" d="M949.485,1641.465l-21.927,38.947h43.853Z" transform="translate(-475.94 -842.254)" fill="#fd0"/>
              <path id="Trazado_41438" data-name="Trazado 41438" d="M1220.177,290.215a170.408,170.408,0,1,1-170.408-170.408,170.408,170.408,0,0,1,170.408,170.408" transform="translate(-451.209 -61.476)" fill="#ff8300"/>
              <path id="Trazado_41439" data-name="Trazado 41439" d="M3007.084,719.37c11.4,42.011,45.876,76.493,87.309,89.847,21.086,6.8,45.459,7.928,64.687-2.336V616.169H3025.2c-20.719,28.841-27.256,69.54-18.12,103.2" transform="translate(-1540.896 -316.164)" fill="#fd0"/>
              <g id="Grupo_18999" data-name="Grupo 18999" transform="translate(870.52 484.239)" opacity="0.54">
                <g id="Grupo_18998" data-name="Grupo 18998">
                  <g id="Grupo_18997" data-name="Grupo 18997" clip-path="url(#clip-path-4)">
                    <path id="Trazado_41440" data-name="Trazado 41440" d="M1787.925,994.565h0Z" transform="translate(-1787.921 -994.56)" fill="#ff0"/>
                  </g>
                </g>
              </g>
            </g>
          </g>
        </g>
      </g>
    </g>
  </g>
</svg>
