<svg xmlns="http://www.w3.org/2000/svg" xmlns:xlink="http://www.w3.org/1999/xlink" width="574" height="291" viewBox="0 0 574 291">
  <defs>
    <clipPath id="clip-path">
      <rect id="Rectángulo_21109" data-name="Rectángulo 21109" width="574" height="291" rx="16" transform="translate(78 398)" fill="#fff"/>
    </clipPath>
    <clipPath id="clip-path-2">
      <rect id="Rectángulo_21361" data-name="Rectángulo 21361" width="128.001" height="85.198" fill="none"/>
    </clipPath>
    <clipPath id="clip-path-3">
      <rect id="Rectángulo_21362" data-name="Rectángulo 21362" width="169.612" height="25.883" transform="translate(0 0)" fill="#05a451"/>
    </clipPath>
    <clipPath id="clip-path-4">
      <rect id="Rectángulo_21363" data-name="Rectángulo 21363" width="282.346" height="103.804" fill="#0086cc"/>
    </clipPath>
    <clipPath id="clip-path-5">
      <rect id="Rectángulo_21364" data-name="Rectángulo 21364" width="90" height="90" fill="none"/>
    </clipPath>
  </defs>
  <g id="img-bonos" transform="translate(-78 -398)">
    <g id="Enmascarar_grupo_11" data-name="Enmascarar grupo 11" clip-path="url(#clip-path)">
      <g id="Grupo_19219" data-name="Grupo 19219">
        <g id="Grupo_19218" data-name="Grupo 19218">
          <g id="Grupo_19213" data-name="Grupo 19213" transform="translate(576.77 384)">
            <g id="Grupo_19212" data-name="Grupo 19212" clip-path="url(#clip-path-2)">
              <path id="Trazado_41598" data-name="Trazado 41598" d="M1.667,3.4A1.683,1.683,0,0,0,3.335,1.7,1.683,1.683,0,0,0,1.667,0,1.683,1.683,0,0,0,0,1.7,1.683,1.683,0,0,0,1.667,3.4" fill="#ff8300"/>
              <path id="Trazado_41599" data-name="Trazado 41599" d="M35.268,3.4a1.683,1.683,0,0,0,1.667-1.7,1.668,1.668,0,1,0-3.335,0,1.683,1.683,0,0,0,1.667,1.7" transform="translate(-18.018)" fill="#ff8300"/>
              <path id="Trazado_41600" data-name="Trazado 41600" d="M1.331,109.191a1.662,1.662,0,0,0,.672,0,1.692,1.692,0,0,0,1.331-1.664,1.722,1.722,0,0,0-.131-.661,1.656,1.656,0,0,0-3.072,0,1.722,1.722,0,0,0-.131.661,1.692,1.692,0,0,0,1.331,1.664" transform="translate(0 -56.748)" fill="#ff8300"/>
              <path id="Trazado_41601" data-name="Trazado 41601" d="M1.331,73.915a1.662,1.662,0,0,0,.672,0,1.692,1.692,0,0,0,1.331-1.664,1.711,1.711,0,0,0-.285-.949,1.65,1.65,0,0,0-2.765,0A1.711,1.711,0,0,0,0,72.251a1.692,1.692,0,0,0,1.331,1.664" transform="translate(0 -37.832)" fill="#ff8300"/>
              <path id="Trazado_41602" data-name="Trazado 41602" d="M34.933,109.191a1.662,1.662,0,0,0,.672,0,1.692,1.692,0,0,0,1.331-1.664,1.722,1.722,0,0,0-.131-.661,1.656,1.656,0,0,0-3.072,0,1.721,1.721,0,0,0-.13.661,1.691,1.691,0,0,0,1.331,1.664" transform="translate(-18.018 -56.748)" fill="#ff8300"/>
              <path id="Trazado_41603" data-name="Trazado 41603" d="M34.933,73.915a1.662,1.662,0,0,0,.672,0,1.692,1.692,0,0,0,1.331-1.664,1.711,1.711,0,0,0-.285-.949,1.65,1.65,0,0,0-2.765,0,1.71,1.71,0,0,0-.284.949,1.691,1.691,0,0,0,1.331,1.664" transform="translate(-18.018 -37.832)" fill="#ff8300"/>
              <path id="Trazado_41604" data-name="Trazado 41604" d="M68.869,3.4a1.683,1.683,0,0,0,1.667-1.7,1.668,1.668,0,1,0-3.335,0,1.683,1.683,0,0,0,1.667,1.7" transform="translate(-36.035)" fill="#ff8300"/>
              <path id="Trazado_41605" data-name="Trazado 41605" d="M102.47,3.4a1.683,1.683,0,0,0,1.667-1.7,1.668,1.668,0,1,0-3.335,0,1.683,1.683,0,0,0,1.667,1.7" transform="translate(-54.053)" fill="#ff8300"/>
              <path id="Trazado_41606" data-name="Trazado 41606" d="M68.534,109.191a1.662,1.662,0,0,0,.672,0,1.692,1.692,0,0,0,1.331-1.664,1.722,1.722,0,0,0-.131-.661,1.656,1.656,0,0,0-3.072,0,1.722,1.722,0,0,0-.131.661,1.692,1.692,0,0,0,1.331,1.664" transform="translate(-36.036 -56.748)" fill="#ff8300"/>
              <path id="Trazado_41607" data-name="Trazado 41607" d="M68.534,73.915a1.662,1.662,0,0,0,.672,0,1.692,1.692,0,0,0,1.331-1.664,1.711,1.711,0,0,0-.285-.949,1.65,1.65,0,0,0-2.765,0,1.711,1.711,0,0,0-.285.949,1.692,1.692,0,0,0,1.331,1.664" transform="translate(-36.036 -37.832)" fill="#ff8300"/>
              <path id="Trazado_41608" data-name="Trazado 41608" d="M102.135,109.191a1.662,1.662,0,0,0,.672,0,1.692,1.692,0,0,0,1.331-1.664,1.722,1.722,0,0,0-.131-.661,1.656,1.656,0,0,0-3.072,0,1.722,1.722,0,0,0-.131.661,1.692,1.692,0,0,0,1.331,1.664" transform="translate(-54.054 -56.748)" fill="#ff8300"/>
              <path id="Trazado_41609" data-name="Trazado 41609" d="M102.135,73.915a1.662,1.662,0,0,0,.672,0,1.692,1.692,0,0,0,1.331-1.664,1.711,1.711,0,0,0-.285-.949,1.65,1.65,0,0,0-2.765,0,1.711,1.711,0,0,0-.285.949,1.692,1.692,0,0,0,1.331,1.664" transform="translate(-54.054 -37.832)" fill="#ff8300"/>
              <path id="Trazado_41610" data-name="Trazado 41610" d="M135.736,109.191a1.662,1.662,0,0,0,.672,0,1.692,1.692,0,0,0,1.331-1.664,1.722,1.722,0,0,0-.131-.661,1.656,1.656,0,0,0-3.072,0,1.722,1.722,0,0,0-.131.661,1.692,1.692,0,0,0,1.331,1.664" transform="translate(-72.072 -56.748)" fill="#ff8300"/>
              <path id="Trazado_41611" data-name="Trazado 41611" d="M135.736,73.915a1.662,1.662,0,0,0,.672,0,1.692,1.692,0,0,0,1.331-1.664,1.711,1.711,0,0,0-.285-.949,1.65,1.65,0,0,0-2.765,0,1.711,1.711,0,0,0-.285.949,1.692,1.692,0,0,0,1.331,1.664" transform="translate(-72.072 -37.832)" fill="#ff8300"/>
              <path id="Trazado_41612" data-name="Trazado 41612" d="M169.337,109.191a1.662,1.662,0,0,0,.672,0,1.692,1.692,0,0,0,1.331-1.664,1.722,1.722,0,0,0-.131-.661,1.656,1.656,0,0,0-3.072,0,1.722,1.722,0,0,0-.131.661,1.692,1.692,0,0,0,1.331,1.664" transform="translate(-90.089 -56.748)" fill="#ff8300"/>
              <path id="Trazado_41613" data-name="Trazado 41613" d="M169.337,73.915a1.662,1.662,0,0,0,.672,0,1.692,1.692,0,0,0,1.331-1.664,1.711,1.711,0,0,0-.285-.949,1.65,1.65,0,0,0-2.765,0,1.711,1.711,0,0,0-.285.949,1.692,1.692,0,0,0,1.331,1.664" transform="translate(-90.089 -37.832)" fill="#ff8300"/>
              <path id="Trazado_41614" data-name="Trazado 41614" d="M270.476,3.4a1.683,1.683,0,0,0,1.667-1.7,1.668,1.668,0,1,0-3.335,0,1.683,1.683,0,0,0,1.667,1.7" transform="translate(-144.143)" fill="#ff8300"/>
              <path id="Trazado_41615" data-name="Trazado 41615" d="M202.939,109.191a1.662,1.662,0,0,0,.672,0,1.692,1.692,0,0,0,1.331-1.664,1.722,1.722,0,0,0-.131-.661,1.656,1.656,0,0,0-3.072,0,1.722,1.722,0,0,0-.131.661,1.692,1.692,0,0,0,1.331,1.664" transform="translate(-108.108 -56.748)" fill="#ff8300"/>
              <path id="Trazado_41616" data-name="Trazado 41616" d="M202.939,73.915a1.662,1.662,0,0,0,.672,0,1.692,1.692,0,0,0,1.331-1.664,1.711,1.711,0,0,0-.285-.949,1.65,1.65,0,0,0-2.765,0,1.711,1.711,0,0,0-.285.949,1.692,1.692,0,0,0,1.331,1.664" transform="translate(-108.108 -37.832)" fill="#ff8300"/>
              <path id="Trazado_41617" data-name="Trazado 41617" d="M236.54,109.191a1.662,1.662,0,0,0,.672,0,1.692,1.692,0,0,0,1.331-1.664,1.722,1.722,0,0,0-.131-.661,1.656,1.656,0,0,0-3.072,0,1.722,1.722,0,0,0-.131.661,1.692,1.692,0,0,0,1.331,1.664" transform="translate(-126.125 -56.748)" fill="#ff8300"/>
              <path id="Trazado_41618" data-name="Trazado 41618" d="M236.54,73.915a1.662,1.662,0,0,0,.672,0,1.692,1.692,0,0,0,1.331-1.664,1.711,1.711,0,0,0-.285-.949,1.65,1.65,0,0,0-2.765,0,1.711,1.711,0,0,0-.285.949,1.692,1.692,0,0,0,1.331,1.664" transform="translate(-126.125 -37.832)" fill="#ff8300"/>
              <path id="Trazado_41619" data-name="Trazado 41619" d="M270.141,109.191a1.662,1.662,0,0,0,.672,0,1.692,1.692,0,0,0,1.331-1.664,1.722,1.722,0,0,0-.131-.661,1.656,1.656,0,0,0-3.072,0,1.722,1.722,0,0,0-.131.661,1.692,1.692,0,0,0,1.331,1.664" transform="translate(-144.143 -56.748)" fill="#ff8300"/>
              <path id="Trazado_41620" data-name="Trazado 41620" d="M270.141,73.915a1.662,1.662,0,0,0,.672,0,1.692,1.692,0,0,0,1.331-1.664,1.711,1.711,0,0,0-.285-.949,1.65,1.65,0,0,0-2.765,0,1.71,1.71,0,0,0-.285.949,1.692,1.692,0,0,0,1.331,1.664" transform="translate(-144.143 -37.832)" fill="#ff8300"/>
              <path id="Trazado_41621" data-name="Trazado 41621" d="M1.667,38.673a1.7,1.7,0,0,0,0-3.4,1.7,1.7,0,0,0,0,3.4" transform="translate(0 -18.916)" fill="#ff8300"/>
              <path id="Trazado_41622" data-name="Trazado 41622" d="M35.268,38.673a1.7,1.7,0,1,0-1.667-1.7,1.683,1.683,0,0,0,1.667,1.7" transform="translate(-18.018 -18.916)" fill="#ff8300"/>
              <path id="Trazado_41623" data-name="Trazado 41623" d="M1.667,176.381a1.7,1.7,0,0,0,0,3.4,1.7,1.7,0,0,0,0-3.4" transform="translate(0 -94.58)" fill="#ff8300"/>
              <path id="Trazado_41624" data-name="Trazado 41624" d="M1.667,144.5a1.7,1.7,0,0,0,0-3.4,1.7,1.7,0,0,0,0,3.4" transform="translate(0 -75.664)" fill="#ff8300"/>
              <path id="Trazado_41625" data-name="Trazado 41625" d="M35.268,179.778a1.7,1.7,0,1,0-1.667-1.7,1.683,1.683,0,0,0,1.667,1.7" transform="translate(-18.018 -94.58)" fill="#ff8300"/>
              <path id="Trazado_41626" data-name="Trazado 41626" d="M35.268,144.5a1.7,1.7,0,1,0-1.667-1.7,1.683,1.683,0,0,0,1.667,1.7" transform="translate(-18.018 -75.664)" fill="#ff8300"/>
              <path id="Trazado_41627" data-name="Trazado 41627" d="M68.869,38.673a1.7,1.7,0,1,0-1.667-1.7,1.683,1.683,0,0,0,1.667,1.7" transform="translate(-36.035 -18.916)" fill="#ff8300"/>
              <path id="Trazado_41628" data-name="Trazado 41628" d="M102.47,38.673a1.7,1.7,0,1,0-1.667-1.7,1.683,1.683,0,0,0,1.667,1.7" transform="translate(-54.053 -18.916)" fill="#ff8300"/>
              <path id="Trazado_41629" data-name="Trazado 41629" d="M136.072,38.673a1.7,1.7,0,1,0-1.667-1.7,1.683,1.683,0,0,0,1.667,1.7" transform="translate(-72.072 -18.916)" fill="#ff8300"/>
              <path id="Trazado_41630" data-name="Trazado 41630" d="M169.673,38.673a1.7,1.7,0,1,0-1.667-1.7,1.683,1.683,0,0,0,1.667,1.7" transform="translate(-90.089 -18.916)" fill="#ff8300"/>
              <path id="Trazado_41631" data-name="Trazado 41631" d="M203.274,38.673a1.7,1.7,0,1,0-1.667-1.7,1.683,1.683,0,0,0,1.667,1.7" transform="translate(-108.107 -18.916)" fill="#ff8300"/>
              <path id="Trazado_41632" data-name="Trazado 41632" d="M236.875,38.673a1.7,1.7,0,1,0-1.667-1.7,1.683,1.683,0,0,0,1.667,1.7" transform="translate(-126.125 -18.916)" fill="#ff8300"/>
              <path id="Trazado_41633" data-name="Trazado 41633" d="M270.476,38.673a1.7,1.7,0,1,0-1.667-1.7,1.683,1.683,0,0,0,1.667,1.7" transform="translate(-144.143 -18.916)" fill="#ff8300"/>
              <path id="Trazado_41634" data-name="Trazado 41634" d="M236.875,179.778a1.7,1.7,0,1,0-1.667-1.7,1.683,1.683,0,0,0,1.667,1.7" transform="translate(-126.125 -94.58)" fill="#ff8300"/>
              <path id="Trazado_41635" data-name="Trazado 41635" d="M236.875,144.5a1.7,1.7,0,1,0-1.667-1.7,1.683,1.683,0,0,0,1.667,1.7" transform="translate(-126.125 -75.664)" fill="#ff8300"/>
              <path id="Trazado_41636" data-name="Trazado 41636" d="M270.476,179.778a1.7,1.7,0,1,0-1.667-1.7,1.683,1.683,0,0,0,1.667,1.7" transform="translate(-144.143 -94.58)" fill="#ff8300"/>
              <path id="Trazado_41637" data-name="Trazado 41637" d="M270.476,144.5a1.7,1.7,0,1,0-1.667-1.7,1.683,1.683,0,0,0,1.667,1.7" transform="translate(-144.143 -75.664)" fill="#ff8300"/>
            </g>
          </g>
          <g id="Grupo_19215" data-name="Grupo 19215" transform="translate(6 426.599)">
            <g id="Grupo_19214" data-name="Grupo 19214" transform="translate(0 0)" clip-path="url(#clip-path-3)">
              <path id="Trazado_41638" data-name="Trazado 41638" d="M165,12.941a8.008,8.008,0,1,1-16.01,0,12.623,12.623,0,1,0-25.239,0,8.008,8.008,0,1,1-16.01,0,12.623,12.623,0,1,0-25.239,0,8.008,8.008,0,1,1-16.01,0,12.623,12.623,0,1,0-25.239,0,8.008,8.008,0,1,1-16.01,0A12.784,12.784,0,0,0,12.619,0,12.784,12.784,0,0,0,0,12.941H4.614a8.109,8.109,0,0,1,8-8.209,8.109,8.109,0,0,1,8,8.209,12.624,12.624,0,1,0,25.239,0,8.008,8.008,0,1,1,16.01,0,12.623,12.623,0,1,0,25.238,0,8.008,8.008,0,1,1,16.011,0,12.623,12.623,0,1,0,25.239,0,8.008,8.008,0,1,1,16.01,0,12.623,12.623,0,1,0,25.239,0Z" transform="translate(0 0)" fill="#05a451"/>
            </g>
          </g>
          <path id="Trazado_41639" data-name="Trazado 41639" d="M14.868,0,0,14.868,14.868,29.736,29.736,14.868ZM86.23,0,71.363,14.868,86.23,29.736,101.1,14.868Zm71.363,0L142.725,14.868l14.868,14.868,14.867-14.868Z" transform="translate(455.539 631)" fill="#ff8300"/>
          <g id="Grupo_19217" data-name="Grupo 19217" transform="translate(-70.627 563.411)">
            <g id="Grupo_19216" data-name="Grupo 19216" transform="translate(0 30)" clip-path="url(#clip-path-4)">
              <path id="Trazado_41640" data-name="Trazado 41640" d="M183.9,57.033c23.644-.2,49.18,3.027,66.5,19.117,9.436-19.786,31.946-49.371,31.946-49.371S260.339,14.747,251.851,11.89C201.339-5.113,135.415-3.193,84.9,13.271,66.045,19.416,0,55.72,0,55.72S9.647,80.16,18.641,103.8C70.655,76.365,124.289,57.537,183.9,57.033" transform="translate(0 0)" fill="#0086cc"/>
            </g>
          </g>
        </g>
      </g>
    </g>
    <g id="Grupo_19221" data-name="Grupo 19221" transform="translate(474 472)">
      <g id="Grupo_19220" data-name="Grupo 19220" clip-path="url(#clip-path-5)">
        <path id="Trazado_41641" data-name="Trazado 41641" d="M90,45A45,45,0,1,1,45,0,45,45,0,0,1,90,45" fill="#f40000"/>
        <path id="Trazado_41642" data-name="Trazado 41642" d="M65.826,70.38H24.178a1.4,1.4,0,0,1-1.4-1.4V45.522a4.758,4.758,0,0,1,4.752-4.752H62.474a4.757,4.757,0,0,1,4.751,4.752V68.981a1.4,1.4,0,0,1-1.4,1.4" fill="none" stroke="#fff" stroke-linecap="round" stroke-linejoin="round" stroke-width="3.14"/>
        <path id="Trazado_41643" data-name="Trazado 41643" d="M34.1,39.951V32.776m0-1.123c-2.005,0-3.7-2.312-3.7-5.046,0-1.669,1.86-4.643,3.7-6.987,1.842,2.344,3.7,5.318,3.7,6.987C37.8,29.341,36.107,31.653,34.1,31.653Z" fill="none" stroke="#fff" stroke-linecap="round" stroke-linejoin="round" stroke-width="3.14"/>
        <path id="Trazado_41644" data-name="Trazado 41644" d="M45,39.951V32.776m0-1.123c-2.005,0-3.7-2.312-3.7-5.046,0-1.669,1.86-4.643,3.7-6.987,1.842,2.344,3.7,5.318,3.7,6.987C48.7,29.341,47.005,31.653,45,31.653Z" fill="none" stroke="#fff" stroke-linecap="round" stroke-linejoin="round" stroke-width="3.14"/>
        <path id="Trazado_41645" data-name="Trazado 41645" d="M55.9,39.951V32.776m0-1.123c-2,0-3.7-2.312-3.7-5.046,0-1.669,1.86-4.643,3.7-6.987,1.842,2.344,3.7,5.318,3.7,6.987C59.6,29.341,57.9,31.653,55.9,31.653Z" fill="none" stroke="#fff" stroke-linecap="round" stroke-linejoin="round" stroke-width="3.14"/>
        <line id="Línea_806" data-name="Línea 806" x1="43.125" transform="translate(23.437 51.809)" fill="none" stroke="#fff" stroke-linecap="round" stroke-linejoin="round" stroke-width="3.14"/>
        <line id="Línea_807" data-name="Línea 807" x1="43.125" transform="translate(23.437 57.954)" fill="none" stroke="#fff" stroke-linecap="round" stroke-linejoin="round" stroke-width="3.14"/>
      </g>
    </g>
    <g id="Grupo_19223" data-name="Grupo 19223" transform="translate(316 472)">
      <g id="Grupo_19222" data-name="Grupo 19222" clip-path="url(#clip-path-5)">
        <path id="Trazado_41646" data-name="Trazado 41646" d="M90,45A45,45,0,1,1,45,0,45,45,0,0,1,90,45" fill="#f40000"/>
        <path id="Trazado_41647" data-name="Trazado 41647" d="M58.875,23.439a4.1,4.1,0,0,0-1.11-2.469A5.405,5.405,0,0,0,53.9,19.62H32.23A4.7,4.7,0,0,0,27.551,24.3v4.19c0,.025-.015-2.353-.015-2.327a.59.59,0,0,0,.015.073m0,31.807c0,1.207,0,4.941,0,4.942v1.8a4.708,4.708,0,0,0,4.682,4.679H50.675M24.407,31.357l.237-.589a3.151,3.151,0,0,1,4.078-1.743l5.119,2.053a3.157,3.157,0,0,1,1.746,4.08l-.234.586a3.163,3.163,0,0,1-4.08,1.747l-5.12-2.054A3.155,3.155,0,0,1,24.407,31.357Zm-4.173,5.728.236-.588h0a3.152,3.152,0,0,1,4.08-1.746l11.221,4.5a3.161,3.161,0,0,1,1.745,4.081l-.234.584a3.164,3.164,0,0,1-4.08,1.748l-11.222-4.5A3.161,3.161,0,0,1,20.234,37.085Zm.129,7.546.236-.59A3.153,3.153,0,0,1,24.678,42.3l6.963,2.792a3.154,3.154,0,0,1,1.744,4.081l-.234.585A3.164,3.164,0,0,1,29.7,51.678l-4.148-1.663a4.522,4.522,0,0,0-.763-.226l-2.685-1.077A3.159,3.159,0,0,1,20.363,44.631Zm2.056,11.53a3.158,3.158,0,0,1-1.746-4.079l.235-.586h0a3.158,3.158,0,0,1,3.441-1.923L28.5,51.238a4.689,4.689,0,0,0,.764.227l.412.165a3.163,3.163,0,0,1,1.747,4.08l-.236.585a3.17,3.17,0,0,1-4.08,1.749Zm5.131,4.982H58.581m9.925-1.971a46.26,46.26,0,0,1-3.741,6.342c-.45.676-.874,1.314-1.27,1.944l-.158.181c-.437.5-.735.838-.882,1.019-3.119,2.22-7.71,2.072-11.78.807H53.9a4.723,4.723,0,0,0,4.677-4.681V51.818l0-.011a.683.683,0,0,0-.035-.172.583.583,0,0,0-.021-.094.766.766,0,0,0-.056-.084.7.7,0,0,0-.1-.14l-.006-.009a9.477,9.477,0,0,1-2.977-7.433l.012-.436L55.246,32.1c-.073-1.4.9-3.76,1.989-5.425a.718.718,0,0,0,.158-.233,7.372,7.372,0,0,1,.97-1.178,4.039,4.039,0,0,1,3.849-.4c.554.281.515.593.5.726l-1.143,9.23c-.36,3.139,1.091,8.675,4.559,13.183.581.756,1.126,1.4,1.606,1.968C70.14,52.814,70.951,53.774,68.506,59.172Z" fill="none" stroke="#fff" stroke-linecap="round" stroke-linejoin="round" stroke-width="3.14"/>
        <line id="Línea_808" data-name="Línea 808" x1="5.016" transform="translate(41.185 65.205)" fill="none" stroke="#fff" stroke-linecap="round" stroke-linejoin="round" stroke-width="3.14"/>
        <line id="Línea_809" data-name="Línea 809" y2="1.221" transform="translate(58.874 23.475)" fill="none" stroke="#fff" stroke-linecap="round" stroke-linejoin="round" stroke-width="3.14"/>
      </g>
    </g>
    <g id="Grupo_19225" data-name="Grupo 19225" transform="translate(158 472)">
      <g id="Grupo_19224" data-name="Grupo 19224" clip-path="url(#clip-path-5)">
        <path id="Trazado_41648" data-name="Trazado 41648" d="M90,45A45,45,0,1,1,45,0,45,45,0,0,1,90,45" fill="#f40000"/>
        <path id="Trazado_41649" data-name="Trazado 41649" d="M41.142,63.648c1.072.506,3.145,1.843,3.827,2.018s1.111.256,1.255.281.43.1.833.16a9.949,9.949,0,0,0,1.453.112,7.081,7.081,0,0,0,1.345-.121,4.549,4.549,0,0,0,1.3-.448A6.343,6.343,0,0,0,52.7,64.457a8.718,8.718,0,0,0,.982-1.226,6.822,6.822,0,0,0,1.39-.063,3.73,3.73,0,0,0,1.466-.525,3.518,3.518,0,0,0,1.231-1.436,5.471,5.471,0,0,0,.472-1.588,6.5,6.5,0,0,0,1.377-.2,3.571,3.571,0,0,0,1.33-.641,3.9,3.9,0,0,0,1.114-1.439,4.473,4.473,0,0,0,.371-1.475,4.537,4.537,0,0,0,2.1-.321,3.634,3.634,0,0,0,1.781-1.657,3.955,3.955,0,0,0,.509-1.88,3.711,3.711,0,0,0-.48-1.826,10.171,10.171,0,0,0,.855-.552,11.148,11.148,0,0,0,.969-.786c.221-.2.412-.384.582-.554s.32-.329.461-.476.272-.285.41-.421.282-.271.445-.412l.4.718.4.719a2.139,2.139,0,0,0,.772.788,2.08,2.08,0,0,0,1.056.289,2.021,2.021,0,0,0,.558-.078,2.073,2.073,0,0,0,.518-.226L76,47.831l2.229-1.358a2.133,2.133,0,0,0,.952-1.3,2.18,2.18,0,0,0-.207-1.611l-5.486-9.742L68,24.078a2.113,2.113,0,0,0-.771-.785,2.067,2.067,0,0,0-2.132.014l-2.229,1.358-2.228,1.359a2.133,2.133,0,0,0-.954,1.3,2.177,2.177,0,0,0,.207,1.61l.309.549.31.55a8.883,8.883,0,0,1-1.21.316,4.21,4.21,0,0,1-1.081.069,10.7,10.7,0,0,1-1.219-.192c-.454-.093-.952-.21-1.486-.335-.929-.218-1.972-.464-3.1-.654a21.443,21.443,0,0,0-3.59-.326h-.177a49.928,49.928,0,0,0-6.608.452c-2.237.338-4.187.916-4.884,1.9-.091.129-.192.269-.3.417s-.221.305-.339.466c-.184-.03-.374-.061-.571-.091s-.4-.061-.613-.092c-.612-.091-1.337-.2-1.982-.324a5.855,5.855,0,0,1-1.5-.437c-.242-.137-.583-.341-.975-.581s-.835-.514-1.281-.793l.251-.445.251-.446a2.179,2.179,0,0,0,.208-1.611,2.13,2.13,0,0,0-.952-1.3l-2.23-1.36L24.9,23.306a2.086,2.086,0,0,0-.518-.225A2.06,2.06,0,0,0,23.823,23a2.081,2.081,0,0,0-1.057.289,2.108,2.108,0,0,0-.77.787L16.51,33.822l-5.485,9.743a2.181,2.181,0,0,0-.206,1.61,2.142,2.142,0,0,0,.952,1.3L14,47.835l2.23,1.358a2.069,2.069,0,0,0,2.131.013,2.121,2.121,0,0,0,.772-.787l.44-.783.441-.783.4.444.4.443c.063.079,2.261,2.366,2.592,2.778M60.917,30.747,65.282,38.5l4.189,7.439M38.034,66.306a1.632,1.632,0,0,1-.759.571,2.033,2.033,0,0,1-.693.119,2.542,2.542,0,0,1-.906-.174,3.115,3.115,0,0,1-.851-.5,3.247,3.247,0,0,1-.889-1.153,2.845,2.845,0,0,1-.267-1.308,2.277,2.277,0,0,1,.1-.575,1.727,1.727,0,0,1,.255-.507v0h0l.144-.195.143-.195.516-.7.515-.7L36.4,59.55l1.059-1.438a1.639,1.639,0,0,1,.763-.573,2.013,2.013,0,0,1,.693-.12,2.512,2.512,0,0,1,.9.175,3.08,3.08,0,0,1,.852.5,3.244,3.244,0,0,1,1.1,1.763,2.176,2.176,0,0,1-.3,1.782l-.556.754-.555.753-1.017,1.379L38.33,65.9l-.148.2Zm-6.251-1.653a2.522,2.522,0,0,1-.906-.175,3.107,3.107,0,0,1-.853-.5,3.3,3.3,0,0,1-.841-1.046,2.942,2.942,0,0,1-.326-1.2,2.194,2.194,0,0,1,.021-.391,2.322,2.322,0,0,1,.194-.653,1.492,1.492,0,0,1,.152-.258l.6-.811.6-.812,2.267-3.075,2.267-3.075a1.511,1.511,0,0,1,.21-.235,1.574,1.574,0,0,1,.229-.174,1.785,1.785,0,0,1,.553-.231,2.059,2.059,0,0,1,.461-.053,2.532,2.532,0,0,1,.905.174,3.111,3.111,0,0,1,.849.5,3.249,3.249,0,0,1,1.1,1.765,2.175,2.175,0,0,1-.3,1.783L37.04,58.8l-1.924,2.611-.94,1.277-.94,1.276c-.019.026-.038.049-.058.072l-.061.066a1.66,1.66,0,0,1-.709.456A1.984,1.984,0,0,1,31.783,64.653Zm-7.547-6.382a1.9,1.9,0,0,1,.093-.193,1.513,1.513,0,0,1,.116-.182l.85-1.153.85-1.154.041-.055.042-.056.711-.964.71-.965.007-.01.007-.01,1.943-2.636,1.942-2.637a1.646,1.646,0,0,1,.764-.572,2.048,2.048,0,0,1,.695-.12,2.507,2.507,0,0,1,.9.175,3.1,3.1,0,0,1,.852.5A3.234,3.234,0,0,1,35.866,50a2.181,2.181,0,0,1-.3,1.785L35.41,52l-.155.21q-.191.169-.365.357a4.358,4.358,0,0,0-.329.4l-2.3,3.118-2.3,3.117-.566.768-.567.769a4.552,4.552,0,0,0-.265.4q-.12.207-.222.421a1.714,1.714,0,0,1-.176.167,1.6,1.6,0,0,1-.185.131,1.814,1.814,0,0,1-.537.214,2.092,2.092,0,0,1-.448.05,2.538,2.538,0,0,1-.9-.173,3.067,3.067,0,0,1-.848-.5,3.28,3.28,0,0,1-1.039-1.535A2.416,2.416,0,0,1,24.236,58.271Zm-2.855-4.985a.45.45,0,0,0,.023-.043.252.252,0,0,1,.024-.042l.989-1.342.988-1.341.155-.21.154-.209a1.648,1.648,0,0,1,.763-.572,2.042,2.042,0,0,1,.694-.119,2.538,2.538,0,0,1,.906.174,3.153,3.153,0,0,1,.852.5,3.237,3.237,0,0,1,1.1,1.756,2.177,2.177,0,0,1-.293,1.779l0,.007,0,.005-.445.6-.444.6L26.719,55l-.124.167-.577.783-.578.783a1.614,1.614,0,0,1-.4.388,1.745,1.745,0,0,1-.437.21,2.139,2.139,0,0,1-.337.076,2.1,2.1,0,0,1-.278.019,2.532,2.532,0,0,1-.905-.174,3.064,3.064,0,0,1-.85-.5,3.232,3.232,0,0,1-1.085-1.711A2.237,2.237,0,0,1,21.381,53.286Zm27.126.564L52.6,56.217l5.641,3.4M51.21,49.034l4.737,2.844,6.482,3.987M35.818,33.03l.042.006c-.606.845-1.232,1.737-1.79,2.587a23.882,23.882,0,0,0-1.387,2.336.846.846,0,0,0-.038.087.867.867,0,0,0-.031.09,6.214,6.214,0,0,0-.274,1.559,2.506,2.506,0,0,0,.452,1.59,2.1,2.1,0,0,0,.9.687,3.492,3.492,0,0,0,1.332.231c.106,0,.218,0,.33-.009s.227-.015.339-.026a8.894,8.894,0,0,0,4.947-2.161,13.946,13.946,0,0,0,2.531-2.786l1.009-.321,1.009-.321c.594.3,1.818.935,3.268,1.725s3.127,1.741,4.627,2.682c.048.03.367.237.685.444l.677.442q1.932,1.317,3.408,2.373c.987.7,1.827,1.318,2.528,1.84.472.359.953.728,1.415,1.086s.9.7,1.3,1.015l.028.023.012.009,2.486,1.76m-12.5,12.858-5.776-3.217" fill="none" stroke="#fff" stroke-linecap="round" stroke-linejoin="round" stroke-width="3.14"/>
        <line id="Línea_810" data-name="Línea 810" y1="19.165" x2="11.145" transform="translate(18.361 30.041)" fill="none" stroke="#fff" stroke-linecap="round" stroke-linejoin="round" stroke-width="3.14"/>
      </g>
    </g>
  </g>
</svg>
