<svg id="img-fondo-login-blanco" xmlns="http://www.w3.org/2000/svg" xmlns:xlink="http://www.w3.org/1999/xlink" width="768" height="1024" viewBox="0 0 768 1024">
  <defs>
    <clipPath id="clip-path">
      <rect id="Rectángulo_21042" data-name="Rectángulo 21042" width="768" height="1024" fill="#fff" stroke="#707070" stroke-width="1"/>
    </clipPath>
  </defs>
  <path id="Trazado_41031" data-name="Trazado 41031" d="M0,0H768V1024H0Z" fill="#fff"/>
  <g id="Enmascarar_grupo_1356" data-name="Enmascarar grupo 1356" clip-path="url(#clip-path)">
    <g id="Grupo_18929" data-name="Grupo 18929">
      <path id="Trazado_40814" data-name="Trazado 40814" d="M457.2,759.486c24.381-19.085,24.271-55.5,37.949-83.271C536.552,592.144,684.7,611.543,722.8,525.923c16.938-38.062,4.01-81.85-4.49-122.635s-9.517-89.95,22.525-116.574c34.178-28.4,88.841-16.2,124.869-42.215,26-18.772,35.594-52.417,43.5-83.495L950.176,0H872.928c3.962,66.36-.082,140.865-53.128,178.632-58.381,41.566-152.127,17.656-198.321,72.448-50.778,60.229.8,163.618-46.887,226.324-51.533,67.766-150.428,42.879-216.218,88.827v188c33.578,16.232,75.368,23.6,98.822,5.249" transform="translate(-500.592 -123.031)" fill="#f2f2f2"/>
      <path id="Trazado_40815" data-name="Trazado 40815" d="M566.349,890.168C599.287,844,612.591,787.082,625.185,731.784c-40.448,4.08-71.208,36.523-99.951,65.274-22.642,22.647-50,45.405-80.261,51.229V957.851c43.238.031,92-26.5,121.376-67.683" transform="translate(-557.975 -607.917)" fill="#f2f2f2"/>
      <path id="Trazado_40816" data-name="Trazado 40816" d="M572.6,326.874c45.4-33.738,99.728-58.1,156.289-58.369,29.94-.144,60.2,6.383,89.585.665s58.826-29.6,56.469-59.446L716.972,213.8c-73.421,1.9-152.822,5.911-209.62,52.476-22.34,18.315-40.9,42.951-62.379,61.956V454.379c2.392-2.847,4.826-5.643,7.242-8.4C489.522,403.47,527.2,360.612,572.6,326.874" transform="translate(-557.975 -261.994)" fill="#f2f2f2"/>
      <path id="Trazado_40817" data-name="Trazado 40817" d="M2325.333,1748.319c-36.307-18.99,4.708-92.419-32.122-110.375-22.474-10.957-45.937,15.471-51.227,39.907a121.612,121.612,0,0,0,13.029,84.988c6.545,11.5,15.042,25.971,7.177,36.612-10.739,14.53-32.845.879-46.679-10.744-69.4-58.308-147.737-58.4-233.587-29.319-25.048,8.485-50.9,19.235-67.011,40.2s-18.01,55.012,2.65,71.522c16.883,13.491,41.229,10.8,62.272,5.884,55.416-12.96,84.023-26.816,140.9-24.76s118.7,42.907,116.758,99.785c-50.548-24.845-106.244-50.371-161.133-37.74-8.592,1.978-17.39,5.148-23.167,11.809-12.76,14.712-3.979,39.14,11.84,50.5s36.033,13.947,54.861,18.922c55.395,14.635,100.76,54.749,127.911,104.455,12.764,23.368,18.5,57.505,33.134,82.749h83V1763.561a53.655,53.655,0,0,0-18.9-9.635c-6.592-1.855-13.635-2.434-19.7-5.608" transform="translate(-1523.715 -888.053)" fill="#f2f2f2"/>
      <path id="Trazado_40858" data-name="Trazado 40858" d="M455.215,1753.866c-13.863-22.621-35.615-41.821-61.764-46.309-16.25-2.789-33.526.119-48.943-5.724-31.3-11.865-42.535-54.391-73.986-65.857-14.545-5.3-31.14-2.881-45.45-8.79-24.4-10.077-33.314-39.681-37.189-65.8s-7.125-55.309-27.278-72.365c-43,17.848-41.078,80.123-69.3,117.153-17.26,22.651-44.968,34.41-66.862,52.621A199.063,199.063,0,0,0,0,1688.529v129.608H480.47c-6.208-22.322-13.184-44.573-25.255-64.27" transform="translate(-263.131 -794.136)" fill="#ff8300"/>
      <path id="Trazado_40861" data-name="Trazado 40861" d="M3003.254,2048.475c-3.595,0-5.475-2.825-7.654-6.095-2.442-3.667-5.209-7.824-10.883-7.824s-8.44,4.157-10.883,7.824c-2.141,3.216-4,5.986-7.484,6.078-3.48-.092-5.343-2.862-7.484-6.078-2.442-3.667-5.21-7.824-10.883-7.824-.059,0-.108.015-.167.016s-.108-.016-.168-.016c-5.673,0-8.441,4.157-10.882,7.825-2.139,3.212-4,5.98-7.475,6.076-3.474-.1-5.336-2.864-7.476-6.077-2.442-3.667-5.21-7.824-10.883-7.824h-.019c-.059,0-.108.015-.167.016s-.107-.016-.166-.016a1.838,1.838,0,0,0-.285.058c-5.241.3-7.917,4.241-10.265,7.766-2.139,3.213-4,5.98-7.475,6.077-3.474-.1-5.336-2.864-7.476-6.077-2.442-3.667-5.209-7.824-10.882-7.824-.059,0-.108.015-.167.016s-.108-.016-.168-.016h-.016c-.005,0-.009,0-.014,0-5.65.016-8.415,4.161-10.851,7.822-2.142,3.216-4,5.987-7.486,6.077-3.481-.09-5.343-2.861-7.485-6.077-2.441-3.667-5.209-7.825-10.881-7.825-.059,0-.108.015-.167.016s-.107-.016-.167-.016a1.844,1.844,0,0,0-.285.058c-5.241.3-7.917,4.241-10.264,7.766-2.177,3.27-4.058,6.095-7.652,6.095s-5.475-2.825-7.651-6.094c-2.442-3.667-5.209-7.825-10.882-7.825a1.94,1.94,0,1,0,0,3.88c3.593,0,5.474,2.824,7.652,6.094,2.442,3.667,5.208,7.824,10.881,7.824s8.44-4.157,10.882-7.824c2.141-3.217,4-5.988,7.485-6.078,3.481.09,5.344,2.861,7.486,6.078,2.441,3.667,5.209,7.824,10.881,7.824.059,0,.108-.014.167-.015s.107.015.166.015c5.674,0,8.442-4.157,10.884-7.824,2.14-3.214,4-5.982,7.477-6.077,3.474.1,5.336,2.863,7.475,6.076,2.442,3.667,5.209,7.824,10.882,7.824h.017c.06,0,.109-.014.169-.015s.109.015.169.015a1.786,1.786,0,0,0,.289-.058c5.235-.306,7.911-4.242,10.257-7.765,2.139-3.214,4-5.982,7.477-6.077,3.474.1,5.336,2.863,7.476,6.077,2.442,3.667,5.209,7.824,10.881,7.824.06,0,.108-.014.167-.015s.107.015.167.015h.021c.007,0,.012,0,.019,0,5.644-.021,8.407-4.163,10.843-7.82,2.142-3.217,4-5.987,7.486-6.078,3.48.09,5.343,2.861,7.484,6.077,2.442,3.667,5.209,7.824,10.882,7.824.06,0,.11-.014.169-.015s.109.015.169.015a1.8,1.8,0,0,0,.289-.058c5.235-.306,7.91-4.242,10.256-7.765,2.178-3.271,4.058-6.095,7.653-6.095s5.476,2.824,7.653,6.095c2.443,3.667,5.21,7.824,10.884,7.824a1.94,1.94,0,0,0,0-3.88" transform="translate(-2182.537 -1333.586)" fill="#05a451"/>
      <path id="Trazado_40862" data-name="Trazado 40862" d="M3108.552,1979.568c-3.595,0-5.476-2.824-7.653-6.095-2.442-3.667-5.21-7.824-10.883-7.824s-8.441,4.157-10.883,7.824c-2.141,3.216-4,5.986-7.484,6.078-3.48-.092-5.343-2.862-7.485-6.078-2.442-3.667-5.21-7.824-10.883-7.824-.059,0-.109.015-.168.016s-.108-.016-.167-.016c-5.672,0-8.44,4.157-10.882,7.824-2.139,3.214-4,5.981-7.475,6.077-3.474-.1-5.336-2.863-7.475-6.077-2.442-3.667-5.21-7.824-10.883-7.824h-.019c-.059,0-.108.015-.167.016s-.107-.016-.167-.016a1.8,1.8,0,0,0-.285.058c-5.241.3-7.917,4.241-10.264,7.766-2.139,3.214-4,5.981-7.475,6.077-3.475-.1-5.336-2.863-7.477-6.077-2.442-3.667-5.21-7.824-10.883-7.824-.06,0-.109.015-.167.016s-.107-.016-.167-.016h-.017c-.006,0-.01,0-.015,0-5.65.016-8.414,4.161-10.851,7.821-2.142,3.217-4,5.988-7.486,6.078-3.481-.09-5.344-2.861-7.485-6.078-2.442-3.667-5.209-7.824-10.882-7.824-.059,0-.108.015-.167.016s-.107-.016-.166-.016a1.782,1.782,0,0,0-.285.058c-5.241.3-7.917,4.241-10.264,7.766-2.177,3.271-4.058,6.095-7.652,6.095s-5.474-2.824-7.652-6.094c-2.441-3.667-5.209-7.824-10.881-7.824a1.94,1.94,0,0,0,0,3.881c3.594,0,5.475,2.824,7.652,6.094,2.441,3.667,5.209,7.824,10.882,7.824s8.44-4.157,10.882-7.824c2.142-3.217,4-5.988,7.485-6.078,3.481.09,5.344,2.861,7.485,6.078,2.442,3.667,5.209,7.824,10.882,7.824.059,0,.108-.015.167-.016s.107.016.167.016c5.673,0,8.441-4.157,10.883-7.824,2.14-3.214,4-5.982,7.477-6.077,3.474.1,5.336,2.863,7.476,6.076,2.442,3.667,5.209,7.824,10.882,7.824h.017c.06,0,.11-.015.169-.016s.109.016.169.016a1.854,1.854,0,0,0,.289-.058c5.235-.306,7.91-4.242,10.256-7.765,2.14-3.214,4-5.982,7.477-6.077,3.474.1,5.336,2.863,7.476,6.077,2.442,3.667,5.209,7.824,10.881,7.824.059,0,.108-.015.167-.016s.107.016.167.016h.021c.006,0,.012,0,.018,0,5.645-.02,8.407-4.162,10.843-7.82,2.142-3.217,4-5.987,7.486-6.078,3.48.091,5.343,2.862,7.484,6.078,2.442,3.667,5.209,7.824,10.882,7.824.06,0,.109-.015.169-.016s.109.016.169.016a1.848,1.848,0,0,0,.289-.058c5.236-.307,7.911-4.242,10.257-7.765,2.177-3.27,4.058-6.094,7.653-6.094s5.475,2.824,7.653,6.094c2.442,3.667,5.21,7.824,10.883,7.824a1.94,1.94,0,1,0,0-3.88" transform="translate(-2252.309 -1287.927)" fill="#05a451"/>
      <path id="Trazado_40863" data-name="Trazado 40863" d="M2533.382,1658.679l-10.358-10.357,10.358-10.357,10.357,10.357Zm-39.357-10.357-10.357-10.357-10.357,10.357,10.357,10.357Zm-49.713,0-10.357-10.357-10.357,10.357,10.357,10.357Z" transform="translate(-1885.116 -886.62)" fill="#ff8300"/>
      <path id="Trazado_40864" data-name="Trazado 40864" d="M3042.63,1540.315c15.036-.127,31.275,1.925,42.292,12.157,6-12.583,20.315-31.4,20.315-31.4s-13.995-7.651-19.393-9.468c-32.122-10.812-74.044-9.592-106.171.879-11.989,3.907-53.989,26.994-53.989,26.994s6.135,15.542,11.854,30.578c33.077-17.449,67.185-29.423,105.091-29.743" transform="translate(-2267.062 -982.064)" fill="#f40000"/>
      <path id="Trazado_40866" data-name="Trazado 40866" d="M646.383,1030.307a8.809,8.809,0,1,1-17.613,0,13.887,13.887,0,1,0-27.766,0,8.809,8.809,0,1,1-17.613,0,13.887,13.887,0,1,0-27.766,0,8.809,8.809,0,1,1-17.613,0,13.887,13.887,0,1,0-27.765,0,8.809,8.809,0,1,1-17.613,0,13.887,13.887,0,1,0-27.766,0h5.076a8.809,8.809,0,1,1,17.613,0,13.887,13.887,0,1,0,27.766,0,8.809,8.809,0,1,1,17.613,0,13.887,13.887,0,1,0,27.765,0,8.81,8.81,0,1,1,17.614,0,13.887,13.887,0,1,0,27.765,0,8.809,8.809,0,1,1,17.613,0,13.887,13.887,0,1,0,27.766,0Z" transform="translate(-571.158 -902.422)" fill="#f40000"/>
      <path id="Trazado_40868" data-name="Trazado 40868" d="M820.108,1794.6a50.14,50.14,0,1,1-50.14-50.14,50.14,50.14,0,0,1,50.14,50.14" transform="translate(-666.619 -906.559)" fill="#0086cc"/>
      <path id="Trazado_40869" data-name="Trazado 40869" d="M927.558,2111.011h30.388l-15.194-26.989Z" transform="translate(-804.264 -1142.459)" fill="#fd0"/>
      <path id="Trazado_40870" data-name="Trazado 40870" d="M927.558,1889.732h30.388l-15.194-26.989Z" transform="translate(-804.264 -995.837)" fill="#fd0"/>
      <path id="Trazado_40871" data-name="Trazado 40871" d="M942.753,1641.465l-15.194,26.988h30.388Z" transform="translate(-804.264 -849.216)" fill="#fd0"/>
      <path id="Trazado_40872" data-name="Trazado 40872" d="M1115.528,237.891A118.084,118.084,0,1,1,997.445,119.807a118.084,118.084,0,0,1,118.084,118.084" transform="translate(-845.806 -273.967)" fill="#ff8300"/>
      <path id="Trazado_40873" data-name="Trazado 40873" d="M3005.846,687.682c7.9,29.111,31.79,53.006,60.5,62.259,14.611,4.709,31.5,5.494,44.825-1.619V616.169H3018.4c-14.357,19.985-18.887,48.188-12.556,71.513" transform="translate(-2343.171 -616.169)" fill="#fd0"/>
      <g id="Grupo_18855" data-name="Grupo 18855" transform="translate(637.276 200.295)">
        <path id="Trazado_41032" data-name="Trazado 41032" d="M2462.329,880.8a1.735,1.735,0,1,0-1.7-1.735,1.719,1.719,0,0,0,1.7,1.735" transform="translate(-2460.627 -877.333)" fill="#ff8300"/>
        <path id="Trazado_41033" data-name="Trazado 41033" d="M2509.5,880.8a1.735,1.735,0,1,0-1.7-1.735,1.719,1.719,0,0,0,1.7,1.735" transform="translate(-2491.882 -877.333)" fill="#ff8300"/>
        <path id="Trazado_41034" data-name="Trazado 41034" d="M2461.986,1029.333a1.7,1.7,0,0,0,.686,0,1.727,1.727,0,0,0,1.359-1.7,1.76,1.76,0,0,0-.133-.675,1.691,1.691,0,0,0-3.138,0,1.755,1.755,0,0,0-.134.675,1.728,1.728,0,0,0,1.359,1.7" transform="translate(-2460.627 -975.774)" fill="#ff8300"/>
        <path id="Trazado_41035" data-name="Trazado 41035" d="M2461.986,979.811a1.7,1.7,0,0,0,.686,0,1.727,1.727,0,0,0,1.359-1.7,1.747,1.747,0,0,0-.291-.97,1.685,1.685,0,0,0-2.823,0,1.749,1.749,0,0,0-.291.97,1.727,1.727,0,0,0,1.359,1.7" transform="translate(-2460.627 -942.961)" fill="#ff8300"/>
        <path id="Trazado_41036" data-name="Trazado 41036" d="M2509.156,1029.333a1.7,1.7,0,0,0,.686,0,1.727,1.727,0,0,0,1.359-1.7,1.76,1.76,0,0,0-.134-.675,1.691,1.691,0,0,0-3.138,0,1.756,1.756,0,0,0-.134.675,1.728,1.728,0,0,0,1.36,1.7" transform="translate(-2491.882 -975.774)" fill="#ff8300"/>
        <path id="Trazado_41037" data-name="Trazado 41037" d="M2509.156,979.811a1.7,1.7,0,0,0,.686,0,1.727,1.727,0,0,0,1.359-1.7,1.751,1.751,0,0,0-.291-.97,1.686,1.686,0,0,0-2.824,0,1.749,1.749,0,0,0-.291.97,1.728,1.728,0,0,0,1.36,1.7" transform="translate(-2491.882 -942.961)" fill="#ff8300"/>
        <path id="Trazado_41038" data-name="Trazado 41038" d="M2556.669,880.8a1.735,1.735,0,1,0-1.7-1.735,1.719,1.719,0,0,0,1.7,1.735" transform="translate(-2523.138 -877.333)" fill="#ff8300"/>
        <path id="Trazado_41039" data-name="Trazado 41039" d="M2603.841,880.8a1.735,1.735,0,1,0-1.7-1.735,1.719,1.719,0,0,0,1.7,1.735" transform="translate(-2554.395 -877.333)" fill="#ff8300"/>
        <path id="Trazado_41040" data-name="Trazado 41040" d="M2556.327,1029.333a1.7,1.7,0,0,0,.686,0,1.727,1.727,0,0,0,1.359-1.7,1.76,1.76,0,0,0-.134-.675,1.691,1.691,0,0,0-3.138,0,1.76,1.76,0,0,0-.134.675,1.728,1.728,0,0,0,1.36,1.7" transform="translate(-2523.138 -975.774)" fill="#ff8300"/>
        <path id="Trazado_41041" data-name="Trazado 41041" d="M2556.327,979.811a1.7,1.7,0,0,0,.686,0,1.727,1.727,0,0,0,1.359-1.7,1.749,1.749,0,0,0-.291-.97,1.685,1.685,0,0,0-2.823,0,1.747,1.747,0,0,0-.291.97,1.727,1.727,0,0,0,1.36,1.7" transform="translate(-2523.138 -942.961)" fill="#ff8300"/>
        <path id="Trazado_41042" data-name="Trazado 41042" d="M2603.5,1029.333a1.7,1.7,0,0,0,.686,0,1.727,1.727,0,0,0,1.359-1.7,1.76,1.76,0,0,0-.133-.675,1.691,1.691,0,0,0-3.138,0,1.76,1.76,0,0,0-.134.675,1.728,1.728,0,0,0,1.359,1.7" transform="translate(-2554.395 -975.774)" fill="#ff8300"/>
        <path id="Trazado_41043" data-name="Trazado 41043" d="M2603.5,979.811a1.7,1.7,0,0,0,.686,0,1.727,1.727,0,0,0,1.359-1.7,1.75,1.75,0,0,0-.29-.97,1.686,1.686,0,0,0-2.824,0,1.747,1.747,0,0,0-.291.97,1.727,1.727,0,0,0,1.359,1.7" transform="translate(-2554.395 -942.961)" fill="#ff8300"/>
        <path id="Trazado_41044" data-name="Trazado 41044" d="M2650.668,1029.333a1.7,1.7,0,0,0,.686,0,1.728,1.728,0,0,0,1.359-1.7,1.76,1.76,0,0,0-.134-.675,1.691,1.691,0,0,0-3.138,0,1.755,1.755,0,0,0-.134.675,1.728,1.728,0,0,0,1.359,1.7" transform="translate(-2585.649 -975.774)" fill="#ff8300"/>
        <path id="Trazado_41045" data-name="Trazado 41045" d="M2650.668,979.811a1.7,1.7,0,0,0,.686,0,1.727,1.727,0,0,0,1.359-1.7,1.749,1.749,0,0,0-.291-.97,1.685,1.685,0,0,0-2.823,0,1.748,1.748,0,0,0,1.068,2.669" transform="translate(-2585.649 -942.961)" fill="#ff8300"/>
        <path id="Trazado_41046" data-name="Trazado 41046" d="M2697.839,1029.333a1.7,1.7,0,0,0,.687,0,1.728,1.728,0,0,0,1.359-1.7,1.76,1.76,0,0,0-.134-.675,1.691,1.691,0,0,0-3.138,0,1.755,1.755,0,0,0-.134.675,1.727,1.727,0,0,0,1.359,1.7" transform="translate(-2616.906 -975.774)" fill="#ff8300"/>
        <path id="Trazado_41047" data-name="Trazado 41047" d="M2697.839,979.811a1.7,1.7,0,0,0,.687,0,1.727,1.727,0,0,0,1.359-1.7,1.747,1.747,0,0,0-.291-.97,1.685,1.685,0,0,0-2.823,0,1.747,1.747,0,0,0-.291.97,1.727,1.727,0,0,0,1.359,1.7" transform="translate(-2616.906 -942.961)" fill="#ff8300"/>
        <path id="Trazado_41048" data-name="Trazado 41048" d="M2839.694,880.8a1.735,1.735,0,1,0-1.7-1.735,1.719,1.719,0,0,0,1.7,1.735" transform="translate(-2710.674 -877.333)" fill="#ff8300"/>
        <path id="Trazado_41049" data-name="Trazado 41049" d="M2745.01,1029.333a1.7,1.7,0,0,0,.686,0,1.728,1.728,0,0,0,1.359-1.7,1.76,1.76,0,0,0-.134-.675,1.691,1.691,0,0,0-3.138,0,1.756,1.756,0,0,0-.134.675,1.728,1.728,0,0,0,1.359,1.7" transform="translate(-2648.161 -975.774)" fill="#ff8300"/>
        <path id="Trazado_41050" data-name="Trazado 41050" d="M2745.01,979.811a1.7,1.7,0,0,0,.686,0,1.727,1.727,0,0,0,1.359-1.7,1.749,1.749,0,0,0-.291-.97,1.686,1.686,0,0,0-2.824,0,1.749,1.749,0,0,0-.291.97,1.728,1.728,0,0,0,1.359,1.7" transform="translate(-2648.161 -942.961)" fill="#ff8300"/>
        <path id="Trazado_41051" data-name="Trazado 41051" d="M2792.18,1029.333a1.7,1.7,0,0,0,.687,0,1.728,1.728,0,0,0,1.359-1.7,1.76,1.76,0,0,0-.134-.675,1.691,1.691,0,0,0-3.138,0,1.76,1.76,0,0,0-.134.675,1.728,1.728,0,0,0,1.359,1.7" transform="translate(-2679.417 -975.774)" fill="#ff8300"/>
        <path id="Trazado_41052" data-name="Trazado 41052" d="M2792.18,979.811a1.7,1.7,0,0,0,.687,0,1.727,1.727,0,0,0,1.359-1.7,1.749,1.749,0,0,0-.291-.97,1.686,1.686,0,0,0-2.824,0,1.745,1.745,0,0,0-.291.97,1.727,1.727,0,0,0,1.359,1.7" transform="translate(-2679.417 -942.961)" fill="#ff8300"/>
        <path id="Trazado_41053" data-name="Trazado 41053" d="M2839.351,1029.333a1.7,1.7,0,0,0,.686,0,1.727,1.727,0,0,0,1.359-1.7,1.76,1.76,0,0,0-.134-.675,1.691,1.691,0,0,0-3.138,0,1.76,1.76,0,0,0-.134.675,1.727,1.727,0,0,0,1.359,1.7" transform="translate(-2710.674 -975.774)" fill="#ff8300"/>
        <path id="Trazado_41054" data-name="Trazado 41054" d="M2839.351,979.811a1.7,1.7,0,0,0,.686,0,1.727,1.727,0,0,0,1.359-1.7,1.749,1.749,0,0,0-.291-.97,1.685,1.685,0,0,0-2.823,0,1.745,1.745,0,0,0-.291.97,1.727,1.727,0,0,0,1.359,1.7" transform="translate(-2710.674 -942.961)" fill="#ff8300"/>
        <path id="Trazado_41055" data-name="Trazado 41055" d="M2462.329,930.324a1.735,1.735,0,1,0-1.7-1.735,1.719,1.719,0,0,0,1.7,1.735" transform="translate(-2460.627 -910.147)" fill="#ff8300"/>
        <path id="Trazado_41056" data-name="Trazado 41056" d="M2509.5,930.324a1.735,1.735,0,1,0-1.7-1.735,1.719,1.719,0,0,0,1.7,1.735" transform="translate(-2491.882 -910.147)" fill="#ff8300"/>
        <path id="Trazado_41057" data-name="Trazado 41057" d="M2462.329,1124.943a1.735,1.735,0,1,0,1.7,1.734,1.719,1.719,0,0,0-1.7-1.734" transform="translate(-2460.627 -1041.402)" fill="#ff8300"/>
        <path id="Trazado_41058" data-name="Trazado 41058" d="M2462.329,1078.89a1.735,1.735,0,1,0-1.7-1.734,1.719,1.719,0,0,0,1.7,1.734" transform="translate(-2460.627 -1008.588)" fill="#ff8300"/>
        <path id="Trazado_41059" data-name="Trazado 41059" d="M2509.5,1128.413a1.735,1.735,0,1,0-1.7-1.735,1.719,1.719,0,0,0,1.7,1.735" transform="translate(-2491.882 -1041.402)" fill="#ff8300"/>
        <path id="Trazado_41060" data-name="Trazado 41060" d="M2509.5,1078.89a1.735,1.735,0,1,0-1.7-1.734,1.719,1.719,0,0,0,1.7,1.734" transform="translate(-2491.882 -1008.588)" fill="#ff8300"/>
        <path id="Trazado_41061" data-name="Trazado 41061" d="M2556.669,930.324a1.735,1.735,0,1,0-1.7-1.735,1.719,1.719,0,0,0,1.7,1.735" transform="translate(-2523.138 -910.147)" fill="#ff8300"/>
        <path id="Trazado_41062" data-name="Trazado 41062" d="M2603.841,930.324a1.735,1.735,0,1,0-1.7-1.735,1.719,1.719,0,0,0,1.7,1.735" transform="translate(-2554.395 -910.147)" fill="#ff8300"/>
        <path id="Trazado_41063" data-name="Trazado 41063" d="M2651.011,930.324a1.735,1.735,0,1,0-1.7-1.735,1.719,1.719,0,0,0,1.7,1.735" transform="translate(-2585.649 -910.147)" fill="#ff8300"/>
        <path id="Trazado_41064" data-name="Trazado 41064" d="M2698.182,930.324a1.735,1.735,0,1,0-1.7-1.735,1.719,1.719,0,0,0,1.7,1.735" transform="translate(-2616.906 -910.147)" fill="#ff8300"/>
        <path id="Trazado_41065" data-name="Trazado 41065" d="M2745.354,930.324a1.735,1.735,0,1,0-1.7-1.735,1.719,1.719,0,0,0,1.7,1.735" transform="translate(-2648.161 -910.147)" fill="#ff8300"/>
        <path id="Trazado_41066" data-name="Trazado 41066" d="M2792.523,930.324a1.735,1.735,0,1,0-1.7-1.735,1.719,1.719,0,0,0,1.7,1.735" transform="translate(-2679.417 -910.147)" fill="#ff8300"/>
        <path id="Trazado_41067" data-name="Trazado 41067" d="M2839.694,930.324a1.735,1.735,0,1,0-1.7-1.735,1.719,1.719,0,0,0,1.7,1.735" transform="translate(-2710.674 -910.147)" fill="#ff8300"/>
        <path id="Trazado_41068" data-name="Trazado 41068" d="M2792.523,1128.413a1.735,1.735,0,1,0-1.7-1.735,1.719,1.719,0,0,0,1.7,1.735" transform="translate(-2679.417 -1041.402)" fill="#ff8300"/>
        <path id="Trazado_41069" data-name="Trazado 41069" d="M2792.523,1078.89a1.735,1.735,0,1,0-1.7-1.734,1.719,1.719,0,0,0,1.7,1.734" transform="translate(-2679.417 -1008.588)" fill="#ff8300"/>
        <path id="Trazado_41070" data-name="Trazado 41070" d="M2839.694,1128.413a1.735,1.735,0,1,0-1.7-1.735,1.719,1.719,0,0,0,1.7,1.735" transform="translate(-2710.674 -1041.402)" fill="#ff8300"/>
        <path id="Trazado_41071" data-name="Trazado 41071" d="M2839.694,1078.89a1.735,1.735,0,1,0-1.7-1.734,1.719,1.719,0,0,0,1.7,1.734" transform="translate(-2710.674 -1008.588)" fill="#ff8300"/>
      </g>
      <path id="Trazado_40865" data-name="Trazado 40865" d="M3194.247,1670.8c-19.506.729-37.673,39.691-26.682,55.38,5.409,7.72,15.714,9.864,25.015,11.4a23.8,23.8,0,0,0,7.436.4v-66.742a23.865,23.865,0,0,0-5.769-.44" transform="translate(-2425.132 -1092.543)" fill="#05a451"/>
    </g>
  </g>
</svg>
