<svg id="logo-SS-tablet" xmlns="http://www.w3.org/2000/svg" xmlns:xlink="http://www.w3.org/1999/xlink" width="222.01" height="212.172" viewBox="0 0 222.01 212.172">
  <defs>
    <clipPath id="clip-path">
      <rect id="Rectángulo_22337" data-name="Rectángulo 22337" width="222.01" height="212.172" fill="none"/>
    </clipPath>
  </defs>
  <g id="Grupo_19398" data-name="Grupo 19398" clip-path="url(#clip-path)">
    <path id="Trazado_42430" data-name="Trazado 42430" d="M10.174,708.683a25.772,25.772,0,0,1-3.654-1,7.92,7.92,0,0,1-2.239-1.2,3.519,3.519,0,0,1-1.111-1.463,5.044,5.044,0,0,1-.3-1.8v-.072a4.006,4.006,0,0,1,.43-1.82,4.47,4.47,0,0,1,1.236-1.5,6.214,6.214,0,0,1,1.934-1.018,7.983,7.983,0,0,1,2.526-.375,11.529,11.529,0,0,1,3.887.643,11.548,11.548,0,0,1,3.6,2.177l1.182-1.463a14.15,14.15,0,0,0-3.887-2.285,13.361,13.361,0,0,0-4.711-.749,9.965,9.965,0,0,0-3.224.5A7.944,7.944,0,0,0,3.3,698.653a6.583,6.583,0,0,0-1.684,2.089A5.611,5.611,0,0,0,1,703.329v.071a6.484,6.484,0,0,0,.466,2.534,5.037,5.037,0,0,0,1.487,1.946,9.572,9.572,0,0,0,2.634,1.464,24.326,24.326,0,0,0,3.869,1.089,22.626,22.626,0,0,1,3.511.946,8.122,8.122,0,0,1,2.168,1.16,3.433,3.433,0,0,1,1.11,1.427,4.919,4.919,0,0,1,.3,1.785v.071a4.283,4.283,0,0,1-.466,1.981,4.8,4.8,0,0,1-1.289,1.571,6.126,6.126,0,0,1-2.006,1.035,8.505,8.505,0,0,1-2.58.374,13.4,13.4,0,0,1-2.579-.232,11.764,11.764,0,0,1-2.257-.678,11.63,11.63,0,0,1-2.1-1.142,17.778,17.778,0,0,1-2.06-1.659L0,718.463a16.676,16.676,0,0,0,4.675,3,14.1,14.1,0,0,0,5.428,1,10.687,10.687,0,0,0,3.35-.5,8.038,8.038,0,0,0,2.615-1.392,6.449,6.449,0,0,0,1.719-2.159,6.157,6.157,0,0,0,.627-2.767v-.071a5.416,5.416,0,0,0-1.934-4.372,14.454,14.454,0,0,0-6.305-2.516" transform="translate(0 -510.396)" fill="#f40000"/>
    <path id="Trazado_42431" data-name="Trazado 42431" d="M97.393,724.67a9.6,9.6,0,0,0-2.956-2.053,9.008,9.008,0,0,0-3.743-.767,9.132,9.132,0,0,0-3.762.767,9.519,9.519,0,0,0-5.661,8.763v.072a9.542,9.542,0,0,0,.7,3.64,9.241,9.241,0,0,0,1.952,3,9.6,9.6,0,0,0,2.956,2.052,9.008,9.008,0,0,0,3.743.768,9.131,9.131,0,0,0,3.762-.768,9.517,9.517,0,0,0,5.66-8.763v-.071a9.548,9.548,0,0,0-.7-3.641,9.244,9.244,0,0,0-1.953-3m.789,6.781a8.2,8.2,0,0,1-.558,3.02,7.592,7.592,0,0,1-1.548,2.47,7.376,7.376,0,0,1-2.376,1.669,7.245,7.245,0,0,1-3.006.622,7.352,7.352,0,0,1-2.969-.6,7.452,7.452,0,0,1-2.413-1.67,7.7,7.7,0,0,1-1.6-2.505,8.193,8.193,0,0,1-.576-3.074v-.07a8.2,8.2,0,0,1,.558-3.02,7.6,7.6,0,0,1,1.547-2.47,7.4,7.4,0,0,1,2.376-1.67,7.259,7.259,0,0,1,3.006-.622A7.41,7.41,0,0,1,96,725.8a7.678,7.678,0,0,1,1.6,2.5,8.191,8.191,0,0,1,.577,3.073Z" transform="translate(-59.454 -528.774)" fill="#f40000"/>
    <path id="Trazado_42432" data-name="Trazado 42432" d="M175.519,738.358a6.806,6.806,0,0,1-3.456.875,7.169,7.169,0,0,1-2.939-.6,7.454,7.454,0,0,1-2.382-1.67,7.941,7.941,0,0,1-1.612-2.505,8.021,8.021,0,0,1-.59-3.074v-.071a8.1,8.1,0,0,1,.573-3.056,7.839,7.839,0,0,1,1.558-2.47A7.223,7.223,0,0,1,169,724.132a7.037,7.037,0,0,1,2.92-.6,6.444,6.444,0,0,1,3.475.893,13.858,13.858,0,0,1,2.616,2.106l1.253-1.285a15.936,15.936,0,0,0-1.379-1.287,9.533,9.533,0,0,0-1.63-1.083,8.968,8.968,0,0,0-1.952-.747,9.369,9.369,0,0,0-2.347-.274,8.827,8.827,0,0,0-3.672.767,9.267,9.267,0,0,0-2.952,2.088,9.777,9.777,0,0,0-1.952,3.034,9.5,9.5,0,0,0-.7,3.641v.072a9.5,9.5,0,0,0,.7,3.64,9.352,9.352,0,0,0,1.952,3,9.543,9.543,0,0,0,2.952,2.052,8.827,8.827,0,0,0,3.672.768,8.358,8.358,0,0,0,4.281-1.036,12.967,12.967,0,0,0,3.171-2.606l-1.219-1.07a10.674,10.674,0,0,1-2.669,2.159" transform="translate(-119.005 -528.774)" fill="#f40000"/>
    <rect id="Rectángulo_22334" data-name="Rectángulo 22334" width="1.755" height="18.205" transform="translate(64.558 193.504)" fill="#f40000"/>
    <rect id="Rectángulo_22335" data-name="Rectángulo 22335" width="2.187" height="2.391" transform="translate(64.342 186.365)" fill="#f40000"/>
    <path id="Trazado_42433" data-name="Trazado 42433" d="M280.223,724.67a9.611,9.611,0,0,0-2.956-2.053,9.007,9.007,0,0,0-3.744-.767,9.128,9.128,0,0,0-3.761.767,9.518,9.518,0,0,0-5.66,8.763v.072a9.536,9.536,0,0,0,.7,3.64,9.241,9.241,0,0,0,1.952,3,9.6,9.6,0,0,0,2.956,2.052,9.006,9.006,0,0,0,3.744.768,9.127,9.127,0,0,0,3.761-.768,9.515,9.515,0,0,0,5.66-8.763v-.071a9.538,9.538,0,0,0-.7-3.641,9.248,9.248,0,0,0-1.952-3m.789,6.781a8.193,8.193,0,0,1-.558,3.02,7.584,7.584,0,0,1-1.548,2.47,7.372,7.372,0,0,1-2.376,1.669,7.242,7.242,0,0,1-3.006.622,7.359,7.359,0,0,1-2.969-.6,7.461,7.461,0,0,1-2.413-1.67,7.686,7.686,0,0,1-1.6-2.505,8.176,8.176,0,0,1-.576-3.074v-.07a8.2,8.2,0,0,1,.557-3.02,7.586,7.586,0,0,1,1.548-2.47,7.4,7.4,0,0,1,2.376-1.67,7.259,7.259,0,0,1,3.006-.622,7.411,7.411,0,0,1,5.38,2.275,7.651,7.651,0,0,1,1.6,2.5,8.176,8.176,0,0,1,.577,3.073Z" transform="translate(-193.204 -528.774)" fill="#f40000"/>
    <path id="Trazado_42434" data-name="Trazado 42434" d="M365.855,708.976a11.664,11.664,0,0,0-2.955-1.515,30.758,30.758,0,0,0-3.888-1.086q-1.29-.284-2.131-.552a7.53,7.53,0,0,1-1.327-.534,1.771,1.771,0,0,1-.679-.588,1.39,1.39,0,0,1-.2-.748v-.072a1.378,1.378,0,0,1,.627-1.139,3.152,3.152,0,0,1,1.882-.464,10.7,10.7,0,0,1,3.493.625,14.124,14.124,0,0,1,3.529,1.838l3.474-4.905a14.493,14.493,0,0,0-4.567-2.5,18.1,18.1,0,0,0-5.749-.845,12.966,12.966,0,0,0-4.049.588,9.118,9.118,0,0,0-3.063,1.657,7.108,7.108,0,0,0-1.934,2.53,7.674,7.674,0,0,0-.663,3.207v.07a6.075,6.075,0,0,0,2.742,5.4,11.4,11.4,0,0,0,2.991,1.425q1.719.552,3.726,1.014,1.288.286,2.095.553a6.819,6.819,0,0,1,1.29.553,1.842,1.842,0,0,1,.663.587,1.353,1.353,0,0,1,.178.7v.071a1.4,1.4,0,0,1-.733,1.265,4.157,4.157,0,0,1-2.133.445,12.784,12.784,0,0,1-8.131-3l-3.87,4.615a15.517,15.517,0,0,0,5.357,3.125,19.529,19.529,0,0,0,6.394,1.042,14.62,14.62,0,0,0,4.156-.552,9.335,9.335,0,0,0,3.188-1.6,7.357,7.357,0,0,0,2.061-2.548,7.682,7.682,0,0,0,.733-3.42v-.071a6.554,6.554,0,0,0-.644-3.011,6.068,6.068,0,0,0-1.863-2.156" transform="translate(-253.462 -510.2)" fill="#f40000"/>
    <path id="Trazado_42435" data-name="Trazado 42435" d="M449.327,720.871a8.564,8.564,0,0,0-3.044-2.3,10.248,10.248,0,0,0-4.353-.857,9.722,9.722,0,0,0-3.942.785,9.476,9.476,0,0,0-3.1,2.16,9.767,9.767,0,0,0-2.025,3.213,10.785,10.785,0,0,0-.716,3.944v.071a10.618,10.618,0,0,0,.77,4.105,9.036,9.036,0,0,0,2.152,3.159,9.87,9.87,0,0,0,3.277,2.034,11.562,11.562,0,0,0,4.192.732,10.653,10.653,0,0,0,4.962-1.071,10.46,10.46,0,0,0,3.455-2.855l-3.761-3.105a7.222,7.222,0,0,1-2.058,1.5,5.344,5.344,0,0,1-2.239.464,4.513,4.513,0,0,1-2.705-.785,3.972,3.972,0,0,1-1.487-2.391h12.968c.023-.237.035-.476.035-.714v-.678a13.65,13.65,0,0,0-.589-4.052,9.682,9.682,0,0,0-1.793-3.355M438.6,726.207a5.013,5.013,0,0,1,1.146-2.552,2.869,2.869,0,0,1,2.221-.946,3.011,3.011,0,0,1,2.291.946,4.283,4.283,0,0,1,1.076,2.552Z" transform="translate(-316.138 -525.743)" fill="#f40000"/>
    <rect id="Rectángulo_22336" data-name="Rectángulo 22336" width="6.843" height="26.057" transform="translate(137.541 185.651)" fill="#f40000"/>
    <path id="Trazado_42436" data-name="Trazado 42436" d="M562.1,720.871a8.587,8.587,0,0,0-3.045-2.3,10.244,10.244,0,0,0-4.353-.857,9.714,9.714,0,0,0-3.94.785,9.48,9.48,0,0,0-3.1,2.16,9.721,9.721,0,0,0-2.025,3.213,10.755,10.755,0,0,0-.716,3.944v.071a10.616,10.616,0,0,0,.77,4.105,9.048,9.048,0,0,0,2.15,3.159,9.872,9.872,0,0,0,3.277,2.034,11.572,11.572,0,0,0,4.192.732,10.646,10.646,0,0,0,4.962-1.071,10.464,10.464,0,0,0,3.456-2.855l-3.761-3.105a7.23,7.23,0,0,1-2.06,1.5,5.34,5.34,0,0,1-2.239.464,4.514,4.514,0,0,1-2.706-.785,3.973,3.973,0,0,1-1.487-2.391h12.969c.023-.237.035-.476.035-.714v-.678a13.645,13.645,0,0,0-.591-4.052,9.688,9.688,0,0,0-1.791-3.355m-10.731,5.336a5.014,5.014,0,0,1,1.147-2.552,2.865,2.865,0,0,1,2.222-.946,3.016,3.016,0,0,1,2.292.946,4.29,4.29,0,0,1,1.076,2.552Z" transform="translate(-398.634 -525.743)" fill="#f40000"/>
    <path id="Trazado_42437" data-name="Trazado 42437" d="M634.207,731.767a3.767,3.767,0,0,1-2.061.536,3.607,3.607,0,0,1-2.793-1.267,4.4,4.4,0,0,1-.788-1.392,5.117,5.117,0,0,1-.287-1.731v-.071a4.713,4.713,0,0,1,.287-1.66,4.491,4.491,0,0,1,.788-1.357,3.659,3.659,0,0,1,1.2-.928,3.439,3.439,0,0,1,1.522-.339,3.741,3.741,0,0,1,2.079.536,6.069,6.069,0,0,1,1.539,1.5l4.623-3.427a9.57,9.57,0,0,0-3.261-3.141,9.77,9.77,0,0,0-5.015-1.178,10.785,10.785,0,0,0-4.21.8,9.991,9.991,0,0,0-6.179,9.263v.072a10.079,10.079,0,0,0,2.883,7.067,10.915,10.915,0,0,0,12.485,1.749,10.676,10.676,0,0,0,3.4-3.213l-4.551-3.284a8.027,8.027,0,0,1-1.665,1.463" transform="translate(-454.768 -525.841)" fill="#f40000"/>
    <path id="Trazado_42438" data-name="Trazado 42438" d="M701.512,701.031H694.67v4.89h-2.292v5.461h2.292v7.852q0,3.463,1.729,4.926a7.243,7.243,0,0,0,4.826,1.464,10.541,10.541,0,0,0,2.617-.3,9.363,9.363,0,0,0,2.114-.8V719.2a7.852,7.852,0,0,1-1.254.464,4.928,4.928,0,0,1-1.327.179,1.946,1.946,0,0,1-1.4-.446,1.986,1.986,0,0,1-.466-1.481v-6.532h4.514v-5.461h-4.514Z" transform="translate(-506.508 -513.524)" fill="#f40000"/>
    <path id="Trazado_42439" data-name="Trazado 42439" d="M767.721,723.852a9.558,9.558,0,0,0-2.22-3.177,10.911,10.911,0,0,0-3.386-2.16,11.151,11.151,0,0,0-4.28-.8,11.288,11.288,0,0,0-4.3.8,10.676,10.676,0,0,0-3.4,2.177,9.909,9.909,0,0,0-2.239,3.213,9.618,9.618,0,0,0-.806,3.908v.071a9.7,9.7,0,0,0,3.008,7.086,10.47,10.47,0,0,0,3.386,2.159,11.982,11.982,0,0,0,8.579-.018,10.668,10.668,0,0,0,3.4-2.177,9.915,9.915,0,0,0,2.239-3.213,9.614,9.614,0,0,0,.806-3.908v-.071a9.68,9.68,0,0,0-.788-3.891m-5.838,4.033a4.678,4.678,0,0,1-.287,1.629,4.226,4.226,0,0,1-.806,1.363,3.69,3.69,0,0,1-1.271.92,4.081,4.081,0,0,1-1.684.336,3.823,3.823,0,0,1-1.648-.354,4.334,4.334,0,0,1-1.308-.938,4.136,4.136,0,0,1-.86-1.363,4.537,4.537,0,0,1-.3-1.664v-.071a4.673,4.673,0,0,1,.287-1.628,4.214,4.214,0,0,1,.806-1.363,3.69,3.69,0,0,1,1.271-.921,4.077,4.077,0,0,1,1.684-.336,3.825,3.825,0,0,1,1.649.354,4.354,4.354,0,0,1,1.307.938,4.164,4.164,0,0,1,.86,1.363,4.543,4.543,0,0,1,.3,1.664Z" transform="translate(-546.531 -525.744)" fill="#f40000"/>
    <path id="Trazado_42440" data-name="Trazado 42440" d="M272.535,91.805A86.693,86.693,0,1,1,185.842,5.428a86.535,86.535,0,0,1,86.693,86.377" transform="translate(-72.532 -3.976)" fill="#661721"/>
    <path id="Trazado_42441" data-name="Trazado 42441" d="M298.833,145.038a61.451,61.451,0,1,1-61.45-61.227,61.339,61.339,0,0,1,61.45,61.227" transform="translate(-128.703 -61.394)" fill="#661721"/>
    <path id="Trazado_42442" data-name="Trazado 42442" d="M313.515,158.288a61.451,61.451,0,1,1-61.45-61.227,61.339,61.339,0,0,1,61.45,61.227" transform="translate(-139.443 -71.1)" fill="#f40000"/>
    <path id="Trazado_42443" data-name="Trazado 42443" d="M178.565,0a85.416,85.416,0,1,0,85.728,85.416A85.572,85.572,0,0,0,178.565,0m0,147.305A61.89,61.89,0,1,1,240.68,85.416a62,62,0,0,1-62.115,61.889" transform="translate(-67.915)" fill="#f40000"/>
    <path id="Trazado_42444" data-name="Trazado 42444" d="M335.765,155.73a61.185,61.185,0,0,1,17.517,31.585c9.141,43.585-29.924,82.5-73.662,73.395a61.656,61.656,0,0,1-27.259-13.284c-1.385-1.168-3.153-2.884-4.441-4.172,1.327,1.269,3.194,2.856,4.6,3.984a62.039,62.039,0,0,0,15.7,9.074c26.832,10.886,58.616,1.211,74.617-22.872,16.349-24.133,13.226-56.829-7.073-77.71" transform="translate(-181.366 -114.076)" fill="#fff"/>
    <path id="Trazado_42445" data-name="Trazado 42445" d="M350.382,249.861a14.394,14.394,0,0,0,4.413-5.409,17.975,17.975,0,0,0,1.572-7.832v-.2a12.509,12.509,0,0,0-1.52-6.366,15.313,15.313,0,0,0-3.855-4.447,23.812,23.812,0,0,0-5.275-3.083q-2.942-1.261-5.783-2.173-2.229-.705-4.209-1.414a32.554,32.554,0,0,1-3.5-1.465,10.162,10.162,0,0,1-2.435-1.617,2.639,2.639,0,0,1-.912-1.971v-.2A3.221,3.221,0,0,1,330.3,211a7.085,7.085,0,0,1,4.261-1.061,20.732,20.732,0,0,1,6.8,1.365,48.739,48.739,0,0,1,7.913,3.688l5.883-10.613a38.984,38.984,0,0,0-9.79-4.6,34.98,34.98,0,0,0-10.5-1.667,26.176,26.176,0,0,0-7.761,1.112,18.154,18.154,0,0,0-6.286,3.335,16.273,16.273,0,0,0-4.26,5.407,14.627,14.627,0,0,0-1.21,3.585,34.349,34.349,0,0,0-8.891-1.206,26.2,26.2,0,0,0-7.762,1.112,18.145,18.145,0,0,0-6.289,3.335,15.9,15.9,0,0,0-5.833,12.735v.2a13.882,13.882,0,0,0,1.472,6.669,14.793,14.793,0,0,0,3.8,4.6,20.49,20.49,0,0,0,5.224,3.033A57.434,57.434,0,0,0,302.8,244q2.228.708,4.26,1.312a37.089,37.089,0,0,1,3.6,1.264,7.7,7.7,0,0,1,2.485,1.567,2.9,2.9,0,0,1,.913,2.123v.2a3.428,3.428,0,0,1-1.572,2.93,8.611,8.611,0,0,1-4.919,1.113A24.1,24.1,0,0,1,299.3,252.9a36.683,36.683,0,0,1-8.876-4.854l-6.593,10.108a38.172,38.172,0,0,0,23.331,8.187,30.316,30.316,0,0,0,8.165-1.061,19.942,19.942,0,0,0,6.645-3.185,14.4,14.4,0,0,0,4.412-5.407,15.21,15.21,0,0,0,1.158-3.511,36.361,36.361,0,0,0,8.031.929,30.262,30.262,0,0,0,8.165-1.062,19.881,19.881,0,0,0,6.644-3.183m-9.706-10.344a14.089,14.089,0,0,1-2.566,4.492c-1.054.831-3.393-.45-4.241-1.129a12.7,12.7,0,0,0-4-2.327,78.65,78.65,0,0,0-8.244-2.233c-.546-.136-1.11-.211-1.126-.53-.389.229-6.668-2.528-6.685-3.213-.119.3-.788-.087-1.258-.343-.859-.458-2.686-2.072-4.74-3.632a30.56,30.56,0,0,0-3.384-2.376,25,25,0,0,0-2.985-1.287.756.756,0,0,1-.722.022,11.235,11.235,0,0,1-1.1-.918.511.511,0,0,0-.452,0,.653.653,0,0,1-.665-.163c-.236-.188-.187-.531-.161-.734a12.958,12.958,0,0,1,.6-1.892,12.661,12.661,0,0,1,.857-1.8c.112-.161.311-.449.615-.426a.652.652,0,0,1,.6.328.5.5,0,0,0,.338.3,9.545,9.545,0,0,1,1.425.082.732.732,0,0,1,.518.5,26.23,26.23,0,0,0,3.069,1.066,31.2,31.2,0,0,0,4.1.553c2.579.236,5.014.286,5.957.536.523.133,1.274.3,1.162.591.477-.484,6.968,1.738,7.1,2.175.234-.23.7.1,1.188.364a77.079,77.079,0,0,0,7.577,3.942,12.5,12.5,0,0,0,4.521.988c1.081.083,3.668.726,3.876,2.052a14.042,14.042,0,0,1-1.172,5.02" transform="translate(-207.637 -145.124)" fill="#fff"/>
    <path id="Trazado_42446" data-name="Trazado 42446" d="M780.6,47.9q0,21.929,0,43.857c0,.425.006.85.025,1.274a3.739,3.739,0,0,1-1.681,3.458,2.2,2.2,0,0,0-1,2.124c.177,4.718.312,9.438.457,14.157q.316,10.3.625,20.606.285,9.274.578,18.548c.154,5.027.329,10.054.442,15.083.076,3.363-1.83,6.2-4.573,6.973-3.977,1.119-7.767-2.147-7.719-6.742.039-3.73.2-7.46.313-11.189q.26-8.5.529-16.992.324-10.621.64-21.242.288-9.275.6-18.549c.037-1.119-.2-1.6-1.094-2.014-2.942-1.376-4.36-3.923-4.684-7.222a139.142,139.142,0,0,1-.366-16.7c.186-8.4.442-16.805.846-25.2.243-5.039.733-10.07,1.272-15.085A126.576,126.576,0,0,1,769.74,11.07a27.794,27.794,0,0,1,3.568-8.235A5.715,5.715,0,0,1,777.18.025a3.6,3.6,0,0,1,1.3.086,1.923,1.923,0,0,1,1.6,2.1q.092,5.6.138,11.191.1,13.674.164,27.348c.013,2.384,0,4.769,0,7.153h.218" transform="translate(-558.62 0)" fill="#f40000"/>
    <path id="Trazado_42447" data-name="Trazado 42447" d="M8.128,114.709q.452-15.148.9-30.3.324-10.794.663-21.588a2.615,2.615,0,0,0-.8-2.031c-1.923-1.978-3.814-3.986-5.71-5.989a11.032,11.032,0,0,1-3.16-7.894C.045,42.757-.084,38.6.1,34.451.4,27.922.867,21.4,1.343,14.88c.335-4.587.808-9.163,1.209-13.745.04-.456.2-.68.7-.68C5.407.45,5,.27,5.049,2.081q.391,14.3.745,28.6c.031,1.227.03,2.455.074,3.682.034.955.523,1.5,1.271,1.5.813,0,1.333-.621,1.356-1.6q.375-15.754.754-31.508c.017-.707.093-1.414.092-2.122,0-.463.188-.645.642-.616a3.286,3.286,0,0,0,.576-.012c.567-.064.729.174.739.728q.241,14.765.519,29.529.034,1.912.064,3.824c.018,1.067.535,1.722,1.372,1.737.814.015,1.409-.675,1.426-1.694q.18-10.445.351-20.89c.071-4.154.158-8.308.209-12.463.007-.579.177-.84.777-.775a2.558,2.558,0,0,0,.5,0c.53-.048.7.179.705.7.044,2.62.127,5.239.194,7.859q.325,12.672.65,25.345a5.475,5.475,0,0,0,.056.846,1.3,1.3,0,0,0,1.371,1.1,1.262,1.262,0,0,0,1.161-1.233c.05-1.155.065-2.313.094-3.469q.292-11.469.587-22.938c.064-2.431.169-4.86.22-7.291.012-.586.221-.723.786-.645C23.971.506,23.958.49,24.1,2.156q.653,7.865,1.326,15.729c.709,8.282,1.188,16.575,1.195,24.889,0,1.815-.136,3.631-.2,5.447a9.955,9.955,0,0,1-2.9,6.394q-2.735,3.007-5.6,5.9a3.241,3.241,0,0,0-1.074,2.566q.415,12.245.765,24.493.491,16.318.973,32.635.454,15.148.916,30.3c.155,5.144.286,10.289.47,15.433a8.061,8.061,0,0,1-2.089,6.205,6.3,6.3,0,0,1-10.382-1.6,8.973,8.973,0,0,1-.969-4.443q.4-12,.78-23.994c.187-6.065.339-12.13.514-18.195.089-3.068.194-6.135.292-9.2h.015" transform="translate(0 0)" fill="#f40000"/>
  </g>
</svg>
