<svg id="logo-SS-horizontal" xmlns="http://www.w3.org/2000/svg" width="237.047" height="41.898" viewBox="0 0 237.047 41.898">
  <g id="Grupo_19600" data-name="Grupo 19600" transform="translate(64.839 10.623)">
    <rect id="Rectángulo_22983" data-name="Rectángulo 22983" width="1.696" height="1.862" transform="translate(49.915 0.555)" fill="#fff"/>
    <g id="Grupo_19599" data-name="Grupo 19599" transform="translate(0)">
      <path id="Trazado_42473" data-name="Trazado 42473" d="M7.893,706.044a19.909,19.909,0,0,1-2.835-.778,6.131,6.131,0,0,1-1.737-.931,2.739,2.739,0,0,1-.862-1.139,3.94,3.94,0,0,1-.236-1.4v-.056a3.127,3.127,0,0,1,.334-1.417,3.479,3.479,0,0,1,.959-1.168,4.821,4.821,0,0,1,1.5-.792,6.176,6.176,0,0,1,1.959-.292,8.914,8.914,0,0,1,3.016.5,8.951,8.951,0,0,1,2.793,1.7l.917-1.14a10.968,10.968,0,0,0-3.016-1.779,10.334,10.334,0,0,0-3.655-.583,7.7,7.7,0,0,0-2.5.389,6.152,6.152,0,0,0-1.973,1.084,5.119,5.119,0,0,0-1.306,1.626,4.381,4.381,0,0,0-.473,2.015v.055a5.064,5.064,0,0,0,.361,1.973,3.921,3.921,0,0,0,1.154,1.515,7.42,7.42,0,0,0,2.043,1.139,18.813,18.813,0,0,0,3,.848,17.492,17.492,0,0,1,2.724.737,6.287,6.287,0,0,1,1.682.9,2.673,2.673,0,0,1,.861,1.111,3.842,3.842,0,0,1,.236,1.39v.055a3.344,3.344,0,0,1-.361,1.542,3.732,3.732,0,0,1-1,1.223,4.745,4.745,0,0,1-1.557.806,6.574,6.574,0,0,1-2,.292,10.35,10.35,0,0,1-2-.18,8.886,8.886,0,0,1-3.377-1.417,13.8,13.8,0,0,1-1.6-1.292L0,713.659a12.929,12.929,0,0,0,3.627,2.335,10.9,10.9,0,0,0,4.211.779,8.266,8.266,0,0,0,2.6-.39,6.232,6.232,0,0,0,2.029-1.084,5.019,5.019,0,0,0,1.334-1.681,4.807,4.807,0,0,0,.486-2.154v-.055a4.224,4.224,0,0,0-1.5-3.4,11.19,11.19,0,0,0-4.892-1.959" transform="translate(0 -696.204)" fill="#fff"/>
      <path id="Trazado_42474" data-name="Trazado 42474" d="M93.778,724.046a7.452,7.452,0,0,0-2.293-1.6,6.967,6.967,0,0,0-2.9-.6,7.063,7.063,0,0,0-2.918.6,7.377,7.377,0,0,0-3.85,3.989,7.455,7.455,0,0,0-.542,2.835v.056a7.453,7.453,0,0,0,.542,2.834,7.2,7.2,0,0,0,1.515,2.335,7.442,7.442,0,0,0,2.293,1.6,6.966,6.966,0,0,0,2.9.6,7.062,7.062,0,0,0,2.918-.6,7.369,7.369,0,0,0,3.85-3.988,7.46,7.46,0,0,0,.542-2.835v-.055a7.458,7.458,0,0,0-.542-2.835,7.2,7.2,0,0,0-1.515-2.334m.612,5.28a6.4,6.4,0,0,1-.433,2.352,5.911,5.911,0,0,1-1.2,1.923,5.72,5.72,0,0,1-1.843,1.3,5.605,5.605,0,0,1-2.332.485,5.686,5.686,0,0,1-2.3-.47,5.781,5.781,0,0,1-1.872-1.3,6,6,0,0,1-1.242-1.951,6.4,6.4,0,0,1-.447-2.394v-.055a6.4,6.4,0,0,1,.433-2.352,5.923,5.923,0,0,1,1.2-1.923,5.747,5.747,0,0,1,1.843-1.3,5.613,5.613,0,0,1,2.332-.484,5.68,5.68,0,0,1,2.3.47,5.756,5.756,0,0,1,1.87,1.3,5.979,5.979,0,0,1,1.243,1.95,6.4,6.4,0,0,1,.447,2.393Z" transform="translate(-64.346 -716.07)" fill="#fff"/>
      <path id="Trazado_42475" data-name="Trazado 42475" d="M172.639,734.7a5.265,5.265,0,0,1-2.681.681,5.544,5.544,0,0,1-2.28-.47,5.784,5.784,0,0,1-1.848-1.3,6.186,6.186,0,0,1-1.251-1.951,6.265,6.265,0,0,1-.458-2.394v-.055a6.323,6.323,0,0,1,.444-2.379,6.106,6.106,0,0,1,1.209-1.923,5.6,5.6,0,0,1,1.806-1.286,5.44,5.44,0,0,1,2.265-.47,4.986,4.986,0,0,1,2.7.695,10.756,10.756,0,0,1,2.029,1.64l.972-1a12.4,12.4,0,0,0-1.07-1,7.4,7.4,0,0,0-1.264-.843,6.947,6.947,0,0,0-1.514-.582,7.244,7.244,0,0,0-1.821-.213,6.826,6.826,0,0,0-2.849.6,7.194,7.194,0,0,0-2.29,1.626,7.617,7.617,0,0,0-1.515,2.363,7.417,7.417,0,0,0-.545,2.835v.056a7.416,7.416,0,0,0,.545,2.834,7.283,7.283,0,0,0,1.515,2.335,7.4,7.4,0,0,0,2.29,1.6,6.829,6.829,0,0,0,2.849.6,6.466,6.466,0,0,0,3.321-.806,10.072,10.072,0,0,0,2.46-2.029l-.945-.834a8.289,8.289,0,0,1-2.071,1.681" transform="translate(-128.796 -716.07)" fill="#fff"/>
      <rect id="Rectángulo_22982" data-name="Rectángulo 22982" width="1.362" height="14.174" transform="translate(50.083 6.114)" fill="#fff"/>
      <path id="Trazado_42476" data-name="Trazado 42476" d="M276.608,724.046a7.461,7.461,0,0,0-2.293-1.6,6.966,6.966,0,0,0-2.9-.6,7.06,7.06,0,0,0-2.918.6,7.379,7.379,0,0,0-3.849,3.989,7.451,7.451,0,0,0-.542,2.835v.056a7.449,7.449,0,0,0,.542,2.834,7.194,7.194,0,0,0,1.515,2.335,7.442,7.442,0,0,0,2.293,1.6,6.965,6.965,0,0,0,2.9.6,7.059,7.059,0,0,0,2.918-.6,7.365,7.365,0,0,0,3.85-3.988,7.452,7.452,0,0,0,.542-2.835v-.055a7.45,7.45,0,0,0-.542-2.835,7.2,7.2,0,0,0-1.514-2.334m.612,5.28a6.4,6.4,0,0,1-.433,2.352,5.9,5.9,0,0,1-1.2,1.923,5.717,5.717,0,0,1-1.843,1.3,5.6,5.6,0,0,1-2.332.485,5.692,5.692,0,0,1-2.3-.47,5.788,5.788,0,0,1-1.872-1.3,5.988,5.988,0,0,1-1.242-1.951,6.388,6.388,0,0,1-.447-2.394v-.055a6.4,6.4,0,0,1,.432-2.352,5.91,5.91,0,0,1,1.2-1.923,5.746,5.746,0,0,1,1.843-1.3,5.614,5.614,0,0,1,2.332-.484,5.679,5.679,0,0,1,2.3.47,5.752,5.752,0,0,1,1.871,1.3,5.959,5.959,0,0,1,1.243,1.95,6.386,6.386,0,0,1,.448,2.393Z" transform="translate(-209.1 -716.07)" fill="#fff"/>
      <path id="Trazado_42477" data-name="Trazado 42477" d="M361.509,706.212a9.035,9.035,0,0,0-2.292-1.18,23.765,23.765,0,0,0-3.016-.846q-1-.221-1.653-.43a5.832,5.832,0,0,1-1.029-.416,1.376,1.376,0,0,1-.527-.458,1.086,1.086,0,0,1-.154-.583v-.056a1.074,1.074,0,0,1,.486-.887,2.439,2.439,0,0,1,1.46-.361,8.269,8.269,0,0,1,2.71.487,10.94,10.94,0,0,1,2.738,1.431l2.7-3.82a11.227,11.227,0,0,0-3.543-1.943,14,14,0,0,0-4.46-.658,10.024,10.024,0,0,0-3.141.458,7.067,7.067,0,0,0-2.376,1.29,5.532,5.532,0,0,0-1.5,1.97,5.993,5.993,0,0,0-.514,2.5v.055a4.735,4.735,0,0,0,2.127,4.2,8.833,8.833,0,0,0,2.32,1.11q1.333.43,2.891.79,1,.222,1.625.431a5.287,5.287,0,0,1,1,.43,1.432,1.432,0,0,1,.515.457,1.057,1.057,0,0,1,.138.541v.055a1.094,1.094,0,0,1-.569.985,3.213,3.213,0,0,1-1.654.347,9.9,9.9,0,0,1-6.308-2.335l-3,3.593a12.024,12.024,0,0,0,4.156,2.433,15.1,15.1,0,0,0,4.96.811,11.3,11.3,0,0,0,3.224-.43,7.232,7.232,0,0,0,2.473-1.248,5.727,5.727,0,0,0,1.6-1.984,6,6,0,0,0,.569-2.663v-.055a5.119,5.119,0,0,0-.5-2.344,4.72,4.72,0,0,0-1.445-1.678" transform="translate(-274.316 -695.993)" fill="#fff"/>
      <path id="Trazado_42478" data-name="Trazado 42478" d="M445.475,720.172a6.649,6.649,0,0,0-2.361-1.792,7.926,7.926,0,0,0-3.377-.667,7.519,7.519,0,0,0-3.058.611,7.354,7.354,0,0,0-2.4,1.682,7.61,7.61,0,0,0-1.571,2.5,8.424,8.424,0,0,0-.556,3.071v.055a8.3,8.3,0,0,0,.6,3.2,7.036,7.036,0,0,0,1.669,2.46,7.655,7.655,0,0,0,2.542,1.584,8.94,8.94,0,0,0,3.252.57,8.241,8.241,0,0,0,3.85-.834,8.122,8.122,0,0,0,2.68-2.223l-2.918-2.418a5.6,5.6,0,0,1-1.6,1.167,4.135,4.135,0,0,1-1.737.361,3.493,3.493,0,0,1-2.1-.611,3.094,3.094,0,0,1-1.154-1.862H447.3c.018-.185.027-.371.027-.556v-.528a10.662,10.662,0,0,0-.457-3.155,7.55,7.55,0,0,0-1.391-2.612m-8.323,4.155a3.91,3.91,0,0,1,.889-1.987,2.222,2.222,0,0,1,1.723-.737,2.332,2.332,0,0,1,1.778.737,3.342,3.342,0,0,1,.835,1.987Z" transform="translate(-342.149 -712.793)" fill="#fff"/>
      <rect id="Rectángulo_22984" data-name="Rectángulo 22984" width="5.308" height="20.289" transform="translate(106.703)" fill="#fff"/>
      <path id="Trazado_42479" data-name="Trazado 42479" d="M558.243,720.172a6.665,6.665,0,0,0-2.362-1.792,7.923,7.923,0,0,0-3.377-.667,7.514,7.514,0,0,0-3.057.611,7.357,7.357,0,0,0-2.4,1.682,7.58,7.58,0,0,0-1.571,2.5,8.4,8.4,0,0,0-.555,3.071v.055a8.3,8.3,0,0,0,.6,3.2,7.046,7.046,0,0,0,1.668,2.46,7.656,7.656,0,0,0,2.542,1.584,8.948,8.948,0,0,0,3.252.57,8.235,8.235,0,0,0,3.85-.834,8.122,8.122,0,0,0,2.681-2.223l-2.917-2.418a5.607,5.607,0,0,1-1.6,1.167,4.13,4.13,0,0,1-1.737.361,3.493,3.493,0,0,1-2.1-.611A3.1,3.1,0,0,1,550,727.023h10.062c.018-.185.027-.371.027-.556v-.528a10.657,10.657,0,0,0-.458-3.155,7.553,7.553,0,0,0-1.39-2.612m-8.325,4.155a3.911,3.911,0,0,1,.89-1.987,2.22,2.22,0,0,1,1.724-.737,2.336,2.336,0,0,1,1.778.737,3.348,3.348,0,0,1,.835,1.987Z" transform="translate(-431.432 -712.793)" fill="#fff"/>
      <path id="Trazado_42480" data-name="Trazado 42480" d="M631.391,728.685a2.914,2.914,0,0,1-1.6.417,2.793,2.793,0,0,1-2.167-.987,3.426,3.426,0,0,1-.612-1.084,4,4,0,0,1-.223-1.348v-.055a3.683,3.683,0,0,1,.223-1.293,3.5,3.5,0,0,1,.612-1.056,2.835,2.835,0,0,1,.931-.723,2.66,2.66,0,0,1,1.181-.264,2.894,2.894,0,0,1,1.613.417,4.716,4.716,0,0,1,1.194,1.167l3.586-2.668a7.435,7.435,0,0,0-2.53-2.445,7.558,7.558,0,0,0-3.89-.917,8.345,8.345,0,0,0-3.266.625,7.784,7.784,0,0,0-4.794,7.212v.056a7.783,7.783,0,0,0,7.865,7.81,7.836,7.836,0,0,0,4.058-.945,8.3,8.3,0,0,0,2.641-2.5l-3.531-2.557a6.243,6.243,0,0,1-1.291,1.139" transform="translate(-492.184 -712.898)" fill="#fff"/>
      <path id="Trazado_42481" data-name="Trazado 42481" d="M699.464,701.031h-5.308v3.808h-1.778v4.252h1.778V715.2a4.794,4.794,0,0,0,1.341,3.835,5.605,5.605,0,0,0,3.744,1.14,8.146,8.146,0,0,0,2.03-.236,7.253,7.253,0,0,0,1.64-.625v-4.141a6.067,6.067,0,0,1-.973.361,3.806,3.806,0,0,1-1.029.139,1.506,1.506,0,0,1-1.083-.347,1.55,1.55,0,0,1-.362-1.153v-5.086h3.5v-4.252h-3.5Z" transform="translate(-548.182 -699.586)" fill="#fff"/>
      <path id="Trazado_42482" data-name="Trazado 42482" d="M763.095,722.493a7.442,7.442,0,0,0-1.723-2.473,8.461,8.461,0,0,0-2.627-1.682,8.621,8.621,0,0,0-3.32-.625,8.727,8.727,0,0,0-3.336.625,8.28,8.28,0,0,0-2.639,1.7,7.717,7.717,0,0,0-1.737,2.5,7.511,7.511,0,0,0-.625,3.043v.055a7.565,7.565,0,0,0,2.334,5.517,8.116,8.116,0,0,0,2.627,1.682,9.263,9.263,0,0,0,6.655-.014,8.275,8.275,0,0,0,2.641-1.695,7.72,7.72,0,0,0,1.737-2.5,7.508,7.508,0,0,0,.625-3.043v-.055a7.559,7.559,0,0,0-.612-3.03m-4.529,3.14a3.654,3.654,0,0,1-.223,1.268,3.29,3.29,0,0,1-.625,1.061,2.863,2.863,0,0,1-.986.716,3.154,3.154,0,0,1-1.306.262,2.956,2.956,0,0,1-1.279-.275,3.362,3.362,0,0,1-1.014-.731,3.221,3.221,0,0,1-.667-1.061,3.543,3.543,0,0,1-.236-1.3v-.055a3.651,3.651,0,0,1,.223-1.267,3.283,3.283,0,0,1,.625-1.061,2.859,2.859,0,0,1,.986-.717,3.151,3.151,0,0,1,1.306-.262,2.957,2.957,0,0,1,1.279.275,3.379,3.379,0,0,1,1.014.73,3.242,3.242,0,0,1,.667,1.062,3.544,3.544,0,0,1,.236,1.3Z" transform="translate(-591.498 -712.793)" fill="#fff"/>
    </g>
  </g>
  <g id="Grupo_19601" data-name="Grupo 19601">
    <path id="Trazado_42483" data-name="Trazado 42483" d="M185.085,115.317a14.853,14.853,0,1,0-.172-21.176,14.881,14.881,0,0,0,.172,21.176m8.989-6.442a1.869,1.869,0,0,0-.6-.382,8.978,8.978,0,0,0-.875-.308q-.493-.148-1.035-.32a13.914,13.914,0,0,1-1.393-.481,4.975,4.975,0,0,1-1.27-.74,3.606,3.606,0,0,1-.924-1.122,3.4,3.4,0,0,1-.358-1.627v-.049a3.885,3.885,0,0,1,1.418-3.106,4.406,4.406,0,0,1,1.528-.813,6.346,6.346,0,0,1,1.886-.271,8.317,8.317,0,0,1,2.161.294,3.574,3.574,0,0,1,.294-.874,3.968,3.968,0,0,1,1.035-1.319,4.408,4.408,0,0,1,1.528-.814,6.342,6.342,0,0,1,1.886-.271,8.472,8.472,0,0,1,2.551.407,9.452,9.452,0,0,1,2.379,1.122l-1.43,2.589a11.828,11.828,0,0,0-1.923-.9,5.024,5.024,0,0,0-1.651-.333,1.717,1.717,0,0,0-1.035.259.787.787,0,0,0-.345.653v.049a.644.644,0,0,0,.222.481,2.47,2.47,0,0,0,.592.394,7.894,7.894,0,0,0,.85.357q.481.173,1.023.345.691.222,1.405.53a5.784,5.784,0,0,1,1.282.752,3.732,3.732,0,0,1,.937,1.085,3.06,3.06,0,0,1,.37,1.553v.049a4.4,4.4,0,0,1-.382,1.91,3.51,3.51,0,0,1-1.072,1.319,4.827,4.827,0,0,1-1.615.776,7.329,7.329,0,0,1-1.984.259,8.808,8.808,0,0,1-1.952-.227,3.716,3.716,0,0,1-.281.856,3.51,3.51,0,0,1-1.072,1.319,4.839,4.839,0,0,1-1.615.777,7.341,7.341,0,0,1-1.984.259,9.255,9.255,0,0,1-5.67-2l1.6-2.465a8.9,8.9,0,0,0,2.157,1.184,5.838,5.838,0,0,0,2.009.394,2.087,2.087,0,0,0,1.2-.272.837.837,0,0,0,.382-.715v-.049a.709.709,0,0,0-.222-.518" transform="translate(-168.954 -84.024)" fill="#fff"/>
    <path id="Trazado_42484" data-name="Trazado 42484" d="M339.888,287.562c0,.078.141.1.274.129a19.084,19.084,0,0,1,2,.545,3.082,3.082,0,0,1,.971.567c.206.166.775.478,1.031.275a4.373,4.373,0,0,0,.908-2.32c-.051-.324-.679-.48-.942-.5a3.026,3.026,0,0,1-1.1-.241,18.684,18.684,0,0,1-1.841-.961c-.12-.065-.232-.145-.289-.089a4.574,4.574,0,0,0-1.724-.531c.027-.071-.155-.112-.282-.144-.229-.061-.821-.073-1.448-.131a7.545,7.545,0,0,1-1-.135,6.346,6.346,0,0,1-.746-.26.178.178,0,0,0-.126-.122,2.309,2.309,0,0,0-.346-.02.122.122,0,0,1-.082-.073.158.158,0,0,0-.145-.08c-.074-.006-.122.065-.149.1a3.078,3.078,0,0,0-.208.44,3.151,3.151,0,0,0-.146.461c-.006.05-.018.133.039.179a.158.158,0,0,0,.162.04.124.124,0,0,1,.11,0,2.734,2.734,0,0,0,.267.224.183.183,0,0,0,.176-.005,6.077,6.077,0,0,1,.725.314,7.423,7.423,0,0,1,.822.58c.5.38.943.774,1.152.886.114.063.277.156.306.084a4.564,4.564,0,0,0,1.624.784" transform="translate(-312.981 -265.237)" fill="#fff"/>
    <path id="Trazado_42485" data-name="Trazado 42485" d="M113.711,2.1a20.834,20.834,0,1,0,20.834,20.834A20.834,20.834,0,0,0,113.711,2.1m10.843,31.676a15.34,15.34,0,1,1-.172-21.868,15.357,15.357,0,0,1,.172,21.868" transform="translate(-86.902 -1.966)" fill="#fff"/>
    <path id="Trazado_42486" data-name="Trazado 42486" d="M767.683,11.521q0,5.274,0,10.548c0,.1,0,.2.006.306a.9.9,0,0,1-.4.832.53.53,0,0,0-.239.511c.042,1.135.075,2.27.109,3.4q.076,2.478.15,4.956.068,2.231.138,4.461c.037,1.209.079,2.418.106,3.628a1.642,1.642,0,0,1-1.1,1.677,1.519,1.519,0,0,1-1.85-1.622c.009-.9.048-1.794.075-2.691q.062-2.043.127-4.087.078-2.555.154-5.109.069-2.231.144-4.461c.009-.269-.049-.384-.262-.484a1.979,1.979,0,0,1-1.123-1.737,33.589,33.589,0,0,1-.088-4.016c.045-2.021.106-4.042.2-6.06.058-1.212.176-2.422.3-3.628a30.547,30.547,0,0,1,.941-5.287,6.7,6.7,0,0,1,.855-1.981,1.37,1.37,0,0,1,.928-.676.859.859,0,0,1,.312.021.462.462,0,0,1,.382.505q.022,1.346.033,2.692.023,3.289.039,6.577c0,.573,0,1.147,0,1.72h.052" transform="translate(-714.489 0.001)" fill="#fff"/>
    <path id="Trazado_42487" data-name="Trazado 42487" d="M1.948,27.588q.108-3.643.217-7.287.078-2.6.159-5.192a.63.63,0,0,0-.191-.489c-.461-.476-.914-.959-1.368-1.44a2.659,2.659,0,0,1-.757-1.9c0-1-.027-2,.019-3,.071-1.57.183-3.139.3-4.707.08-1.1.194-2.2.29-3.306C.621.163.661.109.78.109,1.3.108,1.2.065,1.21.5Q1.3,3.94,1.389,7.38c.008.3.007.591.018.886.008.23.125.361.3.361.195,0,.319-.149.325-.384q.09-3.789.181-7.578c0-.17.022-.34.022-.51,0-.111.045-.155.154-.148A.785.785,0,0,0,2.53,0c.136-.015.175.042.177.175q.058,3.551.124,7.1.008.46.015.92c0,.257.128.414.329.418s.338-.162.342-.407Q3.561,5.7,3.6,3.186c.017-1,.038-2,.05-3,0-.139.043-.2.186-.186a.611.611,0,0,0,.121,0c.127-.012.167.043.169.168.01.63.03,1.26.047,1.89q.078,3.048.156,6.1a1.322,1.322,0,0,0,.013.2.311.311,0,0,0,.329.264.3.3,0,0,0,.278-.3c.012-.278.016-.556.023-.834q.07-2.758.141-5.517c.015-.585.04-1.169.053-1.753,0-.141.053-.174.188-.155.39.054.387.05.42.451Q5.931,2.41,6.092,4.3c.17,1.992.285,3.987.286,5.986,0,.437-.033.873-.049,1.31a2.4,2.4,0,0,1-.695,1.538q-.655.723-1.341,1.419a.781.781,0,0,0-.257.617q.1,2.945.183,5.891.118,3.925.233,7.849.109,3.643.22,7.287c.037,1.237.069,2.475.113,3.712a1.943,1.943,0,0,1-.5,1.492A1.507,1.507,0,0,1,1.8,41.017a2.165,2.165,0,0,1-.232-1.069q.1-2.885.187-5.771c.045-1.459.081-2.917.123-4.376.021-.738.046-1.476.07-2.213h0" transform="translate(0 0)" fill="#fff"/>
  </g>
</svg>
