<svg xmlns="http://www.w3.org/2000/svg" xmlns:xlink="http://www.w3.org/1999/xlink" width="160" height="173.6" viewBox="0 0 160 173.6">
  <defs>
    <clipPath id="clip-path">
      <rect id="Rectángulo_21037" data-name="Rectángulo 21037" width="160" height="173.6" fill="none"/>
    </clipPath>
  </defs>
  <g id="logo-10aniversario-1" transform="translate(0)">
    <g id="Grupo_18928" data-name="Grupo 18928" transform="translate(0)" clip-path="url(#clip-path)">
      <path id="Trazado_41149" data-name="Trazado 41149" d="M3.292,192.548A10.018,10.018,0,0,1,0,190.849L.961,189.8A9.1,9.1,0,0,0,3.9,191.385a11.039,11.039,0,0,0,3.448.537,7.5,7.5,0,0,0,2.547-.413,4.437,4.437,0,0,0,1.839-1.174,2.559,2.559,0,0,0,.684-1.766q0-2.415-3.844-3.108L5,184.812q-4.541-.827-4.541-3.845a3.391,3.391,0,0,1,.877-2.314,5.691,5.691,0,0,1,2.391-1.542,9.9,9.9,0,0,1,3.388-.548,9.238,9.238,0,0,1,6.3,2.035l-.889.984a7.35,7.35,0,0,0-2.62-1.4,10,10,0,0,0-2.811-.413,8.166,8.166,0,0,0-2.631.4,4.641,4.641,0,0,0-1.875,1.107A2.26,2.26,0,0,0,1.9,180.9a1.991,1.991,0,0,0,.9,1.666,7.072,7.072,0,0,0,2.823,1.017l3.484.648a7,7,0,0,1,3.556,1.532,3.576,3.576,0,0,1,1.2,2.739,3.829,3.829,0,0,1-.817,2.415,5.347,5.347,0,0,1-2.3,1.644,8.95,8.95,0,0,1-3.352.592,13.631,13.631,0,0,1-4.108-.6" transform="translate(0 -19.618)" fill="#fff"/>
      <path id="Trazado_41150" data-name="Trazado 41150" d="M24.31,193.713a7.3,7.3,0,0,1-3.508-.838,6.312,6.312,0,0,1-2.451-2.292,6.275,6.275,0,0,1,0-6.439,6.312,6.312,0,0,1,2.451-2.292,7.762,7.762,0,0,1,7.017,0,6.312,6.312,0,0,1,2.451,2.292,6.275,6.275,0,0,1,0,6.439,6.312,6.312,0,0,1-2.451,2.292,7.3,7.3,0,0,1-3.508.838m0-11.492a5.67,5.67,0,0,0-2.751.671,5.078,5.078,0,0,0-1.958,1.855,5.107,5.107,0,0,0,0,5.232,5.085,5.085,0,0,0,1.958,1.855,5.974,5.974,0,0,0,5.5,0,5.085,5.085,0,0,0,1.958-1.855,5.107,5.107,0,0,0,0-5.232,5.078,5.078,0,0,0-1.958-1.855,5.67,5.67,0,0,0-2.751-.671" transform="translate(-1.94 -20.113)" fill="#fff"/>
      <path id="Trazado_41151" data-name="Trazado 41151" d="M37.924,192.9a6.23,6.23,0,0,1-2.547-2.258,6.275,6.275,0,0,1,.012-6.54,6.279,6.279,0,0,1,2.572-2.268,8.187,8.187,0,0,1,3.688-.816,6.7,6.7,0,0,1,4.637,1.61l-.889.961a5.365,5.365,0,0,0-1.742-1.017,6.151,6.151,0,0,0-2.078-.347,6.289,6.289,0,0,0-2.872.66,5.17,5.17,0,0,0-2.066,1.833,5.033,5.033,0,0,0,0,5.31,5.2,5.2,0,0,0,2.066,1.822,6.341,6.341,0,0,0,2.9.66,6.907,6.907,0,0,0,2.234-.358,3.917,3.917,0,0,0,1.659-1.006l.937.9a4.808,4.808,0,0,1-2.019,1.24,8.529,8.529,0,0,1-2.787.436,8.169,8.169,0,0,1-3.7-.816" transform="translate(-3.829 -20.113)" fill="#fff"/>
      <path id="Trazado_41152" data-name="Trazado 41152" d="M51.731,176.93a.976.976,0,0,1,0,1.387,1.171,1.171,0,0,1-1.49,0,.979.979,0,0,1,0-1.387,1.168,1.168,0,0,1,1.49,0m-1.441,3.891h1.394v12.117H50.29Z" transform="translate(-5.55 -19.629)" fill="#fff"/>
      <path id="Trazado_41153" data-name="Trazado 41153" d="M61.639,193.713a7.3,7.3,0,0,1-3.508-.838,6.312,6.312,0,0,1-2.451-2.292,6.275,6.275,0,0,1,0-6.439,6.312,6.312,0,0,1,2.451-2.292,7.762,7.762,0,0,1,7.017,0,6.312,6.312,0,0,1,2.451,2.292,6.275,6.275,0,0,1,0,6.439,6.312,6.312,0,0,1-2.451,2.292,7.3,7.3,0,0,1-3.508.838m0-11.492a5.67,5.67,0,0,0-2.751.671,5.078,5.078,0,0,0-1.958,1.855,5.107,5.107,0,0,0,0,5.232,5.085,5.085,0,0,0,1.958,1.855,5.974,5.974,0,0,0,5.5,0,5.085,5.085,0,0,0,1.958-1.855,5.107,5.107,0,0,0,0-5.232,5.078,5.078,0,0,0-1.958-1.855,5.67,5.67,0,0,0-2.751-.671" transform="translate(-6.088 -20.113)" fill="#fff"/>
      <path id="Trazado_41154" data-name="Trazado 41154" d="M75.9,192.469a9.558,9.558,0,0,1-3.592-1.867l2.643-3.019a8.714,8.714,0,0,0,5.743,1.99,4.77,4.77,0,0,0,2.246-.436q.805-.436.805-1.061,0-.984-1.682-1.207l-3.7-.537q-5.383-.805-5.382-4.673a4.282,4.282,0,0,1,.889-2.694,5.611,5.611,0,0,1,2.607-1.777,12.131,12.131,0,0,1,4.144-.627,15.208,15.208,0,0,1,4.157.571,9.1,9.1,0,0,1,3.412,1.732l-2.5,2.973a9.4,9.4,0,0,0-2.391-1.274,7.748,7.748,0,0,0-2.582-.425,5.805,5.805,0,0,0-2.271.369q-.853.368-.852.883,0,.828,1.49,1.051l4.18.627a6.853,6.853,0,0,1,3.881,1.61,4.1,4.1,0,0,1,1.261,3.062,4.583,4.583,0,0,1-.925,2.851,5.912,5.912,0,0,1-2.667,1.89,11.538,11.538,0,0,1-4.145.67,16.323,16.323,0,0,1-4.77-.682" transform="translate(-8.034 -19.618)" fill="#fff"/>
      <path id="Trazado_41155" data-name="Trazado 41155" d="M106.084,188.376H95.655a2.9,2.9,0,0,0,1.37,1.52,5.13,5.13,0,0,0,2.475.536,5.6,5.6,0,0,0,1.826-.279,7.308,7.308,0,0,0,1.779-.95l2.186,2.526a6.663,6.663,0,0,1-2.366,1.387,10.178,10.178,0,0,1-3.472.536,9.792,9.792,0,0,1-4.3-.872,6.434,6.434,0,0,1-2.739-2.37,6.149,6.149,0,0,1-.937-3.331,6.377,6.377,0,0,1,.889-3.3,6.445,6.445,0,0,1,2.571-2.415,8.19,8.19,0,0,1,3.94-.9,8.05,8.05,0,0,1,3.916.9,6.334,6.334,0,0,1,2.535,2.449,6.753,6.753,0,0,1,.877,3.4,5.189,5.189,0,0,1-.12,1.163m-9.263-4.1a2.765,2.765,0,0,0-1.189,1.487h6.439a2.7,2.7,0,0,0-1.129-1.487,3.706,3.706,0,0,0-2.043-.525,3.89,3.89,0,0,0-2.078.525" transform="translate(-10.164 -20.051)" fill="#fff"/>
      <path id="Trazado_41156" data-name="Trazado 41156" d="M114.051,176.059V188.6a.793.793,0,0,0,.313.693,1.412,1.412,0,0,0,.841.224,3.412,3.412,0,0,0,1.057-.18v3.354a6.2,6.2,0,0,1-2.211.358,4.554,4.554,0,0,1-3.124-1.018,3.575,3.575,0,0,1-1.153-2.828V176.059Z" transform="translate(-12.197 -19.562)" fill="#fff"/>
      <path id="Trazado_41157" data-name="Trazado 41157" d="M131.871,188.376H121.442a2.9,2.9,0,0,0,1.37,1.52,5.13,5.13,0,0,0,2.475.536,5.6,5.6,0,0,0,1.826-.279,7.308,7.308,0,0,0,1.779-.95l2.186,2.526a6.663,6.663,0,0,1-2.366,1.387,10.178,10.178,0,0,1-3.472.536,9.792,9.792,0,0,1-4.3-.872,6.434,6.434,0,0,1-2.739-2.37,6.149,6.149,0,0,1-.937-3.331,6.378,6.378,0,0,1,.889-3.3,6.445,6.445,0,0,1,2.571-2.415,8.19,8.19,0,0,1,3.94-.9,8.05,8.05,0,0,1,3.916.9,6.334,6.334,0,0,1,2.535,2.449,6.753,6.753,0,0,1,.877,3.4,5.188,5.188,0,0,1-.12,1.163m-9.263-4.1a2.765,2.765,0,0,0-1.189,1.487h6.439a2.7,2.7,0,0,0-1.129-1.487,3.706,3.706,0,0,0-2.043-.525,3.89,3.89,0,0,0-2.078.525" transform="translate(-13.029 -20.051)" fill="#fff"/>
      <path id="Trazado_41158" data-name="Trazado 41158" d="M138.334,192.779a6.464,6.464,0,0,1-2.727-2.359,6.276,6.276,0,0,1,.047-6.673,6.815,6.815,0,0,1,2.776-2.4,10.087,10.087,0,0,1,7.473-.313,6.7,6.7,0,0,1,2.341,1.464l-2.474,2.817a5.02,5.02,0,0,0-1.467-.95,4.449,4.449,0,0,0-3.471.012,3.154,3.154,0,0,0-1.333,1.051,2.89,2.89,0,0,0,0,3.264,3.154,3.154,0,0,0,1.333,1.051,4.459,4.459,0,0,0,1.79.358,5.288,5.288,0,0,0,1.717-.291,4.129,4.129,0,0,0,1.5-.894l2.45,2.795a6.783,6.783,0,0,1-2.341,1.408,10.807,10.807,0,0,1-7.617-.335" transform="translate(-14.963 -20.051)" fill="#fff"/>
      <path id="Trazado_41159" data-name="Trazado 41159" d="M160.865,189.146v3.465a7.047,7.047,0,0,1-2.619.425,6.191,6.191,0,0,1-4.253-1.274,4.592,4.592,0,0,1-1.418-3.6v-4.583h-2.283v-3.308h2.331V177.99l4.229-1.856v4.137h3.892v3.308h-3.892v4.27q0,1.609,2.09,1.61a6.484,6.484,0,0,0,1.923-.313" transform="translate(-16.699 -19.57)" fill="#fff"/>
      <path id="Trazado_41160" data-name="Trazado 41160" d="M166.394,192.769a6.654,6.654,0,0,1-2.691-2.381,6.319,6.319,0,0,1,0-6.662,6.666,6.666,0,0,1,2.691-2.381,9.616,9.616,0,0,1,8.049,0,6.674,6.674,0,0,1,2.692,2.381,6.319,6.319,0,0,1,0,6.662,6.662,6.662,0,0,1-2.692,2.381,9.616,9.616,0,0,1-8.049,0m6.4-3.532a2.953,2.953,0,0,0,0-4.36,3.794,3.794,0,0,0-4.757,0,2.953,2.953,0,0,0,0,4.36,3.794,3.794,0,0,0,4.757,0" transform="translate(-18.084 -20.051)" fill="#fff"/>
      <path id="Trazado_41161" data-name="Trazado 41161" d="M12.532,165.476H3.554l-2.1,4.573H0l7.224-15.461H8.908l7.2,15.461h-1.5ZM12,164.337l-3.924-8.632-3.992,8.632Z" transform="translate(0 -17.176)" fill="#fff"/>
      <path id="Trazado_41162" data-name="Trazado 41162" d="M34.868,154.588v15.461H33.345L22.083,156.327v13.722H20.745V154.588H22.29l11.239,13.7v-13.7Z" transform="translate(-2.305 -17.176)" fill="#fff"/>
      <rect id="Rectángulo_21035" data-name="Rectángulo 21035" width="1.385" height="15.461" transform="translate(36.486 137.412)" fill="#fff"/>
      <path id="Trazado_41163" data-name="Trazado 41163" d="M61.122,154.588l-7.016,15.461H52.376l-6.993-15.461h1.524L53.253,168.8l6.392-14.216Z" transform="translate(-5.043 -17.176)" fill="#fff"/>
      <path id="Trazado_41164" data-name="Trazado 41164" d="M78.353,170.049H65.659V154.588H78.121l-.369,1.16H67.044v5.562h7.339v1.159H67.044v6.421h10.94Z" transform="translate(-7.295 -17.176)" fill="#fff"/>
      <path id="Trazado_41165" data-name="Trazado 41165" d="M89.92,163.049H83.9v7H82.535V154.588H90.82a6.16,6.16,0,0,1,2.689.548,4.216,4.216,0,0,1,1.765,1.514,3.919,3.919,0,0,1,.623,2.169,3.835,3.835,0,0,1-1.212,2.868,5.123,5.123,0,0,1-3.243,1.341l5.308,7.022H95.113ZM83.9,161.911h6.785a4.228,4.228,0,0,0,2.793-.848,2.758,2.758,0,0,0,1.015-2.223,2.788,2.788,0,0,0-1.015-2.233,4.192,4.192,0,0,0-2.793-.859H83.9Z" transform="translate(-9.171 -17.176)" fill="#fff"/>
      <path id="Trazado_41166" data-name="Trazado 41166" d="M103.067,169.652A9.612,9.612,0,0,1,99.9,168.02l.924-1.01a8.745,8.745,0,0,0,2.827,1.525,10.629,10.629,0,0,0,3.312.515,7.2,7.2,0,0,0,2.446-.4,4.254,4.254,0,0,0,1.765-1.128,2.457,2.457,0,0,0,.658-1.7q0-2.32-3.692-2.985l-3.439-.623q-4.361-.795-4.362-3.693a3.255,3.255,0,0,1,.843-2.222,5.46,5.46,0,0,1,2.3-1.482,9.507,9.507,0,0,1,3.254-.526,8.875,8.875,0,0,1,6.046,1.954l-.853.945a7.084,7.084,0,0,0-2.516-1.342,9.64,9.64,0,0,0-2.7-.4,7.846,7.846,0,0,0-2.527.387,4.45,4.45,0,0,0-1.8,1.063,2.17,2.17,0,0,0-.658,1.557,1.912,1.912,0,0,0,.866,1.6,6.788,6.788,0,0,0,2.711.978l3.347.622a6.713,6.713,0,0,1,3.415,1.471,3.432,3.432,0,0,1,1.155,2.63,3.674,3.674,0,0,1-.785,2.319,5.122,5.122,0,0,1-2.2,1.579,8.609,8.609,0,0,1-3.22.569,13.091,13.091,0,0,1-3.947-.58" transform="translate(-11.101 -17.144)" fill="#fff"/>
      <path id="Trazado_41167" data-name="Trazado 41167" d="M128.741,165.476h-8.978l-2.1,4.573h-1.454l7.224-15.461h1.684l7.2,15.461h-1.5Zm-.531-1.139-3.924-8.632-3.992,8.632Z" transform="translate(-12.912 -17.176)" fill="#fff"/>
      <path id="Trazado_41168" data-name="Trazado 41168" d="M144.339,163.049h-6.023v7h-1.362V154.588h8.285a6.16,6.16,0,0,1,2.689.548,4.217,4.217,0,0,1,1.765,1.514,3.919,3.919,0,0,1,.623,2.169,3.835,3.835,0,0,1-1.212,2.868,5.123,5.123,0,0,1-3.243,1.341l5.308,7.022h-1.638Zm-6.023-1.139H145.1a4.228,4.228,0,0,0,2.793-.848,2.758,2.758,0,0,0,1.015-2.223,2.788,2.788,0,0,0-1.015-2.233,4.192,4.192,0,0,0-2.793-.859h-6.785Z" transform="translate(-15.217 -17.176)" fill="#fff"/>
      <rect id="Rectángulo_21036" data-name="Rectángulo 21036" width="1.385" height="15.461" transform="translate(138.56 137.412)" fill="#fff"/>
      <path id="Trazado_41169" data-name="Trazado 41169" d="M164.849,169.263a7.879,7.879,0,0,1,0-13.958,9.987,9.987,0,0,1,8.839,0,7.879,7.879,0,0,1,0,13.958,9.995,9.995,0,0,1-8.839,0m8.1-1.031a6.5,6.5,0,0,0,2.55-2.437,7.142,7.142,0,0,0,0-7.022,6.515,6.515,0,0,0-2.55-2.437,8.138,8.138,0,0,0-7.362,0,6.5,6.5,0,0,0-2.55,2.437,7.136,7.136,0,0,0,0,7.022,6.491,6.491,0,0,0,2.55,2.437,8.131,8.131,0,0,0,7.362,0" transform="translate(-17.854 -17.142)" fill="#fff"/>
      <path id="Trazado_41170" data-name="Trazado 41170" d="M106.5,20.77a42.17,42.17,0,1,0,42.17,42.17A42.17,42.17,0,0,0,106.5,20.77" transform="translate(-7.147 -2.308)" fill="#f40000"/>
      <path id="Trazado_41171" data-name="Trazado 41171" d="M130.972,64.1a9.756,9.756,0,0,0-2.45-2.836,15.128,15.128,0,0,0-3.354-1.967q-1.869-.805-3.676-1.387-1.416-.449-2.675-.9a20.787,20.787,0,0,1-2.225-.934,6.494,6.494,0,0,1-1.547-1.032,1.683,1.683,0,0,1-.58-1.257v-.13a2.058,2.058,0,0,1,.9-1.708,4.488,4.488,0,0,1,2.708-.676,13.14,13.14,0,0,1,4.318.87,30.929,30.929,0,0,1,5.03,2.353l3.739-6.77a24.725,24.725,0,0,0-6.222-2.933,22.154,22.154,0,0,0-6.672-1.063,16.577,16.577,0,0,0-4.932.709,11.535,11.535,0,0,0-4,2.127,10.386,10.386,0,0,0-2.708,3.449,9.374,9.374,0,0,0-.769,2.287,21.766,21.766,0,0,0-5.651-.769,16.614,16.614,0,0,0-4.934.709,11.531,11.531,0,0,0-4,2.127,10.163,10.163,0,0,0-3.707,8.124v.129a8.875,8.875,0,0,0,.936,4.254,9.414,9.414,0,0,0,2.417,2.933,13.017,13.017,0,0,0,3.32,1.935A36.521,36.521,0,0,0,97.892,73q1.417.452,2.708.838a23.419,23.419,0,0,1,2.289.806,4.895,4.895,0,0,1,1.58,1,1.854,1.854,0,0,1,.58,1.355v.128a2.189,2.189,0,0,1-1,1.869,5.45,5.45,0,0,1-3.126.71,15.28,15.28,0,0,1-5.255-1.031,23.327,23.327,0,0,1-5.642-3.1l-4.19,6.447a24.214,24.214,0,0,0,14.828,5.223,19.209,19.209,0,0,0,5.19-.676,12.666,12.666,0,0,0,4.223-2.032,9.172,9.172,0,0,0,2.8-3.449,9.77,9.77,0,0,0,.735-2.24,23.028,23.028,0,0,0,5.1.593,19.162,19.162,0,0,0,5.189-.677,12.613,12.613,0,0,0,4.223-2.03,9.186,9.186,0,0,0,2.805-3.45,11.514,11.514,0,0,0,1-5v-.129a8.008,8.008,0,0,0-.966-4.061m-9.006,6.038a9.013,9.013,0,0,1-1.63,2.865c-.67.53-2.157-.287-2.7-.72A8.069,8.069,0,0,0,115.1,70.8a49.753,49.753,0,0,0-5.24-1.424c-.347-.086-.706-.135-.716-.339-.248.146-4.238-1.612-4.249-2.05-.076.19-.5-.055-.8-.219-.547-.292-1.708-1.322-3.012-2.317a19.518,19.518,0,0,0-2.151-1.516,15.92,15.92,0,0,0-1.9-.821.476.476,0,0,1-.459.014,7.1,7.1,0,0,1-.7-.585.324.324,0,0,0-.287,0,.413.413,0,0,1-.422-.1c-.15-.12-.119-.339-.1-.468a9.4,9.4,0,0,1,.926-2.357c.072-.1.2-.286.391-.272a.413.413,0,0,1,.379.209.319.319,0,0,0,.215.19,6.011,6.011,0,0,1,.906.052.467.467,0,0,1,.329.319,16.668,16.668,0,0,0,1.95.68,19.67,19.67,0,0,0,2.605.353c1.64.151,3.188.182,3.787.342.332.084.81.191.739.376.3-.308,4.428,1.109,4.509,1.388.149-.147.443.062.756.233A48.963,48.963,0,0,0,117.374,65a7.909,7.909,0,0,0,2.873.63c.687.053,2.332.463,2.464,1.31a9,9,0,0,1-.745,3.2" transform="translate(-9.537 -4.859)" fill="#fff"/>
      <path id="Trazado_41172" data-name="Trazado 41172" d="M104.169,0H51.545a8.008,8.008,0,0,0-8.008,8.008V60.631A60.632,60.632,0,0,1,104.169,0" transform="translate(-4.837 0)" fill="#00a552"/>
      <path id="Trazado_41173" data-name="Trazado 41173" d="M43.536,68.211v52.624a8.008,8.008,0,0,0,8.008,8.008h52.624A60.632,60.632,0,0,1,43.536,68.211" transform="translate(-4.837 -7.579)" fill="#fd0"/>
      <path id="Trazado_41174" data-name="Trazado 41174" d="M172.38,68.193a60.632,60.632,0,0,1-60.632,60.632h52.66a8.008,8.008,0,0,0,8.008-8.008V68.047h-.038c0,.049,0,.1,0,.146" transform="translate(-12.416 -7.561)" fill="#ff8300"/>
      <path id="Trazado_41175" data-name="Trazado 41175" d="M111.748,0a60.632,60.632,0,0,1,60.63,60.487h.038V8.007A8.008,8.008,0,0,0,164.408,0Z" transform="translate(-12.416 0)" fill="#00a552"/>
      <path id="Trazado_41176" data-name="Trazado 41176" d="M0,4.542.009,17.4a4.451,4.451,0,0,1,2.656-4.069L32.012.383A4.46,4.46,0,0,1,33.763,0l-.042,0H4.543A4.543,4.543,0,0,0,0,4.542" transform="translate(0 0)" fill="#ff8300"/>
      <path id="Trazado_41177" data-name="Trazado 41177" d="M24.24,124.7a4.458,4.458,0,0,1-4.453-4.465L19.8,67.6l-.017.008L19.8,30.919,6.239,36.867A4.452,4.452,0,0,1,0,32.928v87.228A4.543,4.543,0,0,0,4.543,124.7Z" transform="translate(0 -3.435)" fill="#0086cc"/>
    </g>
  </g>
</svg>
