<svg xmlns="http://www.w3.org/2000/svg" xmlns:xlink="http://www.w3.org/1999/xlink" width="1366" height="64" viewBox="0 0 1366 64">
  <defs>
    <clipPath id="clip-path">
      <rect id="Rectángulo_23354" data-name="Rectángulo 23354" width="1366" height="64" transform="translate(0 123.392)" fill="none"/>
    </clipPath>
    <clipPath id="clip-path-2">
      <rect id="Rectángulo_4762" data-name="Rectángulo 4762" width="30" height="30" transform="translate(973.273 14)" fill="#222"/>
    </clipPath>
  </defs>
  <g id="Header_D." data-name="Header D." transform="translate(0 -67.999)">
    <g id="Grupo_19920" data-name="Grupo 19920" transform="translate(0 -55.393)">
      <path id="Trazado_43328" data-name="Trazado 43328" d="M0,0H1366V64H0Z" transform="translate(0 123.392)" fill="#f40000"/>
      <g id="Grupo_19919" data-name="Grupo 19919">
        <g id="Grupo_19918" data-name="Grupo 19918" clip-path="url(#clip-path)">
          <path id="Trazado_43309" data-name="Trazado 43309" d="M680.408,185.7a61.242,61.242,0,0,0-32.763-51.981" fill="none" stroke="#fff" stroke-linecap="round" stroke-width="2" stroke-dasharray="2.842 22.539 37.565 2.842"/>
          <path id="Trazado_43310" data-name="Trazado 43310" d="M646.379,133.073A61.2,61.2,0,0,0,575.6,145.16l-33.38,34.128" fill="none" stroke="#fff" stroke-linecap="round" stroke-width="2" stroke-dasharray="22.539 37.565 2.842 22.539 37.565 2.842"/>
          <line id="Línea_936" data-name="Línea 936" x1="8.383" y2="8.571" transform="translate(532.851 180.297)" fill="none" stroke="#fff" stroke-linecap="round" stroke-width="2"/>
          <path id="Trazado_43311" data-name="Trazado 43311" d="M657.773,193.625a38.96,38.96,0,0,0-7.159-28.785" fill="none" stroke="#fff" stroke-linecap="round" stroke-width="2" stroke-dasharray="2.099 10.494 16.791 2.099"/>
          <path id="Trazado_43312" data-name="Trazado 43312" d="M649.98,164a38.911,38.911,0,0,0-51.843-8.716" fill="none" stroke="#fff" stroke-linecap="round" stroke-width="2" stroke-dasharray="10.494 16.791 2.099 10.494 16.791 2.099"/>
          <path id="Trazado_43313" data-name="Trazado 43313" d="M597.265,155.872a39.092,39.092,0,0,0-5.769,4.867s-2.168,2.221-5.283,5.408" fill="none" stroke="#fff" stroke-linecap="round" stroke-width="2"/>
          <path id="Trazado_43314" data-name="Trazado 43314" d="M580.434,172.058l-10.476,10.714" fill="none" stroke="#fff" stroke-linecap="round" stroke-width="2" stroke-dasharray="1.033 5.166 8.266 1.033"/>
          <path id="Trazado_43315" data-name="Trazado 43315" d="M569.6,183.138l-5.286,5.4" fill="none" stroke="#fff" stroke-linecap="round" stroke-width="2"/>
          <path id="Trazado_43316" data-name="Trazado 43316" d="M1005.2,110.519a61.429,61.429,0,0,0,1.292,11.9" fill="none" stroke="#fff" stroke-linecap="round" stroke-width="2"/>
          <path id="Trazado_43317" data-name="Trazado 43317" d="M1024.692,154.611a61.238,61.238,0,0,0,59.923,13.589" fill="none" stroke="#fff" stroke-linecap="round" stroke-width="2" stroke-dasharray="2.842 22.539 37.565 2.842"/>
          <path id="Trazado_43318" data-name="Trazado 43318" d="M1085.966,167.761a61.2,61.2,0,0,0,41.5-58.594l-.528-47.735" fill="none" stroke="#fff" stroke-linecap="round" stroke-width="2" stroke-dasharray="22.539 37.565 2.842 22.539 37.565 2.842"/>
          <path id="Trazado_43319" data-name="Trazado 43319" d="M1035.092,133a38.969,38.969,0,0,0,25.416,15.293" fill="none" stroke="#fff" stroke-linecap="round" stroke-width="2" stroke-dasharray="2.099 10.494 16.791 2.099"/>
          <path id="Trazado_43320" data-name="Trazado 43320" d="M1061.548,148.435a39.223,39.223,0,0,0,5.236.288,38.9,38.9,0,0,0,37.586-30.784" fill="none" stroke="#fff" stroke-linecap="round" stroke-width="2" stroke-dasharray="10.494 16.791 2.099 10.494 16.791 2.099"/>
          <path id="Trazado_43321" data-name="Trazado 43321" d="M321.641,185.92a27.526,27.526,0,1,0,46.771-19.982L348.735,146.69l-19.248,19.678a27.44,27.44,0,0,0-7.846,19.552" fill="#fff"/>
          <path id="Trazado_43322" data-name="Trazado 43322" d="M911.793,142.608a27.526,27.526,0,1,0-46.771,19.982L884.7,181.838l19.248-19.678a27.44,27.44,0,0,0,7.846-19.552" transform="translate(-1 3.829)" fill="#ff8300"/>
          <path id="Trazado_43323" data-name="Trazado 43323" d="M427.546,40.576A71.551,71.551,0,0,0,528.734,141.764l106.4-106.4" fill="none" stroke="#0086cc" stroke-width="30"/>
          <path id="Trazado_43324" data-name="Trazado 43324" d="M704.532,158.1a71.551,71.551,0,1,0,0-143.1H554.058" fill="none" stroke="#fff" stroke-width="30"/>
          <path id="Trazado_43325" data-name="Trazado 43325" d="M961.043,141.713a71.551,71.551,0,0,0-143.1,0V292.187" fill="none" stroke="#ffdd04" stroke-width="30"/>
          <path id="Trazado_43326" data-name="Trazado 43326" d="M1323.1,187.456a71.551,71.551,0,0,1,143.1,0V337.93" fill="none" stroke="#fff" stroke-width="30"/>
          <path id="Trazado_43327" data-name="Trazado 43327" d="M1126.471,80.89a71.551,71.551,0,0,0,0,143.1h150.474" fill="none" stroke="#0fa251" stroke-width="30"/>
        </g>
      </g>
    </g>
    <g id="Grupo_19983" data-name="Grupo 19983">
      <g id="Rectángulo_5416" data-name="Rectángulo 5416" transform="translate(1128 81)" fill="none" stroke="#fff" stroke-width="1">
        <rect width="177" height="38" rx="19" stroke="none"/>
        <rect x="0.5" y="0.5" width="176" height="37" rx="18.5" fill="none"/>
      </g>
      <text id="Cerrar_sesión" data-name="Cerrar sesión" transform="translate(1217 105)" fill="#fff" font-size="12" font-family="TCCC-UnityHeadline-Bold, TCCC-UnityHeadline" font-weight="700"><tspan x="-43" y="0">Cerrar sesión</tspan></text>
    </g>
    <g id="Grupo_19984" data-name="Grupo 19984">
      <rect id="Divider" width="1" height="28" transform="translate(921 86)" fill="#fff"/>
      <g id="icn-carrito-header" transform="translate(-103.273 71)" clip-path="url(#clip-path-2)">
        <text id="icn-carrito" transform="translate(986.94 36.333)" fill="#fff" font-size="18" font-family="FontAwesome6Free-Solid, 'Font Awesome \36  Free'"><tspan x="-10" y="0">CART-SHOPPING</tspan></text>
      </g>
      <text id="Username" transform="translate(945 105)" fill="#fff" font-size="12" font-family="TCCC-UnityText-Medium, TCCC-UnityText" font-weight="500" text-decoration="underline"><tspan x="0" y="0">Mi Cuenta</tspan></text>
    </g>
  </g>
</svg>
