<svg xmlns="http://www.w3.org/2000/svg" xmlns:xlink="http://www.w3.org/1999/xlink" width="30" height="29.997" viewBox="0 0 30 29.997">
  <defs>
    <clipPath id="clip-path">
      <rect id="Rect치ngulo_21180" data-name="Rect치ngulo 21180" width="30" height="29.997" transform="translate(418 268)" fill="#fff" stroke="#f5ff00" stroke-width="1.4"/>
    </clipPath>
    <clipPath id="clip-path-2">
      <rect id="Rect치ngulo_20804" data-name="Rect치ngulo 20804" width="27.891" height="24.479" fill="#fff" stroke="#fff" stroke-width="0.5"/>
    </clipPath>
  </defs>
  <g id="icn-tiendadigital-blanco" transform="translate(-418 -268)" clip-path="url(#clip-path)">
    <g id="Grupo_18893" data-name="Grupo 18893" transform="translate(419 271)">
      <g id="Grupo_18825" data-name="Grupo 18825" clip-path="url(#clip-path-2)">
        <path id="Trazado_40936" data-name="Trazado 40936" d="M15.378,16.521H8.341a2.024,2.024,0,0,1-1.5-.482,1.051,1.051,0,0,1-.286-.643,1.337,1.337,0,0,1,.125-.643,1.715,1.715,0,0,1,.75-.8L4.215.768H.786A1.129,1.129,0,0,0,1.911,1.822H3.572a.384.384,0,0,1,0,.768H1.911C.089,2.59.018.714,0,.411V.393A.4.4,0,0,1,.393,0H4.5a.4.4,0,0,1,.375.3l.947,3.929H24.2a.377.377,0,0,1,.375.375c0,.036-.018.089-.018.125l-1.786,5.7c.018.036.054.071.071.107L26,16a2.658,2.658,0,0,1,.339,1.59v.036a.885.885,0,0,1,.3.036.9.9,0,0,1,.554.411l.572.982a.971.971,0,0,1,.089.7.949.949,0,0,1-.429.554l-7.019,4.054a.915.915,0,0,1-.679.089.884.884,0,0,1-.554-.429l-.572-.982a.871.871,0,0,1-.089-.7,1,1,0,0,1,.125-.286l-6.912-2.268a.679.679,0,0,1-.393-.3.7.7,0,0,1-.071-.5l.107-.393A1.728,1.728,0,0,1,12.27,17.5a2.177,2.177,0,0,1,1.5-.2l1.375.357c.161.018.875-.018.429-.786Zm4.769-4.8-.018-.018-.2-.321a.678.678,0,0,0-.429-.339.8.8,0,0,0-.536.071.7.7,0,0,0-.322.429.706.706,0,0,0,.054.536v.018l.768,1.3a.38.38,0,1,1-.661.375l-.75-1.3-.107-.179-.25-.446a.761.761,0,0,0-.447-.339.822.822,0,0,0-.536.071v.018A.663.663,0,0,0,16.4,12a.681.681,0,0,0,.071.554l1.107,1.929a.367.367,0,0,1-.143.518.357.357,0,0,1-.5-.143l-1.125-1.929L13.752,9.377a.652.652,0,0,0-.429-.321.633.633,0,0,0-.536.071.652.652,0,0,0-.321.429.7.7,0,0,0,.054.536L16.235,16.5c1.215,2.108-1.179,1.911-1.179,1.911h-.071l-1.411-.375a1.471,1.471,0,0,0-.964.125.987.987,0,0,0-.5.625l-.089.3,7.394,2.429,5.519-3.179.286-.179h.018a.826.826,0,0,0,.357-.661,1.832,1.832,0,0,0-.25-1.125l-3.161-5.483a.768.768,0,0,0-.429-.321.8.8,0,0,0-.536.071l-.036.018a.783.783,0,0,0-.3.411.809.809,0,0,0,.071.536v.018l.393.679a.376.376,0,0,1-.125.518.382.382,0,0,1-.518-.143L20.307,12l-.036-.054Zm5.483,7.091-.036.018L19.5,22.343l-.2.107a.178.178,0,0,0-.071.089.3.3,0,0,0,.018.125l.572.982a.119.119,0,0,0,.089.071.147.147,0,0,0,.125-.018l7.019-4.036a.375.375,0,0,0,.071-.107.226.226,0,0,0-.018-.107l-.572-1a.179.179,0,0,0-.089-.071.3.3,0,0,0-.125.018ZM22.147,9.912,22.968,7.3H6.608L8.2,13.7l5.144-.7-1.465-2.536a1.435,1.435,0,0,1-.143-1.107,1.408,1.408,0,0,1,.679-.893,1.436,1.436,0,0,1,1.107-.143A1.408,1.408,0,0,1,14.413,9l1.411,2.447a1.44,1.44,0,0,1,.518-.518l.089-.054h.018a1.4,1.4,0,0,1,1-.089,1.437,1.437,0,0,1,.572.286,1.48,1.48,0,0,1,.518-.589l.054-.018a1.434,1.434,0,0,1,1.107-.161,1.409,1.409,0,0,1,.554.3,1.684,1.684,0,0,1,.536-.589l.071-.071h.071a1.441,1.441,0,0,1,1.018-.107c.071.018.125.054.2.071M13.735,13.7l-5.644.786a.87.87,0,0,1-.125.054.947.947,0,0,0-.589.518.384.384,0,0,0-.054.268.269.269,0,0,0,.071.2,1.363,1.363,0,0,0,.947.25h6.59Zm-5.43,3.5a2.012,2.012,0,1,1-1.429.589A2,2,0,0,1,8.305,17.2M9.2,18.325a1.272,1.272,0,0,0-.893-.375,1.3,1.3,0,0,0-.893.357,1.272,1.272,0,0,0-.375.893,1.21,1.21,0,0,0,.375.893,1.24,1.24,0,0,0,.893.375,1.271,1.271,0,0,0,.893-.375,1.229,1.229,0,0,0,0-1.768M23.683,4.983H6.037L6.43,6.537H23.2Z" fill="#fff" stroke="#fff" stroke-width="0.5"/>
      </g>
    </g>
  </g>
</svg>
