<svg xmlns="http://www.w3.org/2000/svg" xmlns:xlink="http://www.w3.org/1999/xlink" width="1366" height="768" viewBox="0 0 1366 768">
  <defs>
    <clipPath id="clip-path">
      <rect id="Rectángulo_25337" data-name="Rectángulo 25337" width="1366" height="768" transform="translate(58.036 150.99)" fill="none"/>
    </clipPath>
    <clipPath id="clip-path-2">
      <path id="Trazado_43446" data-name="Trazado 43446" d="M109.086,796.264A177.643,177.643,0,0,0,58.279,918.99H414.732c0-.022,0-.045,0-.068a177.676,177.676,0,0,0-53.6-125.446L233.717,668.846Z" fill="none"/>
    </clipPath>
  </defs>
  <g id="Login_D." data-name="Login D." transform="translate(-58.036 -150.99)">
    <rect id="Rectángulo_25336" data-name="Rectángulo 25336" width="1365.78" height="192.772" transform="translate(58.256 150.99)" fill="#f40000"/>
    <g id="Grupo_19974" data-name="Grupo 19974">
      <g id="Grupo_19973" data-name="Grupo 19973" clip-path="url(#clip-path)">
        <path id="Trazado_43394" data-name="Trazado 43394" d="M1068.533,572.256a85.84,85.84,0,0,0,7.945,6.875" fill="none" stroke="#f40000" stroke-linecap="round" stroke-width="1.886"/>
        <path id="Trazado_43395" data-name="Trazado 43395" d="M1106.419,593.732a85.325,85.325,0,0,0,59.2-5.993" fill="none" stroke="#f40000" stroke-linecap="round" stroke-width="1.886" stroke-dasharray="4.191 20.957 33.531 4.191"/>
        <path id="Trazado_43396" data-name="Trazado 43396" d="M1167.489,586.788a85.047,85.047,0,0,0,19.947-136.1l-51.768-50.635" fill="none" stroke="#f40000" stroke-linecap="round" stroke-width="1.886" stroke-dasharray="20.957 33.531 4.191 20.957 33.531 4.191"/>
        <line id="Línea_940" data-name="Línea 940" x1="7.515" y1="7.35" transform="translate(1126.654 391.242)" fill="none" stroke="#f40000" stroke-linecap="round" stroke-width="1.886"/>
        <path id="Trazado_43397" data-name="Trazado 43397" d="M1090.2,550.153a54.371,54.371,0,0,0,8.178,6.58" fill="none" stroke="#d30014" stroke-linecap="round" stroke-width="1.886"/>
        <path id="Trazado_43398" data-name="Trazado 43398" d="M1120.039,564.964a54.179,54.179,0,0,0,40.034-9.956" fill="none" stroke="#d30014" stroke-linecap="round" stroke-width="1.886" stroke-dasharray="2.919 14.594 23.35 2.919"/>
        <path id="Trazado_43399" data-name="Trazado 43399" d="M1161.234,554.124a54.525,54.525,0,0,0,5.429-4.863,54.1,54.1,0,0,0,6.687-67.234" fill="none" stroke="#d30014" stroke-linecap="round" stroke-width="1.886" stroke-dasharray="14.594 23.35 2.919 14.594 23.35 2.919"/>
        <path id="Trazado_43400" data-name="Trazado 43400" d="M1172.54,480.818a54.353,54.353,0,0,0-6.769-8.023s-3.088-3.015-7.52-7.347" fill="none" stroke="#d30014" stroke-linecap="round" stroke-width="1.886"/>
        <path id="Trazado_43401" data-name="Trazado 43401" d="M1150.032,457.413l-14.9-14.569" fill="none" stroke="#d30014" stroke-linecap="round" stroke-width="1.886" stroke-dasharray="1.437 7.185 11.495 1.437"/>
        <path id="Trazado_43402" data-name="Trazado 43402" d="M1134.623,442.346c-4.432-4.333-7.519-7.353-7.517-7.351" fill="none" stroke="#d30014" stroke-linecap="round" stroke-width="1.886"/>
        <path id="Trazado_43403" data-name="Trazado 43403" d="M358.23,762.559a61.429,61.429,0,0,0,1.292,11.9" fill="none" stroke="#f40000" stroke-linecap="round" stroke-width="2"/>
        <path id="Trazado_43404" data-name="Trazado 43404" d="M377.727,806.651A61.238,61.238,0,0,0,437.65,820.24" fill="none" stroke="#f40000" stroke-linecap="round" stroke-width="2" stroke-dasharray="2.842 22.539 37.565 2.842"/>
        <path id="Trazado_43405" data-name="Trazado 43405" d="M439,819.8a61.2,61.2,0,0,0,41.5-58.594l-.528-47.735" fill="none" stroke="#f40000" stroke-linecap="round" stroke-width="2" stroke-dasharray="22.539 37.565 2.842 22.539 37.565 2.842"/>
        <line id="Línea_941" data-name="Línea 941" x1="0.133" y1="11.989" transform="translate(479.824 700.07)" fill="none" stroke="#f40000" stroke-linecap="round" stroke-width="2"/>
        <path id="Trazado_43406" data-name="Trazado 43406" d="M380.485,762.336a39.017,39.017,0,0,0,.813,7.5" fill="none" stroke="#f40000" stroke-linecap="round" stroke-width="2"/>
        <path id="Trazado_43407" data-name="Trazado 43407" d="M388.127,785.04a38.968,38.968,0,0,0,25.416,15.293" fill="none" stroke="#f40000" stroke-linecap="round" stroke-width="2" stroke-dasharray="2.099 10.494 16.791 2.099"/>
        <path id="Trazado_43408" data-name="Trazado 43408" d="M414.583,800.475a39.22,39.22,0,0,0,5.236.288A38.9,38.9,0,0,0,457.4,769.979" fill="none" stroke="#f40000" stroke-linecap="round" stroke-width="2" stroke-dasharray="10.494 16.791 2.099 10.494 16.791 2.099"/>
        <path id="Trazado_43409" data-name="Trazado 43409" d="M457.608,768.95a39.035,39.035,0,0,0,.638-7.521s-.038-3.1-.088-7.56" fill="none" stroke="#f40000" stroke-linecap="round" stroke-width="2"/>
        <path id="Trazado_43410" data-name="Trazado 43410" d="M458.065,745.6c-.058-5.148-.12-10.648-.168-14.984" fill="none" stroke="#f40000" stroke-linecap="round" stroke-width="2" stroke-dasharray="1.033 5.166 8.266 1.033"/>
        <path id="Trazado_43411" data-name="Trazado 43411" d="M457.891,730.107c-.05-4.457-.085-7.562-.085-7.56" fill="none" stroke="#f40000" stroke-linecap="round" stroke-width="2"/>
        <path id="Trazado_43412" data-name="Trazado 43412" d="M1060.8,508.88a64.294,64.294,0,1,0,109.247-46.674l-45.963-44.957-44.957,45.963A64.1,64.1,0,0,0,1060.8,508.88" fill="#ffdd04"/>
        <path id="Trazado_43413" data-name="Trazado 43413" d="M1124.974,580.347a72.874,72.874,0,0,1-51.279-20.918l13.745-14.052a53.351,53.351,0,0,0,37.54,15.314c.205,0,.406,0,.611,0a53.712,53.712,0,0,0,36.963-92.1l-45.424-44.429,13.745-14.052,45.423,44.429a73.367,73.367,0,0,1-50.489,125.812c-.278,0-.558,0-.835,0" fill="#05a351"/>
        <path id="Trazado_43414" data-name="Trazado 43414" d="M1383.783,743.777a130.579,130.579,0,1,0-89.861,223.92l130.571-1.445-1.445-130.571a130.17,130.17,0,0,0-39.265-91.9" fill="#fff"/>
        <path id="Trazado_43415" data-name="Trazado 43415" d="M1424.036,918.99V786.652A132.337,132.337,0,0,0,1291.7,918.99Z" fill="#f40000"/>
        <path id="Trazado_43416" data-name="Trazado 43416" d="M1292.555,850.286a27.526,27.526,0,1,0,46.771-19.982l-4.684-4.582-7.745-7.576-7.248-7.09-6.917,7.071-3.227,3.3-9.1,9.308c-2.828,2.891-4.331,5.217-6.292,10.1s-1.59,6.151-1.554,9.447" fill="#fff"/>
        <path id="Trazado_43417" data-name="Trazado 43417" d="M1292.555,850.286a27.526,27.526,0,1,0,46.771-19.982l-19.677-19.248L1300.4,830.734A27.44,27.44,0,0,0,1292.555,850.286Z" fill="none" stroke="#f40000" stroke-linecap="round" stroke-linejoin="round" stroke-width="2"/>
        <path id="Trazado_43418" data-name="Trazado 43418" d="M54.428,317.363h84.16a97.178,97.178,0,0,0,0-194.355v26.035a71.143,71.143,0,0,1,0,142.285H54.429Z" fill="#0fa251"/>
        <path id="Trazado_43419" data-name="Trazado 43419" d="M383.642,434.676a127.792,127.792,0,1,0-218.155-90.363V472.105H293.279a127.392,127.392,0,0,0,90.363-37.429" fill="#fff"/>
        <path id="Trazado_43420" data-name="Trazado 43420" d="M1201.732,296.819a84.825,84.825,0,0,1,.747-10.348" fill="none" stroke="#fff" stroke-linecap="round" stroke-width="1.848"/>
        <path id="Trazado_43421" data-name="Trazado 43421" d="M1213.189,255.374a84.246,84.246,0,0,1,45.517-37.149" fill="none" stroke="#fff" stroke-linecap="round" stroke-width="1.848" stroke-dasharray="4.138 20.692 33.108 4.138"/>
        <path id="Trazado_43422" data-name="Trazado 43422" d="M1260.674,217.584a83.974,83.974,0,0,1,108.946,81.093l-.791,71.495" fill="none" stroke="#fff" stroke-linecap="round" stroke-width="1.848" stroke-dasharray="20.692 33.108 4.138 20.692 33.108 4.138"/>
        <line id="Línea_942" data-name="Línea 942" x1="0.115" y2="10.379" transform="translate(1368.692 372.242)" fill="none" stroke="#fff" stroke-linecap="round" stroke-width="2.368"/>
        <path id="Trazado_43423" data-name="Trazado 43423" d="M129.039,168.482a53.671,53.671,0,0,1,10.3,1.116" fill="none" stroke="#fff" stroke-linecap="round" stroke-width="2.368"/>
        <path id="Trazado_43424" data-name="Trazado 43424" d="M160.214,178.975a53.5,53.5,0,0,1,21,34.9" fill="none" stroke="#fff" stroke-linecap="round" stroke-width="1.848" stroke-dasharray="2.882 14.41 23.056 2.882"/>
        <path id="Trazado_43425" data-name="Trazado 43425" d="M181.408,215.3a53.829,53.829,0,0,1,.395,7.186A53.418,53.418,0,0,1,139.53,274.1" fill="none" stroke="#fff" stroke-linecap="round" stroke-width="1.848" stroke-dasharray="14.41 23.056 2.882 14.41 23.056 2.882"/>
        <path id="Trazado_43426" data-name="Trazado 43426" d="M138.121,274.379a53.626,53.626,0,0,1-10.327.876s-4.262-.052-10.38-.121" fill="none" stroke="#fff" stroke-linecap="round" stroke-width="1.848"/>
        <path id="Trazado_43427" data-name="Trazado 43427" d="M106.065,275.006l-20.574-.231" fill="none" stroke="#fff" stroke-linecap="round" stroke-width="1.848" stroke-dasharray="1.419 7.094 11.35 1.419"/>
        <path id="Trazado_43428" data-name="Trazado 43428" d="M84.787,274.767l-10.38-.116" fill="none" stroke="#fff" stroke-linecap="round" stroke-width="2.368"/>
        <path id="Trazado_43429" data-name="Trazado 43429" d="M107.438,228.7a19.427,19.427,0,1,0,33.009-14.1L126.559,201.01,112.976,214.9a19.363,19.363,0,0,0-5.538,13.8" fill="#fff"/>
        <path id="Trazado_43430" data-name="Trazado 43430" d="M399.225,636.31a19.427,19.427,0,1,0-14.1-33.009l-13.583,13.888,13.887,13.583a19.368,19.368,0,0,0,13.8,5.538" fill="#0fa251"/>
        <path id="Trazado_43431" data-name="Trazado 43431" d="M1076.154,74.031c52.92,52.92,52.92,139.516,0,192.436s-139.517,52.92-192.436,0L629.627,12.376" fill="none" stroke="#ff8300" stroke-width="35"/>
        <path id="Trazado_43432" data-name="Trazado 43432" d="M965.2,919.641c0-74.84,61.233-136.073,136.073-136.073s136.073,61.233,136.073,136.073V1278.98" fill="none" stroke="#0086cc" stroke-width="35"/>
        <path id="Trazado_43433" data-name="Trazado 43433" d="M324.471,331.092a71.551,71.551,0,1,0,0,143.1H474.945" fill="none" stroke="#0086cc" stroke-width="30"/>
        <path id="Trazado_43434" data-name="Trazado 43434" d="M1057.515,615.639c48.464,48.465,127.771,48.465,176.236,0s48.466-127.772,0-176.237l-209.3-209.3" fill="none" stroke="#f40000" stroke-width="30"/>
        <path id="Trazado_43435" data-name="Trazado 43435" d="M1393.537,742.8c-50.582-50.582-133.353-50.582-183.934,0h0c-50.582,50.582-50.582,133.353,0,183.935L1452.468,1169.6" fill="none" stroke="#05a451" stroke-width="30"/>
        <path id="Trazado_43436" data-name="Trazado 43436" d="M1243.345,910.406c-37.033-37.033-37.033-97.634,0-134.667s97.634-37.034,134.667,0l177.813,177.813" fill="none" stroke="#f40000" stroke-linecap="round" stroke-linejoin="round" stroke-width="2" stroke-dasharray="12.544 20.908 2.799 6.998 20.908 1.582"/>
        <path id="Trazado_43437" data-name="Trazado 43437" d="M398.982,156.047c74.84,0,136.073,61.233,136.073,136.073a134.985,134.985,0,0,1-15.236,62.362,137.61,137.61,0,0,1-61.376,59.945,134.706,134.706,0,0,1-59.461,13.765H39.643" fill="none" stroke="#f40000" stroke-linecap="round" stroke-linejoin="round" stroke-width="2" stroke-dasharray="17.926 29.876 4 10 29.876 2.26"/>
        <path id="Trazado_43438" data-name="Trazado 43438" d="M860.154,96.49c52.92,52.92,52.92,139.515,0,192.436s-139.516,52.92-192.436,0L413.627,34.835" fill="none" stroke="#fff" stroke-linecap="round" stroke-linejoin="round" stroke-width="2" stroke-dasharray="17.926 29.876 4 10 29.876 2.26"/>
        <path id="Trazado_43439" data-name="Trazado 43439" d="M1120.2,396.736l-81.555-79.77a131.726,131.726,0,0,1,184.216-188.34l-24.676,25.23a96.435,96.435,0,0,0-134.863,137.88l81.555,79.77Z" fill="#fff"/>
        <path id="Trazado_43440" data-name="Trazado 43440" d="M430.385,343.775c0-71.534-58.528-130.061-130.061-130.061h0c-71.533,0-130.061,58.527-130.061,130.061V777.623" fill="none" stroke="#ffdd04" stroke-width="30"/>
        <path id="Trazado_43441" data-name="Trazado 43441" d="M8.739,919.343A178.236,178.236,0,1,0,311.594,789.952L184.176,665.323,59.546,792.741a177.676,177.676,0,0,0-50.807,126.6" fill="#f40000"/>
        <path id="Trazado_43442" data-name="Trazado 43442" d="M1245.635,323.688a45.724,45.724,0,1,0,77.693-33.193l-32.687-31.972-31.972,32.687a45.584,45.584,0,0,0-13.034,32.478" fill="#fff"/>
        <path id="Trazado_43443" data-name="Trazado 43443" d="M90.911,920.3c0-74.84,61.234-136.073,136.073-136.073S363.057,845.462,363.057,920.3v59.45" fill="none" stroke="#ff8300" stroke-width="35"/>
        <path id="Trazado_43444" data-name="Trazado 43444" d="M62.654,585.955c52.92-52.92,139.517-52.92,192.436,0s52.92,139.516,0,192.436L1,1032.482" fill="none" stroke="#f40000" stroke-linecap="round" stroke-linejoin="round" stroke-width="2" stroke-dasharray="17.926 29.876 4 10 29.876 2.26"/>
      </g>
    </g>
    <g id="Grupo_19976" data-name="Grupo 19976">
      <g id="Grupo_19975" data-name="Grupo 19975" clip-path="url(#clip-path-2)">
        <path id="Trazado_43445" data-name="Trazado 43445" d="M62.654,585.955c52.92-52.92,139.517-52.92,192.436,0,37.414,37.414,48.377,91.662,32.8,139.2a134.564,134.564,0,0,1-32.8,53.234L1,1032.482" fill="none" stroke="#fff" stroke-linecap="round" stroke-linejoin="round" stroke-width="2" stroke-dasharray="17.926 29.876 4 10 29.876 2.26"/>
      </g>
    </g>
  </g>
</svg>
