<svg id="Logo_D." data-name="Logo D." xmlns="http://www.w3.org/2000/svg" xmlns:xlink="http://www.w3.org/1999/xlink" width="243.38" height="158.053" viewBox="0 0 243.38 158.053">
  <defs>
    <clipPath id="clip-path">
      <rect id="Rectángulo_23352" data-name="Rectángulo 23352" width="243.38" height="158.053" fill="none"/>
    </clipPath>
  </defs>
  <g id="Grupo_19917" data-name="Grupo 19917" clip-path="url(#clip-path)">
    <path id="Trazado_43295" data-name="Trazado 43295" d="M181.727,55.385a26.524,26.524,0,0,0-6.66-7.712,41.122,41.122,0,0,0-9.116-5.347q-5.084-2.187-9.991-3.769-3.852-1.222-7.273-2.453a55.959,55.959,0,0,1-6.046-2.541,17.535,17.535,0,0,1-4.207-2.8,4.583,4.583,0,0,1-1.576-3.418V26.99a5.59,5.59,0,0,1,2.454-4.644q2.454-1.841,7.361-1.841a35.729,35.729,0,0,1,11.741,2.367,83.968,83.968,0,0,1,13.673,6.4l10.165-18.4a67.158,67.158,0,0,0-16.915-7.974A60.207,60.207,0,0,0,147.2,0a45.1,45.1,0,0,0-13.409,1.928,31.348,31.348,0,0,0-10.862,5.784,28.224,28.224,0,0,0-7.361,9.376,25.45,25.45,0,0,0-2.091,6.217,59.141,59.141,0,0,0-15.362-2.091A45.133,45.133,0,0,0,84.7,23.142a31.332,31.332,0,0,0-10.865,5.783A27.622,27.622,0,0,0,63.757,51.01v.351A24.148,24.148,0,0,0,66.3,62.927,25.627,25.627,0,0,0,72.872,70.9,35.372,35.372,0,0,0,81.9,76.16a98.958,98.958,0,0,0,9.9,3.42q3.85,1.227,7.361,2.276a63.9,63.9,0,0,1,6.223,2.192,13.282,13.282,0,0,1,4.294,2.716,5.043,5.043,0,0,1,1.577,3.683v.348a5.949,5.949,0,0,1-2.716,5.082q-2.721,1.934-8.5,1.931A41.5,41.5,0,0,1,85.755,95a63.3,63.3,0,0,1-15.337-8.417L59.026,104.115a65.809,65.809,0,0,0,40.312,14.2,52.2,52.2,0,0,0,14.108-1.839,34.415,34.415,0,0,0,11.481-5.523,24.957,24.957,0,0,0,7.623-9.377,26.423,26.423,0,0,0,2-6.088A62.668,62.668,0,0,0,148.426,97.1a52.08,52.08,0,0,0,14.108-1.841,34.3,34.3,0,0,0,11.481-5.519,24.95,24.95,0,0,0,7.624-9.379,31.28,31.28,0,0,0,2.715-13.582v-.351a21.757,21.757,0,0,0-2.627-11.04" fill="#f40000"/>
    <path id="Trazado_43296" data-name="Trazado 43296" d="M157.244,71.8c1.335-3.411,2.249-7.337,2.024-8.705-.36-2.3-4.829-3.415-6.7-3.56a21.479,21.479,0,0,1-7.811-1.713c-4.472-1.75-12.585-6.565-13.092-6.836-.849-.461-1.648-1.03-2.052-.631-.221-.756-11.437-4.611-12.261-3.771.194-.5-1.1-.794-2.007-1.024-1.629-.434-5.836-.52-10.293-.929a53.68,53.68,0,0,1-7.082-.96,45.1,45.1,0,0,1-5.3-1.848,1.267,1.267,0,0,0-.895-.868,16.318,16.318,0,0,0-2.462-.142.869.869,0,0,1-.584-.517,1.127,1.127,0,0,0-1.03-.569c-.524-.039-.868.46-1.062.739a21.918,21.918,0,0,0-1.48,3.127,22.366,22.366,0,0,0-1.039,3.28c-.045.353-.129.948.278,1.274a1.123,1.123,0,0,0,1.149.283.878.878,0,0,1,.78,0,19.534,19.534,0,0,0,1.9,1.591,1.3,1.3,0,0,0,1.248-.039,43.093,43.093,0,0,1,5.159,2.232,52.742,52.742,0,0,1,5.846,4.121c3.549,2.7,6.705,5.5,8.19,6.3.811.445,1.967,1.112,2.173.6.029,1.187,10.877,5.968,11.55,5.572.027.553,1,.684,1.946.919.554.155,9.776,2.123,14.244,3.873a21.918,21.918,0,0,1,6.9,4.034c1.465,1.177,5.508,3.4,7.328,1.958,1.1-.868,3.1-4.374,4.433-7.789" fill="#fff"/>
    <path id="Trazado_43297" data-name="Trazado 43297" d="M5.007,157.033A15.2,15.2,0,0,1,0,154.448l1.462-1.6a13.862,13.862,0,0,0,4.477,2.415,16.816,16.816,0,0,0,5.245.816,11.39,11.39,0,0,0,3.874-.629,6.735,6.735,0,0,0,2.8-1.786A3.89,3.89,0,0,0,18.9,150.98q0-3.673-5.848-4.727L7.6,145.266Q.694,144.009.694,139.417a5.156,5.156,0,0,1,1.334-3.52,8.66,8.66,0,0,1,3.637-2.347,15.075,15.075,0,0,1,5.153-.833q6.031,0,9.576,3.1l-1.352,1.5a11.207,11.207,0,0,0-3.984-2.125,15.228,15.228,0,0,0-4.276-.629,12.428,12.428,0,0,0-4,.612,7.045,7.045,0,0,0-2.851,1.683,3.433,3.433,0,0,0-1.042,2.466,3.026,3.026,0,0,0,1.371,2.533A10.746,10.746,0,0,0,8.552,143.4l5.3.986a10.639,10.639,0,0,1,5.409,2.329,5.442,5.442,0,0,1,1.828,4.167,5.823,5.823,0,0,1-1.243,3.673,8.128,8.128,0,0,1-3.49,2.5,13.609,13.609,0,0,1-5.1.9,20.748,20.748,0,0,1-6.25-.918" fill="#161615"/>
    <path id="Trazado_43298" data-name="Trazado 43298" d="M34.027,158.053a11.1,11.1,0,0,1-5.336-1.275,9.587,9.587,0,0,1-3.728-3.486,9.539,9.539,0,0,1,0-9.794,9.587,9.587,0,0,1,3.728-3.486,11.8,11.8,0,0,1,10.672,0,9.587,9.587,0,0,1,3.728,3.486,9.539,9.539,0,0,1,0,9.794,9.587,9.587,0,0,1-3.728,3.486,11.1,11.1,0,0,1-5.336,1.275m0-17.48a8.641,8.641,0,0,0-4.185,1.02,7.733,7.733,0,0,0-2.979,2.823,7.771,7.771,0,0,0,0,7.958,7.74,7.74,0,0,0,2.979,2.823,9.1,9.1,0,0,0,8.37,0,7.747,7.747,0,0,0,2.979-2.823,7.771,7.771,0,0,0,0-7.958,7.74,7.74,0,0,0-2.979-2.823,8.641,8.641,0,0,0-4.185-1.02" fill="#161615"/>
    <path id="Trazado_43299" data-name="Trazado 43299" d="M51.863,156.812a9.478,9.478,0,0,1-3.874-3.435,9.548,9.548,0,0,1,.018-9.948,9.54,9.54,0,0,1,3.911-3.451,12.447,12.447,0,0,1,5.61-1.242,10.187,10.187,0,0,1,7.054,2.449l-1.352,1.462a8.169,8.169,0,0,0-2.65-1.547,9.367,9.367,0,0,0-3.162-.527,9.575,9.575,0,0,0-4.367,1,7.86,7.86,0,0,0-3.144,2.789,7.66,7.66,0,0,0,0,8.077,7.911,7.911,0,0,0,3.144,2.772,9.645,9.645,0,0,0,4.4,1,10.557,10.557,0,0,0,3.4-.544,5.963,5.963,0,0,0,2.522-1.531L64.8,155.5a7.315,7.315,0,0,1-3.07,1.887,13.023,13.023,0,0,1-4.24.663,12.432,12.432,0,0,1-5.628-1.241" fill="#161615"/>
    <path id="Trazado_43300" data-name="Trazado 43300" d="M70.247,133.261a1.487,1.487,0,0,1,0,2.108,1.774,1.774,0,0,1-2.266,0,1.485,1.485,0,0,1,0-2.108,1.777,1.777,0,0,1,2.266,0m-2.193,5.917h2.12v18.433h-2.12Z" fill="#161615"/>
    <path id="Trazado_43301" data-name="Trazado 43301" d="M84.5,158.053a11.1,11.1,0,0,1-5.336-1.275,9.587,9.587,0,0,1-3.728-3.486,9.539,9.539,0,0,1,0-9.794,9.587,9.587,0,0,1,3.728-3.486,11.8,11.8,0,0,1,10.672,0,9.587,9.587,0,0,1,3.728,3.486,9.539,9.539,0,0,1,0,9.794,9.587,9.587,0,0,1-3.728,3.486,11.1,11.1,0,0,1-5.336,1.275m0-17.48a8.641,8.641,0,0,0-4.185,1.02,7.733,7.733,0,0,0-2.979,2.823,7.771,7.771,0,0,0,0,7.958,7.74,7.74,0,0,0,2.979,2.823,9.1,9.1,0,0,0,8.37,0,7.747,7.747,0,0,0,2.979-2.823,7.771,7.771,0,0,0,0-7.958,7.74,7.74,0,0,0-2.979-2.823,8.641,8.641,0,0,0-4.185-1.02" fill="#161615"/>
    <path id="Trazado_43302" data-name="Trazado 43302" d="M103.234,156.914a14.547,14.547,0,0,1-5.464-2.839l4.02-4.592a13.249,13.249,0,0,0,8.735,3.027,7.261,7.261,0,0,0,3.418-.663,1.906,1.906,0,0,0,1.224-1.616q0-1.5-2.558-1.836l-5.629-.816q-8.187-1.224-8.187-7.108a6.513,6.513,0,0,1,1.353-4.1,8.546,8.546,0,0,1,3.965-2.7,18.5,18.5,0,0,1,6.305-.952,23.158,23.158,0,0,1,6.323.867,13.89,13.89,0,0,1,5.19,2.636l-3.8,4.523a14.342,14.342,0,0,0-3.637-1.938,11.8,11.8,0,0,0-3.929-.647,8.818,8.818,0,0,0-3.454.562q-1.3.561-1.3,1.343,0,1.258,2.266,1.6l6.359.953a10.419,10.419,0,0,1,5.9,2.448,6.244,6.244,0,0,1,1.919,4.659,6.972,6.972,0,0,1-1.407,4.336,8.994,8.994,0,0,1-4.057,2.874,17.549,17.549,0,0,1-6.305,1.02,24.834,24.834,0,0,1-7.255-1.037" fill="#161615"/>
    <path id="Trazado_43303" data-name="Trazado 43303" d="M145.906,150.027H130.043a4.407,4.407,0,0,0,2.084,2.312,7.8,7.8,0,0,0,3.764.816,8.535,8.535,0,0,0,2.778-.425,11.124,11.124,0,0,0,2.7-1.445l3.327,3.843a10.159,10.159,0,0,1-3.6,2.109,15.47,15.47,0,0,1-5.281.816,14.877,14.877,0,0,1-6.542-1.327,9.786,9.786,0,0,1-4.167-3.6,9.363,9.363,0,0,1-1.425-5.068,9.663,9.663,0,0,1,5.263-8.689,12.458,12.458,0,0,1,5.994-1.377,12.246,12.246,0,0,1,5.957,1.377,9.62,9.62,0,0,1,3.856,3.724,10.271,10.271,0,0,1,1.335,5.169,7.846,7.846,0,0,1-.183,1.769m-14.09-6.241a4.209,4.209,0,0,0-1.809,2.262H139.8a4.115,4.115,0,0,0-1.718-2.262,5.642,5.642,0,0,0-3.106-.8,5.925,5.925,0,0,0-3.162.8" fill="#161615"/>
    <path id="Trazado_43304" data-name="Trazado 43304" d="M154.933,132.037v19.078a1.209,1.209,0,0,0,.475,1.055,2.156,2.156,0,0,0,1.28.34,5.207,5.207,0,0,0,1.608-.272v5.1a9.415,9.415,0,0,1-3.363.544,6.923,6.923,0,0,1-4.751-1.547,5.436,5.436,0,0,1-1.754-4.3v-20Z" fill="#161615"/>
    <path id="Trazado_43305" data-name="Trazado 43305" d="M180.773,150.027H164.91a4.407,4.407,0,0,0,2.084,2.312,7.8,7.8,0,0,0,3.764.816,8.535,8.535,0,0,0,2.778-.425,11.124,11.124,0,0,0,2.7-1.445l3.327,3.843a10.159,10.159,0,0,1-3.6,2.109,15.47,15.47,0,0,1-5.281.816,14.877,14.877,0,0,1-6.542-1.327,9.786,9.786,0,0,1-4.167-3.6,9.364,9.364,0,0,1-1.425-5.068,9.7,9.7,0,0,1,1.352-5.016,9.8,9.8,0,0,1,3.911-3.673,12.458,12.458,0,0,1,5.994-1.377,12.246,12.246,0,0,1,5.957,1.377,9.62,9.62,0,0,1,3.856,3.724,10.271,10.271,0,0,1,1.335,5.169,7.845,7.845,0,0,1-.183,1.769m-14.09-6.241a4.209,4.209,0,0,0-1.809,2.262h9.8a4.115,4.115,0,0,0-1.718-2.262,5.642,5.642,0,0,0-3.106-.8,5.925,5.925,0,0,0-3.162.8" fill="#161615"/>
    <path id="Trazado_43306" data-name="Trazado 43306" d="M187.662,156.727a9.839,9.839,0,0,1-4.148-3.588,9.54,9.54,0,0,1,.073-10.151,10.35,10.35,0,0,1,4.221-3.656,15.342,15.342,0,0,1,11.367-.476,10.193,10.193,0,0,1,3.563,2.227l-3.764,4.285a7.622,7.622,0,0,0-2.23-1.445,6.778,6.778,0,0,0-5.281.017,4.816,4.816,0,0,0-2.028,1.6,4.4,4.4,0,0,0,0,4.966,4.809,4.809,0,0,0,2.028,1.6,6.8,6.8,0,0,0,2.723.544,8.047,8.047,0,0,0,2.613-.442,6.3,6.3,0,0,0,2.285-1.36l3.728,4.251a10.357,10.357,0,0,1-3.564,2.142,16.447,16.447,0,0,1-11.586-.51" fill="#161615"/>
    <path id="Trazado_43307" data-name="Trazado 43307" d="M219.294,151.932V157.2a10.743,10.743,0,0,1-3.983.646q-4.312,0-6.47-1.938a6.979,6.979,0,0,1-2.155-5.475v-6.972h-3.474v-5.033h3.546v-3.469l6.432-2.823v6.292h5.922v5.033H213.19v6.5q0,2.448,3.18,2.448a9.85,9.85,0,0,0,2.924-.476" fill="#161615"/>
    <path id="Trazado_43308" data-name="Trazado 43308" d="M225.6,156.709a10.126,10.126,0,0,1-4.094-3.622,9.612,9.612,0,0,1,0-10.134,10.141,10.141,0,0,1,4.094-3.622,14.623,14.623,0,0,1,12.243,0,10.147,10.147,0,0,1,4.094,3.622,9.612,9.612,0,0,1,0,10.134,10.133,10.133,0,0,1-4.094,3.622,14.623,14.623,0,0,1-12.243,0m9.74-5.373a4.492,4.492,0,0,0,0-6.632,5.772,5.772,0,0,0-7.237,0,4.492,4.492,0,0,0,0,6.632,5.772,5.772,0,0,0,7.237,0" fill="#161615"/>
  </g>
</svg>
