<svg xmlns="http://www.w3.org/2000/svg" xmlns:xlink="http://www.w3.org/1999/xlink" width="200" height="64" viewBox="0 0 200 64">
  <defs>
    <clipPath id="clip-path">
      <rect id="Rect치ngulo_24178" data-name="Rect치ngulo 24178" width="200" height="32.579" fill="none"/>
    </clipPath>
  </defs>
  <g id="logo-pleca" transform="translate(-112 -68)">
    <rect id="Rect치ngulo_25236" data-name="Rect치ngulo 25236" width="200" height="64" transform="translate(112 68)" fill="none"/>
    <g id="Grupo_20026" data-name="Grupo 20026" transform="translate(112 84)">
      <g id="Grupo_20025" data-name="Grupo 20025" clip-path="url(#clip-path)">
        <path id="Trazado_45565" data-name="Trazado 45565" d="M33.787,15.251a7.3,7.3,0,0,0-1.834-2.123,11.3,11.3,0,0,0-2.51-1.473q-1.4-.6-2.751-1.038-1.06-.337-2-.675a15.484,15.484,0,0,1-1.666-.7,4.827,4.827,0,0,1-1.158-.772,1.262,1.262,0,0,1-.434-.941v-.1a1.541,1.541,0,0,1,.676-1.279,3.359,3.359,0,0,1,2.027-.507,9.822,9.822,0,0,1,3.233.652,23.213,23.213,0,0,1,3.765,1.761l2.8-5.068A18.536,18.536,0,0,0,29.274.8a16.583,16.583,0,0,0-5-.8,12.4,12.4,0,0,0-3.692.531A8.638,8.638,0,0,0,17.6,2.123a7.762,7.762,0,0,0-2.027,2.582,6.991,6.991,0,0,0-.576,1.712,16.283,16.283,0,0,0-4.23-.576,12.43,12.43,0,0,0-3.693.531A8.638,8.638,0,0,0,4.077,7.965,7.606,7.606,0,0,0,1.3,14.047v.1A6.647,6.647,0,0,0,2,17.328a7.057,7.057,0,0,0,1.81,2.2A9.727,9.727,0,0,0,6.3,20.972a27.292,27.292,0,0,0,2.727.942q1.06.338,2.027.626a17.559,17.559,0,0,1,1.714.6,3.645,3.645,0,0,1,1.182.748,1.387,1.387,0,0,1,.435,1.014V25a1.64,1.64,0,0,1-.749,1.4,4.081,4.081,0,0,1-2.34.532,11.428,11.428,0,0,1-3.934-.772,17.43,17.43,0,0,1-4.223-2.318L0,28.67a18.111,18.111,0,0,0,11.1,3.91,14.378,14.378,0,0,0,3.885-.507,9.464,9.464,0,0,0,3.162-1.521,6.883,6.883,0,0,0,2.1-2.582,7.274,7.274,0,0,0,.551-1.677,17.244,17.244,0,0,0,3.821.444A14.35,14.35,0,0,0,28.5,26.23a9.448,9.448,0,0,0,3.162-1.52,6.872,6.872,0,0,0,2.1-2.583,8.615,8.615,0,0,0,.748-3.74v-.1a5.99,5.99,0,0,0-.723-3.04" fill="#fd2905"/>
        <path id="Trazado_45566" data-name="Trazado 45566" d="M28.617,22.262a6.731,6.731,0,0,0,.557-2.4c-.1-.634-1.329-.941-1.844-.98a5.925,5.925,0,0,1-2.151-.472,36.533,36.533,0,0,1-3.6-1.882c-.234-.127-.454-.283-.565-.173-.06-.209-3.149-1.27-3.376-1.038.054-.139-.3-.219-.552-.282-.449-.12-1.608-.143-2.834-.257a14.65,14.65,0,0,1-1.951-.264,12.4,12.4,0,0,1-1.46-.509.347.347,0,0,0-.246-.239,4.5,4.5,0,0,0-.678-.039.242.242,0,0,1-.16-.143.308.308,0,0,0-.283-.156c-.145-.011-.239.126-.292.2a6.089,6.089,0,0,0-.408.862,6.216,6.216,0,0,0-.286.9c-.012.1-.036.261.077.35a.308.308,0,0,0,.316.078.242.242,0,0,1,.215,0,5.443,5.443,0,0,0,.523.438.357.357,0,0,0,.344-.011,11.835,11.835,0,0,1,1.42.615A14.511,14.511,0,0,1,12.985,18c.977.744,1.846,1.516,2.254,1.734.224.123.542.306.6.165.008.327,2.995,1.643,3.181,1.534.007.152.276.189.536.253a37.432,37.432,0,0,1,3.923,1.067,6.022,6.022,0,0,1,1.9,1.111c.4.323,1.517.935,2.017.538a6.712,6.712,0,0,0,1.221-2.145" transform="translate(-1.571 -2.492)" fill="#fff"/>
        <path id="Trazado_45567" data-name="Trazado 45567" d="M61.589,25.748a9.53,9.53,0,0,1-3.135-1.618l.915-1a8.7,8.7,0,0,0,2.8,1.512,10.539,10.539,0,0,0,3.285.511,7.134,7.134,0,0,0,2.426-.394,4.218,4.218,0,0,0,1.75-1.117,2.435,2.435,0,0,0,.652-1.683q0-2.3-3.662-2.96l-3.409-.617q-4.326-.787-4.326-3.663a3.231,3.231,0,0,1,.836-2.2A5.426,5.426,0,0,1,62,11.045a9.429,9.429,0,0,1,3.226-.522,8.8,8.8,0,0,1,6,1.938l-.847.937a7.019,7.019,0,0,0-2.494-1.332,9.54,9.54,0,0,0-2.678-.393,7.8,7.8,0,0,0-2.505.383,4.41,4.41,0,0,0-1.785,1.055,2.149,2.149,0,0,0-.652,1.543,1.9,1.9,0,0,0,.858,1.587,6.735,6.735,0,0,0,2.689.968l3.318.617a6.671,6.671,0,0,1,3.387,1.459,3.407,3.407,0,0,1,1.144,2.609,3.646,3.646,0,0,1-.779,2.3,5.084,5.084,0,0,1-2.185,1.565,8.515,8.515,0,0,1-3.192.564,12.978,12.978,0,0,1-3.914-.575" transform="translate(-10.844 -1.952)" fill="#1d1d1b"/>
        <path id="Trazado_45568" data-name="Trazado 45568" d="M83.127,27.245a6.955,6.955,0,0,1-3.341-.8,6.008,6.008,0,0,1-2.334-2.183,5.969,5.969,0,0,1,0-6.133,6.008,6.008,0,0,1,2.334-2.183,7.391,7.391,0,0,1,6.682,0A6.013,6.013,0,0,1,88.8,18.131a5.974,5.974,0,0,1,0,6.133,6.013,6.013,0,0,1-2.334,2.183,6.957,6.957,0,0,1-3.341.8m0-10.945a5.406,5.406,0,0,0-2.62.639,4.85,4.85,0,0,0-1.866,1.767,4.869,4.869,0,0,0,0,4.983,4.85,4.85,0,0,0,1.866,1.767,5.7,5.7,0,0,0,5.24,0,4.842,4.842,0,0,0,1.865-1.767,4.864,4.864,0,0,0,0-4.983,4.842,4.842,0,0,0-1.865-1.767,5.408,5.408,0,0,0-2.62-.639" transform="translate(-14.211 -2.811)" fill="#1d1d1b"/>
        <path id="Trazado_45569" data-name="Trazado 45569" d="M97.573,26.468a5.928,5.928,0,0,1-2.426-2.151,5.976,5.976,0,0,1,.011-6.228,5.974,5.974,0,0,1,2.448-2.161,7.792,7.792,0,0,1,3.513-.778,6.381,6.381,0,0,1,4.417,1.534l-.847.915a5.111,5.111,0,0,0-1.659-.969,5.862,5.862,0,0,0-1.979-.33,5.994,5.994,0,0,0-2.735.628,4.929,4.929,0,0,0-1.968,1.746,4.8,4.8,0,0,0,0,5.057,4.947,4.947,0,0,0,1.968,1.736,6.033,6.033,0,0,0,2.758.628,6.6,6.6,0,0,0,2.128-.34,3.736,3.736,0,0,0,1.578-.958l.893.851a4.576,4.576,0,0,1-1.922,1.182,8.146,8.146,0,0,1-2.654.415,7.783,7.783,0,0,1-3.524-.777" transform="translate(-17.49 -2.811)" fill="#1d1d1b"/>
        <path id="Trazado_45570" data-name="Trazado 45570" d="M112.071,10.883a.931.931,0,0,1,0,1.32,1.112,1.112,0,0,1-1.419,0,.929.929,0,0,1,0-1.32,1.112,1.112,0,0,1,1.419,0M110.7,14.588h1.328V26.129H110.7Z" transform="translate(-20.477 -1.971)" fill="#1d1d1b"/>
        <path id="Trazado_45571" data-name="Trazado 45571" d="M121.928,27.245a6.955,6.955,0,0,1-3.341-.8,6.008,6.008,0,0,1-2.334-2.183,5.974,5.974,0,0,1,0-6.133,6.008,6.008,0,0,1,2.334-2.183,7.391,7.391,0,0,1,6.682,0,6.014,6.014,0,0,1,2.334,2.183,5.974,5.974,0,0,1,0,6.133,6.014,6.014,0,0,1-2.334,2.183,6.957,6.957,0,0,1-3.341.8m0-10.945a5.406,5.406,0,0,0-2.62.639,4.842,4.842,0,0,0-1.865,1.767,4.864,4.864,0,0,0,0,4.983,4.842,4.842,0,0,0,1.865,1.767,5.7,5.7,0,0,0,5.24,0,4.842,4.842,0,0,0,1.865-1.767,4.864,4.864,0,0,0,0-4.983,4.842,4.842,0,0,0-1.865-1.767,5.408,5.408,0,0,0-2.62-.639" transform="translate(-21.41 -2.811)" fill="#1d1d1b"/>
        <path id="Trazado_45572" data-name="Trazado 45572" d="M137.037,25.673a9.1,9.1,0,0,1-3.422-1.778l2.518-2.874a8.3,8.3,0,0,0,5.469,1.9,4.541,4.541,0,0,0,2.14-.415q.767-.415.767-1.012,0-.937-1.6-1.15l-3.524-.511q-5.126-.767-5.126-4.451a4.075,4.075,0,0,1,.847-2.566,5.352,5.352,0,0,1,2.483-1.692,11.571,11.571,0,0,1,3.948-.6,14.507,14.507,0,0,1,3.959.542,8.688,8.688,0,0,1,3.25,1.651l-2.38,2.831a8.991,8.991,0,0,0-2.277-1.214,7.416,7.416,0,0,0-2.46-.4,5.529,5.529,0,0,0-2.163.351q-.812.352-.812.841,0,.788,1.419,1l3.982.6a6.522,6.522,0,0,1,3.7,1.533,3.908,3.908,0,0,1,1.2,2.917,4.364,4.364,0,0,1-.881,2.715,5.628,5.628,0,0,1-2.54,1.8,10.981,10.981,0,0,1-3.948.639,15.548,15.548,0,0,1-4.542-.65" transform="translate(-24.788 -1.952)" fill="#1d1d1b"/>
        <path id="Trazado_45573" data-name="Trazado 45573" d="M167.451,22.113h-9.933a2.762,2.762,0,0,0,1.3,1.447,4.878,4.878,0,0,0,2.357.511,5.349,5.349,0,0,0,1.739-.266,6.969,6.969,0,0,0,1.693-.9l2.083,2.406a6.34,6.34,0,0,1-2.254,1.32,9.694,9.694,0,0,1-3.307.511,9.321,9.321,0,0,1-4.1-.83,6.129,6.129,0,0,1-2.609-2.257,5.865,5.865,0,0,1-.893-3.173,6.079,6.079,0,0,1,.847-3.141,6.14,6.14,0,0,1,2.448-2.3,7.809,7.809,0,0,1,3.753-.863,7.674,7.674,0,0,1,3.73.863,6.021,6.021,0,0,1,2.414,2.333,6.428,6.428,0,0,1,.836,3.236,4.917,4.917,0,0,1-.114,1.108M158.628,18.2a2.638,2.638,0,0,0-1.133,1.416h6.133a2.577,2.577,0,0,0-1.075-1.416,3.532,3.532,0,0,0-1.945-.5,3.71,3.71,0,0,0-1.98.5" transform="translate(-28.483 -2.704)" fill="#1d1d1b"/>
        <path id="Trazado_45574" data-name="Trazado 45574" d="M176.631,10V21.946a.757.757,0,0,0,.3.66,1.347,1.347,0,0,0,.8.213,3.262,3.262,0,0,0,1.008-.171v3.194a5.9,5.9,0,0,1-2.106.341,4.331,4.331,0,0,1-2.974-.969,3.4,3.4,0,0,1-1.1-2.694V10Z" transform="translate(-32.012 -1.855)" fill="#1d1d1b"/>
        <path id="Trazado_45575" data-name="Trazado 45575" d="M194.255,22.113h-9.933a2.762,2.762,0,0,0,1.3,1.447,4.878,4.878,0,0,0,2.357.511,5.349,5.349,0,0,0,1.739-.266,6.969,6.969,0,0,0,1.693-.9l2.083,2.406a6.34,6.34,0,0,1-2.254,1.32,9.694,9.694,0,0,1-3.307.511,9.321,9.321,0,0,1-4.1-.83,6.129,6.129,0,0,1-2.609-2.257,5.865,5.865,0,0,1-.893-3.173,6.079,6.079,0,0,1,.847-3.141,6.14,6.14,0,0,1,2.448-2.3,7.809,7.809,0,0,1,3.753-.863,7.674,7.674,0,0,1,3.73.863,6.021,6.021,0,0,1,2.414,2.333,6.428,6.428,0,0,1,.836,3.236,4.917,4.917,0,0,1-.114,1.108M185.432,18.2a2.638,2.638,0,0,0-1.133,1.416h6.133a2.577,2.577,0,0,0-1.075-1.416,3.532,3.532,0,0,0-1.945-.5,3.71,3.71,0,0,0-1.98.5" transform="translate(-33.456 -2.704)" fill="#1d1d1b"/>
        <path id="Trazado_45576" data-name="Trazado 45576" d="M201.925,26.308a6.163,6.163,0,0,1-2.6-2.246,5.975,5.975,0,0,1,.046-6.356,6.484,6.484,0,0,1,2.644-2.29,9.619,9.619,0,0,1,7.117-.3,6.388,6.388,0,0,1,2.231,1.4L209.008,19.2a4.747,4.747,0,0,0-1.4-.9,4.246,4.246,0,0,0-3.307.011,3.014,3.014,0,0,0-1.27,1,2.754,2.754,0,0,0,0,3.109,3.014,3.014,0,0,0,1.27,1,4.269,4.269,0,0,0,1.706.34,5.032,5.032,0,0,0,1.635-.277,3.945,3.945,0,0,0,1.431-.852l2.333,2.662a6.475,6.475,0,0,1-2.231,1.341,10.29,10.29,0,0,1-7.255-.319" transform="translate(-36.813 -2.704)" fill="#1d1d1b"/>
        <path id="Trazado_45577" data-name="Trazado 45577" d="M224.744,22.471v3.3a6.721,6.721,0,0,1-2.494.4,5.9,5.9,0,0,1-4.051-1.214,4.374,4.374,0,0,1-1.35-3.428V17.169h-2.174V14.018h2.22V11.845l4.028-1.767v3.94h3.708v3.151h-3.708v4.068q0,1.532,1.991,1.533a6.183,6.183,0,0,0,1.831-.3" transform="translate(-39.825 -1.87)" fill="#1d1d1b"/>
        <path id="Trazado_45578" data-name="Trazado 45578" d="M231.094,26.3a6.352,6.352,0,0,1-2.562-2.268,6.02,6.02,0,0,1,0-6.346,6.356,6.356,0,0,1,2.562-2.268,9.155,9.155,0,0,1,7.668,0,6.369,6.369,0,0,1,2.563,2.268,6.029,6.029,0,0,1,0,6.346,6.365,6.365,0,0,1-2.563,2.268,9.163,9.163,0,0,1-7.668,0m6.1-3.365a2.812,2.812,0,0,0,0-4.152,3.611,3.611,0,0,0-4.531,0,2.814,2.814,0,0,0,0,4.152,3.614,3.614,0,0,0,4.531,0" transform="translate(-42.228 -2.704)" fill="#1d1d1b"/>
      </g>
    </g>
  </g>
</svg>
