<svg id="icn-herramientas" xmlns="http://www.w3.org/2000/svg" xmlns:xlink="http://www.w3.org/1999/xlink" width="30" height="30" viewBox="0 0 30 30">
  <defs>
    <clipPath id="clip-path">
      <rect id="Rect치ngulo_23519" data-name="Rect치ngulo 23519" width="28" height="28" transform="translate(-3.016 -3.016)" fill="#fff" stroke="#fff" stroke-width="0.5"/>
    </clipPath>
  </defs>
  <g id="Grupo_20145" data-name="Grupo 20145" transform="translate(4.016 4.016)">
    <g id="Grupo_20144" data-name="Grupo 20144" transform="translate(0 0)" clip-path="url(#clip-path)">
      <path id="Trazado_42988" data-name="Trazado 42988" d="M3.735,54.6a1.287,1.287,0,0,1-.917-.38L.38,51.784a1.3,1.3,0,0,1,0-1.834L6.833,43.5a1.3,1.3,0,0,1,1.834,0L11.1,45.935a1.3,1.3,0,0,1,0,1.834L4.652,54.221a1.287,1.287,0,0,1-.917.38M7.75,43.846a.565.565,0,0,0-.4.166L.9,50.465a.568.568,0,0,0,0,.8l2.438,2.438h0a.581.581,0,0,0,.8,0l6.453-6.453a.568.568,0,0,0,0-.8L8.151,44.012a.565.565,0,0,0-.4-.166" transform="translate(0 -32.633)" fill="#fff" stroke="#fff" stroke-width="0.5"/>
      <path id="Trazado_42989" data-name="Trazado 42989" d="M35.834,44.512a.363.363,0,0,1-.258-.107l-2.484-2.483a.365.365,0,0,1,0-.517l.667-.667a1.206,1.206,0,0,1,1.7,0l1.3,1.3a1.206,1.206,0,0,1,0,1.7l-.67.67a.363.363,0,0,1-.257.106m-1.966-2.847,1.968,1.968.409-.411h0a.475.475,0,0,0,0-.671l-1.3-1.3a.475.475,0,0,0-.671,0Z" transform="translate(-24.965 -30.564)" fill="#fff" stroke="#fff" stroke-width="0.5"/>
      <path id="Trazado_42990" data-name="Trazado 42990" d="M84.76,2.011A.363.363,0,0,1,84.5,1.9l-.79-.789A.365.365,0,0,1,84.228.6l.79.789a.365.365,0,0,1-.258.623" transform="translate(-63.276 -0.372)" fill="#fff" stroke="#fff" stroke-width="0.5"/>
      <path id="Trazado_42991" data-name="Trazado 42991" d="M42.561,21.628a.366.366,0,0,1-.258-.107l-1.03-1.03a.365.365,0,0,1,0-.516l7.092-7.092a.365.365,0,0,1,.516.516l-6.834,6.834.514.514L49.4,13.913a.365.365,0,0,1,.516.516l-7.092,7.092a.366.366,0,0,1-.258.107" transform="translate(-31.156 -9.67)" fill="#fff" stroke="#fff" stroke-width="0.5"/>
      <path id="Trazado_42992" data-name="Trazado 42992" d="M72.768,4.959h-.025l-1.332-.093a.365.365,0,1,1,.051-.728l1.1.077,1.53-2.758-.64-.64L70.7,2.347l.077,1.1a.365.365,0,1,1-.728.051l-.093-1.332a.365.365,0,0,1,.187-.344l3.2-1.776a.365.365,0,0,1,.435.061L74.8,1.135a.364.364,0,0,1,.061.435l-1.776,3.2a.365.365,0,0,1-.319.188" transform="translate(-52.941 0)" fill="#fff" stroke="#fff" stroke-width="0.5"/>
      <path id="Trazado_42993" data-name="Trazado 42993" d="M25.945,34.9a.364.364,0,0,1-.258-.107L22.892,32a.365.365,0,1,1,.516-.516L26.2,34.277a.365.365,0,0,1-.258.623" transform="translate(-17.245 -23.747)" fill="#fff" stroke="#fff" stroke-width="0.5"/>
      <path id="Trazado_42994" data-name="Trazado 42994" d="M47.646,56.6a.364.364,0,0,1-.258-.107L44.6,53.7a.365.365,0,1,1,.516-.516L47.9,55.978a.365.365,0,0,1-.258.623" transform="translate(-33.672 -40.173)" fill="#fff" stroke="#fff" stroke-width="0.5"/>
      <path id="Trazado_42995" data-name="Trazado 42995" d="M54.317,45.4a.364.364,0,0,1-.258-.107l-3.522-3.522a.365.365,0,0,1,.516-.516l3.523,3.522a.365.365,0,0,1-.258.623" transform="translate(-38.167 -31.144)" fill="#fff" stroke="#fff" stroke-width="0.5"/>
      <path id="Trazado_42996" data-name="Trazado 42996" d="M35.6,26.68a.364.364,0,0,1-.258-.107l-3.522-3.522a.365.365,0,0,1,.516-.516l3.522,3.522a.365.365,0,0,1-.258.623" transform="translate(-23.998 -16.975)" fill="#fff" stroke="#fff" stroke-width="0.5"/>
      <path id="Trazado_42997" data-name="Trazado 42997" d="M4.707,17.169A4.32,4.32,0,0,1,.6,11.508a.365.365,0,1,1,.693.226,3.59,3.59,0,0,0,4.765,4.44.365.365,0,1,1,.275.676,4.327,4.327,0,0,1-1.629.319" transform="translate(-0.294 -8.519)" fill="#fff" stroke="#fff" stroke-width="0.5"/>
      <path id="Trazado_42998" data-name="Trazado 42998" d="M16.856,6.218a.365.365,0,0,1-.338-.5A3.589,3.589,0,0,0,12.079.954.365.365,0,1,1,11.851.26a4.318,4.318,0,0,1,5.343,5.73.365.365,0,0,1-.338.228" transform="translate(-8.779 -0.033)" fill="#fff" stroke="#fff" stroke-width="0.5"/>
      <path id="Trazado_42999" data-name="Trazado 42999" d="M59.083,70.733a4.323,4.323,0,0,1-3.993-5.949.365.365,0,1,1,.676.275,3.59,3.59,0,0,0,4.44,4.765.365.365,0,1,1,.227.693,4.344,4.344,0,0,1-1.35.216" transform="translate(-41.453 -48.858)" fill="#fff" stroke="#fff" stroke-width="0.5"/>
      <path id="Trazado_43000" data-name="Trazado 43000" d="M70.522,60.343a.365.365,0,0,1-.347-.478,3.589,3.589,0,0,0-4.762-4.44.365.365,0,0,1-.275-.676,4.319,4.319,0,0,1,5.73,5.343.365.365,0,0,1-.347.251" transform="translate(-49.127 -41.195)" fill="#fff" stroke="#fff" stroke-width="0.5"/>
      <path id="Trazado_43001" data-name="Trazado 43001" d="M4.087,6.142h0a1.552,1.552,0,0,1-1.1-.458L1.309,4.011a.365.365,0,1,1,.516-.516L3.5,5.169a.826.826,0,0,0,.588.244h0a.823.823,0,0,0,.586-.243l.839-.839a.83.83,0,0,0,0-1.174L3.838,1.482A.365.365,0,0,1,4.354.966L6.028,2.64a1.56,1.56,0,0,1,0,2.206l-.839.839a1.548,1.548,0,0,1-1.1.456" transform="translate(-0.91 -0.65)" fill="#fff" stroke="#fff" stroke-width="0.5"/>
      <path id="Trazado_43002" data-name="Trazado 43002" d="M70.15,72.7a.364.364,0,0,1-.258-.107L68.219,70.92a1.56,1.56,0,0,1,0-2.206l.839-.839a1.547,1.547,0,0,1,1.1-.456h0a1.552,1.552,0,0,1,1.1.458l1.674,1.674a.365.365,0,0,1-.516.516l-1.674-1.674a.826.826,0,0,0-.588-.244h0a.824.824,0,0,0-.586.243l-.839.84a.83.83,0,0,0,0,1.174l1.674,1.673a.365.365,0,0,1-.258.623" transform="translate(-51.284 -51.024)" fill="#fff" stroke="#fff" stroke-width="0.5"/>
    </g>
  </g>
  <rect id="Rect치ngulo_23520" data-name="Rect치ngulo 23520" width="30" height="30" fill="none"/>
</svg>
