<svg id="icn-hogar" xmlns="http://www.w3.org/2000/svg" xmlns:xlink="http://www.w3.org/1999/xlink" width="30" height="30" viewBox="0 0 30 30">
  <defs>
    <clipPath id="clip-path">
      <rect id="Rect치ngulo_23522" data-name="Rect치ngulo 23522" width="27" height="27" transform="translate(-2 -2)" fill="#fff" stroke="#fff" stroke-width="0.5"/>
    </clipPath>
  </defs>
  <rect id="Rect치ngulo_23521" data-name="Rect치ngulo 23521" width="30" height="30" fill="none"/>
  <g id="Grupo_20147" data-name="Grupo 20147" transform="translate(4 4)">
    <g id="Grupo_20146" data-name="Grupo 20146" transform="translate(0 0)" clip-path="url(#clip-path)">
      <path id="Trazado_43003" data-name="Trazado 43003" d="M14.752,9.16a2.625,2.625,0,0,0-2.55-.04,4.275,4.275,0,0,0-.836.532,4.133,4.133,0,0,0-.836-.532,2.626,2.626,0,0,0-2.55.04,3.064,3.064,0,0,0-1.387,1.9,3.451,3.451,0,0,0,.381,2.613,19.212,19.212,0,0,0,4.177,4.387.36.36,0,0,0,.438,0,19.3,19.3,0,0,0,4.177-4.387,3.457,3.457,0,0,0,.381-2.613,3.093,3.093,0,0,0-1.394-1.9Zm.393,4.142a18.207,18.207,0,0,1-3.776,4.013A18.119,18.119,0,0,1,7.591,13.3a2.718,2.718,0,0,1-.3-2.065A2.349,2.349,0,0,1,8.348,9.778a1.777,1.777,0,0,1,.913-.253,2.962,2.962,0,0,1,1.851.853.357.357,0,0,0,.511,0c.057-.057,1.4-1.4,2.766-.6a2.349,2.349,0,0,1,1.055,1.458A2.732,2.732,0,0,1,15.145,13.3ZM21.4,20.071H20.228V10.558a1.941,1.941,0,0,0,.707.136,1.821,1.821,0,0,0,.284-.022,1.788,1.788,0,0,0,1.168-.731,1.892,1.892,0,0,0-.543-2.71L12.193.267a1.373,1.373,0,0,0-1.626,0L.916,7.232a1.981,1.981,0,0,0-.907,1.8,1.841,1.841,0,0,0,1.086,1.489,1.869,1.869,0,0,0,1.438.031v9.518H1.339a1.339,1.339,0,0,0,0,2.679H21.4a1.338,1.338,0,1,0,0-2.676ZM1.385,9.865A1.145,1.145,0,0,1,.72,8.958,1.266,1.266,0,0,1,1.33,7.815L10.982.85a.658.658,0,0,1,.785,0l9.652,6.965a1.181,1.181,0,0,1,.381,1.7,1.159,1.159,0,0,1-1.726.142L11.588,3.54a.359.359,0,0,0-.42,0L2.678,9.663A1.27,1.27,0,0,1,1.385,9.865Zm1.866.272,8.128-5.865,8.128,5.865v9.93H3.25ZM21.4,22.027H1.337a.62.62,0,1,1,0-1.239H21.4a.62.62,0,1,1,0,1.239" transform="translate(0 0)" fill="#fff" stroke="#fff" stroke-width="0.5"/>
    </g>
  </g>
</svg>
